<?xml version="1.0" encoding="utf-8"?>
<!-- Generator: Adobe Illustrator 25.0.0, SVG Export Plug-In . SVG Version: 6.00 Build 0)  -->
<svg version="1.1" id="Layer_1" xmlns="http://www.w3.org/2000/svg" xmlns:xlink="http://www.w3.org/1999/xlink" x="0px" y="0px"
	 viewBox="0 0 100 100" style="enable-background:new 0 0 100 100;" xml:space="preserve">
<style type="text/css">
	.st0{fill:#2B2B2D;}
	.st1{fill:url(#SVGID_1_);}
	.st2{fill:none;}
	.st3{fill:#FFFFFF;}
</style>
<g id="bg_1_">
	<rect class="st0" width="100" height="100"/>
	
		<linearGradient id="SVGID_1_" gradientUnits="userSpaceOnUse" x1="84.1506" y1="28.8494" x2="15.8494" y2="147.1506" gradientTransform="matrix(1 0 0 -1 0 138)">
		<stop  offset="0" style="stop-color:#FFFFFF;stop-opacity:0"/>
		<stop  offset="1" style="stop-color:#FFFFFF;stop-opacity:0.2"/>
	</linearGradient>
	<rect class="st1" width="100" height="100"/>
</g>
<path class="st2" d="M41.3,50.7c0-0.2,0-0.4,0-0.7c0-3.5,2.1-6.5,5-7.9c-0.4-3.3-0.6-6.6-0.4-10.1c-7.6,1.9-13.3,8.7-13.3,16.9
	c0,2,0.4,3.9,1,5.7c0.3-0.2,0.5-0.3,0.8-0.4c1.2-0.7,2.3-1.3,3.5-1.9C38.1,52.1,41.3,50.9,41.3,50.7z"/>
<path class="st2" d="M55.8,56.4c-1.6,1.4-3.6,2.2-5.8,2.2c-2.1,0-4.2-0.9-5.7-2.2c-2.1,1.6-4.5,3.1-6.9,4.5
	c3.1,3.4,7.7,5.4,12.6,5.4s9.4-2.1,12.7-5.4C60.3,59.6,58,58.1,55.8,56.4C55.9,56.5,55.8,56.4,55.8,56.4z"/>
<circle class="st2" cx="50" cy="50" r="3.7"/>
<path class="st2" d="M53.3,32c0.2,3.5,0,6.8-0.4,10c1.1,0.4,2.1,1,2.9,1.7c1.8,1.5,2.9,3.8,2.9,6.4c0,0.2,0,0.4,0,0.5
	c0,0.1,0,0.1,0,0.2c0,0.1,1.9,0.8,2.1,0.9c0.7,0.4,1.3,0.6,2.1,1c1.2,0.6,2.4,1.2,3.6,2.1c0.6-1.8,1-3.7,1-5.7
	C67.3,40.6,61.2,33.6,53.3,32z"/>
<path class="st3" d="M72.5,65.2c0.7,0.3,1.3,0.6,2,0.9c1.5,0.6,3,1,4.1,0.9c0.2,0,0.9,0,1-0.6c0-0.2,0-0.4-0.1-0.8
	c-0.2-0.5-0.6-0.9-0.9-1.4c-1.4-1.7-3.5-3.1-5.2-4.3l-0.8-0.5l0.3-0.8c0.6-1.5,1.2-3.3,1.5-5.3l0.1-0.8l6.6-1c0,0,0.2-0.2,0.2-0.5
	v-3.9c0-0.3-0.2-0.7-0.3-0.8l-6.4-1l-0.1-0.8c-0.3-1.7-0.7-3.1-1.2-4.4l-0.3-0.7l5-4.3c0,0,0-0.1,0.1-0.1l-0.1-0.1l-1.9-3.3
	c-0.1-0.2-0.4-0.2-0.5-0.2l-0.2,0.1l-5.8,2.1l-0.5-0.6c-1-1.1-2-2.2-3.2-3.2l-0.6-0.5l2.2-6.3c0-0.1,0-0.3-0.1-0.4l-3.2-2
	c-0.2,0-0.5,0.1-0.6,0.2L63.4,21l-4.1,4.9l-0.7-0.3c-1.8-0.7-3.8-1.2-5.8-1.4L52.1,24l-0.2-0.8c-0.1-0.3-0.1-0.6-0.1-0.9
	c0-0.2,0-0.4-0.1-0.6c-0.2-1.8-0.7-3.2-1.3-4.3c-0.2-0.3-0.6-0.6-1-0.5l-0.1,0c-0.2,0-0.4,0.2-0.5,0.4c-0.7,0.9-1.1,2.3-1.4,4.4
	c-0.1,0.3-0.1,0.5-0.1,0.7c0,0.3-0.1,0.6-0.1,0.9l-0.2,0.8l-0.8,0.1c-2,0.3-3.5,0.7-5,1.3l-0.7,0.3l-4.3-5c0,0-0.1,0-0.1-0.1
	l-0.1,0.1l-3.4,2c-0.1,0-0.1,0.1-0.2,0.1l0.1,0.2l2.2,6.1l-0.6,0.5c-1.1,1-2.3,2.1-3.3,3.3l-0.5,0.6l-6.3-2.2c0,0-0.2,0-0.5,0.3
	l-1.9,3c0,0.1,0.1,0.5,0.2,0.6l0.1,0.1l4.8,4.1l-0.3,0.7c-0.5,1.3-0.9,2.7-1.2,4.4l-0.1,0.8l-6.2,1c-0.3,0.2-0.5,0.5-0.6,0.6l0,3.8
	c0,0.1,0.2,0.4,0.3,0.5l6.5,1l0.1,0.8c0.3,1.6,0.8,3.4,1.5,5.4l0.3,0.8l-0.7,0.5c-0.4,0.3-0.8,0.6-1.4,1c-0.1,0.1-0.4,0.3-0.7,0.5
	c-1.6,1.1-4.6,3.2-4.2,4.9c0.1,0.6,0.8,0.7,0.9,0.7c1.1,0,2.5-0.3,4.2-0.9c1.2-0.5,2.5-1,3.7-1.5l0.8-0.4l0.6,0.7
	c0.9,1.1,2,2.3,3.4,3.5l0.6,0.5l-2.2,6.3c0,0.1,0,0.3,0.1,0.4l3.2,2c0.1,0,0.5-0.1,0.6-0.2l0.1-0.1l4.1-4.8l0.7,0.3
	c1.3,0.5,2.7,0.9,4.4,1.2l0.8,0.1l1,6.5h0c0,0,0.2,0.2,0.5,0.2H52c0.1,0,0.4-0.2,0.5-0.3l1-6.5l0.8-0.1c1.7-0.3,3.1-0.7,4.4-1.2
	l0.7-0.3l4.1,4.7c0.3,0.2,0.4,0.2,0.7,0.1l3.1-1.9c0.2-0.1,0.3-0.4,0.2-0.5l-0.1-0.2l-2.1-5.8L66,68c1.2-1,2.3-2.2,3.2-3.3l0.5-0.7
	l0.8,0.4C71.2,64.7,71.8,64.9,72.5,65.2z M50,44.8c2.9,0,5.2,2.3,5.2,5.2c0,2.9-2.3,5.2-5.2,5.2c-2.9,0-5.2-2.3-5.2-5.2
	C44.8,47.2,47.2,44.8,50,44.8z M33.1,55.6c-0.2,0.1-0.4,0.2-0.5,0.3c-0.1,0.1-0.2,0.1-0.3,0.2L31,56.9l-0.5-1.4
	c-0.8-2.2-1.2-4.5-1.2-6.8c0-9.5,6.5-17.7,15.7-20l1.5-0.4L46.5,30c-0.2,3.6,0,7.3,0.5,11.1l0.1,0.8l-0.8,0.3
	c-3,1.4-4.9,4.4-4.9,7.8v0.8c0,0.9-0.4,1-3.2,2.2c-0.6,0.2-1.1,0.4-1.2,0.5l-0.1,0.1C35.6,54.2,34.4,54.9,33.1,55.6z M65,63
	c-4.1,4.1-9.5,6.4-15,6.4c-5.7,0-11.1-2.4-14.9-6.5l-1-1l1.2-0.7c2.6-1.4,5.1-3.1,7.6-4.9l0.7-0.5l0.7,0.6c1.6,1.4,3.7,2.2,5.7,2.2
	c2.2,0,4.1-0.7,5.7-2.2l0.8-0.7l0.7,0.8c2.2,1.7,4.7,3.2,7.4,4.8l1.3,0.7L65,63z M69.3,55.7L68.8,57l-1.2-0.8
	c-1.3-0.9-2.6-1.6-3.9-2.2c-0.4-0.2-0.8-0.4-1.1-0.5c-0.4-0.2-0.8-0.4-1.2-0.6c-0.1,0-0.3-0.1-0.5-0.2c-2-0.8-2.4-1-2.4-1.8v-0.8
	c0-2.5-1.1-4.8-2.9-6.3c-0.9-0.8-1.9-1.4-2.8-1.7L52,41.8l0.1-0.9c0.5-3.7,0.7-7.3,0.5-11l-0.1-1.4l1.4,0.3
	c9.6,1.9,16.6,10.4,16.6,20.2C70.5,51.2,70.1,53.5,69.3,55.7z"/>
<circle class="st2" cx="50" cy="50" r="36.3"/>
</svg>
