<?xml version="1.0" encoding="utf-8"?>
<!-- Generator: Adobe Illustrator 26.0.3, SVG Export Plug-In . SVG Version: 6.00 Build 0)  -->
<svg version="1.1" id="Layer_1" xmlns="http://www.w3.org/2000/svg" xmlns:xlink="http://www.w3.org/1999/xlink" x="0px" y="0px"
	 viewBox="0 0 100 100" style="enable-background:new 0 0 100 100;" xml:space="preserve">
<style type="text/css">
	.st0{fill:#FFFFFF;}
	.st1{fill:#9F9FCC;}
	.st2{fill:#8080D8;}
</style>
<rect class="st0" width="100" height="100"/>
<path class="st1" d="M80.5,69.8c1.5,0,2.8-1.3,2.8-2.8V39.4c0-1.5-1.3-2.6-2.8-2.6H63.8v17.5c0,3.3-2.8,6.1-6.1,6.1H36.5v6.5
	c0,1.5,1.3,2.8,2.8,2.8h28.5l6.5,7.7c1.6,1.9,2.9,1.4,2.9-1.1v-6.7L80.5,69.8L80.5,69.8z"/>
<path class="st2" d="M18.2,27.3c-0.4,0-0.8,0.1-1.1,0.4c-0.3,0.3-0.5,0.7-0.5,1.1v25.7c0,0.9,0.7,1.6,1.6,1.6h3.9v9.1
	c0,2.5,1.3,3,2.9,1.1l8.5-10.1h24.3c0.9,0,1.6-0.7,1.6-1.6V28.8c0-0.4-0.2-0.8-0.5-1.1c-0.3-0.3-0.7-0.4-1.1-0.4H18.2L18.2,27.3z
	 M46.1,43.8c-0.5-0.5-0.8-1.2-0.8-2s0.3-1.5,0.8-2s1.2-0.8,2-0.8c0.7,0,1.5,0.3,2,0.8s0.8,1.2,0.8,2s-0.3,1.5-0.8,2s-1.2,0.8-2,0.8
	C47.4,44.7,46.7,44.4,46.1,43.8z M37.3,44.7c-0.7,0-1.5-0.3-2-0.8s-0.8-1.2-0.8-2s0.3-1.5,0.8-2s1.2-0.8,2-0.8c0.7,0,1.5,0.3,2,0.8
	s0.8,1.2,0.8,2s-0.3,1.5-0.8,2S38.1,44.7,37.3,44.7L37.3,44.7z M26.6,44.7c-0.7,0-1.5-0.3-2-0.8s-0.8-1.2-0.8-2s0.3-1.5,0.8-2
	s1.2-0.8,2-0.8c0.7,0,1.5,0.3,2,0.8s0.8,1.2,0.8,2s-0.3,1.5-0.8,2C28,44.4,27.3,44.7,26.6,44.7L26.6,44.7z"/>
</svg>
