<?xml version="1.0" encoding="utf-8"?>
<!-- Generator: Adobe Illustrator 24.3.0, SVG Export Plug-In . SVG Version: 6.00 Build 0)  -->
<svg version="1.1" id="Layer_1" xmlns="http://www.w3.org/2000/svg" xmlns:xlink="http://www.w3.org/1999/xlink" x="0px" y="0px"
	 viewBox="0 0 512 512" style="enable-background:new 0 0 512 512;" xml:space="preserve">
<path d="M478.7,342.2v-11.9l-71.8-60.1l2.3-14.8h1.4c0,0,1.2-4.6,1.2-10.7c0,0,0.1-11.6-1.8-12.1c-2.2-0.5-4.3-0.5-7.5-0.5h-0.7
	c-3.2,0-5.4,0-7.5,0.5c-1.9,0.4-1.8,12.1-1.8,12.1c0,6.1,1.2,10.7,1.2,10.7h1.4l0.8,5.1l-52.3-47.8l2.3-15.3h1.4
	c0,0,1.2-4.6,1.2-10.7c0,0,0.1-11.6-1.8-12.1c-2.2-0.5-4.3-0.5-7.5-0.5h-0.7c-3.2,0-5.4,0-7.5,0.5c-1.9,0.4-1.8,12.1-1.8,12.1
	c0,6.1,1.2,10.7,1.2,10.7h1.4l0.8,5.1l-53-48.7v-50.6c0-31.4-9.2-97-23.2-97c-14,0-23.2,65.6-23.2,97v50.6l-53,48.7l0.8-5.1h1.4
	c0,0,1.2-4.6,1.2-10.7c0,0,0.1-11.6-1.8-12.1c-2.2-0.5-4.3-0.5-7.5-0.5h-0.7c-3.2,0-5.4,0-7.5,0.5c-1.9,0.4-1.8,12.1-1.8,12.1
	c0,6.1,1.2,10.7,1.2,10.7h1.4l2.3,15.3l-52.3,47.8l0.8-5.1h1.4c0,0,1.2-4.6,1.2-10.7c0,0,0.1-11.6-1.8-12.1
	c-2.2-0.5-4.3-0.5-7.5-0.5h-0.7c-3.2,0-5.4,0-7.5,0.5c-1.9,0.4-1.8,12.1-1.8,12.1c0,6.1,1.2,10.7,1.2,10.7h1.4l2.3,14.8L34,330.3
	v11.9l-4.6,18.1v9.9l5.8-11.7l22.5-16.8l52.5-30.6l22.5-13.1c0.1,3.2,0.7,5.8,1.6,7.8c1.2-2.4,1.7-5.6,1.7-9.8l19.3-11.2
	c0.2,2.7,0.7,5,1.6,6.8c1.1-2.2,1.6-5,1.7-8.7l6.6-3.8l12.2-4l15-4.8c0.1,3.2,0.7,5.8,1.6,7.8c1.1-2.3,1.6-5.2,1.7-8.9l15.9-5.1
	c0.1,3.5,0.7,6.2,1.7,8.3c1.1-2.4,1.7-5.4,1.7-9.4l18.3-5.9v86.8c0,33.4,4.7,67,6.2,75.7c0.8,4.8,0.6,6.7-1.2,8.5
	S177.2,483,177.2,483V501l74.3-20.1l3.4,10.7l1.5,14.5l1.5-14.5l3.4-10.7l74.3,20.1V483c0,0-59.3-53.1-61.2-54.9
	c-1.8-1.8-2-3.7-1.2-8.5c1.5-8.7,6.2-42.3,6.2-75.7V257l18.3,5.9c0,4,0.6,7.1,1.7,9.4c1-2.1,1.6-4.9,1.7-8.3l15.9,5.1
	c0.1,3.7,0.6,6.6,1.7,8.9c1-2,1.5-4.6,1.6-7.8l15,4.8l12.2,4l6.6,3.8c0.1,3.6,0.6,6.5,1.7,8.7c0.9-1.8,1.4-4,1.6-6.8l19.3,11.2
	c0,4.2,0.5,7.3,1.7,9.8c1-2,1.5-4.6,1.6-7.8l22.5,13.1l52.5,30.6l22.5,16.8l5.8,11.7v-9.9L478.7,342.2z"/>
</svg>
