<?xml version="1.0" encoding="utf-8"?>
<!-- Generator: Adobe Illustrator 25.0.1, SVG Export Plug-In . SVG Version: 6.00 Build 0)  -->
<svg version="1.1" id="Layer_1" xmlns="http://www.w3.org/2000/svg" xmlns:xlink="http://www.w3.org/1999/xlink" x="0px" y="0px"
	 viewBox="0 0 64 64" style="enable-background:new 0 0 64 64;" xml:space="preserve">
<g>
	<path d="M33.3,32.5h-1.5c-0.2,0-0.4-0.1-0.5-0.3l-1-2.9c-0.1-0.2-0.3-0.3-0.5-0.3h-4.8c-0.2,0-0.4,0.1-0.5,0.3l-1,2.9
		c-0.1,0.2-0.3,0.3-0.5,0.3h-1.5c-0.3,0-0.6-0.3-0.5-0.7l4.9-13c0.1-0.2,0.3-0.3,0.5-0.3h1.9c0.2,0,0.4,0.1,0.5,0.3l4.8,13
		C33.9,32.2,33.7,32.5,33.3,32.5z M28.9,27c0.3,0,0.6-0.3,0.5-0.7l-1.7-4.9c-0.1-0.2-0.3-0.2-0.4,0l-1.7,4.9
		C25.4,26.7,25.7,27,26,27H28.9z"/>
</g>
<path d="M41.2,35.5c2.1-3.1,3.1-7,2.6-11.2c-1-7.3-6.8-13.1-14.1-14.1C18.9,8.9,9.9,17.9,11.2,28.6c0.9,7.3,6.8,13.2,14.1,14.1
	c4.2,0.6,8.1-0.5,11.2-2.6c0.4-0.3,0.9-0.2,1.3,0.1l10.9,10.9c0.4,0.4,1,0.4,1.4,0l2.1-2.1c0.4-0.4,0.4-1,0-1.4L41.3,36.8
	C41,36.4,40.9,35.9,41.2,35.5z M29.9,40.3c-9.6,1.6-17.7-6.6-16.2-16.2c1-5.8,5.6-10.5,11.4-11.4c9.6-1.6,17.7,6.6,16.2,16.2
	C40.4,34.7,35.7,39.4,29.9,40.3z"/>
</svg>
