<?xml version="1.0" encoding="utf-8"?>
<!-- Generator: Adobe Illustrator 25.0.0, SVG Export Plug-In . SVG Version: 6.00 Build 0)  -->
<svg version="1.1"
	 id="Layer_1" xmlns:cc="http://creativecommons.org/ns#" xmlns:dc="http://purl.org/dc/elements/1.1/" xmlns:inkscape="http://www.inkscape.org/namespaces/inkscape" xmlns:rdf="http://www.w3.org/1999/02/22-rdf-syntax-ns#" xmlns:sodipodi="http://sodipodi.sourceforge.net/DTD/sodipodi-0.dtd" xmlns:svg="http://www.w3.org/2000/svg"
	 xmlns="http://www.w3.org/2000/svg" xmlns:xlink="http://www.w3.org/1999/xlink" x="0px" y="0px" viewBox="0 0 64 64"
	 style="enable-background:new 0 0 64 64;" xml:space="preserve">
<style type="text/css">
	.st0{fill-rule:evenodd;clip-rule:evenodd;fill:#BA1200;}
	.st1{fill-rule:evenodd;clip-rule:evenodd;}
</style>
<polygon class="st0" points="14.1,32.8 14.9,38.3 25.3,42.8 27.4,49.1 30,43 30.2,31.7 16,31.7 "/>
<polygon class="st0" points="50.1,32.8 49.3,38.3 38.9,42.8 36.9,49.1 34.3,43 34,31.7 48.2,31.7 "/>
<path class="st1" d="M32,57.8c0,0-2.5,0.3-3.5-1.1L29,46.4l-1.2,10c0,0-0.3,3.3,1.2,4.7c0,0-0.8-1.1-0.8-2.3c0,0,0.4,3.1,3.5,3.1
	c0,0-0.8,1.9-2.8,1.4c0,0,0.7,0,1.2-0.3c0,0-1.8,0.8-3.3-1.9c0,0,0.7,0.8,1.5,1.1c0,0-3-1.6-2.6-7.1c0,0-0.4,1.9,0,3.5
	c0,0-1-1.5,0-5.9s-1.9-8.4-1.9-8.4s1.4,2.3,1.5,4.8c0,0-1-7-7.1-8.5c0,0,5.9,2.1,6.3,9.7c0,0-0.5-3.3-1.8-4.8c0,0,1.9,3.3,1.8,11
	c0,0-1.5-5.2-6.6-8c0,0,2.1,1.2,3.1,3.7c0,0-2.8-4.9-13.2-7.3c0,0,1.2-1.2,2.5-1.1c0,0-1.1,0.2-1.5,0.8c0,0,1.9-1.8,6.8,0.5
	c0,0-1.9-3.1-7.3-4.1c0,0,2.9,0.7,4.1,1.9c0,0-3-1.8-10.3-2.9c0,0,0.8-2.1,4.2-3.8c0,0-1.6,0.8-2.8,2.5c0,0,2.3-2.8,5.4-2.8
	c0,0-1.5,0.2-2.8,1.2c0,0,1.9-1.5,7-1.5c0,0-2.3-1.2-5.2-1.4c0,0,1.2,0.2,2.8,0.8c0,0-2.3-0.7-5.4-0.4c0,0,1.8-2.1,4-3.1
	c0,0-1.1,0.5-2.6,2.3c0,0,2.1-2.1,5.1-2.9c0,0,1-4.4,5.2-8.7c0,0-1.4-0.4-2.6,0.2c0,0,1.1-2.1,4-2.2c0,0-1.8-0.3-3.1,0.3
	c0,0,3.5-2.3,7-1.6c0,0-1.8-0.7-4.8-1.1c0,0,2.1-0.3,3.5,0c0,0-1.4-4-5.4-7c0,0,1.8,1.6,2.6,3.3c0,0-3-4-7.8-6.8
	c0,0-0.7,4.9,1.1,9.9c0,0-1.4-2.8-1.8-6.1c0,0-0.2,7,4.2,12.4c0,0-1.9,2.8-2.6,5.4c0,0,0.4-2.8,1.4-4c0,0-1.6,1.6-2.1,4.1
	c0,0-4-4.2-4.8-12c0,0,0.7,5.4,2.9,7.3c0,0-1.8-2.1-2.1-5.6c0,0,1,1.8,2.1,2.2c0,0-4-4.8-2.2-20.6c0,0-0.3,3.1,0.3,6.3
	c0,0-0.3-3.5,0.5-5.9c0,0,5.4,2.1,8.7,6.6c0,0-1.8-2.9-4.4-5.2c0,0,12.9,3.5,16,13.4c0,0,0-2.1-0.8-3.5c0,0,1.1,1.4,1.4,3
	c0,0,0.7-3.1-1.8-6.1c2.3,1.1,2.6,3.7,5.6,4c3-0.3,3.3-2.9,5.6-4c-2.6,2.9-2,6.1-2,6.1c0.2-1.6,1.4-3,1.4-3
	c-0.8,1.5-0.8,3.5-0.8,3.5c3.1-10,16-13.4,16-13.4c-2.6,2.5-4.4,5.4-4.4,5.4c3.3-4.5,8.7-6.6,8.7-6.6C57.4,3.5,57,6.8,57,6.8
	c0.5-3,0.2-6.1,0.2-6.1c2,15.6-2.1,20.6-2.1,20.6c1.1-0.5,2.1-2.2,2.1-2.2c-0.3,3.5-2.1,5.6-2.1,5.6c2.2-1.8,2.9-7.2,2.9-7.2
	c-0.8,7.7-4.8,12-4.8,12c-0.4-2.5-2.1-4.1-2.1-4.1c1,1.3,1.4,4,1.4,4c-0.7-2.5-2.6-5.4-2.6-5.4c4.4-5.4,4.2-12.4,4.2-12.4
	c-0.4,3.3-1.8,6.1-1.8,6.1c2.2-5.2,1.5-10.1,1.5-10.1C49,10.2,46,14.2,46,14.2c0.8-1.8,2.6-3.5,2.6-3.5c-4.1,3-5.4,7-5.4,7
	c1.4-0.3,3.5,0,3.5,0c-3.2,0.5-4.8,1.2-4.8,1.2c3.5-0.7,7,1.6,7,1.6c-1.2-0.5-3.1-0.3-3.1-0.3c2.9,0.2,4,2.2,4,2.2
	c-1.1-0.5-2.6-0.2-2.6-0.2c4.2,4.4,5.2,8.7,5.2,8.7c3,0.8,5.1,2.9,5.1,2.9c-1.5-1.6-2.6-2.3-2.6-2.3c2.3,1.1,4,3.1,4,3.1
	c-3-0.3-5.4,0.4-5.4,0.4c1.5-0.5,2.8-0.8,2.8-0.8c-2.9,0.2-5.2,1.4-5.2,1.4c5.1,0,7,1.5,7,1.5C56.7,36.1,55,36,55,36
	c3.1,0.2,5.4,2.8,5.4,2.8c-1.2-1.6-2.8-2.5-2.8-2.5c3.5,1.9,4.2,3.8,4.2,3.8C54.6,41.2,51.6,43,51.6,43c1.2-1.2,4.1-1.9,4.1-1.9
	c-5.2,1-7.3,4.1-7.3,4.1c4.7-2.3,6.8-0.5,6.8-0.5c-0.4-0.7-1.5-0.8-1.5-0.8c1.2-0.2,2.5,1.1,2.5,1.1c-10.3,2.8-13,7.5-13,7.5
	c1.1-2.5,3.1-3.7,3.1-3.7c-5.1,2.6-6.6,8-6.6,8c-0.2-7.7,1.8-11,1.8-11c-1.2,1.5-1.8,4.8-1.8,4.8c0.3-7.8,6.3-9.7,6.3-9.7
	c-6.1,1.6-7.1,8.5-7.1,8.5c0.2-2.6,1.5-4.8,1.5-4.8s-2.9,3.8-1.9,8.4c1,4.4,0,5.9,0,5.9c0.4-1.6,0-3.5,0-3.5
	c0.4,5.4-2.6,7.1-2.6,7.1c1-0.3,1.5-1.1,1.5-1.1C35.7,64,34,63.3,34,63.3c0.5,0.3,1.2,0.3,1.2,0.3c-1.9,0.5-2.8-1.4-2.8-1.4
	c3,0,3.5-3.1,3.5-3.1c0,1.1-0.8,2.3-0.8,2.3c1.6-1.4,1.2-4.7,1.2-4.7l-1.2-10L35.6,57C34.5,58.1,32,57.8,32,57.8L32,57.8z
	 M37.9,33.9c0,0-2.3,3.5,0,3.3c0,0-0.5,0-0.5-0.7c0,0,1.1,1.9,4.4-2.2c0,0-0.5,1.1-1.4,1.9c0,0,1.4-0.7,2.6-2.9s4.7-1,5.8,0.8
	c0,0-1.6-1.4-2.6-1.4c0,0,3.1,0.7,2.3,4c0,0-0.2-2.6-2.6-3c0,0,1.4,0.3,1.5,1.9c0,0-0.3-1-1.2-1.4c0,0,0.8,4.8-4.4,6.4
	c0,0,2.6-1.1,3.5-3.1c0,0-2.1,4-7.4,2.8c0,0-1.4,2.6-1.1,7.5c0,0-0.8-3.1-0.4-5.4c0,0-0.4,1.6-0.3,3.1c0,0-0.7-2.8,0.4-5.8
	c0,0-1.8-1.5-1.2-3.3c0,0,0,1.1,0.4,1.6C35.9,35.1,37.9,33.9,37.9,33.9L37.9,33.9z M26.1,33.9c0,0,2.3,3.5,0,3.3c0,0,0.5,0,0.5-0.7
	c0,0-1.1,1.9-4.4-2.2c0,0,0.5,1.1,1.4,1.9c0,0-1.4-0.7-2.6-2.9s-4.7-1-5.8,0.8c0,0,1.6-1.4,2.6-1.4c0,0-3.1,0.7-2.3,4
	c0,0,0.2-2.6,2.6-3c0,0-1.4,0.3-1.5,1.9c0,0,0.3-1,1.2-1.4c0,0-0.8,4.8,4.4,6.4c0,0-2.6-1.1-3.5-3.1c0,0,2.1,4,7.4,2.8
	c0,0,1.4,2.6,1.1,7.5c0,0,0.8-3.1,0.4-5.4c0,0,0.4,1.6,0.3,3.1c0,0,0.7-2.8-0.4-5.8c0,0,1.8-1.5,1.2-3.3c0,0,0,1.1-0.4,1.6
	C28.2,35.1,26.1,33.9,26.1,33.9L26.1,33.9z"/>
</svg>
