<?xml version="1.0" encoding="utf-8"?>
<!-- Generator: Adobe Illustrator 25.0.1, SVG Export Plug-In . SVG Version: 6.00 Build 0)  -->
<svg version="1.1" id="Layer_1" xmlns="http://www.w3.org/2000/svg" xmlns:xlink="http://www.w3.org/1999/xlink" x="0px" y="0px"
	 viewBox="0 0 512 512" style="enable-background:new 0 0 512 512;" xml:space="preserve">
<path d="M466,290.9v-69.7l-49.2-16.4c-2.1-8.2-6.1-14.4-8.2-22.6l22.5-47.1L382,85.9l-47.2,22.5c-6.1-4.1-14.3-6.1-22.6-8.2
	L295.9,51h-69.7l-16.4,49.2c-8.2,2.1-14.4,6.2-22.6,10.2l-47.1-24.6l-49.2,49.2l22.5,47.1c-2,8.2-6.1,14.4-8.2,22.6L56,221.1v69.7
	l49.2,16.4c2.1,8.2,6.2,14.4,8.2,22.6L90.9,377l49.2,49.2l47.1-22.5c6.2,4.1,14.4,6.1,22.6,8.2l16.4,49.2h69.7l16.4-49.2
	c8.2-2.1,14.4-6.1,22.6-8.2l47.2,22.5l49.2-49.2l-22.5-47.2c4.1-6.1,6.1-14.3,8.2-22.6L466,290.9z M261,338c-45.1,0-82-36.9-82-82
	s36.9-82,82-82s82,36.9,82,82S306.1,338,261,338z"/>
</svg>
