<?xml version="1.0" encoding="utf-8"?>
<!-- Generator: Adobe Illustrator 25.0.1, SVG Export Plug-In . SVG Version: 6.00 Build 0)  -->
<svg version="1.1" id="Layer_1" xmlns="http://www.w3.org/2000/svg" xmlns:xlink="http://www.w3.org/1999/xlink" x="0px" y="0px"
	 viewBox="0 0 512 512" style="enable-background:new 0 0 512 512;" xml:space="preserve">
<path d="M300.8,241.4c-12.4,0-22.1,10.6-22.1,23.9c0,13.3,10,23.9,22.1,23.9c12.4,0,22.1-10.6,22.1-23.9
	C322.9,252,312.9,241.4,300.8,241.4z M221.5,241.4c-12.4,0-22.1,10.6-22.1,23.9c0,13.3,10,23.9,22.1,23.9
	c12.4,0,22.1-10.6,22.1-23.9C243.9,252.1,233.9,241.4,221.5,241.4z M406.3,60.8h-291c-24.5,0-44.5,20-44.5,44.5v290.9
	c0,24.5,20,44.5,44.5,44.5h246.2L350,401l27.8,25.6l26.3,24.1l46.9,40.6v-386C450.8,80.8,430.8,60.8,406.3,60.8z M322.5,341.9
	c0,0-7.8-9.3-14.3-17.4c28.4-8,39.3-25.6,39.3-25.6c-8.9,5.9-17.4,10-25,12.8c-10.9,4.6-21.3,7.4-31.5,9.3
	c-20.8,3.9-39.9,2.8-56.2-0.2c-12.4-2.4-23-5.6-31.9-9.3c-5-2-10.4-4.3-15.8-7.4c-0.7-0.4-1.3-0.7-2-1.1c-0.4-0.2-0.7-0.4-0.9-0.4
	c-3.9-2.2-6.1-3.7-6.1-3.7s10.4,17.2,38,25.4c-6.5,8.3-14.5,17.8-14.5,17.8c-48-1.5-66.2-32.8-66.2-32.8
	c0-69.3,31.3-125.5,31.3-125.5c31.3-23.2,60.8-22.6,60.8-22.6l2.2,2.6c-39.1,11.1-56.9,28.2-56.9,28.2s4.8-2.6,12.8-6.1
	c23.2-10.2,41.7-12.8,49.3-13.7c1.3-0.2,2.4-0.4,3.7-0.4c13.2-1.7,28.2-2.2,43.9-0.4c20.6,2.4,42.8,8.5,65.4,20.6
	c0,0-17.2-16.3-54.1-27.4l3-3.5c0,0,29.7-0.7,60.8,22.6c0,0,31.3,56.2,31.3,125.5C388.7,309.2,370.5,340.4,322.5,341.9L322.5,341.9z
	"/>
</svg>
