<?xml version="1.0" encoding="utf-8"?>
<!-- Generator: Adobe Illustrator 25.0.1, SVG Export Plug-In . SVG Version: 6.00 Build 0)  -->
<svg version="1.1" id="Layer_1" xmlns="http://www.w3.org/2000/svg" xmlns:xlink="http://www.w3.org/1999/xlink" x="0px" y="0px"
	 viewBox="0 0 128 128" style="enable-background:new 0 0 128 128;" xml:space="preserve">
<path d="M25.4,75.8c-3.5,0-6.4,2.9-6.4,6.4v20.4c0,3.5,2.9,6.4,6.4,6.4h20.4c3.5,0,6.4-2.9,6.4-6.4s-2.9-6.4-6.4-6.4h-4.6l22.7-23
	l23.4,23.1h-4c-3.5,0-6.4,2.9-6.4,6.4s2.9,6.4,6.4,6.4h19.3c3.5,0,6.4-2.9,6.4-6.4V82.4c0-3.5-2.9-6.4-6.4-6.4s-6.4,2.9-6.4,6.4V87
	L73.1,64.1l23.1-23.4v4c0,3.5,2.9,6.4,6.4,6.4s6.4-2.9,6.4-6.4V25.4c0-3.5-2.9-6.4-6.4-6.4H82.2c-3.5,0-6.4,2.9-6.4,6.4
	s2.9,6.4,6.4,6.4h4.6L63.9,54.9L40.7,32h5.1c3.5,0,6.4-2.9,6.4-6.4s-2.9-6.4-6.4-6.4H25.4c-3.5,0-6.4,2.9-6.4,6.4V46
	c0,3.5,2.9,6.4,6.4,6.4s6.4-2.9,6.4-6.4v-4.6l23,22.7l-23,23.3v-5.1C31.8,78.7,28.9,75.8,25.4,75.8z"/>
</svg>
