<?xml version="1.0" encoding="utf-8"?>
<!-- Generator: Adobe Illustrator 25.0.0, SVG Export Plug-In . SVG Version: 6.00 Build 0)  -->
<svg version="1.1" id="Layer_1" xmlns="http://www.w3.org/2000/svg" xmlns:xlink="http://www.w3.org/1999/xlink" x="0px" y="0px"
	 viewBox="0 0 64 64" style="enable-background:new 0 0 64 64;" xml:space="preserve">
<path d="M29.4,33.7L16.3,56.4c-1.1,2,0.3,4.4,2.6,4.4h26.3c2.3,0,3.7-2.4,2.6-4.4L34.6,33.7C33.4,31.7,30.6,31.7,29.4,33.7z"/>
<g>
	<path d="M22.9,3.5c0-0.2,0.1-0.3,0.3-0.3h5c0.3,0,0.5,0.1,0.6,0.3l6.9,13h0.1v-13c0-0.2,0.1-0.3,0.3-0.3h4.7c0.2,0,0.3,0.1,0.3,0.3
		v22.2c0,0.2-0.1,0.3-0.3,0.3h-5c-0.3,0-0.5-0.1-0.6-0.3l-6.8-12.9h-0.2v12.9c0,0.2-0.1,0.3-0.3,0.3h-4.7c-0.2,0-0.3-0.1-0.3-0.3
		C22.9,25.7,22.9,3.5,22.9,3.5z"/>
</g>
</svg>
