<?xml version="1.0" encoding="utf-8"?>
<!-- Generator: Adobe Illustrator 25.2.1, SVG Export Plug-In . SVG Version: 6.00 Build 0)  -->
<svg version="1.1" id="Layer_1" xmlns="http://www.w3.org/2000/svg" xmlns:xlink="http://www.w3.org/1999/xlink" x="0px" y="0px"
	 viewBox="0 0 512 512" style="enable-background:new 0 0 512 512;" xml:space="preserve">
<g>
	<path d="M483,455.4l-45.3-181.2c-2.3-9.1-11.3-18.1-22.7-18.1h-58.9c20.4-31.7,36.2-63.4,36.2-90.6c0-74.8-61.2-135.9-135.9-135.9
		S120.5,90.6,120.5,165.4c0,27.2,15.9,58.9,36.2,90.6H97.9c-11.3,0-20.4,6.8-22.7,18.1L29.9,455.4c-2.3,6.8,0,13.6,4.5,20.4
		c4.5,4.5,11.3,6.8,18.1,6.8h407.8c6.8,0,13.6-2.3,18.1-9.1C483,469,483,462.2,483,455.4z M256.4,74.8c49.8,0,90.6,40.8,90.6,90.6
		c0,34-49.8,102-90.6,147.3c-40.8-45.3-90.6-113.3-90.6-147.3C165.8,115.5,206.6,74.8,256.4,74.8z M82,437.2l34-135.9h72.5
		c22.7,31.7,45.3,54.4,52.1,61.2c4.5,4.5,9.1,6.8,15.9,6.8c6.8,0,11.3-2.3,15.9-6.8c6.8-6.8,29.5-29.5,52.1-61.2h72.5l34,135.9H82z"
		/>
	<circle cx="256.4" cy="165.4" r="45.3"/>
</g>
</svg>
