<?xml version="1.0" encoding="utf-8"?>
<!-- Generator: Adobe Illustrator 25.2.3, SVG Export Plug-In . SVG Version: 6.00 Build 0)  -->
<svg version="1.1" id="Layer_1" xmlns="http://www.w3.org/2000/svg" xmlns:xlink="http://www.w3.org/1999/xlink" x="0px" y="0px"
	 viewBox="0 0 1024 1024" style="enable-background:new 0 0 1024 1024;" xml:space="preserve">
<path d="M778.7,755.6l-80.8-80c32.7-44.3,28.2-105.8-10.6-144.8l-50.1-51.5l-92.6-92.6l-50.2-50.1c-45-41.8-115.4-39.2-157.2,5.9
	c-39.6,42.7-39.6,108.7,0,151.4l49.4,50.9l93.3,93.3L530,688c39,38.8,100.5,43.3,144.8,10.6l80.8,80c-18,30.7-7.7,70.2,23.1,88.2
	c30.7,18,70.2,7.7,88.2-23.1c18-30.7,7.7-70.2-23.1-88.2C823.8,743.8,798.9,743.8,778.7,755.6z"/>
<rect x="23.8" y="775.2" transform="matrix(0.7071 -0.7071 0.7071 0.7071 -553.4229 315.3471)" width="160.3" height="100.9"/>
<rect x="118" y="869.6" transform="matrix(0.7071 -0.7071 0.7071 0.7071 -592.5747 409.6369)" width="160.3" height="100.9"/>
<path d="M313.4,313.5c18.3-18.4,41.2-31.4,66.4-37.6l-38.1-107.5c-25.4,0-68.6,26.5-108,65.4s-65.4,81.8-66.4,107.7l108.1,38.1
	C281.8,354.5,294.9,331.7,313.4,313.5z"/>
<polygon points="355.8,691.3 242.4,804.7 313.8,876 427.1,762.7 390.8,726.3 "/>
<rect x="745.4" y="53.4" transform="matrix(0.7071 -0.7071 0.7071 0.7071 168.3382 614.1656)" width="160.3" height="100.9"/>
<polygon points="668.1,332.7 781.4,219.3 710,148.1 596.8,261.3 633,297.7 "/>
<polygon points="332.6,668.3 297.6,633.1 261.2,596.9 148,710.1 219.2,781.5 "/>
<rect x="839.9" y="147.9" transform="matrix(0.7071 -0.7071 0.7071 0.7071 129.1864 708.6868)" width="160.3" height="100.9"/>
<polygon points="726.2,390.9 762.5,427.2 875.8,313.9 804.6,242.5 691.2,355.9 "/>
<polygon points="691.5,402.5 656.5,367.4 656.5,367.4 656.5,367.4 621.5,332.4 578.6,375.2 648.8,445.2 "/>
<polygon points="332.2,621.6 367.3,656.6 367.3,656.6 367.3,656.6 402.4,691.6 445.1,648.9 375.1,578.8 "/>
</svg>
