<?xml version="1.0" encoding="utf-8"?>
<!-- Generator: Adobe Illustrator 25.0.1, SVG Export Plug-In . SVG Version: 6.00 Build 0)  -->
<svg version="1.1" id="Layer_1" xmlns="http://www.w3.org/2000/svg" xmlns:xlink="http://www.w3.org/1999/xlink" x="0px" y="0px"
	 viewBox="0 0 128 128" style="enable-background:new 0 0 128 128;" xml:space="preserve">
<g>
	<path d="M20.9,107.1c1.3,1.2,2.9,1.8,4.6,1.8s3.3-0.5,4.6-1.8L45,92.4v3.8c0,3.5,2.9,6.4,6.4,6.4s6.4-2.9,6.4-6.4h-0.1V76.8
		c0-3.5-2.9-6.4-6.4-6.4H33c-3.5,0-6.4,2.9-6.4,6.4s2.9,6.4,6.4,6.4h2.6L20.9,97.9C18.4,100.5,18.4,104.6,20.9,107.1z"/>
	<path d="M26.6,51.2c0,3.5,2.9,6.4,6.4,6.4h18.3c3.5,0,6.4-2.9,6.4-6.4V31.8c0-3.5-2.9-6.4-6.4-6.4s-6.4,2.9-6.4,6.4v3.8L30.1,20.8
		c-2.6-2.5-6.7-2.5-9.1,0c-2.5,2.6-2.5,6.7,0,9.1l14.6,14.9H33C29.5,44.8,26.6,47.7,26.6,51.2z"/>
	<path d="M101.5,76.8c0-3.5-2.9-6.4-6.4-6.4H76.9c-3.5,0-6.4,2.9-6.4,6.4v19.3c0,3.5,2.9,6.4,6.4,6.4s6.4-2.9,6.4-6.4v-3.8L97.9,107
		c1.3,1.2,2.9,1.8,4.6,1.8s3.3-0.5,4.6-1.8c2.5-2.5,2.5-6.5,0-9L92.5,83.2h2.6C98.6,83.2,101.5,80.3,101.5,76.8z"/>
	<path d="M76.8,25.5c-3.5,0-6.4,2.9-6.4,6.4v19.2c0,3.5,2.9,6.4,6.4,6.4h18.1c3.5,0,6.4-2.9,6.4-6.4s-2.9-6.4-6.4-6.4h-3.1
		l15.3-14.6c2.5-2.5,2.6-6.5,0.1-9.1c-2.5-2.5-6.5-2.6-9.1-0.1L83.2,35.2v-3.3C83.2,28.4,80.3,25.5,76.8,25.5z"/>
</g>
</svg>
