<?xml version="1.0" encoding="utf-8"?>
<!-- Generator: Adobe Illustrator 26.2.1, SVG Export Plug-In . SVG Version: 6.00 Build 0)  -->
<svg version="1.1" id="Layer_1" xmlns="http://www.w3.org/2000/svg" xmlns:xlink="http://www.w3.org/1999/xlink" x="0px" y="0px"
	 viewBox="0 0 100 100" style="enable-background:new 0 0 100 100;" xml:space="preserve">
<style type="text/css">
	.st0{fill:#2C72AE;}
	.st1{fill:#D1D2D4;}
	.st2{fill:url(#SVGID_1_);}
	.st3{fill:#FFFFFF;stroke:#D1D2D4;stroke-width:0.602;stroke-miterlimit:10;}
	.st4{fill:none;}
	.st5{fill:#A7A7AC;}
	.st6{fill:#FFFFFF;}
	.st7{fill:#CBE6F2;}
</style>
<g>
	<rect class="st0" width="100" height="100"/>
	<g>
		<path class="st1" d="M71.9,36.2v27.5c0,2.3-0.5,4.6-1.4,6.6c-2.5,5.4-8,9.2-14.3,9.2H43.8c-6.3,0-11.8-3.8-14.3-9.2
			c-0.9-2-1.4-4.2-1.4-6.6V36.2c0-0.9,0.1-1.8,0.2-2.7c1.3-7.4,7.7-13,15.5-13h12.3c7.8,0,14.2,5.6,15.5,13
			C71.8,34.4,71.9,35.3,71.9,36.2z"/>
		<path class="st1" d="M71.9,36.2v27.5c0,2.3-0.5,4.6-1.4,6.6c-2.5,5.4-8,9.2-14.3,9.2H43.8c-6.3,0-11.8-3.8-14.3-9.2
			c-0.9-2-1.4-4.2-1.4-6.6V36.2c0-0.9,0.1-1.8,0.2-2.7c1.3-7.4,7.7-13,15.5-13h12.3c7.8,0,14.2,5.6,15.5,13
			C71.8,34.4,71.9,35.3,71.9,36.2z"/>
		<linearGradient id="SVGID_1_" gradientUnits="userSpaceOnUse" x1="69.7968" y1="83.6533" x2="33.4312" y2="21.8318">
			<stop  offset="0.1085" style="stop-color:#5C90CD"/>
			<stop  offset="0.2302" style="stop-color:#6B9CD2"/>
			<stop  offset="0.4633" style="stop-color:#91BADF"/>
			<stop  offset="0.761" style="stop-color:#CBE7F3"/>
		</linearGradient>
		<path class="st2" d="M69.4,36.2v27.5c0,1.9-0.4,3.8-1.2,5.5c-2.1,4.4-6.4,7.4-11.2,7.7c-0.3,0-0.5,0-0.8,0H43.8
			c-5.1,0-9.9-3-12-7.7c-0.8-1.7-1.2-3.6-1.2-5.5V36.2c0-7.3,5.9-13.2,13.2-13.2h12.3C63.5,23,69.4,28.9,69.4,36.2z"/>
		<g>
			<defs>
				<path id="SVGID_00000061463498915394740110000017580236545734925476_" d="M74.3,66c0,2.6-0.6,5-1.6,7.2c-2.7,5.9-8.7,10-15.7,10
					H43.6c-6.9,0-12.9-4.1-15.7-10c-1-2.2-1.6-4.6-1.6-7.2V35.8c0-2.8,0.7-5.5,1.9-7.9c2.9-5.5,8.7-9.3,15.3-9.3h13.5
					c6.6,0,12.4,3.8,15.3,9.3c1.2,2.4,2,5.1,2,8V66z"/>
			</defs>
			<clipPath id="SVGID_00000077306663035712425910000003690152970677059217_">
				<use xlink:href="#SVGID_00000061463498915394740110000017580236545734925476_"  style="overflow:visible;"/>
			</clipPath>
		</g>
		<g>
			<path class="st1" d="M56.1,20.5H43.8c-6.1,0-11.4,3.5-14,8.5c-1.1,2.2-1.7,4.6-1.7,7.2v26.5c0,2.3,0.5,4.6,1.4,6.6
				c2.5,5.4,8,9.2,14.3,9.2h12.3c6.3,0,11.8-3.8,14.3-9.2c0.9-2,1.4-4.2,1.4-6.6V36.2c0-2.6-0.6-5.1-1.8-7.3
				C67.4,24,62.2,20.5,56.1,20.5z M69.4,62.8c0,1.9-0.4,3.8-1.2,5.5C66,73,61.3,76,56.1,76H43.8c-5.1,0-9.9-3-12-7.7
				c-0.8-1.7-1.2-3.6-1.2-5.5V36.2c0-1.5,0.2-2.9,0.7-4.2c1.8-5.2,6.7-9,12.6-9h12.3c5.8,0,10.7,3.7,12.5,8.9
				c0.5,1.3,0.7,2.8,0.7,4.3V62.8z"/>
			<path class="st1" d="M69.5,29c-0.4,1-0.8,2-1.4,2.9c-2.1,3.6-5.4,5.8-10.3,5.9l-15,0.2c-5.2,0.1-8.8-2.2-11-6
				c-0.5-0.9-1-1.9-1.4-2.9c2.5-5,7.7-8.4,13.6-8.4h12C61.8,20.7,67,24.1,69.5,29z"/>
			<path class="st3" d="M70.1,29c-0.4,1.1-0.9,2.1-1.4,3c-2.2,3.6-5.6,5.9-10.6,6l-15.4,0.2c-5.4,0.1-9-2.3-11.4-6.2
				c-0.5-0.9-1-1.9-1.4-3c2.6-5.1,7.9-8.5,14-8.5h12.3C62.2,20.5,67.4,24,70.1,29z"/>
			<path class="st1" d="M46.2,34.3h7.4c0.3,0,0.6,0.3,0.6,0.6v0c0,0.3-0.3,0.6-0.6,0.6h-7.4c-0.3,0-0.6-0.3-0.6-0.6v0
				C45.6,34.6,45.9,34.3,46.2,34.3z"/>
			<g>
				<path class="st4" d="M56.1,21.6H43.8c-6.1,0-11.4,3.3-14,8c-1.1,2-1.7,4.3-1.7,6.8v27c0,2.2,0.5,4.3,1.4,6.2
					c2.5,5.1,8,8.6,14.3,8.6h12.3c6.3,0,11.8-3.5,14.3-8.6c0.9-1.9,1.4-4,1.4-6.2v-27c0-2.5-0.6-4.8-1.8-6.9
					C67.4,24.9,62.2,21.6,56.1,21.6z"/>
				<path class="st5" d="M56.1,20.5H43.8c-6.1,0-11.4,3.5-14,8.5c-1.1,2.2-1.7,4.6-1.7,7.2v0.2c0-2.4,0.6-4.8,1.7-6.8
					c2.6-4.8,7.9-8,14-8h12.3c6.1,0,11.3,3.2,13.9,8c1.1,2.1,1.8,4.4,1.8,6.9v-0.2c0-2.6-0.6-5.1-1.8-7.3
					C67.4,24,62.2,20.5,56.1,20.5z"/>
				<path class="st5" d="M56.1,78.3H43.8c-6.3,0-11.8-3.5-14.3-8.6c-0.9-1.9-1.4-4-1.4-6.2v0.3c0,2.3,0.5,4.6,1.4,6.6
					c2.5,5.4,8,9.2,14.3,9.2h12.3c6.3,0,11.8-3.8,14.3-9.2c0.9-2,1.4-4.2,1.4-6.6v-0.3c0,2.2-0.5,4.3-1.4,6.2
					C67.9,74.7,62.4,78.3,56.1,78.3z"/>
				<path class="st1" d="M56.1,13.5H43.8c-12.1,0-22,9.8-22,22v29c0,12.1,9.8,22,22,22h12.2c12.1,0,22-9.8,22-22v-29
					C78,23.4,68.2,13.5,56.1,13.5z M77,64.1c0,11.4-8.8,20.7-21,20.7H43.8c-12.1,0-21-9.3-21-20.7V35.8c0-11.4,8.8-20.7,21-20.7
					h12.2c12.1,0,21,9.3,21,20.7V64.1z"/>
				<path class="st6" d="M56.1,15.1H43.8c-12.1,0-21,9.3-21,20.7v28.3c0,11.4,8.8,20.7,21,20.7h12.2c12.1,0,21-9.3,21-20.7V35.8
					C77,24.3,68.2,15.1,56.1,15.1z M71.8,36.5v27v0.3c0,2.3-0.5,4.6-1.4,6.6c-2.5,5.4-8,9.2-14.3,9.2H43.8c-6.3,0-11.8-3.8-14.3-9.2
					c-0.9-2-1.4-4.2-1.4-6.6v-0.3v-27v-0.2c0-2.6,0.6-5,1.7-7.2c2.6-5.1,7.9-8.5,14-8.5h12.3c6.1,0,11.3,3.4,13.9,8.5
					c1.1,2.2,1.8,4.6,1.8,7.3V36.5z"/>
			</g>
		</g>
		<g>
			<path class="st7" d="M42.8,38.5c-0.9,0-1.7,0-2.4-0.1l-9.8,12v6.1l14.7-18L42.8,38.5z"/>
			<path class="st7" d="M47.8,38.4l-17.2,21v3.4c0,1.6,0.3,3.2,0.9,4.7l24-29.3L47.8,38.4z"/>
			<path class="st7" d="M58.5,38.3L58.5,38.3L32.6,69.8c0.4,0.6,0.8,1.2,1.3,1.7L61.4,38C60.5,38.1,59.5,38.3,58.5,38.3z"/>
		</g>
	</g>
</g>
</svg>
