<?xml version="1.0" encoding="utf-8"?>
<!-- Generator: Adobe Illustrator 23.0.3, SVG Export Plug-In . SVG Version: 6.00 Build 0)  -->
<svg version="1.1" id="Signal.svg" xmlns="http://www.w3.org/2000/svg" xmlns:xlink="http://www.w3.org/1999/xlink" x="0px" y="0px"
	 viewBox="0 0 16 16" style="enable-background:new 0 0 16 16;" xml:space="preserve">
<style type="text/css">
	.st0{fill:#FFFFFF;}
</style>
<g>
	<path class="st0" d="M5.3,10.2c0.2,0.2,0.7,0.1,1.1,0c0.2,0,0.3-0.1,0.7-0.2c0.3-0.1,6.8-2.3,7.4-2.6c0.6-0.3,1.1-0.5,1.4-0.9
		C16.1,6,16,5.8,15.9,5.7c-0.1-0.1-0.5-0.3-0.6-0.3c0,0-0.2-0.2-0.7-0.3c-0.2,0-0.3,0-0.5,0c-0.8,0-1.9,0.5-3,1.1
		c-0.5,0.2-1.8,0.9-1.8,0.9S1,5.6,0.8,5.6C0.5,5.5,0.2,5.6,0,5.9C0.3,6,0.3,6,0.3,6l6.6,2.4L5.8,9.1L3.2,8.7c0,0-0.1,0-0.2,0.1
		c0,0-0.1,0.1-0.1,0.1l0.2,0.1l2.2,0.7C5.3,9.6,5.1,10,5.3,10.2z"/>
	<g>
		<path class="st0" d="M11.5,8.9c0,0,0.6,1.7,0.6,2c0.1,0.3-0.2,0.3-0.2,0.3L9.5,9.6L11.5,8.9z"/>
	</g>
	<path class="st0" d="M7.6,10.7l-0.3-0.4l-0.6,0.2l0.8,0.5C7.5,10.9,7.7,10.8,7.6,10.7z"/>
</g>
</svg>
