<?xml version="1.0" encoding="utf-8"?>
<!-- Generator: Adobe Illustrator 23.0.3, SVG Export Plug-In . SVG Version: 6.00 Build 0)  -->
<svg version="1.1" id="Signal.svg" xmlns="http://www.w3.org/2000/svg" xmlns:xlink="http://www.w3.org/1999/xlink" x="0px" y="0px"
	 viewBox="0 0 16 16" style="enable-background:new 0 0 16 16;" xml:space="preserve">
<style type="text/css">
	.st0{fill:#FFFFFF;}
</style>
<path class="st0" d="M9.5,11.2c-0.8-0.8-2.2-0.8-3.1,0c-0.5,0.5-0.5,1.4,0,2L7,13.7c0.2,0.2,0.6,0.4,0.9,0.4c0.3,0,0.7-0.2,0.9-0.4
	l0.5-0.5C10,12.5,10,11.6,9.5,11.2z"/>
<path class="st0" d="M14.6,7.4c-0.3,0-0.7-0.2-0.9-0.4c-1.5-1.5-3.5-2.3-5.6-2.3S3.9,5.5,2.4,7C1.9,7.6,1,7.6,0.5,7
	c-0.6-0.5-0.6-1.4-0.1-2c2-2,4.8-3.1,7.6-3.1c2.9,0,5.6,1.1,7.6,3.1c0.5,0.5,0.5,1.4,0,2C15.4,7.3,15,7.4,14.6,7.4z"/>
<path class="st0" d="M4.4,10.5c-0.3,0-0.7-0.2-0.9-0.4c-0.5-0.5-0.5-1.4,0-2C4.7,6.9,6.3,6.2,8,6.2s3.4,0.7,4.5,1.9
	c0.5,0.5,0.5,1.4,0,2c-0.5,0.5-1.4,0.5-2,0C9.9,9.4,8.9,9,7.9,9s-2,0.4-2.7,1.1C5.1,10.3,4.8,10.5,4.4,10.5z"/>
</svg>
