<?xml version="1.0" encoding="utf-8"?>
<!-- Generator: Adobe Illustrator 22.1.0, SVG Export Plug-In . SVG Version: 6.00 Build 0)  -->
<svg version="1.1" id="Signal.svg" xmlns="http://www.w3.org/2000/svg" xmlns:xlink="http://www.w3.org/1999/xlink" x="0px" y="0px"
	 viewBox="0 0 26 16" style="enable-background:new 0 0 26 16;" xml:space="preserve">
<style type="text/css">
	.st0{display:none;fill:#FFFFFF;}
	.st1{fill:#FFFFFF;}
</style>
<path class="st0" d="M7.5,15.3c-1,0-1.8-0.8-1.8-1.8v-1.3c0-1,0.8-1.8,1.8-1.8s1.8,0.8,1.8,1.8v1.3C9.2,14.5,8.5,15.3,7.5,15.3z"/>
<path class="st0" d="M13,15.3c-1,0-1.8-0.8-1.8-1.8v-3.5c0-1,0.8-1.8,1.8-1.8s1.8,0.8,1.8,1.8v3.5C14.7,14.5,14,15.3,13,15.3z"/>
<path class="st0" d="M18.5,15.3c-1,0-1.8-0.8-1.8-1.8V6.8c0-1,0.8-1.8,1.8-1.8s1.8,0.8,1.8,1.8v6.7C20.2,14.5,19.5,15.3,18.5,15.3z"
	/>
<path class="st1" d="M24,15.3c-1,0-1.8-0.8-1.8-1.8V2.8c0-1,0.8-1.8,1.8-1.8s1.8,0.8,1.8,1.8v10.8C25.7,14.5,25,15.3,24,15.3z"/>
<path class="st0" d="M2,15.3c-0.2,0-0.5,0-0.7-0.1c-0.2-0.1-0.4-0.2-0.6-0.4c-0.2-0.2-0.3-0.3-0.4-0.6c-0.1-0.2-0.1-0.4-0.1-0.7
	c0-0.1,0-0.2,0-0.3c0-0.1,0.1-0.2,0.1-0.3c0-0.1,0.1-0.2,0.2-0.3c0.1-0.1,0.1-0.2,0.2-0.3c0.6-0.7,1.8-0.7,2.5,0
	c0.1,0.1,0.2,0.2,0.2,0.3c0.1,0.1,0.1,0.2,0.2,0.3c0,0.1,0.1,0.2,0.1,0.3c0,0.1,0,0.2,0,0.3c0,0.1,0,0.2,0,0.4s-0.1,0.2-0.1,0.3
	c0,0.1-0.1,0.2-0.2,0.3c-0.1,0.1-0.1,0.2-0.2,0.3C2.9,15.1,2.5,15.3,2,15.3z"/>
</svg>
