<?xml version="1.0" encoding="utf-8"?>
<!-- Generator: Adobe Illustrator 25.1.0, SVG Export Plug-In . SVG Version: 6.00 Build 0)  -->
<svg version="1.1" id="Layer_1" xmlns="http://www.w3.org/2000/svg" xmlns:xlink="http://www.w3.org/1999/xlink" x="0px" y="0px"
	 viewBox="0 0 1024 512" style="enable-background:new 0 0 1024 512;" xml:space="preserve">
<style type="text/css">
	.st0{fill:#35B4BB;}
	.st1{fill:#F3EAA0;}
	.st2{fill:#F5409A;}
	.st3{fill:#89D3D2;}
	.st4{fill:#30B6BB;}
	.st5{fill:#FB45A1;}
	.st6{fill:#F8EBA0;}
	.st7{fill:#88CED0;}
</style>
<g>
	<path class="st0" d="M450.6,310.7h-10.8v72.3h-11.1v-72.3H418v-9h32.6L450.6,310.7L450.6,310.7z"/>
	<path class="st0" d="M506.7,326.3c0,15.7-7.9,23.4-11.5,25.8c2.4,3,5.4,7.3,7.5,12.6c2.7,6.3,3.3,12.6,3.3,18.2h-10.9
		c0-4.7-0.8-9.8-2.6-14.3c-1.9-4.8-4.5-8.8-6.4-11v25.3h-11.1v-81.3h8.6C495.5,301.8,506.7,307.9,506.7,326.3z M495.6,326.4
		c0-12.1-4.5-15.5-9.4-15.5v35.8C488.5,346.2,495.6,340.2,495.6,326.4z"/>
	<path class="st0" d="M564.1,382.9h-10.3l-2-14.4h-11.1l-1.9,14.4H529l12.2-81.3h10.6L564.1,382.9z M550.7,359.7l-4.4-34l-4.4,34
		H550.7z"/>
	<path class="st0" d="M617.1,301.8l-12.3,81.3h-10.5l-12.2-81.3h10.4l7.3,55l7.2-55H617.1z"/>
	<path class="st0" d="M668.1,382.9h-26.5v-26.7h-3.4v-9h3.4v-45.6h26.5v9h-15.4v36.6h12.2v9h-12.2V374h15.4V382.9z"/>
	<path class="st0" d="M719.3,382.9h-26.1v-81.3h11.1V374h15V382.9z"/>
</g>
<g>
	<path class="st1" d="M178.8,161.6c9.5-5.3,26.4-25.4,26.4-32.8c0-4.4-1.9-8.6-9.5-8.6c-27.6,0-100.2,45.7-100.2,75.2
		c0,3.9,1.6,8.3,8.9,8.3c8.5,0,24.5-2.1,38.9-2.1c15.3,0,27.3,6.5,33.4,15.5l22.4-6.5c7.3-2.1,15.3-1.2,18.4-1.2s-0.1,4.8-0.1,7.1
		c0,1.4-0.4,0.7-4.2,1c-4.3,0.6-4.9,0.6-11,2.3c-6.1,1.8-13.2,3.9-21.2,6.3c0.7,2.1,0.7,4.2,0.7,6c0,57.9-70.2,123.9-107.7,123.9
		c-20,0-32.5-12.9-32.5-28.9c0-19.7,15.6-45.3,57.3-74.3c22.1-15.2,44.1-24.5,63.5-31c-6.1-7.2-15.6-8.3-26.4-8.3
		c-13.5,0-26.1,2.7-36.1,2.7c-9.2,0-20.3-6-20.3-18.8c0-38.3,80.4-88.4,119.6-88.4c9.9,0,20.5,5.3,20.5,16.1
		c0,15.2-28.5,42.4-34.9,48.7c-4.3,3.9-7.3,6.5-11.6,6.5c-4.3,0-6.8-2.4-6.8-6.5C166.3,169.4,169.6,167.3,178.8,161.6z M167.4,230.8
		c-19.3,6.5-41.4,16.4-62.9,32.3c-38,27.7-49.3,48-49.3,61.8c0,12.2,7.1,19.1,20,19.1c29.5,0,93.2-60.9,93.2-106.2
		C168.4,235.3,168,233.3,167.4,230.8z"/>
	<path class="st1" d="M292.3,228.7c3.3-4.4,6.1-7.4,9.5-7.4c2.8,0,4,1.8,4,4.2c0,2.7-0.9,4.4-4.5,8.6c-14.1,17-34.7,42.4-56.1,42.4
		c-16.5,0-27.6-20.3-27.6-26.8c0-3.5,11.3-4.2,25.7-14.3c6.1-4.2,12.3-9.5,12.3-13.1c0-2.4-1.9-4.8-4.3-4.8
		c-3.7,0-15.1,5.3-31.6,24.5c-10.4,11.3-18.4,22.1-18.4,29.3c0,2.4-5.2,7.2-8.3,7.2s-8-1.4-8-8.3c0-12.9,28.8-85.9,42.9-112.9
		c13.7-26.6,32.5-48.7,48.8-48.7c5.5,0,12.6,4.3,12.5,11.6c-0.1,8.1-4.9,25.4-24.5,52.8c-19.6,27.2-43.9,42.7-50,48.3
		c-1.6,1.4-7.3,13.1-7.3,16.4c0,0.3,0,0.6,0.3,0.6c0.9,0,3.1-2.1,7.3-6.3c21.2-20.8,34.7-26.8,44.5-26.8c4.5,0,9.5,5.1,9.5,11.3
		c0,20-37.4,33.7-37.4,36.1c0,3.5,6.4,12.5,16.5,12.5C262.5,265.1,281.3,243,292.3,228.7z M239.6,161.5
		c-11.6,23-19.3,42.4-19.6,43.2c2.4-1.8,20.5-17.6,36.5-39.7c15.6-22.1,21.2-37.9,21.2-40.9c0-3.3-1.9-4.2-4.3-4.2
		C266,120.1,251.9,138,239.6,161.5z"/>
	<path class="st1" d="M716.2,234.6c3.3-4.4,6.1-7.4,9.5-7.4c2.8,0,4,1.8,4,4.2c0,2.7-0.9,4.4-4.5,8.6c-14.2,17-34.7,42.4-56.2,42.4
		c-16.5,0-27.6-20.3-27.6-26.8c0-3.5,11.3-4.2,25.7-14.3c6.1-4.2,12.3-9.5,12.3-13.1c0-2.4-1.9-4.8-4.3-4.8
		c-3.7,0-15.1,5.3-31.6,24.5c-10.4,11.3-18.4,22.1-18.4,29.3c0,2.4-5.2,7.2-8.3,7.2c-3.1,0-8-1.4-8-8.3c0-12.9,28.8-85.9,42.9-112.9
		c13.7-26.6,32.5-48.7,48.8-48.7c5.5,0,12.6,4.3,12.5,11.6c-0.1,8.1-4.9,25.4-24.5,52.8c-19.6,27.2-43.9,42.7-50,48.3
		c-1.6,1.4-7.3,13.1-7.3,16.4c0,0.3,0,0.6,0.3,0.6c0.9,0,3.1-2.1,7.3-6.3c21.2-20.8,34.7-26.8,44.5-26.8c4.5,0,9.5,5.1,9.5,11.3
		c0,20-37.4,33.7-37.4,36.1c0,3.5,6.4,12.5,16.5,12.5C686.5,271.1,705.3,248.9,716.2,234.6z M663.5,167.5
		c-11.6,23-19.3,42.4-19.6,43.2c2.4-1.8,20.5-17.6,36.5-39.7c15.6-22.1,21.2-37.9,21.2-40.9c0-3.3-1.9-4.2-4.3-4.2
		C689.8,125.9,675.8,143.9,663.5,167.5z"/>
	<path class="st1" d="M280.4,412c-11.1,0-21.7-9-21.7-21.8c0-13.4,8.9-37.3,31.3-61.2c20.5-22.1,46-32.3,47.6-32.8
		c2.4-23,5.9-55.6,5.9-57c0-1.4,0-5.3-1.2-5.3c-0.3,0-0.9,0.3-1.2,0.9c-8,11.3-32.2,42.7-47.8,42.7c-5.2,0-10.1-3.9-10.1-12
		c0-8.1,9.2-35.3,13.2-44.5c4.3-9.5,8.3-15,12.9-15c4.5,0,7.7,2.4,7.7,5.1c0,2.4-2.1,5.7-6.1,11.3c-6.1,9.5-14.1,34-14.1,36.7
		c0,3,0.7,4.2,2.4,4.2c7.7,0,30.7-29.8,36.5-38.5c4.3-6.3,8.5-12.5,10.8-14.6c2.4-2.7,8.9-4.8,11.3-4.8c2.4,0,5.2,0.9,5.2,4.8
		s-4.5,9.5-5.5,25.6c-0.9,15.9-3.3,37.6-4.9,58.2c2.1-0.3,16.1-3.5,18.3-3.5c14.4,0,29.7,6.5,29.7,20.6c0,5.3-3.7,11.1-9.5,11.1
		s-7.3-3.3-7.3-6.5c0-3.3,0.9-5.1,0.9-8.1c0-3.5-5.5-6.5-14.7-6.5c-2.1,0-16.7,3.2-18.8,3.9C344.5,349,319,412,280.4,412z
		 M295.7,340c-17.5,18.5-24.3,40.2-24.3,51.7c0,6,4.5,9.5,9.5,9.5c29.5,0,52.4-61.2,55.2-92.8C334.9,309,315.6,318.5,295.7,340z"/>
	<path class="st1" d="M411.2,209c0,3.9-6.1,10.4-10.1,17c-1.2,2.1-2.1,3.3-2.1,4.4c0,0.6,0.3,1.2,0.9,1.2
		c20-21.8,37.1-27.5,42.4-27.5c4.9,0,11.1,4.8,11.1,14.1c0,16.7-23.3,59.4-58.3,59.4c-6.4,0-10.4-4.4-11.6-4.4
		c-5.9,0-15.3,63.1-15.3,85.3c0,6.3,1.6,8.3,1.6,12c0,3.3-4.3,7.8-8.3,7.8c-3.7,0-7.3-2.7-7.3-9.9c0-25.6,6.8-80.2,14.1-100.1
		c6.4-18,18.1-43.6,21.7-50.8c4-7.2,8-13.1,13.2-13.1C406,204.2,411.2,205.4,411.2,209z M396.1,265.4c25.5,0,42.9-35.3,42.9-43
		c0-2.1-1.6-4.2-4.5-4.2c-11.1,0-42.4,27.7-47.9,42.4C386.6,260.7,389.7,265.4,396.1,265.4z"/>
	<path class="st1" d="M530.2,205.8c4.9,0,8,2.7,8,6.3c0,3.9-8,14.1-14.4,25.9c-3.7,6.5-5.5,12.5-5.5,17c0,3.9,1.2,7.2,4,7.2
		c11.1,0,29.5-19.1,40.8-33.4c3.3-4.4,6.1-7.4,9.2-7.4s4.3,1.8,4.3,4.2c0,2.7-1.2,4.4-4.5,8.6c-14.7,17-38.7,40-54,40
		c-9.5,0-14.4-6.5-14.4-14.1c0-3.3,0.7-7.4,0.7-10.2c0-1.8,0-2.7-0.7-2.7c-1.9,0-6.8,5.7-13.5,11.6c-14.4,12.2-19.1,19.8-30.9,18.2
		c-3.1,0-9.2-4.4-9.2-11.6c0-30.5,33.5-60,58.5-60.3c5.9,0,11.3,6.9,12.5,6.9C523.4,212,525,205.8,530.2,205.8z M463.9,259.2
		c0,1.8,1.2,3.5,3.7,3.5c5.2,0,45.1-33.7,45.1-38.8c0-0.4-0.2-1-0.6-1.7c-1.2-2.6-3.4-4.5-6.1-5.4c-0.7-0.2-1.3-0.4-2-0.4
		C490.9,216.5,463.9,244.6,463.9,259.2z"/>
	<path class="st1" d="M580.3,209.8c0,3.5-4.3,11.3-4.3,14.1c0,0.6,0,0.9,0.7,0.9c1.2,0,2.1-0.9,3.7-2.4
		c11.3-11.6,20.3-18.2,27.9-18.2c5.9,0,11.1,3.5,11.1,10.4c0,9.2-3.1,18-10.8,18c-2.8,0-5.9-2.4-5.9-5.7c0-3,2.1-6.5,2.1-8.1
		c0-1.2-0.9-2.1-2.8-2.1c-4.3,0-24.5,19.1-34.4,34c-7.1,10.8-12.5,28.1-15.3,28.1c-3.1,0-7.1-3.9-7.1-6.9c0-3.3,4.9-16.1,9.5-27.2
		c4.9-11.3,9.5-22.7,11.1-28.6c2.1-7.2,4.3-10.8,8.5-10.8C577.5,205.3,580.3,207.3,580.3,209.8z"/>
</g>
<g>
	<path class="st2" d="M174.4,157.2c9.5-5.3,26.4-25.4,26.4-32.8c0-4.4-1.9-8.6-9.5-8.6c-27.6,0-100.2,45.7-100.2,75.2
		c0,3.9,1.6,8.3,8.9,8.3c8.5,0,24.5-2.1,38.9-2.1c15.3,0,27.3,6.5,33.4,15.5l22.4-6.5c7.3-2.1,15.3-1.2,18.4-1.2s-0.1,4.8-0.1,7.1
		c0,1.4-0.4,0.7-4.2,1c-4.3,0.6-4.9,0.6-11,2.3c-6.1,1.8-13.2,3.9-21.2,6.3c0.7,2.1,0.7,4.2,0.7,6c0,57.9-70.2,123.9-107.7,123.9
		c-20,0-32.5-12.9-32.5-28.9c0-19.7,15.6-45.3,57.3-74.3c22.1-15.2,44.1-24.5,63.5-31c-6.1-7.2-15.6-8.3-26.4-8.3
		c-13.5,0-26.1,2.7-36.1,2.7c-9.2,0-20.3-6-20.3-18.8c0-38.3,80.4-88.4,119.6-88.4c9.9,0,20.5,5.3,20.5,16.1
		c0,15.2-28.5,42.4-34.9,48.7c-4.3,3.9-7.3,6.5-11.6,6.5c-4.3,0-6.8-2.4-6.8-6.5C161.7,165,165.2,162.9,174.4,157.2z M162.9,226.4
		c-19.3,6.5-41.4,16.4-62.9,32.3c-38,27.7-49.3,48-49.3,61.8c0,12.2,7.1,19.1,20,19.1c29.5,0,93.2-60.9,93.2-106.2
		C163.9,230.9,163.6,228.8,162.9,226.4z"/>
	<path class="st2" d="M287.9,224.3c3.3-4.4,6.1-7.4,9.5-7.4c2.8,0,4,1.8,4,4.2c0,2.7-0.9,4.4-4.5,8.6c-14.1,17-34.7,42.4-56.1,42.4
		c-16.5,0-27.6-20.3-27.6-26.8c0-3.5,11.3-4.2,25.7-14.3c6.1-4.2,12.3-9.5,12.3-13.1c0-2.4-1.9-4.8-4.3-4.8
		c-3.7,0-15.1,5.3-31.6,24.5c-10.4,11.3-18.4,22.1-18.4,29.3c0,2.4-5.2,7.2-8.3,7.2s-8-1.4-8-8.3c0-12.9,28.8-85.9,42.9-112.9
		c13.7-26.6,32.5-48.7,48.8-48.7c5.5,0,12.6,4.3,12.5,11.6c-0.1,8.1-4.9,25.4-24.5,52.8c-19.6,27.2-43.9,42.7-50,48.3
		c-1.6,1.4-7.3,13.1-7.3,16.4c0,0.3,0,0.6,0.3,0.6c0.9,0,3.1-2.1,7.3-6.3c21.2-20.8,34.7-26.8,44.5-26.8c4.5,0,9.5,5.1,9.5,11.3
		c0,20-37.4,33.7-37.4,36.1c0,3.5,6.4,12.5,16.5,12.5C258.2,260.7,276.8,238.6,287.9,224.3z M235.1,157.1
		c-11.6,23-19.3,42.4-19.6,43.2c2.4-1.8,20.5-17.6,36.5-39.7c15.6-22.1,21.2-37.9,21.2-40.9c0-3.3-1.9-4.2-4.3-4.2
		C261.5,115.6,247.4,133.6,235.1,157.1z"/>
	<path class="st2" d="M711.8,230.2c3.3-4.4,6.1-7.4,9.5-7.4c2.8,0,4,1.8,4,4.2c0,2.7-0.9,4.4-4.5,8.6c-14.2,17-34.7,42.4-56.2,42.4
		c-16.5,0-27.6-20.3-27.6-26.8c0-3.5,11.3-4.2,25.7-14.3c6.1-4.2,12.3-9.5,12.3-13.1c0-2.4-1.9-4.8-4.3-4.8
		c-3.7,0-15.1,5.3-31.6,24.5c-10.4,11.3-18.4,22.1-18.4,29.3c0,2.4-5.2,7.2-8.3,7.2s-8-1.4-8-8.3c0-12.9,28.8-85.9,42.9-112.9
		c13.7-26.6,32.5-48.7,48.8-48.7c5.5,0,12.6,4.3,12.5,11.6c-0.1,8.1-4.9,25.4-24.5,52.8c-19.6,27.2-43.9,42.7-50,48.3
		c-1.6,1.4-7.3,13.1-7.3,16.4c0,0.3,0,0.6,0.3,0.6c0.9,0,3.1-2.1,7.3-6.3c21.2-20.8,34.7-26.8,44.5-26.8c4.5,0,9.5,5.1,9.5,11.3
		c0,20-37.4,33.7-37.4,36.1c0,3.5,6.4,12.5,16.5,12.5C682.1,266.6,700.8,244.6,711.8,230.2z M659.1,163.1
		c-11.6,23-19.3,42.4-19.6,43.2c2.4-1.8,20.5-17.6,36.5-39.7c15.6-22.1,21.2-37.9,21.2-40.9c0-3.3-1.9-4.2-4.3-4.2
		C685.4,121.5,671.3,139.5,659.1,163.1z"/>
	<path class="st2" d="M275.9,407.6c-11.1,0-21.7-9-21.7-21.8c0-13.4,8.9-37.3,31.3-61.2c20.5-22.1,46-32.3,47.6-32.8
		c2.4-23,5.9-55.6,5.9-57s0-5.3-1.2-5.3c-0.3,0-0.9,0.3-1.2,0.9c-8,11.3-32.2,42.7-47.8,42.7c-5.2,0-10.1-3.9-10.1-12
		c0-8.1,9.2-35.3,13.2-44.5c4.3-9.5,8.3-15,12.9-15c4.5,0,7.7,2.4,7.7,5.1c0,2.4-2.1,5.7-6.1,11.3c-6.1,9.5-14.1,34-14.1,36.7
		c0,3,0.7,4.2,2.4,4.2c7.7,0,30.7-29.8,36.5-38.5c4.3-6.3,8.5-12.5,10.8-14.6c2.4-2.7,8.9-4.8,11.3-4.8s5.2,0.9,5.2,4.8
		c0,3.9-4.5,9.5-5.5,25.6c-0.9,15.9-3.3,37.6-4.9,58.2c2.1-0.3,16.1-3.5,18.3-3.5c14.4,0,29.7,6.5,29.7,20.6
		c0,5.3-3.7,11.1-9.5,11.1c-5.9,0-7.3-3.3-7.3-6.5c0-3.3,0.9-5.1,0.9-8.1c0-3.5-5.5-6.5-14.7-6.5c-2.1,0-16.7,3.2-18.8,3.9
		C340,344.6,314.5,407.6,275.9,407.6z M291.2,335.6c-17.5,18.5-24.3,40.2-24.3,51.7c0,6,4.5,9.5,9.5,9.5c29.5,0,52.4-61.2,55.2-92.8
		C330.5,304.6,311.2,314.1,291.2,335.6z"/>
	<path class="st2" d="M406.8,204.5c0,3.9-6.1,10.4-10.1,17c-1.2,2.1-2.1,3.3-2.1,4.4c0,0.6,0.3,1.2,0.9,1.2
		c20-21.8,37.1-27.5,42.4-27.5c4.9,0,11.1,4.8,11.1,14.1c0,16.7-23.3,59.4-58.3,59.4c-6.4,0-10.4-4.4-11.6-4.4
		c-5.9,0-15.3,63.1-15.3,85.3c0,6.3,1.6,8.3,1.6,12c0,3.3-4.3,7.8-8.3,7.8c-3.7,0-7.3-2.7-7.3-9.9c0-25.6,6.8-80.2,14.1-100.1
		c6.4-18,18.1-43.6,21.7-50.8c4-7.2,8-13.1,13.2-13.1C401.6,199.8,406.8,201,406.8,204.5z M391.7,261c25.5,0,42.9-35.3,42.9-43
		c0-2.1-1.6-4.2-4.5-4.2c-11.1,0-42.4,27.7-47.9,42.4C382.2,256.2,385.3,261,391.7,261z"/>
	<path class="st2" d="M525.7,201.3c4.9,0,8,2.7,8,6.3c0,3.9-8,14.1-14.4,25.9c-3.7,6.5-5.5,12.5-5.5,17c0,3.9,1.2,7.2,4,7.2
		c11.1,0,29.5-19.1,40.8-33.4c3.3-4.4,6.1-7.4,9.2-7.4s4.3,1.8,4.3,4.2c0,2.7-1.2,4.4-4.5,8.6c-14.7,17-38.7,40-54,40
		c-9.5,0-14.4-6.5-14.4-14.1c0-3.3,0.7-7.4,0.7-10.2c0-1.8,0-2.7-0.7-2.7c-1.9,0-6.8,5.7-13.5,11.6c-14.4,12.2-19.1,19.8-30.9,18.2
		c-3.1,0-9.2-4.4-9.2-11.6c0-30.5,33.5-60,58.5-60.3c5.9,0,11.3,6.9,12.5,6.9C519,207.5,520.5,201.3,525.7,201.3z M459.4,254.8
		c0,1.8,1.2,3.5,3.7,3.5c5.2,0,45.1-33.7,45.1-38.8c0-0.4-0.2-1-0.6-1.7c-1.2-2.6-3.4-4.5-6.1-5.4c-0.7-0.2-1.3-0.4-2-0.4
		C486.5,212.1,459.4,240.1,459.4,254.8z"/>
	<path class="st2" d="M575.9,205.3c0,3.5-4.3,11.3-4.3,14.1c0,0.6,0,0.9,0.7,0.9c1.2,0,2.1-0.9,3.7-2.4
		c11.3-11.6,20.3-18.2,27.9-18.2c5.9,0,11.1,3.5,11.1,10.4c0,9.2-3.1,18-10.8,18c-2.8,0-5.9-2.4-5.9-5.7c0-3,2.1-6.5,2.1-8.1
		c0-1.2-0.9-2.1-2.8-2.1c-4.3,0-24.5,19.1-34.4,34c-7.1,10.8-12.5,28.1-15.3,28.1c-3.1,0-7.1-3.9-7.1-6.9c0-3.3,4.9-16.1,9.5-27.2
		c4.9-11.3,9.5-22.7,11.1-28.6c2.1-7.2,4.3-10.8,8.5-10.8C573.1,200.9,575.9,202.9,575.9,205.3z"/>
</g>
<g>
	<g>
		<path class="st3" d="M871.9,257.9c0,0-2.8-4.2-6.4-8.1c0,0-4.8,12-13.3,17.5c7.9-29.9-3.8-53.2-22.5-64.4
			c13.9,11.8,13.1,27.5,13.1,27.5c-1.6-2.7-5.1-4.5-5.1-4.5c6.5,23.4-9.2,40.5-9.2,40.5c0.7-2.2-0.9-6.2-0.9-6.2
			c-12.3,13-26.5,13.7-26.5,13.7c21.7-15,32.9-52.4,19-74.4c-8.4,6.1-15.5,12.3-21.3,18.4c-5.8,6.2-10.3,12.3-13.6,18.4
			c-7.3,11.3-12.9,23.9-16.9,37c-3.9,13.2-6.2,27.1-5.9,41.1c0.2,7.1,1,14.2,2.8,21.3c0.3,1.4,0.8,3,1.2,4.4
			c0.3,1.2,0.8,2.3,1.2,3.5c-0.7-0.8-1.2-1.6-1.8-2.3c-33.9-44-20.3-124,49.2-147.9c-20.2-17.4-62.9-19-96.2,11
			c0,0,4.4-17.5,16.1-27.9c-0.3,0-5.3,0.2-8.8,2c0,0,20.6-25.7,44-15.2c0,0-2.4-3.4-7.4-6.9c18.6-2,37.8,6.1,48.3,18.4
			c-15.7-25.7-50.8-40.7-75.8-35.1c19.5-15.2,32.9-10.5,32.9-10.5c-3.5-3.9-9.9-6.7-9.9-6.7c28.4-6.3,47.5,16.6,47.5,16.6
			c-1.2-11.9-7.3-20.3-7.3-20.3c29.6,23,34.4,47.3,26.4,67.5c11.3-18.3,16.5-50.1-0.8-79.2c0,0,20.8,8.3,32.9,29.8
			c0,0,2.6-4.4,3.5-11.3c0,0,17.1,24.7-6.8,48.1c0,0,4.2,0.3,8.5-2.7c0,0-9.3,17.2-29.4,23.6c24.6,0.2,42.9,16,46.7,30.6
			c0,0-7.7-5.7-12-7.2C867.7,218.3,880.7,234.4,871.9,257.9z"/>
		<path class="st3" d="M903,372.2c-27.7,16.5-61.9,19.8-93,5.5c-5.9-3.2-11.3-7.1-16.1-11.6c-4.8-4.5-8.9-9.8-12.1-15.4
			c-6.4-11.3-9.3-24.3-9.6-37.1c-0.3-12.6,1.7-25.3,5.1-37.3c0.2,2.4,0.4,4.9,0.9,7.4c0.8,5,2,9.9,3.5,14.6
			c3.1,9.5,7.7,18.6,13.4,26.9c5.8,8.3,12.5,15.9,20.1,22.6c3.8,3.4,7.7,6.5,11.8,9.6c4.1,3.1,8.5,5.8,13.1,8.1
			c9.2,4.7,19.2,7.9,29.6,9.2s21.2,0.8,31.5-2.1C901.6,372.5,902.3,372.3,903,372.2z"/>
		<path class="st4" d="M903,372.2c-27.7,16.5-61.9,19.8-93,5.5c-5.9-3.2-11.3-7.1-16.1-11.6c-4.8-4.5-8.9-9.8-12.1-15.4
			c-6.4-11.3-9.3-24.3-9.6-37.1c-0.3-12.6,1.7-25.3,5.1-37.3C765.2,335.8,824.5,403.1,903,372.2z"/>
		<g>
			<path class="st5" d="M957.5,241.1l-12.8-7.4c0.1-7.9,0.1-19.1,0.1-30.6l42.2,15.1l-0.8-9.5l-41.8-25.9c0-0.8,0-1.4-0.1-2.2
				c-0.8-21.5-4.7-26.1-9.4-27.4c-0.3-0.1-0.7-0.1-1,0.1c-4.4,2.2-7.5,7.3-4.7,28.6c0.1,0.7,0.2,1.4,0.3,2.1L893,217.1l0.8,9.5
				l39-22.4c1.9,11.3,3.8,22.4,5.2,30l-11.3,9.5l0.6,6.3c6.8,68.5-59.8,117.3-110.2,81.3c-3.5-2.6-7.1-5.3-10.4-8.3
				C846.7,368.9,951.3,381.2,957.5,241.1z"/>
			<path class="st6" d="M915.7,253.2l-10.8,9.1c0.7,19.3-2.8,39.6-13.7,57.2C909.1,306.7,915.4,278.6,915.7,253.2z"/>
			<path class="st6" d="M978.6,253.3l-7.2-4.2c-0.1,22.8-4.7,44.1-8.9,54.9C969.7,291.9,976,270.6,978.6,253.3z"/>
			<path class="st6" d="M957.5,241.1c-6.2,140-110.8,127.6-151,82.2c4.4,6,9.4,11.6,15,16.9c3.4,3.2,7.1,6.3,10.9,9.2
				c3.7,2.8,7.5,5.3,11.6,7.5c8.2,4.4,17.2,7.4,26.5,8.8c9.3,1.4,18.8,1,28.2-1.3c9.2-2.3,18.1-6.7,25.7-12.8
				c7.7-6,14.1-13.5,19.3-22c12.3-22.3,18.3-50.3,14.5-82.3L957.5,241.1z"/>
		</g>
		<path class="st4" d="M765.2,335.8c0.3,1.4,0.8,3,1.2,4.4l-0.7,1.2c-28.2-52.8,4.7-126,54.3-142c-8.4,6.1-15.5,12.3-21.3,18.4
			c-5.8,6.2-10.3,12.3-13.6,18.4c-7.3,11.3-12.9,23.9-16.9,37c-3.9,13.2-6.2,27.1-5.9,41.1C762.6,321.6,763.5,328.7,765.2,335.8z"/>
	</g>
</g>
<g>
	<path class="st7" d="M316.3,136.8h-5v33.9h-5v-33.9h-4.9v-4.2h14.9V136.8z"/>
	<path class="st7" d="M336,144.1c0,7.4-3.5,11-5.2,12.1c1.1,1.3,2.4,3.4,3.4,5.9c1.2,3,1.6,5.9,1.6,8.5h-5c0-2.2-0.3-4.5-1.1-6.8
		c-0.9-2.2-2-4.1-3-5.1v11.9h-5v-38.1h4C330.9,132.6,336,135.5,336,144.1z M330.9,144.1c0-5.7-2-7.3-4.3-7.3v16.7
		C327.7,153.5,330.9,150.7,330.9,144.1z"/>
	<path class="st7" d="M358.3,151.7c0,16.5-4.3,19.3-8.3,19.3c-4,0-8.3-2.8-8.3-19.3s4.3-19.3,8.3-19.3
		C354.1,132.4,358.3,135.1,358.3,151.7z M353.3,151.7c0-12.6-1.7-15.1-3.3-15.1c-1.7,0-3.3,2.4-3.3,15.1s1.7,15.1,3.3,15.1
		C351.7,166.7,353.3,164.3,353.3,151.7z"/>
	<path class="st7" d="M379.4,144.2c0,10.2-7.3,13.7-9.3,14.3v12.2h-5v-38.1h3.9C374.3,132.6,379.4,135.6,379.4,144.2z M374.3,144.1
		c0-5.8-2-7.3-4.2-7.3v16.7C371.1,153.5,374.3,151.1,374.3,144.1z"/>
	<path class="st7" d="M390.2,170.7h-5v-38.1h5V170.7z"/>
	<path class="st7" d="M409.4,170.6c0,0-1,0.3-2.4,0.3c-3.8,0-10.1-1.7-10.1-19.3c0-17.7,6.3-19.3,10.1-19.3c1.4,0,2.4,0.3,2.4,0.3
		v4.1c-0.6-0.1-1-0.2-1.7-0.2c-2.2,0-5.8,1.7-5.8,15.1c0,13.5,3.7,15.2,5.9,15.2c0.7,0,1.1-0.1,1.7-0.2v4H409.4z"/>
	<path class="st7" d="M436.6,170.7h-11.9v-38.1h5v33.9h6.8v4.2H436.6z"/>
	<path class="st7" d="M447.1,170.7h-5v-38.1h5V170.7z"/>
	<path class="st7" d="M469.1,170.7h-5.2l-4.3-18.4v18.4h-5v-38.1h5v13.2l4.5-13.2h4.8l-5.2,15.2L469.1,170.7z"/>
	<path class="st7" d="M486.8,170.7h-12.1v-12.5h-1.6V154h1.6v-21.4h12.1v4.2h-7V154h5.5v4.2h-5.5v8.3h7V170.7z"/>
	<path class="st7" d="M506.9,170.7h-5v-38.1h5V170.7z"/>
	<path class="st7" d="M527.2,136.8h-4.9v33.9h-5v-33.9h-4.9v-4.2h14.9v4.2H527.2z"/>
	<path class="st7" d="M539.3,133.8l-2.4,12.9h-2.9v-14L539.3,133.8z"/>
	<path class="st7" d="M558,161.2c0,6.9-4.5,9.9-8.9,9.9c-2,0-3.7-0.4-5-1.3l1.8-3.7c0.8,0.4,2,0.8,3.2,0.8c1.7,0,3.8-1.4,3.8-5.1
		c0-3.5-1.8-6.8-4.1-10.1c-3.1-4.7-4.4-7.4-4.4-11.1c0-5,3.1-8.1,7.8-8.1c1.8,0,3.4,0.7,4,1l-1.7,3.7c-0.7-0.3-1.3-0.4-2.3-0.4
		c-1.6,0-2.8,1.2-2.8,3.3c0,2.7,1.6,5.2,3.9,8.5C556.2,153,558,156.3,558,161.2z"/>
	<path class="st7" d="M588.8,170.7h-5v-12.5h-5v12.5h-5v-12.5h-1.8V154h1.8v-21.4h5V154h5v-21.4h5V170.7z"/>
	<path class="st7" d="M612.1,151.7c0,16.5-4.3,19.3-8.3,19.3c-4,0-8.3-2.8-8.3-19.3s4.3-19.3,8.3-19.3
		C607.8,132.4,612.1,135.1,612.1,151.7z M607.1,151.7c0-12.6-1.7-15.1-3.3-15.1c-1.7,0-3.3,2.4-3.3,15.1s1.7,15.1,3.3,15.1
		C605.5,166.7,607.1,164.3,607.1,151.7z"/>
	<path class="st7" d="M630.2,136.8h-4.9v33.9h-5v-33.9h-4.9v-4.2h14.9v4.2H630.2z"/>
</g>
</svg>
