<?xml version="1.0" encoding="utf-8"?>
<!-- Generator: Adobe Illustrator 25.0.0, SVG Export Plug-In . SVG Version: 6.00 Build 0)  -->
<svg version="1.1"
	 id="Layer_1" xmlns:cc="http://creativecommons.org/ns#" xmlns:dc="http://purl.org/dc/elements/1.1/" xmlns:inkscape="http://www.inkscape.org/namespaces/inkscape" xmlns:rdf="http://www.w3.org/1999/02/22-rdf-syntax-ns#" xmlns:sodipodi="http://sodipodi.sourceforge.net/DTD/sodipodi-0.dtd" xmlns:svg="http://www.w3.org/2000/svg"
	 xmlns="http://www.w3.org/2000/svg" xmlns:xlink="http://www.w3.org/1999/xlink" x="0px" y="0px" viewBox="0 0 64 64"
	 style="enable-background:new 0 0 64 64;" xml:space="preserve">
<style type="text/css">
	.st0{fill-rule:evenodd;clip-rule:evenodd;fill:#BA1200;}
	.st1{fill-rule:evenodd;clip-rule:evenodd;fill:#D6D6D6;}
</style>
<polygon class="st0" points="8.5,12.2 9.6,19.3 23.1,25.2 25.8,33.4 29.2,25.4 29.5,10.7 11,10.7 "/>
<polygon class="st0" points="55.5,12.2 54.4,19.3 40.9,25.2 38.2,33.4 34.8,25.4 34.5,10.7 53,10.7 "/>
<path class="st1" d="M31.9,44.7c0,0-3.2,0.4-4.6-1.4L28,29.9l-1.6,13c0,0-0.4,4.3,1.6,6.1c0,0-1.1-1.4-1.1-3c0,0,0.5,4.1,4.5,4.1
	c0,0-1.1,2.5-3.6,1.8c0,0,0.9,0,1.6-0.4c0,0-2.3,1.1-4.3-2.5c0,0,0.9,1.1,2,1.4c0,0-3.9-2.1-3.4-9.3c0,0-0.5,2.5,0,4.6
	c0,0-1.3-2,0-7.7s-2.5-10.9-2.5-10.9s1.8,3,2,6.3c0,0-1.3-9.1-9.3-11.1c0,0,7.7,2.7,8.2,12.7c0,0-0.7-4.3-2.3-6.3
	c0,0,2.5,4.3,2.3,14.3c0,0-2-6.8-8.6-10.4c0,0,2.7,1.6,4.1,4.8c0,0-3.6-6.4-17.2-9.5c0,0,1.6-1.6,3.2-1.4c0,0-1.4,0.2-2,1.1
	c0,0,2.5-2.3,8.8,0.7c0,0-2.5-4.1-9.5-5.4c0,0,3.8,0.9,5.4,2.5c0,0-3.9-2.3-13.4-3.8c0,0,1.1-2.7,5.5-5c0,0-2.1,1.1-3.6,3.2
	c0,0,3-3.6,7.1-3.6c0,0-2,0.2-3.6,1.6c0,0,2.5-2,9.1-2c0,0-3-1.6-6.8-1.8c0,0,1.6,0.2,3.6,1.1c0,0-3-0.9-7.1-0.5
	c0,0,2.3-2.7,5.2-4.1c0,0-1.4,0.7-3.4,3c0,0,2.7-2.7,6.6-3.8c0,0,1.3-5.7,6.8-11.4c0,0-1.8-0.5-3.4,0.2c0,0,1.4-2.7,5.2-2.9
	c0,0-2.3-0.4-4.1,0.4c0,0,4.5-3,9.1-2.1c0,0-2.3-0.9-6.3-1.4c0,0,2.7-0.4,4.5,0c0,0-1.8-5.2-7.1-9.1c0,0,2.3,2.1,3.4,4.3
	c0,0-3.9-5.2-10.2-8.8c0,0-0.9,6.4,1.4,12.9c0,0-1.8-3.6-2.3-7.9C2.5-16.1,2.3-7,8,0c0,0-2.5,3.6-3.4,7c0,0,0.5-3.6,1.8-5.2
	c0,0-2.1,2.1-2.7,5.4c0,0-5.2-5.5-6.3-15.7c0,0,0.9,7,3.8,9.5c0,0-2.3-2.7-2.7-7.3c0,0,1.3,2.3,2.7,2.9c0,0-5.2-6.3-2.9-26.8
	c0,0-0.4,4.1,0.4,8.2c0,0-0.4-4.5,0.7-7.7c0,0,7,2.7,11.3,8.6c0,0-2.3-3.8-5.7-6.8c0,0,16.8,4.5,20.9,17.5c0,0,0-2.7-1.1-4.6
	c0,0,1.4,1.8,1.8,3.9c0,0,0.9-4.1-2.3-7.9c3,1.4,3.4,4.8,7.3,5.2c3.9-0.4,4.3-3.8,7.3-5.2c-3.2,3.8-2.3,7.9-2.3,7.9
	c0.2-2.1,1.8-3.9,1.8-3.9c-1.1,2-1.1,4.6-1.1,4.6c4.1-13,20.9-17.5,20.9-17.5c-3.4,3.2-5.7,7-5.7,7c4.3-5.9,11.3-8.6,11.3-8.6
	c1.1,3.4,0.7,7.7,0.7,7.7c0.7-3.9,0.2-8,0.2-8C67.3-9.4,61.9-3,61.9-3c1.4-0.7,2.7-2.9,2.7-2.9c-0.4,4.6-2.7,7.3-2.7,7.3
	C64.8-1,65.7-8,65.7-8C64.6,2,59.4,7.7,59.4,7.7c-0.5-3.2-2.7-5.4-2.7-5.4C58,4,58.5,7.5,58.5,7.5c-0.9-3.2-3.4-7-3.4-7
	c5.7-7,5.5-16.1,5.5-16.1c-0.5,4.3-2.3,7.9-2.3,7.9c2.9-6.8,2-13.2,2-13.2c-6.3,3.6-10.2,8.8-10.2,8.8c1.1-2.3,3.4-4.5,3.4-4.5
	c-5.4,3.9-7.1,9.1-7.1,9.1c1.8-0.4,4.5,0,4.5,0C46.7-6.9,44.6-6,44.6-6c4.6-0.9,9.1,2.1,9.1,2.1c-1.6-0.7-4.1-0.4-4.1-0.4
	c3.8,0.2,5.2,2.9,5.2,2.9c-1.4-0.7-3.4-0.2-3.4-0.2c5.5,5.7,6.8,11.4,6.8,11.4c3.9,1.1,6.6,3.8,6.6,3.8c-2-2.1-3.4-3-3.4-3
	c3,1.4,5.2,4.1,5.2,4.1c-3.9-0.4-7.1,0.5-7.1,0.5c2-0.7,3.6-1.1,3.6-1.1c-3.8,0.2-6.8,1.8-6.8,1.8c6.6,0,9.1,2,9.1,2
	c-1.4-1.4-3.6-1.6-3.6-1.6c4.1,0.2,7.1,3.6,7.1,3.6c-1.6-2.1-3.6-3.2-3.6-3.2c4.5,2.5,5.5,5,5.5,5c-9.5,1.4-13.4,3.8-13.4,3.8
	c1.6-1.6,5.4-2.5,5.4-2.5c-6.8,1.3-9.5,5.4-9.5,5.4c6.1-3,8.8-0.7,8.8-0.7c-0.5-0.9-2-1.1-2-1.1c1.6-0.2,3.2,1.4,3.2,1.4
	c-13.4,3.6-17,9.8-17,9.8c1.4-3.2,4.1-4.8,4.1-4.8c-6.6,3.4-8.6,10.4-8.6,10.4c-0.2-10,2.3-14.3,2.3-14.3c-1.6,2-2.3,6.3-2.3,6.3
	C42.2,25.2,50,22.7,50,22.7c-8,2.1-9.3,11.1-9.3,11.1c0.2-3.4,2-6.3,2-6.3s-3.8,5-2.5,10.9c1.3,5.7,0,7.7,0,7.7c0.5-2.1,0-4.6,0-4.6
	c0.5,7.1-3.4,9.3-3.4,9.3c1.3-0.4,2-1.4,2-1.4c-2.1,3.4-4.3,2.5-4.3,2.5c0.7,0.4,1.6,0.4,1.6,0.4c-2.5,0.7-3.6-1.8-3.6-1.8
	c3.9,0,4.5-4.1,4.5-4.1c0,1.4-1.1,3-1.1,3c2.1-1.8,1.6-6.1,1.6-6.1l-1.6-13l0.7,13.4C35.1,45.1,31.9,44.7,31.9,44.7L31.9,44.7z
	 M39.6,13.6c0,0-3,4.6,0,4.3c0,0-0.7,0-0.7-0.9c0,0,1.4,2.5,5.7-2.9c0,0-0.7,1.4-1.8,2.5c0,0,1.8-0.9,3.4-3.8s6.1-1.3,7.5,1.1
	c0,0-2.1-1.8-3.4-1.8c0,0,4.1,0.9,3,5.2c0,0-0.2-3.4-3.4-3.9c0,0,1.8,0.4,2,2.5c0,0-0.4-1.3-1.6-1.8c0,0,1.1,6.3-5.7,8.4
	c0,0,3.4-1.4,4.5-4.1c0,0-2.7,5.2-9.7,3.6c0,0-1.8,3.4-1.4,9.8c0,0-1.1-4.1-0.5-7.1c0,0-0.5,2.1-0.4,4.1c0,0-0.9-3.6,0.5-7.5
	c0,0-2.3-2-1.6-4.3c0,0,0,1.4,0.5,2.1C36.9,15.1,39.6,13.6,39.6,13.6L39.6,13.6z M24.2,13.6c0,0,3,4.6,0,4.3c0,0,0.7,0,0.7-0.9
	c0,0-1.4,2.5-5.7-2.9c0,0,0.7,1.4,1.8,2.5c0,0-1.8-0.9-3.4-3.8s-6.1-1.3-7.5,1.1c0,0,2.1-1.8,3.4-1.8c0,0-4.1,0.9-3,5.2
	c0,0,0.2-3.4,3.4-3.9c0,0-1.8,0.4-2,2.5c0,0,0.4-1.3,1.6-1.8c0,0-1.1,6.3,5.7,8.4c0,0-3.4-1.4-4.5-4.1c0,0,2.7,5.2,9.7,3.6
	c0,0,1.8,3.4,1.4,9.8c0,0,1.1-4.1,0.5-7.1c0,0,0.5,2.1,0.4,4.1c0,0,0.9-3.6-0.5-7.5c0,0,2.3-2,1.6-4.3c0,0,0,1.4-0.5,2.1
	C26.9,15.1,24.2,13.6,24.2,13.6L24.2,13.6z"/>
</svg>
