<?xml version="1.0" encoding="utf-8"?>
<!-- Generator: Adobe Illustrator 26.5.0, SVG Export Plug-In . SVG Version: 6.00 Build 0)  -->
<svg version="1.1" id="Layer_1" xmlns="http://www.w3.org/2000/svg" xmlns:xlink="http://www.w3.org/1999/xlink" x="0px" y="0px"
	 width="1024px" height="512px" viewBox="0 0 1024 512" style="enable-background:new 0 0 1024 512;" xml:space="preserve">
<style type="text/css">
	.st0{fill:#104BA3;}
	.st1{fill:#1EB7F1;}
	.st2{fill:#FFD500;}
</style>
<g>
	<g>
		<g>
			<path class="st0" d="M202.5,417c0-19.8,14.9-32.8,32.6-32.8s32.7,13,32.7,32.8c0,19.8-15,32.9-32.7,32.9S202.5,436.9,202.5,417z
				 M254.8,417c0-12-9-20.5-19.7-20.5s-19.6,8.4-19.6,20.5c0,12.2,8.9,20.6,19.6,20.6S254.8,429.2,254.8,417z"/>
			<path class="st0" d="M277.1,417c0-19.8,15.6-32.8,33.5-32.8c10.1,0,18.8,4.2,24.2,10.7l-8.6,8.2c-3.6-4-9-6.6-15.3-6.6
				c-11.6,0-20.8,8.6-20.8,20.5c0,11.9,9.2,20.6,20.8,20.6c6.3,0,11.7-2.5,15.3-6.6l8.6,8.2c-5.5,6.6-14.1,10.7-24.2,10.7
				C292.7,450,277.1,436.9,277.1,417z"/>
			<path class="st0" d="M404.6,422.4h-49.5c1.7,10.2,9.2,15.4,19.2,15.4c7.3,0,14.1-3.3,17.6-9.1l10.4,5.2
				c-5.5,10.4-16.6,16.1-28.5,16.1c-18,0-32.1-13.3-32.1-33.1c0-19.8,14.4-32.7,32.1-32.7c17.7,0,31.1,12.9,31.1,32.5
				C404.9,418.5,404.8,420.4,404.6,422.4z M391.8,411.8c-1.3-9.8-8.4-15.4-18-15.4c-9.6,0-16.8,5-18.6,15.4H391.8z"/>
			<path class="st0" d="M466.5,385.8h13v62.5h-13v-10.6c-4,7.2-12.5,12.2-22.1,12.2c-16.2,0-30.2-13.7-30.2-32.9
				c0-18.6,13.2-32.8,30.7-32.8c9,0,17.6,3.9,21.6,11V385.8z M466.4,417c0-12-10-20.5-20-20.5c-10.6,0-19,9.4-19,20.5
				c0,11.2,8.4,20.6,19.3,20.6C457,437.7,466.4,428.8,466.4,417z"/>
			<path class="st0" d="M555.2,412.6v35.8h-13v-34.9c0-10.2-6.1-16.3-14.1-16.3c-8.1,0-18,4.7-18,17.7v33.6h-13v-62.5h13v9.6
				c3.6-7.8,13.6-11.2,20.2-11.2C546.1,384.2,555.4,394.8,555.2,412.6z"/>
			<path class="st0" d="M569.5,363.1c0-4.8,4.1-8.4,8.9-8.4c4.9,0,8.9,3.6,8.9,8.4c0,4.8-4,8.4-8.9,8.4
				C573.6,371.5,569.5,367.9,569.5,363.1z M571.9,448.4v-62.5h13v62.5H571.9z"/>
			<path class="st0" d="M598.3,417c0-19.8,15.6-32.8,33.5-32.8c10.1,0,18.8,4.2,24.2,10.7l-8.6,8.2c-3.6-4-9-6.6-15.3-6.6
				c-11.6,0-20.8,8.6-20.8,20.5c0,11.9,9.2,20.6,20.8,20.6c6.3,0,11.7-2.5,15.3-6.6l8.6,8.2c-5.5,6.6-14.1,10.7-24.2,10.7
				C613.9,450,598.3,436.9,598.3,417z"/>
		</g>
		<g>
			<path class="st1" d="M718,385.8h13v62.5h-13v-10.6c-4,7.2-12.5,12.2-22.1,12.2c-16.2,0-30.2-13.7-30.2-32.9
				c0-18.6,13.2-32.8,30.7-32.8c9,0,17.6,3.9,21.6,11V385.8z M717.9,417c0-12-10-20.5-20-20.5c-10.6,0-19,9.4-19,20.5
				c0,11.2,8.4,20.6,19.3,20.6C708.6,437.7,717.9,428.8,717.9,417z"/>
			<path class="st1" d="M746.3,363.1c0-4.8,4.1-8.4,8.9-8.4c4.9,0,8.9,3.6,8.9,8.4c0,4.8-4,8.4-8.9,8.4
				C750.4,371.5,746.3,367.9,746.3,363.1z M748.6,448.4v-62.5h13v62.5H748.6z"/>
			<path class="st1" d="M820.5,386.5l-2.3,12.5c-3.5-1.6-6.7-2.1-9.2-2.1c-11.3,0-16.6,12.2-16.6,29.1v22.5h-13.2v-62.5h13.2v14.1
				c3.2-11,9.4-15.7,17.4-15.7C814.1,384.2,818.5,385.3,820.5,386.5z"/>
		</g>
	</g>
	<g>
		<path class="st1" d="M322.5,468.9h2.7l-5,14.3h-2.1l-2.4-8.2l-2.4,8.2h-2.1l-5-14.3h2.7l3.4,10l2.4-8.1h2l2.4,8.1L322.5,468.9z"/>
		<path class="st1" d="M339.1,468.9h2.5v14.3h-2.5v-6h-6.4v6h-2.5v-14.3h2.5v6.1h6.4V468.9z"/>
		<path class="st1" d="M357.6,483.2l-1.3-3.5h-6l-1.3,3.5h-2.7l5.6-14.3h2.7l5.6,14.3H357.6z M351.1,477.5h4.3l-2.2-5.8L351.1,477.5
			z"/>
		<path class="st1" d="M373.4,468.9v2.3H369v12h-2.5v-12h-4.3v-2.3H373.4z"/>
		<path class="st1" d="M385.5,476.1c0-4.1,3.3-7.4,7.6-7.4c2.1,0,4,0.9,5.3,2.1l-1.8,1.6c-0.9-0.9-2.1-1.4-3.5-1.4
			c-2.9,0-5.1,2.2-5.1,5c0,2.7,2.2,5,5.1,5c2.3,0,4.3-1.3,4.4-3.2h-4.3v-2.1h7c0,5.2-2.9,7.6-7.1,7.6S385.5,480.2,385.5,476.1z"/>
		<path class="st1" d="M404.7,476.1c0-4.1,3.3-7.4,7.5-7.4c4.2,0,7.6,3.3,7.6,7.4c0,4-3.3,7.3-7.6,7.3
			C407.9,483.5,404.7,480.2,404.7,476.1z M417.3,476.1c0-2.7-2.2-5-5.1-5c-2.9,0-5,2.2-5,5s2.1,5,5,5
			C415.1,481.1,417.3,478.9,417.3,476.1z"/>
		<path class="st1" d="M428,481h6.8v2.2h-9.3v-14.3h9.1v2.3H428v3.9h5.8v2.3H428V481z"/>
		<path class="st1" d="M439.7,479.1h2.5c0.1,1.1,1.2,2.1,2.9,2.1c1.6,0,2.6-0.9,2.6-1.9c0-1-1-1.6-2.3-1.9l-1.9-0.5
			c-3.2-0.8-3.8-2.6-3.8-3.9c0-2.5,2.3-4.2,5-4.2c2.7,0,4.8,1.6,4.8,4.3h-2.5c0-1.2-1-2-2.4-2c-1.3,0-2.5,0.8-2.5,1.9
			c0,0.4,0.2,1.2,1.9,1.7l1.8,0.5c2.4,0.6,4.1,1.8,4.1,4.1c0,2.6-2.2,4.3-5.2,4.3C441.9,483.5,439.7,481.5,439.7,479.1z"/>
		<path class="st1" d="M464.3,478.2v-9.3h2.5v9.2c0,2,1.5,2.9,3.1,2.9c1.6,0,3-0.9,3-2.9v-9.2h2.5v9.3c0,3.2-2.6,5.2-5.5,5.2
			S464.3,481.5,464.3,478.2z"/>
		<path class="st1" d="M488,468.9c3.3,0,4.6,2.3,4.6,4.6c0,2.3-1.4,4.6-4.6,4.6h-3.5v5.1H482v-14.3H488z M487.9,475.9
			c1.6,0,2.3-1.2,2.3-2.3c0-1.1-0.6-2.3-2.2-2.3h-3.4v4.7H487.9z"/>
		<path class="st0" d="M523,483.2h-2.5l-1.2-9.6l-4.2,8h-2.1l-4.2-8l-1.2,9.6h-2.5l1.9-14.3h2.2l4.9,9.8l4.9-9.8h2.2L523,483.2z"/>
		<path class="st0" d="M528.7,478.2v-9.3h2.5v9.2c0,2,1.5,2.9,3.1,2.9c1.6,0,3-0.9,3-2.9v-9.2h2.5v9.3c0,3.2-2.6,5.2-5.5,5.2
			C531.3,483.5,528.7,481.5,528.7,478.2z"/>
		<path class="st0" d="M545.5,479.1h2.5c0.1,1.1,1.2,2.1,2.9,2.1c1.6,0,2.6-0.9,2.6-1.9c0-1-1-1.6-2.3-1.9l-1.9-0.5
			c-3.2-0.8-3.8-2.6-3.8-3.9c0-2.5,2.3-4.2,5-4.2c2.7,0,4.8,1.6,4.8,4.3H553c0-1.2-1-2-2.4-2c-1.3,0-2.5,0.8-2.5,1.9
			c0,0.4,0.2,1.2,1.9,1.7l1.8,0.5c2.4,0.6,4.1,1.8,4.1,4.1c0,2.6-2.2,4.3-5.2,4.3C547.6,483.5,545.5,481.5,545.5,479.1z"/>
		<path class="st0" d="M571,468.9v2.3h-4.3v12h-2.5v-12h-4.3v-2.3H571z"/>
		<path class="st0" d="M583.1,476.1c0-4,3.3-7.3,7.6-7.3c2.4,0,4.5,1.1,5.8,2.8l-1.9,1.4c-0.9-1.1-2.3-1.8-3.9-1.8
			c-2.9,0-5.1,2.2-5.1,4.9c0,2.7,2.2,5,5.1,5c1.6,0,3-0.7,3.9-1.8l1.9,1.4c-1.4,1.7-3.5,2.8-5.8,2.8
			C586.4,483.5,583.1,480.2,583.1,476.1z"/>
		<path class="st0" d="M600.8,476.1c0-4.1,3.3-7.4,7.5-7.4c4.2,0,7.6,3.3,7.6,7.4c0,4-3.3,7.3-7.6,7.3
			C604,483.5,600.8,480.2,600.8,476.1z M613.4,476.1c0-2.7-2.2-5-5.1-5c-2.9,0-5,2.2-5,5s2.1,5,5,5
			C611.2,481.1,613.4,478.9,613.4,476.1z"/>
		<path class="st0" d="M638.6,483.2h-2.5l-1.2-9.6l-4.2,8h-2.1l-4.2-8l-1.2,9.6h-2.5l1.9-14.3h2.2l4.9,9.8l4.9-9.8h2.2L638.6,483.2z
			"/>
		<path class="st0" d="M647,481h6.8v2.2h-9.3v-14.3h9.1v2.3H647v3.9h5.8v2.3H647V481z"/>
		<path class="st0" d="M668.2,483.2v-14.3h5.8c4.3,0,6.7,3.1,6.7,7.2c0,4-2.5,7.1-6.7,7.1H668.2z M670.7,481h3.3
			c2.8,0,4.2-2.2,4.2-4.9c0-2.7-1.4-4.9-4.2-4.9h-3.3V481z"/>
		<path class="st0" d="M685.6,476.1c0-4.1,3.3-7.4,7.5-7.4c4.2,0,7.6,3.3,7.6,7.4c0,4-3.3,7.3-7.6,7.3
			C688.8,483.5,685.6,480.2,685.6,476.1z M698.2,476.1c0-2.7-2.2-5-5.1-5c-2.9,0-5,2.2-5,5s2.1,5,5,5
			C696,481.1,698.2,478.9,698.2,476.1z"/>
		<path class="st0" d="M720.8,468.9h2.7l-5,14.3h-2.1l-2.4-8.2l-2.4,8.2h-2.1l-5-14.3h2.7l3.4,10l2.4-8.1h2l2.4,8.1L720.8,468.9z"/>
		<path class="st0" d="M736.9,468.9h2.5v14.3h-2.3l-6.1-9.7v9.7h-2.5v-14.3h2.4l6,9.6V468.9z"/>
	</g>
	<path class="st2" d="M436.7,178.7c0-0.1,0-0.2,0-0.3c0-41.2,33.5-74.6,74.8-74.6c41.3,0,74.8,33.4,74.8,74.6c0,0.1,0,0.2,0,0.3
		h76.6c0-0.1,0-0.2,0-0.3c0-83.3-67.8-150.9-151.4-150.9c-83.6,0-151.4,67.5-151.4,150.9c0,0.1,0,0.2,0,0.3H436.7z"/>
	<g>
		<path class="st0" d="M458.1,230.7c-4.7-4.7-8.7-10.1-12-15.9h-81.6c1.3,5.4,3,10.8,4.9,15.9H458.1z"/>
		<path class="st0" d="M590.4,307.2c3.3-2,6.5-4.2,9.6-6.4H423c3.1,2.3,6.3,4.4,9.6,6.4H590.4z"/>
		<path class="st0" d="M394.3,274c2.3,2.8,4.8,5.6,7.3,8.2h219.6c2.5-2.7,5-5.4,7.3-8.2H394.3z"/>
		<path class="st0" d="M548.6,243.2c-10.9,6.2-23.6,9.8-37.1,9.8c-13.5,0-26.2-3.6-37.1-9.8h-99.7c2.4,4.9,5,9.7,7.8,14.3h257.9
			c2.9-4.6,5.5-9.4,7.8-14.3H548.6z"/>
		<path class="st0" d="M474.2,324.6c11.9,3,24.4,4.6,37.3,4.6c12.9,0,25.4-1.6,37.3-4.6H474.2z"/>
		<path class="st1" d="M585.9,186.2c-0.6,5.6-1.8,10.9-3.5,16H661c0.8-5.3,1.4-10.6,1.7-16H585.9z"/>
		<path class="st1" d="M360.3,186.2c0.3,5.4,0.9,10.8,1.7,16h78.6c-1.7-5.1-2.9-10.5-3.5-16H360.3z"/>
		<path class="st0" d="M576.9,214.7c-3.3,5.8-7.3,11.2-12,15.9h88.7c1.9-5.2,3.5-10.5,4.9-15.9H576.9z"/>
	</g>
</g>
</svg>
