<?xml version="1.0" encoding="utf-8"?>
<!-- Generator: Adobe Illustrator 25.0.0, SVG Export Plug-In . SVG Version: 6.00 Build 0)  -->
<svg version="1.1" id="Layer_1" xmlns="http://www.w3.org/2000/svg" xmlns:xlink="http://www.w3.org/1999/xlink" x="0px" y="0px"
	 viewBox="0 0 1024 512" style="enable-background:new 0 0 1024 512;" xml:space="preserve">
<style type="text/css">
	.st0{fill:#F47F2E;}
</style>
<g>
	<g>
		<g>
			<path d="M213.8,377.6c-3.5,13.1-6.7,20.2-12.2,27.3c-10.4,12.7-27.8,19.8-49.6,19.8c-19.8,0-35.6-6-46.7-17.5
				c-12.7-13.3-19.8-33.8-19.8-57.1c0-24,7.6-45.1,21.3-58.7c10.9-11.1,27.3-17.3,45.5-17.3c14.2,0,24.9,2.7,34.9,8.7
				c8.2,5.1,14.7,11.8,19.3,19.8c2.2,3.8,3.5,7.1,5.6,14l-25.3,5.8c-2.5-8-4.2-11.5-7.8-15.6c-6.2-7.5-15.3-11.3-26.5-11.3
				c-25.8,0-41.5,20.2-41.5,53.6c0,33.3,16,54,41.5,54c12.7,0,23.6-4.9,29.5-13.5c3.1-4.5,4.5-8.4,6-16.7L213.8,377.6z"/>
			<path d="M256,277c-0.9,7.1-1.3,12.9-1.3,23.8v97.3c0,9.6,0.4,15.6,1.3,23.6h-26.4c0.9-7.8,1.3-13.1,1.3-23.6v-97.5
				c0-10.9-0.4-16.7-1.3-23.6H256z"/>
			<path d="M295.1,375.6c0.9,10,2.5,15.1,6.7,20.4c5.3,6.5,13.5,10.2,22.7,10.2c8.9,0,16.6-3.3,21.8-9.1c2.2-2.5,3.5-4.5,5.3-9.5
				l21.5,6.9c-4.2,8.7-6.5,12.2-11.1,16.7c-9.5,9.3-22.2,14-37.5,14c-32.2,0-52.5-21.5-52.5-55.5c0-33.6,20.2-55.6,51.3-55.6
				c21.3,0,38,10.5,45.3,28.7c3.5,8.7,4.7,15.3,5.3,27.6c0,0.4,0,0.9,0.4,5.1H295.1z M350.6,357.6c-1.3-8-3.5-12.9-8-17.5
				c-4.9-4.9-11.1-7.3-19.6-7.3c-14.2,0-24.5,9.5-27.3,24.7H350.6z"/>
			<path d="M461.3,409.9c-7.3,6.9-11.8,9.5-19.3,11.5c-5.3,1.5-11.1,2.2-16.9,2.2c-22.2,0-35.6-11.5-35.6-30.5
				c0-12.7,8-24.2,20.5-29.5c11.8-4.9,25.3-6.7,51.3-7.3V347c0-10.5-7.1-16-20.9-16c-7.3,0-14.7,2-18.9,5.3
				c-3.5,2.5-5.1,5.1-7.3,11.6l-23.3-4.2c4.2-10.5,7.5-15.3,14.4-20.2c8.9-6.5,19.1-9.3,34.7-9.3c17.5,0,28,3.1,35.8,10.7
				c6.2,5.8,8.5,12.7,8.5,25.1V399c0,9.6,0.4,14.5,1.5,22.7h-24.5V409.9z M461.3,372.1c-34.7,0.7-48.4,6.7-48.4,20.9
				c0,8.5,6.4,13.8,16.5,13.8c9.6,0,19.1-3.6,25.3-9.6c4.4-4.4,6.5-9.6,6.5-16V372.1z"/>
			<path d="M574.7,340.3c-7.6-2.2-11.5-2.9-16.2-2.9c-9.1,0-16,2.9-21.1,8.9c-4.5,5.3-6.4,9.5-7.5,18.2v33.6
				c0,9.8,0.4,15.1,1.3,23.6h-26c0.9-8.9,1.3-14.2,1.3-23.6V341c0-11.1-0.2-16.2-1.3-23.6H530v17.1c6.5-12.9,17.8-19.1,34.2-19.1
				c4.4,0,8.7,0.5,16.9,2L574.7,340.3z"/>
			<path d="M617.4,376.7c0.7,8.2,1.8,11.8,5.1,16c5.3,6.9,14.7,10.7,26.5,10.7c18.2,0,29.1-8.2,29.1-21.8c0-7.5-3.5-13.6-9.1-16.7
				c-5.5-2.9-6.5-3.1-31.6-8.9c-13.6-3.1-20.9-6-27.5-11.1c-9.3-7.3-14-17.3-14-29.5c0-25.3,20.4-41.6,51.6-41.6
				c20.7,0,36.4,6.4,45.3,18.4c4.5,6,6.7,11.5,8.9,21.1l-26,3.1c-1.1-6.2-2.4-9.3-5.5-12.9c-4.7-5.6-12.7-8.7-22.7-8.7
				c-15.8,0-26.5,8-26.5,19.8c0,7.6,4,12.9,12.4,16.5c4,1.6,5.5,2,25.6,6.5c14.4,3.1,23.1,6.5,29.6,11.1
				c10.4,7.6,15.1,17.6,15.1,31.3c0,12.9-4,23.5-11.5,30.9c-9.6,9.3-24,13.8-43.5,13.8c-14.9,0-29.5-3.6-38.2-9.5
				c-7.3-4.9-12.5-11.8-16-20.7c-1.6-4.2-2.4-7.6-3.5-15.1L617.4,376.7z"/>
			<path d="M744.7,277c-0.9,6.9-1.3,13.3-1.3,23.8v59.8l27.3-27.1c8.4-8,11.5-11.6,14.4-16.2h34c-10.4,9.3-10.4,9.3-18.2,16.7
				l-25.8,24.5l30.7,42c12.4,16.9,12.4,16.9,16.5,21.1H790c-2.2-5.8-4.4-9.5-12-20.5l-19.6-28.7l-14.9,14.2v11.8
				c0,11.8,0.2,16.2,1.3,23.3h-25.6c0.9-7.5,1.3-13.6,1.3-23.6v-97.3c0-10.9-0.4-16.9-1.3-23.8H744.7z"/>
			<path d="M838,339.9c-8-18-8.2-18.5-10.4-22.5h27.6c0.9,5.3,3.6,13.8,6.9,21.3l22.2,51.6l20.2-51.5c4.4-11.1,5.8-15.6,6.9-21.5
				h27.1c-1.1,2.4-4.4,9.8-9.8,22.5l-41.5,97.3c-5.8,13.8-16.6,20.2-33.5,20.2c-5.5,0-10.7-0.5-19.1-2.2l4.2-20.7
				c5.1,2.2,8.5,3.1,12.7,3.1c6.4,0,11.6-3.5,14.2-9.1l6.2-14L838,339.9z"/>
		</g>
		<g>
			<g>
				<path d="M300.4,485c-1.4-0.2-2.7-0.3-5.4-0.3h-11.3c-2.1,0-3.5,0-4.9,0.1c0.2-1.4,0.3-2.8,0.3-5.1v-19.9c0-2.6-0.1-4-0.3-5.7
					h5.8c-0.2,1.6-0.3,2.8-0.3,5.6v20.2H295c2.6,0,3.8-0.1,5.4-0.3V485z"/>
				<path d="M357.4,457.4c2.8,2.8,4.3,7,4.3,11.9c0,9.7-5.6,16-14.3,16c-8.7,0-14.3-6.2-14.3-16c0-4.9,1.5-9.2,4.4-11.9
					c2.6-2.6,5.8-3.8,9.9-3.8C351.5,453.6,354.8,454.8,357.4,457.4z M356.3,469.4c0-3.9-1.1-7-3-8.9c-1.6-1.5-3.6-2.3-5.9-2.3
					c-5.5,0-9,4.4-9,11.3c0,3.8,1.1,7,3.1,9c1.6,1.5,3.6,2.3,5.9,2.3C352.9,480.8,356.3,476.4,356.3,469.4z"/>
				<path d="M421.8,476.9c0,2.3,0,3.3,0.3,5c-2.7,1.5-4.1,2.1-6.1,2.6c-1.7,0.5-3.8,0.7-5.6,0.7c-4.8,0-8.5-1.5-10.9-4.4
					c-2.3-2.8-3.6-6.9-3.6-11.6c0-6.1,2.1-10.8,6.1-13.4c2.4-1.6,5-2.3,8.5-2.3c3.5,0,6.7,1.2,8.8,3.3c1.3,1.3,2,2.4,2.8,4.6
					l-5.2,1.4c-1.3-3.5-3.1-4.7-7-4.7c-2.3,0-4.4,0.8-5.8,2.3c-1.9,2-2.8,4.8-2.8,8.7c0,3.9,0.9,6.9,2.6,9c1.6,1.8,3.6,2.6,6.7,2.6
					c2.6,0,4.6-0.5,6.5-1.7v-6.2h-2.1c-2,0-2.8,0-3.9,0.2V468c1.4,0.2,2.2,0.2,4.6,0.2h2c1.8,0,2.9,0,4.5-0.2
					c-0.2,1.4-0.3,2.6-0.3,4.7V476.9z"/>
				<path d="M463.5,454.2c-0.2,1.5-0.3,2.6-0.3,4.9v20.6c0,2.3,0.1,3.5,0.3,4.9h-5.8c0.2-1.5,0.3-2.7,0.3-4.9v-20.6
					c0-2.4-0.1-3.4-0.3-4.9H463.5z"/>
				<path d="M504.1,475.2c0.1,1.7,0.4,2.5,1.1,3.4c1.1,1.5,3.1,2.3,5.6,2.3c3.8,0,6.1-1.7,6.1-4.6c0-1.6-0.7-2.9-1.9-3.5
					c-1.1-0.6-1.4-0.6-6.7-1.9c-2.9-0.7-4.4-1.3-5.8-2.3c-2-1.5-2.9-3.6-2.9-6.2c0-5.3,4.3-8.8,10.9-8.8c4.4,0,7.7,1.3,9.5,3.9
					c1,1.3,1.4,2.4,1.9,4.4l-5.5,0.7c-0.2-1.3-0.5-2-1.1-2.7c-1-1.2-2.7-1.8-4.8-1.8c-3.3,0-5.6,1.7-5.6,4.2c0,1.6,0.8,2.7,2.6,3.5
					c0.8,0.3,1.1,0.4,5.4,1.4c3,0.7,4.9,1.4,6.2,2.3c2.2,1.6,3.2,3.7,3.2,6.6c0,2.7-0.8,4.9-2.4,6.5c-2,2-5.1,2.9-9.2,2.9
					c-3.1,0-6.2-0.8-8-2c-1.5-1-2.6-2.5-3.4-4.4c-0.3-0.9-0.5-1.6-0.7-3.2L504.1,475.2z"/>
				<path d="M571,479.7c0,2.1,0.1,3.4,0.3,5h-5.8c0.2-1.6,0.3-2.9,0.3-5v-20.9h-5.2c-2.3,0-3.9,0.1-5.2,0.3V454
					c1.4,0.2,3,0.3,5.2,0.3h15.2c2.8,0,4.2-0.1,5.6-0.3v5.1c-1.4-0.2-2.9-0.3-5.6-0.3H571V479.7z"/>
				<path d="M621.2,454.2c-0.2,1.5-0.3,2.6-0.3,4.9v20.6c0,2.3,0.1,3.5,0.3,4.9h-5.8c0.2-1.5,0.3-2.7,0.3-4.9v-20.6
					c0-2.4-0.1-3.4-0.3-4.9H621.2z"/>
				<path d="M683.3,475.4c-0.7,2.8-1.4,4.3-2.6,5.7c-2.2,2.7-5.9,4.2-10.5,4.2c-4.2,0-7.5-1.3-9.8-3.7c-2.7-2.8-4.2-7.1-4.2-12
					c0-5.1,1.6-9.5,4.5-12.4c2.3-2.3,5.7-3.6,9.6-3.6c3,0,5.2,0.6,7.4,1.8c1.7,1.1,3.1,2.5,4.1,4.2c0.5,0.8,0.7,1.5,1.2,2.9
					l-5.3,1.2c-0.5-1.7-0.9-2.4-1.6-3.3c-1.3-1.6-3.2-2.4-5.6-2.4c-5.4,0-8.7,4.2-8.7,11.3c0,7,3.4,11.4,8.7,11.4c2.7,0,5-1,6.2-2.8
					c0.7-1,1-1.8,1.3-3.5L683.3,475.4z"/>
				<path d="M722.8,475.2c0.2,1.7,0.4,2.5,1.1,3.4c1.1,1.5,3.1,2.3,5.6,2.3c3.8,0,6.1-1.7,6.1-4.6c0-1.6-0.7-2.9-1.9-3.5
					c-1.2-0.6-1.4-0.6-6.7-1.9c-2.9-0.7-4.4-1.3-5.8-2.3c-2-1.5-2.9-3.6-2.9-6.2c0-5.3,4.3-8.8,10.9-8.8c4.4,0,7.7,1.3,9.5,3.9
					c1,1.3,1.4,2.4,1.9,4.4l-5.5,0.7c-0.2-1.3-0.5-2-1.1-2.7c-1-1.2-2.7-1.8-4.8-1.8c-3.3,0-5.6,1.7-5.6,4.2c0,1.6,0.8,2.7,2.6,3.5
					c0.8,0.3,1.2,0.4,5.4,1.4c3,0.7,4.9,1.4,6.2,2.3c2.2,1.6,3.2,3.7,3.2,6.6c0,2.7-0.8,4.9-2.4,6.5c-2,2-5.1,2.9-9.2,2.9
					c-3.1,0-6.2-0.8-8-2c-1.5-1-2.6-2.5-3.4-4.4c-0.3-0.9-0.5-1.6-0.7-3.2L722.8,475.2z"/>
			</g>
		</g>
	</g>
	<g>
		<g>
			<path class="st0" d="M394.8,209.6c17.1,28.6,41.8,47,74.2,55.1c32.3,8.1,62.7,3.6,91.3-13.4c7.7-4.7,14.7-9.9,20.9-15.6
				c-63.1-88.2-129.4-122.4-198.8-102.6c76.4-37.3,156.7-0.1,240.8,111.7l8.1-5.1c-6.6-9-21.3-27.9-26.8-34c1.2-2.3,3-6.2,5.5-11.8
				c-59.5-67.1-113-91.6-165.2-85c52.9-25.7,119,2.3,194.1,82.2l7.6-4.5c-7.1-8-20.1-22-27.5-28.9c2.4-25.2-3.2-49.2-16.9-72
				c-17.1-28.6-41.8-47-74.1-55c-32.5-8.2-62.9-3.7-91.4,13.3c-28.6,17.1-47,41.8-55.1,74.2C373.3,150.4,377.7,180.9,394.8,209.6z"
				/>
		</g>
	</g>
</g>
</svg>
