<?xml version="1.0" encoding="utf-8"?>
<!-- Generator: Adobe Illustrator 25.1.0, SVG Export Plug-In . SVG Version: 6.00 Build 0)  -->
<svg version="1.1" id="Layer_1" xmlns="http://www.w3.org/2000/svg" xmlns:xlink="http://www.w3.org/1999/xlink" x="0px" y="0px"
	 viewBox="0 0 512 512" style="enable-background:new 0 0 512 512;" xml:space="preserve">
<style type="text/css">
	.st0{fill:#80CAE7;}
	.st1{fill:#81CBE8;}
	.st2{fill:#FFFFFF;}
	.st3{fill:#73A27B;}
	.st4{fill:#CCDCC0;}
	.st5{fill:none;}
	.st6{fill:#81CDEA;}
	.st7{fill:#231F20;}
</style>
<g>
	<g>
		<path class="st0" d="M480.8,259.6c0.6-1.4,1.1-2.9,1.6-4.4c0.1-0.3,0.2-0.6,0.3-0.9c0.4-1.5,0.8-3,1-4.5c0-0.3,0.1-0.5,0.1-0.8
			c0.3-1.6,0.4-3.2,0.5-4.8c0-0.1,0-0.3,0-0.4c0.2-3.5-0.1-7-0.7-10.4c0,0,0,0,0,0c-0.3-1.7-0.7-3.4-1.3-5.1c0-0.1,0-0.1-0.1-0.2
			c-0.5-1.7-1.1-3.3-1.8-4.9c0,0,0-0.1,0-0.1c0,0,0-0.1-0.1-0.1c-0.6-1.3-1.3-2.7-2-4c0-0.1-0.1-0.2-0.1-0.2l-9.2-15.8L387,62.3
			c-0.5-0.9-1-1.7-1.6-2.5c-0.1-0.2-0.3-0.4-0.4-0.5c-0.4-0.6-0.9-1.2-1.3-1.8c-0.2-0.2-0.4-0.5-0.6-0.7c-0.4-0.5-0.8-1-1.3-1.5
			c-0.2-0.3-0.5-0.5-0.7-0.7c-0.4-0.5-0.9-0.9-1.3-1.4c-0.3-0.3-0.5-0.5-0.8-0.7c-0.4-0.4-0.9-0.8-1.4-1.2c-0.3-0.2-0.6-0.5-0.8-0.7
			c-0.5-0.4-0.9-0.8-1.4-1.1c-0.3-0.2-0.6-0.4-0.9-0.7c-0.5-0.4-1-0.7-1.5-1c-0.3-0.2-0.6-0.4-0.9-0.6c-0.5-0.3-1-0.6-1.5-0.9
			c-0.3-0.2-0.7-0.4-1-0.6c-0.5-0.3-1-0.6-1.6-0.8c-0.3-0.2-0.7-0.3-1-0.5c-0.5-0.3-1.1-0.5-1.6-0.7c-0.3-0.1-0.7-0.3-1-0.4
			c-0.6-0.2-1.1-0.4-1.7-0.6c-0.3-0.1-0.7-0.3-1-0.4c-0.6-0.2-1.2-0.4-1.8-0.5c-0.3-0.1-0.7-0.2-1-0.3c-0.6-0.2-1.3-0.3-1.9-0.4
			c-0.3-0.1-0.6-0.2-1-0.2c-0.7-0.1-1.4-0.2-2.1-0.3c-0.3,0-0.5-0.1-0.8-0.1c-1-0.1-2-0.2-2.9-0.3c0,0,0,0,0,0c-0.1,0-0.2,0-0.2,0
			c-0.9-0.1-1.9-0.1-2.8-0.1h0h0H164.4h0h0c-16.4,0-31.6,8.7-39.9,22.8L33.2,218.9c-1.4,2.3-2.5,4.8-3.4,7.3
			c-0.1,0.2-0.2,0.5-0.3,0.7c-0.2,0.6-0.4,1.2-0.6,1.8c-0.1,0.3-0.2,0.6-0.3,0.9c-0.2,0.6-0.3,1.2-0.4,1.8c-0.1,0.3-0.2,0.7-0.2,1
			c-0.1,0.6-0.2,1.2-0.3,1.8c-0.1,0.3-0.1,0.7-0.2,1c-0.1,0.6-0.2,1.2-0.2,1.8c0,0.4-0.1,0.7-0.1,1.1c0,0.6-0.1,1.2-0.1,1.8
			c0,0.4,0,0.7,0,1.1c0,0.6,0,1.2,0,1.8c0,0.4,0,0.7,0,1.1c0,0.6,0.1,1.2,0.1,1.8c0,0.4,0.1,0.7,0.1,1.1c0.1,0.6,0.1,1.2,0.2,1.8
			c0.1,0.4,0.1,0.7,0.2,1.1c0.1,0.6,0.2,1.2,0.3,1.8c0.1,0.4,0.2,0.7,0.2,1c0.1,0.6,0.3,1.2,0.4,1.7c0.1,0.3,0.2,0.7,0.3,1
			c0.2,0.6,0.4,1.2,0.6,1.7c0.1,0.3,0.2,0.6,0.4,0.9c0.2,0.6,0.4,1.2,0.7,1.8c0.1,0.3,0.3,0.5,0.4,0.8c0.3,0.6,0.5,1.2,0.8,1.8
			c0,0.1,0.1,0.1,0.1,0.2c0.4,0.8,0.8,1.5,1.2,2.3l16.9,29.1l64.8,111.1h-7.6h0c-8.1,0-14.7,6.6-14.7,14.7V457
			c0,8.1,6.6,14.7,14.7,14.7h0h296.9h0c8.1,0,14.7-6.6,14.7-14.7v-37.4c0-8.1-6.6-14.7-14.7-14.7h0h-7.6l81.8-140.2
			c0-0.1,0.1-0.1,0.1-0.2c0.8-1.4,1.5-2.8,2.1-4.2C480.6,260,480.7,259.8,480.8,259.6z"/>
		<path class="st1" d="M347.1,39.5c0.9,0,1.9,0,2.8,0.1c0.1,0,0.2,0,0.2,0c0,0,0,0,0,0c1,0.1,2,0.2,2.9,0.3c0.3,0,0.5,0.1,0.8,0.1
			c0.7,0.1,1.4,0.2,2.1,0.3c0.3,0.1,0.6,0.1,1,0.2c0.6,0.1,1.3,0.3,1.9,0.4c0.3,0.1,0.7,0.2,1,0.3c0.6,0.2,1.2,0.3,1.8,0.5
			c0.4,0.1,0.7,0.2,1,0.4c0.6,0.2,1.1,0.4,1.7,0.6c0.3,0.1,0.7,0.3,1,0.4c0.5,0.2,1.1,0.5,1.6,0.7c0.3,0.2,0.7,0.3,1,0.5
			c0.5,0.3,1,0.5,1.6,0.8c0.3,0.2,0.7,0.4,1,0.6c0.5,0.3,1,0.6,1.5,0.9c0.3,0.2,0.6,0.4,0.9,0.6c0.5,0.3,1,0.7,1.5,1
			c0.3,0.2,0.6,0.4,0.9,0.7c0.5,0.4,0.9,0.7,1.4,1.1c0.3,0.2,0.6,0.5,0.8,0.7c0.5,0.4,0.9,0.8,1.4,1.2c0.3,0.2,0.5,0.5,0.8,0.7
			c0.4,0.4,0.9,0.9,1.3,1.4c0.2,0.2,0.5,0.5,0.7,0.7c0.4,0.5,0.9,1,1.3,1.5c0.2,0.2,0.4,0.5,0.6,0.7c0.5,0.6,0.9,1.2,1.3,1.8
			c0.1,0.2,0.3,0.4,0.4,0.5c0.6,0.8,1.1,1.7,1.6,2.5L469,203.1l9.2,15.8c0,0.1,0.1,0.2,0.1,0.2c0.7,1.3,1.4,2.6,2,4
			c0,0,0,0.1,0.1,0.1c0,0,0,0.1,0,0.1c0.7,1.6,1.3,3.2,1.8,4.9c0,0.1,0,0.1,0.1,0.2c0.5,1.7,0.9,3.4,1.3,5.1c0,0,0,0,0,0
			c0.6,3.4,0.9,6.9,0.7,10.4c0,0.1,0,0.3,0,0.4c-0.1,1.6-0.3,3.2-0.5,4.8c0,0.3-0.1,0.5-0.1,0.8c-0.3,1.5-0.6,3-1,4.5
			c-0.1,0.3-0.2,0.6-0.3,0.9c-0.5,1.5-1,2.9-1.6,4.4c-0.1,0.2-0.2,0.5-0.3,0.7c-0.6,1.4-1.3,2.9-2.1,4.2c0,0.1-0.1,0.1-0.1,0.2
			l-81.8,140.2h7.6h0c8.1,0,14.7,6.6,14.7,14.7V457c0,8.1-6.6,14.7-14.7,14.7h0H107.3h0c-8.1,0-14.7-6.6-14.7-14.7v-37.4
			c0-8.1,6.6-14.7,14.7-14.7h0h7.6L50.1,293.8l-16.9-29.1c-0.4-0.8-0.8-1.5-1.2-2.3c0-0.1-0.1-0.1-0.1-0.2c-0.3-0.6-0.6-1.2-0.8-1.8
			c-0.1-0.3-0.3-0.5-0.4-0.8c-0.2-0.6-0.5-1.2-0.7-1.8c-0.1-0.3-0.2-0.6-0.4-0.9c-0.2-0.6-0.4-1.2-0.6-1.7c-0.1-0.3-0.2-0.7-0.3-1
			c-0.2-0.6-0.3-1.2-0.4-1.7c-0.1-0.3-0.2-0.7-0.2-1c-0.1-0.6-0.2-1.2-0.3-1.8c-0.1-0.4-0.1-0.7-0.2-1.1c-0.1-0.6-0.2-1.2-0.2-1.8
			c0-0.4-0.1-0.7-0.1-1.1c0-0.6-0.1-1.2-0.1-1.8c0-0.4,0-0.7,0-1.1c0-0.6,0-1.2,0-1.8c0-0.4,0-0.7,0-1.1c0-0.6,0.1-1.2,0.1-1.8
			c0-0.4,0.1-0.7,0.1-1.1c0.1-0.6,0.1-1.2,0.2-1.8c0.1-0.3,0.1-0.7,0.2-1c0.1-0.6,0.2-1.2,0.3-1.8c0.1-0.3,0.2-0.7,0.2-1
			c0.1-0.6,0.3-1.2,0.4-1.8c0.1-0.3,0.2-0.6,0.3-1c0.2-0.6,0.4-1.2,0.6-1.8c0.1-0.2,0.2-0.5,0.3-0.7c0.9-2.5,2-5,3.4-7.3l91.3-156.5
			c8.2-14.1,23.5-22.8,39.9-22.8h0h0H347.1L347.1,39.5L347.1,39.5 M347.1,28.2L347.1,28.2H164.4c-20.4,0-39.4,10.9-49.6,28.4
			L23.4,213.2c-1.6,2.8-3.1,5.9-4.3,9.1l0,0.1c-0.1,0.3-0.2,0.5-0.3,0.8c-0.2,0.7-0.5,1.4-0.7,2.1l0,0.1l-0.1,0.2
			c-0.1,0.3-0.2,0.6-0.3,1c-0.2,0.7-0.4,1.4-0.5,2.2l-0.1,0.3c-0.1,0.3-0.2,0.7-0.2,1c-0.2,0.7-0.3,1.5-0.4,2.2l0,0.2
			c-0.1,0.4-0.1,0.7-0.2,1.1c-0.1,0.7-0.2,1.5-0.3,2.2c-0.1,0.5-0.1,0.9-0.1,1.3c-0.1,0.7-0.1,1.5-0.1,2.2c0,0.4,0,0.9,0,1.3
			c0,0.7,0,1.5,0,2.2c0,0.4,0,0.9,0,1.3c0,0.7,0.1,1.5,0.1,2.2c0,0.4,0.1,0.9,0.1,1.3c0.1,0.7,0.2,1.5,0.3,2.2
			c0.1,0.4,0.1,0.8,0.2,1.3c0.1,0.8,0.3,1.5,0.4,2.3c0.1,0.4,0.2,0.7,0.2,1.1l0.1,0.2c0.2,0.7,0.4,1.5,0.6,2.2
			c0.1,0.3,0.2,0.7,0.3,1l0.1,0.3c0.2,0.8,0.5,1.5,0.7,2.2c0.1,0.3,0.2,0.6,0.4,1l0.1,0.2l0.1,0.2c0.3,0.7,0.5,1.4,0.8,2
			c0.1,0.3,0.3,0.6,0.4,0.9l0.1,0.2l0.1,0.2c0.3,0.7,0.6,1.4,1,2.1c0.1,0.1,0.1,0.3,0.2,0.4c0.4,0.8,0.9,1.7,1.5,2.7l16.9,29.1
			l56.2,96.4c-9,4.1-15.3,13.2-15.3,23.7V457c0,14.4,11.7,26,26,26h296.9c14.4,0,26-11.7,26-26v-37.4c0-10.6-6.3-19.7-15.4-23.7
			L488,270.4c0.1-0.1,0.2-0.3,0.3-0.5c0.9-1.6,1.7-3.2,2.5-5l0.1-0.1c0.1-0.3,0.2-0.5,0.4-0.8c0.7-1.7,1.4-3.5,2-5.5l0.1-0.2
			c0.1-0.3,0.2-0.6,0.3-0.9c0.5-1.8,1-3.7,1.3-5.6c0-0.3,0.1-0.5,0.1-0.8l0-0.1c0.3-2,0.5-4,0.7-5.9c0-0.2,0-0.4,0-0.6
			c0.2-4.2-0.1-8.6-0.9-12.8c0,0,0-0.1,0-0.1l0,0c-0.4-2.1-0.9-4.2-1.6-6.4l-0.1-0.3c-0.6-2-1.4-4-2.2-5.9c0-0.1-0.1-0.2-0.1-0.3
			c-0.1-0.1-0.1-0.3-0.2-0.4c-0.7-1.6-1.5-3.1-2.2-4.4c-0.1-0.2-0.2-0.4-0.3-0.6l-9.2-15.8L396.7,56.6c-0.6-1-1.3-2.1-2-3.1
			c-0.2-0.2-0.3-0.5-0.5-0.7c-0.6-0.8-1.1-1.6-1.7-2.3c-0.2-0.3-0.4-0.5-0.6-0.7l-0.1-0.2c-0.5-0.6-1.1-1.3-1.6-1.9
			c-0.2-0.3-0.5-0.5-0.7-0.7l-0.2-0.2c-0.5-0.6-1.1-1.2-1.6-1.7c-0.3-0.3-0.5-0.5-0.8-0.8l-0.2-0.2c-0.6-0.5-1.1-1-1.7-1.6
			c-0.3-0.3-0.6-0.5-0.9-0.8l-0.1-0.1c-0.6-0.5-1.2-1-1.8-1.4c-0.4-0.3-0.7-0.6-1.1-0.8c-0.6-0.4-1.2-0.9-1.8-1.3
			c-0.4-0.3-0.8-0.5-1.2-0.8c-0.6-0.4-1.2-0.8-1.9-1.2c-0.4-0.2-0.8-0.5-1.2-0.7c-0.6-0.4-1.3-0.7-1.9-1c-0.4-0.2-0.8-0.4-1.3-0.6
			c-0.7-0.3-1.3-0.6-2-0.9l-0.2-0.1c-0.4-0.2-0.7-0.3-1.1-0.5c-0.7-0.3-1.4-0.5-2.1-0.8l-0.2-0.1c-0.4-0.1-0.7-0.3-1.1-0.4
			c-0.7-0.2-1.5-0.5-2.2-0.7l-0.3-0.1c-0.3-0.1-0.7-0.2-1-0.3c-0.8-0.2-1.6-0.4-2.3-0.6l-0.2-0.1c-0.3-0.1-0.7-0.1-1-0.2
			c-0.9-0.2-1.7-0.3-2.6-0.4l-0.1,0c-0.3-0.1-0.6-0.1-0.9-0.1c-1.2-0.2-2.5-0.3-3.7-0.4c0,0-0.1,0-0.1,0c-0.1,0-0.2,0-0.3,0
			C349.3,28.3,348.2,28.2,347.1,28.2L347.1,28.2z"/>
	</g>
	<path class="st2" d="M164.3,444.5c-16.4,0-31.7-8.7-39.9-22.8L33.2,265.1c-8.2-14.1-8.2-31.7,0-45.8l91.3-156.5
		c8.2-14.1,23.5-22.8,39.9-22.8h182.7c16.4,0,31.7,8.7,39.9,22.8l91.3,156.5c8.2,14.1,8.2,31.7,0,45.8l-91.3,156.5
		c-8.2,14.1-23.5,22.8-39.9,22.8H164.3z"/>
	<path class="st2" d="M478.3,265.1l-91.3,156.6c-8.2,14.1-23.5,22.8-39.8,22.8H164.3c-16.4,0-31.6-8.8-39.9-22.8L33.2,265.1
		c-8.2-14.1-8.2-31.7,0-45.8l91.3-156.5c8.2-14.1,23.5-22.8,39.9-22.8h182.7c16.4,0,31.6,8.7,39.8,22.8l91.3,156.5
		C486.5,233.4,486.5,251,478.3,265.1"/>
	<path class="st3" d="M368.9,72.6c-4.6-8-13.2-13-22.5-13H165c-9.3,0-17.9,4.9-22.5,13L51.8,229.2c-4.7,8.1-4.7,18,0,26.1
		l90.7,156.5c4.6,8,13.2,13,22.5,13h181.4c9.3,0,17.9-4.9,22.5-13l90.6-156.5c4.7-8.1,4.7-18,0-26.1L368.9,72.6z"/>
	<path class="st4" d="M442.5,239.1L351.9,82.5c-1.1-1.9-3.2-3.1-5.4-3.1H165c-2.2,0-4.3,1.2-5.4,3.1L68.9,239.1
		c-1.1,1.9-1.1,4.4,0,6.3l90.7,156.5c1.1,1.9,3.2,3.1,5.4,3.1h181.4c2.2,0,4.3-1.2,5.4-3.1l90.7-156.5
		C443.7,243.4,443.7,241,442.5,239.1 M344.4,395.2H167.1l-88.6-153l88.6-153h177.3l88.6,153L344.4,395.2z"/>
	<path class="st4" d="M328.6,84.8l-12.3,30.1c-2.5,6.1-8.4,10.1-15,10.1H210c-6.6,0-12.5-4-15-10.1l-12.1-29.7
		c0.9-0.9,2.1-1.4,3.4-1.4h139.4C326.7,83.8,327.8,84.1,328.6,84.8"/>
	<g>
		<path class="st4" d="M128.5,426.2c8.6,11.4,22.3,18.2,36.8,18.2h182.7c13.5,0,26.2-5.9,34.9-15.9c-25.1-44.7-73-74.9-127.9-74.9
			C201.1,353.7,154,382.9,128.5,426.2"/>
		<path class="st2" d="M404.1,405.3h-68.6c-18.2,0-34.9-10.3-42.9-26.7l-17.8-36.1h-38.2l-17.8,36.1c-8.1,16.3-24.7,26.7-42.9,26.7
			h-68.6c-8.1,0-14.7,6.6-14.7,14.7v37.4c0,8.1,6.6,14.7,14.7,14.7h296.9c8.1,0,14.7-6.6,14.7-14.7V420
			C418.9,411.9,412.3,405.3,404.1,405.3"/>
	</g>
	<g>
		<polygon class="st5" points="174.3,258.4 174.3,258.3 174.3,258.4 		"/>
		<path class="st2" d="M191.3,257L178,270.3c3,7.6,7.2,14.9,12.5,21.6l17.8-17.8L191.3,257z"/>
		<path class="st2" d="M198.2,300.2l42.2-23.3l-2.6,19.9l17.7-37.5l1.9,27.8l9.7-18.4l32.9,22.6c0.9-0.5,1.7-0.9,2.6-1.4l-47.1-47.1
			L198.2,300.2z"/>
		<path class="st2" d="M319.6,257l-17.1,17.1l10,10c6.9-4.3,13.5-9.1,19.9-14.2L319.6,257z"/>
		<polygon class="st2" points="174.3,258.4 174.3,258.4 174.3,258.4 		"/>
		<g>
			<path class="st6" d="M314.3,180.9c-16.3-16.3-37.6-24.4-58.9-24.4c-21.3,0-42.6,8.1-58.9,24.4c-16.2,16.3-24.4,37.6-24.4,58.9
				c0,6.2,0.7,12.5,2.1,18.6h0l0,0l13.1-13.1l3.9-3.9l3.9,3.9l21.1,21.1l35.2-35.2l3.9-3.9l3.9,3.9l35.2,35.2l21.1-21.1l3.9-3.9
				l3.9,3.9l13.1,13.1c1.4-6.1,2.1-12.3,2.1-18.6C338.7,218.5,330.6,197.2,314.3,180.9z M246.8,165.7c0-0.2,0.1-0.3,0.1-0.5
				c0,0.2,0.1,0.3,0.1,0.5L246.8,165.7z"/>
		</g>
		<polygon points="191.3,241.4 187.4,245.3 174.3,258.3 186.6,251.4 190.5,247.4 194.4,251.4 216.4,266.4 195.2,245.3 		"/>
		<polygon points="255.5,227.3 251.6,231.2 216.4,266.4 250.7,237.3 254.7,233.3 258.6,237.3 294.6,266.4 259.4,231.2 		"/>
		<polygon points="174.3,258.4 174.3,258.4 174.3,258.4 		"/>
		<g>
			<path d="M361.9,251.3c-5,5.8-10.5,11.3-16.3,16.6c-3.7,3.3-7.4,6.5-11.3,9.5c-2.6,2-5.2,4-7.8,5.9c-2.6,1.8-5.1,3.6-7.8,5.3
				c-0.3,0.2-0.6,0.4-0.9,0.6c-3.2,2.1-6.5,4.1-9.9,6.1c-0.4,0.2-0.8,0.5-1.2,0.7c-21.6,12.5-44.4,21.4-65.2,26.2
				c-12.1,2.8-23.4,4.1-33.1,3.8c-2.7-0.1-5.3-0.2-7.7-0.5c-9.8-1.2-17.1-4.3-20.6-9.4c-1.9-2.7-2.8-6.3-2.5-10.8c0.1-1,0.1-2,0.3-3
				c-0.6,0.2-1.1,0.3-1.7,0.5c-7.4,2.5-11.3,7.2-11.9,12.7c-1.2,11,10.8,24.8,34.2,28.2c7.5,1.1,16,1,26.7-0.9l26.4,26.4l3.9,3.9
				l3.9-3.9l61.4-61.3c0,0,4-4.3,5-5.4l2.3-2.7c0.8-0.9,3.5-3.8,5.3-5.9c3.4-3,6.8-6.2,10.3-9.8c12.7-12.9,22.7-31,23.8-39.9
				C365.8,246.7,363.8,249,361.9,251.3z"/>
			<path d="M165.3,267.4l0.4,1.2c3.6,11.2,9.3,21.8,17.2,31.3l-0.1,0.1l2.4,2.6c0.9,1,1.8,2,2.8,3l2.2,2.4l0.1-0.1l7.1,7.1
				c11.3,1.9,25.4,1.3,40.9-1.6c19.2-3.6,40-10.6,59.8-21c0.6-0.3,1.2-0.7,1.9-1l-32.9-22.6l-9.7,18.4l-1.9-27.8l-17.7,37.5
				l2.6-19.9l-42.2,23.3l57.3-57.3l47.1,47.1c3.4-1.9,6.7-3.8,10-5.9l-10-10l17.1-17.1l12.8,12.8c1.5-1.2,3.1-2.5,4.6-3.7
				c4-3.4,7.8-7.1,11.5-10.9c0.8-5.1,1.3-10.3,1.3-15.4c0-24.1-9.2-48.3-27.6-66.7c-18.4-18.4-42.5-27.6-66.7-27.6
				c-24.1,0-48.3,9.2-66.7,27.6c-18.4,18.4-27.6,42.5-27.6,66.7C161.2,249.1,162.6,258.4,165.3,267.4L165.3,267.4z M190.6,291.9
				c-5.4-6.7-9.5-13.9-12.5-21.6l13.3-13.3l17.1,17.1L190.6,291.9z M196.6,180.9c16.3-16.3,37.5-24.4,58.9-24.4
				c21.3,0,42.6,8.1,58.9,24.4c16.3,16.3,24.4,37.6,24.4,58.9c0,6.2-0.7,12.5-2.1,18.6l-13.1-13.1l-3.9-3.9l-3.9,3.9l-21.1,21.1
				l-36-29.1l-3.9-3.9l-3.9,3.9l-34.4,29.1l-21.9-15l-3.9-3.9l-3.9,3.9l-12.2,7l0,0c0,0,0,0,0,0v0c-1.4-6.1-2.1-12.3-2.1-18.6
				C172.3,218.5,180.4,197.2,196.6,180.9z"/>
		</g>
		<path d="M366.9,233.2l-11.6,5.7l6.9,0.3c0.4-0.5,0.8-1,1.1-1.4c0,0.5,0.1,1,0.1,1.5l7.1,0.3l6.4,13.8l0.8-12.9l0.8-12.9
			L366.9,233.2z"/>
		<path d="M362.1,239.2l1.2,0c0-0.5,0-1-0.1-1.5C362.9,238.3,362.5,238.7,362.1,239.2z"/>
		<circle class="st2" cx="217.8" cy="199.9" r="17.4"/>
		<path d="M266.6,201.9c-0.7,3.6-1.3,4.2-4.9,4.9c3.6,0.7,4.2,1.3,4.9,4.9c0.7-3.6,1.3-4.2,4.9-4.9
			C267.9,206.1,267.4,205.5,266.6,201.9z"/>
		<path d="M242.2,172.1c4.9,1,5.7,1.8,6.6,6.6c1-4.9,1.8-5.7,6.6-6.6c-4.7-0.9-5.6-1.7-6.5-6.2c-0.1,0-0.1,0-0.2,0
			C247.8,170.4,246.9,171.2,242.2,172.1z"/>
		<path d="M246.8,165.7c0.1,0,0.1,0,0.2,0c0-0.2-0.1-0.3-0.1-0.5C246.9,165.4,246.8,165.6,246.8,165.7z"/>
		<path d="M292.4,229.7c-1,4.9-1.8,5.7-6.6,6.6c4.9,1,5.7,1.8,6.6,6.6c1-4.9,1.8-5.7,6.6-6.6C294.2,235.4,293.4,234.6,292.4,229.7z"
			/>
		<path d="M319.7,224.4c0.7-3.6,1.3-4.2,4.9-4.9c-3.6-0.7-4.2-1.3-4.9-4.9c-0.7,3.6-1.3,4.2-4.9,4.9
			C318.4,220.2,319,220.8,319.7,224.4z"/>
		<path d="M187,215.8c-0.7,3.6-1.3,4.2-4.9,4.9c3.6,0.7,4.2,1.3,4.9,4.9c0.7-3.6,1.3-4.2,4.9-4.9C188.3,220,187.7,219.4,187,215.8z"
			/>
		<path d="M221.1,231c-0.7,3.6-1.3,4.2-4.9,4.9c3.6,0.7,4.2,1.3,4.9,4.9c0.7-3.6,1.3-4.2,4.9-4.9C222.4,235.2,221.8,234.6,221.1,231
			z"/>
		<path d="M296.4,181.7c-1.4,6.9-2.5,8-9.4,9.4c6.9,1.4,8,2.5,9.4,9.4c1.4-6.9,2.5-8,9.4-9.4C298.9,189.7,297.8,188.6,296.4,181.7z"
			/>
	</g>
	<g>
		<path class="st7" d="M224.6,101l-4.9,13.9h-3l-4.9-13.9v13.9h-6.7v-22h9.2l3.9,11.2l3.9-11.2h9.2v22h-6.7V101z"/>
		<path class="st7" d="M247.1,92.5c6.8,0,12,4.6,12,11.4c0,6.8-5.2,11.4-12,11.4c-6.8,0-12-4.6-12-11.4
			C235.1,97.2,240.4,92.5,247.1,92.5z M247.1,98.4c-3.2,0-5.3,2.4-5.3,5.5c0,3.1,2.1,5.5,5.3,5.5s5.3-2.4,5.3-5.5
			C252.4,100.8,250.3,98.4,247.1,98.4z"/>
		<path class="st7" d="M263,92.9h9.8c6.9,0,12.1,4,12.1,11s-5.1,11-12,11H263V92.9z M272.8,109.1c3.3,0,5.3-2.4,5.3-5.2
			c0-3-1.7-5.2-5.3-5.2h-3.2v10.4H272.8z"/>
		<path class="st7" d="M288.7,92.9h16.7v5.5h-10v2.6h9.8v5.5h-9.8v2.8h10v5.5h-16.7V92.9z"/>
	</g>
	<g>
		<path class="st7" d="M139.3,462.6V417h10.4c4,0,7.1,1,9.2,3.1c2.1,2.1,3.1,5,3.1,8.7v21.3c0,4.3-1.1,7.4-3.3,9.5
			c-2.2,2-5.4,3-9.6,3H139.3z M146.3,423.1v33.3h3.2c2,0,3.4-0.5,4.2-1.4c0.8-0.9,1.2-2.4,1.2-4.3v-22c0-1.8-0.4-3.2-1.2-4.2
			c-0.8-1-2.2-1.5-4.3-1.5H146.3z"/>
		<path class="st7" d="M170.1,462.6V417h7v45.6H170.1z"/>
		<path class="st7" d="M208,430.1h-7v-1.5c0-1.5-0.4-2.8-1.1-3.9c-0.8-1.1-2-1.6-3.8-1.6c-1,0-1.7,0.2-2.3,0.5
			c-0.6,0.3-1.1,0.8-1.4,1.3c-0.4,0.6-0.6,1.2-0.8,1.9s-0.2,1.4-0.2,2.2c0,0.9,0,1.6,0.1,2.2c0.1,0.6,0.2,1.1,0.5,1.6
			c0.3,0.5,0.7,0.9,1.2,1.2c0.5,0.3,1.2,0.7,2.2,1l5.4,2c1.6,0.6,2.8,1.2,3.8,2c1,0.7,1.7,1.6,2.3,2.6c0.5,1,0.8,2.2,1,3.5
			c0.2,1.3,0.3,2.8,0.3,4.5c0,1.9-0.2,3.7-0.6,5.4c-0.4,1.6-1.1,3-2,4.2c-1,1.2-2.2,2.1-3.8,2.8c-1.6,0.7-3.5,1-5.7,1
			c-1.7,0-3.3-0.3-4.7-0.8c-1.5-0.6-2.7-1.3-3.8-2.3c-1.1-1-1.9-2.1-2.5-3.4c-0.6-1.3-0.9-2.7-0.9-4.3v-2.4h7v2.1
			c0,1.2,0.4,2.3,1.1,3.2c0.8,1,2,1.4,3.8,1.4c1.2,0,2.1-0.2,2.8-0.5c0.7-0.3,1.2-0.8,1.5-1.4c0.4-0.6,0.6-1.3,0.7-2.1
			c0.1-0.8,0.1-1.8,0.1-2.8c0-1.2,0-2.2-0.1-2.9c-0.1-0.8-0.3-1.4-0.5-1.9c-0.3-0.5-0.7-0.9-1.3-1.2c-0.5-0.3-1.2-0.6-2.1-1l-5-1.9
			c-3-1.2-5-2.7-6.1-4.6c-1-1.9-1.5-4.3-1.5-7.1c0-1.7,0.3-3.3,0.8-4.9c0.5-1.5,1.3-2.9,2.3-4c1-1.1,2.2-2,3.7-2.7
			c1.5-0.7,3.3-1,5.3-1c1.7,0,3.3,0.3,4.8,0.9c1.4,0.6,2.7,1.4,3.7,2.4c2.1,2.1,3.2,4.4,3.2,7.1V430.1z"/>
		<path class="st7" d="M236.9,449.6v2.8c0,1.4-0.3,2.7-0.9,4c-0.6,1.3-1.4,2.4-2.4,3.4c-1,1-2.2,1.8-3.5,2.3
			c-1.3,0.6-2.8,0.9-4.4,0.9c-1.3,0-2.7-0.2-4-0.5c-1.4-0.3-2.6-0.9-3.7-1.8c-1.1-0.9-2-2-2.7-3.3c-0.7-1.3-1.1-3.1-1.1-5.2v-25.1
			c0-1.5,0.3-2.9,0.8-4.2c0.5-1.3,1.3-2.4,2.3-3.3c1-0.9,2.2-1.7,3.6-2.2c1.4-0.5,2.9-0.8,4.6-0.8c3.3,0,6,1,8,3
			c1,1,1.8,2.1,2.4,3.5c0.6,1.3,0.9,2.8,0.9,4.4v2.6h-7v-2.2c0-1.3-0.4-2.4-1.2-3.3c-0.8-0.9-1.8-1.4-3.2-1.4
			c-1.7,0-2.9,0.5-3.5,1.5c-0.6,1-0.9,2.3-0.9,3.8v23.3c0,1.3,0.3,2.4,0.9,3.3c0.6,0.9,1.7,1.3,3.3,1.3c0.5,0,0.9-0.1,1.5-0.2
			c0.5-0.1,1-0.4,1.5-0.7c0.4-0.3,0.8-0.8,1-1.4c0.3-0.6,0.4-1.3,0.4-2.2v-2.2H236.9z"/>
		<path class="st7" d="M243.6,427.7c0-1.8,0.3-3.5,1-4.9c0.7-1.4,1.6-2.6,2.7-3.5c1.1-0.9,2.3-1.6,3.7-2.1c1.4-0.5,2.8-0.7,4.2-0.7
			s2.8,0.2,4.2,0.7c1.4,0.5,2.7,1.2,3.8,2.1c1.1,0.9,2,2.1,2.7,3.5c0.7,1.4,1,3,1,4.9v24.1c0,1.9-0.3,3.6-1,4.9
			c-0.7,1.4-1.6,2.5-2.7,3.4c-1.1,0.9-2.4,1.6-3.8,2.1c-1.4,0.5-2.8,0.7-4.2,0.7s-2.8-0.2-4.2-0.7c-1.4-0.5-2.6-1.2-3.7-2.1
			c-1.1-0.9-2.1-2-2.7-3.4c-0.7-1.4-1-3-1-4.9V427.7z M250.6,451.8c0,1.6,0.5,2.7,1.4,3.5c0.9,0.7,2,1.1,3.3,1.1
			c1.3,0,2.4-0.4,3.3-1.1c0.9-0.7,1.4-1.9,1.4-3.5v-24.1c0-1.6-0.5-2.7-1.4-3.5c-0.9-0.7-2-1.1-3.3-1.1c-1.3,0-2.4,0.4-3.3,1.1
			c-0.9,0.7-1.4,1.9-1.4,3.5V451.8z"/>
		<path class="st7" d="M297.2,417l-10,45.6H281L271,417h7.4l5.6,31.9h0.1l5.6-31.9H297.2z"/>
		<path class="st7" d="M302.8,462.6V417h20.9v6.2h-13.9v13.4h12.1v6.2h-12.1v13.4h13.9v6.5H302.8z"/>
		<path class="st7" d="M329.6,462.6V417h11.2c8.2,0,12.3,4.5,12.3,13.4c0,2.7-0.4,5-1.3,6.9c-0.9,1.9-2.5,3.4-4.7,4.6l7.5,20.8h-7.4
			l-6.5-19.5h-4.2v19.5H329.6z M336.6,423.1v14.2h4c1.2,0,2.2-0.2,2.9-0.5c0.7-0.3,1.3-0.8,1.7-1.4c0.4-0.6,0.6-1.3,0.8-2.2
			c0.1-0.9,0.2-1.9,0.2-3c0-1.2-0.1-2.2-0.2-3c-0.1-0.9-0.4-1.6-0.8-2.3c-0.9-1.2-2.5-1.8-4.9-1.8H336.6z"/>
		<path class="st7" d="M365.5,462.6v-19.3l-9.6-26.3h7.4l5.6,18.1h0.1l5.6-18.1h7.4l-9.6,26.3v19.3H365.5z"/>
	</g>
	<g>
		<path d="M115.9,430.3c-1.4,6.9-2.5,8-9.4,9.4c6.9,1.4,8,2.5,9.4,9.4c1.4-6.9,2.5-8,9.4-9.4C118.4,438.3,117.2,437.2,115.9,430.3z"
			/>
		<path d="M398.4,430.3c-1.4,6.9-2.5,8-9.4,9.4c6.9,1.4,8,2.5,9.4,9.4c1.4-6.9,2.5-8,9.4-9.4C400.9,438.3,399.8,437.2,398.4,430.3z"
			/>
	</g>
	<g>
		<path class="st0" d="M480.8,259.6c0.6-1.4,1.1-2.9,1.6-4.4c0.1-0.3,0.2-0.6,0.3-0.9c0.4-1.5,0.8-3,1-4.5c0-0.3,0.1-0.5,0.1-0.8
			c0.3-1.6,0.4-3.2,0.5-4.8c0-0.1,0-0.3,0-0.4c0.2-3.5-0.1-7-0.7-10.4c0,0,0,0,0,0c-0.3-1.7-0.7-3.4-1.3-5.1c0-0.1,0-0.1-0.1-0.2
			c-0.5-1.7-1.1-3.3-1.8-4.9c0,0,0-0.1,0-0.1c0,0,0-0.1-0.1-0.1c-0.6-1.3-1.3-2.7-2-4c0-0.1-0.1-0.2-0.1-0.2l-9.2-15.8L387,62.3
			c-0.5-0.9-1-1.7-1.6-2.5c-0.1-0.2-0.3-0.4-0.4-0.5c-0.4-0.6-0.9-1.2-1.3-1.8c-0.2-0.2-0.4-0.5-0.6-0.7c-0.4-0.5-0.8-1-1.3-1.5
			c-0.2-0.3-0.5-0.5-0.7-0.7c-0.4-0.5-0.9-0.9-1.3-1.4c-0.3-0.3-0.5-0.5-0.8-0.7c-0.4-0.4-0.9-0.8-1.4-1.2c-0.3-0.2-0.6-0.5-0.8-0.7
			c-0.5-0.4-0.9-0.8-1.4-1.1c-0.3-0.2-0.6-0.4-0.9-0.7c-0.5-0.4-1-0.7-1.5-1c-0.3-0.2-0.6-0.4-0.9-0.6c-0.5-0.3-1-0.6-1.5-0.9
			c-0.3-0.2-0.7-0.4-1-0.6c-0.5-0.3-1-0.6-1.6-0.8c-0.3-0.2-0.7-0.3-1-0.5c-0.5-0.3-1.1-0.5-1.6-0.7c-0.3-0.1-0.7-0.3-1-0.4
			c-0.6-0.2-1.1-0.4-1.7-0.6c-0.3-0.1-0.7-0.3-1-0.4c-0.6-0.2-1.2-0.4-1.8-0.5c-0.3-0.1-0.7-0.2-1-0.3c-0.6-0.2-1.3-0.3-1.9-0.4
			c-0.3-0.1-0.6-0.2-1-0.2c-0.7-0.1-1.4-0.2-2.1-0.3c-0.3,0-0.5-0.1-0.8-0.1c-1-0.1-2-0.2-2.9-0.3c0,0,0,0,0,0c-0.1,0-0.2,0-0.2,0
			c-0.9-0.1-1.9-0.1-2.8-0.1h0h0H164.4h0h0c-16.4,0-31.6,8.7-39.9,22.8L33.2,218.9c-1.4,2.3-2.5,4.8-3.4,7.3
			c-0.1,0.2-0.2,0.5-0.3,0.7c-0.2,0.6-0.4,1.2-0.6,1.8c-0.1,0.3-0.2,0.6-0.3,0.9c-0.2,0.6-0.3,1.2-0.4,1.8c-0.1,0.3-0.2,0.7-0.2,1
			c-0.1,0.6-0.2,1.2-0.3,1.8c-0.1,0.3-0.1,0.7-0.2,1c-0.1,0.6-0.2,1.2-0.2,1.8c0,0.4-0.1,0.7-0.1,1.1c0,0.6-0.1,1.2-0.1,1.8
			c0,0.4,0,0.7,0,1.1c0,0.6,0,1.2,0,1.8c0,0.4,0,0.7,0,1.1c0,0.6,0.1,1.2,0.1,1.8c0,0.4,0.1,0.7,0.1,1.1c0.1,0.6,0.1,1.2,0.2,1.8
			c0.1,0.4,0.1,0.7,0.2,1.1c0.1,0.6,0.2,1.2,0.3,1.8c0.1,0.4,0.2,0.7,0.2,1c0.1,0.6,0.3,1.2,0.4,1.7c0.1,0.3,0.2,0.7,0.3,1
			c0.2,0.6,0.4,1.2,0.6,1.7c0.1,0.3,0.2,0.6,0.4,0.9c0.2,0.6,0.4,1.2,0.7,1.8c0.1,0.3,0.3,0.5,0.4,0.8c0.3,0.6,0.5,1.2,0.8,1.8
			c0,0.1,0.1,0.1,0.1,0.2c0.4,0.8,0.8,1.5,1.2,2.3l16.9,29.1l64.8,111.1h-7.6h0c-8.1,0-14.7,6.6-14.7,14.7V457
			c0,8.1,6.6,14.7,14.7,14.7h0h296.9h0c8.1,0,14.7-6.6,14.7-14.7v-37.4c0-8.1-6.6-14.7-14.7-14.7h0h-7.6l81.8-140.2
			c0-0.1,0.1-0.1,0.1-0.2c0.8-1.4,1.5-2.8,2.1-4.2C480.6,260,480.7,259.8,480.8,259.6z"/>
		<path class="st1" d="M347.1,39.5c0.9,0,1.9,0,2.8,0.1c0.1,0,0.2,0,0.2,0c0,0,0,0,0,0c1,0.1,2,0.2,2.9,0.3c0.3,0,0.5,0.1,0.8,0.1
			c0.7,0.1,1.4,0.2,2.1,0.3c0.3,0.1,0.6,0.1,1,0.2c0.6,0.1,1.3,0.3,1.9,0.4c0.3,0.1,0.7,0.2,1,0.3c0.6,0.2,1.2,0.3,1.8,0.5
			c0.4,0.1,0.7,0.2,1,0.4c0.6,0.2,1.1,0.4,1.7,0.6c0.3,0.1,0.7,0.3,1,0.4c0.5,0.2,1.1,0.5,1.6,0.7c0.3,0.2,0.7,0.3,1,0.5
			c0.5,0.3,1,0.5,1.6,0.8c0.3,0.2,0.7,0.4,1,0.6c0.5,0.3,1,0.6,1.5,0.9c0.3,0.2,0.6,0.4,0.9,0.6c0.5,0.3,1,0.7,1.5,1
			c0.3,0.2,0.6,0.4,0.9,0.7c0.5,0.4,0.9,0.7,1.4,1.1c0.3,0.2,0.6,0.5,0.8,0.7c0.5,0.4,0.9,0.8,1.4,1.2c0.3,0.2,0.5,0.5,0.8,0.7
			c0.4,0.4,0.9,0.9,1.3,1.4c0.2,0.2,0.5,0.5,0.7,0.7c0.4,0.5,0.9,1,1.3,1.5c0.2,0.2,0.4,0.5,0.6,0.7c0.5,0.6,0.9,1.2,1.3,1.8
			c0.1,0.2,0.3,0.4,0.4,0.5c0.6,0.8,1.1,1.7,1.6,2.5L469,203.1l9.2,15.8c0,0.1,0.1,0.2,0.1,0.2c0.7,1.3,1.4,2.6,2,4
			c0,0,0,0.1,0.1,0.1c0,0,0,0.1,0,0.1c0.7,1.6,1.3,3.2,1.8,4.9c0,0.1,0,0.1,0.1,0.2c0.5,1.7,0.9,3.4,1.3,5.1c0,0,0,0,0,0
			c0.6,3.4,0.9,6.9,0.7,10.4c0,0.1,0,0.3,0,0.4c-0.1,1.6-0.3,3.2-0.5,4.8c0,0.3-0.1,0.5-0.1,0.8c-0.3,1.5-0.6,3-1,4.5
			c-0.1,0.3-0.2,0.6-0.3,0.9c-0.5,1.5-1,2.9-1.6,4.4c-0.1,0.2-0.2,0.5-0.3,0.7c-0.6,1.4-1.3,2.9-2.1,4.2c0,0.1-0.1,0.1-0.1,0.2
			l-81.8,140.2h7.6h0c8.1,0,14.7,6.6,14.7,14.7V457c0,8.1-6.6,14.7-14.7,14.7h0H107.3h0c-8.1,0-14.7-6.6-14.7-14.7v-37.4
			c0-8.1,6.6-14.7,14.7-14.7h0h7.6L50.1,293.8l-16.9-29.1c-0.4-0.8-0.8-1.5-1.2-2.3c0-0.1-0.1-0.1-0.1-0.2c-0.3-0.6-0.6-1.2-0.8-1.8
			c-0.1-0.3-0.3-0.5-0.4-0.8c-0.2-0.6-0.5-1.2-0.7-1.8c-0.1-0.3-0.2-0.6-0.4-0.9c-0.2-0.6-0.4-1.2-0.6-1.7c-0.1-0.3-0.2-0.7-0.3-1
			c-0.2-0.6-0.3-1.2-0.4-1.7c-0.1-0.3-0.2-0.7-0.2-1c-0.1-0.6-0.2-1.2-0.3-1.8c-0.1-0.4-0.1-0.7-0.2-1.1c-0.1-0.6-0.2-1.2-0.2-1.8
			c0-0.4-0.1-0.7-0.1-1.1c0-0.6-0.1-1.2-0.1-1.8c0-0.4,0-0.7,0-1.1c0-0.6,0-1.2,0-1.8c0-0.4,0-0.7,0-1.1c0-0.6,0.1-1.2,0.1-1.8
			c0-0.4,0.1-0.7,0.1-1.1c0.1-0.6,0.1-1.2,0.2-1.8c0.1-0.3,0.1-0.7,0.2-1c0.1-0.6,0.2-1.2,0.3-1.8c0.1-0.3,0.2-0.7,0.2-1
			c0.1-0.6,0.3-1.2,0.4-1.8c0.1-0.3,0.2-0.6,0.3-1c0.2-0.6,0.4-1.2,0.6-1.8c0.1-0.2,0.2-0.5,0.3-0.7c0.9-2.5,2-5,3.4-7.3l91.3-156.5
			c8.2-14.1,23.5-22.8,39.9-22.8h0h0H347.1L347.1,39.5L347.1,39.5 M347.1,28.2L347.1,28.2H164.4c-20.4,0-39.4,10.9-49.6,28.4
			L23.4,213.2c-1.6,2.8-3.1,5.9-4.3,9.1l0,0.1c-0.1,0.3-0.2,0.5-0.3,0.8c-0.2,0.7-0.5,1.4-0.7,2.1l0,0.1l-0.1,0.2
			c-0.1,0.3-0.2,0.6-0.3,1c-0.2,0.7-0.4,1.4-0.5,2.2l-0.1,0.3c-0.1,0.3-0.2,0.7-0.2,1c-0.2,0.7-0.3,1.5-0.4,2.2l0,0.2
			c-0.1,0.4-0.1,0.7-0.2,1.1c-0.1,0.7-0.2,1.5-0.3,2.2c-0.1,0.5-0.1,0.9-0.1,1.3c-0.1,0.7-0.1,1.5-0.1,2.2c0,0.4,0,0.9,0,1.3
			c0,0.7,0,1.5,0,2.2c0,0.4,0,0.9,0,1.3c0,0.7,0.1,1.5,0.1,2.2c0,0.4,0.1,0.9,0.1,1.3c0.1,0.7,0.2,1.5,0.3,2.2
			c0.1,0.4,0.1,0.8,0.2,1.3c0.1,0.8,0.3,1.5,0.4,2.3c0.1,0.4,0.2,0.7,0.2,1.1l0.1,0.2c0.2,0.7,0.4,1.5,0.6,2.2
			c0.1,0.3,0.2,0.7,0.3,1l0.1,0.3c0.2,0.8,0.5,1.5,0.7,2.2c0.1,0.3,0.2,0.6,0.4,1l0.1,0.2l0.1,0.2c0.3,0.7,0.5,1.4,0.8,2
			c0.1,0.3,0.3,0.6,0.4,0.9l0.1,0.2l0.1,0.2c0.3,0.7,0.6,1.4,1,2.1c0.1,0.1,0.1,0.3,0.2,0.4c0.4,0.8,0.9,1.7,1.5,2.7l16.9,29.1
			l56.2,96.4c-9,4.1-15.3,13.2-15.3,23.7V457c0,14.4,11.7,26,26,26h296.9c14.4,0,26-11.7,26-26v-37.4c0-10.6-6.3-19.7-15.4-23.7
			L488,270.4c0.1-0.1,0.2-0.3,0.3-0.5c0.9-1.6,1.7-3.2,2.5-5l0.1-0.1c0.1-0.3,0.2-0.5,0.4-0.8c0.7-1.7,1.4-3.5,2-5.5l0.1-0.2
			c0.1-0.3,0.2-0.6,0.3-0.9c0.5-1.8,1-3.7,1.3-5.6c0-0.3,0.1-0.5,0.1-0.8l0-0.1c0.3-2,0.5-4,0.7-5.9c0-0.2,0-0.4,0-0.6
			c0.2-4.2-0.1-8.6-0.9-12.8c0,0,0-0.1,0-0.1l0,0c-0.4-2.1-0.9-4.2-1.6-6.4l-0.1-0.3c-0.6-2-1.4-4-2.2-5.9c0-0.1-0.1-0.2-0.1-0.3
			c-0.1-0.1-0.1-0.3-0.2-0.4c-0.7-1.6-1.5-3.1-2.2-4.4c-0.1-0.2-0.2-0.4-0.3-0.6l-9.2-15.8L396.7,56.6c-0.6-1-1.3-2.1-2-3.1
			c-0.2-0.2-0.3-0.5-0.5-0.7c-0.6-0.8-1.1-1.6-1.7-2.3c-0.2-0.3-0.4-0.5-0.6-0.7l-0.1-0.2c-0.5-0.6-1.1-1.3-1.6-1.9
			c-0.2-0.3-0.5-0.5-0.7-0.7l-0.2-0.2c-0.5-0.6-1.1-1.2-1.6-1.7c-0.3-0.3-0.5-0.5-0.8-0.8l-0.2-0.2c-0.6-0.5-1.1-1-1.7-1.6
			c-0.3-0.3-0.6-0.5-0.9-0.8l-0.1-0.1c-0.6-0.5-1.2-1-1.8-1.4c-0.4-0.3-0.7-0.6-1.1-0.8c-0.6-0.4-1.2-0.9-1.8-1.3
			c-0.4-0.3-0.8-0.5-1.2-0.8c-0.6-0.4-1.2-0.8-1.9-1.2c-0.4-0.2-0.8-0.5-1.2-0.7c-0.6-0.4-1.3-0.7-1.9-1c-0.4-0.2-0.8-0.4-1.3-0.6
			c-0.7-0.3-1.3-0.6-2-0.9l-0.2-0.1c-0.4-0.2-0.7-0.3-1.1-0.5c-0.7-0.3-1.4-0.5-2.1-0.8l-0.2-0.1c-0.4-0.1-0.7-0.3-1.1-0.4
			c-0.7-0.2-1.5-0.5-2.2-0.7l-0.3-0.1c-0.3-0.1-0.7-0.2-1-0.3c-0.8-0.2-1.6-0.4-2.3-0.6l-0.2-0.1c-0.3-0.1-0.7-0.1-1-0.2
			c-0.9-0.2-1.7-0.3-2.6-0.4l-0.1,0c-0.3-0.1-0.6-0.1-0.9-0.1c-1.2-0.2-2.5-0.3-3.7-0.4c0,0-0.1,0-0.1,0c-0.1,0-0.2,0-0.3,0
			C349.3,28.3,348.2,28.2,347.1,28.2L347.1,28.2z"/>
	</g>
	<path class="st2" d="M164.3,444.5c-16.4,0-31.7-8.7-39.9-22.8L33.2,265.1c-8.2-14.1-8.2-31.7,0-45.8l91.3-156.5
		c8.2-14.1,23.5-22.8,39.9-22.8h182.7c16.4,0,31.7,8.7,39.9,22.8l91.3,156.5c8.2,14.1,8.2,31.7,0,45.8l-91.3,156.5
		c-8.2,14.1-23.5,22.8-39.9,22.8H164.3z"/>
	<path class="st2" d="M478.3,265.1l-91.3,156.6c-8.2,14.1-23.5,22.8-39.8,22.8H164.3c-16.4,0-31.6-8.8-39.9-22.8L33.2,265.1
		c-8.2-14.1-8.2-31.7,0-45.8l91.3-156.5c8.2-14.1,23.5-22.8,39.9-22.8h182.7c16.4,0,31.6,8.7,39.8,22.8l91.3,156.5
		C486.5,233.4,486.5,251,478.3,265.1"/>
	<path class="st3" d="M368.9,72.6c-4.6-8-13.2-13-22.5-13H165c-9.3,0-17.9,4.9-22.5,13L51.8,229.2c-4.7,8.1-4.7,18,0,26.1
		l90.7,156.5c4.6,8,13.2,13,22.5,13h181.4c9.3,0,17.9-4.9,22.5-13l90.6-156.5c4.7-8.1,4.7-18,0-26.1L368.9,72.6z"/>
	<path class="st4" d="M442.5,239.1L351.9,82.5c-1.1-1.9-3.2-3.1-5.4-3.1H165c-2.2,0-4.3,1.2-5.4,3.1L68.9,239.1
		c-1.1,1.9-1.1,4.4,0,6.3l90.7,156.5c1.1,1.9,3.2,3.1,5.4,3.1h181.4c2.2,0,4.3-1.2,5.4-3.1l90.7-156.5
		C443.7,243.4,443.7,241,442.5,239.1 M344.4,395.2H167.1l-88.6-153l88.6-153h177.3l88.6,153L344.4,395.2z"/>
	<path class="st4" d="M328.6,84.8l-12.3,30.1c-2.5,6.1-8.4,10.1-15,10.1H210c-6.6,0-12.5-4-15-10.1l-12.1-29.7
		c0.9-0.9,2.1-1.4,3.4-1.4h139.4C326.7,83.8,327.8,84.1,328.6,84.8"/>
	<g>
		<path class="st4" d="M128.5,426.2c8.6,11.4,22.3,18.2,36.8,18.2h182.7c13.5,0,26.2-5.9,34.9-15.9c-25.1-44.7-73-74.9-127.9-74.9
			C201.1,353.7,154,382.9,128.5,426.2"/>
		<path class="st2" d="M404.1,405.3h-68.6c-18.2,0-34.9-10.3-42.9-26.7l-17.8-36.1h-38.2l-17.8,36.1c-8.1,16.3-24.7,26.7-42.9,26.7
			h-68.6c-8.1,0-14.7,6.6-14.7,14.7v37.4c0,8.1,6.6,14.7,14.7,14.7h296.9c8.1,0,14.7-6.6,14.7-14.7V420
			C418.9,411.9,412.3,405.3,404.1,405.3"/>
	</g>
	<g>
		<polygon class="st5" points="174.3,258.4 174.3,258.3 174.3,258.4 		"/>
		<path class="st2" d="M191.3,257L178,270.3c3,7.6,7.2,14.9,12.5,21.6l17.8-17.8L191.3,257z"/>
		<path class="st2" d="M198.2,300.2l42.2-23.3l-2.6,19.9l17.7-37.5l1.9,27.8l9.7-18.4l32.9,22.6c0.9-0.5,1.7-0.9,2.6-1.4l-47.1-47.1
			L198.2,300.2z"/>
		<path class="st2" d="M319.6,257l-17.1,17.1l10,10c6.9-4.3,13.5-9.1,19.9-14.2L319.6,257z"/>
		<polygon class="st2" points="174.3,258.4 174.3,258.4 174.3,258.4 		"/>
		<g>
			<path class="st6" d="M314.3,180.9c-16.3-16.3-37.6-24.4-58.9-24.4c-21.3,0-42.6,8.1-58.9,24.4c-16.2,16.3-24.4,37.6-24.4,58.9
				c0,6.2,0.7,12.5,2.1,18.6h0l0,0l13.1-13.1l3.9-3.9l3.9,3.9l21.1,21.1l35.2-35.2l3.9-3.9l3.9,3.9l35.2,35.2l21.1-21.1l3.9-3.9
				l3.9,3.9l13.1,13.1c1.4-6.1,2.1-12.3,2.1-18.6C338.7,218.5,330.6,197.2,314.3,180.9z M246.8,165.7c0-0.2,0.1-0.3,0.1-0.5
				c0,0.2,0.1,0.3,0.1,0.5L246.8,165.7z"/>
		</g>
		<polygon points="191.3,241.4 187.4,245.3 174.3,258.3 186.6,251.4 190.5,247.4 194.4,251.4 216.4,266.4 195.2,245.3 		"/>
		<polygon points="255.5,227.3 251.6,231.2 216.4,266.4 250.7,237.3 254.7,233.3 258.6,237.3 294.6,266.4 259.4,231.2 		"/>
		<polygon points="174.3,258.4 174.3,258.4 174.3,258.4 		"/>
		<g>
			<path d="M361.9,251.3c-5,5.8-10.5,11.3-16.3,16.6c-3.7,3.3-7.4,6.5-11.3,9.5c-2.6,2-5.2,4-7.8,5.9c-2.6,1.8-5.1,3.6-7.8,5.3
				c-0.3,0.2-0.6,0.4-0.9,0.6c-3.2,2.1-6.5,4.1-9.9,6.1c-0.4,0.2-0.8,0.5-1.2,0.7c-21.6,12.5-44.4,21.4-65.2,26.2
				c-12.1,2.8-23.4,4.1-33.1,3.8c-2.7-0.1-5.3-0.2-7.7-0.5c-9.8-1.2-17.1-4.3-20.6-9.4c-1.9-2.7-2.8-6.3-2.5-10.8c0.1-1,0.1-2,0.3-3
				c-0.6,0.2-1.1,0.3-1.7,0.5c-7.4,2.5-11.3,7.2-11.9,12.7c-1.2,11,10.8,24.8,34.2,28.2c7.5,1.1,16,1,26.7-0.9l26.4,26.4l3.9,3.9
				l3.9-3.9l61.4-61.3c0,0,4-4.3,5-5.4l2.3-2.7c0.8-0.9,3.5-3.8,5.3-5.9c3.4-3,6.8-6.2,10.3-9.8c12.7-12.9,22.7-31,23.8-39.9
				C365.8,246.7,363.8,249,361.9,251.3z"/>
			<path d="M165.3,267.4l0.4,1.2c3.6,11.2,9.3,21.8,17.2,31.3l-0.1,0.1l2.4,2.6c0.9,1,1.8,2,2.8,3l2.2,2.4l0.1-0.1l7.1,7.1
				c11.3,1.9,25.4,1.3,40.9-1.6c19.2-3.6,40-10.6,59.8-21c0.6-0.3,1.2-0.7,1.9-1l-32.9-22.6l-9.7,18.4l-1.9-27.8l-17.7,37.5
				l2.6-19.9l-42.2,23.3l57.3-57.3l47.1,47.1c3.4-1.9,6.7-3.8,10-5.9l-10-10l17.1-17.1l12.8,12.8c1.5-1.2,3.1-2.5,4.6-3.7
				c4-3.4,7.8-7.1,11.5-10.9c0.8-5.1,1.3-10.3,1.3-15.4c0-24.1-9.2-48.3-27.6-66.7c-18.4-18.4-42.5-27.6-66.7-27.6
				c-24.1,0-48.3,9.2-66.7,27.6c-18.4,18.4-27.6,42.5-27.6,66.7C161.2,249.1,162.6,258.4,165.3,267.4L165.3,267.4z M190.6,291.9
				c-5.4-6.7-9.5-13.9-12.5-21.6l13.3-13.3l17.1,17.1L190.6,291.9z M196.6,180.9c16.3-16.3,37.5-24.4,58.9-24.4
				c21.3,0,42.6,8.1,58.9,24.4c16.3,16.3,24.4,37.6,24.4,58.9c0,6.2-0.7,12.5-2.1,18.6l-13.1-13.1l-3.9-3.9l-3.9,3.9l-21.1,21.1
				l-36-29.1l-3.9-3.9l-3.9,3.9l-34.4,29.1l-21.9-15l-3.9-3.9l-3.9,3.9l-12.2,7l0,0c0,0,0,0,0,0v0c-1.4-6.1-2.1-12.3-2.1-18.6
				C172.3,218.5,180.4,197.2,196.6,180.9z"/>
		</g>
		<path d="M366.9,233.2l-11.6,5.7l6.9,0.3c0.4-0.5,0.8-1,1.1-1.4c0,0.5,0.1,1,0.1,1.5l7.1,0.3l6.4,13.8l0.8-12.9l0.8-12.9
			L366.9,233.2z"/>
		<path d="M362.1,239.2l1.2,0c0-0.5,0-1-0.1-1.5C362.9,238.3,362.5,238.7,362.1,239.2z"/>
		<circle class="st2" cx="217.8" cy="199.9" r="17.4"/>
		<path d="M266.6,201.9c-0.7,3.6-1.3,4.2-4.9,4.9c3.6,0.7,4.2,1.3,4.9,4.9c0.7-3.6,1.3-4.2,4.9-4.9
			C267.9,206.1,267.4,205.5,266.6,201.9z"/>
		<path d="M242.2,172.1c4.9,1,5.7,1.8,6.6,6.6c1-4.9,1.8-5.7,6.6-6.6c-4.7-0.9-5.6-1.7-6.5-6.2c-0.1,0-0.1,0-0.2,0
			C247.8,170.4,246.9,171.2,242.2,172.1z"/>
		<path d="M246.8,165.7c0.1,0,0.1,0,0.2,0c0-0.2-0.1-0.3-0.1-0.5C246.9,165.4,246.8,165.6,246.8,165.7z"/>
		<path d="M292.4,229.7c-1,4.9-1.8,5.7-6.6,6.6c4.9,1,5.7,1.8,6.6,6.6c1-4.9,1.8-5.7,6.6-6.6C294.2,235.4,293.4,234.6,292.4,229.7z"
			/>
		<path d="M319.7,224.4c0.7-3.6,1.3-4.2,4.9-4.9c-3.6-0.7-4.2-1.3-4.9-4.9c-0.7,3.6-1.3,4.2-4.9,4.9
			C318.4,220.2,319,220.8,319.7,224.4z"/>
		<path d="M187,215.8c-0.7,3.6-1.3,4.2-4.9,4.9c3.6,0.7,4.2,1.3,4.9,4.9c0.7-3.6,1.3-4.2,4.9-4.9C188.3,220,187.7,219.4,187,215.8z"
			/>
		<path d="M221.1,231c-0.7,3.6-1.3,4.2-4.9,4.9c3.6,0.7,4.2,1.3,4.9,4.9c0.7-3.6,1.3-4.2,4.9-4.9C222.4,235.2,221.8,234.6,221.1,231
			z"/>
		<path d="M296.4,181.7c-1.4,6.9-2.5,8-9.4,9.4c6.9,1.4,8,2.5,9.4,9.4c1.4-6.9,2.5-8,9.4-9.4C298.9,189.7,297.8,188.6,296.4,181.7z"
			/>
	</g>
	<g>
		<path class="st7" d="M224.6,101l-4.9,13.9h-3l-4.9-13.9v13.9h-6.7v-22h9.2l3.9,11.2l3.9-11.2h9.2v22h-6.7V101z"/>
		<path class="st7" d="M247.1,92.5c6.8,0,12,4.6,12,11.4c0,6.8-5.2,11.4-12,11.4c-6.8,0-12-4.6-12-11.4
			C235.1,97.2,240.4,92.5,247.1,92.5z M247.1,98.4c-3.2,0-5.3,2.4-5.3,5.5c0,3.1,2.1,5.5,5.3,5.5s5.3-2.4,5.3-5.5
			C252.4,100.8,250.3,98.4,247.1,98.4z"/>
		<path class="st7" d="M263,92.9h9.8c6.9,0,12.1,4,12.1,11s-5.1,11-12,11H263V92.9z M272.8,109.1c3.3,0,5.3-2.4,5.3-5.2
			c0-3-1.7-5.2-5.3-5.2h-3.2v10.4H272.8z"/>
		<path class="st7" d="M288.7,92.9h16.7v5.5h-10v2.6h9.8v5.5h-9.8v2.8h10v5.5h-16.7V92.9z"/>
	</g>
	<g>
		<path class="st7" d="M139.3,462.6V417h10.4c4,0,7.1,1,9.2,3.1c2.1,2.1,3.1,5,3.1,8.7v21.3c0,4.3-1.1,7.4-3.3,9.5
			c-2.2,2-5.4,3-9.6,3H139.3z M146.3,423.1v33.3h3.2c2,0,3.4-0.5,4.2-1.4c0.8-0.9,1.2-2.4,1.2-4.3v-22c0-1.8-0.4-3.2-1.2-4.2
			c-0.8-1-2.2-1.5-4.3-1.5H146.3z"/>
		<path class="st7" d="M170.1,462.6V417h7v45.6H170.1z"/>
		<path class="st7" d="M208,430.1h-7v-1.5c0-1.5-0.4-2.8-1.1-3.9c-0.8-1.1-2-1.6-3.8-1.6c-1,0-1.7,0.2-2.3,0.5
			c-0.6,0.3-1.1,0.8-1.4,1.3c-0.4,0.6-0.6,1.2-0.8,1.9s-0.2,1.4-0.2,2.2c0,0.9,0,1.6,0.1,2.2c0.1,0.6,0.2,1.1,0.5,1.6
			c0.3,0.5,0.7,0.9,1.2,1.2c0.5,0.3,1.2,0.7,2.2,1l5.4,2c1.6,0.6,2.8,1.2,3.8,2c1,0.7,1.7,1.6,2.3,2.6c0.5,1,0.8,2.2,1,3.5
			c0.2,1.3,0.3,2.8,0.3,4.5c0,1.9-0.2,3.7-0.6,5.4c-0.4,1.6-1.1,3-2,4.2c-1,1.2-2.2,2.1-3.8,2.8c-1.6,0.7-3.5,1-5.7,1
			c-1.7,0-3.3-0.3-4.7-0.8c-1.5-0.6-2.7-1.3-3.8-2.3c-1.1-1-1.9-2.1-2.5-3.4c-0.6-1.3-0.9-2.7-0.9-4.3v-2.4h7v2.1
			c0,1.2,0.4,2.3,1.1,3.2c0.8,1,2,1.4,3.8,1.4c1.2,0,2.1-0.2,2.8-0.5c0.7-0.3,1.2-0.8,1.5-1.4c0.4-0.6,0.6-1.3,0.7-2.1
			c0.1-0.8,0.1-1.8,0.1-2.8c0-1.2,0-2.2-0.1-2.9c-0.1-0.8-0.3-1.4-0.5-1.9c-0.3-0.5-0.7-0.9-1.3-1.2c-0.5-0.3-1.2-0.6-2.1-1l-5-1.9
			c-3-1.2-5-2.7-6.1-4.6c-1-1.9-1.5-4.3-1.5-7.1c0-1.7,0.3-3.3,0.8-4.9c0.5-1.5,1.3-2.9,2.3-4c1-1.1,2.2-2,3.7-2.7
			c1.5-0.7,3.3-1,5.3-1c1.7,0,3.3,0.3,4.8,0.9c1.4,0.6,2.7,1.4,3.7,2.4c2.1,2.1,3.2,4.4,3.2,7.1V430.1z"/>
		<path class="st7" d="M236.9,449.6v2.8c0,1.4-0.3,2.7-0.9,4c-0.6,1.3-1.4,2.4-2.4,3.4c-1,1-2.2,1.8-3.5,2.3
			c-1.3,0.6-2.8,0.9-4.4,0.9c-1.3,0-2.7-0.2-4-0.5c-1.4-0.3-2.6-0.9-3.7-1.8c-1.1-0.9-2-2-2.7-3.3c-0.7-1.3-1.1-3.1-1.1-5.2v-25.1
			c0-1.5,0.3-2.9,0.8-4.2c0.5-1.3,1.3-2.4,2.3-3.3c1-0.9,2.2-1.7,3.6-2.2c1.4-0.5,2.9-0.8,4.6-0.8c3.3,0,6,1,8,3
			c1,1,1.8,2.1,2.4,3.5c0.6,1.3,0.9,2.8,0.9,4.4v2.6h-7v-2.2c0-1.3-0.4-2.4-1.2-3.3c-0.8-0.9-1.8-1.4-3.2-1.4
			c-1.7,0-2.9,0.5-3.5,1.5c-0.6,1-0.9,2.3-0.9,3.8v23.3c0,1.3,0.3,2.4,0.9,3.3c0.6,0.9,1.7,1.3,3.3,1.3c0.5,0,0.9-0.1,1.5-0.2
			c0.5-0.1,1-0.4,1.5-0.7c0.4-0.3,0.8-0.8,1-1.4c0.3-0.6,0.4-1.3,0.4-2.2v-2.2H236.9z"/>
		<path class="st7" d="M243.6,427.7c0-1.8,0.3-3.5,1-4.9c0.7-1.4,1.6-2.6,2.7-3.5c1.1-0.9,2.3-1.6,3.7-2.1c1.4-0.5,2.8-0.7,4.2-0.7
			s2.8,0.2,4.2,0.7c1.4,0.5,2.7,1.2,3.8,2.1c1.1,0.9,2,2.1,2.7,3.5c0.7,1.4,1,3,1,4.9v24.1c0,1.9-0.3,3.6-1,4.9
			c-0.7,1.4-1.6,2.5-2.7,3.4c-1.1,0.9-2.4,1.6-3.8,2.1c-1.4,0.5-2.8,0.7-4.2,0.7s-2.8-0.2-4.2-0.7c-1.4-0.5-2.6-1.2-3.7-2.1
			c-1.1-0.9-2.1-2-2.7-3.4c-0.7-1.4-1-3-1-4.9V427.7z M250.6,451.8c0,1.6,0.5,2.7,1.4,3.5c0.9,0.7,2,1.1,3.3,1.1
			c1.3,0,2.4-0.4,3.3-1.1c0.9-0.7,1.4-1.9,1.4-3.5v-24.1c0-1.6-0.5-2.7-1.4-3.5c-0.9-0.7-2-1.1-3.3-1.1c-1.3,0-2.4,0.4-3.3,1.1
			c-0.9,0.7-1.4,1.9-1.4,3.5V451.8z"/>
		<path class="st7" d="M297.2,417l-10,45.6H281L271,417h7.4l5.6,31.9h0.1l5.6-31.9H297.2z"/>
		<path class="st7" d="M302.8,462.6V417h20.9v6.2h-13.9v13.4h12.1v6.2h-12.1v13.4h13.9v6.5H302.8z"/>
		<path class="st7" d="M329.6,462.6V417h11.2c8.2,0,12.3,4.5,12.3,13.4c0,2.7-0.4,5-1.3,6.9c-0.9,1.9-2.5,3.4-4.7,4.6l7.5,20.8h-7.4
			l-6.5-19.5h-4.2v19.5H329.6z M336.6,423.1v14.2h4c1.2,0,2.2-0.2,2.9-0.5c0.7-0.3,1.3-0.8,1.7-1.4c0.4-0.6,0.6-1.3,0.8-2.2
			c0.1-0.9,0.2-1.9,0.2-3c0-1.2-0.1-2.2-0.2-3c-0.1-0.9-0.4-1.6-0.8-2.3c-0.9-1.2-2.5-1.8-4.9-1.8H336.6z"/>
		<path class="st7" d="M365.5,462.6v-19.3l-9.6-26.3h7.4l5.6,18.1h0.1l5.6-18.1h7.4l-9.6,26.3v19.3H365.5z"/>
	</g>
	<g>
		<path d="M115.9,430.3c-1.4,6.9-2.5,8-9.4,9.4c6.9,1.4,8,2.5,9.4,9.4c1.4-6.9,2.5-8,9.4-9.4C118.4,438.3,117.2,437.2,115.9,430.3z"
			/>
		<path d="M398.4,430.3c-1.4,6.9-2.5,8-9.4,9.4c6.9,1.4,8,2.5,9.4,9.4c1.4-6.9,2.5-8,9.4-9.4C400.9,438.3,399.8,437.2,398.4,430.3z"
			/>
	</g>
	<g>
		<path class="st0" d="M480.8,259.6c0.6-1.4,1.1-2.9,1.6-4.4c0.1-0.3,0.2-0.6,0.3-0.9c0.4-1.5,0.8-3,1-4.5c0-0.3,0.1-0.5,0.1-0.8
			c0.3-1.6,0.4-3.2,0.5-4.8c0-0.1,0-0.3,0-0.4c0.2-3.5-0.1-7-0.7-10.4c0,0,0,0,0,0c-0.3-1.7-0.7-3.4-1.3-5.1c0-0.1,0-0.1-0.1-0.2
			c-0.5-1.7-1.1-3.3-1.8-4.9c0,0,0-0.1,0-0.1c0,0,0-0.1-0.1-0.1c-0.6-1.3-1.3-2.7-2-4c0-0.1-0.1-0.2-0.1-0.2l-9.2-15.8L387,62.3
			c-0.5-0.9-1-1.7-1.6-2.5c-0.1-0.2-0.3-0.4-0.4-0.5c-0.4-0.6-0.9-1.2-1.3-1.8c-0.2-0.2-0.4-0.5-0.6-0.7c-0.4-0.5-0.8-1-1.3-1.5
			c-0.2-0.3-0.5-0.5-0.7-0.7c-0.4-0.5-0.9-0.9-1.3-1.4c-0.3-0.3-0.5-0.5-0.8-0.7c-0.4-0.4-0.9-0.8-1.4-1.2c-0.3-0.2-0.6-0.5-0.8-0.7
			c-0.5-0.4-0.9-0.8-1.4-1.1c-0.3-0.2-0.6-0.4-0.9-0.7c-0.5-0.4-1-0.7-1.5-1c-0.3-0.2-0.6-0.4-0.9-0.6c-0.5-0.3-1-0.6-1.5-0.9
			c-0.3-0.2-0.7-0.4-1-0.6c-0.5-0.3-1-0.6-1.6-0.8c-0.3-0.2-0.7-0.3-1-0.5c-0.5-0.3-1.1-0.5-1.6-0.7c-0.3-0.1-0.7-0.3-1-0.4
			c-0.6-0.2-1.1-0.4-1.7-0.6c-0.3-0.1-0.7-0.3-1-0.4c-0.6-0.2-1.2-0.4-1.8-0.5c-0.3-0.1-0.7-0.2-1-0.3c-0.6-0.2-1.3-0.3-1.9-0.4
			c-0.3-0.1-0.6-0.2-1-0.2c-0.7-0.1-1.4-0.2-2.1-0.3c-0.3,0-0.5-0.1-0.8-0.1c-1-0.1-2-0.2-2.9-0.3c0,0,0,0,0,0c-0.1,0-0.2,0-0.2,0
			c-0.9-0.1-1.9-0.1-2.8-0.1h0h0H164.4h0h0c-16.4,0-31.6,8.7-39.9,22.8L33.2,218.9c-1.4,2.3-2.5,4.8-3.4,7.3
			c-0.1,0.2-0.2,0.5-0.3,0.7c-0.2,0.6-0.4,1.2-0.6,1.8c-0.1,0.3-0.2,0.6-0.3,0.9c-0.2,0.6-0.3,1.2-0.4,1.8c-0.1,0.3-0.2,0.7-0.2,1
			c-0.1,0.6-0.2,1.2-0.3,1.8c-0.1,0.3-0.1,0.7-0.2,1c-0.1,0.6-0.2,1.2-0.2,1.8c0,0.4-0.1,0.7-0.1,1.1c0,0.6-0.1,1.2-0.1,1.8
			c0,0.4,0,0.7,0,1.1c0,0.6,0,1.2,0,1.8c0,0.4,0,0.7,0,1.1c0,0.6,0.1,1.2,0.1,1.8c0,0.4,0.1,0.7,0.1,1.1c0.1,0.6,0.1,1.2,0.2,1.8
			c0.1,0.4,0.1,0.7,0.2,1.1c0.1,0.6,0.2,1.2,0.3,1.8c0.1,0.4,0.2,0.7,0.2,1c0.1,0.6,0.3,1.2,0.4,1.7c0.1,0.3,0.2,0.7,0.3,1
			c0.2,0.6,0.4,1.2,0.6,1.7c0.1,0.3,0.2,0.6,0.4,0.9c0.2,0.6,0.4,1.2,0.7,1.8c0.1,0.3,0.3,0.5,0.4,0.8c0.3,0.6,0.5,1.2,0.8,1.8
			c0,0.1,0.1,0.1,0.1,0.2c0.4,0.8,0.8,1.5,1.2,2.3l16.9,29.1l64.8,111.1h-7.6h0c-8.1,0-14.7,6.6-14.7,14.7V457
			c0,8.1,6.6,14.7,14.7,14.7h0h296.9h0c8.1,0,14.7-6.6,14.7-14.7v-37.4c0-8.1-6.6-14.7-14.7-14.7h0h-7.6l81.8-140.2
			c0-0.1,0.1-0.1,0.1-0.2c0.8-1.4,1.5-2.8,2.1-4.2C480.6,260,480.7,259.8,480.8,259.6z"/>
		<path class="st1" d="M347.1,39.5c0.9,0,1.9,0,2.8,0.1c0.1,0,0.2,0,0.2,0c0,0,0,0,0,0c1,0.1,2,0.2,2.9,0.3c0.3,0,0.5,0.1,0.8,0.1
			c0.7,0.1,1.4,0.2,2.1,0.3c0.3,0.1,0.6,0.1,1,0.2c0.6,0.1,1.3,0.3,1.9,0.4c0.3,0.1,0.7,0.2,1,0.3c0.6,0.2,1.2,0.3,1.8,0.5
			c0.4,0.1,0.7,0.2,1,0.4c0.6,0.2,1.1,0.4,1.7,0.6c0.3,0.1,0.7,0.3,1,0.4c0.5,0.2,1.1,0.5,1.6,0.7c0.3,0.2,0.7,0.3,1,0.5
			c0.5,0.3,1,0.5,1.6,0.8c0.3,0.2,0.7,0.4,1,0.6c0.5,0.3,1,0.6,1.5,0.9c0.3,0.2,0.6,0.4,0.9,0.6c0.5,0.3,1,0.7,1.5,1
			c0.3,0.2,0.6,0.4,0.9,0.7c0.5,0.4,0.9,0.7,1.4,1.1c0.3,0.2,0.6,0.5,0.8,0.7c0.5,0.4,0.9,0.8,1.4,1.2c0.3,0.2,0.5,0.5,0.8,0.7
			c0.4,0.4,0.9,0.9,1.3,1.4c0.2,0.2,0.5,0.5,0.7,0.7c0.4,0.5,0.9,1,1.3,1.5c0.2,0.2,0.4,0.5,0.6,0.7c0.5,0.6,0.9,1.2,1.3,1.8
			c0.1,0.2,0.3,0.4,0.4,0.5c0.6,0.8,1.1,1.7,1.6,2.5L469,203.1l9.2,15.8c0,0.1,0.1,0.2,0.1,0.2c0.7,1.3,1.4,2.6,2,4
			c0,0,0,0.1,0.1,0.1c0,0,0,0.1,0,0.1c0.7,1.6,1.3,3.2,1.8,4.9c0,0.1,0,0.1,0.1,0.2c0.5,1.7,0.9,3.4,1.3,5.1c0,0,0,0,0,0
			c0.6,3.4,0.9,6.9,0.7,10.4c0,0.1,0,0.3,0,0.4c-0.1,1.6-0.3,3.2-0.5,4.8c0,0.3-0.1,0.5-0.1,0.8c-0.3,1.5-0.6,3-1,4.5
			c-0.1,0.3-0.2,0.6-0.3,0.9c-0.5,1.5-1,2.9-1.6,4.4c-0.1,0.2-0.2,0.5-0.3,0.7c-0.6,1.4-1.3,2.9-2.1,4.2c0,0.1-0.1,0.1-0.1,0.2
			l-81.8,140.2h7.6h0c8.1,0,14.7,6.6,14.7,14.7V457c0,8.1-6.6,14.7-14.7,14.7h0H107.3h0c-8.1,0-14.7-6.6-14.7-14.7v-37.4
			c0-8.1,6.6-14.7,14.7-14.7h0h7.6L50.1,293.8l-16.9-29.1c-0.4-0.8-0.8-1.5-1.2-2.3c0-0.1-0.1-0.1-0.1-0.2c-0.3-0.6-0.6-1.2-0.8-1.8
			c-0.1-0.3-0.3-0.5-0.4-0.8c-0.2-0.6-0.5-1.2-0.7-1.8c-0.1-0.3-0.2-0.6-0.4-0.9c-0.2-0.6-0.4-1.2-0.6-1.7c-0.1-0.3-0.2-0.7-0.3-1
			c-0.2-0.6-0.3-1.2-0.4-1.7c-0.1-0.3-0.2-0.7-0.2-1c-0.1-0.6-0.2-1.2-0.3-1.8c-0.1-0.4-0.1-0.7-0.2-1.1c-0.1-0.6-0.2-1.2-0.2-1.8
			c0-0.4-0.1-0.7-0.1-1.1c0-0.6-0.1-1.2-0.1-1.8c0-0.4,0-0.7,0-1.1c0-0.6,0-1.2,0-1.8c0-0.4,0-0.7,0-1.1c0-0.6,0.1-1.2,0.1-1.8
			c0-0.4,0.1-0.7,0.1-1.1c0.1-0.6,0.1-1.2,0.2-1.8c0.1-0.3,0.1-0.7,0.2-1c0.1-0.6,0.2-1.2,0.3-1.8c0.1-0.3,0.2-0.7,0.2-1
			c0.1-0.6,0.3-1.2,0.4-1.8c0.1-0.3,0.2-0.6,0.3-1c0.2-0.6,0.4-1.2,0.6-1.8c0.1-0.2,0.2-0.5,0.3-0.7c0.9-2.5,2-5,3.4-7.3l91.3-156.5
			c8.2-14.1,23.5-22.8,39.9-22.8h0h0H347.1L347.1,39.5L347.1,39.5 M347.1,28.2L347.1,28.2H164.4c-20.4,0-39.4,10.9-49.6,28.4
			L23.4,213.2c-1.6,2.8-3.1,5.9-4.3,9.1l0,0.1c-0.1,0.3-0.2,0.5-0.3,0.8c-0.2,0.7-0.5,1.4-0.7,2.1l0,0.1l-0.1,0.2
			c-0.1,0.3-0.2,0.6-0.3,1c-0.2,0.7-0.4,1.4-0.5,2.2l-0.1,0.3c-0.1,0.3-0.2,0.7-0.2,1c-0.2,0.7-0.3,1.5-0.4,2.2l0,0.2
			c-0.1,0.4-0.1,0.7-0.2,1.1c-0.1,0.7-0.2,1.5-0.3,2.2c-0.1,0.5-0.1,0.9-0.1,1.3c-0.1,0.7-0.1,1.5-0.1,2.2c0,0.4,0,0.9,0,1.3
			c0,0.7,0,1.5,0,2.2c0,0.4,0,0.9,0,1.3c0,0.7,0.1,1.5,0.1,2.2c0,0.4,0.1,0.9,0.1,1.3c0.1,0.7,0.2,1.5,0.3,2.2
			c0.1,0.4,0.1,0.8,0.2,1.3c0.1,0.8,0.3,1.5,0.4,2.3c0.1,0.4,0.2,0.7,0.2,1.1l0.1,0.2c0.2,0.7,0.4,1.5,0.6,2.2
			c0.1,0.3,0.2,0.7,0.3,1l0.1,0.3c0.2,0.8,0.5,1.5,0.7,2.2c0.1,0.3,0.2,0.6,0.4,1l0.1,0.2l0.1,0.2c0.3,0.7,0.5,1.4,0.8,2
			c0.1,0.3,0.3,0.6,0.4,0.9l0.1,0.2l0.1,0.2c0.3,0.7,0.6,1.4,1,2.1c0.1,0.1,0.1,0.3,0.2,0.4c0.4,0.8,0.9,1.7,1.5,2.7l16.9,29.1
			l56.2,96.4c-9,4.1-15.3,13.2-15.3,23.7V457c0,14.4,11.7,26,26,26h296.9c14.4,0,26-11.7,26-26v-37.4c0-10.6-6.3-19.7-15.4-23.7
			L488,270.4c0.1-0.1,0.2-0.3,0.3-0.5c0.9-1.6,1.7-3.2,2.5-5l0.1-0.1c0.1-0.3,0.2-0.5,0.4-0.8c0.7-1.7,1.4-3.5,2-5.5l0.1-0.2
			c0.1-0.3,0.2-0.6,0.3-0.9c0.5-1.8,1-3.7,1.3-5.6c0-0.3,0.1-0.5,0.1-0.8l0-0.1c0.3-2,0.5-4,0.7-5.9c0-0.2,0-0.4,0-0.6
			c0.2-4.2-0.1-8.6-0.9-12.8c0,0,0-0.1,0-0.1l0,0c-0.4-2.1-0.9-4.2-1.6-6.4l-0.1-0.3c-0.6-2-1.4-4-2.2-5.9c0-0.1-0.1-0.2-0.1-0.3
			c-0.1-0.1-0.1-0.3-0.2-0.4c-0.7-1.6-1.5-3.1-2.2-4.4c-0.1-0.2-0.2-0.4-0.3-0.6l-9.2-15.8L396.7,56.6c-0.6-1-1.3-2.1-2-3.1
			c-0.2-0.2-0.3-0.5-0.5-0.7c-0.6-0.8-1.1-1.6-1.7-2.3c-0.2-0.3-0.4-0.5-0.6-0.7l-0.1-0.2c-0.5-0.6-1.1-1.3-1.6-1.9
			c-0.2-0.3-0.5-0.5-0.7-0.7l-0.2-0.2c-0.5-0.6-1.1-1.2-1.6-1.7c-0.3-0.3-0.5-0.5-0.8-0.8l-0.2-0.2c-0.6-0.5-1.1-1-1.7-1.6
			c-0.3-0.3-0.6-0.5-0.9-0.8l-0.1-0.1c-0.6-0.5-1.2-1-1.8-1.4c-0.4-0.3-0.7-0.6-1.1-0.8c-0.6-0.4-1.2-0.9-1.8-1.3
			c-0.4-0.3-0.8-0.5-1.2-0.8c-0.6-0.4-1.2-0.8-1.9-1.2c-0.4-0.2-0.8-0.5-1.2-0.7c-0.6-0.4-1.3-0.7-1.9-1c-0.4-0.2-0.8-0.4-1.3-0.6
			c-0.7-0.3-1.3-0.6-2-0.9l-0.2-0.1c-0.4-0.2-0.7-0.3-1.1-0.5c-0.7-0.3-1.4-0.5-2.1-0.8l-0.2-0.1c-0.4-0.1-0.7-0.3-1.1-0.4
			c-0.7-0.2-1.5-0.5-2.2-0.7l-0.3-0.1c-0.3-0.1-0.7-0.2-1-0.3c-0.8-0.2-1.6-0.4-2.3-0.6l-0.2-0.1c-0.3-0.1-0.7-0.1-1-0.2
			c-0.9-0.2-1.7-0.3-2.6-0.4l-0.1,0c-0.3-0.1-0.6-0.1-0.9-0.1c-1.2-0.2-2.5-0.3-3.7-0.4c0,0-0.1,0-0.1,0c-0.1,0-0.2,0-0.3,0
			C349.3,28.3,348.2,28.2,347.1,28.2L347.1,28.2z"/>
	</g>
	<path class="st2" d="M164.3,444.5c-16.4,0-31.7-8.7-39.9-22.8L33.2,265.1c-8.2-14.1-8.2-31.7,0-45.8l91.3-156.5
		c8.2-14.1,23.5-22.8,39.9-22.8h182.7c16.4,0,31.7,8.7,39.9,22.8l91.3,156.5c8.2,14.1,8.2,31.7,0,45.8l-91.3,156.5
		c-8.2,14.1-23.5,22.8-39.9,22.8H164.3z"/>
	<path class="st2" d="M478.3,265.1l-91.3,156.6c-8.2,14.1-23.5,22.8-39.8,22.8H164.3c-16.4,0-31.6-8.8-39.9-22.8L33.2,265.1
		c-8.2-14.1-8.2-31.7,0-45.8l91.3-156.5c8.2-14.1,23.5-22.8,39.9-22.8h182.7c16.4,0,31.6,8.7,39.8,22.8l91.3,156.5
		C486.5,233.4,486.5,251,478.3,265.1"/>
	<path class="st3" d="M368.9,72.6c-4.6-8-13.2-13-22.5-13H165c-9.3,0-17.9,4.9-22.5,13L51.8,229.2c-4.7,8.1-4.7,18,0,26.1
		l90.7,156.5c4.6,8,13.2,13,22.5,13h181.4c9.3,0,17.9-4.9,22.5-13l90.6-156.5c4.7-8.1,4.7-18,0-26.1L368.9,72.6z"/>
	<g>
		<path class="st4" d="M442.5,239.1L351.9,82.5c-1.1-1.9-3.2-3.1-5.4-3.1H165c-2.2,0-4.3,1.2-5.4,3.1L68.9,239.1
			c-1.1,1.9-1.1,4.4,0,6.3l90.7,156.5c1.1,1.9,3.2,3.1,5.4,3.1h181.4c2.2,0,4.3-1.2,5.4-3.1l90.7-156.5
			C443.7,243.4,443.7,241,442.5,239.1z M344.4,395.2H167.1l-88.6-153l88.6-153h17.4l10.4,25.7c2.5,6.1,8.4,10.1,15,10.1h91.3
			c6.6,0,12.5-4,15-10.1l10.5-25.7h17.6l88.6,153L344.4,395.2z"/>
	</g>
	<g>
		<path class="st4" d="M128.5,426.2c8.6,11.4,22.3,18.2,36.8,18.2h182.7c13.5,0,26.2-5.9,34.9-15.9c-25.1-44.7-73-74.9-127.9-74.9
			C201.1,353.7,154,382.9,128.5,426.2"/>
		<path class="st2" d="M404.1,405.3h-68.6c-18.2,0-34.9-10.3-42.9-26.7l-17.8-36.1h-38.2l-17.8,36.1c-8.1,16.3-24.7,26.7-42.9,26.7
			h-68.6c-8.1,0-14.7,6.6-14.7,14.7v37.4c0,8.1,6.6,14.7,14.7,14.7h296.9c8.1,0,14.7-6.6,14.7-14.7V420
			C418.9,411.9,412.3,405.3,404.1,405.3"/>
	</g>
	<g>
		<polygon class="st5" points="174.3,258.4 174.3,258.3 174.3,258.4 		"/>
		<path class="st2" d="M191.3,257L178,270.3c3,7.6,7.2,14.9,12.5,21.6l17.8-17.8L191.3,257z"/>
		<path class="st2" d="M198.2,300.2l42.2-23.3l-2.6,19.9l17.7-37.5l1.9,27.8l9.7-18.4l32.9,22.6c0.9-0.5,1.7-0.9,2.6-1.4l-47.1-47.1
			L198.2,300.2z"/>
		<path class="st2" d="M319.6,257l-17.1,17.1l10,10c6.9-4.3,13.5-9.1,19.9-14.2L319.6,257z"/>
		<polygon class="st2" points="174.3,258.4 174.3,258.4 174.3,258.4 		"/>
		<g>
			<path class="st6" d="M314.3,180.9c-16.3-16.3-37.6-24.4-58.9-24.4c-21.3,0-42.6,8.1-58.9,24.4c-16.2,16.3-24.4,37.6-24.4,58.9
				c0,6.2,0.7,12.5,2.1,18.6h0l0,0l13.1-13.1l3.9-3.9l3.9,3.9l21.1,21.1l35.2-35.2l3.9-3.9l3.9,3.9l35.2,35.2l21.1-21.1l3.9-3.9
				l3.9,3.9l13.1,13.1c1.4-6.1,2.1-12.3,2.1-18.6C338.7,218.5,330.6,197.2,314.3,180.9z M246.8,165.7c0-0.2,0.1-0.3,0.1-0.5
				c0,0.2,0.1,0.3,0.1,0.5L246.8,165.7z"/>
		</g>
		<polygon points="191.3,241.4 187.4,245.3 174.3,258.3 186.6,251.4 190.5,247.4 194.4,251.4 216.4,266.4 195.2,245.3 		"/>
		<polygon points="255.5,227.3 251.6,231.2 216.4,266.4 250.7,237.3 254.7,233.3 258.6,237.3 294.6,266.4 259.4,231.2 		"/>
		<polygon points="174.3,258.4 174.3,258.4 174.3,258.4 		"/>
		<g>
			<path d="M361.9,251.3c-5,5.8-10.5,11.3-16.3,16.6c-3.7,3.3-7.4,6.5-11.3,9.5c-2.6,2-5.2,4-7.8,5.9c-2.6,1.8-5.1,3.6-7.8,5.3
				c-0.3,0.2-0.6,0.4-0.9,0.6c-3.2,2.1-6.5,4.1-9.9,6.1c-0.4,0.2-0.8,0.5-1.2,0.7c-21.6,12.5-44.4,21.4-65.2,26.2
				c-12.1,2.8-23.4,4.1-33.1,3.8c-2.7-0.1-5.3-0.2-7.7-0.5c-9.8-1.2-17.1-4.3-20.6-9.4c-1.9-2.7-2.8-6.3-2.5-10.8c0.1-1,0.1-2,0.3-3
				c-0.6,0.2-1.1,0.3-1.7,0.5c-7.4,2.5-11.3,7.2-11.9,12.7c-1.2,11,10.8,24.8,34.2,28.2c7.5,1.1,16,1,26.7-0.9l26.4,26.4l3.9,3.9
				l3.9-3.9l61.4-61.3c0,0,4-4.3,5-5.4l2.3-2.7c0.8-0.9,3.5-3.8,5.3-5.9c3.4-3,6.8-6.2,10.3-9.8c12.7-12.9,22.7-31,23.8-39.9
				C365.8,246.7,363.8,249,361.9,251.3z"/>
			<path d="M165.3,267.4l0.4,1.2c3.6,11.2,9.3,21.8,17.2,31.3l-0.1,0.1l2.4,2.6c0.9,1,1.8,2,2.8,3l2.2,2.4l0.1-0.1l7.1,7.1
				c11.3,1.9,25.4,1.3,40.9-1.6c19.2-3.6,40-10.6,59.8-21c0.6-0.3,1.2-0.7,1.9-1l-32.9-22.6l-9.7,18.4l-1.9-27.8l-17.7,37.5
				l2.6-19.9l-42.2,23.3l57.3-57.3l47.1,47.1c3.4-1.9,6.7-3.8,10-5.9l-10-10l17.1-17.1l12.8,12.8c1.5-1.2,3.1-2.5,4.6-3.7
				c4-3.4,7.8-7.1,11.5-10.9c0.8-5.1,1.3-10.3,1.3-15.4c0-24.1-9.2-48.3-27.6-66.7c-18.4-18.4-42.5-27.6-66.7-27.6
				c-24.1,0-48.3,9.2-66.7,27.6c-18.4,18.4-27.6,42.5-27.6,66.7C161.2,249.1,162.6,258.4,165.3,267.4L165.3,267.4z M190.6,291.9
				c-5.4-6.7-9.5-13.9-12.5-21.6l13.3-13.3l17.1,17.1L190.6,291.9z M196.6,180.9c16.3-16.3,37.5-24.4,58.9-24.4
				c21.3,0,42.6,8.1,58.9,24.4c16.3,16.3,24.4,37.6,24.4,58.9c0,6.2-0.7,12.5-2.1,18.6l-13.1-13.1l-3.9-3.9l-3.9,3.9l-21.1,21.1
				l-36-29.1l-3.9-3.9l-3.9,3.9l-34.4,29.1l-21.9-15l-3.9-3.9l-3.9,3.9l-12.2,7l0,0c0,0,0,0,0,0v0c-1.4-6.1-2.1-12.3-2.1-18.6
				C172.3,218.5,180.4,197.2,196.6,180.9z"/>
		</g>
		<path d="M366.9,233.2l-11.6,5.7l6.9,0.3c0.4-0.5,0.8-1,1.1-1.4c0,0.5,0.1,1,0.1,1.5l7.1,0.3l6.4,13.8l0.8-12.9l0.8-12.9
			L366.9,233.2z"/>
		<path d="M362.1,239.2l1.2,0c0-0.5,0-1-0.1-1.5C362.9,238.3,362.5,238.7,362.1,239.2z"/>
		<circle class="st2" cx="217.8" cy="199.9" r="17.4"/>
		<path d="M266.6,201.9c-0.7,3.6-1.3,4.2-4.9,4.9c3.6,0.7,4.2,1.3,4.9,4.9c0.7-3.6,1.3-4.2,4.9-4.9
			C267.9,206.1,267.4,205.5,266.6,201.9z"/>
		<path d="M242.2,172.1c4.9,1,5.7,1.8,6.6,6.6c1-4.9,1.8-5.7,6.6-6.6c-4.7-0.9-5.6-1.7-6.5-6.2c-0.1,0-0.1,0-0.2,0
			C247.8,170.4,246.9,171.2,242.2,172.1z"/>
		<path d="M246.8,165.7c0.1,0,0.1,0,0.2,0c0-0.2-0.1-0.3-0.1-0.5C246.9,165.4,246.8,165.6,246.8,165.7z"/>
		<path d="M292.4,229.7c-1,4.9-1.8,5.7-6.6,6.6c4.9,1,5.7,1.8,6.6,6.6c1-4.9,1.8-5.7,6.6-6.6C294.2,235.4,293.4,234.6,292.4,229.7z"
			/>
		<path d="M319.7,224.4c0.7-3.6,1.3-4.2,4.9-4.9c-3.6-0.7-4.2-1.3-4.9-4.9c-0.7,3.6-1.3,4.2-4.9,4.9
			C318.4,220.2,319,220.8,319.7,224.4z"/>
		<path d="M187,215.8c-0.7,3.6-1.3,4.2-4.9,4.9c3.6,0.7,4.2,1.3,4.9,4.9c0.7-3.6,1.3-4.2,4.9-4.9C188.3,220,187.7,219.4,187,215.8z"
			/>
		<path d="M221.1,231c-0.7,3.6-1.3,4.2-4.9,4.9c3.6,0.7,4.2,1.3,4.9,4.9c0.7-3.6,1.3-4.2,4.9-4.9C222.4,235.2,221.8,234.6,221.1,231
			z"/>
		<path d="M296.4,181.7c-1.4,6.9-2.5,8-9.4,9.4c6.9,1.4,8,2.5,9.4,9.4c1.4-6.9,2.5-8,9.4-9.4C298.9,189.7,297.8,188.6,296.4,181.7z"
			/>
	</g>
	<g>
		<path class="st7" d="M224.6,101l-4.9,13.9h-3l-4.9-13.9v13.9h-6.7v-22h9.2l3.9,11.2l3.9-11.2h9.2v22h-6.7V101z"/>
		<path class="st7" d="M247.1,92.5c6.8,0,12,4.6,12,11.4c0,6.8-5.2,11.4-12,11.4c-6.8,0-12-4.6-12-11.4
			C235.1,97.2,240.4,92.5,247.1,92.5z M247.1,98.4c-3.2,0-5.3,2.4-5.3,5.5c0,3.1,2.1,5.5,5.3,5.5s5.3-2.4,5.3-5.5
			C252.4,100.8,250.3,98.4,247.1,98.4z"/>
		<path class="st7" d="M263,92.9h9.8c6.9,0,12.1,4,12.1,11s-5.1,11-12,11H263V92.9z M272.8,109.1c3.3,0,5.3-2.4,5.3-5.2
			c0-3-1.7-5.2-5.3-5.2h-3.2v10.4H272.8z"/>
		<path class="st7" d="M288.7,92.9h16.7v5.5h-10v2.6h9.8v5.5h-9.8v2.8h10v5.5h-16.7V92.9z"/>
	</g>
	<g>
		<path class="st7" d="M139.3,462.6V417h10.4c4,0,7.1,1,9.2,3.1c2.1,2.1,3.1,5,3.1,8.7v21.3c0,4.3-1.1,7.4-3.3,9.5
			c-2.2,2-5.4,3-9.6,3H139.3z M146.3,423.1v33.3h3.2c2,0,3.4-0.5,4.2-1.4c0.8-0.9,1.2-2.4,1.2-4.3v-22c0-1.8-0.4-3.2-1.2-4.2
			c-0.8-1-2.2-1.5-4.3-1.5H146.3z"/>
		<path class="st7" d="M170.1,462.6V417h7v45.6H170.1z"/>
		<path class="st7" d="M208,430.1h-7v-1.5c0-1.5-0.4-2.8-1.1-3.9c-0.8-1.1-2-1.6-3.8-1.6c-1,0-1.7,0.2-2.3,0.5
			c-0.6,0.3-1.1,0.8-1.4,1.3c-0.4,0.6-0.6,1.2-0.8,1.9s-0.2,1.4-0.2,2.2c0,0.9,0,1.6,0.1,2.2c0.1,0.6,0.2,1.1,0.5,1.6
			c0.3,0.5,0.7,0.9,1.2,1.2c0.5,0.3,1.2,0.7,2.2,1l5.4,2c1.6,0.6,2.8,1.2,3.8,2c1,0.7,1.7,1.6,2.3,2.6c0.5,1,0.8,2.2,1,3.5
			c0.2,1.3,0.3,2.8,0.3,4.5c0,1.9-0.2,3.7-0.6,5.4c-0.4,1.6-1.1,3-2,4.2c-1,1.2-2.2,2.1-3.8,2.8c-1.6,0.7-3.5,1-5.7,1
			c-1.7,0-3.3-0.3-4.7-0.8c-1.5-0.6-2.7-1.3-3.8-2.3c-1.1-1-1.9-2.1-2.5-3.4c-0.6-1.3-0.9-2.7-0.9-4.3v-2.4h7v2.1
			c0,1.2,0.4,2.3,1.1,3.2c0.8,1,2,1.4,3.8,1.4c1.2,0,2.1-0.2,2.8-0.5c0.7-0.3,1.2-0.8,1.5-1.4c0.4-0.6,0.6-1.3,0.7-2.1
			c0.1-0.8,0.1-1.8,0.1-2.8c0-1.2,0-2.2-0.1-2.9c-0.1-0.8-0.3-1.4-0.5-1.9c-0.3-0.5-0.7-0.9-1.3-1.2c-0.5-0.3-1.2-0.6-2.1-1l-5-1.9
			c-3-1.2-5-2.7-6.1-4.6c-1-1.9-1.5-4.3-1.5-7.1c0-1.7,0.3-3.3,0.8-4.9c0.5-1.5,1.3-2.9,2.3-4c1-1.1,2.2-2,3.7-2.7
			c1.5-0.7,3.3-1,5.3-1c1.7,0,3.3,0.3,4.8,0.9c1.4,0.6,2.7,1.4,3.7,2.4c2.1,2.1,3.2,4.4,3.2,7.1V430.1z"/>
		<path class="st7" d="M236.9,449.6v2.8c0,1.4-0.3,2.7-0.9,4c-0.6,1.3-1.4,2.4-2.4,3.4c-1,1-2.2,1.8-3.5,2.3
			c-1.3,0.6-2.8,0.9-4.4,0.9c-1.3,0-2.7-0.2-4-0.5c-1.4-0.3-2.6-0.9-3.7-1.8c-1.1-0.9-2-2-2.7-3.3c-0.7-1.3-1.1-3.1-1.1-5.2v-25.1
			c0-1.5,0.3-2.9,0.8-4.2c0.5-1.3,1.3-2.4,2.3-3.3c1-0.9,2.2-1.7,3.6-2.2c1.4-0.5,2.9-0.8,4.6-0.8c3.3,0,6,1,8,3
			c1,1,1.8,2.1,2.4,3.5c0.6,1.3,0.9,2.8,0.9,4.4v2.6h-7v-2.2c0-1.3-0.4-2.4-1.2-3.3c-0.8-0.9-1.8-1.4-3.2-1.4
			c-1.7,0-2.9,0.5-3.5,1.5c-0.6,1-0.9,2.3-0.9,3.8v23.3c0,1.3,0.3,2.4,0.9,3.3c0.6,0.9,1.7,1.3,3.3,1.3c0.5,0,0.9-0.1,1.5-0.2
			c0.5-0.1,1-0.4,1.5-0.7c0.4-0.3,0.8-0.8,1-1.4c0.3-0.6,0.4-1.3,0.4-2.2v-2.2H236.9z"/>
		<path class="st7" d="M243.6,427.7c0-1.8,0.3-3.5,1-4.9c0.7-1.4,1.6-2.6,2.7-3.5c1.1-0.9,2.3-1.6,3.7-2.1c1.4-0.5,2.8-0.7,4.2-0.7
			s2.8,0.2,4.2,0.7c1.4,0.5,2.7,1.2,3.8,2.1c1.1,0.9,2,2.1,2.7,3.5c0.7,1.4,1,3,1,4.9v24.1c0,1.9-0.3,3.6-1,4.9
			c-0.7,1.4-1.6,2.5-2.7,3.4c-1.1,0.9-2.4,1.6-3.8,2.1c-1.4,0.5-2.8,0.7-4.2,0.7s-2.8-0.2-4.2-0.7c-1.4-0.5-2.6-1.2-3.7-2.1
			c-1.1-0.9-2.1-2-2.7-3.4c-0.7-1.4-1-3-1-4.9V427.7z M250.6,451.8c0,1.6,0.5,2.7,1.4,3.5c0.9,0.7,2,1.1,3.3,1.1
			c1.3,0,2.4-0.4,3.3-1.1c0.9-0.7,1.4-1.9,1.4-3.5v-24.1c0-1.6-0.5-2.7-1.4-3.5c-0.9-0.7-2-1.1-3.3-1.1c-1.3,0-2.4,0.4-3.3,1.1
			c-0.9,0.7-1.4,1.9-1.4,3.5V451.8z"/>
		<path class="st7" d="M297.2,417l-10,45.6H281L271,417h7.4l5.6,31.9h0.1l5.6-31.9H297.2z"/>
		<path class="st7" d="M302.8,462.6V417h20.9v6.2h-13.9v13.4h12.1v6.2h-12.1v13.4h13.9v6.5H302.8z"/>
		<path class="st7" d="M329.6,462.6V417h11.2c8.2,0,12.3,4.5,12.3,13.4c0,2.7-0.4,5-1.3,6.9c-0.9,1.9-2.5,3.4-4.7,4.6l7.5,20.8h-7.4
			l-6.5-19.5h-4.2v19.5H329.6z M336.6,423.1v14.2h4c1.2,0,2.2-0.2,2.9-0.5c0.7-0.3,1.3-0.8,1.7-1.4c0.4-0.6,0.6-1.3,0.8-2.2
			c0.1-0.9,0.2-1.9,0.2-3c0-1.2-0.1-2.2-0.2-3c-0.1-0.9-0.4-1.6-0.8-2.3c-0.9-1.2-2.5-1.8-4.9-1.8H336.6z"/>
		<path class="st7" d="M365.5,462.6v-19.3l-9.6-26.3h7.4l5.6,18.1h0.1l5.6-18.1h7.4l-9.6,26.3v19.3H365.5z"/>
	</g>
	<g>
		<path d="M115.9,430.3c-1.4,6.9-2.5,8-9.4,9.4c6.9,1.4,8,2.5,9.4,9.4c1.4-6.9,2.5-8,9.4-9.4C118.4,438.3,117.2,437.2,115.9,430.3z"
			/>
		<path d="M398.4,430.3c-1.4,6.9-2.5,8-9.4,9.4c6.9,1.4,8,2.5,9.4,9.4c1.4-6.9,2.5-8,9.4-9.4C400.9,438.3,399.8,437.2,398.4,430.3z"
			/>
	</g>
</g>
</svg>
