<?xml version="1.0" encoding="utf-8"?>
<!-- Generator: Adobe Illustrator 26.2.1, SVG Export Plug-In . SVG Version: 6.00 Build 0)  -->
<svg version="1.1" id="Layer_1" xmlns="http://www.w3.org/2000/svg" xmlns:xlink="http://www.w3.org/1999/xlink" x="0px" y="0px"
	 viewBox="0 0 512 512" style="enable-background:new 0 0 512 512;" xml:space="preserve">
<style type="text/css">
	.st0{fill:#FFFFFF;}
</style>
<path class="st0" d="M152.7,326.6v114.8c0,4.5-1.5,8.2-4.3,10.9c-2.8,2.9-6.4,4.2-10.9,4.2c-4.5,0-8.4-1.3-11.4-4.2
	c-3.2-2.7-4.7-6.4-4.7-10.9V326.6h-43l44.7-151.2h-7.7c-4.9,17-9,30.6-12.3,41.4c-2.9,10.8-6.2,21-9,30.8c-3.2,9.7-5.3,15.9-5.6,18
	c-1.9,6.4-6.2,9.5-12.8,9.5l-3.4-0.8c-6.2-2.3-9.2-6.3-9.2-12c0-1.6,0.2-2.9,0.9-4.1c0.4-1.1,1.7-4.9,3.2-11.3
	c1.7-6.4,4-14.4,6.8-23.6c2.8-9.4,5.8-19.6,9-30.5c3.2-10.9,6.2-21.5,9.8-31.7c2.1-7.8,6.8-14.9,14.1-21c7.3-6.4,14.8-9.3,22.7-9.3
	h52.7c8.1,0,16,2.9,23.1,9.3c6.9,6.1,11.8,13.2,14.6,21c2.9,10.2,6,20.7,9,31.7c3,10.9,6.3,21.1,8.8,30.5c2.7,9.2,5.1,17.2,6.8,23.6
	c1.7,6.4,2.8,10.2,3.4,11.3l0.9,3.4c0,6.9-3.2,10.9-9.4,12.8l-3.2,0.8c-6.8,0-11.1-3.1-12.8-9.5c-0.5-2.1-2.4-8.3-4.9-18
	c-3-9.8-6-20-9.4-30.8c-3.4-10.8-7.5-24.4-12.4-41.4h-7.7l44.7,151.2l-42.3,0v114.8c0,4.5-1.3,8.2-4.7,10.9c-3,2.9-6.7,4.2-11.1,4.2
	c-4.7,0-8.2-1.3-11.1-4.2c-2.8-2.7-4-6.4-4-10.9V326.6L152.7,326.6z"/>
<path class="st0" d="M156.9,121.3c9,0,16.7-2.9,22.7-9.1c6.2-6.3,9.4-14.2,9.4-23.6c0-9-3.2-16.7-9.4-23.1c-6-6.6-13.7-9.8-22.7-9.8
	c-9.6,0-17.5,3.3-24.2,9.8c-6.4,6.4-9.6,14.1-9.6,23.1c0,9.5,3.2,17.3,9.6,23.6C139.4,118.3,147.3,121.3,156.9,121.3L156.9,121.3z"
	/>
<path class="st0" d="M333.2,129.8c-11.6,0-21.4,4.3-29.8,12.5c-8.3,8.6-12.6,18.6-12.6,29.7v103c0,3.9,1.3,7.4,4.3,10.2
	c2.8,2.8,6.2,4,10.1,4c4.5,0,7.9-1.3,10.7-4c2.4-2.8,3.6-6.3,3.6-10.2v-92.1h7.5v255.1c0,4.9,2.1,9.4,6.2,12.9
	c3.8,3.9,8.3,5.5,13.4,5.5c5.6,0,10.1-1.6,13.7-5.5c3.9-3.5,5.6-8,5.6-12.9V290.1h8.3v147.9c0,4.9,1.9,9.4,5.6,12.9
	c3.6,3.9,8.4,5.5,14.2,5.5c4.9,0,9.2-1.6,13.1-5.5c3.6-3.5,5.3-8,5.3-12.9l0-255.1h7.8l0,92.1c0,3.9,1.3,7.4,3.8,10.2
	c3,2.8,6.6,4,10.5,4c4.5,0,7.9-1.3,10.5-4c2.3-2.8,3.8-6.3,3.8-10.2l0-103c0-11.1-4-21.2-12.4-29.7c-8.2-8.2-18-12.5-29.9-12.5
	L333.2,129.8L333.2,129.8z"/>
<path class="st0" d="M370,121.3c9,0,16.9-2.9,23.3-9.1c6.4-6.3,9.6-14.2,9.6-23.6c0-9-3.2-16.7-9.6-23.1c-6.4-6.6-14.3-9.8-23.3-9.8
	c-9.4,0-17.4,3.3-23.4,9.8c-6.4,6.4-9.4,14.1-9.4,23.1c0,9.5,3,17.3,9.4,23.6C352.7,118.3,360.6,121.3,370,121.3L370,121.3z"/>
</svg>
