<?xml version="1.0" encoding="utf-8"?>
<!-- Generator: Adobe Illustrator 26.2.1, SVG Export Plug-In . SVG Version: 6.00 Build 0)  -->
<svg version="1.1" id="Layer_1" xmlns="http://www.w3.org/2000/svg" xmlns:xlink="http://www.w3.org/1999/xlink" x="0px" y="0px"
	 viewBox="0 0 256 512" style="enable-background:new 0 0 256 512;" xml:space="preserve">
<style type="text/css">
	.st0{fill:url(#SVGID_1_);}
	.st1{fill:none;}
	.st2{fill:#DBDAD6;}
	.st3{fill:#FAF9F3;}
	.st4{fill:#B6B6B4;}
</style>
<g>
	
		<linearGradient id="SVGID_1_" gradientUnits="userSpaceOnUse" x1="118.1363" y1="414.1586" x2="118.1363" y2="154.8619" gradientTransform="matrix(-1 0 0 1 256 0)">
		<stop  offset="0.2113" style="stop-color:#FF9999"/>
		<stop  offset="0.4311" style="stop-color:#FEA59A"/>
		<stop  offset="0.7307" style="stop-color:#FBBC9C"/>
	</linearGradient>
	<path class="st0" d="M82.4,182.4c0.7,0.2,1.5,0.3,2.2,0.4c2.7,0.4,5.4,0.8,8.1,1.2l0.3,0c9.4,1.4,19.2,2.9,28.9,4.2
		c2.6,0.3,5.2,0.8,7.7,1.2c5.6,0.9,11.4,1.9,17.5,1.9l0.1,0l0.1,0c21.4-0.1,31.1-16.6,37.7-32.6l1.6-3.9l2,3.7
		c0.3,0.5,0.4,1.1,0.4,1.4c0,0.1,0,0.2,0,0.3c1.4,5.2,2.3,10.9,2.7,18.1c0,0.6,0.1,1.3,0.2,1.9c0.2,1.8,0.4,3.9-0.1,6.2
		c0,0.3,0.1,0.5,0.1,0.8c0.2,1,0.3,2,0.4,3.1c0,2.6,0,5.2,0,7.7c0,6.7,0,13.7,0.5,20.4c0.3,4.4,0.3,8.9,0.3,13.3
		c0,4.2,0,8.5,0.2,12.7c0.3,4.9,0.3,9.9,0.3,14.8c0,4.9,0,9.9,0.3,14.8c0.3,4.3,0.3,8.7,0.3,13c0,4,0,8.2,0.2,12.2
		c0.3,5,0.3,10.2,0.3,15.2c0,5,0,10.2,0.3,15.2c0.2,3.9,0.2,8,0.2,11.9c0,4.1,0,8.4,0.3,12.5c0.7,10.3-0.2,20.9-2.7,31.6
		c-1.4,5.9-2.9,10.6-4.8,14.9c-2.1,4.8-4.6,9-7.4,12.6l-0.9,1.1l-1.3-0.4c-0.2-0.1-0.4-0.1-0.5-0.2c-6.7-2.9-14.1-5.8-21.8-8.9
		c-11.4-4.5-23.2-9.2-33.1-14c-10.8-5.3-17.5-14.4-22.6-22.5c-11.6-18.4-18-39.8-19.1-63.5c0-0.3-0.1-0.6-0.2-1
		c0-0.2-0.1-0.4-0.1-0.7l0-0.2l0-0.2c0-4,0-8-0.1-12c0-9-0.1-18.1-0.2-27.1c-0.2-23.4-0.4-46.9-0.5-66.8c0-0.5-0.1-3.1-0.4-12.2
		l-0.1-2.5L82.4,182.4z"/>
	<g>
		<path class="st1" d="M123.5,388.3c-9.8-4.9-16.3-13-21.8-21.8C90.1,348,84,327.1,82.9,304c0-0.6-0.2-1.3-0.3-1.9
			c-0.1-13.1-0.1-26.1-0.2-39.2c-0.2-22.3-0.3-44.6-0.5-66.9c0-0.9-0.2-6.3-0.4-12.3c0.7,0.2,1.5,0.3,2.3,0.4
			c2.8,0.4,5.6,0.8,8.3,1.3c9.5,1.4,19.2,2.9,28.9,4.2c2.6,0.3,5.1,0.8,7.6,1.2c5.7,1,11.6,1.9,17.8,1.9c0.1,0,0.2,0,0.3,0
			c22.5-0.1,32.7-17.2,39.6-33.9c0.2,0.4,0.2,0.9,0.3,1.3c1.5,5.7,2.3,11.6,2.6,17.7c0.1,2.6,0.8,5.1,0,7.9c0.2,1.4,0.5,2.7,0.5,4.1
			c0.1,9.4-0.1,18.9,0.5,28.2c0.6,8.5,0,17.3,0.5,25.9c0.6,9.8,0,19.8,0.6,29.6c0.5,8.3,0,16.8,0.5,25.2c0.6,10,0,20.3,0.6,30.4
			c0.5,8.1-0.1,16.3,0.5,24.4c0.7,10.1-0.2,20.5-2.6,31c-1.1,4.9-2.6,9.8-4.6,14.5c-1.8,4-4.1,8.3-7.2,12.1c-0.1,0-0.2-0.1-0.3-0.1
			C161.5,403.8,139.9,396.4,123.5,388.3z"/>
		<path class="st2" d="M22.8,230.5c0.8,31.3,1.6,62.7,2.5,94C27,383.1,53.6,432.6,118.7,458c23.4,9.1,48.8,19.9,70.7,11.3
			c34.3-13.4,44.6-43.1,45.5-72.1c0.3-10.9,0.1-21.7-0.2-32.5c-0.6-18.5-0.8-37.1-1.2-55.6c-0.4-18-0.7-36.1-1.1-54.1
			c-0.4-18.8-0.8-37.6-1.1-56.4c-0.2-14.9-0.6-29.8-2.9-44.1c-3.6-22.2-10.1-43-20.6-61.9c-9.2-16.6-20.7-31.2-37.1-41.8
			c-10.5-6.8-22.2-11.5-36.6-11c-10.5,0.4-21.2,1.6-31.7,2.4c-7.2,0.6-14.4,1.1-21.7,1.6c-14.4,1.1-27.4,17-34.5,26.8
			c-9.4,12.7-15.6,27.2-19.4,42c-2.3,9.2-3.7,18.5-4.5,27.8C19.6,170.2,22,200.5,22.8,230.5z M42.9,132.9c0-0.8,0.1-1.5,0.3-2
			c0.3-1.1,0.7-2.1,1.1-3.1c3.6-12.4,8.9-24.3,19.9-34.5c6.2-5.7,13.4-9.5,21.3-9.8c14.4-0.5,28.7-0.3,43.1-1
			c11.9-0.6,21.5,2.7,29.9,8.3c8.1,5.5,14.6,12.5,20,20.4c9.5,14,15.4,29.9,19.5,46.7c0,2.2,1,4.8,1.4,7c0.4,2.5,0.7,5,0.9,7.6
			c0.4,5,0.6,10,0.8,15c0.4,10.1,0.4,20.2,0.7,30.3c0.6,27.8,1.2,55.6,1.6,83.4c0.2,16.6,1.1,33.2,0.8,49.9c0,0.9-0.1,1.9,0.1,2.7
			c1.4,9.2-0.1,19,0.3,28.4c0.2,3.8-0.9,7.9-1.5,11.9c-2,12.2-5.6,24.2-13.8,35.4c-6.2,8.5-14.3,14.6-24.7,16.7
			c-7.4,1.5-14.1,0.5-20.2-2c-12.9-5.2-25.1-11.4-37.5-17.4c-7.7-3.7-15.8-6.8-22.4-12.1c-7.7-6.1-13.8-13.5-19-21.6
			c-6-9.4-10.8-19.6-14.5-30.4c-4.9-14.5-8.1-29.6-8.9-45.5c-0.5-9.8,0.3-19.9-0.5-29.7c-0.7-8.8,0.1-17.9-0.5-26.7
			c-0.7-9.3,0.1-19-0.6-28.4c-0.7-9-0.1-18.3-0.5-27.4c-0.5-12.6-0.3-25.3-0.8-37.9C38.9,155.9,40,144.5,42.9,132.9z"/>
		<path class="st3" d="M160.7,423.4c-8.7,2.1-15.9,0.2-22.7-2.9c-11.9-5.3-23.7-10.8-35.7-15.8c-10.7-4.4-20.1-10.2-27.1-18.8
			c-11.1-13.8-18-29.9-22.1-47.6c-1.8-8-3.2-16.1-3.2-24.6c-0.4-16.1-0.9-32.2-1.2-48.3c-0.3-15.7-0.7-31.4-0.9-47.2
			c-0.3-19.8-1.2-39.5-0.8-59.5c0-1.6,0.2-6.3,0.6-10.1c6,16.2,15.6,31.4,33.9,35.2c0.2,5.9,0.4,11.3,0.4,12.3
			c0.2,22.3,0.4,44.6,0.5,66.9c0.1,13.1,0.1,26.1,0.2,39.2c0.1,0.6,0.3,1.2,0.3,1.9c1.1,23.1,7.2,44.1,18.8,62.5
			c5.5,8.8,11.9,16.9,21.8,21.8c16.4,8.1,38,15.5,54.8,22.9c0,0,0.1,0.1,0.3,0.1C174.2,416.9,168.4,421.6,160.7,423.4z"/>
		<path class="st2" d="M46,133.1c0.8,3.2,1.7,6.4,2.8,9.7c0.2-0.2,0.4,0.4,0.3,1c0.5,1.6,1.1,3.2,1.7,4.7
			c5.6,14.8,14.5,28.4,30.6,32.1c0.9,0.2,1.9,0.4,2.8,0.5c2.8,0.4,5.6,0.8,8.3,1.3c9.4,1.4,19.2,2.9,28.9,4.2
			c2.6,0.3,5.2,0.8,7.7,1.2c5.7,0.9,11.5,1.9,17.5,1.9c11.7-0.1,25.2-3.9,36.8-32v0c1.1-2.5,2-5,3-7.5c0.6-1.5,1.1-2.9,1.7-4.3
			c1.4-3.4,1.2-6.4-0.3-9.8c-5.3-11.4-12.2-21.1-20.6-29.1c-10.9-10.4-22.2-15.2-35.5-15.2c0,0,0,0-0.1,0l-7.1,0
			c-12.6,0-25.7,0-38.6,0.4c-8.9,0.3-17.2,4.3-24,11.5c-7.3,7.7-12.3,16.5-15.9,27.9C45.9,132.4,45.9,132.7,46,133.1z M93.9,165.6
			c0.4-2.9,2.1-4.3,4.9-4c5.1,0.5,10.3,1,15.4,1.5c3,0.3,6,0.6,9,0.9c3.3,0.3,5.6,2.9,5.5,6c0,1.5-0.6,2.7-1.6,3.6
			c-0.8,0.7-1.9,1.1-3.1,1.1c-0.2,0-0.4,0-0.6,0c-8.9-0.8-16.9-1.7-24.6-2.6c-1.5-0.2-2.9-0.9-3.8-2.1
			C94,168.9,93.6,167.3,93.9,165.6z"/>
		<path class="st2" d="M49.1,143.8c-0.1-0.3-0.2-0.7-0.3-1C49,142.6,49.1,143.2,49.1,143.8z"/>
		<g>
			<path class="st4" d="M39.2,167.2c0.5,12.6,0.3,25.3,0.8,37.9c0.3,9.1-0.2,18.4,0.5,27.4c0.7,9.4-0.1,19.1,0.6,28.4
				c0.7,8.8-0.1,17.9,0.5,26.7c0.8,9.8,0,19.9,0.5,29.7c0.8,15.9,4,31,8.9,45.5c3.6,10.8,8.4,21,14.5,30.4
				c5.2,8.1,11.4,15.4,19,21.6c6.6,5.3,14.7,8.4,22.4,12.1c12.4,5.9,24.6,12.1,37.5,17.4c6.1,2.5,12.8,3.4,20.2,2
				c10.4-2.1,18.5-8.1,24.7-16.7c8.2-11.2,11.8-23.2,13.8-35.4c0.6-4,1.7-8.1,1.5-11.9c-0.4-9.4,1.1-19.2-0.3-28.4
				c-0.1-0.9-0.1-1.8-0.1-2.7c0.4-23.3-0.6-46.6-1.1-69.8c-0.6-27.8-1.1-55.7-1.7-83.5c-0.3-13.2-0.2-26.8-3.3-39.8
				c-4.1-16.9-10-32.8-19.5-46.7c-5.4-7.9-11.9-15-20-20.4c-8.4-5.7-18.1-8.9-29.9-8.3c-14.5,0.7-28.7,0.5-43.1,1
				c-7.9,0.3-15.1,4.1-21.3,9.8c-10.9,10.1-16.3,22-19.9,34.5c-0.4,1-0.7,2.1-1.1,3.1c-0.2,0.6-0.3,1.2-0.3,2
				C40,144.5,38.9,155.9,39.2,167.2z M183.5,157.7L183.5,157.7c-11.7,28.1-25.2,32-36.8,32c-6,0-11.9-1-17.5-1.9
				c-2.5-0.4-5.1-0.9-7.7-1.2c-9.7-1.3-19.4-2.8-28.9-4.2c-2.8-0.4-5.6-0.8-8.3-1.3c-1-0.1-1.9-0.3-2.8-0.5
				c-16.1-3.7-25-17.3-30.6-32.1c-0.6-1.6-1.1-3.1-1.7-4.7c-0.1-0.3-0.2-0.7-0.3-1c-1-3.2-2-6.5-2.8-9.7c-0.1-0.4-0.1-0.8,0.1-1.4
				c3.6-11.4,8.7-20.3,15.9-27.9c6.9-7.2,15.2-11.2,24-11.5c12.9-0.5,26-0.4,38.6-0.4l7.1,0c0,0,0,0,0.1,0
				c13.3,0,24.5,4.8,35.5,15.2c8.4,7.9,15.3,17.7,20.6,29.1c1.6,3.4,1.7,6.4,0.3,9.8c-0.6,1.4-1.1,2.8-1.7,4.3
				C185.6,152.7,184.6,155.2,183.5,157.7z M189.6,190.9c0.3,14.1,0.6,28.1,0.9,42.2c0.3,13.5,0,27.1,0.8,40.5
				c0.5,8.3,0,16.8,0.5,25.2c0.6,10,0,20.3,0.6,30.4c0.5,8.1-0.1,16.3,0.5,24.4c0.7,10.1-0.2,20.5-2.6,31c-1.1,4.9-2.6,9.8-4.6,14.5
				c-1.8,4-4.1,8.3-7.2,12.1c-4.4,5.6-10.2,10.3-17.9,12.1c-8.7,2.1-15.9,0.2-22.7-2.9c-11.9-5.3-23.7-10.8-35.7-15.8
				c-10.7-4.4-20.1-10.2-27.1-18.8c-11.1-13.8-18-29.9-22.1-47.6c-1.8-8-3.2-16.1-3.2-24.6c-0.4-16.1-0.9-32.2-1.2-48.3
				c-0.3-15.7-0.7-31.4-0.9-47.2c-0.3-19.8-1.2-39.5-0.8-59.5c0-1.6,0.2-6.3,0.6-10.1c6,16.2,15.6,31.4,33.9,35.2
				c0.7,0.2,1.5,0.3,2.3,0.4c2.8,0.4,5.6,0.8,8.3,1.3c9.5,1.4,19.2,2.9,28.9,4.2c2.6,0.3,5.1,0.8,7.6,1.2c5.7,1,11.6,1.9,17.8,1.9
				c0.1,0,0.2,0,0.3,0c22.5-0.1,32.7-17.2,39.6-33.9c0.2,0.4,0.2,0.9,0.3,1.3c1.6,5.8,2.3,11.7,2.6,17.7
				C189.5,182.2,189.5,186.6,189.6,190.9z"/>
			<path class="st4" d="M124,174.8c-0.2,0-0.4,0-0.6,0c-8.9-0.8-16.9-1.7-24.6-2.6c-1.5-0.2-2.9-0.9-3.8-2.1c-1-1.2-1.4-2.8-1.1-4.5
				c0.4-2.9,2.1-4.3,4.9-4c5.1,0.5,10.3,1,15.4,1.5c3,0.3,6,0.6,9,0.9c3.3,0.3,5.6,2.9,5.5,6c0,1.5-0.6,2.7-1.6,3.6
				C126.3,174.4,125.2,174.8,124,174.8z"/>
		</g>
	</g>
</g>
</svg>
