<?xml version="1.0" encoding="utf-8"?>
<!-- Generator: Adobe Illustrator 26.2.1, SVG Export Plug-In . SVG Version: 6.00 Build 0)  -->
<svg version="1.1" id="Layer_1" xmlns="http://www.w3.org/2000/svg" xmlns:xlink="http://www.w3.org/1999/xlink" x="0px" y="0px"
	 viewBox="0 0 128 128" style="enable-background:new 0 0 128 128;" xml:space="preserve">
<style type="text/css">
	.st0{fill:#FFFFFF;}
</style>
<path class="st0" d="M64,0C28.7,0,0,85.7,0,121v7h128v-7C128,85.7,99.3,0,64,0z M62.7,73h-0.1c0,0.8-0.6,1.5-1.5,1.5
	c-8.7,0.6-17.3,3.8-24.5,9.8l-13,10.9c-1.2,1-2.9-0.2-2.4-1.7l4.4-13.4c2.5-7.7,7.1-14.5,13.2-19.8l0.5-0.4
	c6.3-5.4,13.9-8.5,21.7-9.1c0.9-0.1,1.7,0.6,1.7,1.5V73z M104.4,95.2L91.3,84.3c-7.1-5.9-15.7-9.2-24.5-9.8
	c-0.8-0.1-1.5-0.7-1.5-1.5V52.3c0-0.9,0.8-1.6,1.7-1.5c7.8,0.6,15.4,3.7,21.7,9.1l0.5,0.4c6.1,5.3,10.7,12.2,13.2,19.8l4.4,13.4
	C107.4,95,105.6,96.2,104.4,95.2z"/>
</svg>
