<?xml version="1.0" encoding="utf-8"?>
<!-- Generator: Adobe Illustrator 26.2.1, SVG Export Plug-In . SVG Version: 6.00 Build 0)  -->
<svg version="1.1" id="Layer_1" xmlns="http://www.w3.org/2000/svg" xmlns:xlink="http://www.w3.org/1999/xlink" x="0px" y="0px"
	 viewBox="0 0 512 512" style="enable-background:new 0 0 512 512;" xml:space="preserve">
<style type="text/css">
	.st0{fill:none;stroke:#FFFFFF;stroke-width:20;stroke-linecap:round;stroke-miterlimit:10;}
	.st1{opacity:0.1;}
	.st2{opacity:0.2;}
	.st3{opacity:0.3;}
	.st4{opacity:0.4;}
	.st5{opacity:0.5;}
	.st6{opacity:0.6;}
	.st7{opacity:0.7;}
	.st8{opacity:0.8;}
</style>
<g>
	<line class="st0" x1="347" y1="256" x2="165" y2="256"/>
	<line class="st0" x1="165" y1="256" x2="255" y2="342"/>
	<line class="st0" x1="165" y1="256" x2="255" y2="170"/>
</g>
<rect x="-224" y="224" transform="matrix(6.123234e-17 -1 1 6.123234e-17 -224 288)" class="st1" width="512" height="64"/>
<rect x="-160" y="224" transform="matrix(6.123234e-17 -1 1 6.123234e-17 -160 352)" class="st2" width="512" height="64"/>
<rect x="-96" y="224" transform="matrix(6.123234e-17 -1 1 6.123234e-17 -96 416)" class="st3" width="512" height="64"/>
<rect x="-32" y="224" transform="matrix(6.123234e-17 -1 1 6.123234e-17 -32 480)" class="st4" width="512" height="64"/>
<rect x="32" y="224" transform="matrix(6.123234e-17 -1 1 6.123234e-17 32 544)" class="st5" width="512" height="64"/>
<rect x="96" y="224" transform="matrix(6.123234e-17 -1 1 6.123234e-17 96 608)" class="st6" width="512" height="64"/>
<rect x="160" y="224" transform="matrix(6.123234e-17 -1 1 6.123234e-17 160 672)" class="st7" width="512" height="64"/>
<rect x="224" y="224" transform="matrix(6.123234e-17 -1 1 6.123234e-17 224 736)" class="st8" width="512" height="64"/>
</svg>
