<?xml version="1.0" encoding="utf-8"?>
<!-- Generator: Adobe Illustrator 25.0.1, SVG Export Plug-In . SVG Version: 6.00 Build 0)  -->
<svg version="1.1" id="Layer_1" xmlns="http://www.w3.org/2000/svg" xmlns:xlink="http://www.w3.org/1999/xlink" x="0px" y="0px"
	 viewBox="0 0 100 100" style="enable-background:new 0 0 100 100;" xml:space="preserve">
<style type="text/css">
	.st0{fill:#FFFFFF;}
</style>
<g>
	<path class="st0" d="M52.1,65.1v-30c0-0.3-0.3-0.6-0.6-0.6c-8.6,0-15.6,7-15.6,15.6s7,15.6,15.6,15.6
		C51.9,65.7,52.1,65.5,52.1,65.1z"/>
	<path class="st0" d="M68,49.6c-0.3-7.4-5.8-13.6-13-14.9c-0.3-0.1-0.6,0.1-0.7,0.4c-0.1,0.3,0,0.6,0.2,0.8c4,2.7,6.7,7.9,6.9,13.7
		c0.3,6.4-2.5,12.3-6.9,15c-0.3,0.2-0.4,0.5-0.3,0.8c0.1,0.2,0.3,0.4,0.6,0.4h0.1C62.7,64.4,68.3,57.4,68,49.6z"/>
	<path class="st0" d="M51.5,30.9c0.9,0,1.7-0.7,1.7-1.7v-10c0-0.9-0.7-1.7-1.7-1.7c-0.9,0-1.7,0.7-1.7,1.7v10
		C49.9,30.2,50.6,30.9,51.5,30.9z"/>
	<path class="st0" d="M35.6,36.5c0.3,0.3,0.7,0.5,1.2,0.5s0.9-0.2,1.2-0.5s0.5-0.7,0.5-1.2c0-0.4-0.2-0.9-0.5-1.2l-7-6.9
		c-0.6-0.6-1.7-0.6-2.4,0c-0.6,0.6-0.6,1.7,0,2.4L35.6,36.5z"/>
	<path class="st0" d="M51.5,69.1c-0.9,0-1.7,0.7-1.7,1.7v10c0,0.9,0.7,1.7,1.7,1.7c0.9,0,1.7-0.7,1.7-1.7v-10
		C53.2,69.8,52.4,69.1,51.5,69.1z"/>
	<path class="st0" d="M36.8,63c-0.4,0-0.9,0.2-1.2,0.5l-6.9,6.9c-0.6,0.6-0.6,1.7,0,2.4c0.6,0.6,1.7,0.6,2.4,0l6.9-6.9
		c0.3-0.3,0.5-0.7,0.5-1.2c0-0.4-0.2-0.9-0.5-1.2C37.6,63.2,37.2,63,36.8,63z"/>
	<path class="st0" d="M32.4,50.1c0-0.9-0.7-1.7-1.7-1.7H19.9c-0.9,0-1.7,0.7-1.7,1.7c0,0.9,0.7,1.7,1.7,1.7h10.8
		C31.6,51.7,32.4,51,32.4,50.1z"/>
	<path class="st0" d="M71.9,30.9c-2-0.6-2.4-1-2.9-3.6c0-0.2-0.2-0.4-0.4-0.4l0,0c-0.2,0-0.4,0.2-0.4,0.4c-0.5,2.6-0.8,3-2.9,3.6
		C65.1,31,65,31.1,65,31.3c0,0.2,0.1,0.4,0.3,0.4c2.1,0.6,2.4,1,2.9,3.6c0,0.2,0.2,0.4,0.4,0.4l0,0c0.2,0,0.4-0.2,0.4-0.4
		c0.5-2.6,0.8-3,2.9-3.6c0.2-0.1,0.3-0.2,0.3-0.4C72.2,31.1,72.1,30.9,71.9,30.9z"/>
	<path class="st0" d="M71.9,69c-2-0.6-2.4-1-2.9-3.6c0-0.2-0.2-0.4-0.4-0.4l0,0c-0.2,0-0.4,0.2-0.4,0.4c-0.5,2.6-0.8,3-2.9,3.6
		c-0.2,0-0.3,0.2-0.3,0.4c0,0.2,0.1,0.4,0.3,0.4c2,0.6,2.4,1,2.9,3.6c0,0.2,0.2,0.4,0.4,0.4l0,0c0.2,0,0.4-0.2,0.4-0.4
		c0.5-2.6,0.8-3,2.9-3.6c0.2-0.1,0.3-0.2,0.3-0.4C72.2,69.3,72.1,69.1,71.9,69z"/>
	<path class="st0" d="M81.4,49.4c-2.8-0.8-3.3-1.5-3.8-5c0-0.2-0.2-0.4-0.4-0.4c-0.2,0-0.4,0.1-0.4,0.3c-0.7,3.4-1.3,4.1-4.1,4.8
		c-0.2,0-0.3,0.2-0.3,0.4s0.1,0.4,0.3,0.4c2.8,0.8,3.3,1.5,3.8,5c0,0.2,0.2,0.4,0.4,0.4l0,0c0.2,0,0.4-0.1,0.4-0.4
		c0.7-3.4,1.3-4.1,4.1-4.8c0.2,0,0.3-0.2,0.3-0.4C81.8,49.7,81.6,49.5,81.4,49.4z"/>
</g>
</svg>
