<?xml version="1.0" encoding="utf-8"?>
<!-- Generator: Adobe Illustrator 24.3.0, SVG Export Plug-In . SVG Version: 6.00 Build 0)  -->
<svg version="1.1" id="Layer_1" xmlns="http://www.w3.org/2000/svg" xmlns:xlink="http://www.w3.org/1999/xlink" x="0px" y="0px"
	 viewBox="0 0 512 512" style="enable-background:new 0 0 512 512;" xml:space="preserve">
<style type="text/css">
	.st0{fill:#FFFFFF;}
</style>
<path class="st0" d="M291.4,267.6h17.4c3.4,0,5.5,2.4,6.4,7.1c0.4,2.2,0.7,5.3,0.8,9.8l184.2-30c0,0,0.7-6.4,0.7-12.6
	c0-6.1-0.6-13.9-3.8-14.3l-214.5-14.2c0-34.5,0-72.7,0-90.8C282.6,85.5,270,38,256,38l0,0l0,0l0,0l0,0c-14,0-26.6,47.5-26.6,84.8
	c0,18.1,0,56.2,0,90.8L14.9,227.7c-3.2,0.3-3.8,8.1-3.8,14.3c0,6.1,0.7,12.6,0.7,12.6l184.2,30c0.1-4.5,0.4-7.6,0.8-9.8
	c0.9-4.7,3-7.1,6.4-7.1h17.4c5.1,0,6.1,6.7,6.4,8.9c0.3,2,0.5,4.6,0.6,7.7h-3.4c-0.3-8.2-1.3-13.2-3.6-13.2c-3,0-14.5,0-17.4,0
	c-2.4,0-3.5,2.9-3.8,14c0,1.1-0.1,2.3-0.1,3.5c0,0.1,0,0.2,0,0.2c0,0.5,0,1,0,1.6c0,0.1,0,0.3,0,0.4c0,0.6,0,1.3,0,2
	c0,17.1,3,31.8,8.7,44.2h11.3v-1l0.1,0.6c0,0.1-0.1,0.2-0.1,0.4l0,0c0-0.1,0.1-0.2,0.1-0.4l4.2,20.8l14,12.1
	c2.8,15.6,6.6,32.7,11.5,51.2l-91.1,18v21.6l96.3,7.3c0,0,0,6.4,1.6,6.4l0,0l0,0l0,0l0,0c1.6,0,1.6-6.4,1.6-6.4l96.3-7.3v-21.6
	l-91.1-17.9c5-18.4,8.7-35.6,11.5-51.2l14-12.1l4.3-21.4v1H304c5.7-12.5,8.7-27.2,8.7-44.2c0-0.7,0-1.3,0-2c0-0.1,0-0.3,0-0.4
	c0-0.5,0-1.1,0-1.6c0-0.1,0-0.2,0-0.2c0-1.3,0-2.4-0.1-3.5c-0.3-11.1-1.4-14-3.8-14c-2.9,0-14.4,0-17.4,0c-2.3,0-3.3,5-3.6,13.2
	h-3.4c0.1-3.2,0.3-5.7,0.6-7.7C285.3,274.3,286.3,267.6,291.4,267.6z"/>
</svg>
