<?xml version="1.0" encoding="utf-8"?>
<!-- Generator: Adobe Illustrator 24.3.0, SVG Export Plug-In . SVG Version: 6.00 Build 0)  -->
<svg version="1.1" id="Layer_1" xmlns="http://www.w3.org/2000/svg" xmlns:xlink="http://www.w3.org/1999/xlink" x="0px" y="0px"
	 viewBox="0 0 512 512" style="enable-background:new 0 0 512 512;" xml:space="preserve">
<style type="text/css">
	.st0{fill:#FFFFFF;}
</style>
<path class="st0" d="M497.1,313.5c-3-8.7-9.1-11.1-9.1-11.1l-151.6-81c3.3-18.5,4.7-34.5,2.7-50.2c-0.4-3-0.9-5.9-2.4-5.9
	c-5.7,0-8.4,0-8.4,0h-9.5c0,0-2.6,0-8.4,0c-1.5,0-2.1,2.9-2.4,5.9c-1.2,10.5-1.2,26-0.9,32.6c-16-11.5-24.7-22-24.7-22v-65.9
	c0-28.4-3.7-45.8-9.8-66S261.4,17.5,256,17.5s-10.6,12.2-16.7,32.4c-6.1,20.2-9.8,37.6-9.8,66v65.9c0,0-8.7,10.5-24.7,22
	c0.3-6.6,0.4-22.1-0.9-32.6c-0.4-3-0.9-5.9-2.4-5.9c-5.7,0-8.4,0-8.4,0h-9.5c0,0-2.6,0-8.4,0c-1.5,0-2.1,2.9-2.4,5.9
	c-2,15.7-0.6,31.7,2.7,50.2l-151.6,81c0,0-6,2.4-9.1,11.1c-3,8.7-4.8,13.2-8.9,18.2c0,3,0,9.4,0,9.4l9.5-10.6l6.4-3.5l89-28.4
	l17.7-5.4c0.2,3.4,0.8,8.2,2.4,11.6c1.9-3.9,2.4-9.8,2.5-13.1l31.2-9.5c0.2,3.4,0.7,8.7,2.5,12.3c2.1-4.2,2.5-10.8,2.5-13.8
	l13.6-4.1h12.1c0.1,3.3,0.6,9,2.5,12.8c1.9-3.8,2.4-9.5,2.5-12.8H229c0,0,0,21.2,0,60.5s10.1,84.1,10.1,84.1l-84.2,58.2v15.1
	l95.2-27L256,487l5.9-19.5l95.2,27v-15.1L272.9,421c0,0,10.1-44.8,10.1-84.1s0-60.5,0-60.5h28.6c0.1,3.3,0.6,9,2.5,12.8
	c1.9-3.8,2.4-9.5,2.5-12.8h12.1l13.6,4.1c0.1,3,0.4,9.6,2.5,13.8c1.8-3.6,2.3-8.9,2.5-12.3l31.2,9.5c0.1,3.3,0.6,9.2,2.5,13.1
	c1.7-3.3,2.2-8.2,2.4-11.6l17.7,5.4l89,28.4l6.4,3.5l9.5,10.6c0,0,0-6.4,0-9.4C501.9,326.6,500.2,322.2,497.1,313.5z"/>
</svg>
