<?xml version="1.0" encoding="utf-8"?>
<!-- Generator: Adobe Illustrator 25.0.0, SVG Export Plug-In . SVG Version: 6.00 Build 0)  -->
<svg version="1.1"
	 id="Layer_1" xmlns:cc="http://creativecommons.org/ns#" xmlns:dc="http://purl.org/dc/elements/1.1/" xmlns:inkscape="http://www.inkscape.org/namespaces/inkscape" xmlns:rdf="http://www.w3.org/1999/02/22-rdf-syntax-ns#" xmlns:sodipodi="http://sodipodi.sourceforge.net/DTD/sodipodi-0.dtd" xmlns:svg="http://www.w3.org/2000/svg"
	 xmlns="http://www.w3.org/2000/svg" xmlns:xlink="http://www.w3.org/1999/xlink" x="0px" y="0px" viewBox="0 0 64 64"
	 style="enable-background:new 0 0 64 64;" xml:space="preserve">
<style type="text/css">
	.st0{fill-rule:evenodd;clip-rule:evenodd;fill:#FFFFFF;}
</style>
<path class="st0" d="M20.5,52.1c12-0.6,30.8-19.4,31.5-31.3c0.4-7.1-4-11.3-6.8-11.3l-2.5,0.1c-1.3-0.1-1.9,1.1-2.4,2.4
	c-0.8,2.7-2,5.4-2.9,8c-0.4,1.1,0.4,2.1,0.8,2.8c0.9,0.9,1.5,1.6,2.4,2.4c0.6,0.7,0.9,1.3,0.2,2.1C37.9,33.3,32.9,38.3,27,41
	c-0.8,0.6-1.5,0.4-2.1-0.4c-0.9-0.9-1.6-1.6-2.4-2.4c-0.6-0.6-1.6-1.1-2.7-0.8c-2.6,0.9-5.4,1.9-8.1,2.8c-1.3,0.5-2.5,0.9-2.5,2.3
	l-0.1,2.6C9.3,48,13.7,52.4,20.5,52.1z"/>
</svg>
