<?xml version="1.0" encoding="utf-8"?>
<!-- Generator: Adobe Illustrator 25.2.3, SVG Export Plug-In . SVG Version: 6.00 Build 0)  -->
<svg version="1.1"
	 id="Layer_1" xmlns:cc="http://creativecommons.org/ns#" xmlns:dc="http://purl.org/dc/elements/1.1/" xmlns:inkscape="http://www.inkscape.org/namespaces/inkscape" xmlns:rdf="http://www.w3.org/1999/02/22-rdf-syntax-ns#" xmlns:sodipodi="http://sodipodi.sourceforge.net/DTD/sodipodi-0.dtd" xmlns:svg="http://www.w3.org/2000/svg"
	 xmlns="http://www.w3.org/2000/svg" xmlns:xlink="http://www.w3.org/1999/xlink" x="0px" y="0px" viewBox="0 0 64 64"
	 style="enable-background:new 0 0 64 64;" xml:space="preserve">
<style type="text/css">
	.st0{fill:#FFFFFF;}
</style>
<path class="st0" d="M17.2,40.9h5.9c0,3.2,4,5.9,8.9,5.9s8.9-2.7,8.9-5.9c0-3.2-3.1-4.4-9.6-6c-6.3-1.6-14.1-3.5-14.1-11.7
	c0-5.3,4.3-9.8,10.3-11.3V5.4h8.9v6.4c6,1.5,10.3,6,10.3,11.3h-5.9c0-3.2-4-5.9-8.9-5.9s-8.9,2.7-8.9,5.9c0,3.2,3.1,4.4,9.6,6
	c6.3,1.6,14.1,3.5,14.1,11.7c0,5.3-4.3,9.8-10.3,11.3v6.4h-8.9v-6.4C21.6,50.6,17.2,46.1,17.2,40.9z"/>
</svg>
