<?xml version="1.0" encoding="utf-8"?>
<!-- Generator: Adobe Illustrator 25.0.1, SVG Export Plug-In . SVG Version: 6.00 Build 0)  -->
<svg version="1.1" id="Layer_1" xmlns="http://www.w3.org/2000/svg" xmlns:xlink="http://www.w3.org/1999/xlink" x="0px" y="0px"
	 viewBox="0 0 512 512" style="enable-background:new 0 0 512 512;" xml:space="preserve">
<style type="text/css">
	.st0{fill:#FFFFFF;}
</style>
<path class="st0" d="M454.4,136.9h-83.3c2-6,4-11.9,4-19.8c0-33.7-25.8-59.5-59.5-59.5c-27.8,0-47.6,21.8-59.5,45.6
	c-11.9-23.8-31.7-45.6-59.5-45.6c-33.7,0-59.5,25.8-59.5,59.5c0,7.9,2,13.9,4,19.8H57.6V256h19.8v198.4h357.2V256h19.8V136.9z
	 M414.7,216.3H275.8v-39.7h138.9V216.3z M315.5,97.3c11.9,0,19.8,7.9,19.8,19.8s-7.9,19.8-19.8,19.8h-31.7
	C291.7,117.1,303.6,97.3,315.5,97.3z M176.6,117.1c0-11.9,7.9-19.8,19.8-19.8s23.8,19.8,31.7,39.7h-31.7
	C184.6,136.9,176.6,129,176.6,117.1z M97.3,176.6h138.9v39.7H97.3V176.6z M117.1,256h119.1v158.7H117.1V256z M394.9,414.7H275.8V256
	h119.1V414.7z"/>
</svg>
