<?xml version="1.0" encoding="utf-8"?>
<!-- Generator: Adobe Illustrator 25.0.0, SVG Export Plug-In . SVG Version: 6.00 Build 0)  -->
<svg version="1.1"
	 id="Layer_1" xmlns:cc="http://creativecommons.org/ns#" xmlns:dc="http://purl.org/dc/elements/1.1/" xmlns:inkscape="http://www.inkscape.org/namespaces/inkscape" xmlns:rdf="http://www.w3.org/1999/02/22-rdf-syntax-ns#" xmlns:sodipodi="http://sodipodi.sourceforge.net/DTD/sodipodi-0.dtd" xmlns:svg="http://www.w3.org/2000/svg"
	 xmlns="http://www.w3.org/2000/svg" xmlns:xlink="http://www.w3.org/1999/xlink" x="0px" y="0px" viewBox="0 0 64 64"
	 style="enable-background:new 0 0 64 64;" xml:space="preserve">
<style type="text/css">
	.st0{fill-rule:evenodd;clip-rule:evenodd;fill:#FFFFFF;}
</style>
<path class="st0" d="M54.3,27.5c-8.9-8-35.5-8.1-44.4-0.1c-5.3,4.7-5.2,10.8-3.2,12.8l1.8,1.7c0.9,1,2.1,0.6,3.4,0
	c2.5-1.3,5.2-2.4,7.7-3.6c1.1-0.5,1.2-1.7,1.4-2.5c0-1.3,0.1-2.2,0-3.4c0.1-0.9,0.3-1.6,1.3-1.6c6.3-2.3,13.4-2.3,19.5,0
	c1,0.2,1.3,0.8,1.2,1.7c0,1.3,0,2.2,0,3.4c0,0.8,0.3,1.9,1.3,2.5c2.5,1.2,5.2,2.5,7.7,3.7c1.3,0.6,2.4,1.1,3.4,0.1l1.9-1.8
	C59.3,38.3,59.3,32.1,54.3,27.5z"/>
</svg>
