<?xml version="1.0" encoding="utf-8"?>
<!-- Generator: Adobe Illustrator 25.0.0, SVG Export Plug-In . SVG Version: 6.00 Build 0)  -->
<svg version="1.1" id="Layer_1" xmlns="http://www.w3.org/2000/svg" xmlns:xlink="http://www.w3.org/1999/xlink" x="0px" y="0px"
	 viewBox="0 0 1024 1024" style="enable-background:new 0 0 1024 1024;" xml:space="preserve">
<style type="text/css">
	.st0{fill:#FFFFFF;}
	.st1{fill:none;stroke:#FFFFFF;stroke-width:30;stroke-linecap:round;stroke-miterlimit:10;}
</style>
<g>
	<path class="st0" d="M606.4,179.3c0.2,0,0.3,0,0.3,0c0.1,0.1,0.3,0.3,0.7,0.8l383,664.2c-0.2,0.1-0.4,0.2-0.7,0.3H526H222.7H34.1
		c-0.2,0-0.4,0-0.4,0l-0.1-0.1l245.4-426c0.3-0.4,1-0.8,1.3-0.9c0.2,0,0.3,0,0.3,0c0.1,0.1,0.3,0.3,0.7,0.7l64.6,112.6l28.7,50
		l28.8-50l201.9-350.8C605.4,179.7,606,179.4,606.4,179.3 M606.2,146.2c-11.5,0-23,6.4-29.4,16.6L374.4,514.5l-65-113.4
		c-6.4-10.2-16.6-16.6-29.4-16.6c-11.5,0-23,6.4-29.4,16.6L4.7,828c-6.4,10.2-6.4,23,0,33.1c6.4,10.2,16.6,16.6,29.4,16.6h188.6H526
		h463.9c11.5,0,23-6.4,29.4-16.6c6.3-10.2,6.3-22.8,0-33.1L635.6,162.7C629.2,152.6,619,146.2,606.2,146.2L606.2,146.2z"/>
</g>
<line class="st1" x1="914.2" y1="800.5" x2="606.2" y2="266.5"/>
<g>
	<line class="st1" x1="837.8" y1="756.3" x2="606.4" y2="355"/>
</g>
<g>
	<line class="st1" x1="761.4" y1="712.2" x2="606.4" y2="443.4"/>
</g>
<polyline class="st1" points="374.3,669.7 355.1,636.3 307.4,552.9 279.9,505.1 "/>
<polyline class="st1" points="373.1,756.3 355.1,725 336,691.5 316.8,658.2 279.8,593.7 "/>
<line class="st1" x1="296.8" y1="712.2" x2="279.7" y2="682.3"/>
</svg>
