<?xml version="1.0" encoding="utf-8"?>
<!-- Generator: Adobe Illustrator 25.0.1, SVG Export Plug-In . SVG Version: 6.00 Build 0)  -->
<svg version="1.1" id="Layer_1" xmlns="http://www.w3.org/2000/svg" xmlns:xlink="http://www.w3.org/1999/xlink" x="0px" y="0px"
	 viewBox="0 0 128 128" style="enable-background:new 0 0 128 128;" xml:space="preserve">
<style type="text/css">
	.st0{fill:#FFFFFF;}
</style>
<path class="st0" d="M64,117c-25.6,0-46.4-20.8-46.4-46.4c0-3.7,3-6.6,6.6-6.6s6.6,3,6.6,6.6c0,18.3,14.9,33.1,33.1,33.1
	s33.1-14.9,33.1-33.1c0-17.3-13.3-31.5-30.2-33l1.8,1.8c2.6,2.6,2.6,6.8,0,9.4c-1.3,1.3-3,1.9-4.7,1.9c-1.7,0-3.4-0.6-4.7-1.9
	L46.1,35.5c-2.6-2.6-2.6-6.8,0-9.4l13.3-13.3c2.6-2.6,6.8-2.6,9.4,0c2.6,2.6,2.6,6.8,0,9.4l-2.1,2.1c24.4,1.4,43.8,21.6,43.8,46.3
	C110.4,96.2,89.6,117,64,117z"/>
</svg>
