<?xml version="1.0" encoding="utf-8"?>
<!-- Generator: Adobe Illustrator 25.0.0, SVG Export Plug-In . SVG Version: 6.00 Build 0)  -->
<svg version="1.1" id="Layer_1" xmlns="http://www.w3.org/2000/svg" xmlns:xlink="http://www.w3.org/1999/xlink" x="0px" y="0px"
	 viewBox="0 0 64 64" style="enable-background:new 0 0 64 64;" xml:space="preserve">
<style type="text/css">
	.st0{fill:#FFFFFF;}
</style>
<g>
	<path class="st0" d="M15.7,41.6c2.3,0,4.5-0.8,6.2-2.3l17.1,11.3c-0.4,1.1-0.6,2.2-0.6,3.3c0,5.3,4.3,9.7,9.7,9.7s9.7-4.3,9.7-9.7
		c0-5.1-4-9.3-9.1-9.7l0,0h-0.2c-0.2,0-0.3,0-0.5,0c-3,0-5.8,1.4-7.6,3.6L24,37c0.9-1.5,1.4-3.2,1.4-5c0-1.8-0.5-3.6-1.4-5l16.6-11
		c1.9,2.3,4.6,3.7,7.6,3.7c0.2,0,0.3,0,0.5,0h0.1l0,0c5.1-0.3,9.1-4.6,9.1-9.7c0-5.3-4.3-9.7-9.7-9.7s-9.7,4.3-9.7,9.7
		c0,1.2,0.2,2.2,0.6,3.2L22,24.5c-1.7-1.5-3.9-2.3-6.2-2.3c-5.3,0-9.7,4.3-9.7,9.7S10.4,41.6,15.7,41.6z"/>
</g>
</svg>
