<?xml version="1.0" encoding="utf-8"?>
<!-- Generator: Adobe Illustrator 25.0.0, SVG Export Plug-In . SVG Version: 6.00 Build 0)  -->
<svg version="1.1" id="Layer_1" xmlns="http://www.w3.org/2000/svg" xmlns:xlink="http://www.w3.org/1999/xlink" x="0px" y="0px"
	 viewBox="0 0 1024 1024" style="enable-background:new 0 0 1024 1024;" xml:space="preserve">
<style type="text/css">
	.st0{fill:#FF0000;}
	.st1{fill:#FFFFFF;}
</style>
<path class="st0" d="M309.4,401.1c-6.4-10.2-16.6-16.6-29.4-16.6c-11.5,0-23,6.4-29.4,16.6L217.4,459h125.2L309.4,401.1z"/>
<path class="st0" d="M606.2,146.2c-11.5,0-23,6.4-29.4,16.6L406.4,459h400.1L635.6,162.7C629.2,152.6,619,146.2,606.2,146.2z"/>
<g>
	<path class="st1" d="M787.3,492.1l203.2,352.1c-0.2,0.1-0.4,0.2-0.7,0.3H526H222.7H34.1c-0.2,0-0.4,0-0.4,0l-0.1-0.1l203-352.3h87
		l22.3,38.8l28.6,50l28.8-49.9l22.4-39H787.3 M806.4,459h-400l-32,55.5L342.6,459H217.4L4.7,828c-6.4,10.2-6.4,23,0,33.1
		c6.4,10.2,16.6,16.6,29.4,16.6h188.6H526h463.9c11.5,0,23-6.4,29.4-16.6c6.3-10.2,6.3-22.8,0-33.1L806.4,459L806.4,459z"/>
</g>
</svg>
