<?xml version="1.0" encoding="utf-8"?>
<!-- Generator: Adobe Illustrator 24.2.3, SVG Export Plug-In . SVG Version: 6.00 Build 0)  -->
<svg version="1.1" id="Layer_1" xmlns="http://www.w3.org/2000/svg" xmlns:xlink="http://www.w3.org/1999/xlink" x="0px" y="0px"
	 viewBox="0 0 200.3 79.9" style="enable-background:new 0 0 200.3 79.9;" xml:space="preserve">
<style type="text/css">
	.st0{fill:#FFFFFF;}
</style>
<path class="st0" d="M149.8,0H82.4c-3.3,0-6,2.7-6,6v42.1h79.3V6C155.7,2.7,153,0,149.8,0z"/>
<path class="st0" d="M76.4,63.3c0,3.3,2.7,6,6,6h5.8c0-7.4,5.9-13.3,13.3-13.3s13.3,5.9,13.3,13.3h41.1V51.6H76.4V63.3z"/>
<path class="st0" d="M197.8,49.3h2.3V44c0-0.7-0.3-1.7-0.6-2.2l-12.1-19.4c-0.7-1.1-2.3-2-3.6-2h-23.9v48.8h6.8
	c0-7.4,5.9-13.3,13.3-13.3c7.4,0,13.3,5.9,13.3,13.3h4.6c1.3,0,2.4-1.1,2.4-2.4v-9.9H198c-2.1,0-3.8-1.7-3.8-3.8
	C193.9,51,195.6,49.3,197.8,49.3z M168.4,42.9V26.4h14.2l10.3,16.4L168.4,42.9L168.4,42.9z"/>
<path class="st0" d="M101.3,58.7c-5.8,0-10.6,4.7-10.6,10.6c0,5.9,4.8,10.6,10.6,10.6c5.8,0,10.6-4.7,10.6-10.6
	S107.2,58.7,101.3,58.7z M101.3,73.5c-2.3,0-4.2-1.9-4.2-4.2s1.9-4.2,4.2-4.2c2.3,0,4.2,1.9,4.2,4.2
	C105.6,71.6,103.7,73.5,101.3,73.5z"/>
<path class="st0" d="M179.8,58.7c-5.8,0-10.6,4.8-10.6,10.6s4.7,10.6,10.6,10.6c5.8,0,10.6-4.7,10.6-10.6
	C190.3,63.4,185.6,58.7,179.8,58.7z M179.8,73.5c-2.3,0-4.2-1.9-4.2-4.2s1.9-4.2,4.2-4.2s4.2,1.9,4.2,4.2
	C184,71.6,182.1,73.5,179.8,73.5z"/>
<path class="st0" d="M5.9,45.7h41.2l-19,18.9c-2.3,2.3-2.3,5.9,0,8.2s5.9,2.3,8.2,0l24.8-24.7l8.2-8.3l-8.2-8.2L36.4,7
	c-2.3-2.3-5.9-2.3-8.2,0s-2.3,5.9,0,8.2L47,34.1H5.9c-3.3,0-5.9,2.5-5.9,5.8S2.5,45.7,5.9,45.7z"/>
</svg>
