<?xml version="1.0" encoding="utf-8"?>
<!-- Generator: Adobe Illustrator 24.2.3, SVG Export Plug-In . SVG Version: 6.00 Build 0)  -->
<svg version="1.1" id="Layer_1" xmlns="http://www.w3.org/2000/svg" xmlns:xlink="http://www.w3.org/1999/xlink" x="0px" y="0px"
	 viewBox="0 0 200.1 129.1" style="enable-background:new 0 0 200.1 129.1;" xml:space="preserve">
<style type="text/css">
	.st0{fill:#FFFFFF;}
</style>
<path class="st0" d="M118.7,0H9.7C4.4,0,0,4.3,0,9.7v68.1h128.3V9.6C128.3,4.3,124,0,118.7,0z"/>
<path class="st0" d="M0,102.3c0,5.3,4.3,9.7,9.7,9.7H19c0-11.9,9.6-21.5,21.5-21.5S62,100.1,62,112h66.4V83.3H0V102.3z"/>
<path class="st0" d="M196.3,79.7h3.7v-8.5c0-1.1-0.5-2.7-1-3.6l-19.6-31.4c-1.1-1.8-3.8-3.3-5.9-3.3h-38.7v78.9h11
	c0-11.9,9.6-21.5,21.5-21.5s21.5,9.6,21.5,21.5h7.4c2.1,0,3.9-1.7,3.9-3.9V92h-3.7c-3.4,0-6.2-2.8-6.2-6.2
	C190.1,82.5,192.9,79.7,196.3,79.7z M148.9,69.3V42.7h23l16.6,26.6L148.9,69.3z"/>
<path class="st0" d="M40.4,94.9c-9.4,0-17.1,7.6-17.1,17.1s7.7,17.1,17.1,17.1s17.1-7.6,17.1-17.1S49.9,94.9,40.4,94.9z M40.4,118.8
	c-3.8,0-6.8-3.1-6.8-6.8c0-3.8,3.1-6.8,6.8-6.8c3.8,0,6.8,3.1,6.8,6.8C47.3,115.7,44.2,118.8,40.4,118.8z"/>
<path class="st0" d="M167.2,94.9c-9.4,0-17.1,7.7-17.1,17.1c0,9.4,7.6,17.1,17.1,17.1c9.4,0,17.1-7.6,17.1-17.1
	S176.7,94.9,167.2,94.9z M167.2,118.8c-3.8,0-6.8-3.1-6.8-6.8c0-3.8,3.1-6.8,6.8-6.8c3.8,0,6.8,3.1,6.8,6.8
	C174.1,115.7,171,118.8,167.2,118.8z"/>
</svg>
