<?xml version="1.0" encoding="utf-8"?>
<!-- Generator: Adobe Illustrator 22.0.1, SVG Export Plug-In . SVG Version: 6.00 Build 0)  -->
<svg version="1.1" id="Layer_1" xmlns="http://www.w3.org/2000/svg" xmlns:xlink="http://www.w3.org/1999/xlink" x="0px" y="0px"
	 viewBox="0 0 200 200" style="enable-background:new 0 0 200 200;" xml:space="preserve">
<style type="text/css">
	.st0{fill:#FFFFFF;}
</style>
<path class="st0" d="M196.9,186H3.1c-1.7,0-3.1-1.4-3.1-3.1V16.2C0,14.4,1.4,13,3.1,13h193.8c1.7,0,3.1,1.4,3.1,3.1v166.7
	C200,184.6,198.6,186,196.9,186z M154.4,179.7h39.4v-68.5L154.4,179.7z M52.8,179.7h94.3l46.1-80.2l-46.1-80.2H52.8L6.7,99.5
	L52.8,179.7z M6.3,179.7h39.4L6.3,111.2V179.7z M154.4,19.3l39.4,68.5V19.3H154.4z M6.3,19.3v68.5l39.4-68.5H6.3z"/>
<circle class="st0" cx="99" cy="99.5" r="14.6"/>
</svg>
