<?xml version="1.0" encoding="utf-8"?>
<!-- Generator: Adobe Illustrator 25.0.0, SVG Export Plug-In . SVG Version: 6.00 Build 0)  -->
<svg version="1.1" id="Layer_1" xmlns="http://www.w3.org/2000/svg" xmlns:xlink="http://www.w3.org/1999/xlink" x="0px" y="0px"
	 viewBox="0 0 100 100" style="enable-background:new 0 0 100 100;" xml:space="preserve">
<style type="text/css">
	.st0{fill:#FFFFFF;}
</style>
<path class="st0" d="M49.9,21.1c-1.1,0.2-1.6,1.4-1.6,2.2l-0.2,7.2c-1.5,3.2-13.5,28.9-19.7,42.9c-0.4,0.8,3.1,3.3,3.7,2.6
	c1.6-2.2,2.9-4.5,4.5-6.6c1.6-2.1,3.3-4.3,5.5-5.8c0.6-0.4,1.3-0.8,2-1.1c0.7-0.3,1.3-0.5,2-0.7c0.1,0,1.6-0.3,1.6-0.2
	c0,0,0,9.2,0,9.2c-1.4,1.5-2.8,3-4.2,4.6c-0.5,0.5-1,1-1.4,1.5c-0.2,0.3-0.6,0.6-0.6,1c0,0.9,1.6,1,2.2,1h6.3h0.2h6.3
	c0.6,0,2.2-0.1,2.2-1c0-0.4-0.4-0.8-0.6-1c-0.4-0.5-1-1-1.4-1.5c-1.4-1.5-2.8-3-4.2-4.6c0,0,0-9.2,0-9.2c0,0,1.5,0.2,1.6,0.2
	c0.7,0.2,1.4,0.4,2,0.7c0.7,0.3,1.4,0.6,2,1.1c2.2,1.5,4,3.7,5.5,5.8c1.6,2.1,2.9,4.4,4.5,6.6c0.5,0.7,4-1.7,3.7-2.6
	c-6.2-14.1-18.2-39.7-19.7-42.9l-0.2-7.2c0-0.8-0.5-2-1.6-2.2C50,21.1,50,21.1,49.9,21.1z"/>
</svg>
