<?xml version="1.0" encoding="utf-8"?>
<!-- Generator: Adobe Illustrator 25.0.0, SVG Export Plug-In . SVG Version: 6.00 Build 0)  -->
<svg version="1.1" id="Layer_1" xmlns="http://www.w3.org/2000/svg" xmlns:xlink="http://www.w3.org/1999/xlink" x="0px" y="0px"
	 viewBox="0 0 100 100" style="enable-background:new 0 0 100 100;" xml:space="preserve">
<style type="text/css">
	.st0{fill:#FFFFFF;}
	.st1{fill:url(#SVGID_1_);}
	.st2{fill:#76AD43;}
	.st3{fill:#669A49;}
</style>
<g id="bg_1_">
	<rect class="st0" width="100" height="100"/>
	
		<linearGradient id="SVGID_1_" gradientUnits="userSpaceOnUse" x1="-131.7989" y1="-3422.7207" x2="-140.4228" y2="-3407.7837" gradientTransform="matrix(7.92 0 0 -7.92 1127.998 -26998.7988)">
		<stop  offset="0" style="stop-color:#FFFFFF;stop-opacity:0"/>
		<stop  offset="1" style="stop-color:#FFFFFF;stop-opacity:0.2"/>
	</linearGradient>
	<rect class="st1" width="100" height="100"/>
</g>
<g>
	<g>
		<path class="st2" d="M39.8,77.9c0,0.4,0,0.7,0,0.9c0,0.2,0,0.3,0,0.3c0,0.2,0,0.3,0,0.5c-0.2,1.5-1.5,2.8-2.8,3.6
			c-0.1,0.1,0,0.2,0.1,0.2h12.8h0c0.1,0,0.2-0.1,0.1-0.2c0,0-0.1,0-0.1-0.1c-0.6-0.4-1.2-0.9-1.7-1.5c-0.2-0.3-0.4-0.6-0.6-0.8
			c-0.1-0.3-0.3-0.6-0.3-0.8c-0.1-0.3-0.1-0.6-0.1-0.9c0,0,0-0.3,0-0.9c0-0.2,0-0.5,0-0.8c0-0.2,0-0.5,0-0.8c0-4.7,0-15.1,0-22.7
			c-2.5-0.8-4.9-1.6-7.3-2.6V77.9z"/>
		<path class="st2" d="M52.2,16.5L52.2,16.5c-0.1,0-0.2,0.1-0.1,0.2c0,0,0.1,0,0.1,0.1c0.3,0.2,0.7,0.5,1,0.7
			c0.3,0.3,0.6,0.6,0.8,0.9c0.2,0.3,0.4,0.6,0.6,0.9c0.2,0.5,0.4,1,0.4,1.5c0,0,0,0.1,0,0.3c0,0.2,0,0.4,0,0.6c0,0,0,0.1,0,0.2
			c0,0,0,0.1,0,0.2c0,0.2,0,0.4,0,0.7c0,3.8,0,13.2,0,19.4c2.4,0.8,4.9,1.8,7.3,3V26.3c0-0.3,0-0.7,0-1c0,0,0,0,0,0c0-0.3,0-0.7,0-1
			c0-0.5,0-0.9,0-1.3c0-0.4,0-0.7,0-1c0-0.4,0-0.7,0-0.9c0-0.2,0-0.4,0-0.4c0-0.2,0-0.4,0.1-0.5c0.3-1.5,1.5-2.8,2.8-3.6
			c0.1-0.1,0-0.2-0.1-0.2H52.2z"/>
		<path class="st2" d="M37.1,16.5c-0.1,0-0.2,0.1-0.1,0.2c1.1,0.7,2.1,1.8,2.6,3c0.1,0.3,0.2,0.5,0.2,0.8c0,0.1,0,0.3,0,0.4
			c0,0,0,0.2,0,0.5c0,0.2,0,0.6,0,1c0,0.2,0,0.6,0,1c0,0.3,0,0.6,0,0.9c0,0,0,0,0,0c0,0.3,0,0.6,0,0.9c0,2.9,0,7.9,0,11.3
			c0.4,0.2,0.8,0.4,1.2,0.6c0.7,0.3,1.4,0.6,2.2,1c1.2,0.5,2.5,1.1,3.9,1.6c0-4.8,0-13.7,0-17.1c0-0.2,0-0.5,0-0.7c0,0,0,0,0,0
			c0,0,0-0.1,0-0.1c0-0.5,0-0.8,0-0.8c0,0,0,0,0,0c0-0.6,0.2-1.2,0.5-1.8c0.2-0.3,0.4-0.6,0.6-0.9c0.3-0.3,0.5-0.6,0.8-0.9
			c0.3-0.2,0.5-0.4,0.8-0.6c0,0,0.1,0,0.1-0.1c0.1-0.1,0-0.2-0.1-0.2c0,0,0,0,0,0H37.1z"/>
		<path class="st2" d="M62.2,59.1c-0.6-0.3-1.2-0.6-1.8-0.8c-0.3-0.1-0.6-0.2-0.9-0.4c-1.5-0.6-3.1-1.1-4.6-1.6c0,5.9,0,15.4,0,20
			c0,0.3,0,0.6,0,0.8c0,0.3,0,0.6,0,0.8c0,0.8,0,1.2,0,1.2c0,0.2,0,0.4-0.1,0.6c-0.1,0.3-0.2,0.6-0.3,0.9c-0.1,0.3-0.3,0.6-0.5,0.9
			c-0.5,0.7-1.2,1.3-1.9,1.7c0,0-0.1,0-0.1,0.1c-0.1,0.1,0,0.2,0.1,0.2h0h12.8c0.1,0,0.2-0.1,0.1-0.2c-1.4-0.9-2.8-2.5-2.8-4.2
			c0,0,0-0.1,0-0.3V59.1z"/>
	</g>
	<g>
		<path class="st3" d="M52.7,22.5v-0.6v-0.3c0-0.2-0.1-0.4-0.1-0.6c0-0.1-0.1-0.2-0.1-0.2c-0.8-0.1-1.5-0.1-2.3-0.1
			c-0.2,0-0.3,0-0.5,0c0,0.1-0.1,0.1-0.1,0.2c-0.2,0.3-0.2,0.5-0.2,0.8v0.8c0.3,0,0.6,0,0.8,0C51,22.3,51.8,22.4,52.7,22.5z"/>
		<path class="st3" d="M49.3,77.7v0.7c0,0.1,0,0.2,0,0.3c0,0.1,0.1,0.3,0.2,0.4c0.1,0.1,0.1,0.2,0.2,0.3c0.1,0,0.3,0,0.4,0
			c0.8,0,1.5,0,2.2-0.1c0.1-0.1,0.2-0.2,0.2-0.4c0.1-0.1,0.1-0.3,0.1-0.4c0-0.1,0-0.1,0-0.2v-0.9c-0.8,0.1-1.7,0.2-2.6,0.2
			C49.8,77.7,49.6,77.7,49.3,77.7z"/>
		<path class="st3" d="M72.6,58.3c-0.2-1.7-1-3.2-2-4.5c-1.6-2.1-4-3.7-6.3-5c-1.1-0.6-2.2-1.1-3.2-1.6c-1.5-0.7-3-1.3-4.6-1.8
			c-1.3-0.5-2.6-0.9-3.9-1.4c-0.1,0-0.3-0.1-0.4-0.1c-1-0.3-2-0.7-3-1c-0.9-0.3-1.9-0.7-2.8-1c-2.1-0.8-4.2-1.6-6.2-2.6
			C40.2,39.1,40,39,39.8,39c-0.7-0.4-1.5-0.7-2.2-1.2c-1.9-1.1-3.6-2.6-4.1-4.7c-0.7-2.9,1.6-4.6,3.6-6.3c0.2-0.1,0.4-0.3,0.5-0.4
			v-0.5V25v0v-0.7c-0.4,0.2-0.7,0.4-1,0.7c-0.1,0.1-0.2,0.1-0.3,0.2c0,0-0.1,0-0.1,0.1c-3.1,2.3-5.4,5.2-6.7,8.8
			c-0.2,0.7-0.5,1.5-0.6,2.3c-1.2,5.5,3.8,9.2,8.7,11.6c1.7,0.8,3.3,1.5,4.7,2c2.3,0.9,4.6,1.6,7,2.3c0,0,0.1,0,0.1,0
			c1.1,0.3,2.2,0.7,3.3,1c0.7,0.2,1.4,0.4,2.2,0.6c3.3,1,6.5,2.2,9.5,3.8c1,0.5,1.9,1.1,2.8,1.8c1.9,1.4,3.4,3.3,2.7,5.6
			c-0.7,2.5-2.7,4.9-4.6,6.8c-0.3,0.3-0.6,0.5-0.9,0.8v0.6v1v0.7c0.6-0.4,1.1-0.8,1.6-1.3c0.2-0.2,0.4-0.3,0.6-0.5
			c0.2-0.2,0.4-0.3,0.5-0.5c1.9-1.9,3.4-4.1,4.4-6.6C72.5,63.6,73,60.9,72.6,58.3z"/>
		<path class="st3" d="M65,34.9c-1,1.1-1,3.2,0.3,4.1c1.6,1.1,3.9-0.1,4.7-1.7c0.4-0.8,0.6-1.6,0.6-2.5c0-0.5,0-1-0.1-1.5
			c-0.2-0.8-0.5-1.6-1-2.4c-0.1-0.2-0.2-0.3-0.3-0.5c0,0,0,0,0-0.1c-1.3-2-2.9-3.7-4.8-5.1v0.8v1v0.8c0.2,0.2,0.5,0.5,0.7,0.7
			c0.6,0.6,1.2,1.2,1.7,1.9c0.1,0.2,0.2,0.4,0.3,0.6c0,0,0,0,0,0.1c0,0.1,0.1,0.1,0.1,0.2c0.3,0.6,0.4,1.4,0,2
			C66.6,34,65.6,34.2,65,34.9z"/>
		<path class="st3" d="M32.8,60.8c1.2-0.7,2.5-0.9,3.5-1.9c1.9-1.8,1.9-5.1-0.8-6.2c-4.5-1.7-8.2,3.1-8.3,7.1c0,0.7,0,1.3,0.1,2
			c0.6,4,2.5,7.5,5.5,10.4c1.4,1.5,3,2.8,4.8,3.8v-0.8v-0.9v-0.4c-2-1.3-3.8-2.8-5-4.7C30.8,66.5,29.3,62.9,32.8,60.8z"/>
	</g>
</g>
</svg>
