<?xml version="1.0" encoding="utf-8"?>
<!-- Generator: Adobe Illustrator 23.0.3, SVG Export Plug-In . SVG Version: 6.00 Build 0)  -->
<svg version="1.1" id="Layer_1" xmlns="http://www.w3.org/2000/svg" xmlns:xlink="http://www.w3.org/1999/xlink" x="0px" y="0px"
	 viewBox="0 0 200 200" style="enable-background:new 0 0 200 200;" xml:space="preserve">
<style type="text/css">
	.st0{fill:#4285F4;}
</style>
<path class="st0" d="M166.4,92.5c-3.3-31.8-28.6-57.1-60.4-60.4V0H92v32.1c-31.8,3.3-57.1,28.6-60.4,60.4H0.3v14h31.4
	c3.3,31.8,28.6,57.1,60.4,60.4v33.6h14v-33.6c31.8-3.3,57.1-28.6,60.4-60.4H200v-14C200,92.5,166.4,92.5,166.4,92.5z M106,152.8
	c-2.3,0.3-4.6,0.5-7,0.5s-4.7-0.2-7-0.5c-24-3.1-43.1-22.2-46.3-46.3c-0.3-2.3-0.5-4.6-0.5-7s0.2-4.7,0.5-7
	C48.9,68.5,68,49.4,92,46.2c2.3-0.3,4.6-0.5,7-0.5s4.7,0.2,7,0.5c24,3.1,43.1,22.2,46.3,46.3c0.3,2.3,0.5,4.6,0.5,7s-0.2,4.7-0.5,7
	C149.1,130.5,130,149.6,106,152.8z"/>
</svg>
