<?xml version="1.0" encoding="utf-8"?>
<!-- Generator: Adobe Illustrator 24.1.2, SVG Export Plug-In . SVG Version: 6.00 Build 0)  -->
<svg version="1.1" id="Layer_1" xmlns="http://www.w3.org/2000/svg" xmlns:xlink="http://www.w3.org/1999/xlink" x="0px" y="0px"
	 viewBox="0 0 64 64" style="enable-background:new 0 0 64 64;" xml:space="preserve">
<g>
	<path d="M63.9,32.4c-1.2-9.8-9.7-17.1-19.6-16.9H12.9l2.2-2.2c1.5-1.5,1.5-3.9,0-5.3s-3.9-1.5-5.3,0l-8.6,8.6
		c-1.5,1.5-1.5,3.9,0,5.3l8.6,8.6c1.5,1.5,3.9,1.5,5.3,0s1.5-3.9,0-5.3l0,0L12.9,23h31.9c5.5-0.1,10.3,3.7,11.5,9
		c1.2,6.1-2.7,12.1-8.9,13.3c-0.7,0.1-1.5,0.2-2.2,0.2H7.5c-2.1,0-3.8,1.7-3.8,3.8v0c0,2.1,1.7,3.8,3.8,3.8h37.6
		c10.4,0,18.8-8.5,18.8-18.9C64,33.7,64,33,63.9,32.4z"/>
</g>
</svg>
