<?xml version="1.0" encoding="utf-8"?>
<!-- Generator: Adobe Illustrator 24.1.2, SVG Export Plug-In . SVG Version: 6.00 Build 0)  -->
<svg version="1.1" id="Layer_1" xmlns="http://www.w3.org/2000/svg" xmlns:xlink="http://www.w3.org/1999/xlink" x="0px" y="0px"
	 viewBox="0 0 64 64" style="enable-background:new 0 0 64 64;" xml:space="preserve">
<style type="text/css">
	.st0{fill:#FFFFFF;}
</style>
<g>
	<path class="st0" d="M39.2,32c0,4-3.2,7.2-7.2,7.2S24.8,36,24.8,32s3.2-7.2,7.2-7.2S39.2,28,39.2,32z M7.2,24.8C3.2,24.8,0,28,0,32
		s3.2,7.2,7.2,7.2s7.2-3.2,7.2-7.2S11.2,24.8,7.2,24.8z M56.8,24.8c-4,0-7.2,3.2-7.2,7.2s3.2,7.2,7.2,7.2S64,36,64,32
		S60.8,24.8,56.8,24.8z"/>
</g>
</svg>
