<?xml version="1.0" encoding="utf-8"?>
<!-- Generator: Adobe Illustrator 24.3.0, SVG Export Plug-In . SVG Version: 6.00 Build 0)  -->
<svg version="1.1" id="Layer_1" xmlns="http://www.w3.org/2000/svg" xmlns:xlink="http://www.w3.org/1999/xlink" x="0px" y="0px"
	 viewBox="0 0 64 64" style="enable-background:new 0 0 64 64;" xml:space="preserve">
<style type="text/css">
	.st0{fill:#EE3124;}
	.st1{fill:#FFFFFF;}
</style>
<g>
	<path class="st0" d="M61.6,17.1c-0.7-2.7-2.8-4.7-5.5-5.5C51.3,10.4,32,10.4,32,10.4s-19.3,0-24.1,1.3c-2.7,0.7-4.7,2.8-5.5,5.5
		C1.1,22,1.1,32,1.1,32s0,10,1.3,14.9c0.7,2.7,2.8,4.7,5.5,5.5c4.8,1.3,24.1,1.3,24.1,1.3s19.3,0,24.1-1.3c2.7-0.7,4.7-2.8,5.5-5.5
		C62.9,42,62.9,32,62.9,32S62.9,22,61.6,17.1z"/>
	<polygon class="st1" points="25.8,41.3 41.9,32 25.8,22.7 	"/>
</g>
</svg>
