<?xml version="1.0" encoding="utf-8"?>
<!-- Generator: Adobe Illustrator 26.5.0, SVG Export Plug-In . SVG Version: 6.00 Build 0)  -->
<svg version="1.1" id="Layer_1" xmlns="http://www.w3.org/2000/svg" xmlns:xlink="http://www.w3.org/1999/xlink" x="0px" y="0px"
	 width="64px" height="64px" viewBox="0 0 64 64" style="enable-background:new 0 0 64 64;" xml:space="preserve">
<g>
	<path d="M26.4,2.4C12.4,5,1.8,17.2,1.8,32s10.6,27,24.6,29.6V2.4z"/>
	<path d="M32.9,1.9V26c0,1.3,1,2.3,2.3,2.3h6.2c1.3,0,2.3,1,2.3,2.3v1.2c0,1.3-1,2.3-2.3,2.3h-6.2c-1.3,0-2.3,1-2.3,2.3v3.2
		c0,1.3,1,2.3,2.3,2.3h5c1.3,0,2.3,1,2.3,2.3v1.1c0,1.3-1,2.3-2.3,2.3h-5c-1.3,0-2.3,1-2.3,2.3v11.9C49.1,61.7,62.2,48.4,62.2,32
		S49.1,2.3,32.9,1.9z"/>
</g>
</svg>
