<?xml version="1.0" encoding="utf-8"?>
<!-- Generator: Adobe Illustrator 24.2.3, SVG Export Plug-In . SVG Version: 6.00 Build 0)  -->
<svg version="1.1" id="Signal.svg" xmlns="http://www.w3.org/2000/svg" xmlns:xlink="http://www.w3.org/1999/xlink" x="0px" y="0px"
	 viewBox="0 0 21 16" style="enable-background:new 0 0 21 16;" xml:space="preserve">
<style type="text/css">
	.st0{display:none;}
</style>
<path class="st0" d="M19,7.3c-0.4,0-0.9-0.2-1.2-0.5c-1.9-1.9-4.5-3-7.2-3s-5.3,1.1-7.2,3c-0.7,0.7-1.8,0.7-2.5,0
	C0.1,6.1,0.1,5,0.8,4.3c2.6-2.6,6.1-4,9.7-4c3.7,0,7.1,1.4,9.7,4c0.7,0.7,0.7,1.8,0,2.5C19.9,7.1,19.4,7.3,19,7.3z"/>
<path d="M5.9,11.2c-0.4,0-0.9-0.2-1.2-0.5C4,10,4,8.9,4.7,8.2c1.6-1.6,3.6-2.4,5.8-2.4s4.3,0.9,5.8,2.4c0.7,0.7,0.7,1.8,0,2.5
	c-0.7,0.7-1.8,0.7-2.5,0c-0.9-0.9-2.1-1.4-3.4-1.4S7.9,9.8,7,10.7C6.8,11,6.4,11.2,5.9,11.2z"/>
<path class="st0" d="M12.4,12.1c-1-1-2.8-1-3.9,0c-0.7,0.7-0.7,1.8,0,2.5l0.7,0.7c0.3,0.3,0.8,0.5,1.2,0.5s0.9-0.2,1.2-0.5l0.7-0.7
	C13.1,13.8,13.1,12.7,12.4,12.1z"/>
</svg>
