<?xml version="1.0" encoding="utf-8"?>
<!-- Generator: Adobe Illustrator 24.0.1, SVG Export Plug-In . SVG Version: 6.00 Build 0)  -->
<svg version="1.1" id="Layer_1" xmlns="http://www.w3.org/2000/svg" xmlns:xlink="http://www.w3.org/1999/xlink" x="0px" y="0px"
	 viewBox="0 0 128 128" style="enable-background:new 0 0 128 128;" xml:space="preserve">
<style type="text/css">
	.st0{opacity:5.000000e-02;}
	.st1{fill:#346133;}
</style>
<g class="st0">
	<g>
		<path class="st1" d="M-6.9,39.2c0.1,0.5,0.2,0.9,0.2,1.2c0,0.3,0.1,0.5,0.1,0.5c0,0.3,0.1,0.5,0.1,0.6c0.1,2-1.3,4.1-2.9,5.4
			c-0.1,0.2,0,0.3,0.2,0.2l16.9-3l0,0c0.1,0,0.2-0.2,0.1-0.3c0,0-0.1,0-0.2-0.1c-0.9-0.4-1.8-1-2.5-1.7c-0.3-0.3-0.7-0.7-1-1
			c-0.3-0.3-0.5-0.7-0.7-1.1c0-0.1-0.2-0.5-0.3-0.9c0,0-0.1-0.4-0.2-1.2c0-0.3-0.1-0.6-0.2-1c-0.1-0.4-0.1-0.6-0.2-1
			C1.4,29.7-1,16-2.8,5.9C-6.3,5.5-9.7,5-13,4.2L-6.9,39.2L-6.9,39.2z"/>
		<path class="st1" d="M-4.8-44.9L-4.8-44.9c-0.1,0-0.2,0.2-0.1,0.3c0,0,0.1,0,0.2,0.1c0.4,0.2,1,0.5,1.5,0.8s0.9,0.6,1.4,1
			c0.3,0.3,0.7,0.7,1,1c0.4,0.6,0.7,1.2,0.9,1.8c0,0,0,0.1,0.1,0.4C0-39.3,0-39,0.1-38.6c0,0,0,0.1,0,0.3c0,0,0,0.1,0,0.3
			c0,0.3,0.1,0.5,0.2,0.9c0.9,5,3.1,17.4,4.5,25.6c3.4,0.6,6.9,1.3,10.4,2.3l-4.4-25c-0.1-0.5-0.2-0.9-0.2-1.3l0,0
			c-0.1-0.5-0.2-0.9-0.2-1.3c-0.1-0.6-0.2-1.2-0.3-1.7C10-39,9.9-39.4,9.9-39.8c-0.1-0.5-0.2-0.9-0.2-1.2s-0.1-0.5-0.1-0.5
			c0-0.3-0.1-0.5,0-0.7c0-2,1.3-4.1,2.8-5.4c0.1-0.2,0-0.3-0.2-0.2L-4.8-44.9L-4.8-44.9z"/>
		<path class="st1" d="M-24.8-41.4c-0.1,0-0.2,0.2-0.1,0.3c1.6,0.7,3.2,1.8,4.2,3.2c0.2,0.4,0.4,0.6,0.4,1c0,0.1,0.1,0.4,0.1,0.5
			c0,0,0,0.3,0.1,0.6c0,0.3,0.1,0.8,0.2,1.3c0.1,0.4,0.1,0.8,0.2,1.3c0.1,0.4,0.1,0.8,0.2,1.3l0,0c0.1,0.4,0.1,0.8,0.2,1.2
			c0.7,3.9,1.8,10.4,2.6,14.9c0.6,0.2,1.1,0.3,1.8,0.5c1,0.2,2,0.6,3.1,0.8c1.8,0.5,3.6,0.8,5.5,1.2c-1.1-6.3-3.2-18.1-4-22.6
			c-0.1-0.4-0.1-0.6-0.2-0.9l0,0c0-0.1,0-0.1,0-0.1c-0.1-0.6-0.2-1-0.2-1l0,0c-0.1-0.8,0-1.7,0.2-2.4c0.2-0.4,0.4-0.9,0.6-1.3
			c0.3-0.5,0.6-0.9,1-1.4c0.3-0.3,0.6-0.6,0.9-1c0,0,0.1,0,0.1-0.2c0.1-0.2,0-0.3-0.2-0.2l0,0L-24.8-41.4L-24.8-41.4z"/>
		<path class="st1" d="M18.3,9c-0.8-0.2-1.7-0.5-2.5-0.7C15.4,8.2,15,8,14.6,7.9C12.5,7.5,10.3,7.2,8,7c1.4,7.8,3.6,20.3,4.7,26.5
			c0.1,0.4,0.1,0.8,0.2,1c0.1,0.4,0.1,0.8,0.2,1c0.2,1,0.3,1.5,0.3,1.5c0,0.3,0.1,0.5,0,0.8c-0.1,0.4-0.1,0.8-0.2,1.2
			c-0.1,0.4-0.2,0.8-0.4,1.3c-0.5,1-1.2,1.9-2,2.7c0,0-0.1,0-0.1,0.2c-0.1,0.2,0,0.3,0.2,0.2l0,0l16.9-3c0.1,0,0.2-0.2,0.1-0.3
			c-2.1-0.8-4.3-2.7-4.7-4.9c0,0,0-0.1-0.1-0.4L18.3,9L18.3,9z"/>
	</g>
	<g>
		<path class="st1" d="M-2.7-37.1l-0.1-0.8l-0.1-0.4c0-0.3-0.2-0.5-0.4-0.7c0-0.1-0.2-0.2-0.2-0.4c-1.1,0.1-2.1,0.2-3.1,0.4
			c-0.3,0-0.4,0.1-0.6,0.1c0,0.1-0.1,0.2-0.1,0.3c-0.2,0.4-0.1,0.7-0.1,1.1l0.2,1c0.4-0.1,0.8-0.1,1.2-0.2
			C-5-36.9-3.9-37.1-2.7-37.1z"/>
		<path class="st1" d="M5.7,36.7l0.2,0.9c0,0.1,0,0.3,0.1,0.4c0,0.1,0.2,0.4,0.3,0.5c0.2,0.1,0.3,0.2,0.3,0.5c0.1,0,0.4-0.1,0.5-0.1
			c1-0.2,1.9-0.3,2.9-0.7c0.1-0.2,0.2-0.4,0.2-0.6c0.1-0.3,0.1-0.4,0-0.5c0-0.1,0-0.1,0-0.3L10,35.6c-1.1,0.3-2.3,0.7-3.4,0.9
			C6.3,36.6,6.1,36.6,5.7,36.7z"/>
		<path class="st1" d="M32,5.5c-0.8-2.1-2-4-3.6-5.5c-2.7-2.3-6.1-4-9.5-5.2c-1.6-0.5-3.1-1-4.6-1.3C12.2-7,10-7.5,7.8-7.9
			C6-8.2,4.1-8.5,2.3-8.8c-0.1,0-0.4-0.1-0.5,0C0.4-9.1-1.1-9.2-2.4-9.5c-1.4-0.2-2.6-0.5-4-0.6c-3-0.5-5.9-1.2-8.7-2
			c-0.3-0.1-0.6-0.2-0.7-0.3c-1-0.4-2.1-0.7-3.1-1c-2.8-1.1-5.4-2.6-6.6-5.2c-1.7-3.7,1.1-6.6,3.3-9.2c0.2-0.2,0.4-0.5,0.6-0.6
			l-0.1-0.6l-0.2-1.2l0,0l-0.2-0.9c-0.5,0.3-0.8,0.8-1.3,1.1c-0.1,0.2-0.2,0.2-0.3,0.3c0,0-0.1,0-0.1,0.2c-3.6,3.8-6,8.1-6.8,13.3
			c-0.2,1-0.3,2-0.3,3.1c-0.3,7.6,7.2,11.3,14.1,13.3c2.4,0.6,4.7,1.2,6.6,1.5C-7,2.2-3.8,2.5-0.5,3l0.1,0c1.5,0.1,3.1,0.4,4.6,0.5
			c0.9,0.1,2,0.2,3,0.4c4.6,0.5,9.1,1.3,13.4,2.9c1.4,0.4,2.7,1,4.1,1.7c2.9,1.3,5.3,3.6,4.9,6.8c-0.3,3.5-2.4,7.2-4.5,9.9
			c-0.3,0.5-0.7,0.8-1,1.2l0.2,0.9l0.2,1.3l0.2,0.9c0.7-0.7,1.2-1.3,1.8-2c0.2-0.3,0.4-0.5,0.7-0.8c0.2-0.3,0.4-0.6,0.7-0.8
			c2.1-3,3.5-6.2,4.2-9.8C33,12.6,33.2,8.9,32,5.5z"/>
		<path class="st1" d="M16.4-23.6c-1.2,1.7-0.5,4.5,1.3,5.3c2.3,1.2,5.1-1,5.8-3.3c0.3-1.1,0.4-2.3,0.2-3.4
			c-0.1-0.6-0.2-1.3-0.5-1.9c-0.4-1-1-2.1-1.9-3c-0.2-0.2-0.3-0.3-0.5-0.6c0,0,0,0,0-0.1c-2.1-2.3-4.7-4.2-7.5-5.7l0.2,1l0.2,1.3
			l0.2,1c0.3,0.2,0.8,0.5,1.1,0.7c0.9,0.6,2,1.4,2.8,2.2c0.2,0.2,0.5,0.4,0.7,0.7c0,0,0,0,0,0.1c0,0.1,0.2,0.1,0.2,0.2
			c0.5,0.7,0.9,1.8,0.5,2.7C18.4-25.1,17-24.6,16.4-23.6z"/>
		<path class="st1" d="M-20.1,18.1c1.4-1.2,3.1-1.9,4.2-3.3c2.2-2.8,1.4-7.1-2.5-7.9c-6.3-1.3-10.2,6-9.4,11.3
			c0.2,0.9,0.3,1.8,0.6,2.7c1.7,5.1,5.1,9.3,9.6,12.5c2.1,1.6,4.6,2.9,7.2,3.9l-0.2-1l-0.2-1.4l-0.1-0.5c-2.9-1.2-5.7-2.8-7.8-5.1
			C-21.4,26.1-24.1,21.6-20.1,18.1z"/>
	</g>
</g>
<g class="st0">
	<g>
		<path class="st1" d="M-6.9,167.2c0.1,0.5,0.2,0.9,0.2,1.2c0,0.3,0.1,0.5,0.1,0.5c0,0.3,0.1,0.5,0.1,0.6c0.1,2-1.3,4.1-2.9,5.4
			c-0.1,0.2,0,0.3,0.2,0.2l16.9-3l0,0c0.1,0,0.2-0.2,0.1-0.3c0,0-0.1,0-0.2-0.1c-0.9-0.4-1.8-1-2.5-1.7c-0.3-0.3-0.7-0.7-1-1
			c-0.3-0.3-0.5-0.7-0.7-1.1c0-0.1-0.2-0.5-0.3-0.9c0,0-0.1-0.4-0.2-1.2c0-0.3-0.1-0.6-0.2-1c-0.1-0.4-0.1-0.6-0.2-1
			c-1.1-6.2-3.5-19.9-5.3-30c-3.5-0.4-6.9-0.9-10.3-1.8L-6.9,167.2L-6.9,167.2z"/>
		<path class="st1" d="M-4.8,83.1L-4.8,83.1c-0.1,0-0.2,0.2-0.1,0.3c0,0,0.1,0,0.2,0.1c0.4,0.2,1,0.5,1.5,0.8c0.5,0.3,0.9,0.6,1.4,1
			c0.3,0.3,0.7,0.7,1,1c0.4,0.6,0.7,1.2,0.9,1.8c0,0,0,0.1,0.1,0.4C0,88.7,0,89,0.1,89.4c0,0,0,0.1,0,0.3c0,0,0,0.1,0,0.3
			c0,0.3,0.1,0.5,0.2,0.9c0.9,5,3.1,17.4,4.5,25.6c3.4,0.6,6.9,1.3,10.4,2.3l-4.4-25c-0.1-0.5-0.2-0.9-0.2-1.3l0,0
			c-0.1-0.5-0.2-0.9-0.2-1.3c-0.1-0.6-0.2-1.2-0.3-1.7s-0.2-0.9-0.2-1.3c-0.1-0.5-0.2-0.9-0.2-1.2s-0.1-0.5-0.1-0.5
			c0-0.3-0.1-0.5,0-0.7c0-2,1.3-4.1,2.8-5.4c0.1-0.2,0-0.3-0.2-0.2L-4.8,83.1L-4.8,83.1z"/>
		<path class="st1" d="M-24.8,86.6c-0.1,0-0.2,0.2-0.1,0.3c1.6,0.7,3.2,1.8,4.2,3.2c0.2,0.4,0.4,0.6,0.4,1c0,0.1,0.1,0.4,0.1,0.5
			c0,0,0,0.3,0.1,0.6c0,0.3,0.1,0.8,0.2,1.3c0.1,0.4,0.1,0.8,0.2,1.3c0.1,0.4,0.1,0.8,0.2,1.3l0,0c0.1,0.4,0.1,0.8,0.2,1.2
			c0.7,3.9,1.8,10.4,2.6,14.9c0.6,0.2,1.1,0.3,1.8,0.5c1,0.2,2,0.6,3.1,0.8c1.8,0.5,3.6,0.8,5.5,1.2c-1.1-6.3-3.2-18.1-4-22.6
			c-0.1-0.4-0.1-0.6-0.2-0.9l0,0c0-0.1,0-0.1,0-0.1c-0.1-0.6-0.2-1-0.2-1l0,0c-0.1-0.8,0-1.7,0.2-2.4c0.2-0.4,0.4-0.9,0.6-1.3
			c0.3-0.5,0.6-0.9,1-1.4c0.3-0.3,0.6-0.6,0.9-1c0,0,0.1,0,0.1-0.2c0.1-0.2,0-0.3-0.2-0.2l0,0L-24.8,86.6L-24.8,86.6z"/>
		<path class="st1" d="M18.3,137c-0.8-0.2-1.7-0.5-2.5-0.7c-0.4-0.1-0.8-0.2-1.2-0.3c-2.1-0.4-4.2-0.7-6.5-1
			c1.4,7.8,3.6,20.3,4.7,26.5c0.1,0.4,0.1,0.8,0.2,1c0.1,0.4,0.1,0.8,0.2,1c0.2,1,0.3,1.5,0.3,1.5c0,0.3,0.1,0.5,0,0.8
			c-0.1,0.4-0.1,0.8-0.2,1.2c-0.1,0.4-0.2,0.8-0.4,1.3c-0.5,1-1.2,1.9-2,2.7c0,0-0.1,0-0.1,0.2c-0.1,0.2,0,0.3,0.2,0.2l0,0l16.9-3
			c0.1,0,0.2-0.2,0.1-0.3c-2.1-0.8-4.3-2.7-4.7-4.9c0,0,0-0.1-0.1-0.4L18.3,137L18.3,137z"/>
	</g>
	<g>
		<path class="st1" d="M-2.7,90.9l-0.1-0.8l-0.1-0.4c0-0.3-0.2-0.5-0.4-0.7c0-0.1-0.2-0.2-0.2-0.4c-1.1,0.1-2.1,0.2-3.1,0.4
			c-0.3,0-0.4,0.1-0.6,0.1c0,0.1-0.1,0.2-0.1,0.3c-0.2,0.4-0.1,0.7-0.1,1.1l0.2,1c0.4-0.1,0.8-0.1,1.2-0.2
			C-5,91.1-3.9,90.9-2.7,90.9z"/>
		<path class="st1" d="M5.7,164.7l0.2,0.9c0,0.1,0,0.3,0.1,0.4c0,0.1,0.2,0.4,0.3,0.5c0.2,0.1,0.3,0.2,0.3,0.5
			c0.1,0,0.4-0.1,0.5-0.1c1-0.2,1.9-0.3,2.9-0.7c0.1-0.2,0.2-0.4,0.2-0.6c0.1-0.3,0.1-0.4,0-0.5c0-0.1,0-0.1,0-0.3l-0.2-1.2
			c-1.1,0.3-2.3,0.7-3.4,0.9C6.3,164.6,6.1,164.6,5.7,164.7z"/>
		<path class="st1" d="M32,133.5c-0.8-2.1-2-4-3.6-5.5c-2.7-2.3-6.1-4-9.5-5.2c-1.6-0.5-3.1-1-4.6-1.3c-2.1-0.6-4.3-1-6.5-1.4
			c-1.8-0.3-3.7-0.7-5.5-0.9c-0.1,0-0.4-0.1-0.5,0c-1.4-0.3-2.9-0.4-4.2-0.7c-1.4-0.2-2.6-0.5-4-0.6c-3-0.5-5.9-1.2-8.7-2
			c-0.3-0.1-0.6-0.2-0.7-0.3c-1-0.4-2.1-0.7-3.1-1c-2.8-1.1-5.4-2.6-6.6-5.2c-1.7-3.7,1.1-6.6,3.3-9.2c0.2-0.2,0.4-0.5,0.6-0.6
			l-0.1-0.6l-0.2-1.2l0,0l-0.2-0.9c-0.5,0.3-0.8,0.8-1.3,1.1c-0.1,0.2-0.2,0.2-0.3,0.3c0,0-0.1,0-0.1,0.2c-3.6,3.8-6,8.1-6.8,13.3
			c-0.2,1-0.3,2-0.3,3.1c-0.3,7.6,7.2,11.3,14.1,13.3c2.4,0.6,4.7,1.2,6.6,1.5c3.2,0.6,6.4,1,9.7,1.5l0.1,0c1.5,0.1,3.1,0.4,4.6,0.5
			c0.9,0.1,2,0.2,3,0.4c4.6,0.5,9.1,1.3,13.4,2.9c1.4,0.4,2.7,1,4.1,1.7c2.9,1.3,5.3,3.6,4.9,6.8c-0.3,3.5-2.4,7.2-4.5,9.9
			c-0.3,0.5-0.7,0.8-1,1.2l0.2,0.9l0.2,1.3l0.2,0.9c0.7-0.7,1.2-1.3,1.8-2c0.2-0.3,0.4-0.5,0.7-0.8c0.2-0.3,0.4-0.6,0.7-0.8
			c2.1-3,3.5-6.2,4.2-9.8C33,140.6,33.2,136.9,32,133.5z"/>
		<path class="st1" d="M16.4,104.4c-1.2,1.7-0.5,4.5,1.3,5.3c2.3,1.2,5.1-1,5.8-3.3c0.3-1.1,0.4-2.3,0.2-3.4
			c-0.1-0.6-0.2-1.3-0.5-1.9c-0.4-1-1-2.1-1.9-3c-0.2-0.2-0.3-0.3-0.5-0.6c0,0,0,0,0-0.1c-2.1-2.3-4.7-4.2-7.5-5.7l0.2,1l0.2,1.3
			l0.2,1c0.3,0.2,0.8,0.5,1.1,0.7c0.9,0.6,2,1.4,2.8,2.2c0.2,0.2,0.5,0.4,0.7,0.7c0,0,0,0,0,0.1c0,0.1,0.2,0.1,0.2,0.2
			c0.5,0.7,0.9,1.8,0.5,2.7C18.4,102.9,17,103.4,16.4,104.4z"/>
		<path class="st1" d="M-20.1,146.1c1.4-1.2,3.1-1.9,4.2-3.3c2.2-2.8,1.4-7.1-2.5-7.9c-6.3-1.3-10.2,6-9.4,11.3
			c0.2,0.9,0.3,1.8,0.6,2.7c1.7,5.1,5.1,9.3,9.6,12.5c2.1,1.6,4.6,2.9,7.2,3.9l-0.2-1l-0.2-1.4l-0.1-0.5c-2.9-1.2-5.7-2.8-7.8-5.1
			C-21.4,154.1-24.1,149.6-20.1,146.1z"/>
	</g>
</g>
<g class="st0">
	<g>
		<path class="st1" d="M57.1,103.2c0.1,0.5,0.2,0.9,0.2,1.2c0,0.3,0.1,0.5,0.1,0.5c0,0.3,0.1,0.5,0.1,0.6c0.1,2-1.3,4.1-2.9,5.4
			c-0.1,0.2,0,0.3,0.2,0.2l16.9-3l0,0c0.1,0,0.2-0.2,0.1-0.3c0,0-0.1,0-0.2-0.1c-0.9-0.4-1.8-1-2.5-1.7c-0.3-0.3-0.7-0.7-1-1
			s-0.5-0.7-0.7-1.1c0-0.1-0.2-0.5-0.3-0.9c0,0-0.1-0.4-0.2-1.2c0-0.3-0.1-0.6-0.2-1c-0.1-0.4-0.1-0.6-0.2-1
			c-1.1-6.2-3.5-19.9-5.3-30c-3.5-0.4-6.9-0.9-10.3-1.8L57.1,103.2L57.1,103.2z"/>
		<path class="st1" d="M59.2,19.1L59.2,19.1c-0.1,0-0.2,0.2-0.1,0.3c0,0,0.1,0,0.2,0.1c0.4,0.2,1,0.5,1.5,0.8c0.5,0.3,0.9,0.6,1.4,1
			c0.3,0.3,0.7,0.7,1,1c0.4,0.6,0.7,1.2,0.9,1.8c0,0,0,0.1,0.1,0.4c0,0.3,0.1,0.5,0.2,0.9c0,0,0,0.1,0,0.3c0,0,0,0.1,0,0.3
			c0,0.3,0.1,0.5,0.2,0.9c0.9,5,3.1,17.4,4.5,25.6c3.4,0.6,6.9,1.3,10.4,2.3l-4.4-25c-0.1-0.5-0.2-0.9-0.2-1.3l0,0
			c-0.1-0.5-0.2-0.9-0.2-1.3c-0.1-0.6-0.2-1.2-0.3-1.7c-0.1-0.5-0.2-0.9-0.2-1.3c-0.1-0.5-0.2-0.9-0.2-1.2c0-0.3-0.1-0.5-0.1-0.5
			c0-0.3-0.1-0.5,0-0.7c0-2,1.3-4.1,2.8-5.4c0.1-0.2,0-0.3-0.2-0.2L59.2,19.1L59.2,19.1z"/>
		<path class="st1" d="M39.2,22.6c-0.1,0-0.2,0.2-0.1,0.3c1.6,0.7,3.2,1.8,4.2,3.2c0.2,0.4,0.4,0.6,0.4,1c0,0.1,0.1,0.4,0.1,0.5
			c0,0,0,0.3,0.1,0.6c0,0.3,0.1,0.8,0.2,1.3c0.1,0.4,0.1,0.8,0.2,1.3c0.1,0.4,0.1,0.8,0.2,1.3l0,0c0.1,0.4,0.1,0.8,0.2,1.2
			c0.7,3.9,1.8,10.4,2.6,14.9c0.6,0.2,1.1,0.3,1.8,0.5c1,0.2,2,0.6,3.1,0.8c1.8,0.5,3.6,0.8,5.5,1.2c-1.1-6.3-3.2-18.1-4-22.6
			c-0.1-0.4-0.1-0.6-0.2-0.9l0,0c0-0.1,0-0.1,0-0.1c-0.1-0.6-0.2-1-0.2-1l0,0c-0.1-0.8,0-1.7,0.2-2.4c0.2-0.4,0.4-0.9,0.6-1.3
			c0.3-0.5,0.6-0.9,1-1.4c0.3-0.3,0.6-0.6,0.9-1c0,0,0.1,0,0.1-0.2c0.1-0.2,0-0.3-0.2-0.2l0,0L39.2,22.6L39.2,22.6z"/>
		<path class="st1" d="M82.3,73c-0.8-0.2-1.7-0.5-2.5-0.7c-0.4-0.1-0.8-0.2-1.2-0.3c-2.1-0.4-4.2-0.7-6.5-1
			c1.4,7.8,3.6,20.3,4.7,26.5c0.1,0.4,0.1,0.8,0.2,1c0.1,0.4,0.1,0.8,0.2,1c0.2,1,0.3,1.5,0.3,1.5c0,0.3,0.1,0.5,0,0.8
			c-0.1,0.4-0.1,0.8-0.2,1.2c-0.1,0.4-0.2,0.8-0.4,1.3c-0.5,1-1.2,1.9-2,2.7c0,0-0.1,0-0.1,0.2c-0.1,0.2,0,0.3,0.2,0.2l0,0l16.9-3
			c0.1,0,0.2-0.2,0.1-0.3c-2.1-0.8-4.3-2.7-4.7-4.9c0,0,0-0.1-0.1-0.4L82.3,73L82.3,73z"/>
	</g>
	<g>
		<path class="st1" d="M61.3,26.9l-0.1-0.8l-0.1-0.4c0-0.3-0.2-0.5-0.4-0.7c0-0.1-0.2-0.2-0.2-0.4c-1.1,0.1-2.1,0.2-3.1,0.4
			c-0.3,0-0.4,0.1-0.6,0.1c0,0.1-0.1,0.2-0.1,0.3c-0.2,0.4-0.1,0.7-0.1,1.1l0.2,1c0.4-0.1,0.8-0.1,1.2-0.2
			C59,27.1,60.1,26.9,61.3,26.9z"/>
		<path class="st1" d="M69.7,100.7l0.2,0.9c0,0.1,0,0.3,0.1,0.4c0,0.1,0.2,0.4,0.3,0.5c0.2,0.1,0.3,0.2,0.3,0.5
			c0.1,0,0.4-0.1,0.5-0.1c1-0.2,1.9-0.3,2.9-0.7c0.1-0.2,0.2-0.4,0.2-0.6c0.1-0.3,0.1-0.4,0-0.5c0-0.1,0-0.1,0-0.3L74,99.6
			c-1.1,0.3-2.3,0.7-3.4,0.9C70.3,100.6,70.1,100.6,69.7,100.7z"/>
		<path class="st1" d="M96,69.5c-0.8-2.1-2-4-3.6-5.5c-2.7-2.3-6.1-4-9.5-5.2c-1.6-0.5-3.1-1-4.6-1.3c-2.1-0.6-4.3-1-6.5-1.4
			c-1.8-0.3-3.7-0.7-5.5-0.9c-0.1,0-0.4-0.1-0.5,0c-1.4-0.3-2.9-0.4-4.2-0.7c-1.4-0.2-2.6-0.5-4-0.6c-3-0.5-5.9-1.2-8.7-2
			c-0.3-0.1-0.6-0.2-0.7-0.3c-1-0.4-2.1-0.7-3.1-1c-2.8-1.1-5.4-2.6-6.6-5.2c-1.7-3.7,1.1-6.6,3.3-9.2c0.2-0.2,0.4-0.5,0.6-0.6
			l-0.1-0.6L42,33.7l0,0l-0.2-0.9c-0.5,0.3-0.8,0.8-1.3,1.1c-0.1,0.2-0.2,0.2-0.3,0.3c0,0-0.1,0-0.1,0.2c-3.6,3.8-6,8.1-6.8,13.3
			c-0.2,1-0.3,2-0.3,3.1c-0.3,7.6,7.2,11.3,14.1,13.3c2.4,0.6,4.7,1.2,6.6,1.5c3.2,0.6,6.4,1,9.7,1.5l0.1,0c1.5,0.1,3.1,0.4,4.6,0.5
			c0.9,0.1,2,0.2,3,0.4c4.6,0.5,9.1,1.3,13.4,2.9c1.4,0.4,2.7,1,4.1,1.7c2.9,1.3,5.3,3.6,4.9,6.8c-0.3,3.5-2.4,7.2-4.5,9.9
			c-0.3,0.5-0.7,0.8-1,1.2l0.2,0.9l0.2,1.3l0.2,0.9c0.7-0.7,1.2-1.3,1.8-2c0.2-0.3,0.4-0.5,0.7-0.8c0.2-0.3,0.4-0.6,0.7-0.8
			c2.1-3,3.5-6.2,4.2-9.8C97,76.6,97.2,72.9,96,69.5z"/>
		<path class="st1" d="M80.4,40.4c-1.2,1.7-0.5,4.5,1.3,5.3c2.3,1.2,5.1-1,5.8-3.3c0.3-1.1,0.4-2.3,0.2-3.4
			c-0.1-0.6-0.2-1.3-0.5-1.9c-0.4-1-1-2.1-1.9-3c-0.2-0.2-0.3-0.3-0.5-0.6c0,0,0,0,0-0.1c-2.1-2.3-4.7-4.2-7.5-5.7l0.2,1l0.2,1.3
			l0.2,1c0.3,0.2,0.8,0.5,1.1,0.7c0.9,0.6,2,1.4,2.8,2.2c0.2,0.2,0.5,0.4,0.7,0.7c0,0,0,0,0,0.1c0,0.1,0.2,0.1,0.2,0.2
			c0.5,0.7,0.9,1.8,0.5,2.7C82.4,38.9,81,39.4,80.4,40.4z"/>
		<path class="st1" d="M43.9,82.1c1.4-1.2,3.1-1.9,4.2-3.3c2.2-2.8,1.4-7.1-2.5-7.9c-6.3-1.3-10.2,6-9.4,11.3
			c0.2,0.9,0.3,1.8,0.6,2.7c1.7,5.1,5.1,9.3,9.6,12.5c2.1,1.6,4.6,2.9,7.2,3.9l-0.2-1l-0.2-1.4l-0.1-0.5c-2.9-1.2-5.7-2.8-7.8-5.1
			C42.6,90.1,39.9,85.6,43.9,82.1z"/>
	</g>
</g>
<g class="st0">
	<g>
		<path class="st1" d="M121.1,167.2c0.1,0.5,0.2,0.9,0.2,1.2s0.1,0.5,0.1,0.5c0,0.3,0.1,0.5,0.1,0.6c0.1,2-1.3,4.1-2.9,5.4
			c-0.1,0.2,0,0.3,0.2,0.2l16.9-3l0,0c0.1,0,0.2-0.2,0.1-0.3c0,0-0.1,0-0.2-0.1c-0.9-0.4-1.8-1-2.5-1.7c-0.3-0.3-0.7-0.7-1-1
			c-0.3-0.3-0.5-0.7-0.7-1.1c0-0.1-0.2-0.5-0.3-0.9c0,0-0.1-0.4-0.2-1.2c0-0.3-0.1-0.6-0.2-1c-0.1-0.4-0.1-0.6-0.2-1
			c-1.1-6.2-3.5-19.9-5.3-30c-3.5-0.4-6.9-0.9-10.3-1.8L121.1,167.2L121.1,167.2z"/>
		<path class="st1" d="M123.2,83.1L123.2,83.1c-0.1,0-0.2,0.2-0.1,0.3c0,0,0.1,0,0.2,0.1c0.4,0.2,1,0.5,1.5,0.8
			c0.5,0.3,0.9,0.6,1.4,1c0.3,0.3,0.7,0.7,1,1c0.4,0.6,0.7,1.2,0.9,1.8c0,0,0,0.1,0.1,0.4s0.1,0.5,0.2,0.9c0,0,0,0.1,0,0.3
			c0,0,0,0.1,0,0.3c0,0.3,0.1,0.5,0.2,0.9c0.9,5,3.1,17.4,4.5,25.6c3.4,0.6,6.9,1.3,10.4,2.3l-4.4-25c-0.1-0.5-0.2-0.9-0.2-1.3l0,0
			c-0.1-0.5-0.2-0.9-0.2-1.3c-0.1-0.6-0.2-1.2-0.3-1.7s-0.2-0.9-0.2-1.3c-0.1-0.5-0.2-0.9-0.2-1.2s-0.1-0.5-0.1-0.5
			c0-0.3-0.1-0.5,0-0.7c0-2,1.3-4.1,2.8-5.4c0.1-0.2,0-0.3-0.2-0.2L123.2,83.1L123.2,83.1z"/>
		<path class="st1" d="M103.2,86.6c-0.1,0-0.2,0.2-0.1,0.3c1.6,0.7,3.2,1.8,4.2,3.2c0.2,0.4,0.4,0.6,0.4,1c0,0.1,0.1,0.4,0.1,0.5
			c0,0,0,0.3,0.1,0.6c0,0.3,0.1,0.8,0.2,1.3c0.1,0.4,0.1,0.8,0.2,1.3c0.1,0.4,0.1,0.8,0.2,1.3l0,0c0.1,0.4,0.1,0.8,0.2,1.2
			c0.7,3.9,1.8,10.4,2.6,14.9c0.6,0.2,1.1,0.3,1.8,0.5c1,0.2,2,0.6,3.1,0.8c1.8,0.5,3.6,0.8,5.5,1.2c-1.1-6.3-3.2-18.1-4-22.6
			c-0.1-0.4-0.1-0.6-0.2-0.9l0,0c0-0.1,0-0.1,0-0.1c-0.1-0.6-0.2-1-0.2-1l0,0c-0.1-0.8,0-1.7,0.2-2.4c0.2-0.4,0.4-0.9,0.6-1.3
			c0.3-0.5,0.6-0.9,1-1.4c0.3-0.3,0.6-0.6,0.9-1c0,0,0.1,0,0.1-0.2c0.1-0.2,0-0.3-0.2-0.2l0,0L103.2,86.6L103.2,86.6z"/>
		<path class="st1" d="M146.3,137c-0.8-0.2-1.7-0.5-2.5-0.7c-0.4-0.1-0.8-0.2-1.2-0.3c-2.1-0.4-4.2-0.7-6.5-1
			c1.4,7.8,3.6,20.3,4.7,26.5c0.1,0.4,0.1,0.8,0.2,1c0.1,0.4,0.1,0.8,0.2,1c0.2,1,0.3,1.5,0.3,1.5c0,0.3,0.1,0.5,0,0.8
			c-0.1,0.4-0.1,0.8-0.2,1.2c-0.1,0.4-0.2,0.8-0.4,1.3c-0.5,1-1.2,1.9-2,2.7c0,0-0.1,0-0.1,0.2c-0.1,0.2,0,0.3,0.2,0.2l0,0l16.9-3
			c0.1,0,0.2-0.2,0.1-0.3c-2.1-0.8-4.3-2.7-4.7-4.9c0,0,0-0.1-0.1-0.4L146.3,137L146.3,137z"/>
	</g>
	<g>
		<path class="st1" d="M125.3,90.9l-0.1-0.8l-0.1-0.4c0-0.3-0.2-0.5-0.4-0.7c0-0.1-0.2-0.2-0.2-0.4c-1.1,0.1-2.1,0.2-3.1,0.4
			c-0.3,0-0.4,0.1-0.6,0.1c0,0.1-0.1,0.2-0.1,0.3c-0.2,0.4-0.1,0.7-0.1,1.1l0.2,1c0.4-0.1,0.8-0.1,1.2-0.2
			C123,91.1,124.1,90.9,125.3,90.9z"/>
		<path class="st1" d="M133.7,164.7l0.2,0.9c0,0.1,0,0.3,0.1,0.4c0,0.1,0.2,0.4,0.3,0.5s0.3,0.2,0.3,0.5c0.1,0,0.4-0.1,0.5-0.1
			c1-0.2,1.9-0.3,2.9-0.7c0.1-0.2,0.2-0.4,0.2-0.6c0.1-0.3,0.1-0.4,0-0.5c0-0.1,0-0.1,0-0.3l-0.2-1.2c-1.1,0.3-2.3,0.7-3.4,0.9
			C134.3,164.6,134.1,164.6,133.7,164.7z"/>
		<path class="st1" d="M160,133.5c-0.8-2.1-2-4-3.6-5.5c-2.7-2.3-6.1-4-9.5-5.2c-1.6-0.5-3.1-1-4.6-1.3c-2.1-0.6-4.3-1-6.5-1.4
			c-1.8-0.3-3.7-0.7-5.5-0.9c-0.1,0-0.4-0.1-0.5,0c-1.4-0.3-2.9-0.4-4.2-0.7c-1.4-0.2-2.6-0.5-4-0.6c-3-0.5-5.9-1.2-8.7-2
			c-0.3-0.1-0.6-0.2-0.7-0.3c-1-0.4-2.1-0.7-3.1-1c-2.8-1.1-5.4-2.6-6.6-5.2c-1.7-3.7,1.1-6.6,3.3-9.2c0.2-0.2,0.4-0.5,0.6-0.6
			l-0.1-0.6l-0.2-1.2l0,0l-0.2-0.9c-0.5,0.3-0.8,0.8-1.3,1.1c-0.1,0.2-0.2,0.2-0.3,0.3c0,0-0.1,0-0.1,0.2c-3.6,3.8-6,8.1-6.8,13.3
			c-0.2,1-0.3,2-0.3,3.1c-0.3,7.6,7.2,11.3,14.1,13.3c2.4,0.6,4.7,1.2,6.6,1.5c3.2,0.6,6.4,1,9.7,1.5l0.1,0c1.5,0.1,3.1,0.4,4.6,0.5
			c0.9,0.1,2,0.2,3,0.4c4.6,0.5,9.1,1.3,13.4,2.9c1.4,0.4,2.7,1,4.1,1.7c2.9,1.3,5.3,3.6,4.9,6.8c-0.3,3.5-2.4,7.2-4.5,9.9
			c-0.3,0.5-0.7,0.8-1,1.2l0.2,0.9l0.2,1.3l0.2,0.9c0.7-0.7,1.2-1.3,1.8-2c0.2-0.3,0.4-0.5,0.7-0.8c0.2-0.3,0.4-0.6,0.7-0.8
			c2.1-3,3.5-6.2,4.2-9.8C161,140.6,161.2,136.9,160,133.5z"/>
		<path class="st1" d="M144.4,104.4c-1.2,1.7-0.5,4.5,1.3,5.3c2.3,1.2,5.1-1,5.8-3.3c0.3-1.1,0.4-2.3,0.2-3.4
			c-0.1-0.6-0.2-1.3-0.5-1.9c-0.4-1-1-2.1-1.9-3c-0.2-0.2-0.3-0.3-0.5-0.6c0,0,0,0,0-0.1c-2.1-2.3-4.7-4.2-7.5-5.7l0.2,1l0.2,1.3
			l0.2,1c0.3,0.2,0.8,0.5,1.1,0.7c0.9,0.6,2,1.4,2.8,2.2c0.2,0.2,0.5,0.4,0.7,0.7c0,0,0,0,0,0.1c0,0.1,0.2,0.1,0.2,0.2
			c0.5,0.7,0.9,1.8,0.5,2.7C146.4,102.9,145,103.4,144.4,104.4z"/>
		<path class="st1" d="M107.9,146.1c1.4-1.2,3.1-1.9,4.2-3.3c2.2-2.8,1.4-7.1-2.5-7.9c-6.3-1.3-10.2,6-9.4,11.3
			c0.2,0.9,0.3,1.8,0.6,2.7c1.7,5.1,5.1,9.3,9.6,12.5c2.1,1.6,4.6,2.9,7.2,3.9l-0.2-1l-0.2-1.4l-0.1-0.5c-2.9-1.2-5.7-2.8-7.8-5.1
			C106.6,154.1,103.9,149.6,107.9,146.1z"/>
	</g>
</g>
<g class="st0">
	<g>
		<path class="st1" d="M121.1,39.2c0.1,0.5,0.2,0.9,0.2,1.2c0,0.3,0.1,0.5,0.1,0.5c0,0.3,0.1,0.5,0.1,0.6c0.1,2-1.3,4.1-2.9,5.4
			c-0.1,0.2,0,0.3,0.2,0.2l16.9-3l0,0c0.1,0,0.2-0.2,0.1-0.3c0,0-0.1,0-0.2-0.1c-0.9-0.4-1.8-1-2.5-1.7c-0.3-0.3-0.7-0.7-1-1
			s-0.5-0.7-0.7-1.1c0-0.1-0.2-0.5-0.3-0.9c0,0-0.1-0.4-0.2-1.2c0-0.3-0.1-0.6-0.2-1c-0.1-0.4-0.1-0.6-0.2-1
			c-1.1-6.2-3.5-19.9-5.3-30c-3.5-0.4-6.9-0.9-10.3-1.8L121.1,39.2L121.1,39.2z"/>
		<path class="st1" d="M123.2-44.9L123.2-44.9c-0.1,0-0.2,0.2-0.1,0.3c0,0,0.1,0,0.2,0.1c0.4,0.2,1,0.5,1.5,0.8s0.9,0.6,1.4,1
			c0.3,0.3,0.7,0.7,1,1c0.4,0.6,0.7,1.2,0.9,1.8c0,0,0,0.1,0.1,0.4c0,0.3,0.1,0.5,0.2,0.9c0,0,0,0.1,0,0.3c0,0,0,0.1,0,0.3
			c0,0.3,0.1,0.5,0.2,0.9c0.9,5,3.1,17.4,4.5,25.6c3.4,0.6,6.9,1.3,10.4,2.3l-4.4-25c-0.1-0.5-0.2-0.9-0.2-1.3l0,0
			c-0.1-0.5-0.2-0.9-0.2-1.3c-0.1-0.6-0.2-1.2-0.3-1.7c-0.1-0.5-0.2-0.9-0.2-1.3c-0.1-0.5-0.2-0.9-0.2-1.2s-0.1-0.5-0.1-0.5
			c0-0.3-0.1-0.5,0-0.7c0-2,1.3-4.1,2.8-5.4c0.1-0.2,0-0.3-0.2-0.2L123.2-44.9L123.2-44.9z"/>
		<path class="st1" d="M103.2-41.4c-0.1,0-0.2,0.2-0.1,0.3c1.6,0.7,3.2,1.8,4.2,3.2c0.2,0.4,0.4,0.6,0.4,1c0,0.1,0.1,0.4,0.1,0.5
			c0,0,0,0.3,0.1,0.6c0,0.3,0.1,0.8,0.2,1.3c0.1,0.4,0.1,0.8,0.2,1.3c0.1,0.4,0.1,0.8,0.2,1.3l0,0c0.1,0.4,0.1,0.8,0.2,1.2
			c0.7,3.9,1.8,10.4,2.6,14.9c0.6,0.2,1.1,0.3,1.8,0.5c1,0.2,2,0.6,3.1,0.8c1.8,0.5,3.6,0.8,5.5,1.2c-1.1-6.3-3.2-18.1-4-22.6
			c-0.1-0.4-0.1-0.6-0.2-0.9l0,0c0-0.1,0-0.1,0-0.1c-0.1-0.6-0.2-1-0.2-1l0,0c-0.1-0.8,0-1.7,0.2-2.4c0.2-0.4,0.4-0.9,0.6-1.3
			c0.3-0.5,0.6-0.9,1-1.4c0.3-0.3,0.6-0.6,0.9-1c0,0,0.1,0,0.1-0.2c0.1-0.2,0-0.3-0.2-0.2l0,0L103.2-41.4L103.2-41.4z"/>
		<path class="st1" d="M146.3,9c-0.8-0.2-1.7-0.5-2.5-0.7c-0.4-0.1-0.8-0.2-1.2-0.3c-2.1-0.4-4.2-0.7-6.5-1
			c1.4,7.8,3.6,20.3,4.7,26.5c0.1,0.4,0.1,0.8,0.2,1c0.1,0.4,0.1,0.8,0.2,1c0.2,1,0.3,1.5,0.3,1.5c0,0.3,0.1,0.5,0,0.8
			c-0.1,0.4-0.1,0.8-0.2,1.2c-0.1,0.4-0.2,0.8-0.4,1.3c-0.5,1-1.2,1.9-2,2.7c0,0-0.1,0-0.1,0.2c-0.1,0.2,0,0.3,0.2,0.2l0,0l16.9-3
			c0.1,0,0.2-0.2,0.1-0.3c-2.1-0.8-4.3-2.7-4.7-4.9c0,0,0-0.1-0.1-0.4L146.3,9L146.3,9z"/>
	</g>
	<g>
		<path class="st1" d="M125.3-37.1l-0.1-0.8l-0.1-0.4c0-0.3-0.2-0.5-0.4-0.7c0-0.1-0.2-0.2-0.2-0.4c-1.1,0.1-2.1,0.2-3.1,0.4
			c-0.3,0-0.4,0.1-0.6,0.1c0,0.1-0.1,0.2-0.1,0.3c-0.2,0.4-0.1,0.7-0.1,1.1l0.2,1c0.4-0.1,0.8-0.1,1.2-0.2
			C123-36.9,124.1-37.1,125.3-37.1z"/>
		<path class="st1" d="M133.7,36.7l0.2,0.9c0,0.1,0,0.3,0.1,0.4c0,0.1,0.2,0.4,0.3,0.5c0.2,0.1,0.3,0.2,0.3,0.5
			c0.1,0,0.4-0.1,0.5-0.1c1-0.2,1.9-0.3,2.9-0.7c0.1-0.2,0.2-0.4,0.2-0.6c0.1-0.3,0.1-0.4,0-0.5c0-0.1,0-0.1,0-0.3l-0.2-1.2
			c-1.1,0.3-2.3,0.7-3.4,0.9C134.3,36.6,134.1,36.6,133.7,36.7z"/>
		<path class="st1" d="M160,5.5c-0.8-2.1-2-4-3.6-5.5c-2.7-2.3-6.1-4-9.5-5.2c-1.6-0.5-3.1-1-4.6-1.3c-2.1-0.6-4.3-1-6.5-1.4
			c-1.8-0.3-3.7-0.7-5.5-0.9c-0.1,0-0.4-0.1-0.5,0c-1.4-0.3-2.9-0.4-4.2-0.7c-1.4-0.2-2.6-0.5-4-0.6c-3-0.5-5.9-1.2-8.7-2
			c-0.3-0.1-0.6-0.2-0.7-0.3c-1-0.4-2.1-0.7-3.1-1c-2.8-1.1-5.4-2.6-6.6-5.2c-1.7-3.7,1.1-6.6,3.3-9.2c0.2-0.2,0.4-0.5,0.6-0.6
			l-0.1-0.6l-0.2-1.2l0,0l-0.2-0.9c-0.5,0.3-0.8,0.8-1.3,1.1c-0.1,0.2-0.2,0.2-0.3,0.3c0,0-0.1,0-0.1,0.2c-3.6,3.8-6,8.1-6.8,13.3
			c-0.2,1-0.3,2-0.3,3.1c-0.3,7.6,7.2,11.3,14.1,13.3c2.4,0.6,4.7,1.2,6.6,1.5c3.2,0.6,6.4,1,9.7,1.5l0.1,0c1.5,0.1,3.1,0.4,4.6,0.5
			c0.9,0.1,2,0.2,3,0.4c4.6,0.5,9.1,1.3,13.4,2.9c1.4,0.4,2.7,1,4.1,1.7c2.9,1.3,5.3,3.6,4.9,6.8c-0.3,3.5-2.4,7.2-4.5,9.9
			c-0.3,0.5-0.7,0.8-1,1.2l0.2,0.9l0.2,1.3l0.2,0.9c0.7-0.7,1.2-1.3,1.8-2c0.2-0.3,0.4-0.5,0.7-0.8c0.2-0.3,0.4-0.6,0.7-0.8
			c2.1-3,3.5-6.2,4.2-9.8C161,12.6,161.2,8.9,160,5.5z"/>
		<path class="st1" d="M144.4-23.6c-1.2,1.7-0.5,4.5,1.3,5.3c2.3,1.2,5.1-1,5.8-3.3c0.3-1.1,0.4-2.3,0.2-3.4
			c-0.1-0.6-0.2-1.3-0.5-1.9c-0.4-1-1-2.1-1.9-3c-0.2-0.2-0.3-0.3-0.5-0.6c0,0,0,0,0-0.1c-2.1-2.3-4.7-4.2-7.5-5.7l0.2,1l0.2,1.3
			l0.2,1c0.3,0.2,0.8,0.5,1.1,0.7c0.9,0.6,2,1.4,2.8,2.2c0.2,0.2,0.5,0.4,0.7,0.7c0,0,0,0,0,0.1c0,0.1,0.2,0.1,0.2,0.2
			c0.5,0.7,0.9,1.8,0.5,2.7C146.4-25.1,145-24.6,144.4-23.6z"/>
		<path class="st1" d="M107.9,18.1c1.4-1.2,3.1-1.9,4.2-3.3c2.2-2.8,1.4-7.1-2.5-7.9c-6.3-1.3-10.2,6-9.4,11.3
			c0.2,0.9,0.3,1.8,0.6,2.7c1.7,5.1,5.1,9.3,9.6,12.5c2.1,1.6,4.6,2.9,7.2,3.9l-0.2-1l-0.2-1.4l-0.1-0.5c-2.9-1.2-5.7-2.8-7.8-5.1
			C106.6,26.1,103.9,21.6,107.9,18.1z"/>
	</g>
</g>
</svg>
