<?xml version="1.0" encoding="utf-8"?>
<!-- Generator: Adobe Illustrator 23.0.1, SVG Export Plug-In . SVG Version: 6.00 Build 0)  -->
<svg version="1.1" id="Layer_1" xmlns="http://www.w3.org/2000/svg" xmlns:xlink="http://www.w3.org/1999/xlink" x="0px" y="0px"
	 viewBox="0 0 370 230" style="enable-background:new 0 0 370 230;" xml:space="preserve">
<style type="text/css">
	.st0{fill:#1C00F8;}
	.st1{fill:#FFFFFF;}
	.st2{fill:none;}
</style>
<rect class="st0" width="370" height="230"/>
<g>
	<polygon class="st1" points="24.2,81.8 16.2,89.8 24.2,97.8 	"/>
</g>
<g>
	<g>
		<g>
			<path class="st1" d="M321.8,175.7c-2.4,0-4.8,0.5-6.9,1.3c5.7,3.9,9.4,10.4,9.4,17.7c0,7.4-3.7,13.9-9.4,17.7
				c2.1,0.8,4.5,1.3,6.9,1.3c10.5,0,19-8.5,19-19C340.9,184.2,332.3,175.7,321.8,175.7z"/>
		</g>
	</g>
	<g>
		<g>
			<path class="st1" d="M321.8,194.7c0-7-3.8-13.2-9.5-16.5c-2.8-1.6-6-2.6-9.5-2.6c-10.5,0-19,8.5-19,19s8.5,19,19,19
				c3.5,0,6.7-0.9,9.5-2.6C318,207.9,321.8,201.8,321.8,194.7z"/>
		</g>
	</g>
</g>
<g>
	<path class="st1" d="M280.1,29.6c0.8-0.2,2.4-0.3,3.9-0.3c1.8,0,3,0.2,3.9,0.7s1.6,1.3,1.6,2.4c0,1.1-0.7,2.1-2.2,2.7l0,0
		c1.5,0.4,2.6,1.5,2.6,3.1c0,1.1-0.5,2-1.4,2.6c-1,0.7-2.6,1.1-5.2,1.1c-1.5,0-2.6-0.1-3.3-0.2V29.6H280.1z M283.1,34.3h1
		c1.6,0,2.4-0.6,2.4-1.5c0-0.9-0.8-1.4-2.1-1.4c-0.6,0-1,0-1.3,0.1V34.3z M283.1,39.9c0.3,0,0.7,0,1.2,0c1.4,0,2.6-0.5,2.6-1.8
		s-1.2-1.8-2.7-1.8h-1v3.6H283.1z"/>
	<path class="st1" d="M295,38.7l-0.9,3.2H291l4.1-12.5h3.9l4.1,12.5h-3.2l-1-3.2H295z M298.4,36.6l-0.8-2.6
		c-0.2-0.7-0.5-1.7-0.7-2.4l0,0c-0.2,0.7-0.4,1.7-0.6,2.4l-0.8,2.6H298.4z"/>
	<path class="st1" d="M304.9,41.9V29.4h3.5l2.8,4.6c0.8,1.3,1.6,2.9,2.2,4.3h0.1c-0.2-1.6-0.3-3.3-0.3-5.2v-3.6h2.8V42h-3.2
		l-2.8-4.8c-0.8-1.3-1.7-2.9-2.3-4.4h-0.1c0.1,1.6,0.1,3.4,0.1,5.4V42L304.9,41.9L304.9,41.9z"/>
	<path class="st1" d="M318.4,29.4h3v5.5h0.1c0.3-0.5,0.6-0.9,0.9-1.4l3-4.1h3.7l-4.4,5.3l4.6,7.2h-3.5l-3.3-5.4l-1.1,1.3v4.1h-3
		L318.4,29.4L318.4,29.4z"/>
</g>
<g>
	<path class="st1" d="M35.8,41.2V37c0.8,0.6,1.6,1.1,2.5,1.4c0.9,0.3,1.8,0.5,2.7,0.5c0.5,0,1,0,1.4-0.1s0.7-0.2,1-0.4
		s0.5-0.4,0.6-0.6c0.1-0.2,0.2-0.5,0.2-0.8c0-0.4-0.1-0.7-0.3-1s-0.5-0.6-0.9-0.8s-0.8-0.5-1.3-0.7s-1-0.5-1.6-0.7
		c-1.5-0.6-2.6-1.4-3.3-2.3c-0.7-0.9-1.1-2-1.1-3.2c0-1,0.2-1.8,0.6-2.5c0.4-0.7,0.9-1.3,1.6-1.7c0.7-0.5,1.5-0.8,2.4-1
		s1.8-0.3,2.8-0.3s1.9,0.1,2.6,0.2c0.8,0.1,1.5,0.3,2.1,0.5v3.9c-0.3-0.2-0.7-0.4-1-0.6c-0.4-0.2-0.8-0.3-1.2-0.4s-0.8-0.2-1.2-0.2
		c-0.3-0.2-0.6-0.2-1-0.2c-0.5,0-0.9,0-1.3,0.1c-0.4,0.1-0.7,0.2-1,0.4c-0.3,0.2-0.5,0.4-0.6,0.6c-0.2,0.2-0.2,0.5-0.2,0.8
		s0.1,0.6,0.3,0.8c0.2,0.3,0.4,0.5,0.7,0.7s0.7,0.4,1.1,0.7c0.4,0.2,0.9,0.4,1.5,0.7c0.8,0.3,1.4,0.7,2,1c0.6,0.4,1.1,0.8,1.5,1.2
		s0.8,1,1,1.5c0.2,0.6,0.3,1.2,0.3,2c0,1.1-0.2,1.9-0.6,2.7c-0.4,0.7-0.9,1.3-1.6,1.7c-0.7,0.4-1.5,0.8-2.4,1s-1.9,0.3-2.9,0.3
		s-2-0.1-3-0.3C37.3,41.8,36.5,41.5,35.8,41.2z"/>
	<path class="st1" d="M64.9,41.9h-5l-4.3-6.7h-0.1v6.7h-4.2v-20h4.2v12.7h0.1l4-6.2h4.9l-4.8,6.3L64.9,41.9z"/>
	<path class="st1" d="M79.4,28.4L73.9,43c-1.3,3.5-3.3,5.3-6,5.3c-1,0-1.8-0.1-2.5-0.3v-3.3c0.6,0.3,1.2,0.5,1.8,0.5
		c1.1,0,1.8-0.5,2.2-1.5l0.7-1.7l-5.5-13.5h4.6l2.5,8.2c0.2,0.5,0.3,1.1,0.4,1.8h0.1c0.1-0.5,0.2-1.1,0.4-1.8l2.5-8.2h4.3V28.4z"/>
	<path class="st1" d="M84.3,23h1.8l3.7,9.8c0.3,0.8,0.4,1.4,0.5,1.8h0.1c0.5-0.8,0.9-1.3,1.2-1.7l8.1-9.9h2l-4,18.9H96l2.9-13.6
		c0.2-1,0.5-1.9,0.7-3h-0.1c0,0.1-0.1,0.2-0.1,0.3c-0.1,0.1-0.4,0.6-1.1,1.5l-8,9.9h-0.7l-3.7-9.8c0-0.1-0.1-0.2-0.1-0.3
		c0-0.1-0.1-0.3-0.1-0.5s-0.1-0.3-0.1-0.5s-0.1-0.4-0.1-0.5h-0.1c0,0.4-0.1,0.9-0.3,1.6s-1.2,5.7-3.2,15h-1.7L84.3,23z"/>
	<path class="st1" d="M105.1,28.4h1.7l-2,9.5c-0.2,0.9-0.3,1.5-0.3,1.9c0,0.6,0.3,0.9,1,0.9c0.4,0,0.8-0.1,1.1-0.2l-0.3,1.3
		c-0.4,0.2-0.9,0.3-1.4,0.3c-0.7,0-1.2-0.2-1.6-0.5c-0.4-0.4-0.5-0.9-0.5-1.6c0-0.5,0.1-1.2,0.3-2.2L105.1,28.4z M106.9,25
		c-0.3,0-0.6-0.1-0.9-0.4c-0.2-0.2-0.3-0.5-0.3-0.9c0-0.3,0.1-0.6,0.4-0.8c0.2-0.2,0.5-0.3,0.8-0.3s0.6,0.1,0.8,0.3
		c0.2,0.2,0.4,0.5,0.4,0.8s-0.1,0.6-0.4,0.9C107.5,24.9,107.2,25,106.9,25z"/>
	<path class="st1" d="M112.7,21.9h1.7l-3.4,16c-0.2,0.9-0.3,1.5-0.3,1.9c0,0.6,0.3,0.9,1,0.9c0.4,0,0.8-0.1,1.1-0.2l-0.3,1.3
		c-0.4,0.2-0.9,0.3-1.4,0.3c-0.7,0-1.2-0.2-1.6-0.5c-0.4-0.4-0.5-0.9-0.5-1.6c0-0.5,0.1-1.3,0.3-2.2L112.7,21.9z"/>
	<path class="st1" d="M116.9,36.8c0,1.3,0.3,2.2,1,2.9s1.6,1,2.8,1c1.2,0,2.5-0.4,3.9-1.2l-0.3,1.7c-1.2,0.7-2.5,1-3.8,1
		c-1.7,0-3-0.5-3.9-1.5s-1.4-2.4-1.4-4.1c0-1.5,0.3-2.9,1-4.3c0.7-1.3,1.5-2.4,2.7-3.1s2.3-1.1,3.6-1.1c1.2,0,2.2,0.3,2.9,0.9
		c0.7,0.6,1.1,1.4,1.1,2.4c0,1.6-0.8,2.7-2.3,3.5s-3.9,1.2-7.3,1.2L116.9,36.8z M117.1,34.6c2.6,0,4.5-0.3,5.8-0.8
		c1.2-0.5,1.9-1.3,1.9-2.4c0-0.7-0.2-1.2-0.7-1.5c-0.4-0.3-1.1-0.5-1.9-0.5c-1.2,0-2.3,0.5-3.2,1.4C118,31.9,117.4,33.1,117.1,34.6z
		"/>
	<path class="st1" d="M127.6,39.7c0.4,0.3,0.9,0.6,1.5,0.8s1.2,0.3,1.8,0.3c1,0,1.7-0.2,2.2-0.6c0.5-0.4,0.8-1,0.8-1.7
		c0-0.5-0.2-1-0.5-1.3c-0.3-0.4-0.9-0.8-1.7-1.3c-0.9-0.6-1.6-1.1-2-1.7c-0.4-0.6-0.6-1.2-0.6-2c0-1.2,0.4-2.1,1.3-2.9
		s2-1.1,3.3-1.1c0.5,0,1,0.1,1.6,0.2s1.1,0.3,1.6,0.5l-0.3,1.6c-0.9-0.6-1.8-0.8-2.9-0.8c-0.9,0-1.5,0.2-2.1,0.7
		c-0.5,0.4-0.8,1-0.8,1.7c0,0.5,0.1,1,0.4,1.3s0.8,0.8,1.7,1.3c1,0.6,1.7,1.2,2.2,1.8c0.4,0.6,0.6,1.2,0.6,1.9
		c0,1.2-0.4,2.1-1.3,2.9c-0.9,0.7-2.1,1.1-3.6,1.1c-0.6,0-1.2-0.1-1.9-0.2c-0.6-0.2-1.2-0.4-1.6-0.6L127.6,39.7z"/>
</g>
<rect x="34.5" y="21.9" class="st2" width="195.2" height="53.1"/>
</svg>
