<?xml version="1.0" encoding="utf-8"?>
<!-- Generator: Adobe Illustrator 23.0.1, SVG Export Plug-In . SVG Version: 6.00 Build 0)  -->
<svg version="1.1" id="Layer_1" xmlns="http://www.w3.org/2000/svg" xmlns:xlink="http://www.w3.org/1999/xlink" x="0px" y="0px"
	 viewBox="0 0 370 230" style="enable-background:new 0 0 370 230;" xml:space="preserve">
<style type="text/css">
	.st0{fill:#333333;}
	.st1{fill:#FFFFFF;}
</style>
<rect class="st0" width="370" height="230"/>
<g>
	<polygon class="st1" points="24.2,81.8 16.2,89.8 24.2,97.8 	"/>
</g>
<g>
	<g>
		<g>
			<path class="st1" d="M321.8,175.7c-2.4,0-4.8,0.5-6.9,1.3c5.7,3.9,9.4,10.4,9.4,17.7c0,7.4-3.7,13.9-9.4,17.7
				c2.1,0.8,4.5,1.3,6.9,1.3c10.5,0,19-8.5,19-19C340.9,184.2,332.3,175.7,321.8,175.7z"/>
		</g>
	</g>
	<g>
		<g>
			<path class="st1" d="M321.8,194.7c0-7-3.8-13.2-9.5-16.5c-2.8-1.6-6-2.6-9.5-2.6c-10.5,0-19,8.5-19,19s8.5,19,19,19
				c3.5,0,6.7-0.9,9.5-2.6C318,207.9,321.8,201.8,321.8,194.7z"/>
		</g>
	</g>
</g>
<g>
	<path class="st1" d="M280.1,29.6c0.8-0.2,2.4-0.3,3.9-0.3c1.8,0,3,0.2,3.9,0.7s1.6,1.3,1.6,2.4c0,1.1-0.7,2.1-2.2,2.7l0,0
		c1.5,0.4,2.6,1.5,2.6,3.1c0,1.1-0.5,2-1.4,2.6c-1,0.7-2.6,1.1-5.2,1.1c-1.5,0-2.6-0.1-3.3-0.2V29.6H280.1z M283.1,34.3h1
		c1.6,0,2.4-0.6,2.4-1.5c0-0.9-0.8-1.4-2.1-1.4c-0.6,0-1,0-1.3,0.1V34.3z M283.1,39.9c0.3,0,0.7,0,1.2,0c1.4,0,2.6-0.5,2.6-1.8
		s-1.2-1.8-2.7-1.8h-1v3.6H283.1z"/>
	<path class="st1" d="M295,38.7l-0.9,3.2H291l4.1-12.5h3.9l4.1,12.5h-3.2l-1-3.2H295z M298.4,36.6l-0.8-2.6
		c-0.2-0.7-0.5-1.7-0.7-2.4l0,0c-0.2,0.7-0.4,1.7-0.6,2.4l-0.8,2.6H298.4z"/>
	<path class="st1" d="M304.9,41.9V29.4h3.5l2.8,4.6c0.8,1.3,1.6,2.9,2.2,4.3h0.1c-0.2-1.6-0.3-3.3-0.3-5.2v-3.6h2.8V42h-3.2
		l-2.8-4.8c-0.8-1.3-1.7-2.9-2.3-4.4h-0.1c0.1,1.6,0.1,3.4,0.1,5.4V42L304.9,41.9L304.9,41.9z"/>
	<path class="st1" d="M318.4,29.4h3v5.5h0.1c0.3-0.5,0.6-0.9,0.9-1.4l3-4.1h3.7l-4.4,5.3l4.6,7.2h-3.5l-3.3-5.4l-1.1,1.3v4.1h-3
		L318.4,29.4L318.4,29.4z"/>
</g>
<g>
	<path class="st1" d="M36.7,41.9V23h6.7c6.7,0,10.1,3.1,10.1,9.2c0,2.9-0.9,5.3-2.7,7.1s-4.3,2.6-7.3,2.6
		C43.5,41.9,36.7,41.9,36.7,41.9z M41,26.4v12h2.1c1.8,0,3.3-0.6,4.3-1.7c1-1.1,1.6-2.6,1.6-4.5c0-1.8-0.5-3.2-1.6-4.3
		c-1-1-2.5-1.5-4.4-1.5C43,26.4,41,26.4,41,26.4z"/>
	<path class="st1" d="M68.3,36.3h-8.8c0.1,2,1.4,2.9,3.7,2.9c1.5,0,2.8-0.4,3.9-1.1v3c-1.2,0.7-2.9,1-4.9,1c-2.2,0-3.9-0.6-5.1-1.8
		c-1.2-1.2-1.8-2.9-1.8-5.1c0-2.2,0.7-4,2-5.3s2.9-2,4.8-2c2,0,3.5,0.6,4.6,1.8c1.1,1.2,1.6,2.8,1.6,4.8V36.3z M64.5,33.8
		c0-1.9-0.8-2.9-2.3-2.9c-0.7,0-1.2,0.3-1.7,0.8c-0.5,0.6-0.8,1.2-0.9,2.1H64.5z"/>
	<path class="st1" d="M75,40.3L75,40.3v1.6h-4.2v-20H75v8.5l0,0c1-1.6,2.5-2.4,4.4-2.4c1.7,0,3.1,0.6,4,1.8c0.9,1.2,1.4,2.8,1.4,4.9
		c0,2.3-0.5,4.1-1.6,5.4c-1.1,1.4-2.6,2-4.4,2C77.1,42.2,75.9,41.6,75,40.3z M74.9,34.6V36c0,0.9,0.3,1.6,0.8,2.2
		c0.5,0.6,1.1,0.9,1.9,0.9c0.9,0,1.7-0.4,2.2-1.1c0.5-0.7,0.8-1.8,0.8-3.1c0-1.1-0.2-2-0.7-2.6c-0.5-0.6-1.2-0.9-2-0.9
		s-1.5,0.3-2.1,0.9C75.2,32.8,74.9,33.6,74.9,34.6z"/>
	<path class="st1" d="M89.7,26.2c-0.7,0-1.3-0.2-1.7-0.6c-0.4-0.4-0.7-0.9-0.7-1.5s0.2-1.1,0.7-1.5s1-0.6,1.7-0.6s1.3,0.2,1.7,0.6
		c0.4,0.4,0.7,0.9,0.7,1.5s-0.2,1.2-0.7,1.6C90.9,26,90.4,26.2,89.7,26.2z M91.7,41.9h-4.2V28.4h4.2V41.9z"/>
	<path class="st1" d="M103.4,41.7c-0.6,0.3-1.5,0.5-2.8,0.5c-2.9,0-4.4-1.5-4.4-4.6v-6.2H94v-3.1h2.2v-2.9l4.2-1.2v4.1h3v3.1h-3v5.5
		c0,1.4,0.6,2.1,1.7,2.1c0.4,0,0.9-0.1,1.4-0.4L103.4,41.7L103.4,41.7z"/>
	<path class="st1" d="M113.5,42.2c-2.3,0-4.2-0.7-5.5-2.2c-1.4-1.5-2.1-3.4-2.1-5.9c0-2.2,0.5-4.2,1.4-5.9c0.9-1.7,2.2-3.1,3.8-4
		c1.6-1,3.5-1.4,5.5-1.4c1.9,0,3.6,0.4,5.1,1.2l-0.4,1.8c-1.4-1-3-1.5-4.9-1.5c-1.7,0-3.2,0.4-4.5,1.2c-1.3,0.8-2.4,2-3.1,3.4
		s-1.1,3.1-1.1,5c0,2.1,0.5,3.8,1.6,5s2.6,1.8,4.5,1.8c1.8,0,3.5-0.4,5.1-1.3l-0.4,1.9c-0.8,0.4-1.6,0.6-2.3,0.8
		C115.4,42.1,114.5,42.2,113.5,42.2L113.5,42.2z"/>
	<path class="st1" d="M130.6,41.9c0-0.9,0.2-2.1,0.4-3.6l0,0c-0.8,1.4-1.6,2.4-2.4,3.1c-0.8,0.6-1.6,0.9-2.6,0.9
		c-1.2,0-2.2-0.4-2.8-1.3c-0.7-0.9-1-2.1-1-3.6c0-1.7,0.4-3.3,1.1-4.7c0.7-1.5,1.7-2.6,3-3.4s2.7-1.2,4.2-1.2c1.1,0,2.5,0.2,4.2,0.5
		l-1.8,8.7c-0.1,0.6-0.2,1.4-0.4,2.4c-0.1,1-0.2,1.7-0.2,2.2C132.3,41.9,130.6,41.9,130.6,41.9z M132.8,29.8
		c-0.8-0.2-1.7-0.3-2.5-0.3c-1.2,0-2.3,0.3-3.2,1c-1,0.7-1.7,1.6-2.3,2.8c-0.6,1.2-0.8,2.5-0.8,3.9c0,2.4,0.8,3.6,2.5,3.6
		c0.7,0,1.4-0.3,2.2-0.9c0.7-0.6,1.4-1.5,2-2.6s1-2.3,1.3-3.4L132.8,29.8z"/>
	<path class="st1" d="M138.9,28.4h1.6l-0.4,3.1h0.1c0.6-1.1,1.2-2,1.9-2.6s1.4-0.9,2.3-0.9c0.5,0,1,0.1,1.4,0.3l-0.3,1.8h-0.1
		c-0.5-0.3-1-0.5-1.5-0.5c-1,0-1.9,0.6-2.8,1.8c-0.9,1.2-1.5,2.7-1.9,4.5l-1.3,5.9h-1.7l1.9-8.9C138.5,31.2,138.8,29.6,138.9,28.4z"
		/>
	<path class="st1" d="M154,41.9c0-0.9,0.2-2.1,0.4-3.6h-0.1c-0.7,1.3-1.5,2.3-2.3,2.9s-1.7,1-2.7,1c-1.2,0-2.1-0.4-2.8-1.3
		c-0.7-0.8-1-2.1-1-3.7c0-1.7,0.4-3.2,1.1-4.7c0.7-1.4,1.7-2.6,2.9-3.4s2.6-1.2,4.2-1.2c0.8,0,1.7,0.1,2.7,0.4l1.4-6.5h1.6
		l-3.3,15.8c-0.1,0.3-0.2,1-0.3,2.1c-0.1,1-0.2,1.8-0.2,2.2H154z M156.2,29.9c-0.8-0.3-1.7-0.4-2.5-0.4c-1.2,0-2.3,0.3-3.2,1
		c-0.9,0.6-1.7,1.6-2.3,2.8s-0.8,2.5-0.8,3.9c0,2.4,0.8,3.6,2.5,3.6c0.7,0,1.4-0.3,2.2-0.9c0.7-0.6,1.4-1.5,2-2.6s1.1-2.3,1.3-3.5
		L156.2,29.9z"/>
</g>
</svg>
