<?xml version="1.0" encoding="utf-8"?>
<!-- Generator: Adobe Illustrator 24.0.1, SVG Export Plug-In . SVG Version: 6.00 Build 0)  -->
<svg version="1.1" id="Layer_1" xmlns="http://www.w3.org/2000/svg" xmlns:xlink="http://www.w3.org/1999/xlink" x="0px" y="0px"
	 viewBox="0 0 512 128" style="enable-background:new 0 0 512 128;" xml:space="preserve">
<style type="text/css">
	.st0{fill:#FFFFFF;}
</style>
<g>
	<g>
		<path class="st0" d="M106,75.4c2.1,0,3.2,0.8,3.2,2.3c0,1-0.5,1.7-1.4,1.8c0.9,0.2,1.4,0.9,1.4,2c0,1.4-1.1,2.2-3.2,2.2h-5.2
			l0.5-0.6v-6.9l-0.5-0.7H106z M105.4,78.8c0.9,0,1.3-0.2,1.3-0.7c0-0.6-0.4-0.9-1.3-0.9h-1.7v1.7H105.4z M103.7,80.2v1.7h1.7
			c0.8,0,1.3-0.3,1.3-0.8c0-0.6-0.4-0.9-1.2-0.9H103.7z"/>
		<path class="st0" d="M115.5,75.4h5.2c2.1,0,3.2,0.8,3.2,2.5c0,1.4-0.6,2.2-1.9,2.5l2.3,3.3h-3.7L121,83l-1.6-2.3h-1.1V83l0.5,0.6
			h-3.4l0.5-0.6v-7.2L115.5,75.4z M118.4,77.1v2.1h1.7c0.9,0,1.3-0.4,1.3-1.1c0-0.7-0.4-1-1.3-1H118.4z"/>
		<path class="st0" d="M130.5,75.4h3.5l-0.5,0.6v7.1l0.5,0.6h-3.5l0.5-0.6v-7L130.5,75.4z"/>
		<path class="st0" d="M140.8,75.4h2.6l4.3,4.8V76l-0.5-0.6h2.9l-0.5,0.6v7.7h-1.9l-4.5-4.9V83l0.5,0.6h-2.9l0.5-0.6v-7L140.8,75.4z
			"/>
		<path class="st0" d="M165.2,75.2V78c-1.1-0.6-2.2-0.9-3.3-0.9c-1.6,0-2.4,0.8-2.4,2.5c0,1.6,0.8,2.5,2.3,2.5c0.5,0,1-0.1,1.3-0.2
			v-1.7l-0.5-0.6h2.9V83c-0.9,0.6-2.3,0.8-4.1,0.8c-3,0-4.4-1.4-4.4-4.3c0-2.8,1.7-4.2,5-4.2c0.9,0,1.8,0.2,2.6,0.5L165.2,75.2z"/>
		<path class="st0" d="M182.8,75.4h3.4l-0.5,0.6v4.5c0,1,0.6,1.5,1.7,1.5c1.1,0,1.7-0.5,1.7-1.5V76l-0.5-0.6h3.4l-0.5,0.6v4.5
			c0,2.2-1.4,3.3-4.1,3.3c-2.8,0-4.1-1.1-4.1-3.3V76L182.8,75.4z"/>
		<path class="st0" d="M205.1,75.2v2.7c-1.3-0.6-2.5-0.9-3.5-0.9c-0.6,0-0.9,0.2-0.9,0.5c0,0.3,0.8,0.8,2.4,1.2
			c1.6,0.6,2.5,1.4,2.5,2.5c0,1.7-1.2,2.6-3.4,2.6c-0.9,0-2-0.2-3.2-0.7l-0.6,0.7v-3c1.3,0.8,2.6,1.2,3.8,1.2c0.6,0,1-0.2,1-0.6
			c0-0.3-0.6-0.7-1.9-1.1c-1.1-0.3-1.8-0.7-2.3-1.2c-0.4-0.5-0.6-1-0.6-1.6c0-0.8,0.4-1.4,1.3-1.9c0.6-0.3,1.4-0.4,2.3-0.4
			c0.7,0,1.6,0.2,2.7,0.6L205.1,75.2z"/>
		<path class="st0" d="M311.2,81.4l-3.5-6h3.4l-0.5,0.5l2,3.8l2.1-3.9l-0.4-0.4h2.8v0l-3.4,5.9v1.8l0.5,0.6h-3.5l0.5-0.6V81.4z"/>
		<path class="st0" d="M327.3,75.2c3.1,0,4.7,1.4,4.7,4.3c0,2.8-1.5,4.3-4.6,4.3c-3.2,0-4.8-1.4-4.8-4.3
			C322.5,76.6,324.1,75.2,327.3,75.2z M325.1,79.4c0,1.7,0.7,2.6,2.2,2.6c1.4,0,2.1-0.8,2.1-2.5c0-1.7-0.7-2.6-2.2-2.6
			C325.8,77,325.1,77.8,325.1,79.4z"/>
		<path class="st0" d="M338.6,75.4h3.4l-0.5,0.6v4.5c0,1,0.6,1.5,1.7,1.5c1.1,0,1.7-0.5,1.7-1.5V76l-0.5-0.6h3.4l-0.5,0.6v4.5
			c0,2.2-1.4,3.3-4.1,3.3c-2.8,0-4.1-1.1-4.1-3.3V76L338.6,75.4z"/>
		<path class="st0" d="M353.9,75.4h5.2c2.1,0,3.2,0.8,3.2,2.5c0,1.4-0.6,2.2-1.9,2.5l2.3,3.3H359l0.5-0.6l-1.6-2.3h-1.1V83l0.5,0.6
			h-3.4l0.5-0.6v-7.2L353.9,75.4z M356.8,77.1v2.1h1.7c0.9,0,1.3-0.4,1.3-1.1c0-0.7-0.4-1-1.3-1H356.8z"/>
		<path class="st0" d="M383.1,75.4c2.1,0,3.2,0.8,3.2,2.3c0,1-0.5,1.7-1.4,1.8c0.9,0.2,1.4,0.9,1.4,2c0,1.4-1.1,2.2-3.2,2.2h-5.2
			l0.5-0.6v-6.9l-0.5-0.7H383.1z M382.5,78.8c0.9,0,1.3-0.2,1.3-0.7c0-0.6-0.4-0.9-1.3-0.9h-1.7v1.7H382.5z M380.9,80.2v1.7h1.7
			c0.8,0,1.3-0.3,1.3-0.8c0-0.6-0.4-0.9-1.2-0.9H380.9z"/>
		<path class="st0" d="M392.8,75.4h3.4l-0.5,0.6v4.5c0,1,0.6,1.5,1.7,1.5c1.1,0,1.7-0.5,1.7-1.5V76l-0.5-0.6h3.4l-0.5,0.6v4.5
			c0,2.2-1.4,3.3-4.1,3.3c-2.8,0-4.1-1.1-4.1-3.3V76L392.8,75.4z"/>
		<path class="st0" d="M411.2,79.4l-3.2-4.1h3.5l-0.4,0.5l1.7,2.4l1.7-2.4l-0.4-0.5h3.3v0l-3.2,4.1l3.2,4.1h-3.4l0.4-0.5l-1.7-2.4
			l-1.8,2.4l0.4,0.5h-3.3v0L411.2,79.4z"/>
	</g>
	<g>
		<g>
			<path class="st0" d="M27.3,47.1v5.8c-2.9-1.3-5.4-1.9-7.6-1.9c-1.3,0-2,0.4-2,1.1c0,0.7,1.7,1.6,5.2,2.6c3.5,1.3,5.3,3.1,5.3,5.4
				c0,3.7-2.5,5.5-7.5,5.5c-1.9,0-4.3-0.5-7-1.4l-1.4,1.5v-6.4c2.8,1.7,5.5,2.6,8.2,2.6c1.4,0,2.1-0.4,2.1-1.2
				c0-0.8-1.4-1.5-4.1-2.3c-2.3-0.7-4-1.6-5-2.7c-0.8-1-1.3-2.1-1.3-3.5c0-1.7,1-3.1,2.9-4.1c1.4-0.6,3-0.9,5-0.9
				c1.5,0,3.4,0.4,5.8,1.2L27.3,47.1z"/>
			<path class="st0" d="M52,47.4v5.3l-1.3-1.1h-5V64l1.1,1.3h-7.5l1.1-1.4V51.7h-5l-1.3,1.1v-5.3H52z"/>
			<path class="st0" d="M58.4,47.4h11.2c4.6,0,6.8,1.8,6.8,5.4c0,3-1.4,4.8-4.1,5.4l4.9,7.1h-8l1.1-1.4l-3.4-5.1h-2.3V64l1.1,1.4
				h-7.4l1.1-1.2V48.6L58.4,47.4z M64.7,51.1v4.4h3.6c1.8,0,2.8-0.8,2.8-2.3c0-1.4-0.9-2.2-2.8-2.2H64.7z"/>
			<path class="st0" d="M89.9,47.4h6l8.8,18h-7.5l1.1-1.4l-0.8-1.8h-8.6L88,64l1.1,1.4h-6.5l8-16.6L89.9,47.4z M90.1,58.9h6l-3-6.4
				L90.1,58.9z"/>
			<path class="st0" d="M110.4,47.4h5.6l9.2,10.4v-9.1l-1-1.3h6.3l-1.1,1.4v16.6h-4l-9.7-10.5V64l1.1,1.4h-6.3l1.1-1.3V48.8
				L110.4,47.4z"/>
			<path class="st0" d="M137.6,65.3l1.1-1.3V48.7l-1.1-1.4h9.6c6.6,0,10,3,10,9c0,5.9-3.3,8.9-9.8,8.9H137.6z M144,61.6h2.6
				c3.3,0,5-1.7,5-5.2c0-3.5-1.7-5.3-5.1-5.3H144V61.6z"/>
			<path class="st0" d="M163.2,47.4h16.9v4.8l-1.4-1.1h-9.1v3.5h5.8l1.4-1.1v5.7l-1.4-1.1h-5.8v3.5h9.1l1.4-1.1v4.8h-16.9l1.1-1.4
				V48.7L163.2,47.4z"/>
			<path class="st0" d="M187.9,65.3L189,64V48.7l-1.1-1.4h9.6c6.6,0,10,3,10,9c0,5.9-3.3,8.9-9.8,8.9H187.9z M194.4,61.6h2.6
				c3.3,0,5-1.7,5-5.2c0-3.5-1.7-5.3-5.1-5.3h-2.4V61.6z"/>
		</g>
		<g>
			<path class="st0" d="M314.3,58.3V64l1.1,1.3h-7.5l1.1-1.4V48.7l-1.1-1.4h7.5l-1.1,1.3v5.5h8.5v-5.4l-1.1-1.4h7.5l-1.1,1.3V64
				l1.1,1.3h-7.5l1.1-1.4v-5.7H314.3z"/>
			<path class="st0" d="M346,47.1c6.8,0,10.1,3.1,10.1,9.3c0,6.1-3.3,9.2-10,9.2c-6.9,0-10.4-3.1-10.4-9.4
				C335.8,50.1,339.2,47.1,346,47.1z M341.3,56.2c0,3.8,1.6,5.6,4.8,5.6c3,0,4.5-1.8,4.5-5.4c0-3.7-1.6-5.5-4.7-5.5
				C342.8,50.9,341.3,52.7,341.3,56.2z"/>
			<path class="st0" d="M362.6,47.4h7.4l-1,1.4v12.9h8.4l1.6-1.1v4.8h-16.4l1.1-1.4V48.7L362.6,47.4z"/>
			<path class="st0" d="M385.9,65.3L387,64V48.7l-1.1-1.4h9.6c6.6,0,10,3,10,9c0,5.9-3.3,8.9-9.8,8.9H385.9z M392.3,61.6h2.6
				c3.3,0,5-1.7,5-5.2c0-3.5-1.7-5.3-5.1-5.3h-2.4V61.6z"/>
			<path class="st0" d="M412.8,47.4h7.5l-1.1,1.3V64l1.1,1.3h-7.5l1.1-1.4V48.7L412.8,47.4z"/>
			<path class="st0" d="M428.8,47.4h5.6l9.2,10.4v-9.1l-1-1.3h6.3l-1.1,1.4v16.6h-4l-9.7-10.5V64l1.1,1.4h-6.3l1.1-1.3V48.8
				L428.8,47.4z"/>
			<path class="st0" d="M474.7,47.1V53c-2.5-1.3-4.8-2-7.1-2c-3.4,0-5.1,1.8-5.1,5.4c0,3.6,1.7,5.3,5,5.3c1.1,0,2.1-0.1,2.8-0.4
				v-3.6l-1.1-1.4h6.3v7.3c-2,1.2-5,1.8-8.9,1.8c-6.4,0-9.6-3.1-9.6-9.4c0-6,3.6-9,10.9-9c2,0,3.8,0.3,5.6,1L474.7,47.1z"/>
			<path class="st0" d="M499.4,47.1v5.8c-2.9-1.3-5.4-1.9-7.6-1.9c-1.3,0-2,0.4-2,1.1c0,0.7,1.7,1.6,5.2,2.6
				c3.5,1.3,5.3,3.1,5.3,5.4c0,3.7-2.5,5.5-7.4,5.5c-1.9,0-4.3-0.5-7-1.4l-1.4,1.5v-6.4c2.8,1.7,5.5,2.6,8.2,2.6
				c1.4,0,2.1-0.4,2.1-1.2c0-0.8-1.4-1.5-4.1-2.3c-2.3-0.7-4-1.6-5-2.7c-0.8-1-1.3-2.1-1.3-3.5c0-1.7,1-3.1,2.9-4.1
				c1.4-0.6,3-0.9,5-0.9c1.5,0,3.4,0.4,5.8,1.2L499.4,47.1z"/>
		</g>
	</g>
	<g>
		<path class="st0" d="M257.1,124L257.1,124c0.3,0,0.3-0.2,0.2-0.3c-0.1,0-0.1-0.1-0.2-0.1c-1.1-0.7-2.2-1.7-3-2.7
			c-0.4-0.5-0.7-1-1-1.5c-0.3-0.5-0.5-1-0.6-1.5c-0.1-0.5-0.2-1-0.2-1.6c0,0,0-0.6,0-1.6c0-0.4,0-0.9,0-1.5c0-0.4,0-0.9,0-1.5
			c0-8.5,0-27.2,0-40.9c-4.5-1.4-8.9-2.9-13.2-4.7c0,11.9,0,30.1,0,41c0,0.6,0,1.1,0,1.7c0,0.6,0,1.1,0,1.6c0,1.4,0,2.6,0,3.6
			c0,0.7,0,1.2,0,1.6c0,0.4,0,0.6,0,0.6c0,0.3,0,0.6-0.1,0.9c-0.4,2.7-2.7,5.1-5,6.6c-0.2,0.1-0.1,0.3,0.1,0.3H257.1z"/>
		<path class="st0" d="M261.2,3.4L261.2,3.4c-0.3,0-0.3,0.2-0.2,0.3c0.1,0,0.1,0.1,0.2,0.1c0.6,0.4,1.2,0.8,1.7,1.3
			c0.6,0.5,1.1,1.1,1.5,1.7c0.4,0.5,0.7,1.1,1,1.6c0.4,0.9,0.6,1.8,0.6,2.7c0,0,0,0.2,0,0.6c0,0.3,0,0.7,0,1.2c0,0,0,0.1,0,0.3
			c0,0.1,0,0.2,0,0.3c0,0.4,0,0.7,0,1.2c0,6.8,0,23.7,0,34.9c4.3,1.5,8.8,3.3,13.2,5.4V21.1c0-0.6,0-1.2,0-1.8c0,0,0,0,0,0
			c0-0.6,0-1.2,0-1.8c0-0.9,0-1.6,0-2.3c0-0.7,0-1.3,0-1.8c0-0.7,0-1.3,0-1.7c0-0.4,0-0.6,0-0.6c0-0.3,0-0.6,0.1-1
			c0.5-2.6,2.7-5,5-6.5c0.2-0.1,0.1-0.3-0.1-0.3H261.2z"/>
		<path class="st0" d="M234,3.4c-0.2,0-0.3,0.2-0.1,0.3c1.9,1.2,3.9,3.2,4.7,5.3c0.2,0.5,0.3,1,0.4,1.4c0,0.2,0.1,0.5,0.1,0.7
			c0,0,0,0.3,0,0.9c0,0.4,0,1,0,1.7c0,0.4,0,1.1,0,1.8c0,0.5,0,1.1,0,1.7c0,0,0,0,0,0.1c0,0.5,0,1.1,0,1.6c0,5.3,0,14.2,0,20.3
			c0.7,0.4,1.5,0.7,2.2,1.1c1.2,0.6,2.5,1.2,3.9,1.8c2.2,1,4.6,1.9,7.1,2.8c0-8.6,0-24.7,0-30.9c0-0.4,0-0.8,0-1.2c0,0,0,0,0,0
			c0-0.1,0-0.2,0-0.2c0-0.8,0-1.3,0-1.5c0,0,0,0,0,0c0-1.1,0.3-2.2,0.9-3.2c0.3-0.5,0.7-1.1,1.1-1.5c0.5-0.6,1-1.1,1.5-1.5
			c0.5-0.4,0.9-0.8,1.4-1.1c0.1,0,0.1-0.1,0.2-0.1c0.2-0.1,0.1-0.3-0.1-0.3c0,0,0,0-0.1,0H234z"/>
		<path class="st0" d="M284.2,124c0.2,0,0.3-0.2,0.1-0.3c-2.6-1.6-5.1-4.5-5.1-7.5c0,0,0-0.2,0-0.5c0-0.4,0-0.9,0-1.6
			c0-0.5,0-1,0-1.7c0-1.1,0-2.3,0-3.7c0-0.6,0-1.1,0-1.7c0-0.6,0-1.2,0-1.8c0-7.4,0-17.1,0-25.1c-1.1-0.6-2.2-1.1-3.2-1.5
			c-0.5-0.2-1.1-0.4-1.6-0.7c-2.7-1-5.5-2-8.3-2.8c0,10.7,0,27.7,0,36.1c0,0.5,0,1,0,1.5c0,0.5,0,1,0,1.5c0,1.4,0,2.1,0,2.1
			c0,0.4,0,0.7-0.1,1.1c-0.1,0.5-0.3,1.1-0.5,1.6c-0.3,0.6-0.6,1.1-0.9,1.6c-0.9,1.2-2.1,2.3-3.3,3.1c-0.1,0-0.1,0.1-0.2,0.1
			c-0.2,0.1-0.1,0.3,0.1,0.3h0.1H284.2z"/>
		<g>
			<path class="st0" d="M262.2,14.2v-1.1v-0.6c0-0.3-0.1-0.6-0.3-1c-0.1-0.1-0.2-0.3-0.2-0.4c-1.4-0.1-2.7-0.2-4.1-0.2
				c-0.3,0-0.6,0-0.8,0c-0.1,0.1-0.2,0.2-0.3,0.4c-0.3,0.5-0.4,1-0.4,1.4v1.4c0.5,0,1-0.1,1.5-0.1C259.1,13.9,260.6,14,262.2,14.2z"
				/>
			<path class="st0" d="M256,113.6v1.3c0,0.2,0,0.3,0.1,0.5c0.1,0.2,0.2,0.5,0.3,0.7c0.1,0.2,0.3,0.4,0.4,0.6c0.2,0,0.5,0,0.7,0
				c1.4,0,2.7-0.1,4-0.2c0.1-0.2,0.3-0.4,0.4-0.6c0.1-0.3,0.2-0.5,0.2-0.7c0-0.1,0-0.2,0-0.3v-1.5c-1.5,0.2-3.1,0.3-4.7,0.3
				C257.1,113.6,256.5,113.6,256,113.6z"/>
			<path class="st0" d="M298.1,78.6c-0.4-3-1.7-5.7-3.6-8.1c-2.9-3.8-7.1-6.7-11.4-9c-1.9-1.1-3.9-2-5.7-2.9
				c-2.7-1.2-5.5-2.3-8.2-3.3c-2.3-0.9-4.7-1.7-7-2.5c-0.2-0.1-0.5-0.2-0.7-0.2c-1.8-0.6-3.6-1.2-5.5-1.9c-1.7-0.6-3.3-1.2-5-1.8
				c-3.8-1.4-7.5-2.9-11.1-4.7c-0.3-0.2-0.6-0.3-1-0.5c-1.3-0.6-2.6-1.3-3.9-2.1c-3.4-2.1-6.5-4.7-7.5-8.5
				c-1.3-5.2,2.9-8.4,6.5-11.3c0.3-0.2,0.6-0.5,0.9-0.7v-0.9v-1.6v-0.1v-1.2c-0.6,0.4-1.3,0.8-1.9,1.2c-0.2,0.1-0.3,0.2-0.5,0.3
				c-0.1,0-0.1,0.1-0.2,0.1c-5.6,4.1-9.8,9.3-12,15.9c-0.4,1.3-0.8,2.7-1.1,4.1c-2.1,10,6.9,16.6,15.7,20.9c3,1.5,6,2.6,8.5,3.6
				c4.1,1.6,8.3,2.9,12.5,4.2c0.1,0,0.2,0,0.2,0.1c2,0.6,3.9,1.2,5.9,1.8c1.3,0.4,2.6,0.8,3.9,1.2c5.9,1.8,11.7,3.9,17.1,6.9
				c1.7,1,3.4,2,5,3.2c3.4,2.5,6.1,5.9,4.9,10.1c-1.3,4.5-4.9,8.9-8.3,12.2c-0.5,0.5-1,0.9-1.6,1.4v1.2v1.7v1.2c1-0.7,2-1.5,2.9-2.3
				c0.3-0.3,0.7-0.6,1-0.9c0.3-0.3,0.7-0.6,1-0.9c3.4-3.5,6.1-7.4,7.9-11.9C297.7,88.1,298.8,83.3,298.1,78.6z"/>
			<path class="st0" d="M284.3,36.5c-1.9,2-1.7,5.8,0.6,7.4c2.9,2,7.1-0.2,8.4-3.1c0.7-1.5,1-3,1.1-4.4c0-0.9-0.1-1.8-0.2-2.6
				c-0.3-1.5-0.9-2.9-1.7-4.3c-0.2-0.3-0.4-0.6-0.6-0.9c0,0-0.1-0.1-0.1-0.1c-2.3-3.6-5.2-6.7-8.6-9.2v1.4v1.8v1.4
				c0.4,0.4,0.8,0.8,1.2,1.3c1,1.1,2.2,2.2,3.1,3.4c0.2,0.3,0.4,0.7,0.6,1c0,0,0,0.1,0.1,0.1c0.1,0.1,0.1,0.2,0.1,0.3
				c0.5,1.1,0.8,2.6,0,3.6C287.3,34.9,285.4,35.3,284.3,36.5z"/>
			<path class="st0" d="M226.4,83c2.1-1.3,4.5-1.7,6.4-3.4c3.5-3.2,3.5-9.2-1.4-11.1c-8-3.1-14.8,5.6-15,12.8c0,1.2,0,2.4,0.2,3.6
				c1.1,7.2,4.5,13.4,9.8,18.7c2.5,2.7,5.4,5,8.7,6.9v-1.5v-1.6v-0.7c-3.5-2.3-6.8-5.1-9-8.5C222.7,93.4,220.1,86.9,226.4,83z"/>
		</g>
	</g>
	<rect x="12.3" y="78.7" class="st0" width="77.3" height="2.1"/>
	<rect x="425.6" y="78.7" class="st0" width="74.7" height="2.1"/>
</g>
</svg>
