<?xml version="1.0" encoding="utf-8"?>
<!-- Generator: Adobe Illustrator 25.0.0, SVG Export Plug-In . SVG Version: 6.00 Build 0)  -->
<svg version="1.1" id="Layer_1" xmlns="http://www.w3.org/2000/svg" xmlns:xlink="http://www.w3.org/1999/xlink" x="0px" y="0px"
	 viewBox="0 0 100 100" style="enable-background:new 0 0 100 100;" xml:space="preserve">
<style type="text/css">
	.st0{fill:#EDE7DF;}
	.st1{fill:url(#SVGID_1_);}
	.st2{fill:url(#SVGID_2_);}
	.st3{fill:#9F9BC9;}
	.st4{fill:#8280A3;}
	.st5{fill:#FFFFFF;}
	.st6{fill:url(#SVGID_3_);}
	.st7{fill:#79A8AB;}
</style>
<g id="bg_1_">
	<rect class="st0" width="100" height="100"/>
	
		<linearGradient id="SVGID_1_" gradientUnits="userSpaceOnUse" x1="84.1506" y1="1917.1506" x2="15.8494" y2="1798.8494" gradientTransform="matrix(1 0 0 1 0 -1808)">
		<stop  offset="0" style="stop-color:#FFFFFF;stop-opacity:0"/>
		<stop  offset="1" style="stop-color:#FFFFFF;stop-opacity:0.2"/>
	</linearGradient>
	<rect class="st1" width="100" height="100"/>
</g>
<g>
	<linearGradient id="SVGID_2_" gradientUnits="userSpaceOnUse" x1="-8.2301" y1="57.5722" x2="51.5212" y2="57.5722">
		<stop  offset="0" style="stop-color:#D6D4EB"/>
		<stop  offset="1" style="stop-color:#9F9BC9"/>
	</linearGradient>
	<path class="st2" d="M59.2,55.2c0,5.6-1.9,10.8-5.2,14.8c-0.4,0.5-0.8,0.9-1.2,1.3C48.5,76.1,42.3,79,35.4,79
		c-2.2,0-4.2-0.3-6.2-0.8l-11.3,5.5l1.3-11.1c-1.5-1.4-2.9-3.1-4-4.8c-2.3-3.6-3.6-8-3.6-12.6c0-0.8,0-1.6,0.1-2.3
		c0.9-9.3,7.1-17,15.5-20c2.4-0.9,5-1.4,7.7-1.4c0.1,0,0.3,0,0.4,0c0.9,0,1.8,0.1,2.7,0.2c2.8,0.3,5.4,1.1,7.8,2.3
		c0.1,0,0.2,0.1,0.3,0.1c7.6,3.9,12.8,11.6,13,20.6C59.2,54.8,59.2,55,59.2,55.2z"/>
	<g>
		<path class="st3" d="M34.4,39.5c-9.1,0-16.5,7.4-16.5,16.5c0,9.1,7.4,16.5,16.5,16.5c9.1,0,16.5-7.4,16.5-16.5
			C50.9,46.8,43.5,39.5,34.4,39.5z M34.4,69.9c-7.7,0-13.9-6.3-13.9-13.9c0-7.7,6.3-13.9,13.9-13.9c7.7,0,13.9,6.2,13.9,13.9
			C48.3,63.6,42.1,69.9,34.4,69.9z"/>
		<path class="st3" d="M34.4,56.1c-3.2,0-5.8,2.6-5.8,5.8c0,0.6,0.5,1,1,1c0.6,0,1-0.5,1-1c0-2,1.7-3.7,3.7-3.7c2,0,3.7,1.7,3.7,3.7
			c0,0.6,0.5,1,1,1c0.6,0,1-0.5,1-1C40.2,58.7,37.6,56.1,34.4,56.1z"/>
		<path class="st3" d="M31.4,51.8c0-1-0.8-1.9-1.9-1.9c-1,0-1.9,0.8-1.9,1.9s0.8,1.9,1.9,1.9C30.6,53.6,31.4,52.8,31.4,51.8z"/>
		<path class="st3" d="M39.1,49.9c-1,0-1.9,0.8-1.9,1.9s0.8,1.9,1.9,1.9c1,0,1.9-0.8,1.9-1.9S40.2,49.9,39.1,49.9z"/>
	</g>
	<path class="st4" d="M40.8,40.1c0-2.6,0.4-5.1,1.2-7.5c-2.2,3.6-3.6,7.8-3.6,12c0,10.5,8.7,20.2,18.4,21c0.6-0.8,1.2-1.6,1.8-2.5
		C48.4,60.4,40.8,51.1,40.8,40.1z"/>
	<g>
		<path class="st5" d="M34.9,38.6c-9.1,0-16.5,7.4-16.5,16.5c0,9.1,7.4,16.5,16.5,16.5c9.1,0,16.5-7.4,16.5-16.5
			C51.4,46,44,38.6,34.9,38.6z M34.9,69C27.3,69,21,62.7,21,55c0-7.7,6.3-13.9,13.9-13.9c7.7,0,13.9,6.2,13.9,13.9
			C48.9,62.7,42.6,69,34.9,69z"/>
		<path class="st5" d="M34.9,55.2c-3.2,0-5.8,2.6-5.8,5.8c0,0.6,0.5,1,1,1c0.6,0,1-0.5,1-1c0-2,1.7-3.7,3.7-3.7c2,0,3.7,1.7,3.7,3.7
			c0,0.6,0.5,1,1,1c0.6,0,1-0.5,1-1C40.7,57.8,38.1,55.2,34.9,55.2z"/>
		<path class="st5" d="M31.9,50.9c0-1-0.8-1.9-1.9-1.9c-1,0-1.9,0.8-1.9,1.9c0,1,0.8,1.9,1.9,1.9C31.1,52.7,31.9,51.9,31.9,50.9z"/>
		<path class="st5" d="M39.7,49c-1,0-1.9,0.8-1.9,1.9c0,1,0.8,1.9,1.9,1.9c1,0,1.9-0.8,1.9-1.9C41.5,49.8,40.7,49,39.7,49z"/>
	</g>
	<linearGradient id="SVGID_3_" gradientUnits="userSpaceOnUse" x1="133.9451" y1="-25.5732" x2="59.9449" y2="51.139">
		<stop  offset="0" style="stop-color:#B2D0D2"/>
		<stop  offset="0.247" style="stop-color:#AACACD"/>
		<stop  offset="0.6282" style="stop-color:#94BBBE"/>
		<stop  offset="0.9987" style="stop-color:#79A8AB"/>
	</linearGradient>
	<path class="st6" d="M64.6,16.3c-3.2,0-6.3,0.6-9.1,1.8c-0.3,0.1-0.6,0.3-0.9,0.4c-5.9,2.7-10.5,7.9-12.6,14.1
		c-0.8,2.4-1.2,4.9-1.2,7.5c0,11.1,7.5,20.3,17.7,23c1.9,0.5,4,0.8,6.1,0.8c2.2,0,4.3-0.3,6.2-0.8l11.3,5.5l-1.3-11.1
		c2.1-1.9,3.8-4.2,5-6.7c0.6-1.1,1-2.3,1.4-3.5c0.7-2.3,1.1-4.7,1.1-7.2C88.5,26.9,77.8,16.3,64.6,16.3z"/>
	<g>
		<path class="st7" d="M65.4,22.4c-9.1,0-16.5,7.4-16.5,16.5c0,9.1,7.4,16.5,16.5,16.5c9.1,0,16.5-7.4,16.5-16.5
			C81.9,29.8,74.5,22.4,65.4,22.4z M65.4,52.8c-7.7,0-13.9-6.3-13.9-13.9c0-7.7,6.3-13.9,13.9-13.9c7.7,0,13.9,6.3,13.9,13.9
			C79.3,46.6,73.1,52.8,65.4,52.8z"/>
		<path class="st7" d="M72.6,39.1c-0.5,0-0.9,0.4-0.9,0.9c0,3.5-2.8,6.3-6.3,6.3c-3.5,0-6.3-2.8-6.3-6.3c0-0.5-0.4-0.9-0.9-0.9
			c-0.5,0-0.9,0.4-0.9,0.9c0,4.5,3.6,8.1,8.1,8.1c4.5,0,8.1-3.6,8.1-8.1C73.5,39.5,73.1,39.1,72.6,39.1z"/>
		<path class="st7" d="M60.5,36.6c1,0,1.9-0.8,1.9-1.9c0-1-0.8-1.9-1.9-1.9c-1,0-1.9,0.8-1.9,1.9C58.7,35.8,59.5,36.6,60.5,36.6z"/>
		<path class="st7" d="M70.1,36.6c1,0,1.9-0.8,1.9-1.9c0-1-0.8-1.9-1.9-1.9c-1,0-1.9,0.8-1.9,1.9C68.3,35.8,69.1,36.6,70.1,36.6z"/>
	</g>
	<g>
		<path class="st5" d="M64.6,23.4c-9.1,0-16.5,7.4-16.5,16.5c0,9.1,7.4,16.5,16.5,16.5c9.1,0,16.5-7.4,16.5-16.5
			C81.1,30.7,73.7,23.4,64.6,23.4z M64.6,53.7c-7.7,0-13.9-6.3-13.9-13.9c0-7.7,6.3-13.9,13.9-13.9c7.7,0,13.9,6.3,13.9,13.9
			C78.6,47.5,72.3,53.7,64.6,53.7z"/>
		<path class="st5" d="M71.9,40c-0.5,0-0.9,0.4-0.9,0.9c0,3.5-2.8,6.3-6.3,6.3c-3.5,0-6.3-2.8-6.3-6.3c0-0.5-0.4-0.9-0.9-0.9
			c-0.5,0-0.9,0.4-0.9,0.9c0,4.5,3.6,8.1,8.1,8.1c4.5,0,8.1-3.6,8.1-8.1C72.8,40.4,72.4,40,71.9,40z"/>
		<path class="st5" d="M59.8,37.5c1,0,1.9-0.8,1.9-1.9c0-1-0.8-1.9-1.9-1.9c-1,0-1.9,0.8-1.9,1.9C57.9,36.7,58.7,37.5,59.8,37.5z"/>
		<path class="st5" d="M69.4,37.5c1,0,1.9-0.8,1.9-1.9c0-1-0.8-1.9-1.9-1.9c-1,0-1.9,0.8-1.9,1.9C67.5,36.7,68.3,37.5,69.4,37.5z"/>
	</g>
</g>
</svg>
