<?xml version="1.0" encoding="utf-8"?>
<!-- Generator: Adobe Illustrator 25.0.0, SVG Export Plug-In . SVG Version: 6.00 Build 0)  -->
<svg version="1.1" id="Layer_1" xmlns="http://www.w3.org/2000/svg" xmlns:xlink="http://www.w3.org/1999/xlink" x="0px" y="0px"
	 viewBox="0 0 586 770" style="enable-background:new 0 0 586 770;" xml:space="preserve">
<style type="text/css">
	.st0{opacity:0.2;}
	.st1{fill:url(#SVGID_1_);}
	.st2{opacity:0.8;fill:none;stroke:#000000;stroke-width:3;stroke-miterlimit:10;}
</style>
<g class="st0">
	<path d="M532.9,2.5c17.8,0,29.5,0,40.1,10.6c10.5,10.5,10.5,21.6,10.5,40v663.8c0,17.8,0,29.5-10.6,40.1
		c-10.5,10.5-21.6,10.5-40,10.5H53.1c-17.8,0-29.5,0-40.1-10.6c-10.5-10.5-10.5-21.6-10.5-40V53.1c0-17.8,0-29.5,10.6-40.1
		C23.6,2.5,34.7,2.5,53.1,2.5H532.9 M532.9,1.5H53.1c-18.6,0-29.9,0-40.7,10.8C1.5,23.2,1.5,35.1,1.5,53.1v663.8
		c0,18.6,0,29.9,10.8,40.7c10.9,10.9,22.8,10.9,40.8,10.9h479.8c18.6,0,29.9,0,40.7-10.8c10.9-10.9,10.9-22.8,10.9-40.8V53.1
		c0-18.6,0-29.9-10.8-40.7C562.8,1.5,550.9,1.5,532.9,1.5L532.9,1.5z"/>
</g>
<g>
	
		<linearGradient id="SVGID_1_" gradientUnits="userSpaceOnUse" x1="0" y1="382.811" x2="585.9999" y2="382.811" gradientTransform="matrix(1 0 0 -1 0 767.811)">
		<stop  offset="0" style="stop-color:#DCDCDC"/>
		<stop  offset="0.1517" style="stop-color:#D8D8D8"/>
		<stop  offset="0.3153" style="stop-color:#CBCBCB"/>
		<stop  offset="0.4845" style="stop-color:#B5B5B5"/>
		<stop  offset="0.6576" style="stop-color:#979797"/>
		<stop  offset="0.8318" style="stop-color:#707070"/>
		<stop  offset="1" style="stop-color:#444444"/>
	</linearGradient>
	<path class="st1" d="M532.9,1.5c18,0,29.9,0,40.8,10.9c10.8,10.8,10.8,22.1,10.8,40.7v663.8c0,18,0,29.9-10.9,40.8
		c-10.8,10.8-22.1,10.8-40.7,10.8H53.1c-18,0-29.9,0-40.8-10.9C1.5,746.8,1.5,735.5,1.5,716.9V53.1c0-18,0-29.9,10.9-40.8
		C23.2,1.5,34.5,1.5,53.1,1.5H532.9 M532.9,0H53.1C34.4,0,22.5,0.1,11.3,11.3S0,34.4,0,53.1v663.8c0,18.7,0.1,30.6,11.3,41.8
		C22.5,769.9,34.4,770,53.1,770h479.8c18.7,0,30.6-0.1,41.8-11.3s11.3-23.2,11.3-41.8V53.1c0-18.7-0.1-30.6-11.3-41.8
		C563.5,0.1,551.6,0,532.9,0L532.9,0z"/>
</g>
<path class="st2" d="M556,37h-79.7c-10.2,0-19.9-4-27.1-11.2c-7.6-7.6-17.7-11.8-28.4-11.8h-14.1H48.1c-11.7,0-19.4,0-26.7,7.3
	C14,28.7,14,36.4,14,48.1v673.7c0,11.8,0,19.5,7.3,26.8c7.4,7.4,15.5,7.4,26.8,7.4h489.7c11.8,0,19.5,0,26.8-7.3
	c7.4-7.4,7.4-15.5,7.4-26.8V53C572,44.2,564.8,37,556,37z"/>
</svg>
