<?xml version="1.0" encoding="UTF-8"?>
<svg id="Layer_1" data-name="Layer 1" xmlns="http://www.w3.org/2000/svg" version="1.1" viewBox="0 0 1024 1024">
  <defs>
    <style>
      .cls-1, .cls-2 {
        stroke-width: 0px;
      }

      .cls-1, .cls-3 {
        fill: #000;
      }

      .cls-2 {
        fill: none;
      }

      .cls-3 {
        font-family: MyriadPro-Regular, 'Myriad Pro';
        font-size: 70px;
      }

      .cls-4 {
        display: none;
      }
    </style>
  </defs>
  <rect class="cls-2" y="896" width="128" height="128"/>
  <rect class="cls-2" x="128" y="896" width="128" height="128"/>
  <rect class="cls-2" x="256" y="896" width="128" height="128"/>
  <rect class="cls-2" x="384" y="896" width="128" height="128"/>
  <rect class="cls-2" x="512" y="896" width="128" height="128"/>
  <rect class="cls-2" x="640" y="896" width="128" height="128"/>
  <rect class="cls-2" x="768" y="896" width="128" height="128"/>
  <rect class="cls-2" x="896" y="896" width="128" height="128"/>
  <rect class="cls-2" y="768" width="128" height="128"/>
  <rect class="cls-2" x="128" y="768" width="128" height="128"/>
  <rect class="cls-2" x="256" y="768" width="128" height="128"/>
  <rect class="cls-2" x="384" y="768" width="128" height="128"/>
  <rect class="cls-2" x="512" y="768" width="128" height="128"/>
  <rect class="cls-2" x="640" y="768" width="128" height="128"/>
  <rect class="cls-2" x="768" y="768" width="128" height="128"/>
  <rect class="cls-2" x="896" y="768" width="128" height="128"/>
  <rect class="cls-2" y="640" width="128" height="128"/>
  <rect class="cls-2" x="128" y="640" width="128" height="128"/>
  <rect class="cls-2" x="256" y="640" width="128" height="128"/>
  <rect class="cls-2" x="384" y="640" width="128" height="128"/>
  <rect class="cls-2" x="512" y="640" width="128" height="128"/>
  <rect class="cls-2" x="640" y="640" width="128" height="128"/>
  <rect class="cls-2" x="768" y="640" width="128" height="128"/>
  <rect class="cls-2" x="896" y="640" width="128" height="128"/>
  <rect class="cls-2" y="512" width="128" height="128"/>
  <rect class="cls-2" x="128" y="512" width="128" height="128"/>
  <rect class="cls-2" x="256" y="512" width="128" height="128"/>
  <rect class="cls-2" x="384" y="512" width="128" height="128"/>
  <rect class="cls-2" x="512" y="512" width="128" height="128"/>
  <rect class="cls-2" x="640" y="512" width="128" height="128"/>
  <rect class="cls-2" x="768" y="512" width="128" height="128"/>
  <rect class="cls-2" x="896" y="512" width="128" height="128"/>
  <rect class="cls-2" y="384" width="128" height="128"/>
  <rect class="cls-2" x="128" y="384" width="128" height="128"/>
  <rect class="cls-2" x="256" y="384" width="128" height="128"/>
  <rect class="cls-2" x="384" y="384" width="128" height="128"/>
  <rect class="cls-2" x="512" y="384" width="128" height="128"/>
  <rect class="cls-2" x="640" y="384" width="128" height="128"/>
  <rect class="cls-2" x="768" y="384" width="128" height="128"/>
  <rect class="cls-2" x="896" y="384" width="128" height="128"/>
  <rect class="cls-2" y="256" width="128" height="128"/>
  <rect class="cls-2" x="128" y="256" width="128" height="128"/>
  <rect class="cls-2" x="256" y="256" width="128" height="128"/>
  <rect class="cls-2" x="384" y="256" width="128" height="128"/>
  <rect class="cls-2" x="512" y="256" width="128" height="128"/>
  <rect class="cls-2" x="640" y="256" width="128" height="128"/>
  <rect class="cls-2" x="768" y="256" width="128" height="128"/>
  <rect class="cls-2" x="896" y="256" width="128" height="128"/>
  <rect class="cls-2" x="128" y="128" width="128" height="128"/>
  <rect class="cls-2" x="256" y="128" width="128" height="128"/>
  <rect class="cls-2" x="384" y="128" width="128" height="128"/>
  <rect class="cls-2" x="512" y="128" width="128" height="128"/>
  <rect class="cls-2" x="640" y="128" width="128" height="128"/>
  <rect class="cls-2" x="768" y="128" width="128" height="128"/>
  <rect class="cls-2" x="896" y="128" width="128" height="128"/>
  <g id="Layer_1-2" data-name="Layer 1" class="cls-4">
    <rect class="cls-1" width="128" height="128"/>
    <rect class="cls-1" x="128" width="128" height="128"/>
    <rect class="cls-1" x="640" width="128" height="128"/>
    <rect class="cls-1" x="256" width="128" height="128"/>
    <rect class="cls-1" x="128" y="128" width="128" height="128"/>
    <rect class="cls-1" y="128" width="128" height="128"/>
    <rect class="cls-1" x="768" width="128" height="128"/>
    <rect class="cls-1" x="896" width="128" height="128"/>
    <rect class="cls-1" x="512" width="128" height="128"/>
    <rect class="cls-1" x="384" width="128" height="128"/>
    <rect class="cls-1" x="256" y="128" width="128" height="128"/>
    <rect class="cls-1" x="384" y="128" width="128" height="128"/>
    <rect class="cls-1" x="512" y="128" width="128" height="128"/>
    <rect class="cls-1" x="640" y="128" width="128" height="128"/>
    <rect class="cls-1" x="768" y="128" width="128" height="128"/>
    <rect class="cls-1" x="896" y="128" width="128" height="128"/>
    <rect class="cls-1" y="256" width="128" height="128"/>
    <rect class="cls-1" x="128" y="256" width="128" height="128"/>
    <rect class="cls-1" x="256" y="256" width="128" height="128"/>
    <rect class="cls-1" x="384" y="256" width="128" height="128"/>
    <rect class="cls-1" x="512" y="256" width="128" height="128"/>
    <rect class="cls-1" x="640" y="256" width="128" height="128"/>
    <rect class="cls-1" x="768" y="256" width="128" height="128"/>
    <rect class="cls-1" x="896" y="256" width="128" height="128"/>
    <rect class="cls-1" y="384" width="128" height="128"/>
    <rect class="cls-1" x="128" y="384" width="128" height="128"/>
    <rect class="cls-1" x="256" y="384" width="128" height="128"/>
    <rect class="cls-1" x="384" y="384" width="128" height="128"/>
    <rect class="cls-1" x="512" y="384" width="128" height="128"/>
    <rect class="cls-1" x="640" y="384" width="128" height="128"/>
    <rect class="cls-1" x="768" y="384" width="128" height="128"/>
    <rect class="cls-1" x="896" y="384" width="128" height="128"/>
    <rect class="cls-1" y="512" width="128" height="128"/>
    <rect class="cls-1" x="128" y="512" width="128" height="128"/>
    <rect class="cls-1" x="256" y="512" width="128" height="128"/>
    <rect class="cls-1" x="384" y="512" width="128" height="128"/>
    <rect class="cls-1" x="512" y="512" width="128" height="128"/>
    <rect class="cls-1" x="640" y="512" width="128" height="128"/>
    <rect class="cls-1" x="768" y="512" width="128" height="128"/>
    <rect class="cls-1" x="896" y="512" width="128" height="128"/>
    <rect class="cls-1" y="640" width="128" height="128"/>
    <rect class="cls-1" x="128" y="640" width="128" height="128"/>
    <rect class="cls-1" x="256" y="640" width="128" height="128"/>
    <rect class="cls-1" x="384" y="640" width="128" height="128"/>
    <rect class="cls-1" x="512" y="640" width="128" height="128"/>
    <rect class="cls-1" x="640" y="640" width="128" height="128"/>
    <rect class="cls-1" x="768" y="640" width="128" height="128"/>
    <rect class="cls-1" x="896" y="640" width="128" height="128"/>
    <rect class="cls-1" y="768" width="128" height="128"/>
    <rect class="cls-1" x="128" y="768" width="128" height="128"/>
    <rect class="cls-1" x="256" y="768" width="128" height="128"/>
    <rect class="cls-1" x="384" y="768" width="128" height="128"/>
    <rect class="cls-1" x="512" y="768" width="128" height="128"/>
    <rect class="cls-1" x="640" y="768" width="128" height="128"/>
    <rect class="cls-1" x="768" y="768" width="128" height="128"/>
    <rect class="cls-1" x="896" y="768" width="128" height="128"/>
    <rect class="cls-1" y="896" width="128" height="128"/>
    <rect class="cls-1" x="128" y="896" width="128" height="128"/>
    <rect class="cls-1" x="256" y="896" width="128" height="128"/>
    <rect class="cls-1" x="384" y="896" width="128" height="128"/>
    <rect class="cls-1" x="512" y="896" width="128" height="128"/>
    <rect class="cls-1" x="640" y="896" width="128" height="128"/>
    <rect class="cls-1" x="768" y="896" width="128" height="128"/>
    <rect class="cls-1" x="896" y="896" width="128" height="128"/>
  </g>
  <rect class="cls-2" y="128" width="128" height="128"/>
  <rect class="cls-2" x="128" width="128" height="128"/>
  <rect class="cls-2" x="256" width="128" height="128"/>
  <rect class="cls-2" x="384" width="128" height="128"/>
  <rect class="cls-2" x="512" width="128" height="128"/>
  <rect class="cls-2" x="640" width="128" height="128"/>
  <rect class="cls-2" x="768" width="128" height="128"/>
  <rect class="cls-2" x="896" width="128" height="128"/>
  <rect class="cls-2" width="128" height="128"/>
  <text class="cls-3" transform="translate(44 88)"><tspan x="0" y="0">1</tspan></text>
  <text class="cls-3" transform="translate(177.5 88)"><tspan x="0" y="0">2</tspan></text>
  <text class="cls-3" transform="translate(303.6 88)"><tspan x="0" y="0">3</tspan></text>
  <text class="cls-3" transform="translate(432.3 88)"><tspan x="0" y="0">4</tspan></text>
  <text class="cls-3" transform="translate(558.8 88)"><tspan x="0" y="0">5</tspan></text>
  <text class="cls-3" transform="translate(683.8 88)"><tspan x="0" y="0">6</tspan></text>
  <text class="cls-3" transform="translate(812.5 88)"><tspan x="0" y="0">7</tspan></text>
  <text class="cls-3" transform="translate(948.5 88)"><tspan x="0" y="0">8</tspan></text>
</svg>