<?xml version="1.0" encoding="utf-8"?>
<!-- Generator: Adobe Illustrator 25.2.3, SVG Export Plug-In . SVG Version: 6.00 Build 0)  -->
<svg version="1.1" id="Layer_1" xmlns="http://www.w3.org/2000/svg" xmlns:xlink="http://www.w3.org/1999/xlink" x="0px" y="0px"
	 viewBox="0 0 100 100" style="enable-background:new 0 0 100 100;" xml:space="preserve">
<style type="text/css">
	.st0{fill:#7289DA;}
	.st1{fill:#5865F2;}
	.st2{fill:#FFFFFF;}
</style>
<g id="bg_1_">
	<rect class="st0" width="100" height="100"/>
	<rect class="st1" width="100" height="100"/>
</g>
<path id="path815" class="st2" d="M73.4,28.5c-4.4-2-9-3.5-13.9-4.3c-0.6,1.1-1.3,2.5-1.8,3.7c-5.2-0.8-10.3-0.8-15.4,0
	c-0.5-1.1-1.2-2.6-1.8-3.7c-4.9,0.8-9.6,2.3-13.9,4.3c-8.8,13.2-11.2,26.1-10,38.7c5.8,4.3,11.5,6.9,17.1,8.7c1.4-1.9,2.6-3.9,3.7-6
	c-2-0.8-3.9-1.7-5.8-2.8c0.5-0.4,1-0.7,1.4-1.1c11.1,5.1,23.2,5.1,34.1,0c0.5,0.4,0.9,0.8,1.4,1.1c-1.8,1.1-3.8,2-5.8,2.8
	c1.1,2.1,2.3,4.1,3.7,6c5.6-1.7,11.2-4.3,17.1-8.7C84.9,52.5,81.1,39.8,73.4,28.5z M38.8,59.4c-3.3,0-6.1-3.1-6.1-6.8
	s2.7-6.8,6.1-6.8c3.4,0,6.1,3.1,6.1,6.8C44.9,56.3,42.2,59.4,38.8,59.4z M61.2,59.4c-3.3,0-6.1-3.1-6.1-6.8s2.7-6.8,6.1-6.8
	c3.4,0,6.1,3.1,6.1,6.8C67.3,56.3,64.6,59.4,61.2,59.4z"/>
</svg>
