<?xml version="1.0" encoding="utf-8"?>
<!-- Generator: Adobe Illustrator 25.0.0, SVG Export Plug-In . SVG Version: 6.00 Build 0)  -->
<svg version="1.1" id="Layer_1" xmlns="http://www.w3.org/2000/svg" xmlns:xlink="http://www.w3.org/1999/xlink" x="0px" y="0px"
	 viewBox="0 0 558 742" style="enable-background:new 0 0 558 742;" xml:space="preserve">
<path d="M542,23h-79.7c-10.2,0-19.9-4-27.1-11.2C427.6,4.2,417.5,0,406.8,0h-14.1H34.1C22.4,0,14.7,0,7.4,7.3C0,14.7,0,22.4,0,34.1
	v673.7c0,11.8,0,19.5,7.3,26.8c7.4,7.4,15.5,7.4,26.8,7.4h489.7c11.8,0,19.5,0,26.8-7.3c7.4-7.4,7.4-15.5,7.4-26.8V39
	C558,30.2,550.8,23,542,23z"/>
</svg>
