<?xml version="1.0" encoding="utf-8"?>
<!-- Generator: Adobe Illustrator 24.0.1, SVG Export Plug-In . SVG Version: 6.00 Build 0)  -->
<svg version="1.1" id="Layer_1" xmlns="http://www.w3.org/2000/svg" xmlns:xlink="http://www.w3.org/1999/xlink" x="0px" y="0px"
	 viewBox="0 0 100 100" style="enable-background:new 0 0 100 100;" xml:space="preserve">
<style type="text/css">
	.st0{fill:#4D4D4F;}
	.st1{fill:url(#SVGID_1_);}
	.st2{fill:#EDAD3A;}
	.st3{fill:#F6861F;}
</style>
<g id="bg_3_">
	<rect x="0" y="0" class="st0" width="100" height="100"/>
	
		<linearGradient id="SVGID_1_" gradientUnits="userSpaceOnUse" x1="-147.5262" y1="3506.9937" x2="-156.1501" y2="3492.0566" gradientTransform="matrix(7.92 0 0 7.92 1252.5581 -27666.2383)">
		<stop  offset="0" style="stop-color:#FFFFFF;stop-opacity:0"/>
		<stop  offset="1" style="stop-color:#FFFFFF;stop-opacity:0.2"/>
	</linearGradient>
	<rect x="0" y="0" class="st1" width="100" height="100"/>
</g>
<g>
	<path class="st2" d="M87.6,15.2c0,0-0.1-0.1-0.1-0.1c-0.5-0.1-0.9,0.1-1.3,0.3c-1,0.4-1.9,1-2.6,1.8c-0.6,0.6-1.2,1.1-1.8,1.7
		c0,0-0.1,0.1-0.2,0.1c-0.7-0.1-1.5-0.2-2.2-0.3c0,0,0,0-0.1,0c0.1-0.1,0.2-0.2,0.3-0.3c0.2-0.2,0.2-0.3,0-0.5
		c-0.1-0.1-0.2-0.2-0.2-0.3c-0.2-0.2-0.3-0.2-0.5,0c-0.3,0.3-0.5,0.5-0.8,0.8c0,0-0.1,0.1-0.2,0.1c-0.9-0.2-1.9-0.3-2.8-0.5
		c0,0,0,0-0.1,0c0.1-0.1,0.1-0.1,0.1-0.1c0.1-0.1,0.1-0.3,0-0.4c-0.1-0.1-0.2-0.2-0.3-0.3c-0.1-0.1-0.3-0.1-0.4,0
		c-0.2,0.2-0.4,0.4-0.6,0.6c0,0-0.1,0.1-0.1,0c-1.1-0.2-2.3-0.4-3.4-0.6c0,0,0,0,0,0c-0.2,0.2-0.4,0.4-0.6,0.6c0,0,0.1,0.1,0.1,0.1
		c2.7,1.3,5.4,2.6,8,3.8l0,0.1L47.7,46.5l-10.5-12H24.4l23.2,27l31.7-35.1l0,0c0.5-0.5,0.9-1.1,1.4-1.6c1.2,2.7,2.4,5.5,3.6,8.2
		c0,0.1,0,0.1,0,0.2l0.7-0.7c0-0.1,0-0.1,0-0.1c-0.2-1.1-0.3-2.2-0.5-3.3c0-0.1,0-0.1,0.1-0.2c0.2-0.2,0.4-0.4,0.6-0.6
		c0.2-0.2,0.2-0.3,0-0.5c-0.1-0.1-0.2-0.2-0.3-0.3c-0.2-0.2-0.3-0.2-0.5,0c0,0-0.1,0.1-0.1,0.1c0-0.1,0-0.1,0-0.1
		c-0.1-0.9-0.3-1.8-0.4-2.8c0-0.1,0-0.2,0.1-0.2c0.3-0.2,0.5-0.5,0.8-0.8c0.2-0.2,0.2-0.3,0-0.5c-0.1-0.1-0.2-0.2-0.3-0.3
		c-0.2-0.2-0.3-0.2-0.5,0c-0.1,0.1-0.2,0.2-0.3,0.3c0-0.1,0-0.1,0-0.1c-0.1-0.7-0.1-1.4-0.2-2.1c0-0.1,0-0.2,0.1-0.2
		c0.7-0.6,1.3-1.3,2-1.9c0.8-0.8,1.4-1.8,1.8-2.9C87.6,15.7,87.7,15.5,87.6,15.2z"/>
	<polygon class="st3" points="39.6,55.5 46.1,63.1 29.2,80.4 15.4,80.4 	"/>
	<polygon class="st3" points="56.1,55.5 49.4,63 57.9,72.3 72.3,72.3 	"/>
</g>
</svg>
