<?xml version="1.0" encoding="utf-8"?>
<!-- Generator: Adobe Illustrator 23.0.6, SVG Export Plug-In . SVG Version: 6.00 Build 0)  -->
<svg version="1.1" id="Layer_1" xmlns="http://www.w3.org/2000/svg" xmlns:xlink="http://www.w3.org/1999/xlink" x="0px" y="0px"
	 viewBox="0 0 200 200" style="enable-background:new 0 0 200 200;" xml:space="preserve">
<style type="text/css">
	.st0{fill:#FFFFFF;}
</style>
<path class="st0" d="M149.8,60.1H82.4c-3.3,0-6,2.7-6,6v42.1h79.3V66.1C155.7,62.8,153,60.1,149.8,60.1z"/>
<path class="st0" d="M76.4,123.4c0,3.3,2.7,6,6,6h5.8c0-7.4,5.9-13.3,13.3-13.3c7.4,0,13.3,5.9,13.3,13.3h41.1v-17.7H76.4V123.4z"/>
<path class="st0" d="M197.8,109.4h2.3v-5.3c0-0.7-0.3-1.7-0.6-2.2l-12.1-19.4c-0.7-1.1-2.3-2-3.6-2h-23.9v48.8h6.8
	c0-7.4,5.9-13.3,13.3-13.3c7.4,0,13.3,5.9,13.3,13.3h4.6c1.3,0,2.4-1.1,2.4-2.4V117h-2.3c-2.1,0-3.8-1.7-3.8-3.8
	C193.9,111.1,195.6,109.4,197.8,109.4z M168.4,103V86.5h14.2l10.3,16.4H168.4z"/>
<path class="st0" d="M101.3,118.8c-5.8,0-10.6,4.7-10.6,10.6c0,5.9,4.8,10.6,10.6,10.6c5.8,0,10.6-4.7,10.6-10.6
	C111.9,123.5,107.2,118.8,101.3,118.8z M101.3,133.6c-2.3,0-4.2-1.9-4.2-4.2c0-2.3,1.9-4.2,4.2-4.2c2.3,0,4.2,1.9,4.2,4.2
	C105.6,131.7,103.7,133.6,101.3,133.6z"/>
<path class="st0" d="M179.8,118.8c-5.8,0-10.6,4.8-10.6,10.6c0,5.8,4.7,10.6,10.6,10.6c5.8,0,10.6-4.7,10.6-10.6
	C190.3,123.5,185.6,118.8,179.8,118.8z M179.8,133.6c-2.3,0-4.2-1.9-4.2-4.2c0-2.3,1.9-4.2,4.2-4.2c2.3,0,4.2,1.9,4.2,4.2
	C184,131.7,182.1,133.6,179.8,133.6z"/>
<path class="st0" d="M5.9,105.8h41.2l-19,18.9c-2.3,2.3-2.3,5.9,0,8.2c2.3,2.3,5.9,2.3,8.2,0l24.8-24.7l8.2-8.3l-8.2-8.2L36.4,67.1
	c-2.3-2.3-5.9-2.3-8.2,0c-2.3,2.3-2.3,5.9,0,8.2L47,94.2H5.9C2.6,94.2,0,96.7,0,100C0,103.3,2.5,105.8,5.9,105.8z"/>
</svg>
