<?xml version="1.0" encoding="utf-8"?>
<!-- Generator: Adobe Illustrator 23.0.2, SVG Export Plug-In . SVG Version: 6.00 Build 0)  -->
<svg version="1.1" id="Layer_1" xmlns="http://www.w3.org/2000/svg" xmlns:xlink="http://www.w3.org/1999/xlink" x="0px" y="0px"
	 viewBox="0 0 200 200" style="enable-background:new 0 0 200 200;" xml:space="preserve">
<style type="text/css">
	.st0{fill:#FFFFFF;}
</style>
<path class="st0" d="M118.7,35.5H9.7c-5.3,0-9.7,4.3-9.7,9.7v68.1h128.3V45.1C128.3,39.8,124,35.5,118.7,35.5z"/>
<path class="st0" d="M0,137.8c0,5.3,4.3,9.7,9.7,9.7H19c0-11.9,9.6-21.5,21.5-21.5c11.9,0,21.5,9.6,21.5,21.5h66.4v-28.7H0V137.8z"
	/>
<path class="st0" d="M196.3,115.2h3.7v-8.5c0-1.1-0.5-2.7-1-3.6l-19.6-31.4c-1.1-1.8-3.8-3.3-5.9-3.3h-38.7v78.9h11
	c0-11.9,9.6-21.5,21.5-21.5s21.5,9.6,21.5,21.5h7.4c2.1,0,3.9-1.7,3.9-3.9l0-15.9h-3.7c-3.4,0-6.2-2.8-6.2-6.2
	C190.1,118,192.9,115.2,196.3,115.2z M148.9,104.8V78.2h23l16.6,26.6L148.9,104.8z"/>
<path class="st0" d="M40.4,130.4c-9.4,0-17.1,7.6-17.1,17.1s7.7,17.1,17.1,17.1c9.4,0,17.1-7.6,17.1-17.1S49.9,130.4,40.4,130.4z
	 M40.4,154.3c-3.8,0-6.8-3.1-6.8-6.8c0-3.8,3.1-6.8,6.8-6.8c3.8,0,6.8,3.1,6.8,6.8C47.3,151.2,44.2,154.3,40.4,154.3z"/>
<path class="st0" d="M167.2,130.4c-9.4,0-17.1,7.7-17.1,17.1c0,9.4,7.6,17.1,17.1,17.1c9.4,0,17.1-7.6,17.1-17.1
	C184.3,138,176.7,130.4,167.2,130.4z M167.2,154.3c-3.8,0-6.8-3.1-6.8-6.8c0-3.8,3.1-6.8,6.8-6.8c3.8,0,6.8,3.1,6.8,6.8
	C174.1,151.2,171,154.3,167.2,154.3z"/>
</svg>
