<?xml version="1.0" encoding="utf-8"?>
<!-- Generator: Adobe Illustrator 25.4.1, SVG Export Plug-In . SVG Version: 6.00 Build 0)  -->
<svg version="1.1" id="Layer_1" xmlns="http://www.w3.org/2000/svg" xmlns:xlink="http://www.w3.org/1999/xlink" x="0px" y="0px"
	 viewBox="0 0 100 100" style="enable-background:new 0 0 100 100;" xml:space="preserve">
<style type="text/css">
	.st0{fill:#24254D;}
	.st1{fill:url(#SVGID_1_);}
	.st2{fill:#9C9ECC;}
</style>
<g id="bg_1_">
	<rect class="st0" width="100" height="100"/>
	
		<linearGradient id="SVGID_1_" gradientUnits="userSpaceOnUse" x1="84.1506" y1="1.1506" x2="15.8494" y2="-117.1506" gradientTransform="matrix(1 0 0 1 0 108)">
		<stop  offset="0" style="stop-color:#FFFFFF;stop-opacity:0"/>
		<stop  offset="1" style="stop-color:#FFFFFF;stop-opacity:0.2"/>
	</linearGradient>
	<rect class="st1" width="100" height="100"/>
</g>
<g>
	<path class="st2" d="M65.1,54.2c-0.8-0.4-1.7-0.3-2.4,0.3c-3.2,3.3-7.7,4.8-12.2,4.3c-6.7-0.8-12.2-6.2-12.9-12.9
		c-0.5-4.6,1.1-9,4.3-12.2c0.7-0.6,0.8-1.6,0.3-2.4c-0.4-0.8-1.3-1.2-2.2-1C29.8,32.7,22.9,42,23.4,52.5C24,63.4,33,72.4,43.9,72.9
		c0.4,0,0.8,0.1,1.2,0.1c10,0,18.7-6.8,21.1-16.6C66.3,55.4,65.9,54.6,65.1,54.2z"/>
	<path class="st2" d="M49.2,39.6h3.5l-5.5,7.6c-0.6,0.7-0.6,1.7-0.2,2.5c0.4,0.8,1.2,1.3,2.2,1.3h8.3c1.3,0,2.4-1.1,2.4-2.4
		c0-1.3-1.1-2.4-2.4-2.4h-3.5l5.5-7.6c0.6-0.7,0.6-1.7,0.2-2.5c-0.4-0.8-1.2-1.3-2.2-1.3h-8.3c-1.3,0-2.4,1.1-2.4,2.4
		C46.8,38.5,47.8,39.6,49.2,39.6z"/>
	<path class="st2" d="M74.2,38.4h-3.5l5.5-7.6c0.6-0.7,0.6-1.7,0.2-2.5C76,27.6,75.1,27,74.2,27h-8.4c-1.3,0-2.4,1.1-2.4,2.5
		c0,1.3,1.1,2.4,2.4,2.4h3.5l-5.5,7.6c-0.6,0.7-0.6,1.7-0.2,2.5c0.4,0.8,1.2,1.3,2.2,1.3h8.3c1.3,0,2.4-1.1,2.4-2.4
		C76.7,39.6,75.6,38.4,74.2,38.4z"/>
</g>
</svg>
