<?xml version="1.0" encoding="utf-8"?>
<!-- Generator: Adobe Illustrator 26.2.1, SVG Export Plug-In . SVG Version: 6.00 Build 0)  -->
<svg version="1.1" id="Layer_1" xmlns="http://www.w3.org/2000/svg" xmlns:xlink="http://www.w3.org/1999/xlink" x="0px" y="0px"
	 viewBox="0 0 256 512" style="enable-background:new 0 0 256 512;" xml:space="preserve">
<style type="text/css">
	.st0{fill:url(#SVGID_1_);}
	.st1{fill:none;}
	.st2{fill:#4F4C4B;}
	.st3{fill:#FFFFFF;}
	.st4{fill:#AFACA5;}
</style>
<linearGradient id="SVGID_1_" gradientUnits="userSpaceOnUse" x1="117.2007" y1="409.9001" x2="117.2007" y2="150.5" gradientTransform="matrix(-1 0 0 1 253.9155 2)">
	<stop  offset="0.2113" style="stop-color:#FF9999"/>
	<stop  offset="0.4311" style="stop-color:#FEA59A"/>
	<stop  offset="0.7307" style="stop-color:#FBBC9C"/>
</linearGradient>
<path class="st0" d="M78.7,179.7l0.1,2.5c0.3,9.1,0.4,11.7,0.4,12.2c0.1,19.9,0.3,43.4,0.5,66.8c0.1,9,0.2,18.1,0.2,27.1
	c0.1,4,0.1,8,0.1,12v0.2v0.2c0,0.3,0.1,0.5,0.1,0.7c0.1,0.4,0.2,0.7,0.2,1c1.1,23.7,7.5,45.1,19.1,63.5c5.1,8.1,11.8,17.2,22.6,22.5
	c9.9,4.8,21.7,9.5,33.1,14c7.7,3.1,15.1,6,21.8,8.9c0.1,0.1,0.3,0.1,0.5,0.2l1.3,0.4l0.9-1.1c2.8-3.6,5.3-7.8,7.4-12.6
	c1.9-4.3,3.4-9,4.8-14.9c2.5-10.7,3.4-21.3,2.7-31.6c-0.3-4.1-0.3-8.4-0.3-12.5c0-3.9,0-8-0.2-11.9c-0.3-5-0.3-10.2-0.3-15.2
	s0-10.2-0.3-15.2c-0.2-4-0.2-8.2-0.2-12.2c0-4.3,0-8.7-0.3-13c-0.3-4.9-0.3-9.9-0.3-14.8s0-9.9-0.3-14.8c-0.2-4.2-0.2-8.5-0.2-12.7
	c0-4.4,0-8.9-0.3-13.3c-0.5-6.7-0.5-13.7-0.5-20.4c0-2.5,0-5.1,0-7.7c-0.1-1.1-0.2-2.1-0.4-3.1c0-0.3-0.1-0.5-0.1-0.8
	c0.5-2.3,0.3-4.4,0.1-6.2c-0.1-0.6-0.2-1.3-0.2-1.9c-0.4-7.2-1.3-12.9-2.7-18.1c0-0.1,0-0.2,0-0.3c0-0.3-0.1-0.9-0.4-1.4l-2-3.7
	l-1.6,3.9c-6.6,16-16.3,32.5-37.7,32.6h-0.1h-0.1c-6.1,0-11.9-1-17.5-1.9c-2.5-0.4-5.1-0.9-7.7-1.2c-9.7-1.3-19.5-2.8-28.9-4.2h-0.3
	c-2.7-0.4-5.4-0.8-8.1-1.2c-0.7-0.1-1.5-0.2-2.2-0.4L78.7,179.7z"/>
<path class="st1" d="M177.2,408.7c0.1,0,0.2,0.1,0.3,0.1c3.1-3.8,5.4-8.1,7.2-12.1c2-4.7,3.5-9.6,4.6-14.5c2.4-10.5,3.3-20.9,2.6-31
	c-0.6-8.1,0-16.3-0.5-24.4c-0.6-10.1,0-20.4-0.6-30.4c-0.5-8.4,0-16.9-0.5-25.2c-0.6-9.8,0-19.8-0.6-29.6
	c-0.5-8.6,0.1-17.4-0.5-25.9c-0.6-9.3-0.4-18.8-0.5-28.2c0-1.4-0.3-2.7-0.5-4.1c0.8-2.8,0.1-5.3,0-7.9c-0.3-6.1-1.1-12-2.6-17.7
	c-0.1-0.4-0.1-0.9-0.3-1.3c-6.9,16.7-17.1,33.8-39.6,33.9c-0.1,0-0.2,0-0.3,0c-6.2,0-12.1-0.9-17.8-1.9c-2.5-0.4-5-0.9-7.6-1.2
	c-9.7-1.3-19.4-2.8-28.9-4.2c-2.7-0.5-5.5-0.9-8.3-1.3c-0.8-0.1-1.6-0.2-2.3-0.4c0.2,6,0.4,11.4,0.4,12.3
	c0.2,22.3,0.3,44.6,0.5,66.9c0.1,13.1,0.1,26.1,0.2,39.2c0.1,0.6,0.3,1.3,0.3,1.9c1.1,23.1,7.2,44,18.8,62.5
	c5.5,8.8,12,16.9,21.8,21.8C138.9,394.1,160.5,401.6,177.2,408.7z"/>
<path class="st2" d="M21.6,228.2c0.8,31.4,1.6,62.7,2.5,94c1.7,58.6,28.3,108.1,93.4,133.5c23.4,9.1,48.8,19.9,70.7,11.3
	c34.4-13.4,44.6-43.1,45.5-72.1c0.4-10.9,0.1-21.7-0.2-32.5c-0.6-18.5-0.8-37.1-1.2-55.6c-0.4-18-0.7-36.1-1.1-54.1
	c-0.4-18.8-0.8-37.6-1.1-56.4c-0.3-14.9-0.6-29.7-2.9-44.1c-3.5-22.2-10.1-43-20.6-61.9c-9.2-16.6-20.8-31.2-37.1-41.8
	c-10.5-6.8-22.2-11.6-36.6-11c-10.5,0.4-21.1,1.6-31.7,2.4c-7.3,0.5-14.5,1.1-21.7,1.6c-14.3,1.1-27.3,17-34.5,26.8
	c-9.4,12.7-15.7,27.2-19.4,42c-2.3,9.2-3.7,18.4-4.5,27.8C18.5,168,21,198.3,21.6,228.2z M41.9,130.7c0-0.8,0.1-1.4,0.3-2
	c0.4-1,0.7-2.1,1.1-3.1c3.6-12.5,9-24.4,19.9-34.5c6.2-5.7,13.4-9.5,21.3-9.8c14.4-0.5,28.6-0.3,43.1-1c11.8-0.6,21.5,2.6,29.9,8.3
	c8.1,5.4,14.6,12.5,20,20.4c9.5,13.9,15.4,29.8,19.5,46.7c0,2.2,1.1,4.8,1.4,7c0.4,2.6,0.7,5.1,0.9,7.6c0.4,5,0.6,10,0.8,15
	c0.5,10.1,0.5,20.2,0.7,30.3c0.6,27.8,1.2,55.6,1.6,83.4c0.3,16.6,1.1,33.1,0.8,49.9c0,0.9,0,1.8,0.1,2.7c1.4,9.2-0.1,19,0.3,28.4
	c0.2,3.8-0.9,7.9-1.5,11.9c-2,12.2-5.6,24.2-13.8,35.4c-6.2,8.6-14.3,14.6-24.7,16.7c-7.4,1.4-14.1,0.5-20.2-2
	c-12.9-5.3-25.1-11.5-37.5-17.4c-7.7-3.7-15.8-6.8-22.4-12.1c-7.6-6.2-13.8-13.5-19-21.6c-6.1-9.4-10.9-19.6-14.5-30.4
	c-4.9-14.5-8.1-29.6-8.9-45.5c-0.5-9.8,0.3-19.9-0.5-29.7c-0.6-8.8,0.2-17.9-0.5-26.7c-0.7-9.3,0.1-19-0.6-28.4
	c-0.7-9-0.2-18.3-0.5-27.4c-0.5-12.6-0.3-25.3-0.8-37.9C37.8,153.7,39,142.2,41.9,130.7z"/>
<path class="st2" d="M177.6,409.2c-0.2,0-0.3-0.1-0.3-0.1c-16.8-7.4-38.4-14.8-54.8-22.9c-9.9-4.9-16.3-13-21.8-21.8
	C89.1,346,83,325,81.9,301.9c0-0.7-0.2-1.3-0.3-1.9c-0.1-13.1-0.1-26.1-0.2-39.2c-0.1-22.3-0.3-44.6-0.5-66.9c0-1-0.2-6.4-0.4-12.3
	c-18.3-3.8-27.9-19-33.9-35.2c-0.4,3.8-0.6,8.5-0.6,10.1c-0.4,20,0.5,39.7,0.8,59.5c0.2,15.8,0.6,31.5,0.9,47.2
	c0.3,16.1,0.8,32.2,1.2,48.3c0,8.5,1.4,16.6,3.2,24.6c4.1,17.7,11,33.8,22.1,47.6c7,8.6,16.4,14.4,27.1,18.8
	c12,5,23.8,10.5,35.7,15.8c6.8,3.1,14,5,22.7,2.9C167.4,419.3,173.2,414.6,177.6,409.2z"/>
<path class="st2" d="M45.1,131c0.8,3.2,1.8,6.5,2.8,9.7c0.2-0.2,0.3,0.4,0.3,1c0.6,1.6,1.1,3.1,1.7,4.7
	c5.6,14.8,14.5,28.4,30.6,32.1c0.9,0.2,1.8,0.4,2.8,0.5c2.7,0.5,5.5,0.9,8.3,1.3c9.5,1.4,19.2,2.9,28.9,4.2c2.6,0.3,5.2,0.8,7.7,1.2
	c5.6,0.9,11.5,1.9,17.5,1.9c11.6,0,25.1-3.9,36.8-32l0,0c1.1-2.6,2.1-5.1,3-7.5c0.6-1.5,1.1-2.9,1.7-4.3c1.4-3.4,1.3-6.4-0.3-9.8
	c-5.3-11.4-12.2-21.2-20.6-29.1c-11-10.4-22.2-15.2-35.5-15.2c-0.1,0-0.1,0-0.1,0h-7.1c-12.6,0-25.7-0.1-38.6,0.4
	c-8.8,0.3-17.1,4.3-24,11.5c-7.2,7.6-12.3,16.5-15.9,27.9C44.9,130.1,44.9,130.5,45.1,131z M92.8,163.4c0.4-3,2-4.3,4.9-4
	c5.1,0.5,10.3,1,15.4,1.5c3,0.3,6,0.6,9,0.9c3.3,0.3,5.6,2.8,5.5,6c-0.1,1.5-0.6,2.8-1.6,3.6c-0.8,0.7-1.9,1.1-3.1,1.1
	c-0.2,0-0.4,0-0.6,0c-8.8-0.9-16.9-1.7-24.6-2.6c-1.6-0.2-2.9-0.9-3.8-2.1C93,166.6,92.6,165,92.8,163.4z"/>
<path class="st3" d="M47.8,140.5c0.1,0.3,0.2,0.7,0.3,1C48.1,141,48,140.4,47.8,140.5z"/>
<g>
	<path class="st4" d="M38.1,164.7c0.5,12.6,0.3,25.3,0.8,37.9c0.4,9.1-0.2,18.4,0.5,27.4c0.7,9.4-0.1,19.1,0.6,28.4
		c0.6,8.8-0.2,17.9,0.5,26.7c0.8,9.8,0,19.9,0.5,29.7c0.8,15.9,4,31,8.9,45.5c3.7,10.8,8.5,21,14.5,30.4c5.2,8.1,11.3,15.5,19,21.6
		c6.6,5.3,14.7,8.4,22.4,12.1c12.4,6,24.6,12.2,37.5,17.4c6.1,2.5,12.8,3.5,20.2,2c10.4-2.1,18.5-8.2,24.7-16.7
		c8.2-11.2,11.8-23.2,13.8-35.4c0.6-4,1.7-8.1,1.5-11.9c-0.4-9.4,1.1-19.2-0.3-28.4c-0.2-0.8-0.1-1.8-0.1-2.7
		c0.5-23.2-0.6-46.5-1.1-69.8c-0.6-27.8-1.1-55.7-1.7-83.5c-0.3-13.3-0.2-26.9-3.3-39.8c-4.1-16.8-10-32.7-19.5-46.7
		c-5.4-7.9-11.9-14.9-20-20.4c-8.4-5.6-18-8.9-29.9-8.3c-14.4,0.7-28.7,0.5-43.1,1c-7.9,0.3-15.1,4.1-21.3,9.8
		c-11,10.2-16.3,22.1-19.9,34.5c-0.4,1-0.8,2-1.1,3.1c-0.2,0.5-0.3,1.2-0.3,2C39,142.2,37.8,153.7,38.1,164.7z M182.4,155.4
		L182.4,155.4c-11.6,28.1-25.1,31.9-36.8,32c-6,0-11.8-1-17.5-1.9c-2.5-0.4-5.1-0.9-7.7-1.2c-9.7-1.3-19.5-2.8-28.9-4.2
		c-2.7-0.5-5.5-0.9-8.3-1.3c-0.9-0.1-1.9-0.3-2.8-0.5c-16.1-3.7-25-17.3-30.6-32.1c-0.6-1.5-1.2-3.1-1.7-4.7c-0.1-0.3-0.2-0.7-0.3-1
		c-1.1-3.3-2-6.5-2.8-9.7c-0.1-0.4-0.1-0.8,0.1-1.4c3.6-11.4,8.6-20.2,15.9-27.9c6.8-7.2,15.1-11.2,24-11.5
		c12.9-0.4,26-0.4,38.6-0.4h7.1c0.1,0,0.1,0,0.1,0c13.3,0,24.6,4.8,35.5,15.2c8.4,8,15.3,17.7,20.6,29.1c1.5,3.4,1.7,6.4,0.3,9.8
		c-0.6,1.4-1.1,2.8-1.7,4.3C184.5,150.4,183.6,152.9,182.4,155.4z M188.7,188.8c0.3,14.1,0.6,28.1,0.9,42.2c0.3,13.4,0,27,0.8,40.5
		c0.5,8.3,0,16.9,0.5,25.2c0.5,10,0,20.3,0.6,30.4c0.5,8-0.1,16.3,0.5,24.4c0.7,10.1-0.2,20.5-2.6,31c-1.1,4.9-2.5,9.8-4.6,14.5
		c-1.8,4-4.2,8.3-7.2,12.1c-4.4,5.6-10.2,10.3-17.9,12.1c-8.6,2-15.9,0.1-22.7-2.9c-11.8-5.3-23.6-10.8-35.7-15.8
		c-10.7-4.4-20.1-10.2-27.1-18.8c-11.1-13.8-18-29.9-22.1-47.6c-1.9-7.9-3.2-16-3.2-24.6c-0.4-16.1-0.8-32.2-1.2-48.3
		c-0.4-15.7-0.7-31.5-0.9-47.2c-0.3-19.9-1.2-39.5-0.8-59.5c0-1.6,0.2-6.3,0.6-10.1c5.9,16.3,15.6,31.4,33.9,35.2
		c0.8,0.1,1.5,0.3,2.3,0.4c2.7,0.5,5.5,0.9,8.3,1.3c9.4,1.4,19.2,2.9,28.9,4.2c2.5,0.4,5.1,0.8,7.6,1.2c5.7,0.9,11.6,1.9,17.8,1.9
		c0.1,0,0.2,0,0.3,0c22.5-0.1,32.7-17.2,39.6-33.9c0.2,0.4,0.2,0.9,0.3,1.3c1.6,5.8,2.3,11.7,2.6,17.7
		C188.4,180,188.5,184.3,188.7,188.8z"/>
	<path class="st4" d="M126,171.3c1-0.9,1.6-2.1,1.6-3.6c0.1-3.1-2.2-5.7-5.5-6c-3-0.3-6-0.6-9-0.9c-5.1-0.5-10.3-1-15.4-1.5
		c-2.8-0.3-4.5,1.1-4.9,4c-0.3,1.7,0.1,3.3,1.1,4.5c0.9,1.2,2.3,1.9,3.8,2.1c7.7,0.9,15.7,1.8,24.6,2.6c0.2,0,0.4,0,0.6,0
		C124.2,172.5,125.2,172.1,126,171.3z"/>
</g>
</svg>
