<?xml version="1.0" encoding="utf-8"?>
<!-- Generator: Adobe Illustrator 26.2.1, SVG Export Plug-In . SVG Version: 6.00 Build 0)  -->
<svg version="1.1" id="Layer_1" xmlns="http://www.w3.org/2000/svg" xmlns:xlink="http://www.w3.org/1999/xlink" x="0px" y="0px"
	 viewBox="0 0 256 512" style="enable-background:new 0 0 256 512;" xml:space="preserve">
<style type="text/css">
	.st0{fill:url(#SVGID_1_);}
	.st1{fill:none;}
	.st2{fill:#4F4C4B;}
	.st3{fill:#FFFFFF;}
	.st4{fill:#AFACA5;}
</style>
<linearGradient id="SVGID_1_" gradientUnits="userSpaceOnUse" x1="117.2007" y1="409.9001" x2="117.2007" y2="150.5" gradientTransform="matrix(1 0 0 1 -8.209366e-02 2)">
	<stop  offset="0.2113" style="stop-color:#FF9999"/>
	<stop  offset="0.4311" style="stop-color:#FEA59A"/>
	<stop  offset="0.7307" style="stop-color:#FBBC9C"/>
</linearGradient>
<path class="st0" d="M172.4,180.1c-0.7,0.2-1.5,0.3-2.2,0.4c-2.7,0.4-5.4,0.8-8.1,1.2h-0.3c-9.4,1.4-19.2,2.9-28.9,4.2
	c-2.6,0.3-5.2,0.8-7.7,1.2c-5.6,0.9-11.4,1.9-17.5,1.9h-0.1h-0.1c-21.4-0.1-31.1-16.6-37.7-32.6l-1.6-3.9l-2,3.7
	c-0.3,0.5-0.4,1.1-0.4,1.4c0,0.1,0,0.2,0,0.3c-1.4,5.2-2.3,10.9-2.7,18.1c0,0.6-0.1,1.3-0.2,1.9c-0.2,1.8-0.4,3.9,0.1,6.2
	c0,0.3-0.1,0.5-0.1,0.8c-0.2,1-0.3,2-0.4,3.1c0,2.6,0,5.2,0,7.7c0,6.7,0,13.7-0.5,20.4c-0.3,4.4-0.3,8.9-0.3,13.3
	c0,4.2,0,8.5-0.2,12.7c-0.3,4.9-0.3,9.9-0.3,14.8s0,9.9-0.3,14.8c-0.3,4.3-0.3,8.7-0.3,13c0,4,0,8.2-0.2,12.2
	c-0.3,5-0.3,10.2-0.3,15.2s0,10.2-0.3,15.2c-0.2,3.9-0.2,8-0.2,11.9c0,4.1,0,8.4-0.3,12.5c-0.7,10.3,0.2,20.9,2.7,31.6
	c1.4,5.9,2.9,10.6,4.8,14.9c2.1,4.8,4.6,9,7.4,12.6l0.9,1.1l1.3-0.4c0.2-0.1,0.4-0.1,0.5-0.2c6.7-2.9,14.1-5.8,21.8-8.9
	c11.4-4.5,23.2-9.2,33.1-14c10.8-5.3,17.5-14.4,22.6-22.5c11.6-18.4,18-39.8,19.1-63.5c0-0.3,0.1-0.6,0.2-1c0-0.2,0.1-0.4,0.1-0.7
	v-0.2v-0.2c0-4,0-8,0.1-12c0-9,0.1-18.1,0.2-27.1c0.2-23.4,0.4-46.9,0.5-66.8c0-0.5,0.1-3.1,0.4-12.2l0.1-2.5L172.4,180.1z"/>
<path class="st1" d="M131.3,386c9.8-4.9,16.3-13,21.8-21.8c11.6-18.5,17.7-39.4,18.8-62.5c0-0.6,0.2-1.3,0.3-1.9
	c0.1-13.1,0.1-26.1,0.2-39.2c0.2-22.3,0.3-44.6,0.5-66.9c0-0.9,0.2-6.3,0.4-12.3c-0.7,0.2-1.5,0.3-2.3,0.4c-2.8,0.4-5.6,0.8-8.3,1.3
	c-9.5,1.4-19.2,2.9-28.9,4.2c-2.6,0.3-5.1,0.8-7.6,1.2c-5.7,1-11.6,1.9-17.8,1.9c-0.1,0-0.2,0-0.3,0c-22.5-0.1-32.7-17.2-39.6-33.9
	c-0.2,0.4-0.2,0.9-0.3,1.3c-1.5,5.7-2.3,11.6-2.6,17.7c-0.1,2.6-0.8,5.1,0,7.9c-0.2,1.4-0.5,2.7-0.5,4.1c-0.1,9.4,0.1,18.9-0.5,28.2
	c-0.6,8.5,0,17.3-0.5,25.9c-0.6,9.8,0,19.8-0.6,29.6c-0.5,8.3,0,16.8-0.5,25.2c-0.6,10,0,20.3-0.6,30.4c-0.5,8.1,0.1,16.3-0.5,24.4
	c-0.7,10.1,0.2,20.5,2.6,31c1.1,4.9,2.6,9.8,4.6,14.5c1.8,4,4.1,8.3,7.2,12.1c0.1,0,0.2-0.1,0.3-0.1
	C93.3,401.6,114.9,394.1,131.3,386z"/>
<path class="st2" d="M232.7,138.1c-0.8-9.4-2.2-18.6-4.5-27.8c-3.7-14.8-10-29.3-19.4-42c-7.2-9.8-20.2-25.7-34.5-26.8
	c-7.2-0.5-14.4-1.1-21.7-1.6c-10.6-0.8-21.2-2-31.7-2.4c-14.4-0.6-26.1,4.2-36.6,11C68,59.1,56.4,73.7,47.2,90.3
	c-10.5,18.9-17.1,39.7-20.6,61.9c-2.3,14.4-2.6,29.2-2.9,44.1c-0.3,18.8-0.7,37.6-1.1,56.4c-0.4,18-0.7,36.1-1.1,54.1
	c-0.4,18.5-0.6,37.1-1.2,55.6c-0.3,10.8-0.6,21.6-0.2,32.5c0.9,29,11.1,58.7,45.5,72.1c21.9,8.6,47.3-2.2,70.7-11.3
	c65.1-25.4,91.7-74.9,93.4-133.5c0.9-31.3,1.7-62.6,2.5-94C232.8,198.3,235.3,168,232.7,138.1z M215.6,164.9
	c-0.5,12.6-0.3,25.3-0.8,37.9c-0.3,9.1,0.2,18.4-0.5,27.4c-0.7,9.4,0.1,19.1-0.6,28.4c-0.7,8.8,0.1,17.9-0.5,26.7
	c-0.8,9.8,0,19.9-0.5,29.7c-0.8,15.9-4,31-8.9,45.5c-3.6,10.8-8.4,21-14.5,30.4c-5.2,8.1-11.4,15.4-19,21.6
	c-6.6,5.3-14.7,8.4-22.4,12.1c-12.4,5.9-24.6,12.1-37.5,17.4c-6.1,2.5-12.8,3.4-20.2,2c-10.4-2.1-18.5-8.1-24.7-16.7
	c-8.2-11.2-11.8-23.2-13.8-35.4c-0.6-4-1.7-8.1-1.5-11.9c0.4-9.4-1.1-19.2,0.3-28.4c0.1-0.9,0.1-1.8,0.1-2.7
	c-0.3-16.8,0.5-33.3,0.8-49.9c0.4-27.8,1-55.6,1.6-83.4c0.2-10.1,0.2-20.2,0.7-30.3c0.2-5,0.4-10,0.8-15c0.2-2.5,0.5-5,0.9-7.6
	c0.3-2.2,1.4-4.8,1.4-7c4.1-16.9,10-32.8,19.5-46.7c5.4-7.9,11.9-15,20-20.4c8.4-5.7,18.1-8.9,29.9-8.3c14.5,0.7,28.7,0.5,43.1,1
	c7.9,0.3,15.1,4.1,21.3,9.8c10.9,10.1,16.3,22,19.9,34.5c0.4,1,0.7,2.1,1.1,3.1c0.2,0.6,0.3,1.2,0.3,2
	C214.8,142.2,216,153.7,215.6,164.9z"/>
<path class="st2" d="M94.1,421.2c8.7,2.1,15.9,0.2,22.7-2.9c11.9-5.3,23.7-10.8,35.7-15.8c10.7-4.4,20.1-10.2,27.1-18.8
	c11.1-13.8,18-29.9,22.1-47.6c1.8-8,3.2-16.1,3.2-24.6c0.4-16.1,0.9-32.2,1.2-48.3c0.3-15.7,0.7-31.4,0.9-47.2
	c0.3-19.8,1.2-39.5,0.8-59.5c0-1.6-0.2-6.3-0.6-10.1c-6,16.2-15.6,31.4-33.9,35.2c-0.2,5.9-0.4,11.3-0.4,12.3
	c-0.2,22.3-0.4,44.6-0.5,66.9c-0.1,13.1-0.1,26.1-0.2,39.2c-0.1,0.6-0.3,1.2-0.3,1.9c-1.1,23.1-7.2,44.1-18.8,62.5
	c-5.5,8.8-11.9,16.9-21.8,21.8c-16.4,8.1-38,15.5-54.8,22.9c0,0-0.1,0.1-0.3,0.1C80.6,414.6,86.4,419.3,94.1,421.2z"/>
<path class="st2" d="M208.7,129.5c-3.6-11.4-8.7-20.3-15.9-27.9c-6.9-7.2-15.2-11.2-24-11.5c-12.9-0.5-26-0.4-38.6-0.4h-7.1
	c0,0,0,0-0.1,0c-13.3,0-24.5,4.8-35.5,15.2c-8.4,7.9-15.3,17.7-20.6,29.1c-1.6,3.4-1.7,6.4-0.3,9.8c0.6,1.4,1.1,2.8,1.7,4.3
	c0.9,2.4,1.9,4.9,3,7.5l0,0c11.7,28.1,25.2,32,36.8,32c6,0,11.9-1,17.5-1.9c2.5-0.4,5.1-0.9,7.7-1.2c9.7-1.3,19.4-2.8,28.9-4.2
	c2.8-0.4,5.6-0.8,8.3-1.3c1-0.1,1.9-0.3,2.8-0.5c16.1-3.7,25-17.3,30.6-32.1c0.6-1.6,1.1-3.1,1.7-4.7c0-0.6,0.1-1.2,0.3-1
	c1-3.2,2-6.5,2.8-9.7C208.9,130.5,208.9,130.1,208.7,129.5z M159.9,167.8c-0.9,1.2-2.2,1.9-3.8,2.1c-7.7,0.9-15.8,1.7-24.6,2.6
	c-0.2,0-0.4,0-0.6,0c-1.2,0-2.3-0.4-3.1-1.1c-1-0.8-1.5-2.1-1.6-3.6c-0.1-3.2,2.2-5.7,5.5-6c3-0.3,6-0.6,9-0.9
	c5.1-0.5,10.3-1,15.4-1.5c2.9-0.3,4.5,1,4.9,4C161.2,165,160.8,166.6,159.9,167.8z"/>
<path class="st3" d="M205.7,141.5c0.1-0.3,0.2-0.7,0.3-1C205.8,140.4,205.7,141,205.7,141.5z"/>
<g>
	<path class="st4" d="M211.9,130.6c0-0.8-0.1-1.5-0.3-2c-0.3-1.1-0.7-2.1-1.1-3.1c-3.6-12.4-8.9-24.3-19.9-34.5
		c-6.2-5.7-13.4-9.5-21.3-9.8c-14.4-0.5-28.7-0.3-43.1-1c-11.9-0.6-21.5,2.7-29.9,8.3c-8.1,5.5-14.6,12.5-20,20.4
		c-9.5,14-15.4,29.9-19.5,46.7c-3.1,12.9-3,26.5-3.3,39.8c-0.6,27.8-1.1,55.7-1.7,83.5c-0.5,23.3-1.6,46.6-1.1,69.8
		c0,0.9,0.1,1.9-0.1,2.7c-1.4,9.2,0.1,19-0.3,28.4c-0.2,3.8,0.9,7.9,1.5,11.9c2,12.2,5.6,24.2,13.8,35.4
		c6.2,8.5,14.3,14.6,24.7,16.7c7.4,1.5,14.1,0.5,20.2-2c12.9-5.2,25.1-11.4,37.5-17.4c7.7-3.7,15.8-6.8,22.4-12.1
		c7.7-6.1,13.8-13.5,19-21.6c6-9.4,10.8-19.6,14.5-30.4c4.9-14.5,8.1-29.6,8.9-45.5c0.5-9.8-0.3-19.9,0.5-29.7
		c0.7-8.8-0.1-17.9,0.5-26.7c0.7-9.3-0.1-19,0.6-28.4c0.7-9,0.1-18.3,0.5-27.4c0.5-12.6,0.3-25.3,0.8-37.9
		C216,153.7,214.8,142.2,211.9,130.6z M68.3,148c-0.6-1.5-1.1-2.9-1.7-4.3c-1.4-3.4-1.2-6.4,0.3-9.8c5.3-11.4,12.2-21.1,20.6-29.1
		c10.9-10.4,22.2-15.2,35.5-15.2c0,0,0,0,0.1,0h7.1c12.6,0,25.7,0,38.6,0.4c8.9,0.3,17.2,4.3,24,11.5c7.3,7.7,12.3,16.5,15.9,27.9
		c0.2,0.6,0.2,1,0.1,1.4c-0.8,3.2-1.7,6.4-2.8,9.7c-0.1,0.3-0.2,0.7-0.3,1c-0.5,1.6-1.1,3.2-1.7,4.7c-5.6,14.8-14.5,28.4-30.6,32.1
		c-0.9,0.2-1.9,0.4-2.8,0.5c-2.8,0.4-5.6,0.8-8.3,1.3c-9.4,1.4-19.2,2.9-28.9,4.2c-2.6,0.3-5.2,0.8-7.7,1.2
		c-5.7,0.9-11.5,1.9-17.5,1.9c-11.7-0.1-25.2-3.9-36.8-32l0,0C70.2,152.9,69.3,150.4,68.3,148z M65.6,175.7c0.3-6,1-11.9,2.6-17.7
		c0.1-0.4,0.1-0.9,0.3-1.3c6.9,16.7,17.1,33.8,39.6,33.9c0.1,0,0.2,0,0.3,0c6.2,0,12.1-1,17.8-1.9c2.5-0.4,5.1-0.8,7.6-1.2
		c9.7-1.3,19.5-2.8,28.9-4.2c2.8-0.4,5.6-0.8,8.3-1.3c0.8-0.1,1.5-0.3,2.3-0.4c18.3-3.8,28-18.9,33.9-35.2c0.4,3.8,0.6,8.5,0.6,10.1
		c0.4,20-0.5,39.6-0.8,59.5c-0.2,15.7-0.5,31.5-0.9,47.2c-0.4,16.1-0.8,32.2-1.2,48.3c0,8.6-1.3,16.7-3.2,24.6
		c-4.1,17.7-11,33.8-22.1,47.6c-7,8.6-16.4,14.4-27.1,18.8c-12.1,5-23.9,10.5-35.7,15.8c-6.8,3-14.1,4.9-22.7,2.9
		c-7.7-1.8-13.5-6.5-17.9-12.1c-3-3.8-5.4-8.1-7.2-12.1c-2.1-4.7-3.5-9.6-4.6-14.5c-2.4-10.5-3.3-20.9-2.6-31
		c0.6-8.1,0-16.4,0.5-24.4c0.6-10.1,0.1-20.4,0.6-30.4c0.5-8.3,0-16.9,0.5-25.2c0.8-13.5,0.5-27.1,0.8-40.5
		c0.3-14.1,0.6-28.1,0.9-42.2C65.3,184.3,65.4,180,65.6,175.7z"/>
	<path class="st4" d="M130.9,172.5c0.2,0,0.4,0,0.6,0c8.9-0.8,16.9-1.7,24.6-2.6c1.5-0.2,2.9-0.9,3.8-2.1c1-1.2,1.4-2.8,1.1-4.5
		c-0.4-2.9-2.1-4.3-4.9-4c-5.1,0.5-10.3,1-15.4,1.5c-3,0.3-6,0.6-9,0.9c-3.3,0.3-5.6,2.9-5.5,6c0,1.5,0.6,2.7,1.6,3.6
		C128.6,172.1,129.6,172.5,130.9,172.5z"/>
</g>
</svg>
