<?xml version="1.0" encoding="utf-8"?>
<!-- Generator: Adobe Illustrator 26.2.1, SVG Export Plug-In . SVG Version: 6.00 Build 0)  -->
<svg version="1.1" id="Layer_1" xmlns="http://www.w3.org/2000/svg" xmlns:xlink="http://www.w3.org/1999/xlink" x="0px" y="0px"
	 viewBox="0 0 512 512" style="enable-background:new 0 0 512 512;" xml:space="preserve">
<style type="text/css">
	.st0{fill:#070707;}
</style>
<path class="st0" d="M409,146.4c0-49.6-36.5-104.7-69.9-104.7s-70.4,55-70.4,104.7c0,39.7,19.8,63.6,47.8,72.2l-3.6,225.6
	c0,14.4,11.3,26.2,25.7,26.2s26.2-11.7,25.7-26.2l-3.6-225.6C389.2,210.4,409,186.1,409,146.4L409,146.4z"/>
<path class="st0" d="M203.6,53c-6.3,0-11.3,5-11.3,11.3v93.8c0,2.7-2.3,5-5,5h-12.2c-2.7,0-5-2.3-5-5V63.8
	C169.8,58,164.8,53,158.9,53c-6.3,0-11.3,5-11.3,11.3v93.8c0,2.7-2.3,5-5,5h-12.2c-2.7,0-5-2.3-5-5V63.8c0-6.3-5-11.3-11.3-11.3
	s-11.3,5-11.3,11.3V178c0,19.4,14.9,35.2,33.4,37l-3.6,228.7c0,14.4,11.3,26.2,25.7,26.2s26.2-11.7,25.7-26.2l-3-228.3
	c18.9-1.8,33.4-18,33.4-37V63.8C214.4,58,209.5,53,203.6,53L203.6,53z"/>
</svg>
