<?xml version="1.0" encoding="utf-8"?>
<!-- Generator: Adobe Illustrator 25.2.1, SVG Export Plug-In . SVG Version: 6.00 Build 0)  -->
<svg version="1.1" id="Layer_1" xmlns="http://www.w3.org/2000/svg" xmlns:xlink="http://www.w3.org/1999/xlink" x="0px" y="0px"
	 viewBox="0 0 512 512" style="enable-background:new 0 0 512 512;" xml:space="preserve">
<style type="text/css">
	.st0{fill:#E25B32;}
	.st1{fill:#231F20;}
	.st2{fill:#00B2E6;}
	.st3{fill:#E8AF3C;}
	.st4{fill:#FFFFFF;}
	.st5{fill:#E15B32;}
</style>
<g>
	<g>
		<path class="st0" d="M491.1,219c-0.9-2-1.8-3.8-2.7-5.4l-9.2-15.8L397,57c-9.6-16.4-26.7-27-45.8-28.3c-1.2-0.1-2.5-0.1-3.8-0.1
			H164.7c-20.4,0-39.4,10.9-49.6,28.4L23.8,213.6c-0.6,1.1-1.2,2.2-1.8,3.4c-8.5,17.2-7.8,37.3,1.8,53.9l23.9,41L97,396.4
			c-9,4.1-15.3,13.2-15.3,23.7v37.4c0,14.4,11.7,26,26,26h296.8c14.4,0,26-11.7,26-26V420c0-10.6-6.3-19.7-15.4-23.7l73.2-125.5
			C497.5,255,498.5,235.7,491.1,219z"/>
	</g>
	<path class="st1" d="M33.5,265.1l23.9,41l57.8,99.2h-7.6c-8.1,0-14.7,6.6-14.7,14.7v37.4c0,8.1,6.6,14.7,14.7,14.7h296.8
		c8.1,0,14.7-6.6,14.7-14.7V420c0-8.1-6.6-14.7-14.7-14.7h-7.7l81.7-140.2c7.4-12.7,8.1-28.2,2.2-41.5c-0.7-1.5-1.4-2.9-2.2-4.3
		l-9.2-15.8l-82-140.8C379.5,49.5,365.6,41,350.4,40c-1-0.1-2-0.1-3.1-0.1H164.7c-16.4,0-31.6,8.7-39.9,22.8L33.5,219.3
		c-0.5,0.9-1,1.8-1.4,2.7C25.3,235.6,25.8,251.8,33.5,265.1"/>
	<g>
		<path class="st2" d="M369.2,72.6c-4.6-8-13.2-13-22.5-13H165.3c-9.3,0-17.9,4.9-22.5,13L52.2,229.1c-4.7,8.1-4.7,18,0,26.1
			l90.6,156.5c4.6,8,13.2,13,22.5,13h181.4c9.3,0,17.9-4.9,22.5-13l90.6-156.5c4.7-8.1,4.7-18,0-26.1L369.2,72.6z"/>
		<path class="st3" d="M345.4,87.9l89.3,154.3l-89.3,154.3H166.6L77.3,242.2l89.3-154.3L345.4,87.9 M346.7,59.6H165.3
			c-9.3,0-17.9,4.9-22.5,13L52.2,229.1c-4.7,8.1-4.7,18,0,26.1l90.6,156.5c4.6,8,13.2,13,22.5,13h181.4c9.3,0,17.9-4.9,22.5-13
			l90.6-156.5c4.7-8.1,4.7-18,0-26.1L369.2,72.6C364.6,64.6,356,59.6,346.7,59.6L346.7,59.6z"/>
	</g>
	<path class="st4" d="M190.7,196l2.9,66.5c0,0,2.6,0.1,5.6,7.8s5,9.1,5,9.1l79.7-12.9l30.7-16.5l-0.2-8.4l5.1-45l-64.6-26.2
		L190.7,196z"/>
	<g>
		<g>
			<path class="st5" d="M237.9,273.2v-32c0-0.3-0.1-0.6-0.2-0.9c-0.1-0.3-0.3-0.5-0.5-0.7c-0.4-0.4-1-0.7-1.6-0.7h-12.5
				c-1.3,0-2.3,1-2.3,2.2v20.3v6.8l0,0v7.6C225.5,275.3,238.6,273.1,237.9,273.2z"/>
			<path class="st5" d="M265,254.6v-28.5c0-0.3-0.1-0.6-0.2-0.9c-0.1-0.3-0.3-0.5-0.5-0.7c-0.4-0.4-1-0.7-1.6-0.7l-12.9,0.4
				c-1.3,0-2.3,1-2.3,2.2v36.4l0,0v8.4c5.4-1.2,11.2-2.6,17.5-4.3V254.6z"/>
			<path class="st5" d="M291.3,251.1v-1.8l0,0V246l0,0v-35c0-0.6-0.3-1.2-0.7-1.6c-0.2-0.2-0.5-0.4-0.7-0.5
				c-0.3-0.1-0.6-0.2-0.9-0.2l0,0h-12.5c-1.3,0-2.3,1-2.3,2.2v44.8v8.6c5.5-1.7,11.2-2.9,17.1-5V251.1z"/>
		</g>
		<g>
			<path class="st1" d="M192.2,188.4c-2.8,0.6-5.5,1.2-8.4,1.7l0,0v19.8v35.8c0,0.6,0,1.2,0,1.8c0,0.1,0,0.1,0,0.2c0,1,0,2,0,3
				c0.1,2.4,0.2,4.9,0.4,7.4c0.2,1.9,0.4,3.8,0.7,5.7c0.3,2.1,0.8,4.2,1.3,6.2c0.1,0.3,0.2,0.6,0.3,0.9c0.1,0,0.2,0,0.3,0
				c3.7,0,7.8-0.2,12.3-0.6c-0.1-0.3-0.2-0.6-0.3-0.9c-1.5-4.5-2.2-9-2.6-13.7c-0.2-2.3-0.3-4.7-0.3-7s0-4.7,0-7v-32.4v-9.6
				c20.8-4.8,41-12.1,59.2-23.1c18.2,10.9,38.4,18.3,59.2,23.1c0,2.5,0,5,0,7.5c0,11.6,0,22,0,33.4c0,0.3,0,0.7,0,1
				c4.6-1.9,8.6-3.7,12.2-5.4c0-0.3,0-0.7,0-1c0-3.4,0-6.6,0-9.9c0-2.1,0-4.1,0-6.2c0-2.5,0-5.1,0-7.7l0,0c0-0.2,0-0.3,0-0.5
				c0-1.5,0-3.1,0-4.7l0,0c0-5.4,0-10.8,0-16.2l0,0c-3-0.6-6-1.2-8.9-1.9c-4.4-1-8.8-2.1-13-3.3c-2.6-0.8-5.2-1.6-7.8-2.4
				c-1.5-0.5-3-1-4.5-1.5c-1.7-0.6-3.4-1.3-5.1-1.9c-8.4-3.3-16.3-7-23.6-11.3c-1.5-0.8-2.9-1.7-4.4-2.6c-1.4-0.9-2.8-1.8-4.2-2.7
				c-1.4,1-2.9,1.9-4.3,2.8s-3,1.8-4.5,2.7s-3.1,1.7-4.6,2.6c-3.1,1.7-6.3,3.2-9.6,4.7c-4.9,2.2-10.1,4.3-15.4,6.2
				c-5.8,2-11.9,3.9-18.2,5.5C196.5,187.4,194.3,187.9,192.2,188.4z"/>
			<path class="st1" d="M318.6,299.4c-4,4.2-9.1,8.6-15.4,13.3c-0.7,0.5-1.3,1-2,1.5l18.1,17.2l0.3,0.3l29,12l-12.9-27.9
				L318.6,299.4z"/>
			<path class="st1" d="M209.2,313c-6.6-4.9-11.9-9.5-16.1-13.9l-17.6,16.7l-12.9,27.9l29-12l0.3-0.3l18.4-17.5l-0.1-0.1
				C210,313.5,209.6,313.3,209.2,313z"/>
			<path class="st1" d="M164.4,154l8.6,7.6l1.6,1.4l-0.1,0.3l-2.2,7.7l-2.3-2.3l-2.1,2.1l3.5,3.5l-1.9,6.5l-2.9-2.8l-2.1,2.1l4,4
				l-1.5,5.2l6,5.9l3.1-5.2l4.1-7l2.3-3.8l3,2.8c1.6-0.3,3.3-0.7,5.1-1.1c7.2-1.6,14.1-3.5,20.7-5.7l-13-12.4l17.7-10.3l-6-5.9
				l-5.2,1.5l-4-4l-2.1,2.1l2.9,2.8l-6.5,1.9l-3.5-3.5l-2.1,2.1l2.3,2.3l-9.2,2.6l-11.3-9.9l-2.3-2c-2.3-2.3-6-2.3-8.3,0
				s-2.3,5.9,0,8.2L164.4,154z"/>
			<path class="st1" d="M298.8,174.9c6.6,2.2,13.5,4.1,20.7,5.8c1.7,0.4,3.4,0.8,5,1.1l3.3-3.1l2.5,4.2l4.2,7.1l2.8,4.7l6-5.9
				l-1.5-5.2l4-4l-2.1-2.1l-2.9,2.8l-1.9-6.5l3.5-3.5l-2.1-2.1l-2.3,2.3l-2.2-7.7l-0.1-0.3l1.6-1.4l8.6-7.6l3.8-3.4
				c2.3-2.3,2.3-5.9,0-8.2s-6-2.3-8.3,0l-2.3,2l-11.3,9.9l-9.2-2.6l2.3-2.3l-2.1-2.1l-3.5,3.5l-6.5-1.9l2.9-2.8l-2.1-2.1l-4,4
				l-5.2-1.5l-6,5.9l17.7,10.3L298.8,174.9z"/>
			<path class="st1" d="M364.3,224.3c-0.3-0.8-0.7-1.5-1.3-2.1c-0.3-0.3-0.6-0.6-0.9-0.9c-0.7-0.7-1.7-1.2-2.7-1.7
				c-0.4-0.2-0.7-0.3-1.1-0.5c-3.1-1.2-7.4-1.7-12.7-1.7c-0.9,0-1.8,0-2.8,0c-1.9,0.1-3.9,0.2-6.1,0.4c-0.7,0.1-1.4,0.1-2.2,0.2
				c-0.4,0-0.8,0.1-1.2,0.1v0.4c0.4,0.1,0.8,0.1,1.2,0.2c12.6,1.9,18.6,4.5,17.9,7.7c0,0.2-0.1,0.4-0.1,0.7c-0.2,0.5-0.4,1-0.8,1.5
				c-0.4,0.6-1,1.3-1.7,2c-0.3,0.3-0.5,0.5-0.8,0.8s-0.5,0.5-0.8,0.7c-0.5,0.4-0.9,0.8-1.4,1.2c-0.7,0.6-1.4,1.1-2.1,1.6
				c-0.5,0.4-1,0.7-1.5,1c-0.8,0.5-1.4,1-1.9,1.2c-0.5,0.3-1.1,0.6-1.6,0.9c-1.2,0.7-2.5,1.5-3.8,2.2c-0.7,0.4-8.6,4.4-13.3,6.5
				c-2.7,1.2-5.4,2.3-8.1,3.3c-1.1,0.4-8.3,3.7-23.3,9.3c-4.5,1.7-21.8,6.1-24.1,6.8c-0.8,0.2-1.5,0.4-2.2,0.6l-17.5,4.1
				c-0.5,0.1-1.1,0.2-1.7,0.3s-1.2,0.2-1.8,0.3c-1.3,0.2-2.6,0.4-3.8,0.7c-0.8,0.1-1.6,0.3-2.3,0.4l-17.1,2.8
				c-0.7,0.1-1.3,0.2-1.7,0.3c-0.6,0.1-1,0.2-1.5,0.3c-0.5,0.1-1.1,0.2-2.2,0.4c-1.7,0.2-3.4,0.5-5.1,0.7c-1.5,0.2-3,0.4-4.5,0.5
				c-0.2,0-0.3,0-0.5,0c-6.1,0.7-12.3,1.1-18.4,1.1c-1.4,0-2.7,0-4-0.1c-0.5,0-1.1,0-1.6-0.1c-0.1,0-0.3,0-0.5,0
				c-0.3,0-0.5,0-0.9-0.1c-0.8-0.1-1.8-0.2-2.9-0.3c-0.7-0.1-1.5-0.2-2.2-0.3c-3.4-0.6-7.1-1.5-8.2-3.1c-0.2-0.5-0.2-1.1-0.1-1.8
				c0-0.1,0.1-0.2,0.1-0.3c0.1-0.3,0.2-0.6,0.4-1c0.2-0.6,0.6-1.2,1-1.8c0.3-0.4,0.6-0.8,0.9-1.3c0.5-0.7,1.1-1.4,1.8-2.1
				c1-1.1,2.2-2.3,3.6-3.6c0.4-0.3,0.8-0.7,1.2-1.1s0.8-0.7,1.3-1.1c0.7-0.6,1.4-1.2,2.2-1.9l0,0c0-0.2,0-0.3,0-0.5
				c-0.8,0.4-1.6,0.7-2.3,1.1c-1.3,0.6-2.5,1.2-3.7,1.8c-1.2,0.6-2.4,1.3-3.5,1.9c-3.3,1.9-6,3.7-8.1,5.5c-0.7,0.6-1.3,1.2-1.9,1.8
				c-1.4,1.5-2.4,2.9-3,4.4c-0.2,0.6-0.4,1.1-0.5,1.7c-0.2,1.4-0.1,2.8,0.6,4.2c0.5,1.1,1.2,2.2,2.3,3.2c0.3,0.3,0.5,0.5,0.8,0.8
				c0.6,0.5,1.2,1.1,1.9,1.6c0.7,0.4,1.4,0.8,2.2,1.1c1.5,0.7,3.1,1.2,4.8,1.7c4.1,1.1,8.5,1.6,12.2,1.8c1,0.1,2.1,0.1,3.1,0.1
				c1.1,0,2.1,0,3.2,0c3,0,6.1-0.1,9.1-0.3H196c0.3,0.4,0.6,0.7,0.9,1.1c2.8,3.2,6.1,6.4,9.9,9.6c1.5,1.3,3.1,2.5,4.7,3.8
				c0.8,0.6,1.6,1.2,2.5,1.9c0.9,0.7,1.8,1.3,2.7,1.9s1.8,1.3,2.7,1.9c0.8,0.6,1.6,1.1,2.4,1.7c12.1,8.3,25.1,15.9,34.4,22
				c2.5-1.7,5.2-3.4,8.2-5.3c2.9-1.8,6.1-3.8,9.3-5.8c2.8-1.7,5.6-3.5,8.4-5.3c5.7-3.6,11.3-7.5,16.6-11.4c0.8-0.6,1.6-1.2,2.5-1.9
				c1.6-1.2,3.2-2.5,4.7-3.8s2.9-2.5,4.3-3.8s2.6-2.6,3.8-3.8c0.6-0.6,1.2-1.3,1.7-1.9c0.4-0.5,0.8-1,1.2-1.4c1.1-1.4,2.1-2.9,3-4.3
				c4.9-8.2,7-17.2,7.6-27.6c7.3-3.1,14.5-6.7,20.9-10.7c0.4-0.2,0.8-0.5,1.2-0.8c1-0.7,2.1-1.4,3.2-2.2c0.5-0.4,1-0.7,1.5-1.1
				c1-0.7,1.9-1.5,2.8-2.3c2-1.7,3.7-3.7,5.1-5.8c0.3-0.4,0.6-0.9,0.8-1.3c0.5-0.9,0.9-1.8,1.3-2.7c0.2-0.5,0.3-0.9,0.4-1.4
				c0.2-1,0.3-2,0.2-2.9C364.7,225.9,364.6,225.1,364.3,224.3z"/>
		</g>
	</g>
	<g>
		<path class="st5" d="M442.8,239L352.2,82.5c-1.1-1.9-3.2-3.1-5.4-3.1H165.3c-2.2,0-4.3,1.2-5.4,3.1L69.2,239
			c-1.1,1.9-1.1,4.4,0,6.3l87,150.2l-3,1.3c-12.2,5.2-8.3,22.4,5.1,22.4h195.4c13.4,0,17.3-17.2,5.1-22.4l-3-1.3l87-150.2
			C443.9,243.4,443.9,241,442.8,239z M346.7,391.6l-90.8-38.5l-90.5,38.6L78.8,242.2l88.6-153h17.4l10.4,25.7
			c2.5,6.1,8.4,10.1,15,10.1h91.3c6.6,0,12.5-4,15-10.1L327,89.2h17.6l88.6,153L346.7,391.6z"/>
	</g>
	<g>
		<path class="st1" d="M404.4,405.2h-68.6c-18.2,0-118.9,0-159.5,0h-68.6c-8.1,0-14.7,6.6-14.7,14.7v37.4c0,8.1,6.6,14.7,14.7,14.7
			h296.8c8.1,0,14.7-6.6,14.7-14.7V420C419.2,411.8,412.6,405.2,404.4,405.2"/>
	</g>
	<g>
		<path class="st4" d="M128,448.1v2.9c0,1.4-0.3,2.8-0.8,4.1c-0.5,1.3-1.3,2.4-2.3,3.4s-2.1,1.8-3.4,2.4s-2.7,0.9-4.2,0.9
			c-1.3,0-2.6-0.2-3.9-0.5s-2.5-1-3.5-1.8c-1-0.9-1.9-2-2.6-3.4s-1-3.1-1-5.3v-25.7c0-1.5,0.3-2.9,0.8-4.3c0.5-1.3,1.3-2.4,2.2-3.4
			c1-1,2.1-1.7,3.4-2.3s2.8-0.8,4.4-0.8c3.1,0,5.7,1,7.7,3.1c1,1,1.7,2.2,2.3,3.6c0.5,1.4,0.8,2.9,0.8,4.5v2.6h-6.7v-2.2
			c0-1.3-0.4-2.4-1.1-3.4s-1.7-1.4-3-1.4c-1.7,0-2.8,0.5-3.3,1.5s-0.8,2.3-0.8,3.9v23.8c0,1.4,0.3,2.5,0.9,3.4s1.6,1.4,3.2,1.4
			c0.4,0,0.9-0.1,1.4-0.2c0.5-0.2,1-0.4,1.4-0.8s0.7-0.8,1-1.4s0.4-1.4,0.4-2.3v-2.3L128,448.1L128,448.1z"/>
		<path class="st4" d="M137.6,461.4v-46.6h6.7v20h8.2v-20h6.7v46.6h-6.7v-20.8h-8.2v20.8H137.6z"/>
		<path class="st4" d="M166.7,461.4l10.4-46.6h5.6l10.4,46.6h-6.7l-2-10h-9.1l-2,10H166.7z M183.2,445.1l-3.3-16.9h-0.1l-3.3,16.9
			H183.2z"/>
		<path class="st4" d="M200.5,461.4v-46.6h6.7v39.9h13.2v6.7H200.5z"/>
		<path class="st4" d="M228.9,461.4v-46.6h6.7v39.9h13.2v6.7H228.9z"/>
		<path class="st4" d="M257.3,461.4v-46.6h19.9v6.3H264v13.7h11.5v6.3H264v13.7h13.2v6.7h-19.9V461.4z"/>
		<path class="st4" d="M285.5,461.4v-46.6h6.4l10.1,28.1h0.1v-28.1h6.7v46.6h-6.3l-10.2-28h-0.1v28H285.5z"/>
		<path class="st4" d="M318.6,425.7c0-1.9,0.3-3.5,1-5c0.7-1.4,1.5-2.6,2.6-3.6c1-0.9,2.2-1.6,3.6-2.1c1.3-0.5,2.7-0.7,4-0.7
			c1.4,0,2.7,0.2,4,0.7s2.5,1.2,3.6,2.1c1,1,1.9,2.2,2.6,3.6s1,3.1,1,5v2.4h-6.7v-2.4c0-1.6-0.4-2.8-1.3-3.6c-0.9-0.8-2-1.1-3.2-1.1
			s-2.3,0.4-3.2,1.1c-0.9,0.8-1.3,2-1.3,3.6v24.6c0,1.6,0.4,2.8,1.3,3.6c0.9,0.8,2,1.1,3.2,1.1s2.3-0.4,3.2-1.1
			c0.9-0.8,1.3-2,1.3-3.6v-8.8H329v-5.9h12v14.7c0,2-0.3,3.6-1,5s-1.5,2.6-2.6,3.5c-1.1,1-2.3,1.7-3.6,2.2c-1.3,0.5-2.7,0.7-4,0.7
			c-1.4,0-2.7-0.2-4-0.7s-2.5-1.2-3.6-2.2c-1.1-0.9-2-2.1-2.6-3.5c-0.7-1.4-1-3.1-1-5L318.6,425.7L318.6,425.7z"/>
		<path class="st4" d="M351.1,461.4v-46.6H371v6.3h-13.2v13.7h11.5v6.3h-11.5v13.7H371v6.7h-19.9V461.4z"/>
		<path class="st4" d="M379.5,461.4v-46.6h10.7c7.9,0,11.8,4.6,11.8,13.7c0,2.8-0.4,5.1-1.3,7s-2.3,3.5-4.5,4.6l7.2,21.3h-7.1
			l-6.2-19.9h-4v19.9H379.5z M386.2,421v14.5h3.8c1.2,0,2.1-0.2,2.8-0.5c0.7-0.3,1.2-0.8,1.6-1.4c0.3-0.6,0.6-1.4,0.7-2.3
			s0.2-1.9,0.2-3.1s-0.1-2.2-0.2-3.1s-0.4-1.7-0.8-2.3c-0.8-1.2-2.4-1.8-4.7-1.8L386.2,421L386.2,421z"/>
	</g>
	<g>
		<path class="st4" d="M224.9,101l-4.9,13.9h-3l-4.9-13.9v13.9h-6.7v-22h9.2l3.9,11.2l3.9-11.2h9.2v22h-6.7V101z"/>
		<path class="st4" d="M247.4,92.5c6.8,0,12,4.6,12,11.4s-5.2,11.4-12,11.4s-12-4.6-12-11.4S240.7,92.5,247.4,92.5z M247.4,98.4
			c-3.2,0-5.3,2.4-5.3,5.5s2.1,5.5,5.3,5.5s5.3-2.4,5.3-5.5S250.6,98.4,247.4,98.4z"/>
		<path class="st4" d="M263.3,92.9h9.8c6.9,0,12.1,4,12.1,11s-5.1,11-12,11h-9.8v-22H263.3z M273.1,109.1c3.3,0,5.3-2.4,5.3-5.2
			c0-3-1.7-5.2-5.3-5.2h-3.2v10.4C269.9,109.1,273.1,109.1,273.1,109.1z"/>
		<path class="st4" d="M289,92.9h16.7v5.5h-10v2.6h9.8v5.5h-9.8v2.8h10v5.5H289V92.9z"/>
	</g>
</g>
</svg>
