<?xml version="1.0" encoding="utf-8"?>
<!-- Generator: Adobe Illustrator 25.2.0, SVG Export Plug-In . SVG Version: 6.00 Build 0)  -->
<svg version="1.1" id="Layer_1" xmlns="http://www.w3.org/2000/svg" xmlns:xlink="http://www.w3.org/1999/xlink" x="0px" y="0px"
	 viewBox="0 0 512 512" style="enable-background:new 0 0 512 512;" xml:space="preserve">
<style type="text/css">
	.st0{fill:#D72E15;}
	.st1{fill:#FFFFFF;}
	.st2{fill:#358BB9;}
	.st3{fill:#368CB9;}
	.st4{fill:#D72C13;}
</style>
<g>
	<path d="M491.1,219c-0.9-2-1.8-3.8-2.8-5.4l-9.2-15.8L397,57c-9.6-16.4-26.7-27-45.8-28.3c-1.2-0.1-2.5-0.1-3.8-0.1H164.7
		c-20.4,0-39.4,10.9-49.6,28.4L23.8,213.6c-0.6,1.1-1.2,2.2-1.8,3.3c-8.5,17.2-7.9,37.3,1.8,53.9l23.9,41l49.3,84.5
		c-9,4.1-15.3,13.2-15.3,23.7v37.4c0,14.4,11.7,26,26,26h296.8c14.4,0,26-11.7,26-26V420c0-10.6-6.3-19.7-15.4-23.7l73.2-125.5
		C497.5,255,498.5,235.7,491.1,219"/>
	<path class="st0" d="M33.5,265.1l23.9,41l57.8,99.2h-7.6c-8.1,0-14.7,6.6-14.7,14.7v37.4c0,8.1,6.6,14.7,14.7,14.7h296.8
		c8.1,0,14.7-6.6,14.7-14.7V420c0-8.1-6.6-14.7-14.7-14.7h-7.7l81.8-140.2c7.4-12.7,8.1-28.2,2.2-41.5c-0.7-1.5-1.4-2.9-2.2-4.3
		l-9.2-15.8L387.2,62.7C379.5,49.5,365.6,41,350.4,40c-1-0.1-2-0.1-3.1-0.1H164.7c-16.4,0-31.6,8.7-39.9,22.8L33.5,219.3
		c-0.5,0.9-1,1.8-1.5,2.7C25.3,235.6,25.8,251.8,33.5,265.1"/>
	<path class="st1" d="M369.2,72.6c-4.6-8-13.2-13-22.5-13H165.3c-9.3,0-17.9,4.9-22.5,13L52.2,229.1c-4.7,8.1-4.7,18,0,26.1
		l90.6,156.5c4.6,8,13.2,13,22.5,13h181.4c9.3,0,17.9-4.9,22.5-13l90.6-156.5c4.7-8.1,4.7-18,0-26.1L369.2,72.6z"/>
	<path class="st2" d="M345.4,87.9l89.3,154.3l-89.3,154.3H166.6L77.3,242.2l89.3-154.3H345.4 M346.7,59.6H165.3
		c-9.3,0-17.9,4.9-22.5,13L52.2,229.1c-4.7,8.1-4.7,18,0,26.1l90.6,156.5c4.6,8,13.2,13,22.5,13h181.4c9.3,0,17.9-4.9,22.5-13
		l90.6-156.5c4.7-8.1,4.7-18,0-26.1L369.2,72.6C364.6,64.6,356,59.6,346.7,59.6"/>
	<path d="M442.8,239L352.2,82.5c-1.1-1.9-3.2-3.1-5.4-3.1H165.3c-2.2,0-4.3,1.2-5.4,3.1L69.2,239c-1.1,1.9-1.1,4.4,0,6.3l87,150.2
		l-3,1.3c-12.2,5.2-8.3,22.4,5.1,22.4l195.4,0c13.4,0,17.3-17.2,5.1-22.4l-3-1.3l87-150.2C443.9,243.4,443.9,241,442.8,239
		 M346.7,391.6l-90.8-38.5l-90.6,38.6L78.8,242.2l88.6-153h17.4l10.4,25.7c2.5,6.1,8.4,10.1,15,10.1h91.3c6.6,0,12.5-4,15-10.1
		L327,89.2h17.6l88.6,153L346.7,391.6z"/>
	<path class="st0" d="M404.4,405.2h-68.6H176.2h-68.6c-8.1,0-14.7,6.6-14.7,14.7v37.4c0,8.1,6.6,14.7,14.7,14.7h296.8
		c8.1,0,14.7-6.6,14.7-14.7V420C419.2,411.8,412.6,405.2,404.4,405.2"/>
</g>
<g>
	<path class="st1" d="M125.9,415.2h20.8v6.2h-13.9v13.4H145v6.2h-12.1v13.4h13.9v6.5h-20.8V415.2z"/>
	<path class="st1" d="M152.7,415.2h6.7l10.6,27.5h0.1v-27.5h7v45.6h-6.6l-10.7-27.4h-0.1v27.4h-7V415.2z"/>
	<path class="st1" d="M185.2,415.2h10.4c4,0,7,1,9.1,3.1c2.1,2.1,3.2,5,3.2,8.7v21.3c0,4.3-1.1,7.4-3.3,9.5c-2.2,2-5.4,3-9.6,3h-9.7
		V415.2z M192.2,454.6h3.2c2,0,3.4-0.5,4.2-1.4c0.8-0.9,1.2-2.4,1.2-4.3v-22c0-1.8-0.4-3.2-1.2-4.2c-0.8-1-2.2-1.5-4.3-1.5h-3.2
		V454.6z"/>
	<path class="st1" d="M214.6,415.2h20.8v6.2h-13.9v13.4h12.1v6.2h-12.1v13.4h13.9v6.5h-20.8V415.2z"/>
	<path class="st1" d="M251.6,415.2h5.8l10.9,45.6h-7l-2.1-9.8h-9.5l-2.1,9.8h-7L251.6,415.2z M254.6,428.3h-0.1l-3.4,16.5h7
		L254.6,428.3z"/>
	<path class="st1" d="M284.7,460.8h-6.2l-9.9-45.6h7.4l5.6,31.9h0.1l5.6-31.9h7.4L284.7,460.8z"/>
	<path class="st1" d="M299.5,425.9c0-1.8,0.3-3.5,1-4.9c0.7-1.4,1.6-2.6,2.7-3.5c1.1-0.9,2.4-1.6,3.8-2.1c1.4-0.5,2.8-0.7,4.2-0.7
		c1.4,0,2.8,0.2,4.2,0.7c1.4,0.5,2.7,1.2,3.8,2.1c1.1,0.9,2,2.1,2.7,3.5c0.7,1.4,1,3,1,4.9V450c0,1.9-0.3,3.5-1,4.9
		c-0.7,1.4-1.6,2.5-2.7,3.5c-1.1,0.9-2.4,1.6-3.8,2.1c-1.4,0.5-2.8,0.7-4.2,0.7c-1.4,0-2.8-0.2-4.2-0.7c-1.4-0.5-2.7-1.2-3.8-2.1
		c-1.1-0.9-2-2.1-2.7-3.5c-0.7-1.4-1-3-1-4.9V425.9z M306.5,450c0,1.6,0.5,2.7,1.4,3.5c0.9,0.7,2,1.1,3.3,1.1c1.3,0,2.4-0.4,3.3-1.1
		c0.9-0.7,1.4-1.9,1.4-3.5v-24.1c0-1.6-0.5-2.7-1.4-3.5c-0.9-0.7-2-1.1-3.3-1.1c-1.3,0-2.4,0.4-3.3,1.1c-0.9,0.7-1.4,1.9-1.4,3.5
		V450z"/>
	<path class="st1" d="M353.5,450.5c0,1.5-0.3,2.9-0.9,4.2c-0.6,1.3-1.4,2.4-2.4,3.4c-1,1-2.2,1.7-3.6,2.3c-1.4,0.6-2.8,0.8-4.4,0.8
		c-1.6,0-3-0.3-4.4-0.8c-1.4-0.6-2.6-1.3-3.6-2.3c-1-1-1.8-2.1-2.4-3.4c-0.6-1.3-0.9-2.7-0.9-4.2v-35.4h7v34.7
		c0,1.6,0.4,2.8,1.2,3.6c0.8,0.8,1.9,1.2,3.1,1.2c1.2,0,2.3-0.4,3.1-1.2c0.8-0.8,1.2-2,1.2-3.6v-34.7h7V450.5z"/>
	<path class="st1" d="M361.7,415.2h11.2c8.2,0,12.3,4.5,12.3,13.4c0,2.7-0.4,4.9-1.3,6.8c-0.9,1.9-2.5,3.4-4.7,4.6l7.5,20.8h-7.4
		l-6.5-19.5h-4.2v19.5h-7V415.2z M368.7,435.5h4c1.2,0,2.2-0.2,2.9-0.5c0.7-0.3,1.3-0.8,1.7-1.4c0.4-0.6,0.7-1.3,0.8-2.2
		c0.1-0.9,0.2-1.9,0.2-3c0-1.2-0.1-2.2-0.2-3c-0.1-0.9-0.4-1.6-0.9-2.2c-0.4-0.6-1-1.1-1.8-1.4c-0.8-0.3-1.8-0.4-3.1-0.4h-3.6V435.5
		z"/>
</g>
<g>
	<polygon class="st1" points="224.9,101 220,114.9 217.1,114.9 212.2,101 212.2,114.9 205.5,114.9 205.5,92.9 214.7,92.9 
		218.5,104.1 222.4,92.9 231.6,92.9 231.6,114.9 224.9,114.9 	"/>
	<path class="st1" d="M247.4,92.5c6.8,0,12,4.6,12,11.4c0,6.8-5.2,11.4-12,11.4c-6.8,0-12-4.6-12-11.4
		C235.4,97.1,240.7,92.5,247.4,92.5 M247.4,98.4c-3.2,0-5.3,2.4-5.3,5.5c0,3.1,2.1,5.5,5.3,5.5c3.2,0,5.3-2.4,5.3-5.5
		C252.7,100.8,250.6,98.4,247.4,98.4"/>
	<path class="st1" d="M263.3,92.9h9.8c6.9,0,12.1,4,12.1,11c0,7-5.1,11-12,11h-9.8V92.9z M273.1,109.1c3.3,0,5.3-2.4,5.3-5.2
		c0-3-1.7-5.2-5.3-5.2h-3.2v10.4H273.1z"/>
	<polygon class="st1" points="289,92.9 305.7,92.9 305.7,98.4 295.6,98.4 295.6,101 305.4,101 305.4,106.5 295.6,106.5 295.6,109.3 
		305.7,109.3 305.7,114.9 289,114.9 	"/>
	<g>
		<path class="st1" d="M358.8,274.6l-0.3,0.3c0.7,0.8,1.4,1.7,2.1,2.6C360,276.5,359.4,275.6,358.8,274.6z"/>
		<path class="st1" d="M356.1,277l-1.6,1.4c0.4,1.5,0.7,2.9,0.9,4.1c0.1,0.9,0.2,1.7,0.3,2.4c0.1,1.2,0.1,2.2,0,3.2
			c0,0.6-0.1,1.1-0.2,1.6c0,0.2-0.1,0.4-0.1,0.5c-0.1,0.3-0.2,0.6-0.3,0.8C361.1,290.7,359.1,283.7,356.1,277z"/>
		<g>
			<path class="st3" d="M188.3,242h-30.7c0.8,20.1,7.7,38.7,19,54c5.9-4.2,12.2-7.9,18.8-11.1C191.2,271.9,188.7,257.4,188.3,242z
				 M191.4,206.3c-2-1.8-4-3.7-5.9-5.6c-2.1-2-7.5-7.7-13.3-14.1c-8.8,14.2-14.1,30.7-14.7,48.5h30.7
				C188.5,225.2,189.5,215.5,191.4,206.3z M197.6,291.3c-5.9,2.9-11.5,6.2-16.8,10c11.4,13.4,26.4,23.7,43.5,29.4
				C213.2,321.7,204,308,197.6,291.3z M229.2,280.8c-2.9,0.6-5.8,1.3-8.6,2l-14.9,10.6c8.7,20.5,22.1,35.3,37.7,40.4
				c-3.5-5.3-6.5-13.3-9.1-23.8C232.1,301.4,230.4,291.5,229.2,280.8z M222.8,234.2c-8.4-7.1-17-14.6-25.6-22.5
				c-1.3,7.5-2,15.4-2.2,23.5h27.3L222.8,234.2z M218.8,242h-23.8c0.3,12.9,2.2,25.1,5.3,36.2L218.8,242z M272.5,272.4
				c-6-4.2-12.2-8.7-18.6-13.4l-18.9,13.5c0,0.2,0,0.4,0,0.5C247.4,271.2,260,271,272.5,272.4z M310.6,296.3
				c-6.2,14.4-14.7,26.3-24.7,34.4c15.7-5.2,29.6-14.4,40.7-26.3C321.8,302.3,316.4,299.5,310.6,296.3z M235.8,279.7
				c4,35.2,12.6,55.6,19.3,55.6c6.7,0,15.4-20.5,19.4-55.9C261.5,277.7,248.5,277.8,235.8,279.7z M304.8,293
				c-6-3.5-12.3-7.4-19-11.7c-1.6-0.3-3.1-0.6-4.7-0.9c-1.2,10.9-3,20.9-5.1,29.6c-2.6,10.5-5.7,18.5-9.1,23.8
				C282.6,328.8,296.1,313.7,304.8,293z"/>
			<polygon class="st4" points="289.5,267.9 286.6,262 282.2,253.3 254.1,197.2 241.5,222.2 240.8,223.7 235,235.4 234.8,235.8 
				234.1,237.1 234,237.4 233.6,238.1 233.4,238.6 231.8,241.6 231.5,242.4 227.1,251.2 217.5,270.2 227.6,263 234.1,258.4 
				244,251.3 245.2,250.5 245.6,250.2 247.9,248.6 249.5,247.4 249.7,247.3 250.2,246.9 254.1,244.2 282.8,264.6 290.7,270.2 			"/>
			<path d="M258.8,171l-1.4,6.3c14.9,0.7,28.4,6.8,38.6,16.4l3.5-5.8C288.5,178.2,274.3,172,258.8,171z M296.4,194.1
				c11,10.6,18.1,25.3,18.6,41.6l7-1.5c-1.1-17.1-8.5-32.5-20-43.8L296.4,194.1z M368.8,292.4c-1.1-4.7-4.4-10.1-8.2-14.9
				c-0.7-0.9-1.4-1.8-2.1-2.6c-2.1-2.5-4.3-4.8-6.2-6.6c-0.1,0.2-0.2,0.3-0.3,0.5c1.1,2.3,2.7,5.3,4.1,8.3c3,6.7,5,13.7-1.1,14.1
				c-1.8,0.1-4.3-0.3-7.6-1.5c-2.8-0.9-5.6-1.9-8.4-2.9c6.1-10.3,10.5-21.9,11.8-34.2c0.8-4.9,1.2-10,1.2-15.1
				c0-53.3-43.2-96.5-96.5-96.5c-13.9,0-27.1,3-39.1,8.3c-0.3,0.1-0.6,0.3-0.9,0.4c-1.1,0.5-2.2,1-3.2,1.5c-1.5,0.8-3.1,1.6-4.6,2.4
				c-0.5,0.3-0.9,0.5-1.4,0.8c-0.8,0.5-1.6,1-2.4,1.5c-1.2,0.8-2.4,1.6-3.6,2.4c-0.3,0.2-0.5,0.4-0.8,0.6c-1.4,1-2.8,2-4.1,3.1
				c-2.4,1.9-4.8,3.9-7,6l-2.6,2.7c-11.8-14.8-18.5-29,15.3-17.8l0.2-0.4c-9.9-6.1-33.6-17.8-39-6.5c-1,2.2-1.4,5.2-0.8,9.4
				c2.6,10,8.3,18.3,14.9,26.1c0.1,0.1,0.2,0.2,0.3,0.3c3.5,4.1,7.1,8,10.8,11.9c0.5,0.5,0.9,1,1.3,1.5c0,0.1,1.2,1.3,3.1,3.2
				c0.3,0.3,0.7,0.7,1.1,1.1c1.2,1.1,2.5,2.4,4,3.7c0.5,0.5,1.1,1,1.7,1.6c7.3,6.8,16.4,15.2,19.2,17.4c3.1,2.6,6.2,5.1,9.1,7.5
				c0.9,0.7,1.8,1.4,2.6,2.1l-0.6,1.2l-0.3,0.6l-0.9,1.8l-0.5,1.1l-0.4,0.8l-0.2,0.3l-2.3,4.6l-12.6,25.2l-6.8,13.5l-1.8,3.6
				c-0.8,1.6,1.1,3.2,2.6,2.2l15.2-10.8l0.4-0.3l6.9-4.9l6.4-4.5l14.8-10.6l1.5-1l0.5-0.4l1.6-1.2l1.1-0.8l13.8,9.2
				c2.7,1.9,5.2,3.8,7.7,5.6c0.4,0.3,0.9,0.6,1.3,0.9c1.7,1.2,3.4,2.4,5.1,3.6c1.6,1.1,3.1,2.1,4.6,3.1c1.7,1.1,3.3,2.2,4.9,3.3
				c1,0.6,1.9,1.3,2.9,1.9c0.2,0.1,0.4,0.3,0.6,0.4c0.3,0.2,0.6,0.4,0.8,0.5c0.1,0.1,0.2,0.1,0.3,0.2c0,0,0,0,0.1,0
				c0.2,0.1,0.3,0.2,0.5,0.3c6.1,3.9,11.4,7.1,16.1,9.7c6,3.3,10.9,5.8,15,7.6c2.2,1,4.2,1.7,6,2.4c7.3,3.6,24.9,7.3,32.3,0.9
				C369.1,299.6,369.7,296.3,368.8,292.4z M282.8,264.6l-28.7-20.4l-3.9,2.8l-0.5,0.3l-0.2,0.2v0l-1.7,1.2l-2.3,1.6l-0.4,0.3
				l-1.2,0.8l-9.9,7.1l-6.5,4.6l-10.1,7.2l9.5-19l4.4-8.8l0.4-0.7l1.5-3.1l0.2-0.4l0.4-0.8l0.1-0.3l0.7-1.3l0.2-0.4l5.9-11.8
				l0.7-1.4l12.6-25.1l28.1,56.1l4.4,8.7l3,5.9l1.1,2.2L282.8,264.6z M317.6,276.6c-1.8-1-3.5-2-5.2-3c5.6-9.2,9.1-19.8,9.7-31.2
				l-7.1-1.6c-0.5,10.6-3.8,20.4-9.1,28.9c-0.2-0.1-0.4-0.2-0.6-0.4c-0.4-0.2-0.7-0.4-1.1-0.7c-0.2-0.1-0.4-0.2-0.6-0.4
				c1.4-2.2,2.7-4.6,3.8-7l-4.1-1.8l-0.6-0.3l0.3-0.6l0.7-1.6l4.7,2.1c1.1-2.9,2.1-5.8,2.7-8.9l-4.2-0.8l-0.7-0.1l0.1-0.7l0.3-1.7
				l4.9,1c0.4-2.5,0.7-5,0.8-7.6l-8.8-2l8.9-2c-0.1-2.8-0.4-5.6-0.8-8.3l-4.2,0.8l-0.7,0.1l-0.1-0.7l-0.3-1.7l4.9-0.9
				c-0.6-2.6-1.3-5.2-2.2-7.7l-4,1.5l-0.6,0.3L304,219l-0.6-1.6l4.6-1.8c-1.3-3.2-2.9-6.2-4.7-9l-3.5,2.3l-0.6,0.4l-0.4-0.6l-1-1.4
				l4.1-2.7c-1.7-2.4-3.6-4.7-5.7-6.9l-3,3l-0.5,0.5l-0.5-0.5l-1.2-1.2l3.5-3.5c-2.1-2-4.3-3.8-6.7-5.5l-2.4,3.5l-0.4,0.6l-0.6-0.4
				l-1.4-1l2.7-4.1c-2.2-1.5-4.6-2.8-7-3.9l-1.7,3.9l-0.3,0.6l-0.6-0.3l-1.6-0.7l2-4.5c-3.1-1.3-6.4-2.3-9.7-3.1l-0.8,4.2l-0.1,0.7
				l-0.7-0.1l-1.7-0.3l1-4.8c-2.6-0.5-5.2-0.7-7.9-0.8l-2.3,10.3l-2.3-10.2c-2.5,0.1-5,0.4-7.4,0.8l0.8,4.2l0.1,0.7l-0.7,0.1
				l-1.7,0.3l-0.9-4.9c-3.2,0.7-6.2,1.6-9.2,2.8l1.5,3.8l0.3,0.6l-0.6,0.3l-1.6,0.6l-1.7-4.4c-2.6,1.2-5.2,2.5-7.6,4.1l2.4,3.5
				l0.4,0.6l-0.6,0.4l-1.4,0.9l-2.7-4.1c-2.4,1.7-4.7,3.6-6.9,5.6l3,3l0.5,0.5l-0.5,0.5l-1.2,1.2l-3.5-3.5c-0.2,0.2-0.4,0.4-0.5,0.6
				c-0.2-0.2-0.3-0.3-0.5-0.5c-0.3-0.3-0.7-0.6-1-0.8c-0.2-0.2-0.3-0.3-0.5-0.5c10.4-11.2,25-18.4,41.3-19.2l-1.4-6.3
				c-17.1,1.1-32.5,8.6-43.8,20.1l3.2,4.8c-4.6-4.1-8.2-7.5-10.3-9.9c-1.7-1.9-3.7-4-5.6-6.3l9.4,5.1c13.3-12.7,31.3-20.6,51.2-20.6
				c18.9,0,36.1,7.1,49.2,18.7l10.8-7.2l-6.7,11.2c12.8,13.3,20.8,31.4,20.8,51.4C328.3,252.3,324.4,265.4,317.6,276.6z"/>
		</g>
	</g>
	<polygon points="100.4,440.5 115.6,452.4 110.2,440.5 115.6,428.6 	"/>
	<polygon points="410,440.5 394.9,428.6 400.3,440.5 394.9,452.4 	"/>
</g>
</svg>
