<?xml version="1.0" encoding="utf-8"?>
<!-- Generator: Adobe Illustrator 25.3.1, SVG Export Plug-In . SVG Version: 6.00 Build 0)  -->
<svg version="1.1" id="Layer_1" xmlns="http://www.w3.org/2000/svg" xmlns:xlink="http://www.w3.org/1999/xlink" x="0px" y="0px"
	 viewBox="0 0 512 512" style="enable-background:new 0 0 512 512;" xml:space="preserve">
<style type="text/css">
	.st0{fill:none;}
	.st1{fill:#7E0085;}
	.st2{fill:#85008C;}
	.st3{fill:#6D0073;}
	.st4{fill:#4E0052;}
	.st5{fill:#FFFFFF;}
	.st6{fill:#8C8C8C;}
</style>
<g>
	<path class="st0" d="M379.7,53.1c-0.1-0.1-0.3-0.2-0.4-0.4c-0.4-0.4-0.9-0.8-1.4-1.2c0.5,0.4,0.9,0.8,1.4,1.2
		C379.4,52.8,379.5,52.9,379.7,53.1z"/>
	<path class="st0" d="M144.3,44.6c1.8-0.9,3.6-1.6,5.5-2.3C147.9,43,146,43.8,144.3,44.6z"/>
	<path class="st0" d="M377.9,51.4c-0.3-0.2-0.6-0.5-0.8-0.7c-0.5-0.4-0.9-0.8-1.4-1.1c0.5,0.4,0.9,0.7,1.4,1.1
		C377.4,51,377.7,51.2,377.9,51.4z"/>
	<path class="st0" d="M484.7,241.8C484.7,241.8,484.7,241.8,484.7,241.8c0-0.4,0-0.8,0-1.2c0,0,0,0,0,0
		C484.7,241,484.7,241.4,484.7,241.8z"/>
	<path class="st0" d="M383.3,57.1c-0.4-0.5-0.8-1-1.3-1.5c-0.2-0.3-0.5-0.5-0.7-0.7c0.2,0.2,0.5,0.5,0.7,0.7
		C382.5,56.1,382.9,56.6,383.3,57.1z"/>
	<path class="st0" d="M484.6,239.5c0-0.1,0-0.3,0-0.4C484.6,239.2,484.6,239.4,484.6,239.5C484.6,239.5,484.6,239.5,484.6,239.5z"/>
	<path class="st0" d="M353.4,40.3c-1-0.1-2-0.2-2.9-0.3c0,0,0,0,0,0c0,0,0,0,0,0C351.4,40.1,352.4,40.2,353.4,40.3z"/>
	<path class="st0" d="M480.7,223.5c0,0,0,0.1,0.1,0.1c0,0,0,0.1,0,0.1c0,0,0-0.1,0-0.1C480.7,223.5,480.7,223.5,480.7,223.5
		c-0.6-1.3-1.3-2.7-2-4c0-0.1-0.1-0.2-0.1-0.2c0,0.1,0.1,0.2,0.1,0.2C479.4,220.8,480.1,222.1,480.7,223.5z"/>
	<path class="st0" d="M347.4,39.9L347.4,39.9c0.9,0,1.9,0,2.8,0.1C349.3,39.9,348.3,39.9,347.4,39.9z"/>
	<path class="st0" d="M359.1,41.4c-0.6-0.2-1.3-0.3-1.9-0.4c-0.1,0-0.1,0-0.2,0c0.1,0,0.1,0,0.2,0C357.9,41.1,358.5,41.3,359.1,41.4
		z"/>
	<path class="st0" d="M164.6,39.9c-5.1,0-10.1,0.9-14.9,2.5C154.5,40.8,159.5,39.9,164.6,39.9L164.6,39.9z"/>
	<path class="st1" d="M92.8,457.4C92.8,457.4,92.8,457.4,92.8,457.4l0-37v0c0-8.1,6.6-14.7,14.7-14.7h7.6l-0.2-0.4h-7.4h0
		c-4.6,0-8.7,2.1-11.4,5.4c-2.1,2.5-3.4,5.8-3.4,9.4V457.4z"/>
	<path class="st1" d="M484.7,240.7c0,0.4,0,0.8,0,1.2C484.7,241.4,484.7,241,484.7,240.7z"/>
	<path class="st1" d="M404.4,405.6c8.1,0,14.7,6.6,14.7,14.7v0v37.1c0,0,0-0.1,0-0.1V420c0-3.6-1.3-6.8-3.4-9.4
		c-0.3-0.4-0.6-0.7-1-1c-1-1-2.1-1.9-3.4-2.5c-0.4-0.2-0.8-0.4-1.3-0.6c-1.3-0.6-2.7-0.9-4.2-1.1c-0.5-0.1-1-0.1-1.5-0.1h0H397
		l-0.2,0.4H404.4z"/>
	<path class="st1" d="M27.3,240.3c0,0.4,0,0.7,0,1.1c0,0.1,0,0.3,0,0.4c0-0.7,0-1.4,0.1-2C27.4,239.9,27.4,240.1,27.3,240.3z"/>
	<path class="st1" d="M33.5,219.3c-1.4,2.3-2.5,4.8-3.4,7.3c-0.1,0.2-0.2,0.5-0.3,0.7c-0.2,0.6-0.4,1.2-0.6,1.8
		c-0.1,0.3-0.2,0.6-0.3,1c-0.2,0.6-0.3,1.2-0.4,1.8c-0.1,0.3-0.2,0.7-0.2,1c-0.1,0.6-0.2,1.2-0.3,1.8c-0.1,0.3-0.1,0.7-0.2,1
		c-0.1,0.6-0.2,1.2-0.2,1.8c0,0.4-0.1,0.7-0.1,1.1c0,0.4,0,0.7-0.1,1.1c0.2-3.4,0.9-6.7,1.8-10c1-3.4,2.4-6.7,4.2-9.9l91.3-156.5
		c8.2-14.1,23.5-22.8,39.9-22.8h0h182.7h0c16.4,0,31.7,8.7,39.9,22.8l91.3,156.5c3.6,6.2,5.6,13,6.1,19.8c0-0.1,0-0.3,0-0.4
		c-0.1-1.7-0.3-3.5-0.6-5.2c0,0,0,0,0,0c-0.2-0.9-0.3-1.7-0.6-2.6c-0.2-0.8-0.4-1.7-0.7-2.5c0-0.1,0-0.1-0.1-0.2
		c-0.5-1.7-1.1-3.3-1.8-4.9c0,0,0-0.1,0-0.1c0,0,0-0.1-0.1-0.1c-0.6-1.3-1.3-2.7-2-4c0-0.1-0.1-0.2-0.1-0.2l-9.2-15.8L387.2,62.7
		c-0.5-0.9-1-1.7-1.6-2.5c-0.1-0.2-0.3-0.4-0.4-0.5c-0.4-0.6-0.9-1.2-1.3-1.8c-0.2-0.2-0.4-0.5-0.6-0.7c-0.4-0.5-0.8-1-1.3-1.5
		c-0.2-0.3-0.5-0.5-0.7-0.7c-0.4-0.5-0.9-0.9-1.3-1.4c-0.1-0.1-0.3-0.2-0.4-0.4c-0.1-0.1-0.3-0.2-0.4-0.4c-0.4-0.4-0.9-0.8-1.4-1.2
		c-0.3-0.2-0.6-0.5-0.8-0.7c-0.5-0.4-0.9-0.8-1.4-1.1c-0.3-0.2-0.6-0.4-0.9-0.7c-0.5-0.4-1-0.7-1.5-1c-0.3-0.2-0.6-0.4-0.9-0.6
		c-0.5-0.3-1-0.6-1.5-0.9c-0.3-0.2-0.7-0.4-1-0.6c-0.5-0.3-1-0.6-1.6-0.8c-0.3-0.2-0.7-0.3-1-0.5c-0.5-0.3-1.1-0.5-1.6-0.7
		c-0.3-0.1-0.7-0.3-1-0.4c-0.6-0.2-1.1-0.4-1.7-0.6c-0.3-0.1-0.7-0.3-1-0.4c-0.6-0.2-1.2-0.4-1.8-0.5c-0.3-0.1-0.7-0.2-1-0.3
		c-0.6-0.2-1.3-0.3-1.9-0.4c-0.1,0-0.1,0-0.2,0c-0.3-0.1-0.5-0.1-0.8-0.2c-0.7-0.1-1.4-0.2-2.1-0.3c-0.3,0-0.5-0.1-0.8-0.1
		c-1-0.1-2-0.2-2.9-0.3c0,0,0,0,0,0c-0.1,0-0.2,0-0.2,0c-0.9-0.1-1.9-0.1-2.8-0.1h0h0H164.6h0h0c-5.1,0-10.1,0.9-14.9,2.5
		c-1.9,0.6-3.7,1.4-5.5,2.3c-8,3.9-14.9,10.2-19.5,18.1L33.5,219.3z"/>
	<path class="st2" d="M23.7,213.6c-1.6,2.8-3.1,5.9-4.3,9.1l0,0.1c-0.1,0.3-0.2,0.5-0.3,0.8c-0.2,0.7-0.5,1.4-0.7,2.1l0,0.1
		l-0.1,0.2c-0.1,0.3-0.2,0.6-0.3,1c-0.2,0.7-0.4,1.4-0.5,2.2l-0.1,0.3c-0.1,0.3-0.2,0.7-0.2,1c-0.2,0.7-0.3,1.5-0.4,2.2l0,0.2
		c-0.1,0.4-0.1,0.7-0.2,1.1c-0.1,0.7-0.2,1.5-0.3,2.2c-0.1,0.5-0.1,0.9-0.1,1.3c-0.1,0.7-0.1,1.5-0.1,2.2c0,0.4,0,0.9,0,1.3
		c0,0.7,0,1.5,0,2.2c0,0.4,0,0.9,0,1.3c0,0.7,0.1,1.5,0.1,2.2c0,0.4,0.1,0.9,0.1,1.3c0.1,0.7,0.2,1.5,0.3,2.2
		c0.1,0.4,0.1,0.8,0.2,1.3c0.1,0.8,0.3,1.5,0.4,2.3c0.1,0.4,0.2,0.7,0.2,1.1l0.1,0.2c0.2,0.7,0.3,1.5,0.6,2.2c0.1,0.3,0.2,0.7,0.3,1
		l0.1,0.3c0.2,0.8,0.5,1.5,0.7,2.2c0.1,0.3,0.2,0.6,0.4,1l0.1,0.2l0.1,0.2c0.3,0.7,0.5,1.4,0.8,2c0.1,0.3,0.3,0.6,0.4,0.9l0.1,0.2
		l0.1,0.2c0.3,0.7,0.6,1.4,1,2.1c0.1,0.1,0.1,0.3,0.2,0.4c0.4,0.8,0.9,1.7,1.5,2.7l16.9,29.1l56.2,96.4c-9,4.1-15.3,13.2-15.3,23.7
		v37.4c0,14.4,11.7,26,26,26h296.9c14.4,0,26-11.7,26-26V420c0-10.6-6.3-19.7-15.4-23.7l73.2-125.5c0.1-0.1,0.2-0.3,0.3-0.5
		c0.9-1.6,1.7-3.2,2.5-5l0.1-0.1c0.1-0.3,0.2-0.5,0.4-0.8c0.7-1.7,1.4-3.5,2-5.5l0.1-0.2c0.1-0.3,0.2-0.6,0.3-0.9
		c0.5-1.8,1-3.7,1.3-5.6c0-0.3,0.1-0.5,0.1-0.8l0-0.1c0.3-2,0.5-4,0.7-5.9c0-0.2,0-0.4,0-0.6c0.2-4.2-0.1-8.6-0.9-12.8
		c0,0,0-0.1,0-0.1l0,0c-0.4-2.1-0.9-4.2-1.6-6.4l-0.1-0.3c-0.6-2-1.4-4-2.2-5.9c0-0.1-0.1-0.2-0.1-0.3c-0.1-0.1-0.1-0.3-0.2-0.4
		c-0.7-1.6-1.5-3.1-2.2-4.4c-0.1-0.2-0.2-0.4-0.3-0.6l-9.2-15.8L397,57c-0.6-1-1.3-2.1-2-3.1c-0.2-0.2-0.3-0.5-0.5-0.7
		c-0.6-0.8-1.1-1.6-1.7-2.3c-0.2-0.3-0.4-0.5-0.6-0.7l-0.1-0.2c-0.5-0.6-1.1-1.3-1.6-1.9c-0.2-0.3-0.5-0.5-0.7-0.7l-0.2-0.2
		c-0.5-0.6-1.1-1.2-1.6-1.7c-0.3-0.3-0.5-0.5-0.8-0.8l-0.2-0.2c-0.6-0.5-1.1-1-1.7-1.6c-0.3-0.3-0.6-0.5-0.9-0.8l-0.1-0.1
		c-0.6-0.5-1.2-1-1.8-1.4c-0.4-0.3-0.7-0.6-1.1-0.8c-0.6-0.4-1.2-0.9-1.8-1.3c-0.4-0.3-0.8-0.5-1.2-0.8c-0.6-0.4-1.2-0.8-1.9-1.2
		c-0.4-0.2-0.8-0.5-1.2-0.7c-0.6-0.4-1.3-0.7-1.9-1c-0.4-0.2-0.8-0.4-1.3-0.6c-0.7-0.3-1.3-0.6-2-0.9l-0.2-0.1
		c-0.4-0.2-0.7-0.3-1.1-0.5c-0.7-0.3-1.4-0.5-2.1-0.8l-0.2-0.1c-0.4-0.1-0.7-0.3-1.1-0.4c-0.7-0.2-1.5-0.5-2.2-0.7l-0.3-0.1
		c-0.3-0.1-0.7-0.2-1-0.3c-0.8-0.2-1.6-0.4-2.3-0.6l-0.2-0.1c-0.3-0.1-0.7-0.1-1-0.2c-0.9-0.2-1.7-0.3-2.6-0.4l-0.1,0
		c-0.3-0.1-0.6-0.1-0.9-0.1c-1.2-0.2-2.5-0.3-3.7-0.4c0,0-0.1,0-0.1,0c-0.1,0-0.2,0-0.3,0c-1.2-0.1-2.3-0.1-3.3-0.1h0H164.6
		c-20.4,0-39.4,10.9-49.6,28.4L23.7,213.6z M124.8,62.7c4.6-7.9,11.5-14.1,19.5-18.1c1.8-0.9,3.6-1.6,5.5-2.3
		c4.7-1.6,9.7-2.5,14.9-2.5h0h0h0h182.7h0h0h0c0.9,0,1.9,0,2.8,0.1c0.1,0,0.2,0,0.2,0c0,0,0,0,0,0c1,0.1,2,0.2,2.9,0.3
		c0.3,0,0.5,0.1,0.8,0.1c0.7,0.1,1.4,0.2,2.1,0.3c0.3,0.1,0.5,0.1,0.8,0.2c0.1,0,0.1,0,0.2,0c0.6,0.1,1.3,0.3,1.9,0.4
		c0.3,0.1,0.7,0.2,1,0.3c0.6,0.2,1.2,0.3,1.8,0.5c0.4,0.1,0.7,0.2,1,0.4c0.6,0.2,1.1,0.4,1.7,0.6c0.3,0.1,0.7,0.3,1,0.4
		c0.5,0.2,1.1,0.5,1.6,0.7c0.3,0.2,0.7,0.3,1,0.5c0.5,0.3,1,0.5,1.6,0.8c0.3,0.2,0.7,0.4,1,0.6c0.5,0.3,1,0.6,1.5,0.9
		c0.3,0.2,0.6,0.4,0.9,0.6c0.5,0.3,1,0.7,1.5,1c0.3,0.2,0.6,0.4,0.9,0.7c0.5,0.4,0.9,0.7,1.4,1.1c0.3,0.2,0.6,0.5,0.8,0.7
		c0.5,0.4,0.9,0.8,1.4,1.2c0.1,0.1,0.3,0.2,0.4,0.4c0.1,0.1,0.3,0.2,0.4,0.4c0.4,0.4,0.9,0.9,1.3,1.4c0.2,0.2,0.5,0.5,0.7,0.7
		c0.4,0.5,0.9,1,1.3,1.5c0.2,0.2,0.4,0.5,0.6,0.7c0.5,0.6,0.9,1.2,1.3,1.8c0.1,0.2,0.3,0.4,0.4,0.5c0.6,0.8,1.1,1.7,1.6,2.5
		l82.1,140.7l9.2,15.8c0,0.1,0.1,0.2,0.1,0.2c0.7,1.3,1.4,2.6,2,4c0,0,0,0.1,0.1,0.1c0,0,0,0.1,0,0.1c0.7,1.6,1.3,3.2,1.8,4.9
		c0,0.1,0,0.1,0.1,0.2c0.3,0.8,0.5,1.7,0.7,2.5c0.2,0.8,0.4,1.7,0.6,2.6c0,0,0,0,0,0c0.3,1.7,0.5,3.4,0.6,5.2c0,0.1,0,0.3,0,0.4
		c0,0.4,0,0.8,0,1.1c0,0.4,0,0.8,0,1.2c0.1,8.2-1.9,16.4-6.2,23.7L397,405.3h7.4h0c0.5,0,1,0,1.5,0.1c1.5,0.2,2.9,0.5,4.2,1.1
		c0.4,0.2,0.9,0.4,1.3,0.6c1.3,0.7,2.4,1.5,3.4,2.5c0.3,0.3,0.7,0.7,1,1c2.1,2.5,3.4,5.8,3.4,9.4v37.4c0,0,0,0.1,0,0.1v0.3v0
		c0,8.1-6.6,14.7-14.7,14.7H107.6c-8.1,0-14.7-6.6-14.7-14.7v0v-0.3c0,0,0,0,0,0V420c0-3.6,1.3-6.8,3.4-9.4
		c2.7-3.3,6.8-5.4,11.4-5.4h0h7.4L51.1,295.8l-17.7-30.3c-4.3-7.3-6.3-15.5-6.2-23.7c0-0.1,0-0.3,0-0.4c0-0.4,0-0.7,0-1.1
		c0-0.2,0-0.4,0-0.6c0-0.1,0-0.1,0-0.2c0-0.4,0-0.7,0.1-1.1c0-0.4,0.1-0.7,0.1-1.1c0.1-0.6,0.1-1.2,0.2-1.8c0.1-0.3,0.1-0.7,0.2-1
		c0.1-0.6,0.2-1.2,0.3-1.8c0.1-0.3,0.2-0.7,0.2-1c0.1-0.6,0.3-1.2,0.4-1.8c0.1-0.3,0.2-0.6,0.3-0.9c0.2-0.6,0.4-1.2,0.6-1.8
		c0.1-0.2,0.2-0.5,0.3-0.7c0.9-2.5,2-5,3.4-7.3L124.8,62.7z"/>
	<path class="st1" d="M28.5,231.8c-0.1,0.3-0.2,0.7-0.2,1c-0.1,0.6-0.2,1.2-0.3,1.8c0.1-0.6,0.2-1.2,0.3-1.8
		C28.3,232.5,28.4,232.1,28.5,231.8z"/>
	<path class="st1" d="M29.2,229.1c-0.1,0.3-0.2,0.6-0.3,0.9c-0.2,0.6-0.3,1.2-0.4,1.8c0.1-0.6,0.3-1.2,0.4-1.8
		C29,229.7,29.1,229.4,29.2,229.1z"/>
	<path class="st1" d="M92.8,457.4V420c0-3.6,1.3-6.8,3.4-9.4c-2.1,2.5-3.4,5.8-3.4,9.4L92.8,457.4C92.8,457.4,92.8,457.4,92.8,457.4
		L92.8,457.4C92.8,457.4,92.8,457.4,92.8,457.4z"/>
	<path class="st1" d="M387.2,62.7c-0.5-0.9-1-1.7-1.6-2.5c-0.1-0.2-0.3-0.4-0.4-0.5c0.1,0.2,0.3,0.4,0.4,0.5
		C386.2,61,386.7,61.9,387.2,62.7z"/>
	<path class="st1" d="M369.9,45.8c-0.5-0.3-1-0.6-1.6-0.8c-0.3-0.2-0.7-0.3-1-0.5c0.3,0.2,0.7,0.3,1,0.5
		C368.9,45.2,369.4,45.5,369.9,45.8z"/>
	<path class="st1" d="M480.8,223.7c0.7,1.6,1.3,3.2,1.8,4.9C482.1,226.9,481.5,225.3,480.8,223.7z"/>
	<path class="st1" d="M357.1,41c-0.3-0.1-0.5-0.1-0.8-0.2c-0.7-0.1-1.4-0.2-2.1-0.3c0.7,0.1,1.4,0.2,2.1,0.3
		C356.5,40.8,356.8,40.9,357.1,41z"/>
	<path class="st1" d="M30.1,226.5c-0.1,0.2-0.2,0.5-0.3,0.7c-0.2,0.6-0.4,1.2-0.6,1.8c0.2-0.6,0.4-1.2,0.6-1.8
		C29.9,227,30,226.8,30.1,226.5z"/>
	<path class="st1" d="M364.7,43.3c-0.6-0.2-1.1-0.4-1.7-0.6c-0.3-0.1-0.7-0.3-1-0.4c0.4,0.1,0.7,0.2,1,0.4
		C363.5,42.8,364.1,43,364.7,43.3z"/>
	<path class="st1" d="M411.5,407c1.3,0.7,2.4,1.5,3.4,2.5C413.9,408.6,412.7,407.7,411.5,407z"/>
	<path class="st1" d="M405.9,405.3c1.5,0.2,2.9,0.5,4.2,1.1C408.8,405.9,407.4,405.5,405.9,405.3z"/>
	<path class="st1" d="M483.9,233.9C483.9,233.9,483.9,233.9,483.9,233.9c-0.2-0.9-0.3-1.7-0.6-2.6
		C483.6,232.2,483.8,233,483.9,233.9C483.9,233.9,483.9,233.9,483.9,233.9z"/>
	<path class="st1" d="M372.4,47.3c-0.5-0.3-1-0.6-1.5-0.9c-0.3-0.2-0.7-0.4-1-0.6c0.3,0.2,0.7,0.4,1,0.6
		C371.4,46.6,371.9,47,372.4,47.3z"/>
	<path class="st1" d="M367.3,44.4c-0.5-0.3-1.1-0.5-1.6-0.7c-0.3-0.1-0.7-0.3-1-0.4c0.3,0.1,0.7,0.3,1,0.4
		C366.2,43.9,366.8,44.2,367.3,44.4z"/>
	<path class="st1" d="M419.2,457.4c0,0,0,0.1,0,0.1v0C419.2,457.4,419.2,457.4,419.2,457.4l0-37.4c0-3.6-1.3-6.8-3.4-9.4
		c2.1,2.5,3.4,5.8,3.4,9.4V457.4z"/>
	<path class="st1" d="M483.4,231.3c-0.2-0.8-0.4-1.7-0.7-2.5c0-0.1,0-0.1-0.1-0.2c0,0.1,0,0.1,0.1,0.2
		C482.9,229.6,483.2,230.5,483.4,231.3z"/>
	<path class="st1" d="M385.3,59.6c-0.4-0.6-0.9-1.2-1.3-1.8c-0.2-0.2-0.4-0.5-0.6-0.7c0.2,0.2,0.4,0.5,0.6,0.7
		C384.4,58.4,384.8,59,385.3,59.6z"/>
	<path class="st1" d="M381.4,54.8c-0.4-0.5-0.9-0.9-1.3-1.4c-0.1-0.1-0.3-0.2-0.4-0.4c0.1,0.1,0.3,0.2,0.4,0.4
		C380.5,53.9,380.9,54.3,381.4,54.8z"/>
	<path class="st2" d="M113.7,182.3c25-11.9,52.8-20.7,82.5-25.6c7.5-6.2,16.5-10.5,26.6-12.4c13.6-2.5,28,0.7,39.8,7.9
		c41.9,1.2,81.4,9.9,116.1,24.5c0.1-0.4,0.2-0.8,0.3-1.3c0.1,0.6,0.2,1.1,0.3,1.6c7.5,3.2,14.8,6.6,21.9,10.3l-56.6-97.7H327
		l-5.4,13.1l-5.1,12.5c-2.5,6.1-8.4,10.1-15,10.1h-91.3c-5.6,0-10.8-2.9-13.7-7.6c-0.2-0.3-0.3-0.6-0.5-0.8
		c-0.2-0.4-0.4-0.7-0.6-1.1c-0.1-0.2-0.2-0.4-0.3-0.6l-10.4-25.7h-17.4L113.7,182.3z M339.2,102.9c1.2,0,2.2,1,2.2,2.2
		c0,1.2-1,2.2-2.2,2.2c-1.2,0-2.2-1-2.2-2.2C337,103.9,338,102.9,339.2,102.9z M337.4,123.6c2.2,11,4,12.8,15,15
		c-11,2.2-12.8,4-15,15c-2.2-11-4-12.8-15-15C333.4,136.4,335.2,134.6,337.4,123.6z M263.5,132.2c1.2,0,2.2,1,2.2,2.2
		c0,1.2-1,2.2-2.2,2.2c-1.2,0-2.2-1-2.2-2.2C261.3,133.2,262.3,132.2,263.5,132.2z M155.4,156.5c-1.2,0-2.2-1-2.2-2.2
		c0-1.2,1-2.2,2.2-2.2c1.2,0,2.2,1,2.2,2.2C157.6,155.5,156.6,156.5,155.4,156.5z M172.9,112.8c1.1,5.8,2.1,6.7,7.8,7.8
		c-5.7,1.2-6.7,2.1-7.8,7.8c-1.1-5.8-2.1-6.7-7.8-7.8C170.9,119.5,171.8,118.5,172.9,112.8z"/>
	<polygon class="st1" points="167.3,89.6 184.8,89.6 184.8,89.6 167.3,89.6 113.7,182.3 113.7,182.3 	"/>
	<polygon class="st1" points="401.2,187.3 401.2,187.3 344.7,89.6 327,89.6 327,89.6 344.7,89.6 	"/>
	<path class="st1" d="M301.6,125.4h-91.3c-5.6,0-10.8-2.9-13.7-7.6c2.9,4.6,8.1,7.6,13.7,7.6L301.6,125.4c6.6,0,12.5-4,15-10.1
		l5.1-12.5l-5.1,12.5C314.1,121.4,308.2,125.4,301.6,125.4z"/>
	<path class="st1" d="M196.1,117c-0.2-0.4-0.4-0.7-0.6-1.1C195.7,116.2,195.9,116.6,196.1,117z"/>
	<g>
		<path class="st3" d="M180.3,237.3c-0.2,0.2-0.5,0.3-0.7,0.5c0.2,0.6,0.4,1.2,0.7,1.8c0.5-0.1,1-0.2,1.4-0.3
			c-0.2-0.3-0.4-0.5-0.5-0.8C180.9,238.1,180.6,237.7,180.3,237.3z"/>
		<path class="st3" d="M411.5,211.9c-1.5-1-2.7-2.3-3.6-4c-1.4-2.9-1.3-6.1,0.1-8.8l0,0l-6.9-11.8c0,0,0,0,0,0
			c-7.1-3.7-14.4-7.2-21.9-10.3c1,4.4,2.3,5.2,7.5,6.3c-5.7,1.2-6.7,2.1-7.8,7.8c-1.1-5.8-2.1-6.7-7.8-7.8c5.3-1.1,6.5-1.9,7.6-6.5
			c-34.8-14.6-74.2-23.3-116.1-24.5c3,1.9,5.8,4,8.4,6.3c0.4,0.4,1.1,0.8,1.5,0.7c3.2-0.9,3.2-0.9,5.3,1.8c1,1.2,1.7,2.6,3.7,2.5
			c1.2-0.1,1.9,1.2,1.2,2.2c-0.8,1.3-0.2,2.1,0.4,3c14.7,21.8,31.3,47,48.1,72.5c15.1,3.6,29.5,8.3,43.3,13.8
			c0.4-0.1,0.8-0.2,1.2-0.2c1.8,0,3.3,1,4.2,2.4c4.4,1.9,8.8,3.9,13,5.9c0.7-0.6,1.6-1.2,2.5-1.7c0.4-0.2,0.8-0.4,1.2-0.5
			c0.1-1.8,0.6-3.5,1.5-5c-0.3-0.3-0.5-0.5-0.8-0.8c-3.3-4-2.6-9.8,1.5-13c-1-0.7-1.8-1.6-2.5-2.7c-3.3-5.1-1.8-11.8,3.3-15.1
			c2.2-1.4,4.7-1.9,7.2-1.6C406,218.5,407.9,214.2,411.5,211.9z M309.7,167c-2.7,0-4.9-2.2-4.9-4.9c0-2.7,2.2-4.9,4.9-4.9
			s4.9,2.2,4.9,4.9C314.6,164.7,312.4,167,309.7,167z M327.7,208.9c-1,0-1.8-0.8-1.8-1.8c0-1,0.8-1.8,1.8-1.8c1,0,1.8,0.8,1.8,1.8
			C329.5,208.1,328.7,208.9,327.7,208.9z M348,177.4c1.2,0,2.2,1,2.2,2.2c0,1.2-1,2.2-2.2,2.2c-1.2,0-2.2-1-2.2-2.2
			C345.8,178.4,346.8,177.4,348,177.4z M355.5,235.8c-1.6-8.1-2.9-9.4-11-11c8.1-1.6,9.4-2.9,11-11c1.6,8.1,2.9,9.4,11,11
			C358.4,226.4,357.1,227.7,355.5,235.8z"/>
		<path class="st3" d="M286.5,224.4c-1.2,3.1-2.5,6.1-4.1,8.8c13.2,1.1,26.1,3,38.7,5.6c-10.4-15-20.8-29.9-31.2-44.9
			C291.3,204.3,290.3,214.4,286.5,224.4z"/>
		<path class="st3" d="M113.7,182.3l-27.8,48c0.2,0.1,0.5,0.1,0.7,0.2c3.6,1.3,6.2,4.2,7.2,7.5c4.6,2.4,6.8,7.8,5,12.6
			c-0.7,1.9-2,3.5-3.6,4.7c1.1,0.8,1.9,1.8,2.6,2.8c1.2,0.3,2.3,0.7,3.3,1.3c1.4,0.1,2.8,0.4,4.1,1.1c0.1,0,0.1,0.1,0.2,0.1
			c0,0,0.1,0,0.1,0c1.7,0.8,3,2.1,3.8,3.6c19.3-9.6,40.4-17.3,62.7-22.7c-0.6-1.8-1-3.6-0.3-5.6c0.2-0.4-0.2-1.1-0.4-1.6
			c-2.6-5.5-3.9-11.3-4.5-17.3c1.2-0.5,2-0.6,3.1-0.3c-0.1-0.9-0.2-1.8-0.3-2.7c1-0.4,1.8-0.6,2.7-0.4c-0.2-1.8-0.4-3.6-0.4-5.4
			c-0.9-16.9,5.6-32.7,16.7-44.2c2.3-2.7,4.8-5.2,7.5-7.4C166.5,161.6,138.7,170.4,113.7,182.3L113.7,182.3z M145.6,182.6
			c1.6,8.1,2.9,9.4,11,11c-8.1,1.6-9.4,2.9-11,11c-1.6-8.1-2.9-9.4-11-11C142.7,192,144,190.7,145.6,182.6z M119.3,229.8
			c3,0,5.5,2.4,5.5,5.5c0,3-2.4,5.5-5.5,5.5s-5.5-2.4-5.5-5.5C113.9,232.3,116.3,229.8,119.3,229.8z"/>
	</g>
	<g>
		<path class="st4" d="M393,263.1c-4.3-2.1-8.6-4-13-5.9c0.4,0.7,0.7,1.6,0.7,2.5c0,2.7-2.2,4.9-4.9,4.9c-2.7,0-4.9-2.2-4.9-4.9
			c0-2.3,1.6-4.2,3.7-4.8c-13.8-5.5-28.2-10.2-43.3-13.8c10.3,15.6,20.6,31.3,30.6,46.5c0.9-0.9,2-1.7,3.2-2.4
			c3.4-1.8,7.4-1.8,10.7-0.4c0.5-3.7,2.8-7.1,6.5-9c2.2-1.1,4.6-1.5,7-1.3C388.2,270.5,389.7,266,393,263.1z"/>
		<path class="st4" d="M267.8,276.8c6.2,11.5,12.4,23,18.6,34.6c0.2-0.1,0.3-0.1,0.5-0.2c-9.4-17.1-18.8-34.3-28.2-51.4
			C261.7,265.5,264.7,271.1,267.8,276.8z"/>
		<path class="st4" d="M240.3,264.6c-23.3,4.1-45.6-5.5-58.6-25.3c-0.5,0.1-1,0.2-1.4,0.3c7.4,20.7,14.8,41.4,22.2,62.2
			c1.2,0.2,2.4,0.5,3.4,1.1c4.7,0.7,8.8,4.2,9.8,9c0.1,0.3,0.1,0.6,0.1,1c4.2,0.8,7,4.6,6.5,8.8c0.7,1.6,1.2,3.4,1.2,5.4
			c0,0.2,0,0.4,0,0.6c3.8,1.6,6.6,5.2,6.9,9.3c0.3,0.3,0.6,0.7,0.9,1.1c0,0,0,0,0,0c1.9,0,3.7,0.7,5.1,1.8c2-2.2,4.9-3.6,8.1-3.7
			c0.9-1.3,2.1-2.4,3.5-3.3c5.8-3.6,13.5-1.9,17.2,3.7c0.1,0.2,0.3,0.5,0.4,0.7c3.2-1.4,6.7-1.5,9.9-0.4c0.3-0.4,0.5-0.8,0.9-1.1
			c0.4-1.6,1.3-3,2.4-4.2c-11.9-21.9-23.8-43.7-35.7-65.6C242.3,264.8,241.7,264.4,240.3,264.6z M219.5,283.1c-1,0-1.8-0.8-1.8-1.8
			c0-1,0.8-1.8,1.8-1.8c1,0,1.8,0.8,1.8,1.8C221.3,282.3,220.5,283.1,219.5,283.1z M252.2,315.3c-8.2,1.6-9.6,3-11.2,11.2
			c-1.6-8.2-3-9.6-11.2-11.2c8.2-1.6,9.6-3,11.2-11.2C242.6,312.4,244,313.7,252.2,315.3z"/>
		<path class="st4" d="M172.1,241.5c-22.3,5.5-43.4,13.2-62.7,22.7c0.5,0.9,0.9,1.8,1,2.8c1,0.3,1.9,0.7,2.8,1.2
			c3.1-5.2,9.7-7.7,15.8-5.7c3.4,1.1,6,3.5,7.5,6.4c2.4-0.8,5.1-0.8,7.7,0c1.3,0.4,2.5,1.1,3.5,1.9c0.9-0.2,1.8-0.3,2.8-0.3
			c6.3,0.1,11.3,5,11.5,11c1.7-0.3,3.6-0.2,5.4,0.4c1.3,0.4,2.4,1.1,3.3,1.9c0.7,0.3,1.3,0.6,2,1c2.3-1.1,4.9-1.7,7.5-1.5
			c2.3-0.9,4.9-1.1,7.4-0.5c-5-13.3-10-26.6-15-40C172.4,242.5,172.2,242,172.1,241.5z M161,259.8c-1.2,0-2.2-1-2.2-2.2
			c0-1.2,1-2.2,2.2-2.2c1.2,0,2.2,1,2.2,2.2C163.1,258.8,162.2,259.8,161,259.8z"/>
		<path class="st4" d="M321.1,238.9c-12.5-2.6-25.5-4.5-38.7-5.6c-2.5,4.3-5.4,8.2-8.8,11.8c-3.6,4.2-7.8,7.9-12.5,11.2
			c3.2,5.9,6.3,11.8,9.4,17.6c6.5,12.1,13,24.2,19.5,36.3c0.1,0,0.3-0.1,0.4-0.1c0-3.4,1.4-6.7,4.3-9c2.8-2.3,6.3-3.2,9.7-2.7
			c0.4-2.5,1.6-4.9,3.7-6.7c3.8-3.1,9.1-3.3,13.1-0.8c0.3-0.4,0.6-0.8,1-1.2c4.2-4.1,11-4.2,15.2-0.1c1.3,1.2,2.1,2.7,2.6,4.3
			c5-1.7,10.7-0.1,13.8,4.4c0.1,0.2,0.2,0.4,0.4,0.5c1.4-0.7,2.8-1.2,4.3-1.4c-0.2-1.4,0-2.8,0.3-4.1
			C346.3,275.1,333.7,257,321.1,238.9z M296,260c-1.1-5.8-2.1-6.7-7.8-7.8c5.7-1.1,6.7-2.1,7.8-7.8c1.1,5.8,2.1,6.7,7.8,7.8
			C298.1,253.3,297.1,254.3,296,260z M324.5,273.7c-1.2,0-2.2-1-2.2-2.2c0-1.2,1-2.2,2.2-2.2s2.2,1,2.2,2.2
			C326.7,272.7,325.7,273.7,324.5,273.7z"/>
		<path class="st4" d="M267.8,303.6c3.5,6.8,7,13.5,10.5,20.3c0-0.3,0-0.6,0-0.9C274.8,316.5,271.3,310,267.8,303.6z"/>
		<path class="st4" d="M250.4,261.7c0,0.1,0.1,0.2,0.1,0.2c9.7,18.7,19.3,37.4,29,56.2c0.9-1.9,2.2-3.6,3.9-5
			c-9.7-17.7-19.4-35.3-29.1-53C253.1,260.7,251.7,261.2,250.4,261.7z"/>
	</g>
	<g>
		<path d="M181.7,240.4c-0.4,0-0.7-0.2-0.9-0.5c-0.1-0.1-0.1-0.2-0.2-0.3c-0.1-0.2-0.2-0.3-0.3-0.5c-0.1-0.1-0.2-0.2-0.2-0.4
			c-0.1,0.1-0.3,0.1-0.4,0.1c-0.1,0-0.2,0-0.3,0c-0.3-0.1-0.6-0.3-0.7-0.7l-0.3-0.9c-0.2-0.4,0-0.9,0.4-1.2l3.8-2.7
			c0.2-0.1,0.4-0.2,0.6-0.2c0.1,0,0.1,0,0.2,0c0.3,0.1,0.5,0.2,0.7,0.5c0,0,0.6,1,0.8,1.3c0.6,1,1.3,2,2,2.9c0.2,0.3,0.3,0.7,0.1,1
			c-0.1,0.3-0.4,0.6-0.8,0.6c-1.3,0.3-2.6,0.5-3.9,0.8l-0.3,0.1C181.8,240.4,181.8,240.4,181.7,240.4z"/>
		<path d="M183.1,234.3c0.3,0.4,0.6,0.9,0.8,1.3c0.6,1,1.3,2,2,2.9c-1.4,0.3-2.8,0.6-4.2,0.9c-0.2-0.3-0.4-0.5-0.5-0.8
			c-0.3-0.4-0.6-0.9-0.8-1.3c-0.2,0.2-0.5,0.3-0.7,0.5c-0.1-0.3-0.2-0.6-0.3-0.9C180.6,236,181.8,235.1,183.1,234.3 M183.1,232.2
			c-0.4,0-0.9,0.1-1.2,0.4l-2.2,1.5l-1.6,1.1c-0.8,0.5-1.1,1.5-0.8,2.4l0.2,0.5l0.1,0.3c0.2,0.6,0.7,1.1,1.4,1.3
			c0.2,0.1,0.4,0.1,0.5,0.1c0.1,0.1,0.1,0.2,0.2,0.3c0.1,0.1,0.1,0.2,0.2,0.3c0.4,0.6,1.1,1,1.8,1c0.1,0,0.3,0,0.4,0l0.4-0.1
			c1.3-0.3,2.5-0.5,3.8-0.8c0.7-0.1,1.3-0.6,1.6-1.3c0.3-0.7,0.2-1.4-0.3-2c-0.6-0.9-1.3-1.8-1.9-2.8c-0.2-0.3-0.4-0.6-0.6-0.9
			l-0.3-0.4c-0.3-0.5-0.8-0.8-1.4-0.9C183.3,232.2,183.2,232.2,183.1,232.2L183.1,232.2z"/>
	</g>
	<g>
		<path d="M325.9,241c-0.1,0-0.2,0-0.2,0c-1.6-0.4-3.2-0.7-4.8-1c-0.3-0.1-0.5-0.2-0.7-0.4L289,194.7c-0.1-0.1-0.2-0.3-0.2-0.5
			c-0.4-3.2-1.1-6.5-2-9.8c-0.1-0.5,0.1-1,0.6-1.2c0.1-0.1,0.3-0.1,0.5-0.1c0.3,0,0.7,0.2,0.9,0.5c12.5,18,26.3,38.3,38.2,55.8
			c0.2,0.4,0.2,0.8,0,1.2C326.6,240.8,326.3,241,325.9,241z"/>
		<path d="M287.8,184.1c11.7,16.9,24.8,36,38.2,55.8c-1.6-0.4-3.2-0.7-4.9-1c-10.4-15-20.8-29.9-31.2-44.9
			C289.4,190.8,288.7,187.4,287.8,184.1 M287.8,182c-0.3,0-0.6,0.1-0.9,0.2c-0.9,0.4-1.4,1.5-1.1,2.5c0.9,3.2,1.6,6.5,2,9.7
			c0,0.3,0.2,0.6,0.4,0.9l26,37.3l5.2,7.5c0.3,0.4,0.8,0.8,1.3,0.9c1.4,0.3,3.1,0.6,4.8,1c0.2,0,0.3,0.1,0.5,0.1
			c0.7,0,1.3-0.3,1.7-0.9c0.5-0.7,0.5-1.7,0-2.4c-11.9-17.6-25.7-37.9-38.2-55.8C289.1,182.3,288.5,182,287.8,182L287.8,182z"/>
	</g>
	<g>
		<path d="M175.5,216.1c-0.2,0-0.4,0-0.5-0.1c-1.4-0.8-2.2-1.2-2.9-1.3c-0.5-0.1-0.8-0.5-0.8-0.9c-0.2-1.7-0.4-3.6-0.4-5.4
			c-0.8-16.6,5.4-33,17-45c0.2-0.2,0.5-0.3,0.8-0.3c0.3,0,0.5,0.1,0.7,0.3c0.4,0.4,0.5,1,0.1,1.5c-9.6,11.3-14.5,25.7-13.7,40.4
			c0.1,2.2,0.3,4.5,0.6,6.7c0.1,1,0.2,2.1,0.3,3.1c0,0.4-0.1,0.8-0.5,1C175.9,216.1,175.7,216.1,175.5,216.1z"/>
		<path d="M188.6,164.1L188.6,164.1 M188.6,164.1c-9.4,11.1-14.8,25.7-14,41.2c0.2,3.3,0.6,6.5,0.9,9.8c-1.4-0.8-2.4-1.2-3.2-1.4
			c-0.2-1.8-0.4-3.6-0.4-5.4C171,191.4,177.5,175.5,188.6,164.1 M188.6,162C188.6,162,188.6,162,188.6,162
			C188.6,162,188.6,162,188.6,162C188.6,162,188.6,162,188.6,162c-0.3,0-0.6,0.1-0.9,0.2c-0.2,0.1-0.4,0.3-0.6,0.4c0,0,0,0,0,0
			c-11.9,12.2-18.2,28.9-17.3,45.8c0.1,1.9,0.3,3.7,0.5,5.5c0.1,0.9,0.8,1.7,1.7,1.9c0.5,0.1,1.3,0.5,2.6,1.2c0.3,0.2,0.7,0.3,1,0.3
			c0.4,0,0.8-0.1,1.2-0.3c0.7-0.4,1-1.2,1-2c-0.1-1-0.2-2.1-0.3-3.1c-0.2-2.2-0.5-4.4-0.6-6.6c-0.7-14.5,4-28.5,13.5-39.6
			c0.3-0.4,0.5-0.9,0.5-1.4C190.7,162.9,189.8,162,188.6,162L188.6,162C188.6,162,188.6,162,188.6,162L188.6,162z M188.6,166.2
			L188.6,166.2L188.6,166.2L188.6,166.2z"/>
	</g>
	<g>
		<path d="M172.1,242.6c-0.4,0-0.8-0.3-1-0.7c-0.7-1.9-1.1-4-0.3-6.2c0-0.2-0.2-0.5-0.3-0.7l-0.1-0.2c-2.4-5-3.9-10.8-4.6-17.7
			c-0.1-0.5,0.2-0.9,0.7-1.1c0.9-0.4,1.6-0.5,2.3-0.5c0.5,0,0.9,0.1,1.4,0.2c0.4,0.1,0.7,0.5,0.8,0.9c0.8,5.4,2.1,10.1,4.1,14.3
			l0.1,0.2c0.3,0.6,0.7,1.4,0.4,2.2c-0.8,2-0.1,4,0.7,6l0.4,1c0.1,0.3,0.1,0.6-0.1,0.9c-0.1,0.3-0.4,0.5-0.7,0.5
			c-1.2,0.3-2.4,0.6-3.5,0.8C172.3,242.6,172.2,242.6,172.1,242.6z"/>
		<path d="M168.8,216.6c0.4,0,0.7,0.1,1.1,0.2c0.7,5,2,9.9,4.2,14.6c0.2,0.5,0.6,1.2,0.4,1.6c-1,2.5,0,4.8,0.8,7
			c0.1,0.3,0.2,0.5,0.3,0.8c-1.2,0.3-2.4,0.6-3.5,0.8c-0.6-1.8-1-3.6-0.3-5.6c0.2-0.4-0.2-1.1-0.4-1.6c-2.6-5.5-3.9-11.3-4.5-17.3
			C167.6,216.8,168.2,216.6,168.8,216.6 M168.8,214.5c-1.1,0-2,0.3-2.7,0.6c-0.9,0.4-1.4,1.2-1.3,2.2c0.7,7,2.3,12.9,4.7,18l0.1,0.2
			c0,0.1,0.1,0.1,0.1,0.2c-0.8,2.4-0.2,4.7,0.4,6.6c0.3,0.9,1.1,1.4,2,1.4c0.2,0,0.3,0,0.5-0.1c1.2-0.3,2.3-0.6,3.5-0.8
			c0.6-0.1,1.1-0.5,1.4-1.1c0.3-0.5,0.3-1.2,0.1-1.7l-0.2-0.4l-0.1-0.4l-0.1-0.2c-0.7-1.9-1.3-3.6-0.7-5.3c0.5-1.2-0.1-2.4-0.4-3.1
			l-0.1-0.2c-1.9-4.1-3.2-8.6-4-14c-0.1-0.8-0.7-1.5-1.5-1.7C169.9,214.6,169.4,214.5,168.8,214.5L168.8,214.5z"/>
	</g>
	<g>
		<path d="M196.9,303.6c-0.2,0-0.3,0-0.5-0.1c-0.3-0.1-0.5-0.4-0.5-0.7c-0.3-1.1-0.8-2.1-1.4-3.1c-0.2-0.3-0.2-0.7-0.1-1.1
			c0.4-0.9,0.8-1.9,0.9-2.9c0.1-0.5,0.5-0.8,0.9-0.9c0,0,0.1,0,0.1,0c0.4,0,0.8,0.3,1,0.7l2.3,6.1c0.1,0.3,0.1,0.6-0.1,0.9
			c-0.1,0.3-0.4,0.5-0.7,0.5c-0.6,0.1-1.1,0.3-1.6,0.5C197.1,303.5,197,303.6,196.9,303.6z"/>
		<path d="M196.3,295.9c0.8,2,1.5,4,2.3,6.1c-0.6,0.1-1.2,0.3-1.7,0.5c-0.3-1.2-0.9-2.4-1.6-3.4C195.8,298.1,196.1,297,196.3,295.9
			 M196.3,293.8c-0.1,0-0.1,0-0.2,0c-1,0.1-1.7,0.8-1.9,1.8c-0.1,0.9-0.4,1.8-0.8,2.6c-0.3,0.7-0.3,1.5,0.2,2.1
			c0.6,0.8,1,1.7,1.3,2.7c0.2,0.6,0.6,1.1,1.1,1.3c0.3,0.1,0.6,0.2,0.9,0.2c0.3,0,0.5,0,0.8-0.1c0.4-0.2,0.9-0.3,1.4-0.4
			c0.6-0.1,1.1-0.5,1.4-1.1c0.3-0.5,0.3-1.2,0.1-1.7l-2.2-5.8l-0.1-0.2C198,294.4,197.2,293.8,196.3,293.8L196.3,293.8z"/>
	</g>
	<g>
		<path d="M283.5,314.2c-0.1,0-0.1,0-0.2,0c-0.3-0.1-0.6-0.3-0.7-0.5l-28.6-52.2l-3.1,1.2c-0.1,0.1-0.3,0.1-0.4,0.1
			c-0.4,0-0.8-0.2-0.9-0.6l-0.8-1.6c-0.1-0.3-0.2-0.6-0.1-0.9c0.1-0.3,0.3-0.5,0.6-0.6l7.5-3c0.1-0.1,0.3-0.1,0.4-0.1
			c0.4,0,0.7,0.2,0.9,0.5l1.4,2.6l27.7,51.6c0.1,0.3,0.2,0.5,0.1,0.8c-0.1,0.3-0.3,0.5-0.5,0.6c-0.4,0.2-0.8,0.4-1.2,0.7
			c-0.4,0.3-0.9,0.6-1.4,1C284,314.1,283.7,314.2,283.5,314.2z"/>
		<path d="M257.2,257.1c0.5,0.9,0.9,1.7,1.4,2.6c3.1,5.7,6.1,11.4,9.2,17.1c6.2,11.5,12.4,23,18.6,34.6c-0.4,0.2-0.9,0.5-1.3,0.7
			c-0.5,0.3-1,0.7-1.5,1.1c-9.7-17.7-19.4-35.3-29.1-53c-1.3,0.5-2.7,1.1-4,1.6c-0.3-0.5-0.5-1-0.8-1.6
			C252.2,259.1,254.6,258.1,257.2,257.1 M257.2,255c-0.3,0-0.5,0-0.8,0.2l-6.2,2.5l-1.3,0.5c-0.6,0.2-1,0.7-1.2,1.2
			s-0.2,1.2,0.1,1.7l0.4,0.8l0.4,0.8c0.4,0.7,1.1,1.1,1.9,1.1c0.3,0,0.5,0,0.8-0.2l2.2-0.9l13.5,24.5l14.7,26.8
			c0.3,0.5,0.8,0.9,1.4,1.1c0.1,0,0.3,0,0.4,0c0.5,0,1-0.2,1.3-0.5c0.5-0.4,0.9-0.7,1.3-0.9c0.4-0.2,0.7-0.4,1.1-0.6
			c0.5-0.3,0.9-0.7,1.1-1.3c0.2-0.5,0.1-1.1-0.2-1.6l-6.2-11.6l-12.3-22.9l-5.7-10.5l-3.5-6.6l-0.6-1.1l-0.9-1.6
			C258.6,255.4,257.9,255,257.2,255L257.2,255z"/>
	</g>
	<g>
		<path d="M261.1,257.3c-0.1,0-0.2,0-0.3,0c-0.3-0.1-0.5-0.3-0.7-0.5l-0.5-0.9c-0.3-0.5-0.1-1.1,0.4-1.4c4.8-2.9,9.1-6.2,12.8-10
			c0.2-0.2,0.5-0.3,0.8-0.3c0.3,0,0.5,0.1,0.7,0.3c0.4,0.4,0.5,1,0.1,1.5c-3.6,4.2-7.9,8.1-12.7,11.4
			C261.5,257.2,261.3,257.3,261.1,257.3z"/>
		<path d="M273.6,245L273.6,245 M273.6,245c-3.6,4.2-7.8,7.9-12.5,11.2c-0.2-0.3-0.3-0.6-0.5-0.9C265.5,252.3,269.8,248.9,273.6,245
			 M273.6,242.9C273.6,242.9,273.6,242.9,273.6,242.9c-0.3,0-0.6,0.1-0.9,0.2c-0.2,0.1-0.4,0.2-0.6,0.4c0,0,0,0,0,0c0,0,0,0,0,0
			c0,0,0,0,0,0c-3.6,3.7-7.9,7.1-12.6,9.9c-1,0.6-1.3,1.8-0.8,2.8l0.3,0.6l0.2,0.4c0.3,0.5,0.8,0.9,1.4,1.1c0.2,0,0.3,0.1,0.5,0.1
			c0.4,0,0.8-0.1,1.2-0.4c4.9-3.3,9.3-7.2,12.9-11.5c0.3-0.4,0.5-0.9,0.5-1.4C275.7,243.9,274.8,242.9,273.6,242.9
			C273.6,242.9,273.6,242.9,273.6,242.9L273.6,242.9z M273.6,247.2L273.6,247.2L273.6,247.2L273.6,247.2z"/>
	</g>
	<g>
		<path d="M358.9,294.2c-0.3,0-0.7-0.2-0.9-0.5l-37.8-54.3c-0.2-0.4-0.3-0.8,0-1.2c0.2-0.3,0.5-0.5,0.9-0.5c0.1,0,0.1,0,0.2,0
			c1.6,0.3,3.3,0.7,4.9,1c0.3,0.1,0.5,0.2,0.6,0.4c4.7,6.9,9.4,13.8,14.1,20.8c6.7,9.9,13.4,19.8,20,29.5c0.2,0.3,0.2,0.8,0.1,1.1
			c-0.4,0.8-0.8,1.7-1,2.6c-0.1,0.4-0.4,0.7-0.8,0.8C359,294.2,358.9,294.2,358.9,294.2z"/>
		<path d="M321.1,238.9c1.6,0.3,3.2,0.7,4.9,1c11.3,16.7,22.8,33.8,34,50.4c-0.5,0.9-0.9,1.9-1.1,2.9
			C346.3,275.1,333.7,257,321.1,238.9 M321.1,236.8c-0.7,0-1.4,0.3-1.8,1c-0.5,0.7-0.5,1.7,0,2.4l35.8,51.4l2,2.8
			c0.4,0.6,1.1,0.9,1.7,0.9c0.1,0,0.3,0,0.4,0c0.8-0.2,1.5-0.8,1.7-1.6c0.2-0.9,0.5-1.7,0.9-2.4c0.4-0.7,0.3-1.5-0.1-2.2
			c-6.6-9.7-13.3-19.6-20-29.6c-4.7-7-9.4-13.9-14-20.8c-0.3-0.4-0.8-0.8-1.3-0.9c-1.7-0.4-3.4-0.7-4.9-1
			C321.4,236.8,321.2,236.8,321.1,236.8L321.1,236.8z"/>
	</g>
	<g>
		<path d="M278.5,332.6c-0.3,0-0.6-0.2-0.8-0.5l-6.3-11.5c-9.8-18-19.6-36.1-29.4-54.1c-0.5-0.8-0.6-0.8-1-0.8c-0.2,0-0.3,0-0.5,0.1
			c-3.6,0.6-7.2,1-10.8,1c-19.9,0-37.7-9.7-48.9-26.7c-0.2-0.3-0.2-0.7-0.1-1c0.1-0.3,0.4-0.6,0.8-0.6l0.3-0.1
			c1.3-0.3,2.6-0.6,3.9-0.8c0.1,0,0.1,0,0.2,0c0.3,0,0.7,0.2,0.9,0.4c10.8,15,27.5,23.7,45.7,23.7c3.4,0,7-0.3,10.4-0.9
			c0.3-0.1,0.6-0.1,0.9-0.1c1.5,0,2.3,0.9,2.8,1.9c4.9,9,9.8,18,14.7,27l7.4,13.6l10.5,20.3c0.1,0.2,0.1,0.3,0.1,0.5
			c0,2.1,0.4,4.3,1.4,6.2c0.2,0.5,0.1,1-0.3,1.3c-0.4,0.3-0.7,0.6-1,0.9c-0.2,0.2-0.5,0.3-0.8,0.3
			C278.6,332.6,278.5,332.6,278.5,332.6z"/>
		<path d="M185.9,238.5c11.1,15.4,28,24.1,46.5,24.1c3.5,0,7-0.3,10.6-0.9c0.3,0,0.5-0.1,0.7-0.1c0.9,0,1.4,0.4,1.9,1.4
			c7.4,13.5,14.7,27.1,22.1,40.6c3.5,6.8,7,13.5,10.5,20.3c0,2.3,0.4,4.6,1.5,6.7c-0.4,0.3-0.8,0.7-1.2,1
			c-11.9-21.9-23.8-43.7-35.7-65.6c-0.5-1-1-1.4-1.9-1.4c-0.2,0-0.5,0-0.7,0.1c-3.6,0.6-7.1,0.9-10.6,0.9c-19.3,0-37-9.5-48-26.2
			C183.1,239,184.5,238.7,185.9,238.5 M185.9,236.4c-0.1,0-0.3,0-0.4,0c-1.3,0.3-2.6,0.5-3.9,0.8l-0.4,0.1c-0.7,0.1-1.3,0.6-1.5,1.3
			c-0.3,0.6-0.2,1.4,0.2,2c11.4,17.3,29.5,27.2,49.8,27.2c3.6,0,7.3-0.3,11-1c0.1,0,0.2,0,0.2,0c0,0.1,0.1,0.2,0.2,0.3
			c9.7,17.9,19.4,35.8,29.2,53.6l6.5,12c0.3,0.6,0.9,1,1.6,1.1c0.1,0,0.2,0,0.3,0c0.6,0,1.1-0.2,1.5-0.7c0.3-0.3,0.6-0.6,0.9-0.8
			c0.8-0.6,1.1-1.7,0.6-2.6c-0.9-1.7-1.3-3.7-1.3-5.7c0-0.4-0.1-0.7-0.2-1l-3.2-6.1c-2.4-4.7-4.9-9.4-7.3-14.1l-7.5-13.8
			c-4.9-9-9.8-17.9-14.6-26.9c-0.4-0.7-1.4-2.5-3.7-2.5c-0.3,0-0.7,0-1.1,0.1c-3.4,0.6-6.8,0.9-10.2,0.9c-17.9,0-34.2-8.5-44.8-23.2
			C187.2,236.7,186.6,236.4,185.9,236.4L185.9,236.4z"/>
	</g>
	<g>
		<path d="M192.3,286.4c-0.2,0-0.5-0.1-0.7-0.2c-0.7-0.6-1.5-1.1-2.3-1.5c-0.6-0.3-1.3-0.6-2.1-0.7c-0.3-0.1-0.6-0.3-0.7-0.7
			l-5.9-15.7c-3-8.1-6.1-16.2-9.1-24.2c-0.2-0.5-0.3-0.9-0.5-1.4c-0.1-0.3-0.1-0.6,0.1-0.9c0.1-0.3,0.4-0.5,0.7-0.5
			c1.2-0.3,2.4-0.6,3.6-0.8c0.1,0,0.2,0,0.2,0c0.4,0,0.8,0.3,1,0.7c3.5,9.2,6.9,18.5,10.4,27.7l6.3,17c0.2,0.5,0,1-0.4,1.2
			C192.8,286.4,192.6,286.4,192.3,286.4z"/>
		<path d="M175.6,240.7c5.6,14.9,11.1,29.8,16.7,44.7c-0.8-0.6-1.6-1.2-2.5-1.6c-0.7-0.4-1.5-0.6-2.3-0.8c-5-13.3-10-26.6-15-40
			c-0.2-0.5-0.3-0.9-0.5-1.4C173.3,241.3,174.4,241,175.6,240.7 M175.6,238.6c-0.2,0-0.3,0-0.5,0.1c-1.2,0.3-2.4,0.6-3.6,0.9
			c-0.6,0.1-1.1,0.5-1.4,1s-0.3,1.1-0.1,1.7c0.2,0.5,0.3,1,0.5,1.4c3,8.1,6,16.2,9.1,24.2c2,5.2,3.9,10.5,5.9,15.7
			c0.2,0.6,0.8,1.1,1.5,1.3c0.7,0.2,1.3,0.4,1.9,0.7c0.7,0.3,1.4,0.8,2.1,1.4c0.4,0.3,0.9,0.5,1.4,0.5c0.4,0,0.9-0.1,1.2-0.4
			c0.8-0.6,1.1-1.6,0.8-2.5l-6.3-16.8c-3.5-9.3-7-18.6-10.4-27.9C177.3,239.1,176.5,238.6,175.6,238.6L175.6,238.6z"/>
	</g>
	<g>
		<path d="M216.2,360.4c-0.4,0-0.8-0.3-1-0.7c-9.5-25.5-19.1-51-28.6-76.5c-0.1-0.4-0.1-0.8,0.2-1.1c0.2-0.2,0.5-0.4,0.8-0.4
			c0.1,0,0.2,0,0.3,0c0.9,0.2,1.7,0.5,2.5,0.9c1,0.5,1.9,1.1,2.8,1.8c0.1,0.1,0.2,0.3,0.3,0.4l4,10.6c0.1,0.2,0.1,0.4,0.1,0.5
			c-0.2,1-0.5,2-0.9,2.9c0.4,0.7,0.8,1.4,1,2.1c0.3-0.1,0.5-0.1,0.8-0.2c0.1,0,0.2,0,0.2,0c0.4,0,0.8,0.3,1,0.7l2.1,5.7l18.2,51
			c0.1,0.3,0.1,0.6-0.1,0.9s-0.4,0.5-0.7,0.5l-0.6,0.2c-0.7,0.2-1.4,0.3-2.1,0.5C216.4,360.4,216.3,360.4,216.2,360.4z"/>
		<path d="M187.5,282.9c0.8,0.2,1.5,0.5,2.3,0.8c0.9,0.4,1.8,1,2.5,1.6c1.3,3.5,2.6,7.1,4,10.6c-0.2,1.1-0.5,2.2-1,3.2
			c0.7,1,1.2,2.1,1.6,3.4c0.6-0.2,1.1-0.4,1.7-0.5c0.7,1.9,1.4,3.8,2.1,5.7c6.1,17,12.1,34,18.2,51c-0.9,0.2-1.8,0.5-2.7,0.7
			C206.6,333.9,197.1,308.4,187.5,282.9 M187.5,280.8c-0.6,0-1.2,0.3-1.6,0.7c-0.5,0.6-0.7,1.4-0.4,2.2c9.5,25.5,19.1,51,28.6,76.5
			c0.3,0.8,1.1,1.4,2,1.4c0.2,0,0.4,0,0.6-0.1c0.7-0.2,1.4-0.4,2-0.5l0.6-0.2c0.6-0.1,1.1-0.5,1.3-1.1c0.3-0.5,0.3-1.1,0.1-1.7
			l-18.2-51l-1.1-3l-1-2.7c-0.3-0.8-1.1-1.4-2-1.4c-0.1,0-0.3,0-0.4,0c-0.2-0.3-0.3-0.7-0.5-1c0.3-0.9,0.6-1.8,0.7-2.7
			c0.1-0.4,0-0.7-0.1-1.1l-1.4-3.7l-2.6-6.9c-0.1-0.3-0.3-0.6-0.6-0.9c-0.9-0.8-1.9-1.4-3-1.9c-0.8-0.4-1.7-0.7-2.7-1
			C187.9,280.8,187.7,280.8,187.5,280.8L187.5,280.8z"/>
	</g>
	<g>
		<path d="M380.2,324.9c-0.3,0-0.7-0.2-0.9-0.5L358,293.8c-0.2-0.2-0.2-0.6-0.2-0.9c0.3-1.1,0.7-2.2,1.2-3.1
			c0.2-0.3,0.5-0.5,0.9-0.5c0,0,0,0,0,0c0.3,0,0.7,0.2,0.9,0.5c8.2,12.1,15.2,22.4,21.3,31.3c0.1,0.2,0.2,0.4,0.2,0.6v0.1
			c0,0.2,0,0.4-0.1,0.5l-1.1,2.1C380.9,324.6,380.6,324.8,380.2,324.9C380.2,324.9,380.2,324.9,380.2,324.9z"/>
		<path d="M360,290.3c7.3,10.8,14.5,21.3,21.3,31.3c0,0,0,0.1,0,0.1c-0.3,0.6-0.7,1.3-1.1,2.1c-7.1-10.2-14.2-20.4-21.3-30.6
			C359.1,292.2,359.5,291.2,360,290.3 M360,288.2C359.9,288.2,359.9,288.2,360,288.2c-0.8,0-1.5,0.5-1.9,1.1c-0.6,1-1,2.2-1.3,3.4
			c-0.1,0.6,0,1.2,0.3,1.7l16.2,23.2l5.2,7.4c0.4,0.6,1,0.9,1.7,0.9c0,0,0.1,0,0.1,0c0.7,0,1.4-0.5,1.7-1.1l0.6-1l0.6-1
			c0.2-0.3,0.3-0.7,0.3-1v-0.1c0-0.4-0.1-0.8-0.4-1.2c-6.1-8.9-13.1-19.2-21.3-31.3C361.3,288.5,360.7,288.2,360,288.2L360,288.2z"
			/>
	</g>
	<g>
		<path d="M316.4,368.3c-0.1,0-0.3,0-0.4-0.1c-1.4-0.6-2.8-1.2-4.2-1.8c-0.2-0.1-0.4-0.3-0.5-0.5l-28.7-52.3c-0.2-0.4-0.1-1,0.3-1.3
			c0.6-0.5,1.1-0.8,1.6-1.2c0.4-0.3,0.9-0.5,1.4-0.8c0.1-0.1,0.3-0.1,0.5-0.1c0.4,0,0.7,0.2,0.9,0.6c10,18.6,20,37.3,30.1,55.9
			c0.2,0.4,0.2,0.9-0.2,1.2C317,368.2,316.7,368.3,316.4,368.3z"/>
		<path d="M286.3,311.4c10,18.7,20,37.3,30.1,55.9c-1.4-0.6-2.8-1.2-4.2-1.8c-9.6-17.4-19.1-34.9-28.7-52.3c0.5-0.4,1-0.7,1.5-1.1
			C285.4,311.8,285.9,311.6,286.3,311.4 M286.3,309.2c-0.3,0-0.6,0.1-0.9,0.2c-0.5,0.3-1,0.5-1.5,0.8c-0.5,0.3-1.1,0.7-1.7,1.2
			c-0.8,0.6-1,1.8-0.5,2.7l28.7,52.3c0.2,0.4,0.6,0.7,1,0.9c1.4,0.6,2.8,1.2,4.1,1.8c0.3,0.1,0.6,0.2,0.9,0.2c0.6,0,1.1-0.2,1.5-0.7
			c0.6-0.7,0.7-1.6,0.3-2.4c-9.7-18-19.5-36.3-30.1-55.9C287.8,309.6,287.1,309.2,286.3,309.2L286.3,309.2z"/>
	</g>
	<g>
		<path d="M297,361.1c-0.1,0-0.2,0-0.3,0c-1.1-0.3-2.2-0.6-3.4-0.9c-0.3-0.1-0.5-0.3-0.7-0.5l-15-27.5c-0.2-0.4-0.2-0.9,0.2-1.2
			c0.2-0.2,0.4-0.4,0.6-0.6c-0.9-2-1.3-4.2-1.3-6.4c0-0.5,0.3-0.9,0.8-1c0.1,0,0.2,0,0.2,0c0.4,0,0.8,0.2,0.9,0.6
			c6.2,12.1,12.5,24.1,18.7,36.2c0.2,0.4,0.1,0.8-0.1,1.2C297.6,361,297.3,361.1,297,361.1z"/>
		<path d="M278.2,323.8c6.2,12.1,12.5,24.1,18.7,36.2c-1.1-0.3-2.3-0.6-3.4-1c-5-9.2-10-18.3-15-27.5c0.4-0.4,0.7-0.7,1.2-1
			C278.7,328.4,278.2,326.1,278.2,323.8 M278.2,321.7c-0.2,0-0.3,0-0.5,0.1c-0.9,0.2-1.6,1-1.6,2c0,2.1,0.3,4.2,1.1,6.2
			c0,0-0.1,0.1-0.1,0.1c-0.6,0.7-0.8,1.7-0.3,2.5c2.4,4.3,4.7,8.7,7.1,13c2.6,4.8,5.3,9.7,7.9,14.5c0.3,0.5,0.8,0.9,1.3,1
			c1.1,0.3,2.2,0.6,3.3,0.9c0.2,0.1,0.4,0.1,0.6,0.1c0.6,0,1.2-0.3,1.6-0.8c0.5-0.7,0.6-1.6,0.2-2.3c-6.3-12.1-12.5-24.1-18.7-36.2
			C279.7,322.1,279,321.7,278.2,321.7L278.2,321.7z"/>
	</g>
	<g>
		<path d="M216.2,360.5c-0.4,0-0.8-0.3-1-0.7c0,0,0,0,0,0c-0.1-0.3-0.1-0.6,0-0.9c0.1-0.3,0.4-0.5,0.6-0.6c0.7-0.2,1.4-0.4,2.1-0.6
			l0.6-0.2c0.1,0,0.2,0,0.3,0c0.4,0,0.8,0.3,1,0.7c0,0,0,0.1,0,0.1c0.1,0.3,0.1,0.6-0.1,0.8c-0.1,0.3-0.4,0.4-0.7,0.5l-0.4,0.1
			c-0.7,0.2-1.5,0.4-2.2,0.6C216.4,360.5,216.3,360.5,216.2,360.5z"/>
		<path d="M218.9,358.7C218.9,358.7,218.9,358.7,218.9,358.7c-0.9,0.3-1.8,0.5-2.7,0.8c0,0,0-0.1,0-0.1
			C217.1,359.1,218,358.9,218.9,358.7 M218.8,356.6c-0.2,0-0.3,0-0.5,0.1l-0.6,0.2c-0.7,0.2-1.4,0.4-2.1,0.6
			c-0.6,0.2-1.1,0.5-1.3,1.1c-0.3,0.5-0.3,1.1-0.1,1.7c0.3,0.9,1.2,1.4,2,1.4c0.2,0,0.4,0,0.5-0.1c0.7-0.2,1.5-0.4,2.2-0.6l0.4-0.1
			c0.6-0.1,1.1-0.5,1.3-1.1c0.3-0.5,0.3-1.1,0.1-1.7C220.6,357.2,219.7,356.6,218.8,356.6L218.8,356.6z"/>
	</g>
	<path class="st5" d="M225.8,151.9c-3.7,0.5-7.2,1.2-10.6,2.2c4.1-0.4,8.2-0.8,12.4-1.1c2-0.5,4-0.9,6-1.2c0.2,0,0.5,0,0.7-0.1
		C231.5,151.5,228.7,151.5,225.8,151.9z"/>
	<path class="st5" d="M208.8,196.6c-1.2-2.8-1.2-2.8,1.2-4.8c0.1-0.1,0.2,0,0.4,0c1.7,4.5,3.4,9.1,5.1,13.7c3.4-2,6.6-3.9,10-6
		c0.2,0.4,0.5,0.8,0.7,1.3c1.1-0.5,2.1-1.1,3.1-1.6c-0.2-0.4-0.5-0.8-0.7-1.3c0.7-0.3,1.3-0.7,2-1c-0.3-0.6-0.7-1.2-1-1.8
		c0,0-0.1,0.1-0.1,0.1c-0.8,0.4-1.5,0.9-2.3,1.3c0,0.2,0.1,0.3,0.1,0.4c0.1,0.4-0.2,1.1-0.5,1.2c-2.9,1.7-5.8,3.3-8.9,5
		c-1.9-4.6-3.9-9.3-5.9-14.2c-9.2,4.8-17.3,10.7-24.2,18c-2.3,2.6-4.4,5.4-6.3,8.4c-0.2,0.4-0.4,0.9-0.4,1.3
		c0.7,4.7,2.3,9.1,5.1,12.7c6.3-5.5,12.6-10.9,18.9-16.4c-1.8-2.7-3.7-5.5-5.7-8.3c1-0.8,1.9-1.6,2.9-2.4c1.5,3.2,2.9,6.3,4.3,9.4
		c0.5-0.4,1-0.9,1.5-1.3c-1.9-2.8-3.9-5.7-5.9-8.7c1-0.8,1.9-1.6,2.9-2.4c1.6,3.5,3.1,6.9,4.7,10.3c0.2-0.1,0.3-0.2,0.5-0.4
		c-1.4-3.3-2.8-6.5-4.2-9.6c-1.2-2.8-1.2-2.8,1.2-4.8c0.1-0.1,0.2,0,0.4,0c1.6,4.2,3.2,8.5,4.8,12.8c0.3-0.2,0.6-0.4,0.9-0.6
		C211.8,203.4,210.3,200,208.8,196.6z"/>
	<path class="st5" d="M216.1,163.1c4.5,0.5,6.6,3.7,5,8c-1,2.8-2.6,5.4-4,8.1c-0.4,0.7-0.9,1.4-1.3,2c1.8,0,3.4-0.1,5.1,0
		c0.8,0,1.7,0.2,2.2,0.6c1,0.8,1.8,1.7,2.6,2.6c-0.1-0.4-0.2-0.9-0.3-1.3c-0.3-1,0-1.6,0.9-2.1c0.6-0.4,1.2-0.7,1.8-1.1
		c-0.2-0.9,0.1-1.4,0.9-2c1.5-0.9,2.9-1.7,4.5-2.4c-3.2,0.7-6.3,2.3-9.4,3.8c-0.3-1-0.6-2-0.8-2.9c-0.5-1.5-0.2-2.8,0.8-4.2
		c2.5-3.4,2.4-8-3.4-9.1c-1.5-0.3-3.1-0.2-4.6-0.2c-1.1,0-1.9-0.4-1.5-1.6c0.6-1.5,1.3-3,3-3.6c0.6-1.4,1.4-2.7,3.1-3.1
		c2.3-0.6,4.6-1.2,6.9-1.8c-4.2,0.3-8.3,0.7-12.4,1.1c-9.3,2.7-17.1,7.5-23.6,14.1c-3.3,3.8-6.1,8.2-8.6,13.1
		c-2.3,4.6-3.5,9.5-3.5,14.5c2.1-7.9,5.6-15.1,10.9-21.7c0,0.2,0,0.5,0,0.7c0.9-1.3,1.8-2.5,2.8-3.7c-0.4,7.1-0.3,14,1.8,20.8
		c2.9-1.7,5.8-3.4,8.7-5c0.1-1.1,0.9-2,1.9-2.8c0.3-0.3,0.7-0.5,1-0.8c0.2-0.6,0.6-1.1,1.1-1.6c1.6-3.8,2-7.7,0.2-11.7
		c-0.4-1-1-1.9-1.8-3.3c1.5-0.1,2.9-0.3,4.2-0.4c-0.4-0.7-0.9-1.5-1.5-2.6C211.5,163.4,213.9,162.9,216.1,163.1z"/>
	<path class="st5" d="M268.3,232.3c1.8-3.6,2.9-7.5,3.5-11.5c-1.7,3-3.7,5.9-6,8.6c-0.7,0.8-1.4,1.5-2.2,2.3
		c-0.1,0.2-0.2,0.3-0.4,0.5C264.9,232.2,266.6,232.3,268.3,232.3z"/>
	<path class="st5" d="M268.3,232.3c-1.7-0.1-3.4-0.1-5-0.2c-0.1,0.1-0.1,0.2-0.2,0.3c-3,3.5-6.4,6.4-10.2,9c0.5,0.8,1,1.7,1.5,2.7
		c-1.3,0.4-2.5,0.7-3.6,1c0,0,0,0,0,0c0,0,0,0,0,0c0.3,0.6,0.7,1.3,1,1.9c1.2-0.4,2.3-1,3.4-1.5c-0.3-0.5-0.5-1-0.8-1.5
		c4.1-1.5,7.6-3.6,10.6-6.5c0.5-0.7,1-1.3,1.5-2.1C267.1,234.5,267.7,233.4,268.3,232.3z"/>
	<path class="st5" d="M255.6,254.3C255.6,254.3,255.6,254.3,255.6,254.3c-0.1-0.2-0.2-0.3-0.3-0.5
		C255.4,254,255.5,254.2,255.6,254.3z"/>
	<path class="st5" d="M225.8,151.9c2.9-0.3,5.7-0.4,8.5-0.2c4.8-0.5,9.7-0.4,14.2-0.6c0.2,0.1,0,0-0.3-0.1
		c-6.4-2.2-12.9-2.9-19.6-2.1c-7.5,0.9-14.2,2.9-20.2,6c2.3-0.3,4.6-0.6,6.9-0.8C218.6,153.1,222.1,152.3,225.8,151.9z"/>
	<path class="st5" d="M179.6,195.7c0,2.6,0.3,5.1,0.9,7.8c0.8-10.6,4.1-20.2,10-28.7c0-0.2,0-0.5,0-0.7
		C185.2,180.6,181.6,187.9,179.6,195.7z"/>
	<path class="st5" d="M207.3,194.8c-2.5,1.9-2.5,1.9-1.2,4.8c1.4,3.2,2.8,6.3,4.2,9.6c0.8-0.6,1.5-1.1,2.2-1.6
		c-1.6-4.3-3.2-8.6-4.8-12.8C207.5,194.8,207.4,194.8,207.3,194.8z"/>
	<path class="st5" d="M203.7,186.8c1-0.6,1.9-1.1,2.9-1.7c-0.2-0.7-0.2-1.4,0-2c-0.3,0.3-0.7,0.6-1,0.8
		C204.6,184.8,203.9,185.7,203.7,186.8z"/>
	<path class="st5" d="M208,169.9c1.8,3.9,1.3,7.9-0.2,11.7c0.2-0.2,0.4-0.4,0.7-0.6c0.7-0.6,1.6-1.2,1.9-1.9c1.7-4,2.3-8,0.4-12.1
		c-0.1-0.2-0.2-0.5-0.3-0.7c-1.3,0.1-2.7,0.3-4.2,0.4C206.9,168,207.5,168.9,208,169.9z"/>
	<path class="st5" d="M211.9,189.1c2,4.8,4,9.6,5.9,14.2c3-1.7,6-3.3,8.9-5c0.3-0.2,0.6-0.8,0.5-1.2c0-0.2-0.1-0.3-0.1-0.4
		c-2.1,1.2-4.3,2.4-6.6,3.7c-1.9-4.6-3.9-9.3-5.9-14.2c-10.5,5.5-19.5,12.3-26.9,21C194.6,199.8,202.7,193.9,211.9,189.1z"/>
	<path class="st5" d="M199.4,204.7c1.9,2.9,3.9,5.7,5.7,8.3c0.5-0.4,1-0.9,1.5-1.3c-1.4-3.1-2.8-6.2-4.3-9.4
		C201.2,203.1,200.4,203.8,199.4,204.7z"/>
	<path class="st5" d="M214.7,161.4c-0.5,1.2,0.4,1.6,1.5,1.6c1.5,0,3.1,0,4.6,0.2c5.7,1.1,5.9,5.7,3.4,9.1c-1,1.3-1.3,2.6-0.8,4.2
		c0.3,0.9,0.5,1.9,0.8,2.9c3.1-1.5,6.1-3.1,9.4-3.8c2.7-1.2,5.4-2.2,8.3-2.7c0.5-0.1,1-0.2,1.5-0.3c-6.1-1.4-11.2,1.3-16.4,3.9
		c-0.3-1-0.6-2-0.8-2.9c-0.5-1.5-0.2-2.8,0.8-4.2c2.5-3.4,2.4-8-3.4-9.1c-1.5-0.3-3.1-0.2-4.6-0.2c-1.1,0-1.9-0.4-1.5-1.6
		c0.1-0.2,0.1-0.4,0.2-0.6C216.1,158.4,215.3,159.9,214.7,161.4z"/>
	<path class="st5" d="M225.4,183.2c0.1,0.4,0.2,0.9,0.3,1.3c2.3,2.7,3.7,5.8,4.2,9.5c0,0.3-0.1,0.9-0.4,1.1c0.3,0.6,0.7,1.2,1,1.8
		c1.2-0.6,2.3-1.2,3.4-1.7c-1.3-2.5-2.7-4.8-3.7-7.3c-1-2.5-1.4-5.2-2.1-7.7c0-0.1,0-0.1,0-0.1c-0.6,0.3-1.2,0.7-1.8,1.1
		C225.5,181.6,225.2,182.2,225.4,183.2z"/>
	<path class="st5" d="M263.6,231.7c-0.1,0.2-0.3,0.3-0.4,0.5c0,0,0,0,0.1,0C263.4,232,263.5,231.8,263.6,231.7z"/>
	<path class="st5" d="M269.3,232.4c3.4-5.4,5.1-11.4,5.6-17.8c-0.9,2.1-2,4.2-3.1,6.2c-0.6,4-1.7,7.9-3.5,11.5
		C268.6,232.4,269,232.4,269.3,232.4z"/>
	<path class="st5" d="M215.2,154c-2.3,0.3-4.6,0.5-6.9,0.8c-6.4,3.3-11.9,7.7-16.7,13.3C198.2,161.5,206,156.8,215.2,154z"/>
	<path class="st5" d="M243.4,232.1c1.4,0,2.8-0.1,4.2-0.1c-6.1-11-12.2-21.9-18.3-32.8c-1,0.5-2,1-3.1,1.6
		C232,211.2,237.7,221.7,243.4,232.1z"/>
	<path class="st5" d="M266.4,235.6c-0.5,0.7-1,1.4-1.5,2.1c1.6-1.5,3-3.2,4.2-5.1c0-0.1,0.1-0.1,0.1-0.2c-0.3,0-0.7,0-1-0.1
		C267.7,233.4,267.1,234.5,266.4,235.6z"/>
	<path class="st5" d="M255.3,253.8c0.1,0.2,0.2,0.3,0.3,0.5c1.2-0.7,2.3-1.2,3.4-1.8c-1.3-2.3-2.5-4.6-3.8-6.9
		c-1.1,0.6-2.2,1.1-3.4,1.5C252.9,249.3,254.1,251.5,255.3,253.8z"/>
	<path class="st5" d="M249.1,242.4c1.1-0.6,2.1-1.2,3.2-1.9c0.2,0.3,0.3,0.6,0.5,0.9c3.8-2.6,7.2-5.6,10.2-9
		c0.1-0.1,0.1-0.2,0.2-0.3c0,0,0,0-0.1,0c-3.2,3.2-6.8,6-10.8,8.4c-1.6-2.9-3.2-5.7-4.7-8.5c-1.4,0-2.8,0-4.2,0.1
		C245.3,235.5,247.2,239,249.1,242.4z"/>
	<path class="st5" d="M208.4,234.8c1.5-0.2,2.9-0.4,4.4-0.5c0.9-0.2,1.8-0.4,2.7-0.7c0.7-0.2,1.4-0.5,2-0.9c0,0,0,0,0,0
		c1.2-2.8,1.7-5.6,1.3-8.7c-0.5-4.1-3.4-4.6-6.2-3.7c-2.5,0.9-4.9,2.1-7.3,3.4c-0.3,0.2-0.6,0.4-0.9,0.6c-0.6,1-1.1,2.2-1.3,3.5
		C202.2,232.4,202.2,234.2,208.4,234.8z"/>
	<path class="st5" d="M209.6,234.9c0.8-0.2,2-0.4,3.3-0.6c-1.5,0.2-2.9,0.4-4.4,0.5C208.8,234.8,209.2,234.9,209.6,234.9z"/>
	<path class="st5" d="M212.6,220.3c2.8-1,5.7-0.5,6.2,3.7c0.4,3.1,0,5.9-1.3,8.7c0,0,0,0,0,0c1.2-0.7,2.1-1.7,2.7-3
		c1.2-2.8,1.7-5.6,1.3-8.7c-0.5-4.1-3.4-4.6-6.2-3.7c-2.5,0.9-4.9,2.1-7.3,3.4c-1.6,0.9-2.8,2.1-3.6,3.6c0.3-0.2,0.6-0.4,0.9-0.6
		C207.7,222.4,210.1,221.2,212.6,220.3z"/>
	<path class="st5" d="M249.6,243.6c0.3,0.5,0.6,1.1,0.9,1.6c0.1,0,0.1,0,0.2,0c0,0,0,0,0,0l0,0c0,0,0,0,0,0c-0.3-0.5-0.7-1.1-1-1.7
		C249.7,243.5,249.6,243.5,249.6,243.6c-0.2-0.4-0.4-0.7-0.6-1.1c-1.2,0.5-2.3,1.1-3.4,1.6c0.3,0.5,0.5,0.9,0.7,1.4
		C247.5,244.8,248.5,244.2,249.6,243.6z"/>
	<path class="st5" d="M246.3,245.5c-0.5,0.2-1,0.5-1.6,0.7c0.6-0.1,1.2-0.2,1.8-0.3C246.5,245.8,246.4,245.7,246.3,245.5z"/>
	<path class="st5" d="M249.7,243.5c-0.2-0.3-0.4-0.6-0.6-1c0,0,0,0,0,0C249.2,242.9,249.4,243.2,249.7,243.5
		C249.6,243.5,249.7,243.5,249.7,243.5z"/>
	<path class="st5" d="M246.3,245.5C246.3,245.5,246.3,245.5,246.3,245.5c-0.2-0.5-0.5-0.9-0.7-1.4c-1.8,0.8-3.5,1.6-5.2,2.4
		c0,0.2,0.1,0.3,0.1,0.5c1.4-0.2,2.8-0.5,4.3-0.7C245.3,246,245.8,245.8,246.3,245.5C246.3,245.5,246.3,245.5,246.3,245.5z"/>
	<path class="st5" d="M246.4,245.5C246.4,245.5,246.4,245.5,246.4,245.5C246.4,245.5,246.4,245.5,246.4,245.5
		c0.1,0.2,0.1,0.3,0.2,0.5c1.3-0.2,2.6-0.5,3.9-0.7c-0.3-0.6-0.6-1.1-0.9-1.6C248.5,244.2,247.5,244.8,246.4,245.5z"/>
	<path class="st5" d="M246.4,245.5C246.3,245.5,246.3,245.5,246.4,245.5C246.3,245.5,246.3,245.5,246.4,245.5
		C246.4,245.5,246.4,245.5,246.4,245.5C246.4,245.5,246.4,245.5,246.4,245.5z"/>
	<path class="st5" d="M256.3,186.2c8.1-1.3,16.2-2.7,24.1-4C272.1,180.8,263.8,181.4,256.3,186.2z"/>
	<g>
		<path d="M478.5,265.5c4.3-7.3,6.3-15.5,6.2-23.7c0,0,0,0,0,0c0-0.4,0-0.8,0-1.2c0,0,0,0,0,0c0-0.1,0-0.2,0-0.3c0-0.2,0-0.4,0-0.6
			c0-0.1,0-0.2,0-0.3c0,0,0,0,0,0c-0.5-6.9-2.5-13.7-6.1-19.8L387.2,63.1c-8.2-14.1-23.5-22.8-39.9-22.8h0H164.6h0
			c-16.4,0-31.6,8.7-39.9,22.8L33.5,219.7c-1.8,3.1-3.2,6.5-4.2,9.9c-0.5,1.6-0.9,3.3-1.2,5c0,0.1,0,0.2,0,0.3
			c-0.1,0.8-0.3,1.5-0.3,2.3c0,0.2,0,0.5-0.1,0.7c-0.1,0.6-0.1,1.2-0.2,1.8c0,0,0,0,0,0c0,0,0,0,0,0.1c0,0,0,0,0,0.1
			c0,0.7-0.1,1.4-0.1,2c0,0,0,0,0,0.1c0,0.4,0,0.9,0,1.3c0,0.4,0,0.7,0,1.1c0,0.2,0,0.5,0,0.7c0,0.1,0,0.3,0,0.4
			c0.1,0.9,0.1,1.7,0.2,2.6c0,0.1,0,0.2,0,0.3c0.1,0.9,0.2,1.9,0.4,2.8c0,0,0,0.1,0,0.1c0.9,5,2.7,9.9,5.4,14.4l17.7,30.3L115,405.3
			l0.2,0.4h-7.6c-8.1,0-14.7,6.6-14.7,14.7v0v37v0v0.3v0c0,8.1,6.6,14.7,14.7,14.7h296.9c8.1,0,14.7-6.6,14.7-14.7v0v-0.3v0v-37.1v0
			c0-8.1-6.6-14.7-14.7-14.7h-7.6l0.2-0.4L478.5,265.5z M391.2,429.5v3.2c0,4.8-1.7,8.2-4.9,10l6.3,20.7h-7.3l-5.5-19.2h-3.2v19.2
			h-6.9v-23.7v-0.1V439v0V418h6.5h0.3h3.1c3.6,0,6.3,0.9,8.3,2.7c0,0,0,0,0,0C390.1,422.7,391.2,425.6,391.2,429.5z M404.5,435.5
			c2.7,0,4.9,2.2,4.9,4.9c0,2.7-2.2,4.9-4.9,4.9s-4.9-2.2-4.9-4.9C399.6,437.7,401.8,435.5,404.5,435.5z M112.7,440.5
			c0,2.7-2.2,4.9-4.9,4.9c-2.7,0-4.9-2.2-4.9-4.9c0-2.7,2.2-4.9,4.9-4.9C110.5,435.5,112.7,437.7,112.7,440.5z M313.3,424.5V418
			h21.6v6.5h-7.3v0.7v19.7v0v0v18.6h-6.9v-18.6v0v0v-19.7v-0.7H313.3z M362.1,442.8v9.8c0,7.1-4.2,11.5-11.1,11.5
			c-6.9,0-11.1-4.4-11.1-11.5v-7.7v0v0v-16c0-1.3,0.1-2.6,0.4-3.7c1.2-4.9,5.1-7.8,10.7-7.8c4,0,7.1,1.5,9,4.1
			c1.4,1.9,2.1,4.4,2.1,7.4v13.6v0V442.8L362.1,442.8z M308.9,428.2v4.1l-6.6,0.3v-3.7c0-1.7-0.3-3-0.9-3.8c-0.7-1-1.7-1.4-3-1.4
			c-1.4,0-2.4,0.5-3.1,1.4c-0.5,0.8-0.8,1.8-0.8,3.2v16.6v0v0v8.2c0,3,1.4,4.6,3.9,4.6c2.5,0,3.9-1.6,3.9-5.3v-5.1l6.6,0.3v5.5
			c0,6.9-4,10.9-10.7,10.9c-6.7,0-10.6-4-10.6-10.9v-8.3v0v0v-16.6c0-1.1,0.1-2.1,0.3-3.1c1-5,4.7-7.8,10.3-7.8
			c5.7,0,9.4,2.8,10.4,7.8C308.7,426.1,308.9,427.1,308.9,428.2z M280.8,424.3h-12.5v0.8v12.1h10.1v6.4h-10.1v1.3v0v0v12.2h12.5v6.4
			h-19.4v-18.6v0v0v-19.7V418h19.4V424.3z M254.8,429.5v3.6c0,7.5-4,11.5-11.4,11.5h-3.1v0.2v0v0v18.6h-6.9v-18.6v0v0v-19.7V418h9.9
			c5.8,0,9.5,2.5,10.9,7.2C254.6,426.4,254.8,427.9,254.8,429.5z M227,427.7v1.3l-6.6,0.6v-1.4c0-1.3-0.2-2.4-0.7-3.1
			c-0.6-1-1.5-1.4-2.9-1.4c-1.3,0-2.3,0.5-2.9,1.4c-0.3,0.6-0.5,1.3-0.5,2.3v1c0,2.5,1.3,4.6,5.8,8.7c3.2,3,5.3,5.4,6.6,7.8
			c0,0,0,0,0,0c0,0,0,0,0,0c1.1,2.2,1.6,4.3,1.6,6.8v2.2c0,6.7-4.2,10.2-10.5,10.2c-6.4,0-10.7-3.7-10.7-10.4v-3l6.6-0.6v3.1
			c0,3.1,1.4,4.5,3.9,4.5c2.1,0,3.8-1.1,3.8-4.4v-1.4c0-2.4-0.9-4.2-3.8-7.1c0,0,0,0,0,0c0,0,0,0,0,0c-0.6-0.6-1.2-1.2-2-1.9
			c-6.1-5.7-8.2-9.4-8.2-14.3v-1.1c0-0.8,0.1-1.6,0.2-2.4c0.8-5.1,4.5-7.8,10.1-7.8c5.5,0,9.1,2.8,10,7.8
			C226.9,425.9,227,426.8,227,427.7z M200,428.8v16v0v0v7.7c0,7.1-4.2,11.5-11.1,11.5c-6.9,0-11.1-4.4-11.1-11.5v-7.7v0v0v-16
			c0-1.3,0.1-2.6,0.4-3.7c1.2-4.9,5.1-7.8,10.7-7.8c5.6,0,9.4,2.9,10.7,7.8C199.8,426.3,200,427.5,200,428.8z M170.5,429.5v3.2
			c0,4.8-1.7,8.2-4.9,10l0.6,2.1l0,0l0,0l5.6,18.6h-7.3l-5.4-18.9l0,0l0-0.1l0,0l0-0.1h-0.9H158h-0.8h-0.1H156v19.2h-6.9v-21.3v0
			v-0.4v-0.1v-22.2V418h9.9c5.8,0,9.5,2.5,10.9,7.2C170.3,426.4,170.5,427.9,170.5,429.5z M121.7,418h0.7h0h9.3
			c0.9,0,1.7,0.1,2.5,0.2c0.1,0,0.2,0,0.3,0c5.6,0.9,8.6,4.8,8.6,11.3v3.6c0,2-0.3,3.7-0.9,5.2c0,0,0,0.1-0.1,0.1
			c-0.1,0.2-0.1,0.3-0.2,0.5c0,0,0,0,0,0c-1.7,3.7-5.2,5.7-10.3,5.7h-3.1v18.8h-6.9V418z M165.3,60h181.4c9.3,0,17.9,4.9,22.5,13
			l90.6,156.5c4.7,8.1,4.7,18,0,26.1l-86.9,150h-5.8h-0.3h-31.1c-0.4,0-0.8,0-1.3,0c-21,0-116.4,0-156.9,0c-0.4,0-0.9,0-1.3,0h-32.1
			h-0.3H139l-86.9-150c-4.7-8.1-4.7-18,0-26.1L142.8,73C147.4,65,156,60,165.3,60z"/>
		<path d="M200.7,307.7c6.1,17,12.1,34,18.2,51c0,0,0,0,0,0.1c0.3-0.1,0.6-0.1,0.8-0.2c0,0,0,0,0-0.1
			C213.4,341.5,207,324.6,200.7,307.7z"/>
		<path d="M286.3,311.4c10,18.7,20,37.3,30.1,55.9c0.5,0.2,1.1,0.5,1.6,0.7c-10.4-19-20.8-37.9-31.2-56.9
			C286.6,311.2,286.5,311.3,286.3,311.4z"/>
		<path d="M279.6,318.1c7.5,14.5,15,29,22.5,43.5c3.4,1.1,6.8,2.4,10.1,3.8c-9.6-17.4-19.1-34.9-28.7-52.3
			C281.8,314.5,280.5,316.2,279.6,318.1z"/>
		<path d="M276.2,335.7c-0.3,0.4-0.6,0.7-0.9,1.1c-3.2-1.1-6.7-1-9.9,0.4c-0.1-0.2-0.3-0.5-0.4-0.7c-3.7-5.6-11.4-7.3-17.2-3.7
			c-1.4,0.9-2.6,2-3.5,3.3c-3.2,0-6.1,1.4-8.1,3.7c-1.4-1.1-3.2-1.7-5.1-1.8c0,0,0,0,0,0c-0.3-0.4-0.5-0.7-0.9-1.1
			c-0.4-4.2-3.1-7.7-6.9-9.3c0-0.2,0-0.4,0-0.6c0-1.9-0.5-3.7-1.2-5.4c0.6-4.1-2.3-7.9-6.5-8.8c0-0.3-0.1-0.6-0.1-1
			c-1-4.8-5-8.3-9.8-9c-1.1-0.5-2.2-0.9-3.4-1.1c6.6,18.7,13.3,37.3,20,56c0,0,0,0,0,0.1c2.6-0.6,5.3-1.1,7.9-1.6
			c8.2-1.4,16.6-2.2,25.1-2.2c0,0,0.1,0,0.1,0c8.9,0,17.7,0.8,26.1,2.3c4,0.7,7.9,1.6,11.8,2.6c-5-9.2-10-18.3-15-27.5
			C277.5,332.7,276.7,334.1,276.2,335.7z"/>
		<path d="M278.2,323.8c6.2,12.1,12.5,24.1,18.7,36.2c0.6,0.2,1.2,0.4,1.8,0.5c-6.8-12.6-13.7-25.1-20.5-37.7
			C278.2,323.2,278.2,323.5,278.2,323.8z"/>
		<path d="M69.2,239.4c-0.4,0.7-0.7,1.4-0.8,2.2c0,0.3-0.1,0.6-0.1,0.9c0,0.5,0.1,1.1,0.2,1.6c0.1,0.5,0.4,1,0.6,1.5L155,393.9
			l0.1,0.2c1.8-1.7,3.6-3.3,5.4-4.9c0.7-0.6,1.4-1.2,2.1-1.8c15.5-12.8,33.7-22.4,53.6-27.9c0,0,0-0.1,0-0.1
			c-9.5-25.5-19.1-51-28.6-76.5c-2.5-0.6-5.1-0.4-7.4,0.5c-2.6-0.2-5.2,0.4-7.5,1.5c-0.6-0.4-1.3-0.7-2-1c-1-0.8-2.1-1.4-3.3-1.9
			c-1.8-0.6-3.6-0.7-5.4-0.4c-0.3-6-5.3-10.9-11.5-11c-0.9,0-1.9,0.1-2.8,0.3c-1-0.8-2.2-1.4-3.5-1.9c-2.6-0.9-5.3-0.8-7.7,0
			c-1.5-2.9-4.1-5.2-7.5-6.4c-6.1-2.1-12.6,0.5-15.8,5.7c-0.9-0.5-1.8-1-2.8-1.2c-0.2-1-0.5-1.9-1-2.8c-0.9-1.5-2.2-2.7-3.8-3.6
			c0,0-0.1,0-0.1,0c-0.1,0-0.1-0.1-0.2-0.1c-1.3-0.7-2.7-1-4.1-1.1c-1-0.6-2.1-1-3.3-1.3c-0.6-1.1-1.5-2.1-2.6-2.8
			c1.6-1.2,2.9-2.7,3.6-4.7c1.9-4.9-0.4-10.2-5-12.6c-1-3.4-3.6-6.2-7.2-7.5c-0.2-0.1-0.5-0.1-0.7-0.2l27.8-48l53.7-92.7h17.4v0
			l10.4,25.7c0.1,0.2,0.2,0.4,0.3,0.6c0.2,0.4,0.4,0.7,0.6,1.1c0.2,0.3,0.3,0.6,0.5,0.8c2.9,4.6,8.1,7.6,13.7,7.6h91.3
			c6.6,0,12.5-4,15-10.1l5.1-12.5l5.4-13.1v0h17.6l56.6,97.7l6.9,11.8l0,0c-1.4,2.7-1.5,5.9-0.1,8.8c0.8,1.7,2.1,3,3.6,4
			c-3.7,2.3-5.5,6.6-4.6,10.8c-2.4-0.2-4.9,0.2-7.2,1.6c-5.2,3.3-6.7,10-3.3,15.1c0.7,1.1,1.6,1.9,2.5,2.7c-4.1,3.2-4.7,9-1.5,13
			c0.2,0.3,0.5,0.5,0.8,0.8c-0.9,1.5-1.5,3.2-1.5,5c-0.4,0.2-0.8,0.3-1.2,0.5c-0.9,0.5-1.7,1.1-2.5,1.7c-3.3,2.9-4.8,7.4-3.8,11.6
			c-2.3-0.2-4.7,0.2-7,1.3c-3.7,1.9-5.9,5.3-6.5,9c-3.3-1.4-7.2-1.4-10.7,0.4c-1.2,0.6-2.3,1.4-3.2,2.4
			c8.3,12.6,16.5,24.9,24.2,36.4c0.6,0.8,1.1,1.7,1.7,2.5c1.5,2.2,3,4.4,4.4,6.6h0l50.6-87.4c0.3-0.5,0.5-1,0.6-1.5
			c0.1-0.5,0.2-1.1,0.2-1.6s-0.1-1.1-0.2-1.6c-0.1-0.5-0.4-1-0.6-1.5L352.2,82.9c-0.1-0.2-0.3-0.5-0.5-0.7c-0.6-0.8-1.3-1.4-2.2-1.8
			c-0.9-0.4-1.8-0.7-2.8-0.7H165.3c-0.4,0-0.8,0-1.2,0.1c-0.4,0.1-0.8,0.2-1.2,0.4c-0.5,0.2-1,0.5-1.4,0.8c-0.6,0.5-1.2,1.1-1.6,1.8
			l-33.2,57.4L69.2,239.4z M306.1,98.8h-10v2.6h9.8v5.5h-9.8v2.8h10v5.5h-16.7v-22h16.7V98.8z M220.4,115.3h-3l-4.9-13.9v13.9h-6.7
			v-22h9.2l3.9,11.2l3.9-11.2h9.2v22h-6.7v-13.9L220.4,115.3z M235.8,104.3c0-6.8,5.2-11.4,12-11.4c6.8,0,12,4.6,12,11.4
			c0,6.8-5.2,11.4-12,11.4C241.1,115.6,235.8,111,235.8,104.3z M263.7,115.3v-22h9.8c6.9,0,12.1,4,12.1,11c0,7-5.1,11-12,11H263.7z"
			/>
		<path d="M253.1,104.3c0-3.1-2.1-5.5-5.3-5.5c-3.2,0-5.3,2.4-5.3,5.5c0,3.1,2.1,5.5,5.3,5.5C251.1,109.8,253.1,107.3,253.1,104.3z"
			/>
		<path d="M273.6,99.1h-3.2v10.4h3.2c3.3,0,5.3-2.4,5.3-5.2C278.8,101.3,277.1,99.1,273.6,99.1z"/>
		<path d="M384.7,326.5L384.7,326.5c-1.1-1.6-2.2-3.2-3.4-4.9c0,0,0,0.1,0,0.1c-0.3,0.6-0.7,1.3-1.1,2.1
			c-7.1-10.2-14.2-20.4-21.3-30.6c-0.3,1.3-0.5,2.7-0.3,4.1c-1.5,0.2-2.9,0.7-4.3,1.4c-0.1-0.2-0.2-0.4-0.4-0.5
			c-3.2-4.4-8.9-6-13.8-4.4c-0.5-1.6-1.4-3-2.6-4.3c-4.2-4.1-11.1-4-15.2,0.1c-0.4,0.4-0.7,0.8-1,1.2c-4-2.5-9.3-2.4-13.1,0.8
			c-2.1,1.8-3.4,4.2-3.7,6.7c-3.4-0.5-6.9,0.4-9.7,2.7c-2.8,2.3-4.2,5.7-4.3,9c-0.1,0-0.3,0.1-0.4,0.1c10.7,20,21.5,40,32.3,60
			c9.6,4.9,18.6,10.9,26.8,17.7c0.7,0.6,1.4,1.2,2.1,1.8c1.8,1.6,3.6,3.2,5.4,4.9l34.2-59.1c-1.5-2.1-3-4.3-4.5-6.5
			C385.8,328.2,385.2,327.3,384.7,326.5z"/>
		<path d="M136,434.9C136,434.9,136,434.9,136,434.9c0.1-0.2,0.1-0.4,0.1-0.7c0-0.1,0-0.1,0-0.2c0-0.4,0.1-0.9,0.1-1.3v-2.7
			c0-3.8-1.5-5.6-4.8-5.6h-0.9h-0.3h-1.6v3.3v0v10.6h2.8C134,438.2,135.4,437.2,136,434.9z"/>
		<path d="M383.8,427c-0.5-1.4-1.5-2.3-3-2.6c-0.1,0-0.2,0-0.3-0.1c-0.3,0-0.7-0.1-1-0.1h-2.8v10v0v0.8v0.2v2.5h2.8
			c3.3,0,4.8-1.8,4.8-5.6v-2.3C384.3,428.8,384.1,427.8,383.8,427C383.8,427,383.8,427,383.8,427z"/>
		<path d="M246.1,425.1c-0.8-0.5-1.8-0.8-3-0.8h-2.8v0.8v13.1h2.8c3.3,0,4.8-1.8,4.8-5.6v-2.7C247.9,427.6,247.3,426,246.1,425.1z"
			/>
		<path d="M161.2,424.8c-0.6-0.3-1.4-0.4-2.3-0.5c-0.1,0-0.1,0-0.2,0H156v13.5h2.8c3.3,0,4.8-1.8,4.8-5.6v-2.3
			C163.6,427.2,162.9,425.5,161.2,424.8z"/>
		<path d="M353.3,424.3c-0.6-0.4-1.4-0.6-2.3-0.6c-1.4,0-2.5,0.5-3.2,1.4c-0.7,0.9-1,2.1-1,3.8v16v0v0v7.7c0,3.4,1.5,5.2,4.2,5.2
			c2.7,0,4.2-1.8,4.2-5.2v-8.2v0v-0.2v0v-15.3C355.2,426.6,354.6,425.1,353.3,424.3z"/>
		<path d="M188.9,423.7c-1.4,0-2.5,0.5-3.2,1.4c-0.7,0.9-1,2.1-1,3.7v16v0v0v7.7c0,3.4,1.5,5.2,4.2,5.2c2.7,0,4.2-1.8,4.2-5.2v-7.7
			v0v0v-16c0-1.6-0.4-2.9-1-3.7C191.4,424.2,190.3,423.7,188.9,423.7z"/>
	</g>
	<g>
		<path class="st6" d="M459.9,229.5L369.2,73c-4.6-8-13.2-13-22.5-13H165.3c-9.3,0-17.9,4.9-22.5,13L52.1,229.5
			c-4.7,8.1-4.7,18,0,26.1l86.9,150h4.8h0.3h32.1c0.4,0,0.9,0,1.3,0c40.6,0,135.9,0,156.9,0c0.5,0,0.9,0,1.3,0h31.1h0.3h5.8
			l86.9-150C464.5,247.6,464.5,237.6,459.9,229.5z M222.4,357.8c-6.7-18.7-13.3-37.4-20-56c-7.4-20.7-14.8-41.5-22.2-62.2
			c-0.2-0.6-0.4-1.2-0.7-1.8c-0.1-0.3-0.2-0.6-0.3-0.9c1.4-1,2.5-1.8,3.8-2.7c0.3,0.4,0.6,0.9,0.8,1.3c0.6,1,1.3,2,2,2.9
			c13.2,18.3,34.7,27.2,57.2,23.2c1.4-0.3,2,0.1,2.6,1.3c7.4,13.5,14.7,27.1,22.1,40.6c3.5,6.4,7,12.9,10.5,19.3
			c6.8,12.6,13.7,25.1,20.5,37.7c-0.6-0.2-1.2-0.4-1.8-0.5c-1.1-0.3-2.3-0.6-3.4-1c-3.9-1-7.8-1.9-11.8-2.6
			c-8.5-1.5-17.2-2.3-26.1-2.3c0,0-0.1,0-0.1,0c-8.6,0-17,0.8-25.1,2.2C227.7,356.7,225,357.3,222.4,357.8
			C222.4,357.9,222.4,357.9,222.4,357.8z M256.3,186.2c7.5-4.8,15.7-5.4,24.1-4C272.5,183.5,264.4,184.9,256.3,186.2z M208.4,154.9
			c6-3.1,12.7-5.1,20.2-6c6.7-0.8,13.3-0.2,19.6,2.1c0.3,0.1,0.5,0.2,0.3,0.1c-4.5,0.2-9.4,0.1-14.2,0.6c-0.2,0-0.5,0-0.7,0.1
			c-2,0.3-4,0.7-6,1.2c-2.3,0.6-4.6,1.2-6.9,1.8c-1.7,0.4-2.5,1.7-3.1,3.1c-0.1,0.2-0.2,0.4-0.2,0.6c-0.5,1.2,0.4,1.6,1.5,1.6
			c1.5,0,3.1,0,4.6,0.2c5.7,1.1,5.9,5.7,3.4,9.1c-1,1.3-1.3,2.6-0.8,4.2c0.3,0.9,0.5,1.9,0.8,2.9c5.2-2.6,10.3-5.3,16.4-3.9
			c-0.5,0.1-1,0.2-1.5,0.3c-2.9,0.6-5.7,1.5-8.3,2.7c-1.5,0.7-3,1.5-4.5,2.4c-0.8,0.5-1.1,1-0.9,2c0,0,0,0.1,0,0.1
			c0.7,2.6,1.2,5.3,2.1,7.7c1,2.5,2.4,4.8,3.7,7.3c-1.1,0.6-2.2,1.1-3.4,1.7c-0.6,0.3-1.3,0.7-2,1c0.2,0.4,0.5,0.8,0.7,1.3
			c6.1,11,12.2,21.9,18.3,32.8c1.6,2.8,3.2,5.7,4.7,8.5c4-2.4,7.6-5.2,10.8-8.4c0.2-0.2,0.3-0.3,0.4-0.5c0.7-0.7,1.5-1.5,2.2-2.3
			c2.3-2.7,4.3-5.6,6-8.6c1.1-2,2.2-4.1,3.1-6.2c-0.6,6.4-2.2,12.4-5.6,17.8c0,0.1-0.1,0.1-0.1,0.2c-1.2,1.9-2.6,3.6-4.2,5.1
			c-3,2.8-6.5,5-10.6,6.5c0.3,0.5,0.5,1,0.8,1.5c1.3,2.3,2.5,4.6,3.8,6.9c-1.1,0.6-2.2,1.2-3.4,1.8c0,0,0,0,0,0
			c-0.1-0.2-0.2-0.3-0.3-0.5c-1.2-2.3-2.4-4.5-3.6-6.7c-0.3-0.6-0.7-1.3-1-1.9c-0.1,0-0.1,0-0.2,0c-1.3,0.2-2.6,0.5-3.9,0.7
			c-0.6,0.1-1.2,0.2-1.8,0.3c-1.4,0.2-2.8,0.5-4.3,0.7c0-0.2-0.1-0.3-0.1-0.5c1.7-0.8,3.5-1.6,5.2-2.4c1.1-0.5,2.3-1,3.4-1.6
			c0,0,0,0,0,0c0.2,0.3,0.4,0.7,0.6,1c0.4,0.6,0.7,1.1,1,1.7c1.2-0.3,2.3-0.6,3.6-1c-0.6-1-1.1-1.9-1.5-2.7
			c-0.2-0.3-0.3-0.6-0.5-0.9c-1.1,0.6-2.1,1.2-3.2,1.9c-1.9-3.5-3.8-6.9-5.7-10.4c-5.7-10.4-11.4-20.9-17.2-31.3
			c-0.2-0.4-0.5-0.8-0.7-1.3c-3.4,2-6.6,3.9-10,6c-1.7-4.6-3.4-9.2-5.1-13.7c-0.2,0-0.3,0-0.4,0c-2.5,1.9-2.5,1.9-1.2,4.8
			c1.5,3.4,3,6.8,4.5,10.4c-0.3,0.2-0.6,0.4-0.9,0.6c-0.7,0.5-1.4,1-2.2,1.6c-0.2,0.1-0.3,0.2-0.5,0.4c-1.6-3.5-3.1-6.8-4.7-10.3
			c-1,0.8-1.9,1.6-2.9,2.4c2,3,4.1,5.9,5.9,8.7c-0.5,0.4-1,0.9-1.5,1.3c-0.5,0.4-1,0.9-1.5,1.3c-6.3,5.5-12.6,11-18.9,16.4
			c-2.9-3.7-4.4-8-5.1-12.7c-0.1-0.4,0.2-0.9,0.4-1.3c2-3,4.1-5.8,6.3-8.4c7.4-8.7,16.4-15.5,26.9-21c2,4.8,4,9.6,5.9,14.2
			c2.2-1.2,4.4-2.4,6.6-3.7c0.8-0.4,1.6-0.9,2.3-1.3c0,0,0.1-0.1,0.1-0.1c0.3-0.3,0.4-0.8,0.4-1.1c-0.5-3.7-2-6.8-4.2-9.5
			c-0.8-0.9-1.7-1.8-2.6-2.6c-0.5-0.5-1.5-0.6-2.2-0.6c-1.6-0.1-3.3,0-5.1,0c0.4-0.6,0.9-1.2,1.3-2c1.4-2.7,3-5.3,4-8.1
			c1.5-4.2-0.6-7.5-5-8c-2.3-0.3-4.6,0.2-7.2,0.4c0.6,1.1,1.1,1.9,1.5,2.6c0.1,0.2,0.2,0.5,0.3,0.7c1.9,4.1,1.3,8.2-0.4,12.1
			c-0.3,0.8-1.2,1.4-1.9,1.9c-0.2,0.2-0.5,0.4-0.7,0.6c-0.5,0.5-0.9,1-1.1,1.6c-0.2,0.6-0.3,1.3,0,2c-1,0.6-1.9,1.1-2.9,1.7
			c-2.9,1.7-5.8,3.3-8.7,5c-2.1-6.8-2.2-13.7-1.8-20.8c-1,1.2-1.9,2.5-2.8,3.7c-5.9,8.5-9.2,18.1-10,28.7c-0.6-2.6-0.9-5.2-0.9-7.8
			c0-5,1.1-9.9,3.5-14.5c2.5-4.9,5.4-9.3,8.6-13.1C196.4,162.6,202,158.1,208.4,154.9z M316.4,367.3c-1.4-0.6-2.8-1.2-4.2-1.8
			c-3.3-1.4-6.7-2.7-10.1-3.8c-7.5-14.5-15-29-22.5-43.5c-9.7-18.7-19.3-37.4-29-56.2c0-0.1-0.1-0.2-0.1-0.2c-0.3-0.5-0.5-1-0.8-1.6
			c2.6-1,5-2,7.5-3c0.5,0.9,0.9,1.7,1.4,2.6c9.4,17.1,18.8,34.3,28.2,51.4c10.4,18.9,20.8,37.9,31.2,56.9
			C317.5,367.8,316.9,367.5,316.4,367.3z M208.1,220.7c2.3-1.3,4.7-2.6,7.3-3.4c2.8-1,5.7-0.5,6.2,3.7c0.4,3.1,0,5.9-1.3,8.7
			c-0.6,1.3-1.6,2.3-2.7,3c-0.6,0.4-1.3,0.7-2,0.9c-0.9,0.3-1.8,0.5-2.7,0.7c-1.3,0.3-2.4,0.5-3.3,0.6c-0.4,0-0.8-0.1-1.1-0.1
			c-6.2-0.6-6.2-2.4-5.3-7c0.3-1.3,0.7-2.5,1.3-3.5C205.4,222.8,206.6,221.6,208.1,220.7z M356.7,394.5c-1.8-1.7-3.6-3.3-5.4-4.9
			c-0.7-0.6-1.4-1.2-2.1-1.8c-8.2-6.8-17.2-12.8-26.8-17.7c-10.8-20-21.5-40-32.3-60c-6.5-12.1-13-24.2-19.5-36.3
			c-3.1-5.8-6.3-11.7-9.4-17.6c-0.2-0.3-0.3-0.6-0.5-0.9c4.9-2.9,9.3-6.3,13-10.2c3.4-3.5,6.4-7.4,8.8-11.8c1.6-2.8,3-5.7,4.1-8.8
			c3.8-10,4.7-20.2,3.3-30.4c-0.5-3.3-1.1-6.6-2.1-9.9c11.7,16.9,24.8,36,38.2,55.8c11.3,16.7,22.8,33.8,34,50.4
			c7.3,10.8,14.5,21.3,21.3,31.3c1.1,1.6,2.2,3.3,3.4,4.9h0c0.6,0.8,1.1,1.7,1.7,2.5c1.5,2.2,3,4.3,4.5,6.5L356.7,394.5z
			 M443.4,244.2c-0.1,0.5-0.4,1-0.6,1.5l-50.6,87.4h0c-1.5-2.2-2.9-4.4-4.4-6.6c-0.6-0.8-1.1-1.7-1.7-2.5
			c-7.7-11.5-15.8-23.8-24.2-36.4c-10-15.2-20.4-30.9-30.6-46.5c-16.8-25.5-33.3-50.6-48.1-72.5c-0.7-1-1.2-1.7-0.4-3
			c0.6-1,0-2.3-1.2-2.2c-2,0.1-2.7-1.3-3.7-2.5c-2.1-2.7-2.1-2.6-5.3-1.8c-0.4,0.1-1.1-0.3-1.5-0.7c-2.6-2.4-5.4-4.5-8.4-6.3
			c-11.8-7.3-26.2-10.5-39.8-7.9c-10.1,1.9-19.1,6.3-26.6,12.4c-2.7,2.3-5.3,4.7-7.5,7.4c-9.4,11.1-14.8,25.7-14,41.2
			c0.2,3.3,0.6,6.5,0.9,9.8c-1.4-0.8-2.4-1.2-3.2-1.4c-0.9-0.2-1.7,0-2.7,0.4c0.1,0.9,0.2,1.8,0.3,2.7c0.7,5,2,9.9,4.2,14.6
			c0.2,0.5,0.6,1.2,0.4,1.6c-1,2.5,0,4.8,0.8,7c0.1,0.3,0.2,0.5,0.3,0.8c5.6,14.9,11.1,29.8,16.7,44.7c1.3,3.5,2.6,7.1,4,10.6
			c0.8,2,1.5,4,2.3,6.1c0.7,1.9,1.4,3.8,2.1,5.7c6.3,16.9,12.7,33.9,19,50.8c0,0,0,0,0,0.1c-0.3,0.1-0.6,0.1-0.8,0.2
			c-0.9,0.2-1.8,0.5-2.7,0.7c-19.9,5.5-38.1,15.2-53.6,27.9c-0.7,0.6-1.4,1.2-2.1,1.8c-1.8,1.6-3.7,3.2-5.4,4.9l-0.1-0.2L69.2,245.7
			c-0.3-0.5-0.5-1-0.6-1.5c-0.1-0.5-0.2-1.1-0.2-1.6c0-0.3,0-0.6,0.1-0.9c0.1-0.8,0.4-1.5,0.8-2.2l57.4-99.1l33.2-57.4
			c0.4-0.7,1-1.3,1.6-1.8c0.4-0.3,0.9-0.6,1.4-0.8c0.8-0.3,1.6-0.5,2.4-0.5h181.4c2,0,3.8,0.9,5,2.4c0.2,0.2,0.3,0.4,0.5,0.7
			l90.7,156.5c0.3,0.5,0.5,1,0.6,1.5c0.1,0.5,0.2,1.1,0.2,1.6C443.7,243.1,443.6,243.7,443.4,244.2z"/>
		<path class="st6" d="M250.7,245.1C250.7,245.2,250.7,245.2,250.7,245.1L250.7,245.1C250.7,245.2,250.7,245.2,250.7,245.1
			C250.7,245.2,250.8,245.2,250.7,245.1C250.8,245.2,250.7,245.2,250.7,245.1z"/>
		<path class="st6" d="M107.8,435.5c-2.7,0-4.9,2.2-4.9,4.9c0,2.7,2.2,4.9,4.9,4.9c2.7,0,4.9-2.2,4.9-4.9
			C112.7,437.7,110.5,435.5,107.8,435.5z"/>
		<path class="st6" d="M404.5,435.5c-2.7,0-4.9,2.2-4.9,4.9c0,2.7,2.2,4.9,4.9,4.9s4.9-2.2,4.9-4.9
			C409.4,437.7,407.2,435.5,404.5,435.5z"/>
	</g>
	<g>
		<polygon class="st5" points="212.6,101.4 217.5,115.3 220.4,115.3 225.4,101.4 225.4,115.3 232,115.3 232,93.3 222.8,93.3 
			219,104.5 215.1,93.3 205.9,93.3 205.9,115.3 212.6,115.3 		"/>
		<path class="st5" d="M247.9,92.9c-6.8,0-12,4.6-12,11.4c0,6.8,5.2,11.4,12,11.4c6.8,0,12-4.6,12-11.4
			C259.9,97.5,254.6,92.9,247.9,92.9z M247.9,109.8c-3.2,0-5.3-2.4-5.3-5.5c0-3.1,2.1-5.5,5.3-5.5c3.2,0,5.3,2.4,5.3,5.5
			C253.1,107.3,251.1,109.8,247.9,109.8z"/>
		<path class="st5" d="M273.5,93.3h-9.8v22h9.8c6.9,0,12-4,12-11C285.6,97.2,280.4,93.3,273.5,93.3z M273.5,109.5h-3.2V99.1h3.2
			c3.6,0,5.3,2.2,5.3,5.2C278.8,107,276.9,109.5,273.5,109.5z"/>
		<polygon class="st5" points="306.1,109.7 296.1,109.7 296.1,106.9 305.9,106.9 305.9,101.4 296.1,101.4 296.1,98.8 306.1,98.8 
			306.1,93.3 289.4,93.3 289.4,115.3 306.1,115.3 		"/>
		<path class="st5" d="M379,191.1c1.1-5.8,2.1-6.7,7.8-7.8c-5.2-1-6.5-1.9-7.5-6.3c-0.1-0.5-0.2-1-0.3-1.6c-0.1,0.5-0.2,0.9-0.3,1.3
			c-1.1,4.6-2.3,5.5-7.6,6.5C376.9,184.4,377.8,185.3,379,191.1z"/>
		<path class="st5" d="M355.5,213.8c-1.6,8.1-2.9,9.4-11,11c8.1,1.6,9.4,2.9,11,11c1.6-8.1,2.9-9.4,11-11
			C358.4,223.1,357.1,221.8,355.5,213.8z"/>
		<path class="st5" d="M352.4,138.6c-11-2.2-12.8-4-15-15c-2.2,11-4,12.8-15,15c11,2.2,12.8,4,15,15
			C339.6,142.6,341.4,140.8,352.4,138.6z"/>
		<path class="st5" d="M145.6,182.6c-1.6,8.1-2.9,9.4-11,11c8.1,1.6,9.4,2.9,11,11c1.6-8.1,2.9-9.4,11-11
			C148.5,192,147.2,190.7,145.6,182.6z"/>
		<path class="st5" d="M172.9,112.8c-1.1,5.8-2.1,6.7-7.8,7.8c5.7,1.2,6.7,2.1,7.8,7.8c1.1-5.8,2.1-6.7,7.8-7.8
			C175,119.5,174.1,118.5,172.9,112.8z"/>
		<path class="st5" d="M309.7,157.1c-2.7,0-4.9,2.2-4.9,4.9c0,2.7,2.2,4.9,4.9,4.9s4.9-2.2,4.9-4.9
			C314.6,159.3,312.4,157.1,309.7,157.1z"/>
		<circle class="st5" cx="119.3" cy="235.3" r="5.5"/>
		<path class="st5" d="M155.4,156.5c1.2,0,2.2-1,2.2-2.2c0-1.2-1-2.2-2.2-2.2c-1.2,0-2.2,1-2.2,2.2
			C153.2,155.5,154.2,156.5,155.4,156.5z"/>
		<path class="st5" d="M345.8,179.6c0,1.2,1,2.2,2.2,2.2c1.2,0,2.2-1,2.2-2.2c0-1.2-1-2.2-2.2-2.2
			C346.8,177.4,345.8,178.4,345.8,179.6z"/>
		<path class="st5" d="M339.2,107.3c1.2,0,2.2-1,2.2-2.2c0-1.2-1-2.2-2.2-2.2c-1.2,0-2.2,1-2.2,2.2C337,106.3,338,107.3,339.2,107.3
			z"/>
		<circle class="st5" cx="324.5" cy="271.5" r="2.2"/>
		<path class="st5" d="M296,260c1.1-5.8,2.1-6.7,7.8-7.8c-5.7-1.1-6.7-2.1-7.8-7.8c-1.1,5.8-2.1,6.7-7.8,7.8
			C293.9,253.3,294.8,254.3,296,260z"/>
		<path class="st5" d="M375.8,264.6c2.7,0,4.9-2.2,4.9-4.9c0-0.9-0.3-1.8-0.7-2.5c-0.9-1.4-2.4-2.4-4.2-2.4c-0.4,0-0.8,0.1-1.2,0.2
			c-2.1,0.5-3.7,2.5-3.7,4.8C370.9,262.4,373.1,264.6,375.8,264.6z"/>
		<path class="st5" d="M241,326.6c1.6-8.2,3-9.6,11.2-11.2c-8.2-1.6-9.6-3-11.2-11.2c-1.6,8.2-3,9.6-11.2,11.2
			C238,317,239.3,318.3,241,326.6z"/>
		<circle class="st5" cx="219.5" cy="281.3" r="1.8"/>
		<path class="st5" d="M161,259.8c1.2,0,2.2-1,2.2-2.2c0-1.2-1-2.2-2.2-2.2c-1.2,0-2.2,1-2.2,2.2C158.8,258.8,159.7,259.8,161,259.8
			z"/>
		<path class="st5" d="M134.4,418.2c-0.1,0-0.2,0-0.3,0c-0.8-0.1-1.6-0.2-2.5-0.2h-9.3h0h-0.7v45.5h6.9v-18.8h3.1
			c5.2,0,8.7-2,10.3-5.7c0,0,0,0,0,0c0.1-0.1,0.1-0.3,0.2-0.5c0,0,0-0.1,0.1-0.1c0.6-1.5,0.9-3.2,0.9-5.2v-3.6
			C143.1,423,140.1,419.1,134.4,418.2z M136.1,434.2c0,0.2-0.1,0.5-0.1,0.7c0,0,0,0,0,0c-0.5,2.3-2,3.4-4.6,3.4h-2.8v-10.6v0v-3.3
			h1.6h0.3h0.9c3.3,0,4.8,1.8,4.8,5.6v2.7c0,0.5,0,0.9-0.1,1.3C136.1,434.1,136.1,434.1,136.1,434.2z"/>
		<path class="st5" d="M166.3,444.9L166.3,444.9l-0.7-2.1c3.2-1.8,4.9-5.2,4.9-10v-3.2c0-1.6-0.2-3-0.6-4.3
			c-1.3-4.7-5.1-7.2-10.9-7.2h-9.9v1.5v22.2v0.1v0.4v0v21.3h6.9v-19.2h1.1h0.1h0.8h0.3h0.9l0,0.1l0,0l0,0.1l0,0l5.4,18.9h7.3
			L166.3,444.9L166.3,444.9z M158.8,437.8H156v-13.5h2.8c0.1,0,0.1,0,0.2,0c0.9,0,1.6,0.2,2.3,0.5c1.6,0.7,2.4,2.4,2.4,5.1v2.3
			C163.6,436.1,162.1,437.8,158.8,437.8z"/>
		<path class="st5" d="M188.9,417.3c-5.6,0-9.4,2.9-10.7,7.8c-0.3,1.1-0.4,2.4-0.4,3.7v16v0v0v7.7c0,7.1,4.2,11.5,11.1,11.5
			c6.9,0,11.1-4.4,11.1-11.5v-7.7v0v0v-16c0-1.3-0.1-2.6-0.4-3.7C198.3,420.2,194.5,417.3,188.9,417.3z M193.1,444.9L193.1,444.9
			v7.7c0,3.4-1.5,5.2-4.2,5.2c-2.7,0-4.2-1.8-4.2-5.2v-7.7v0v0v-16c0-1.6,0.4-2.9,1-3.7c0.7-0.9,1.8-1.4,3.2-1.4
			c1.4,0,2.5,0.5,3.2,1.4c0.7,0.9,1,2.1,1,3.7V444.9L193.1,444.9z"/>
		<path class="st5" d="M225.7,444.9C225.7,444.9,225.7,444.9,225.7,444.9c-1.3-2.4-3.4-4.8-6.6-7.8c-4.5-4.1-5.8-6.2-5.8-8.7v-1
			c0-0.9,0.2-1.7,0.5-2.3c0.6-1,1.6-1.4,2.9-1.4c1.4,0,2.3,0.5,2.9,1.4c0.4,0.7,0.7,1.8,0.7,3.1v1.4l6.6-0.6v-1.3
			c0-0.9-0.1-1.8-0.2-2.6c-0.9-5.1-4.5-7.8-10-7.8c-5.6,0-9.2,2.7-10.1,7.8c-0.1,0.7-0.2,1.5-0.2,2.4v1.1c0,4.9,2.1,8.6,8.2,14.3
			c0.8,0.7,1.4,1.3,2,1.9c0,0,0,0,0,0c0,0,0,0,0,0c2.8,2.9,3.8,4.7,3.8,7.1v1.4c0,3.2-1.7,4.4-3.8,4.4c-2.5,0-3.9-1.5-3.9-4.5v-3.1
			l-6.6,0.6v3c0,6.7,4.3,10.4,10.7,10.4c6.3,0,10.5-3.5,10.5-10.2v-2.2C227.3,449.2,226.9,447,225.7,444.9
			C225.7,444.9,225.7,444.9,225.7,444.9z"/>
		<path class="st5" d="M243.3,418h-9.9v7.2v19.7v0v0v18.6h6.9v-18.6v0v0v-0.2h3.1c7.4,0,11.4-4,11.4-11.5v-3.6c0-1.6-0.2-3-0.6-4.3
			C252.8,420.5,249.1,418,243.3,418z M247.9,432.6c0,3.8-1.5,5.6-4.8,5.6h-2.8v-13.1v-0.8h2.8c1.3,0,2.3,0.3,3,0.8
			c1.2,0.9,1.8,2.4,1.8,4.8V432.6z"/>
		<polygon class="st5" points="261.4,425.1 261.4,444.9 261.4,444.9 261.4,444.9 261.4,463.4 280.8,463.4 280.8,457.1 268.3,457.1 
			268.3,444.9 268.3,444.9 268.3,444.9 268.3,443.6 278.4,443.6 278.4,437.2 268.3,437.2 268.3,425.1 268.3,424.3 280.8,424.3 
			280.8,418 261.4,418 		"/>
		<path class="st5" d="M298.1,417.3c-5.6,0-9.2,2.8-10.3,7.8c-0.2,1-0.3,2-0.3,3.1v16.6v0v0v8.3c0,6.9,3.9,10.9,10.6,10.9
			c6.8,0,10.7-4,10.7-10.9v-5.5l-6.6-0.3v5.1c0,3.6-1.4,5.3-3.9,5.3c-2.5,0-3.9-1.6-3.9-4.6v-8.2v0v0v-16.6c0-1.3,0.3-2.4,0.8-3.2
			c0.7-0.9,1.7-1.4,3.1-1.4c1.3,0,2.4,0.5,3,1.4c0.6,0.9,0.9,2.1,0.9,3.8v3.7l6.6-0.3v-4.1c0-1.1-0.1-2.1-0.3-3.1
			C307.5,420.2,303.8,417.3,298.1,417.3z"/>
		<polygon class="st5" points="313.3,424.5 320.6,424.5 320.6,425.1 320.6,444.9 320.6,444.9 320.6,444.9 320.6,463.4 327.5,463.4 
			327.5,444.9 327.5,444.9 327.5,444.9 327.5,425.1 327.5,424.5 334.8,424.5 334.8,418 313.3,418 		"/>
		<path class="st5" d="M351,417.3c-5.6,0-9.4,2.9-10.7,7.8c-0.3,1.1-0.4,2.4-0.4,3.7v16v0v0v7.7c0,7.1,4.2,11.5,11.1,11.5
			c6.9,0,11.1-4.4,11.1-11.5v-9.8v-0.1v-0.3v0v-13.6c0-3-0.7-5.5-2.1-7.4C358.1,418.8,355,417.3,351,417.3z M355.2,444.2v0.2v0v8.2
			c0,3.4-1.5,5.2-4.2,5.2c-2.7,0-4.2-1.8-4.2-5.2v-7.7v0v0v-16c0-1.6,0.4-2.9,1-3.8c0.7-0.9,1.8-1.4,3.2-1.4c0.9,0,1.6,0.2,2.3,0.6
			c1.3,0.8,2,2.3,2,4.6V444.2L355.2,444.2z"/>
		<path class="st5" d="M386.3,442.7c3.2-1.8,4.9-5.2,4.9-10v-3.2c0-3.9-1.1-6.8-3.2-8.7c0,0,0,0,0,0c-1.9-1.8-4.7-2.7-8.3-2.7h-3.1
			h-0.3h-6.5V439v0v0.5v0.1v23.7h6.9v-19.2h3.2l5.5,19.2h7.3L386.3,442.7z M384.3,432.3c0,3.8-1.5,5.6-4.8,5.6h-2.8v-2.5v-0.2v-0.8
			v0v-10h2.8c0.4,0,0.7,0,1,0.1c0.1,0,0.2,0,0.3,0.1c1.5,0.3,2.5,1.1,3,2.6c0,0,0,0,0,0c0.3,0.8,0.4,1.7,0.4,2.9V432.3z"/>
		<path class="st5" d="M263.5,136.6c1.2,0,2.2-1,2.2-2.2c0-1.2-1-2.2-2.2-2.2c-1.2,0-2.2,1-2.2,2.2
			C261.3,135.6,262.3,136.6,263.5,136.6z"/>
		<circle class="st5" cx="327.7" cy="207.1" r="1.8"/>
	</g>
</g>
</svg>
