<?xml version="1.0" encoding="utf-8"?>
<!-- Generator: Adobe Illustrator 25.0.0, SVG Export Plug-In . SVG Version: 6.00 Build 0)  -->
<svg version="1.1" id="Layer_1" xmlns="http://www.w3.org/2000/svg" xmlns:xlink="http://www.w3.org/1999/xlink" x="0px" y="0px"
	 viewBox="0 0 1024 512" style="enable-background:new 0 0 1024 512;" xml:space="preserve">
<style type="text/css">
	.st0{fill-rule:evenodd;clip-rule:evenodd;fill:#BA1200;}
	.st1{fill-rule:evenodd;clip-rule:evenodd;fill:#D6D6D6;}
	.st2{fill:#D6D6D6;}
</style>
<polygon class="st0" points="99.7,260.3 104.6,291.3 163.4,316.6 174.8,351.8 189.5,317.5 191.2,253.8 111.1,253.8 "/>
<polygon class="st0" points="303.9,260.3 299,291.3 241,316.6 228.8,351.8 214,317.5 213.2,253.8 293.3,253.8 "/>
<path class="st1" d="M201.8,400.8c0,0-13.9,1.6-19.6-5.7l3.3-58l-7.4,56.4c0,0-1.6,18.8,7.4,26.1c0,0-4.9-5.7-4.9-13.1
	c0,0,2.5,18,19.6,18c0,0-4.9,10.6-15.5,8.2c0,0,4.1,0,7.4-1.6c0,0-9.8,4.9-18.8-10.6c0,0,4.1,4.9,9,5.7c0,0-17.2-9-14.7-40
	c0,0-2.5,10.6,0,19.6c0,0-5.7-9,0-33.5c5.7-24.5-10.6-47.4-10.6-47.4s8.2,13.1,9,27c0,0-5.7-39.2-40-48.2c0,0,33.5,11.4,35.9,54.7
	c0,0-3.3-18.8-9.8-27c0,0,10.6,18.8,9.8,62.1c0,0-9-29.4-37.6-44.9c0,0,11.4,7.4,18,21.2c0,0-15.5-27.8-74.3-40.8
	c0,0,7.4-7.4,13.9-5.7c0,0-5.7,0.8-9,4.9c0,0,10.6-9.8,38.4,3.3c0,0-10.6-18-40.8-23.7c0,0,16.3,4.1,23.7,10.6c0,0-17.2-9.8-58-16.3
	c0,0,4.9-11.4,23.7-22.1c0,0-9,4.9-15.5,13.9c0,0,13.1-15.5,31-15.5c0,0-9,0.8-15.5,7.4c0,0,10.6-9,39.2-9c0,0-13.1-7.4-29.4-8.2
	c0,0,7.4,0.8,15.5,4.9c0,0-13.1-4.1-31-2.5c0,0,9.8-11.4,22.9-18c0,0-5.7,3.3-14.7,13.1c0,0,11.4-11.4,28.6-16.3
	c0,0,5.7-24.5,29.4-49.8c0,0-8.2-2.5-14.7,0.8c0,0,5.7-11.4,22.9-12.3c0,0-9.8-1.6-18,1.6c0,0,19.6-13.1,39.2-9c0,0-9.8-4.1-27-5.7
	c0,0,11.4-1.6,19.6,0c0,0-8.2-22.9-31-39.2c0,0,9.8,9,14.7,18.8c0,0-17.2-22.9-44.1-38.4c0,0-4.1,27.8,5.7,56.4
	c0,0-8.2-15.5-9.8-34.3c0,0-0.8,39.2,23.7,70.2c0,0-10.6,15.5-14.7,30.2c0,0,2.5-15.5,8.2-22.9c0,0-9,9-11.4,23.7
	c0,0-22.9-23.7-27-67.8c0,0,4.1,30.2,16.3,40.8c0,0-9.8-11.4-11.4-31.9c0,0,5.7,9.8,11.4,12.3c0,0-22.9-27-12.3-116
	c0,0-1.6,18,1.6,35.9c0,0-1.6-19.6,3.3-33.5c0,0,30.2,11.4,49,37.6c0,0-9.8-16.3-24.5-29.4c0,0,72.7,19.6,90.7,76
	c0,0,0-11.4-4.9-19.6c0,0,5.7,8.2,8.2,17.2c0,0,4.1-18-9.8-34.3c13.1,5.7,14.7,21.2,31.9,22.9c17.2-1.6,18.8-16.3,31.9-22.9
	c-13.9,16.3-9.8,34.3-9.8,34.3c0.8-9,8.2-17.2,8.2-17.2c-11.4,6.5-11.4,18-11.4,18c18-56.4,90.7-76,90.7-76
	c-14.7,13.9-24.5,30.2-24.5,30.2c18.8-25.3,49-37.6,49-37.6c4.9,14.7,3.3,33.5,3.3,33.5c3.3-17.2,0.8-35.1,0.8-35.1
	c11.4,88.2-12.3,116-12.3,116c5.7-3.3,11.4-12.3,11.4-12.3c-1.6,19.6-11.4,31.9-11.4,31.9c12.3-10.6,16.3-40.8,16.3-40.8
	c-4.9,43.3-27,67.8-27,67.8c-2.5-13.9-11.4-23.7-11.4-23.7c5.7,7.4,8.2,22.9,8.2,22.9c-4.1-13.9-14.7-30.2-14.7-30.2
	c24.5-30.2,23.7-70.2,23.7-70.2c-2.5,18.8-9.8,34.3-9.8,34.3c12.3-29.4,9-57.2,9-57.2c-27,15.5-44.1,38.4-44.1,38.4
	c4.9-9.8,14.7-19.6,14.7-19.6c-23.7,17.2-31,39.2-31,39.2c8.2-1.6,19.6,0,19.6,0c-18,2.5-27,6.5-27,6.5c19.6-4.1,39.2,9,39.2,9
	c-7.4-3.3-18-1.6-18-1.6c16.3,0.8,22.9,12.3,22.9,12.3c-5.7-3.3-14.7-0.8-14.7-0.8c23.7,24.5,29.4,49.8,29.4,49.8
	c17.2,4.9,28.6,16.3,28.6,16.3c-9-9-14.7-13.1-14.7-13.1c13.1,5.7,22.9,18,22.9,18c-17.2-1.6-31,2.5-31,2.5c9-3.3,15.5-4.9,15.5-4.9
	c-16.3,0.8-29.4,8.2-29.4,8.2c28.6,0,39.2,9,39.2,9c-5.7-5.7-15.5-7.4-15.5-7.4c18,0.8,31,15.5,31,15.5
	c-8.2-8.2-17.2-13.1-17.2-13.1c19.6,10.6,23.7,22.1,23.7,22.1c-40.8,5.7-58,16.3-58,16.3c7.4-7.4,23.7-10.6,23.7-10.6
	c-29.4,5.7-40.8,23.7-40.8,23.7c26.1-13.1,38.4-3.3,38.4-3.3c-2.5-4.1-9-4.9-9-4.9c7.4-0.8,13.9,5.7,13.9,5.7
	c-58,15.5-73.5,42.5-73.5,42.5c5.7-13.9,18-21.2,18-21.2c-28.6,14.7-37.6,44.9-37.6,44.9c-0.8-43.3,9.8-62.1,9.8-62.1
	c-7.4,9-9.8,27-9.8,27c1.6-44.1,35.9-54.7,35.9-54.7c-35.1,9-40,48.2-40,48.2c0.8-14.7,9-27,9-27s-16.3,22.1-10.6,47.4
	c5.7,24.5,0,33.5,0,33.5c2.5-9,0-19.6,0-19.6c2.5,31-14.7,40-14.7,40c5.7-1.6,9-5.7,9-5.7c-9,14.7-18.8,10.6-18.8,10.6
	c3.3,1.6,7.4,1.6,7.4,1.6c-10.6,3.3-15.5-8.2-15.5-8.2c17.2,0,19.6-18,19.6-18c0,5.7-4.9,13.1-4.9,13.1c9-8.2,7.4-26.1,7.4-26.1
	l-7.4-56.4l3.3,58C215.7,403.2,201.8,400.8,201.8,400.8L201.8,400.8z M235.3,266c0,0-13.1,19.6,0,18.8c0,0-3.3,0-3.3-4.1
	c0,0,5.7,10.6,24.5-12.3c0,0-3.3,5.7-8.2,10.6c0,0,8.2-4.1,14.7-16.3c7.4-12.3,26.1-5.7,32.7,4.9c0,0-9-8.2-14.7-8.2
	c0,0,18,4.1,13.1,22.9c0,0-0.8-14.7-14.7-17.2c0,0,8.2,1.6,9,10.6c0,0-1.6-5.7-7.4-8.2c0,0,4.9,27-24.5,36.8c0,0,14.7-5.7,19.6-18
	c0,0-11.4,22.9-42.5,15.5c0,0-8.2,14.7-5.7,42.5c0,0-4.9-18-2.5-31c0,0-2.5,9-1.6,18c0,0-4.1-15.5,2.5-32.7c0,0-9.8-9-7.4-18.8
	c0,0,0,5.7,2.5,9C223,272.5,235.3,266,235.3,266L235.3,266z M168.3,266c0,0,13.1,19.6,0,18.8c0,0,3.3,0,3.3-4.1
	c0,0-5.7,10.6-24.5-12.3c0,0,3.3,5.7,8.2,10.6c0,0-8.2-4.1-14.7-16.3c-7.4-12.3-26.1-5.7-32.7,4.9c0,0,9-8.2,14.7-8.2
	c0,0-18,4.1-13.1,22.9c0,0,0.8-14.7,14.7-17.2c0,0-8.2,1.6-9,10.6c0,0,1.6-5.7,7.4-8.2c0,0-4.9,27,24.5,36.8c0,0-14.7-5.7-19.6-18
	c0,0,11.4,22.9,42.5,15.5c0,0,8.2,14.7,5.7,42.5c0,0,4.9-18,2.5-31c0,0,2.5,9,1.6,18c0,0,4.1-15.5-2.5-32.7c0,0,9.8-9,7.4-18.8
	c0,0,0,5.7-2.5,9C179.7,272.5,168.3,266,168.3,266L168.3,266z"/>
<g>
	<path class="st2" d="M489.2,177.9v-2.6H489V155l-38.7-14.8c-2.1-0.9-3.8-2.3-5-4.1c0,0-12.9,31.6-37.5,31.6c-0.1,0-0.2,0-0.3,0
		v10.3v57.2v20.1c-0.3,3.8-2.9,7-6.7,8.2l-3.8,1.5l3.8,1.5c3.8,1.2,6.4,4.7,6.7,8.5v53.3c-0.1,0-0.1,0-0.2,0v9.9
		c0.1,0,0.2,0.1,0.2,0.1c0.3,0,39.2,17.3,39.2,17.3c0.3-0.3,25.2-31.9,46.8-30.5c-2.6-2.3-4.4-5.9-4.4-9.4v-48
		c-3.5,0-2.3,34.8-31.6,34.8l1.5,1.5c2.3,2.1,3.5,5.3,3.5,8.2v19.3l-28.4-11.1V162.4l28.4,10.8V189c0,20.5-7.3,23.7-15.5,22.5
		c21.7,8.5,24.9-24,47.1-24h3.8C495.1,186.7,489.5,183.2,489.2,177.9z"/>
	<path class="st2" d="M595.8,255.2v-48.9c0.1,0,0.1,0,0.2,0v-7.6c-0.3-0.1-0.5-0.2-0.5-0.2l-2.3-0.9l-39.5-15.2l-2-1.2
		c0,0.3-7.6,28.1-37.5,31v43c0,4.4-2.9,8.2-7,9.4h-0.3c4.4,1.2,7.3,5,7.3,9.4l-0.6,63.5l3.2,1.5l39.5,15.2l2,0.9
		c0,0,7.6-27.8,37.5-30.7v-50.4c0-4.4,2.9-8.2,7.3-9.4h-0.3C598.7,263.4,595.8,259.6,595.8,255.2z M569.2,330.4l-28.4-10.8V206
		l28.4,10.8V330.4z"/>
	<path class="st2" d="M713.3,195.8c0,0-9.4,6.7-29.3-14.3l-15.5,23.4c2.9,5,10.5,7,10.5,7v118.6l-28.4-10.8V203.4
		c4.4-2.6,7.6-7.6,7.6-7.6s-9.4,6.7-29.3-14.3l-15.5,23.4c2.9,5,10.5,7,10.5,7v43.3c0,4.4-2.9,8.2-7,9.4l-0.3,0.3
		c4.4,1.2,7.3,5,7.3,9.4v13.9l-0.3,48.3l42.4,17.7l2,1.2c0-0.3,2.6-9.7,10.8-18.2v50.1c0,0-26.1-16.7-46.8-16.7
		c-16.4,0-28.7,32.2-28.7,32.2c13.8-22.3,64.7,9.1,64.7,9.1s7.6-27.8,37.5-30.7V274.2c0-4.4,2.9-8.5,7.3-9.4l-0.3-0.3
		c-4.1-1.2-7-5-7-9.4v-51.8C710,200.7,713.3,195.8,713.3,195.8z"/>
	<path class="st2" d="M814.5,198.5c-0.1-0.1-0.2-0.1-0.2-0.1l-2.3-0.9l-39.5-15.2l-2-1.2c0,0.3-7.6,28.1-37.5,31v43
		c0,4.4-2.9,8.2-7,9.4h-0.3c4.4,1.2,7.3,5,7.3,9.4l0.3,64.1l2.3,0.9l39.5,15.2l2.1,0.9c0,0,7.6-27.8,37.5-30.7v-50.4
		c0-4.4,2.9-8.2,7.3-9.4h-0.3c-4.1-1.2-7-5-7-9.4v-29.7h-0.1V198.5z M788,330.4l-28.4-10.8V206l28.4,10.8V330.4z"/>
	<path class="st2" d="M875.9,184.1l11.1-13.8h-17.3v-33.1c0,0-6.7,33.1-26.6,33.1h-5.3l-7.9,13.8h13.2v71.1c0,4.4-2.9,8.2-7,9.4
		c4.1,1.2,7,5,7,9.4v65.3l17.6,16.4c2.9-11.4,23.4-25.2,23.4-29.3l-2.3,1.8c-2.9,2.6-7.6,2.6-10.5,0l-1.5-1.2v-53
		c0-4.4,2.9-8.2,7.3-9.4c-4.4-1.2-7.3-5-7.3-9.4v-71.1H875.9z"/>
	<path class="st2" d="M979.1,198.4l-2.3-0.6l-39.5-15.2l-2-1.2c0,0.3-7.6,27.8-37.5,30.7v43c0,4.4-2.9,8.2-7,9.4l-0.3,0.3
		c4.4,1.2,7.3,5,7.3,9.4l0.3,64.1l2.3,0.6l39.5,15.2l2,1.2c0-0.3,7.6-27.8,37.5-30.7v-12v-9.4c0-11.1,0.9-18.7,9.1-20.8
		c-19.3,0-16.7,25.8-40.7,25.8c2.9,0.9,5,3.5,5,6.7v0.6v7.6v7.3l-28.4-10.8v-51.2c25.5-2.9,34-44.8,60-44.8c-2.9-1.2-5-3.8-5-7v-10
		L979.1,198.4z M924.3,206l28.4,11.1v11.1c0,13.8-15.8,28.6-28.4,32.1V206z"/>
</g>
<g>
	<path class="st2" d="M523.5,147.1v2.5c0,0.4-0.2,0.6-0.6,0.6h-6.6c-0.1,0-0.2,0.1-0.2,0.2v21.3c0,0.4-0.2,0.6-0.6,0.6h-3.1
		c-0.4,0-0.6-0.2-0.6-0.6v-21.3c0-0.1-0.1-0.2-0.2-0.2h-6.3c-0.4,0-0.6-0.2-0.6-0.6v-2.5c0-0.4,0.2-0.6,0.6-0.6h17.6
		C523.3,146.5,523.5,146.7,523.5,147.1z"/>
	<path class="st2" d="M548.7,171.9l-4.8-10.5c0-0.1-0.1-0.1-0.3-0.1h-4.3c-0.1,0-0.2,0.1-0.2,0.2v10.3c0,0.4-0.2,0.6-0.6,0.6h-3.1
		c-0.4,0-0.6-0.2-0.6-0.6v-24.6c0-0.4,0.2-0.6,0.6-0.6h10c1.5,0,2.8,0.3,4,0.9c1.2,0.6,2,1.5,2.7,2.7c0.6,1.1,1,2.5,1,3.9
		c0,1.7-0.4,3.1-1.3,4.3c-0.9,1.2-2.1,2-3.6,2.5c-0.1,0-0.1,0.1-0.1,0.1c0,0.1,0,0.1,0,0.2l5.1,10.5l0.1,0.3c0,0.3-0.2,0.4-0.5,0.4
		h-3.2C549.1,172.3,548.8,172.1,548.7,171.9z M539.1,150.4v7.3c0,0.1,0.1,0.2,0.2,0.2h5.5c1.2,0,2.1-0.4,2.9-1.1
		c0.7-0.7,1.1-1.6,1.1-2.7c0-1.2-0.4-2.1-1.1-2.8c-0.7-0.7-1.7-1.1-2.9-1.1h-5.5C539.2,150.2,539.1,150.2,539.1,150.4z"/>
	<path class="st2" d="M581.1,171.8l-1.1-3.8c0-0.1-0.1-0.2-0.3-0.2H570c-0.1,0-0.2,0.1-0.3,0.2l-1.1,3.8c-0.1,0.3-0.3,0.5-0.7,0.5
		h-3.4c-0.2,0-0.3-0.1-0.4-0.2c-0.1-0.1-0.1-0.3-0.1-0.5L572,147c0.1-0.3,0.3-0.5,0.7-0.5h4.3c0.3,0,0.6,0.2,0.7,0.5l7.9,24.6
		c0,0,0,0.1,0,0.2c0,0.3-0.2,0.4-0.5,0.4h-3.4C581.4,172.3,581.2,172.1,581.1,171.8z M571.1,164.5h7.5c0.1,0,0.2-0.1,0.2-0.3
		l-3.8-12.5c0-0.1-0.1-0.1-0.1-0.1c-0.1,0-0.1,0-0.2,0.1l-3.8,12.5C570.9,164.4,571,164.5,571.1,164.5z"/>
	<path class="st2" d="M596.9,171.7v-24.6c0-0.4,0.2-0.6,0.6-0.6h2.9c0.3,0,0.6,0.1,0.7,0.4l10.3,16.9c0,0.1,0.1,0.1,0.2,0.1
		c0.1,0,0.1-0.1,0.1-0.2v-16.6c0-0.4,0.2-0.6,0.6-0.6h3.1c0.4,0,0.6,0.2,0.6,0.6v24.6c0,0.4-0.2,0.6-0.6,0.6h-3
		c-0.3,0-0.6-0.1-0.7-0.4l-10.3-17c0-0.1-0.1-0.1-0.2-0.1c-0.1,0-0.1,0.1-0.1,0.2l0,16.7c0,0.4-0.2,0.6-0.6,0.6h-3.1
		C597.1,172.3,596.9,172.1,596.9,171.7z"/>
	<path class="st2" d="M632.1,171.7c-1.4-0.6-2.5-1.5-3.3-2.6c-0.8-1.1-1.1-2.4-1.1-3.9v-0.8c0-0.4,0.2-0.6,0.6-0.6h3
		c0.4,0,0.6,0.2,0.6,0.6v0.6c0,1.1,0.5,2.1,1.5,2.8c1,0.7,2.3,1.1,4,1.1c1.5,0,2.6-0.3,3.4-1c0.8-0.6,1.1-1.5,1.1-2.5
		c0-0.7-0.2-1.3-0.6-1.8c-0.4-0.5-1-0.9-1.8-1.3c-0.8-0.4-1.9-0.9-3.5-1.5c-1.7-0.6-3.2-1.2-4.2-1.8c-1.1-0.6-2-1.3-2.7-2.3
		c-0.7-1-1.1-2.2-1.1-3.6c0-2.2,0.8-3.9,2.4-5.1c1.6-1.3,3.7-1.9,6.3-1.9c1.8,0,3.5,0.3,4.9,1c1.4,0.6,2.5,1.5,3.3,2.7
		c0.8,1.1,1.2,2.5,1.2,4v0.5c0,0.4-0.2,0.6-0.6,0.6h-3c-0.2,0-0.3,0-0.4-0.1c-0.1-0.1-0.2-0.2-0.2-0.3V154c0-1.2-0.5-2.1-1.4-2.9
		c-0.9-0.8-2.3-1.2-3.9-1.2c-1.4,0-2.4,0.3-3.2,0.8c-0.7,0.6-1.1,1.4-1.1,2.4c0,0.7,0.2,1.3,0.6,1.8c0.4,0.5,1,0.9,1.8,1.3
		c0.8,0.4,2,0.9,3.6,1.5c1.7,0.7,3.1,1.3,4.2,1.8c1,0.5,1.9,1.3,2.7,2.3c0.7,1,1.1,2.2,1.1,3.6c0,1.4-0.4,2.7-1.1,3.8
		c-0.7,1.1-1.8,1.9-3.2,2.5c-1.4,0.6-3,0.9-4.9,0.9C635.1,172.6,633.5,172.3,632.1,171.7z"/>
	<path class="st2" d="M672.2,147.4c1.2,0.6,2.1,1.5,2.7,2.7c0.7,1.2,1,2.5,1,4c0,1.5-0.3,2.8-1,4c-0.7,1.2-1.6,2-2.8,2.7
		c-1.2,0.6-2.6,0.9-4.2,0.9h-5.9c-0.1,0-0.2,0.1-0.2,0.2v9.7c0,0.4-0.2,0.6-0.6,0.6h-3.1c-0.4,0-0.6-0.2-0.6-0.6v-24.6
		c0-0.4,0.2-0.6,0.6-0.6h10C669.7,146.5,671.1,146.8,672.2,147.4z M670.5,157.2c0.8-0.7,1.1-1.7,1.1-2.9c0-1.2-0.4-2.2-1.1-3
		c-0.8-0.8-1.8-1.1-3-1.1h-5.5c-0.1,0-0.2,0.1-0.2,0.2v7.7c0,0.1,0.1,0.2,0.2,0.2h5.5C668.8,158.3,669.8,157.9,670.5,157.2z"/>
	<path class="st2" d="M690.9,171.5c-1.4-0.7-2.5-1.8-3.3-3.2c-0.8-1.4-1.2-3-1.2-4.8v-8.4c0-1.8,0.4-3.3,1.2-4.7
		c0.8-1.4,1.9-2.4,3.3-3.2c1.4-0.7,3-1.1,4.9-1.1c1.9,0,3.5,0.4,4.9,1.1c1.4,0.7,2.5,1.8,3.3,3.2c0.8,1.4,1.2,2.9,1.2,4.7v8.4
		c0,1.8-0.4,3.4-1.2,4.8c-0.8,1.4-1.9,2.4-3.3,3.2c-1.4,0.7-3.1,1.1-4.9,1.1C694,172.7,692.3,172.3,690.9,171.5z M699.5,167.5
		c0.9-1,1.4-2.2,1.4-3.8v-8.6c0-1.6-0.5-2.9-1.4-3.8c-0.9-1-2.2-1.4-3.7-1.4c-1.5,0-2.8,0.5-3.7,1.4c-0.9,1-1.4,2.2-1.4,3.8v8.6
		c0,1.6,0.5,2.8,1.4,3.8c0.9,1,2.2,1.4,3.7,1.4C697.4,169,698.6,168.5,699.5,167.5z"/>
	<path class="st2" d="M731.2,171.9l-4.8-10.5c0-0.1-0.1-0.1-0.3-0.1h-4.3c-0.1,0-0.2,0.1-0.2,0.2v10.3c0,0.4-0.2,0.6-0.6,0.6h-3.1
		c-0.4,0-0.6-0.2-0.6-0.6v-24.6c0-0.4,0.2-0.6,0.6-0.6h10c1.5,0,2.8,0.3,4,0.9c1.2,0.6,2,1.5,2.7,2.7c0.6,1.1,1,2.5,1,3.9
		c0,1.7-0.4,3.1-1.3,4.3c-0.9,1.2-2.1,2-3.6,2.5c-0.1,0-0.1,0.1-0.1,0.1c0,0.1,0,0.1,0,0.2l5.1,10.5l0.1,0.3c0,0.3-0.2,0.4-0.5,0.4
		h-3.2C731.6,172.3,731.3,172.1,731.2,171.9z M721.6,150.4v7.3c0,0.1,0.1,0.2,0.2,0.2h5.5c1.2,0,2.1-0.4,2.9-1.1
		c0.7-0.7,1.1-1.6,1.1-2.7c0-1.2-0.4-2.1-1.1-2.8c-0.7-0.7-1.7-1.1-2.9-1.1h-5.5C721.7,150.2,721.6,150.2,721.6,150.4z"/>
	<path class="st2" d="M764.6,147.1v2.5c0,0.4-0.2,0.6-0.6,0.6h-6.6c-0.1,0-0.2,0.1-0.2,0.2v21.3c0,0.4-0.2,0.6-0.6,0.6h-3.1
		c-0.4,0-0.6-0.2-0.6-0.6v-21.3c0-0.1-0.1-0.2-0.2-0.2h-6.3c-0.4,0-0.6-0.2-0.6-0.6v-2.5c0-0.4,0.2-0.6,0.6-0.6H764
		C764.4,146.5,764.6,146.7,764.6,147.1z"/>
	<path class="st2" d="M792.8,150.2h-12.4c-0.1,0-0.2,0.1-0.2,0.2v6.8c0,0.1,0.1,0.2,0.2,0.2h8.3c0.4,0,0.6,0.2,0.6,0.6v2.5
		c0,0.4-0.2,0.6-0.6,0.6h-8.3c-0.1,0-0.2,0.1-0.2,0.2v7c0,0.1,0.1,0.2,0.2,0.2h12.4c0.4,0,0.6,0.2,0.6,0.6v2.5
		c0,0.4-0.2,0.6-0.6,0.6h-16.3c-0.4,0-0.6-0.2-0.6-0.6v-24.6c0-0.4,0.2-0.6,0.6-0.6h16.3c0.4,0,0.6,0.2,0.6,0.6v2.5
		C793.4,150,793.2,150.2,792.8,150.2z"/>
	<path class="st2" d="M808.5,171.7c-1.4-0.6-2.5-1.5-3.3-2.6c-0.8-1.1-1.1-2.4-1.1-3.9v-0.8c0-0.4,0.2-0.6,0.6-0.6h3
		c0.4,0,0.6,0.2,0.6,0.6v0.6c0,1.1,0.5,2.1,1.5,2.8c1,0.7,2.3,1.1,4,1.1c1.5,0,2.6-0.3,3.4-1c0.8-0.6,1.1-1.5,1.1-2.5
		c0-0.7-0.2-1.3-0.6-1.8c-0.4-0.5-1-0.9-1.8-1.3c-0.8-0.4-1.9-0.9-3.5-1.5c-1.7-0.6-3.2-1.2-4.2-1.8s-2-1.3-2.7-2.3
		c-0.7-1-1.1-2.2-1.1-3.6c0-2.2,0.8-3.9,2.4-5.1c1.6-1.3,3.7-1.9,6.3-1.9c1.8,0,3.5,0.3,4.9,1c1.4,0.6,2.5,1.5,3.3,2.7
		c0.8,1.1,1.2,2.5,1.2,4v0.5c0,0.4-0.2,0.6-0.6,0.6h-3c-0.2,0-0.3,0-0.4-0.1c-0.1-0.1-0.2-0.2-0.2-0.3V154c0-1.2-0.5-2.1-1.4-2.9
		c-0.9-0.8-2.3-1.2-3.9-1.2c-1.4,0-2.4,0.3-3.2,0.8c-0.7,0.6-1.1,1.4-1.1,2.4c0,0.7,0.2,1.3,0.6,1.8c0.4,0.5,1,0.9,1.8,1.3
		c0.8,0.4,2,0.9,3.6,1.5c1.7,0.7,3.1,1.3,4.2,1.8c1,0.5,1.9,1.3,2.7,2.3c0.7,1,1.1,2.2,1.1,3.6c0,1.4-0.4,2.7-1.1,3.8
		c-0.7,1.1-1.8,1.9-3.2,2.5c-1.4,0.6-3,0.9-4.9,0.9C811.5,172.6,809.9,172.3,808.5,171.7z"/>
</g>
</svg>
