<?xml version="1.0" encoding="utf-8"?>
<!-- Generator: Adobe Illustrator 25.0.0, SVG Export Plug-In . SVG Version: 6.00 Build 0)  -->
<svg version="1.1" id="Layer_1" xmlns="http://www.w3.org/2000/svg" xmlns:xlink="http://www.w3.org/1999/xlink" x="0px" y="0px"
	 viewBox="0 0 64 64" style="enable-background:new 0 0 64 64;" xml:space="preserve">
<style type="text/css">
	.st0{fill:#F47F2E;}
</style>
<g>
	<g>
		<path class="st0" d="M12.7,43.6c3.2,5.3,7.8,8.8,13.8,10.3c6,1.5,11.7,0.7,17-2.5c1.4-0.9,2.7-1.8,3.9-2.9
			C35.7,32,23.3,25.6,10.4,29.3c14.2-7,29.2,0,44.9,20.8l1.5-0.9c-1.2-1.7-4-5.2-5-6.3c0.2-0.4,0.6-1.2,1-2.2
			C41.7,28.1,31.7,23.6,22,24.8c9.9-4.8,22.2,0.4,36.2,15.3l1.4-0.8c-1.3-1.5-3.8-4.1-5.1-5.4c0.4-4.7-0.6-9.2-3.1-13.4
			c-3.2-5.3-7.8-8.8-13.8-10.3c-6.1-1.5-11.7-0.7-17,2.5c-5.3,3.2-8.8,7.8-10.3,13.8C8.7,32.5,9.5,38.2,12.7,43.6z"/>
	</g>
</g>
</svg>
