<?xml version="1.0" encoding="utf-8"?>
<!-- Generator: Adobe Illustrator 25.1.0, SVG Export Plug-In . SVG Version: 6.00 Build 0)  -->
<svg version="1.1" id="Layer_1" xmlns="http://www.w3.org/2000/svg" xmlns:xlink="http://www.w3.org/1999/xlink" x="0px" y="0px"
	 viewBox="0 0 64 64" style="enable-background:new 0 0 64 64;" xml:space="preserve">
<style type="text/css">
	.st0{fill:#89D3D2;}
	.st1{fill:#30B6BB;}
	.st2{fill:#FB45A1;}
	.st3{fill:#F8EBA0;}
</style>
<g>
	<g>
		<path class="st0" d="M35.6,34.1c0,0-0.5-0.8-1.2-1.5c0,0-0.9,2.3-2.5,3.3c1.5-5.7-0.7-10.2-4.3-12.3c2.6,2.2,2.5,5.2,2.5,5.2
			c-0.3-0.5-1-0.9-1-0.9c1.3,4.5-1.7,7.7-1.7,7.7c0.1-0.4-0.2-1.2-0.2-1.2c-2.3,2.5-5.1,2.6-5.1,2.6c4.1-2.8,6.3-10,3.6-14.2
			c-1.6,1.2-3,2.3-4.1,3.5c-1.1,1.2-2,2.3-2.6,3.5c-1.4,2.2-2.5,4.6-3.2,7.1c-0.7,2.5-1.2,5.2-1.1,7.9c0,1.3,0.2,2.7,0.5,4.1
			c0.1,0.3,0.1,0.6,0.2,0.8c0.1,0.2,0.1,0.5,0.2,0.7c-0.1-0.1-0.2-0.3-0.3-0.4c-6.5-8.4-3.9-23.7,9.4-28.2c-3.9-3.3-12-3.6-18.4,2.1
			c0,0,0.8-3.4,3.1-5.3c-0.1,0-1,0-1.7,0.4c0,0,3.9-4.9,8.4-2.9c0,0-0.5-0.7-1.4-1.3c3.6-0.4,7.2,1.2,9.2,3.5
			c-3-4.9-9.7-7.8-14.5-6.7c3.7-2.9,6.3-2,6.3-2C15.2,8.8,14,8.3,14,8.3c5.4-1.2,9.1,3.2,9.1,3.2c-0.2-2.3-1.4-3.9-1.4-3.9
			c5.7,4.4,6.5,9,5,12.9c2.2-3.5,3.2-9.6-0.1-15.1c0,0,4,1.6,6.3,5.7c0,0,0.5-0.8,0.7-2.2c0,0,3.3,4.7-1.3,9.2c0,0,0.8,0.1,1.6-0.5
			c0,0-1.8,3.3-5.6,4.5c4.7,0,8.2,3,8.9,5.8c0,0-1.5-1.1-2.3-1.4C34.8,26.5,37.3,29.6,35.6,34.1z"/>
		<path class="st0" d="M41.6,55.9c-5.3,3.2-11.8,3.8-17.7,1.1c-1.1-0.6-2.2-1.3-3.1-2.2c-0.9-0.9-1.7-1.9-2.3-2.9
			c-1.2-2.2-1.8-4.6-1.8-7.1c-0.1-2.4,0.3-4.8,1-7.1c0,0.5,0.1,0.9,0.2,1.4c0.1,0.9,0.4,1.9,0.7,2.8c0.6,1.8,1.5,3.6,2.6,5.1
			c1.1,1.6,2.4,3,3.8,4.3c0.7,0.6,1.5,1.3,2.2,1.8c0.8,0.6,1.6,1.1,2.5,1.5c1.8,0.9,3.7,1.5,5.6,1.8c2,0.3,4,0.1,6-0.4
			C41.3,55.9,41.4,55.9,41.6,55.9z"/>
		<path class="st1" d="M41.6,55.9c-5.3,3.2-11.8,3.8-17.7,1.1c-1.1-0.6-2.2-1.3-3.1-2.2c-0.9-0.9-1.7-1.9-2.3-2.9
			c-1.2-2.2-1.8-4.6-1.8-7.1c-0.1-2.4,0.3-4.8,1-7.1C15.3,48.9,26.6,61.8,41.6,55.9z"/>
		<g>
			<path class="st2" d="M52,30.9l-2.4-1.4c0-1.5,0-3.6,0-5.8l8.1,2.9l-0.2-1.8l-8-5c0-0.1,0-0.3,0-0.4c-0.1-4.1-0.9-5-1.8-5.2
				c-0.1,0-0.1,0-0.2,0c-0.8,0.4-1.4,1.4-0.9,5.5c0,0.1,0,0.3,0.1,0.4l-7,6.3l0.2,1.8l7.4-4.3c0.4,2.2,0.7,4.3,1,5.7l-2.2,1.8
				l0.1,1.2c1.3,13.1-11.4,22.4-21,15.5c-0.7-0.5-1.4-1-2-1.6C30.8,55.2,50.8,57.6,52,30.9z"/>
			<path class="st3" d="M44,33.2l-2,1.7c0.1,3.7-0.5,7.6-2.6,10.9C42.7,43.4,43.9,38,44,33.2z"/>
			<path class="st3" d="M56,33.2l-1.4-0.8c0,4.4-0.9,8.4-1.7,10.5C54.3,40.6,55.5,36.5,56,33.2z"/>
			<path class="st3" d="M52,30.9c-1.2,26.7-21.1,24.4-28.8,15.7c0.8,1.1,1.8,2.2,2.9,3.2c0.7,0.6,1.3,1.2,2.1,1.8
				c0.7,0.5,1.4,1,2.2,1.4c1.6,0.8,3.3,1.4,5,1.7c1.8,0.3,3.6,0.2,5.4-0.2c1.8-0.4,3.4-1.3,4.9-2.4c1.4-1.1,2.7-2.6,3.7-4.2
				c2.3-4.3,3.5-9.6,2.8-15.7L52,30.9z"/>
		</g>
		<path class="st1" d="M15.3,48.9c0.1,0.3,0.1,0.6,0.2,0.8L15.4,50C10,40,16.3,26,25.7,22.9c-1.6,1.2-3,2.3-4.1,3.5
			c-1.1,1.2-2,2.3-2.6,3.5c-1.4,2.2-2.5,4.6-3.2,7.1c-0.7,2.5-1.2,5.2-1.1,7.9C14.8,46.2,14.9,47.6,15.3,48.9z"/>
	</g>
</g>
</svg>
