<?xml version="1.0" encoding="utf-8"?>
<!-- Generator: Adobe Illustrator 25.0.1, SVG Export Plug-In . SVG Version: 6.00 Build 0)  -->
<svg version="1.1" id="Layer_1" xmlns="http://www.w3.org/2000/svg" xmlns:xlink="http://www.w3.org/1999/xlink" x="0px" y="0px"
	 viewBox="0 0 100 100" style="enable-background:new 0 0 100 100;" xml:space="preserve">
<style type="text/css">
	.st0{fill:#FFFFFF;}
	.st1{fill:url(#SVGID_1_);}
	.st2{fill:none;}
	.st3{fill:url(#SVGID_2_);}
	.st4{fill:url(#SVGID_3_);}
	.st5{fill-rule:evenodd;clip-rule:evenodd;fill:url(#SVGID_4_);}
	.st6{fill-rule:evenodd;clip-rule:evenodd;fill:url(#SVGID_5_);}
</style>
<g id="bg_1_">
	<rect y="0" class="st0" width="100" height="100"/>
	
		<linearGradient id="SVGID_1_" gradientUnits="userSpaceOnUse" x1="-626.3343" y1="-3851.501" x2="-634.9582" y2="-3836.5637" gradientTransform="matrix(7.92 0 0 -7.92 5044.7183 -30394.7363)">
		<stop  offset="0" style="stop-color:#FFFFFF;stop-opacity:0"/>
		<stop  offset="1" style="stop-color:#FFFFFF;stop-opacity:0.2"/>
	</linearGradient>
	<rect y="0" class="st1" width="100" height="100"/>
</g>
<rect y="0" class="st2" width="100" height="100"/>
<g>
	<linearGradient id="SVGID_2_" gradientUnits="userSpaceOnUse" x1="26.0554" y1="73.7452" x2="87.0312" y2="32.2434">
		<stop  offset="0.3627" style="stop-color:#F0585E"/>
		<stop  offset="0.9988" style="stop-color:#ED1949"/>
	</linearGradient>
	<path class="st3" d="M82.4,26.7c-4.3-7.6-13.8-8.5-19.8-4.6c-9.8,6.4-19.5,21.8-29.9,26.7c-3.2,1.5-3.3,1-8.7,3
		c4.7,1.6,10.3,1.5,15.1,0.7c7.6-1.4,13.3-6,19.1-10.7l-2-2.1l0.6-0.5l3.9,1.7c0.3-0.3,0.7-0.6,1-0.9l4-3.1L59,30.5l1.1-0.8l6.6,2.4
		c0.3-0.3,0.6-0.5,0.9-0.8l0.5-0.4c0.1-0.1,0.3-0.1,0.4,0l0.3,0.4l0.2,0.2l0.3,0.4c0.1,0.1,0.1,0.3-0.1,0.4l-0.5,0.4
		c0,0-0.1,0.1-0.1,0.1l1.8,0.7l3-2.3c3.1-2.4,4.1-1.2,4.1-1.2s1,1.2-2.2,3.6l-3,2.3l0.2,1.9c0,0,0.1-0.1,0.1-0.1l0.5-0.4
		c0.1-0.1,0.3-0.1,0.4,0l0.3,0.4l0.2,0.2l0.3,0.4c0.1,0.1,0.1,0.3-0.1,0.4L73.5,39c-0.3,0.2-0.6,0.4-1,0.6l0.7,7l-1.1,0.8l-4.3-8.2
		l-4,3.1c-0.4,0.3-0.8,0.5-1.2,0.8l0.6,4.2l-0.6,0.5L61,45.3l-0.1,0.1l-7.4,5.9c-5.6,4.5-13.1,9.8-13.5,16.3
		c-0.4,7.2,3.7,12.9,9.9,15.9c0,0,0,0,0.1,0c12.2-6,29.9-21.9,34.1-38.1c0.4-1.4,0.6-2.7,0.8-4C85.6,35.9,84.6,30.8,82.4,26.7z"/>
	<linearGradient id="SVGID_3_" gradientUnits="userSpaceOnUse" x1="31.104" y1="80.9932" x2="92.0798" y2="39.4913">
		<stop  offset="0" style="stop-color:#ED1949"/>
		<stop  offset="1" style="stop-color:#F0585E"/>
	</linearGradient>
	<path class="st4" d="M61,45.3l-7.4,5.9c-5.6,4.5-13.1,9.8-13.5,16.3c-0.4,7.2,3.7,12.9,9.9,15.9c0,0,0,0,0.1,0
		C43.1,72.3,54.8,53.8,61,45.3z"/>
	<linearGradient id="SVGID_4_" gradientUnits="userSpaceOnUse" x1="10.6863" y1="50.8137" x2="49.7095" y2="10.9234">
		<stop  offset="0.3627" style="stop-color:#F0585E"/>
		<stop  offset="1" style="stop-color:#ED1949"/>
	</linearGradient>
	<path class="st5" d="M49.9,25.9c-1.1-1.4-2.2-2.7-3.4-3.8c-12.9-12.2-29-2.9-31.4,12.3c-1.1,10,8.4,14.5,16.4,10.4
		c4.1-2.1,8.7-6,11.6-9.1C45.7,32.7,50.2,28.3,49.9,25.9z"/>
	<linearGradient id="SVGID_5_" gradientUnits="userSpaceOnUse" x1="26.7748" y1="58.5163" x2="45.6101" y2="34.5732">
		<stop  offset="0" style="stop-color:#ED1949"/>
		<stop  offset="1" style="stop-color:#F0585E"/>
	</linearGradient>
	<path class="st6" d="M78.7,21.6c-6.9-6.9-18.4-7.7-28.8,4.2c-2.5,2.9-5,6.2-7.7,9.2c-2.8,3.1-6.6,6.9-10.7,9
		c-7.9,4-17.1-0.4-16.4-9.6c-1.5,9.7,2.7,15.3,8.9,17.4c3.7,0.8,7.2,0.1,10.5-1.4c10.4-4.9,18.2-18.8,28-25.2
		c6-3.9,15.2-5.3,19.9,1.5C81.4,24.7,80.2,23,78.7,21.6z"/>
	<path class="st2" d="M62.3,43.5c-0.4,0.6-0.9,1.2-1.4,1.9l1.6-1.3L62.3,43.5z"/>
</g>
</svg>
