<?xml version="1.0" encoding="utf-8"?>
<!-- Generator: Adobe Illustrator 23.0.3, SVG Export Plug-In . SVG Version: 6.00 Build 0)  -->
<svg version="1.1" id="Signal.svg" xmlns="http://www.w3.org/2000/svg" xmlns:xlink="http://www.w3.org/1999/xlink" x="0px" y="0px"
	 viewBox="0 0 16 16" style="enable-background:new 0 0 16 16;" xml:space="preserve">
<style type="text/css">
	.st0{fill:#FFFFFF;}
</style>
<path class="st0" d="M1.1,12.5c-0.1,0-0.3,0-0.4-0.1c-0.1-0.1-0.3-0.1-0.4-0.3C0.2,12,0.1,12,0.1,11.8C0,11.7,0,11.5,0,11.3
	c0-0.1,0-0.1,0-0.2C0,11.1,0.1,11,0.1,11s0.1-0.1,0.1-0.2c0.1-0.1,0.1-0.1,0.1-0.2c0.4-0.4,1.1-0.4,1.6,0C1.9,10.7,2,10.7,2,10.8
	c0.1,0.1,0.1,0.1,0.1,0.2c0,0.1,0.1,0.1,0.1,0.2c0,0.1,0,0.1,0,0.2s0,0.1,0,0.3s-0.1,0.1-0.1,0.2c0,0.1-0.1,0.1-0.1,0.2
	c-0.1,0.1-0.1,0.1-0.1,0.2C1.7,12.3,1.4,12.5,1.1,12.5z"/>
<path class="st0" d="M14.9,12.5c-0.6,0-1.1-0.5-1.1-1.1V4.7c0-0.6,0.5-1.1,1.1-1.1S16,4,16,4.7v6.8C15.9,12,15.5,12.5,14.9,12.5z"/>
<path class="st0" d="M11.4,12.5c-0.6,0-1.1-0.5-1.1-1.1V7.2c0-0.6,0.5-1.1,1.1-1.1s1.1,0.5,1.1,1.1v4.2C12.5,12,12.1,12.5,11.4,12.5
	z"/>
<path class="st0" d="M8,12.5c-0.6,0-1.1-0.5-1.1-1.1V9.2C6.9,8.5,7.4,8,8,8s1.1,0.5,1.1,1.1v2.2C9.1,12,8.6,12.5,8,12.5z"/>
<path class="st0" d="M4.6,12.5c-0.6,0-1.1-0.5-1.1-1.1v-0.8c0-0.6,0.5-1.1,1.1-1.1s1.1,0.5,1.1,1.1v0.8C5.6,12,5.2,12.5,4.6,12.5z"
	/>
</svg>
