<?xml version="1.0" encoding="utf-8"?>
<!-- Generator: Adobe Illustrator 25.0.0, SVG Export Plug-In . SVG Version: 6.00 Build 0)  -->
<svg version="1.1" id="Layer_1" xmlns="http://www.w3.org/2000/svg" xmlns:xlink="http://www.w3.org/1999/xlink" x="0px" y="0px"
	 viewBox="0 0 100 100" style="enable-background:new 0 0 100 100;" xml:space="preserve">
<style type="text/css">
	.st0{fill:#FFFFFF;}
	.st1{fill:url(#SVGID_1_);}
	.st2{fill:url(#SVGID_2_);}
	.st3{fill:url(#SVGID_3_);}
	.st4{fill:url(#SVGID_4_);}
	.st5{fill:#006932;}
	.st6{fill:url(#SVGID_5_);}
	.st7{fill:url(#SVGID_6_);}
	.st8{filter:url(#Adobe_OpacityMaskFilter);}
	.st9{mask:url(#SVGID_7_);fill:url(#SVGID_8_);}
	.st10{fill:#C5451B;}
	.st11{fill:url(#SVGID_9_);}
	.st12{fill:url(#SVGID_10_);}
	.st13{filter:url(#Adobe_OpacityMaskFilter_1_);}
	.st14{mask:url(#SVGID_11_);fill:url(#SVGID_12_);}
	.st15{fill:#00289E;}
</style>
<g id="bg_1_">
	<rect class="st0" width="100" height="100"/>
	
		<linearGradient id="SVGID_1_" gradientUnits="userSpaceOnUse" x1="84.1506" y1="35.1506" x2="15.8494" y2="-83.1506" gradientTransform="matrix(1 0 0 1 0 74)">
		<stop  offset="0" style="stop-color:#FFFFFF;stop-opacity:0"/>
		<stop  offset="1" style="stop-color:#FFFFFF;stop-opacity:0.4"/>
	</linearGradient>
	<rect class="st1" width="100" height="100"/>
</g>
<g>
	<linearGradient id="SVGID_2_" gradientUnits="userSpaceOnUse" x1="32.8553" y1="75.0642" x2="32.8553" y2="15.795">
		<stop  offset="0" style="stop-color:#248413"/>
		<stop  offset="0.6869" style="stop-color:#73B144"/>
		<stop  offset="1" style="stop-color:#9EDF60"/>
	</linearGradient>
	<path class="st2" d="M50,70.3c-8.5,4.9-22,8.4-29.1-2.1c-2.8-3.7-5.2-11.4-5.2-18.2c0-18.5,14.6-33.5,32.9-34.2
		c-12.5,0.9-16.2,14.3-16.2,24.1v11.2c0,5.6,3,10.8,7.8,13.6L50,70.3z"/>
	<linearGradient id="SVGID_3_" gradientUnits="userSpaceOnUse" x1="27.0256" y1="19.0349" x2="27.0256" y2="71.0694">
		<stop  offset="1.315370e-03" style="stop-color:#1C9834"/>
		<stop  offset="0.6203" style="stop-color:#58A968"/>
		<stop  offset="1" style="stop-color:#A0D060"/>
	</linearGradient>
	<path class="st3" d="M38.3,74.7c-15.7-9-14.1-21.3-14.1-34.8c0-14.3,9.1-19.8,10.3-20.5C23.4,25.1,15.7,36.6,15.7,50
		c0,6.8,2.4,14.5,5.2,18.2C25.2,74.6,31.9,75.8,38.3,74.7z"/>
	<linearGradient id="SVGID_4_" gradientUnits="userSpaceOnUse" x1="27.0256" y1="75.453" x2="27.0256" y2="23.4185">
		<stop  offset="0.1147" style="stop-color:#3C9A13"/>
		<stop  offset="0.6791" style="stop-color:#7FB144"/>
		<stop  offset="1" style="stop-color:#A0DF60"/>
	</linearGradient>
	<path class="st4" d="M38.3,74.7c-15.7-9-14.1-21.3-14.1-34.8c0-14.3,9.1-19.8,10.3-20.5C23.4,25.1,15.7,36.6,15.7,50
		c0,6.8,2.4,14.5,5.2,18.2C25.2,74.6,31.9,75.8,38.3,74.7z"/>
	<path class="st5" d="M50,70.3c-8.5,4.9-22,8.4-29-2c0.5,0.6,7.1,7.9,23.1-1.4L50,70.3z"/>
	
		<linearGradient id="SVGID_5_" gradientUnits="userSpaceOnUse" x1="2156.5151" y1="-914.3367" x2="2156.5151" y2="-973.6083" gradientTransform="matrix(-0.5 -0.866 0.866 -0.5 1950.327 1462.7332)">
		<stop  offset="0" style="stop-color:#F26B22"/>
		<stop  offset="0.3491" style="stop-color:#F28521"/>
		<stop  offset="0.8584" style="stop-color:#FABB15"/>
	</linearGradient>
	<path class="st6" d="M67.6,39.9c8.5,4.9,18.3,14.9,12.7,26.2c-1.8,4.3-7.2,10.2-13.1,13.6c-16,9.2-36.3,4.1-46.1-11.4
		c7,10.4,20.5,6.9,29,2l9.7-5.6c4.8-2.8,7.8-8,7.8-13.6L67.6,39.9z"/>
	
		<linearGradient id="SVGID_6_" gradientUnits="userSpaceOnUse" x1="2150.6858" y1="-970.3671" x2="2150.6858" y2="-918.3309" gradientTransform="matrix(-0.5 -0.866 0.866 -0.5 1950.327 1462.7332)">
		<stop  offset="0" style="stop-color:#FDD786"/>
		<stop  offset="1" style="stop-color:#FABB15"/>
	</linearGradient>
	<path class="st7" d="M77.2,47.8c0.1,18.1-11.4,22.9-23.1,29.6c-12.4,7.1-21.7,2-22.9,1.3c10.5,6.9,24.3,7.7,35.9,1
		c5.9-3.4,11.3-9.4,13.1-13.6C83.7,59.2,81.4,52.8,77.2,47.8z"/>
	<defs>
		<filter id="Adobe_OpacityMaskFilter" filterUnits="userSpaceOnUse" x="31.2" y="47.8" width="50.7" height="36.5">
			<feFlood  style="flood-color:white;flood-opacity:1" result="back"/>
			<feBlend  in="SourceGraphic" in2="back" mode="normal"/>
		</filter>
	</defs>
	<mask maskUnits="userSpaceOnUse" x="31.2" y="47.8" width="50.7" height="36.5" id="SVGID_7_">
		<g class="st8">
		</g>
	</mask>
	
		<linearGradient id="SVGID_8_" gradientUnits="userSpaceOnUse" x1="2150.686" y1="-970.3676" x2="2150.686" y2="-918.3313" gradientTransform="matrix(-0.5 -0.866 0.866 -0.5 1950.3275 1462.7332)">
		<stop  offset="0.1836" style="stop-color:#FFC83A"/>
		<stop  offset="0.4388" style="stop-color:#FFAB2A"/>
		<stop  offset="0.726" style="stop-color:#FF901B"/>
		<stop  offset="0.8953" style="stop-color:#FF8616"/>
	</linearGradient>
	<path class="st9" d="M77.2,47.8c0.1,18.1-11.4,22.9-23.1,29.6c-12.4,7.1-21.7,2-22.9,1.3c10.5,6.9,24.3,7.7,35.9,1
		c5.9-3.4,11.3-9.4,13.1-13.6C83.7,59.2,81.4,52.8,77.2,47.8z"/>
	<path class="st10" d="M67.6,39.9c8.5,4.9,18.3,14.8,12.7,26.2c0.3-0.7,3.3-10.1-12.7-19.3L67.6,39.9z"/>
	
		<linearGradient id="SVGID_9_" gradientUnits="userSpaceOnUse" x1="1952.0587" y1="1419.3276" x2="1952.0587" y2="1360.0571" gradientTransform="matrix(-0.5 0.866 -0.866 -0.5 2242.0593 -958.1559)">
		<stop  offset="0" style="stop-color:#006CD3"/>
		<stop  offset="1" style="stop-color:#1A328D"/>
	</linearGradient>
	<path class="st11" d="M32.4,39.9c0-9.8,3.7-23.3,16.3-24.1c4.6-0.6,12.5,1.1,18.4,4.6c16,9.2,21.7,29.4,13.2,45.6
		c5.5-11.3-4.3-21.2-12.8-26.1l-9.7-5.6c-4.9-2.8-10.8-2.8-15.7,0L32.4,39.9z"/>
	<linearGradient id="SVGID_10_" gradientUnits="userSpaceOnUse" x1="34.4815" y1="33.8049" x2="84.2864" y2="33.8049">
		<stop  offset="0.1836" style="stop-color:#00BBF2"/>
		<stop  offset="0.454" style="stop-color:#009BF2"/>
		<stop  offset="0.7316" style="stop-color:#0080F2"/>
		<stop  offset="0.8953" style="stop-color:#0076F2"/>
	</linearGradient>
	<path class="st12" d="M34.5,27.6C50.1,18.5,60,26,71.7,32.8C84,39.9,84.3,50.6,84.2,51.9c0.7-12.5-5.5-24.9-17.1-31.6
		c-5.9-3.4-13.8-5.1-18.4-4.6C41.1,16.3,36.7,21.4,34.5,27.6z"/>
	<defs>
		<filter id="Adobe_OpacityMaskFilter_1_" filterUnits="userSpaceOnUse" x="34.5" y="15.7" width="49.8" height="36.3">
			<feFlood  style="flood-color:white;flood-opacity:1" result="back"/>
			<feBlend  in="SourceGraphic" in2="back" mode="normal"/>
		</filter>
	</defs>
	<mask maskUnits="userSpaceOnUse" x="34.5" y="15.7" width="49.8" height="36.3" id="SVGID_11_">
		<g class="st13">
		</g>
	</mask>
	
		<linearGradient id="SVGID_12_" gradientUnits="userSpaceOnUse" x1="1946.23" y1="1363.297" x2="1946.23" y2="1415.333" gradientTransform="matrix(-0.5 0.866 -0.866 -0.5 2242.0593 -958.1559)">
		<stop  offset="0" style="stop-color:#006CE2"/>
		<stop  offset="0.3205" style="stop-color:#0069DB"/>
		<stop  offset="1" style="stop-color:#0064D0"/>
	</linearGradient>
	<path class="st14" d="M34.5,27.6C50.1,18.5,60,26,71.7,32.8C84,39.9,84.3,50.6,84.2,51.9c0.7-12.5-5.5-24.9-17.1-31.6
		c-5.9-3.4-13.8-5.1-18.4-4.6C41.1,16.3,36.7,21.4,34.5,27.6z"/>
	<path class="st15" d="M32.4,39.9c0-9.8,3.7-23.3,16.3-24.1C48,15.9,38.3,18,38.4,36.5L32.4,39.9z"/>
</g>
</svg>
