<?xml version="1.0" encoding="utf-8"?>
<!-- Generator: Adobe Illustrator 24.3.0, SVG Export Plug-In . SVG Version: 6.00 Build 0)  -->
<svg version="1.1" id="Layer_1" xmlns="http://www.w3.org/2000/svg" xmlns:xlink="http://www.w3.org/1999/xlink" x="0px" y="0px"
	 viewBox="0 0 22 22" style="enable-background:new 0 0 22 22;" xml:space="preserve">
<style type="text/css">
	.st0{fill:#4285F4;}
	.st1{fill:#EC1C24;}
</style>
<polygon class="st0" points="11,22 20.5,16.5 20.5,5.5 11,0 1.5,5.5 1.5,16.5 "/>
<polygon points="18.7,15.4 11,19.8 3.3,15.4 3.3,6.5 11,2.1 18.7,6.5 "/>
<path d="M11,19.8l7.7-4.4l0-8.9L11,2.1L3.3,6.5l0,8.9L11,19.8z"/>
<polygon class="st1" points="11,16.9 16.1,13.9 16.2,10.7 12.4,12.9 12.4,5.8 11,5 9.6,5.8 9.6,12.8 5.9,10.6 5.8,10.7 5.8,13.9 "/>
</svg>
