<?xml version="1.0" encoding="utf-8"?>
<!-- Generator: Adobe Illustrator 24.3.0, SVG Export Plug-In . SVG Version: 6.00 Build 0)  -->
<svg version="1.1" id="Layer_1" xmlns="http://www.w3.org/2000/svg" xmlns:xlink="http://www.w3.org/1999/xlink" x="0px" y="0px"
	 viewBox="0 0 22 22" style="enable-background:new 0 0 22 22;" xml:space="preserve">
<style type="text/css">
	.st0{fill:#4285F4;}
	.st1{fill:#80C243;}
</style>
<path class="st0" d="M11,0L1.5,5.5l0,11L11,22l9.5-5.5l0-11L11,0z M3.3,6.6L11,2.2l7.7,4.4l0,8.9L11,19.9l-7.7-4.4L3.3,6.6z"/>
<path d="M11,2.2L3.3,6.6l0,8.9l7.7,4.4l7.7-4.4l0-8.9L11,2.2z"/>
<polygon class="st1" points="11,5.1 5.9,8.1 5.8,11.3 9.6,9.1 9.6,16.2 11,17 12.4,16.2 12.4,9.2 16.1,11.4 16.2,11.3 16.2,8.1 "/>
</svg>
