<?xml version="1.0" encoding="utf-8"?>
<!-- Generator: Adobe Illustrator 25.4.1, SVG Export Plug-In . SVG Version: 6.00 Build 0)  -->
<svg version="1.1" id="Layer_1" xmlns="http://www.w3.org/2000/svg" xmlns:xlink="http://www.w3.org/1999/xlink" x="0px" y="0px"
	 viewBox="0 0 64 64" style="enable-background:new 0 0 64 64;" xml:space="preserve">
<path d="M60.2,28L37.6,2.5C34.9-0.6,30.1-0.9,27,1.9c-0.2,0.2-0.4,0.4-0.6,0.6L3.8,28c-1.2,1.4-1.9,3.2-1.9,5v19.7
	c0,6.2,5,11.3,11.3,11.3h7.5c2.1,0,3.8-1.7,3.8-3.8v-7.1c-0.1-3.8,2.6-7.1,6.3-7.8c4.1-0.7,8,2.1,8.7,6.2c0.1,0.4,0.1,0.8,0.1,1.3
	v7.5c0,2.1,1.7,3.8,3.8,3.8h7.5c6.2,0,11.3-5.1,11.3-11.3V33C62.1,31.1,61.5,29.3,60.2,28z"/>
<path d="M60.2,28L37.6,2.5C34.9-0.6,30.1-0.9,27,1.9c-0.2,0.2-0.4,0.4-0.6,0.6L3.8,28c-1.2,1.4-1.9,3.2-1.9,5v19.7
	c0,6.2,5,11.3,11.3,11.3h7.5c2.1,0,3.8-1.7,3.8-3.8v-7.1c-0.1-3.8,2.6-7.1,6.3-7.8c4.1-0.7,8,2.1,8.7,6.2c0.1,0.4,0.1,0.8,0.1,1.3
	v7.5c0,2.1,1.7,3.8,3.8,3.8h7.5c6.2,0,11.3-5.1,11.3-11.3V33C62.1,31.1,61.5,29.3,60.2,28z"/>
</svg>
