<?xml version="1.0" encoding="utf-8"?>
<!-- Generator: Adobe Illustrator 24.1.2, SVG Export Plug-In . SVG Version: 6.00 Build 0)  -->
<svg version="1.1" id="Layer_1" xmlns="http://www.w3.org/2000/svg" xmlns:xlink="http://www.w3.org/1999/xlink" x="0px" y="0px"
	 viewBox="0 0 64 64" style="enable-background:new 0 0 64 64;" xml:space="preserve">
<path d="M24.5,56.5h15.1c0,4.2-3.4,7.5-7.5,7.5S24.5,60.6,24.5,56.5z M58.4,47.1c0,3.1-2.5,5.6-5.6,5.6H11.3c-3.1,0-5.6-2.5-5.6-5.6
	c0-3.1,2.5-5.6,5.6-5.6h1.9V26.4c0-8.9,6.3-16.7,15.1-18.4V3.8C28.2,1.7,29.9,0,32,0s3.8,1.7,3.8,3.8v4.1
	c8.8,1.8,15.1,9.5,15.1,18.4v15.1h1.9C55.8,41.4,58.4,43.9,58.4,47.1z M54.6,47.1c0-1-0.8-1.9-1.9-1.9h-5.6V26.4
	c0-8.3-6.7-15.1-15.1-15.1S16.9,18,16.9,26.4v18.8h-5.6c-1,0-1.9,0.8-1.9,1.9c0,1,0.8,1.9,1.9,1.9h41.4
	C53.7,48.9,54.6,48.1,54.6,47.1z"/>
</svg>
