<?xml version="1.0" encoding="utf-8"?>
<!-- Generator: Adobe Illustrator 26.0.1, SVG Export Plug-In . SVG Version: 6.00 Build 0)  -->
<svg version="1.1" id="Layer_1" xmlns="http://www.w3.org/2000/svg" xmlns:xlink="http://www.w3.org/1999/xlink" x="0px" y="0px"
	 viewBox="0 0 22 22" style="enable-background:new 0 0 22 22;" xml:space="preserve">
<style type="text/css">
	.st0{fill:#FFFFFF;}
</style>
<path class="st0" d="M18.5,14.4L12.2,3.7C12,3.3,11.5,3,11,3s-0.9,0.3-1.2,0.7L3.5,14.4c-0.2,0.4-0.2,0.9,0,1.3s0.7,0.7,1.1,0.7
	h12.7c0.4,0,0.9-0.2,1.1-0.7C18.7,15.3,18.7,14.8,18.5,14.4z M17.5,15.2c-0.1,0.1-0.1,0.1-0.2,0.1H4.6c-0.1,0-0.1,0-0.2-0.1
	c0-0.1,0-0.1,0-0.2l6.3-10.7c0,0,0.1-0.1,0.2-0.1c0.1,0,0.2,0.1,0.2,0.1L17.5,15C17.6,15,17.6,15.1,17.5,15.2z"/>
<path class="st0" d="M11,7.1c-0.4,0-0.8,0.3-0.8,0.8l0.2,3.7c0,0.3,0.3,0.6,0.6,0.6s0.6-0.3,0.6-0.6l0.2-3.7
	C11.8,7.5,11.4,7.1,11,7.1z"/>
<path class="st0" d="M11,12.6c-0.5,0-0.9,0.4-0.9,0.9s0.4,0.9,0.9,0.9s0.9-0.4,0.9-0.9S11.5,12.6,11,12.6z"/>
</svg>
