<?xml version="1.0" encoding="utf-8"?>
<!-- Generator: Adobe Illustrator 24.3.0, SVG Export Plug-In . SVG Version: 6.00 Build 0)  -->
<svg version="1.1" id="Layer_1" xmlns="http://www.w3.org/2000/svg" xmlns:xlink="http://www.w3.org/1999/xlink" x="0px" y="0px"
	 viewBox="0 0 512 512" style="enable-background:new 0 0 512 512;" xml:space="preserve">
<path d="M263,458.4c-0.3,0-0.7,0.3-1,0.9l-3-0.1l5.5-164.1c0,0,6.9-0.7,7.9-5.2c0.6-2.6,3.3-19.7,5.9-37.1l19.7,1.4l-1.1,5.5v4.6
	h2.9h2.9v-4.6l-1.7-8.1V149l-1.2-1.1l-1.2,1.1v36.4h-14c0.1-12.8-0.4-26.4-2.3-36.9L326.1,8.7l-9.4-2.9l-39.6,126.5
	c-6.4-12.3-15.5-14.2-21.2-14.2c-6.9,0-18.5,2.7-24.7,22.8c-3.3,11-4.2,28.3-4,44.5h-14V149l-1.2-1.1l-1.2,1.1v102.5l-1.7,8.1v4.6
	h2.9h2.9v-4.6l-1.1-5.5l19.7-1.4c0.6,4.4,1.3,8.8,1.9,13l-50.2,160.5l9.4,2.9l44.3-141.6c0.2,1.1,0.3,1.9,0.4,2.3
	c1,4.5,7.9,5.2,7.9,5.2l4.2,123.8h-1.9v47.8h-0.9v0.8h-5.8v-27.1h-2.3v57.4h2.3v-27.1h5.8v0.8h0.9v34.3h1.9v-34.3h1.9l0.2,5h2.4h1.4
	v4.9l4.2-0.4c0.4,3,0.9,6.3,1.5,9.9c0.7-3.7,1.2-7.1,1.6-10.2l48.6-4.2v-15.3l-49.2-1.7C263.7,458.7,263.3,458.4,263,458.4z
	 M213.1,247.6v-55.1l14.2,0.8c0.3,10.4,1,19.8,1.6,25.8c0.6,5.7,1.9,15.4,3.3,25.9L213.1,247.6z M284.4,193.3l14.2-0.8v55.1
	l-19.1-2.6c1.5-10.4,2.8-20.1,3.3-25.9C283.4,213.1,284.1,203.7,284.4,193.3z M251.4,466.7v-45.9l1.3,38.4l0.4,7.5H251.4z"/>
</svg>
