<?xml version="1.0" encoding="utf-8"?>
<!-- Generator: Adobe Illustrator 26.0.2, SVG Export Plug-In . SVG Version: 6.00 Build 0)  -->
<svg version="1.1" id="Layer_1" xmlns="http://www.w3.org/2000/svg" xmlns:xlink="http://www.w3.org/1999/xlink" x="0px" y="0px"
	 viewBox="0 0 512 512" style="enable-background:new 0 0 512 512;" xml:space="preserve">
<style type="text/css">
	.st0{fill-rule:evenodd;clip-rule:evenodd;}
</style>
<path class="st0" d="M256,109.1c22.1,0,40,17.9,40,40c0,12.5-5.8,23.7-14.8,31l105.7,286.7c7.8,21.2-24.5,33-32.2,11.8l-1.7-4.6
	l-97-80.5l-97,80.5l-1.7,4.6c-7.8,21.2-40,9.4-32.2-11.8l105.7-286.7c-9-7.3-14.8-18.5-14.8-31C216,127,233.9,109.1,256,109.1
	L256,109.1z M121,49.6c13.3-18.2-14.3-38.5-27.7-20.3C68.4,63.4,55,104.3,55,146.6c0,42.3,13.4,83.2,38.3,117.3
	c13.3,18.2,41-2.1,27.7-20.3c-20.7-28.3-31.6-62-31.6-97C89.4,111.6,100.3,77.9,121,49.6L121,49.6z M177,90.4
	c13.3-18.2-14.3-38.5-27.7-20.3c-16.2,22.2-25,48.9-25,76.4s8.7,54.2,25,76.4c13.3,18.2,41-2.1,27.7-20.3
	c-12-16.4-18.2-35.9-18.2-56.2S165,106.8,177,90.4z M391,49.6c-13.3-18.2,14.3-38.5,27.7-20.3c24.9,34.1,38.3,75.1,38.3,117.3
	c0,42.3-13.4,83.2-38.3,117.3c-13.3,18.2-41-2.1-27.7-20.3c20.7-28.3,31.6-62,31.6-97C422.6,111.6,411.7,77.9,391,49.6L391,49.6z
	 M335,90.4c-13.3-18.2,14.3-38.5,27.7-20.3c16.2,22.2,25,48.9,25,76.4s-8.7,54.2-25,76.4c-13.3,18.2-41-2.1-27.7-20.3
	c12-16.4,18.2-35.9,18.2-56.2S347,106.8,335,90.4z M329.3,409.9l-21.8-59.1l-24.7,20.5L329.3,409.9z M229.2,371.3l-24.7-20.5
	l-21.8,59.1L229.2,371.3z M217.1,316.7L256,349l38.9-32.3L256,211.1L217.1,316.7z"/>
</svg>
