<?xml version="1.0" encoding="utf-8"?>
<!-- Generator: Adobe Illustrator 26.0.3, SVG Export Plug-In . SVG Version: 6.00 Build 0)  -->
<svg version="1.1" id="Layer_1" xmlns="http://www.w3.org/2000/svg" xmlns:xlink="http://www.w3.org/1999/xlink" x="0px" y="0px"
	 viewBox="0 0 512 512" style="enable-background:new 0 0 512 512;" xml:space="preserve">
<path d="M183.2,46.8c-16.8,5.6-33,12.9-48.2,21.8C151.3,60.2,167,54.6,183.2,46.8z"/>
<path d="M427.9,364.3c2.2-3.4,5-6.2,7.3-9.5c11.2-16.8,16.8-33.6,22.4-50.4c9.5-35.3,10.1-70,1.1-104.2
	C469.4,256.2,459.3,316.7,427.9,364.3L427.9,364.3z"/>
<path d="M58.9,146.4c-7.8,14-14,29.1-18.5,45.4C46.6,177.8,51.6,161.6,58.9,146.4z"/>
<path d="M295.2,41.2c9.5,1.1,18.5,2.8,27.4,5c-15.1-4.5-30.2-7.8-45.4-9.5C283.4,37.8,289,39.5,295.2,41.2L295.2,41.2z"/>
<path d="M79.6,396.2c-3.4-6.2-6.2-12.3-8.4-19c-11.2-22.4-28-44.8-33.6-72.8c-5.6-33.6-5.6-67.2,0-100.8c0.6-3.9,1.7-7.8,2.8-11.8
	c-1.1,2.2-1.7,3.9-2.8,6.2C18.6,268.5,37.6,341.3,79.6,396.2L79.6,396.2z"/>
<path d="M440.8,136.4c-3.4-4.5-6.2-8.4-9.5-12.9c12.3,19,21.8,40.3,31.9,63.3c10.6,38.1,11.2,80.6,1.1,119.3
	C481.1,251.2,475.5,190.1,440.8,136.4L440.8,136.4z"/>
<path d="M322.6,46.2c5.6,1.7,11.8,3.9,17.4,6.2c16.8,5.6,33.6,16.8,50.4,28c17.9,13.4,28.6,26.9,40.9,43.1
	c-8.4-13.4-17.9-26.3-29.7-37.5C380.3,64.7,352.3,52.9,322.6,46.2L322.6,46.2z"/>
<path d="M183.2,46.8c30.2-9.5,62.2-12.9,94.6-10.1C245.9,30.5,216.2,32.8,183.2,46.8z"/>
<path d="M111.5,84.8c7.3-6.2,15.1-11.2,23.5-16.2c-6.2,3.4-12.9,7.3-19,11.8C114.3,82,113.2,83.2,111.5,84.8L111.5,84.8z"/>
<path d="M195.5,446c-3.9-1.1-7.8-2.8-11.2-4.5C187.7,443.2,191.6,444.9,195.5,446z"/>
<path d="M463.2,310c0.6-1.1,0.6-2.8,1.1-3.9c-16.8,54.3-54.9,101.9-107.5,130.5C407.2,411.9,447,366,463.2,310L463.2,310z"/>
<path d="M111.5,84.8c-7.3,5.6-14,11.8-20.7,18.5C97.5,97.2,104.2,91.6,111.5,84.8z"/>
<path d="M151.3,458.9c31.4,17.4,66.6,26.9,104.2,25.8C219.6,484.7,183.8,472.4,151.3,458.9z"/>
<path d="M272.8,483.6c-3.9,0.6-8.4,0.6-12.3,1.1C264.4,484.1,268.9,484.1,272.8,483.6z"/>
<path d="M144,455.6c2.2,1.1,5,2.2,7.3,3.4c-28-15.7-52.1-37-71.7-62.2C93.6,421.4,117.1,442.1,144,455.6L144,455.6z"/>
<path d="M71.2,125.2c-5,6.7-9,14-12.3,21.3c9-16.2,19.6-30.2,32.5-43.1C83.5,110,76.8,116.8,71.2,125.2z"/>
<path d="M300.8,35.6l-5-5c-41.4-7.3-82.3-2.2-119.8,12.3C216.2,28.3,259.4,24.9,300.8,35.6L300.8,35.6z"/>
<path d="M161.4,69.2c16.2-8.4,34.2-14.6,52.6-18.5c-19.6,3.4-39.8,9.5-58.8,18.5L161.4,69.2L161.4,69.2z"/>
<path d="M176.5,42.8C93,73.6,26.4,151.5,26.4,242.8C33.7,151.5,95.3,74.8,176.5,42.8z"/>
<path d="M450.9,296c-7.3,28.6-20.7,55.4-39.2,79.5c4.5-5,8.4-10.1,12.3-15.1C438.6,339.1,445.8,317.2,450.9,296L450.9,296z"/>
<path d="M457,250.6c-0.6,7.8-1.1,16.2-2.2,24.1c1.1-5,1.7-9.5,2.2-14.6C457.6,256.2,457.6,253.4,457,250.6L457,250.6z"/>
<path d="M450.9,296c1.7-7.3,3.4-14,4.5-21.3C453.7,281.4,452.6,288.7,450.9,296z"/>
<path d="M66.7,307.2c-1.7-12.3-3.4-24.6-6.7-35.3C61.7,283.6,63.9,296,66.7,307.2z"/>
<path d="M295.2,30l0.6,0.6c1.7,0.6,3.9,0.6,5.6,1.1C299.7,31.1,297.4,30.5,295.2,30z"/>
<path d="M317.6,35.6c-5.6-1.7-10.6-2.8-16.2-3.9c29.1,7.8,56,20.7,80.1,36.4C362.4,54,341.7,41.7,317.6,35.6L317.6,35.6z"/>
<path d="M429.6,108.4c-1.7-1.7-3.9-3.4-5.6-5c26.3,30.8,40.9,66.1,50.4,105.8C468.8,170,452,136.4,429.6,108.4L429.6,108.4z"/>
<path d="M412.8,91.6c-10.1-8.4-20.2-16.2-31.4-23C396,79.8,410,92.1,424,103.9C420.1,99.4,416.7,95.5,412.8,91.6L412.8,91.6z"/>
<path d="M401,427.6c0.6-0.6,1.1-1.1,1.7-1.7C402.2,426.4,401.6,427,401,427.6z"/>
<path d="M117.1,89.3c-8.4,6.2-16.2,12.3-23.5,19C58.9,148.1,41,194,38.2,241.1c5.6-33,16.8-66.1,33-99.1
	C86.9,121.2,97.5,105,117.1,89.3L117.1,89.3z"/>
<path d="M121.6,86c-1.7,1.1-2.8,2.2-4.5,3.4c24.6-18.5,51.5-33.6,80.6-42C170.3,53.5,143.4,69.7,121.6,86L121.6,86z"/>
<path d="M424,125.2C390.4,86,356.8,58,306.4,46.8c-32.5-10.6-70-11.2-102.5-1.1c7.8-2.2,15.7-3.4,24.1-4.5
	C300.8,35.6,373.6,69.2,424,125.2L424,125.2z"/>
<path d="M71.2,371.6c-21.8-38.1-33-81.8-33.6-125.4c-1.7,57.7,19,115.9,61.6,164.6c39.2,39.2,84,61.6,134.4,67.2
	c61.6,5.6,122.6-11.2,167.4-50.4C296.9,511,142.9,487.5,71.2,371.6L71.2,371.6z"/>
<path d="M345.6,405.2c-16.2,7.3-32.5,13.4-49.3,17.4C313.1,419.2,329.9,413.6,345.6,405.2z"/>
<path d="M457.6,192.4c-5.6-22.4-16.8-44.8-33.6-67.2c16.8,24.1,28.6,49.3,34.7,75C458.7,197.4,458.2,195.2,457.6,192.4L457.6,192.4z
	"/>
<path d="M203.9,45.6c-2.2,0.6-3.9,1.1-6.2,1.7c0.6,0,1.7-0.6,2.2-0.6C201.1,46.2,202.8,46.2,203.9,45.6L203.9,45.6z"/>
<path d="M404.4,424.8c-0.6,0.6-1.1,1.1-1.7,1.7C403.8,425.3,404.4,424.8,404.4,424.8z"/>
<path d="M76.8,321.2c-11.2-33.6-5.6-72.8-5.6-106.4c0-16.8,11.2-28,16.8-44.8c16.8-33.6,39.2-56,72.8-78.4
	c22.4-11.2,44.8-16.8,72.8-22.4c33.6-5.6,61.6,5.6,89.6,11.2c28,5.6,44.8,28,61.6,50.4c15.1,15.1,30.2,32.5,40.3,52.6
	C405,135.8,366.3,94.9,317.6,74.8c-16.8-5.6-33.6-5.6-50.4-11.2c-56-5.6-112,22.4-151.2,61.6c-94.6,99.7-51.5,253.1,58.2,305.2
	C130.6,408,94.7,370.4,76.8,321.2L76.8,321.2z"/>
<path d="M205.6,438.8c39.2,11.2,72.8,11.2,112,0c28-11.2,50.4-22.4,72.8-39.2c7.8-7.8,14.6-15.7,21.3-24.1
	c-51.5,57.1-128.2,84-200.5,63.3c-53.2-16.2-94.6-54.3-117.6-104.2c1.1,15.7,11.2,26.3,16.8,37C132.8,405.2,166.4,422,205.6,438.8
	L205.6,438.8z"/>
<path d="M93.6,332.4h-1.1c0.6,0.6,0.6,1.7,1.1,2.2V332.4z"/>
<path d="M214,50.7c25.2-4.5,50.4-3.9,75,0c-9-1.7-17.9-3.4-27.4-3.9C245.4,46.2,229.1,47.3,214,50.7z"/>
<path d="M222.4,74.8C99.2,97.2,37.6,231.6,88,338c0-3.9,2.8-5,4.5-5.6c-7.8-17.4-12.9-36.4-15.7-56C65.6,198,110.4,125.2,177.6,91.6
	c39.2-16.8,84-22.4,123.2-11.2C285.7,69.2,251.5,69.7,222.4,74.8L222.4,74.8z"/>
<path d="M452,192.4c-24.6-77.8-89.6-128.2-163-141.7c52.1,10.6,101.4,38.1,135,85.7c20.7,36.4,31.9,72.8,33,114.2
	C458.2,231.6,456.5,212,452,192.4L452,192.4z"/>
<path d="M435.2,214.8c-1.7-11.2-5.6-21.3-10.1-31.4c4.5,11.2,8.4,22.4,10.6,34.2C435.2,216.4,435.2,215.9,435.2,214.8L435.2,214.8z"
	/>
<path d="M362.4,394c-5.6,3.9-11.2,7.8-16.8,11.2c3.9-1.7,7.3-3.4,11.2-5.6c28-16.8,50.4-44.8,67.2-72.8
	c16.2-35.3,19-72.8,11.8-109.2C445.8,289.2,417.8,349.7,362.4,394L362.4,394z"/>
<path d="M308.1,82.6c-2.2-0.6-5-1.7-7.3-2.2c2.2,1.7,3.9,3.4,5.6,5.6l2.8,2.8c1.1,0.6,2.8,1.1,3.9,1.7
	C312,88.2,309.8,84.8,308.1,82.6L308.1,82.6z"/>
<path d="M193.3,405.7c15.7,7.3,31.4,12.9,51.5,16.2c28,5.6,50.4-5.6,78.4-11.2c22.4-5.6,39.2-16.8,56-33.6
	C480,282,429.6,119.6,306.4,80.4c0,0,0.6,1.1,1.7,2.2c35.3,11.8,61.6,33.6,87.9,65c39.2,50.4,42,109.8,20.7,160.2
	c19-55.4,6.7-119.8-31.9-171.4c-20.7-20.7-44.8-35.3-71.7-45.9c1.1,2.2,1.1,3.4-3.9-1.7c-8.4-3.4-16.8-6.2-25.2-8.4
	c-33.6-5.6-67.2,0-100.8,11.2C122.7,116.2,87.4,175,82.4,238.8v-1.7c0.6-2.8,1.7-6.2,2.2-9c-1.7,8.4-2.2,16.8-2.2,25.8
	c5.6,33.6,11.2,72.8,33.6,106.4c16.8,22.4,44.8,39.2,67.2,56c33.6,11.2,67.2,22.4,100.8,16.8c28-5.6,50.4-16.8,78.4-28
	c16.8-11.2,39.2-28,50.4-50.4c22.4-33.6,28-67.2,33.6-100.8c0-22.4-5.6-44.8-11.2-67.2c-11.2-28-28-56-50.4-78.4
	C368,97.2,351.2,86,334.4,74.8c-9.5-3.9-19.6-7.8-29.1-11.2c51.5,14,98,46.5,124.3,95.2l-5.6-5.6c11.2,16.8,16.8,39.2,22.4,61.6
	c7.3,49.3,0,95.8-23.5,134.4c12.3-20.2,22.4-42,29.1-67.2v-56c-11.2-84-72.8-145.6-151.2-168C222.4,35.6,138.4,69.2,88,136.4
	c-5,9-9.5,17.4-12.9,26.3c10.1-19,20.7-34.2,35.3-48.7C150.2,72,205,54,258.8,56.8c-4.5,0-9.5,0.6-14,1.1
	c-33.6,5.6-61.6,11.2-89.6,28c-22.4,11.2-33.6,28-50.4,44.8c-32.5,36.4-46.5,81.8-45.4,126c-0.6-61.6,31.9-118.2,79-159.6
	c44.8-33.6,95.2-39.2,151.2-33.6c39.2,5.6,67.2,28,95.2,50.4c67.2,61.6,72.8,151.2,33.6,229.6c-16.8,22.4-39.2,44.8-61.6,61.6
	c-39.2,16.8-78.4,28-123.2,22.4c-19.6-3.4-35.3-10.1-50.4-19c20.2,10.6,43.1,17.4,67.2,19c16.2,0,31.4-2.2,45.9-5.6
	C261,428.1,225.2,422,193.3,405.7L193.3,405.7z M289.6,410.8c26.9-7.8,51-17.9,72.8-33C341.7,394,317,405.7,289.6,410.8z
	 M149.6,388.4c-56-44.8-72.8-123.2-50.4-190.4c11.2-32.5,33-58.2,60.5-76.2C111.5,158.2,83,222,93.6,287.6
	c10.6,48.7,38.1,88.5,76.2,113.1C163,396.8,156.3,392.3,149.6,388.4z M105.4,306c0-0.6-0.6-1.1-0.6-1.7c0,0.6,0,0.6,0.6,1.1V306z
	 M94.7,194.6c2.8-8.4,6.2-16.2,10.1-24.6c22.4-44.8,61.6-72.8,112-84c69.4-10.1,138.9,11.2,173.6,70.6c-7.8-11.2-17.9-21.3-28-31.4
	c-22.4-11.2-44.8-28-72.8-33.6C205,73.6,124.4,122.9,94.7,194.6L94.7,194.6z"/>
<path d="M48.8,214.8c0,0.6,0,1.7-0.6,2.2c0.6-3.9,1.7-7.8,2.8-11.8C50.5,208.6,49.4,211.4,48.8,214.8L48.8,214.8z"/>
<path d="M166.4,69.2h-5c-12.9,6.7-24.6,14.6-35.8,23.5C137.8,83.2,151.8,75.3,166.4,69.2L166.4,69.2z"/>
<path d="M71.2,153.2c-8.4,16.8-13.4,30.2-17.9,45.4c12.3-42,38.6-79,72.2-105.8C103.7,108.4,85.2,128.5,71.2,153.2L71.2,153.2z"/>
<path d="M93.6,388.4c-22.4-28-33.6-56-44.8-89.6c-0.6-3.4-1.1-7.3-1.7-10.6c1.7,16.8,6.2,33.6,12.9,49.8
	c11.2,22.4,22.4,50.4,44.8,67.2c22.4,16.8,44.8,39.2,72.8,50.4c4.5,1.7,9.5,2.8,14,4.5C154.6,446.6,121,422.5,93.6,388.4L93.6,388.4
	z"/>
<path d="M48.2,217c-4.5,23-5.6,46.5-1.7,71.1C44.3,265.7,45.4,242.2,48.2,217z"/>
<path d="M446.4,130.8c96.9,128.8-2.8,314.7-149.5,339.4c22.4-3.4,44.2-10.1,65.5-20.2c72.8-39.2,123.2-112,123.2-196
	C485.6,209.2,474.4,164.4,446.4,130.8L446.4,130.8z"/>
<path d="M216.8,444.4c-15.1-2.8-29.7-7.8-42.6-14c19.6,10.1,40.3,16.8,62.2,19.6c-12.3,0-27.4-0.6-40.9-3.9
	c45.4,15.7,96.9,16.2,144.5-1.7c5.6-2.2,11.2-5,16.8-8.4c-33.6,16.2-72.2,22.4-112,15.1c47.6,5,97.4-7.3,140-40.3
	c17.4-12.9,31.9-28.6,43.1-46.5C377,430.9,296.9,465.6,216.8,444.4L216.8,444.4z"/>
<path d="M278.4,472.4c6.2-0.6,12.3-1.1,18.5-2.2c-7.8,1.1-15.1,1.7-23,2.2H278.4L278.4,472.4z"/>
<path d="M274.5,472.4c-27.4-0.6-55.4-4.5-82.9-12.3C217.9,469.6,245.9,473.5,274.5,472.4z"/>
<path d="M412.2,405.7c-16.8,12.3-33.6,25.2-52.6,35.3c17.4-8.4,33-18.5,47.6-30.2C408.9,409.1,410.6,407.4,412.2,405.7L412.2,405.7z
	"/>
<path d="M359.6,441c-7.3,3.4-14.6,6.7-22.4,10.1c1.1,0,1.7-0.6,2.8-0.6C346.7,447.2,353.4,444.4,359.6,441L359.6,441z"/>
<path d="M60,270.8c0,0.6,0,0.6,0.6,1.1c0-2.2-0.6-4.5-0.6-6.7V270.8L60,270.8z"/>
<path d="M306.4,461.2c10.6-2.8,20.7-6.7,30.8-10.6c-38.1,10.6-71.1,16.2-109.2,10.6c-28-4.5-56.6-13.4-81.2-29.7
	C194.4,462.8,250.4,471.2,306.4,461.2L306.4,461.2z"/>
<path d="M413.4,404.6c-0.6,0.6-1.1,0.6-1.1,1.1L413.4,404.6C412.8,405.2,412.8,404.6,413.4,404.6z"/>
<path d="M413.4,404.6c20.2-21.3,39.8-47,49.8-77.8C452,354.8,430.2,376.6,413.4,404.6z"/>
<path d="M132.8,422L100.9,390C110.4,401.2,121,411.9,132.8,422z"/>
<path d="M132.8,422c4.5,3.4,9,6.7,14,9.5C141.8,428.7,137.3,425.3,132.8,422z"/>
<path d="M83,279.7c2.2,19,7.3,38.1,15.7,56.6C92.5,317.8,86.3,298.8,83,279.7z"/>
<path d="M99.8,339.1c-0.6-1.1-0.6-1.7-1.1-2.8c0,0.6,0.6,1.1,0.6,1.7C99.2,338.5,99.8,338.5,99.8,339.1L99.8,339.1z"/>
<path d="M166.4,427.6v5.6c-49.8-26.3-85.1-73.4-99.7-126c1.1,6.7,2.2,13.4,4.5,19.6c20.2,54.3,62.2,94.1,112.6,114.8
	C177,438.2,170.9,433.7,166.4,427.6L166.4,427.6z"/>
<path d="M100.9,390c-22.4-26.9-38.6-57.7-46.5-96.9c5.6,28,16.8,61.6,33.6,84L100.9,390L100.9,390z"/>
<path d="M390.4,394c8.4-10.1,16.2-20.2,23.5-30.8c-9.5,13.4-21.3,25.2-34.7,36.4c-22.4,16.8-50.4,28-78.4,33.6
	c-39.2,5.6-78.4,0-112-11.2c-38.6-16.8-66.6-44.2-89-82.9c1.7,3.4,3.4,6.7,5,10.1C160.8,450,306.4,466.8,390.4,394L390.4,394z"/>
<path d="M83,279.7c-1.7-14-2.2-27.4-1.1-40.9C80.2,252.8,80.7,266.3,83,279.7z"/>
<path d="M54.4,293.2c-4.5-46.5,2.2-88.5,20.7-130.5c-1.1,2.2-2.2,4.5-3.9,7.3C54.4,209.2,48.8,248.4,54.4,293.2L54.4,293.2z"/>
</svg>
