<?xml version="1.0" encoding="utf-8"?>
<!-- Generator: Adobe Illustrator 26.3.1, SVG Export Plug-In . SVG Version: 6.00 Build 0)  -->
<svg version="1.1"
	 id="Layer_1" xmlns:sodipodi="http://sodipodi.sourceforge.net/DTD/sodipodi-0.dtd" xmlns:rdf="http://www.w3.org/1999/02/22-rdf-syntax-ns#" xmlns:svg="http://www.w3.org/2000/svg" xmlns:inkscape="http://www.inkscape.org/namespaces/inkscape" xmlns:cc="http://creativecommons.org/ns#" xmlns:dc="http://purl.org/dc/elements/1.1/"
	 xmlns="http://www.w3.org/2000/svg" xmlns:xlink="http://www.w3.org/1999/xlink" x="0px" y="0px" viewBox="0 0 64 64"
	 style="enable-background:new 0 0 64 64;" xml:space="preserve">
<style type="text/css">
	.st0{fill-rule:evenodd;clip-rule:evenodd;}
</style>
<path class="st0" d="M30.9,3.5c0.3-0.2,0.7-0.3,1.1-0.3c0.4,0,0.7,0.1,1.1,0.3l22.8,13.2L32,30.4L8.1,16.6L30.9,3.5z M7.6,47.7
	l22.8,13.2V33.3L6.5,19.5v26.3c0,0.4,0.1,0.8,0.3,1.1C7,47.2,7.2,47.5,7.6,47.7L7.6,47.7z M56.4,47.7c0.3-0.2,0.6-0.5,0.8-0.8
	c0.2-0.3,0.3-0.7,0.3-1.1V19.5L33.6,33.3v27.5L56.4,47.7z"/>
</svg>
