<?xml version="1.0" encoding="utf-8"?>
<!-- Generator: Adobe Illustrator 26.0.1, SVG Export Plug-In . SVG Version: 6.00 Build 0)  -->
<svg version="1.1" id="Layer_1" xmlns="http://www.w3.org/2000/svg" xmlns:xlink="http://www.w3.org/1999/xlink" x="0px" y="0px"
	 viewBox="0 0 200 200" style="enable-background:new 0 0 200 200;" xml:space="preserve">
<g>
	<path d="M34.2,56.3C1.4,89.2,1.4,142.5,34.4,175.4s86.3,32.8,119.2-0.2c32.8-32.9,32.8-86.1,0-119l-0.8-0.8l14.6-14.6l10.8,10.8
		c3.3,2.5,8.1,1.8,10.6-1.5c2-2.7,2-6.4,0-9.1L156.6,8.8c-3.3-2.5-8.1-1.8-10.6,1.5c-2,2.7-2,6.4,0,9.1l10.8,10.8l-15.6,15.6
		C129.4,38,115.7,33.2,101.6,32V15.1h15.1c4.2,0,7.6-3.4,7.6-7.6S120.9,0,116.7,0H71.3c-4.2,0-7.6,3.4-7.6,7.6s3.4,7.6,7.6,7.6h15.1
		V32C66.7,33.7,48.2,42.3,34.2,56.3z M163.1,116c-0.1,38.2-31.1,69.1-69.2,69c-38.2-0.1-69.1-31.1-69-69.2s31.1-69.1,69.2-69
		c18.3,0,35.9,7.3,48.8,20.3C155.9,80.1,163.2,97.7,163.1,116z"/>
	<path d="M101.6,100.6V70.4c0-4.2-3.4-7.6-7.6-7.6s-7.6,3.4-7.6,7.6v30.3c-8.3,4.2-11.7,14.3-7.5,22.7c4.2,8.3,14.3,11.7,22.7,7.5
		c8.3-4.2,11.7-14.3,7.5-22.7C107.5,104.9,104.8,102.3,101.6,100.6z"/>
</g>
</svg>
