<?xml version="1.0" encoding="utf-8"?>
<!-- Generator: Adobe Illustrator 26.3.1, SVG Export Plug-In . SVG Version: 6.00 Build 0)  -->
<svg version="1.1" id="Layer_1" xmlns="http://www.w3.org/2000/svg" xmlns:xlink="http://www.w3.org/1999/xlink" x="0px" y="0px"
	 viewBox="0 0 512 512" style="enable-background:new 0 0 512 512;" xml:space="preserve">
<path d="M255.6,81.6c-16.5,0-30,13.5-30,30v71.6L78.4,36c-5.7-5.8-13.2-8.9-21.3-8.9c-8.1,0-15.7,3.2-21.3,8.9
	c-5.6,5.7-8.7,13.1-8.7,21.1c0,8,3.1,15.5,8.8,21.2l147.3,147.3h-71.5c-16.5,0-30,13.5-30,30c0,16.5,13.5,30,30,30h144
	c16.5,0,30-13.5,30-30v-144C285.6,95.1,272.2,81.6,255.6,81.6z"/>
<path d="M315.9,307.9c-4.4,0-8,3.6-8,8l0,160.9c0,4.4,3.6,8,8,8l160.9,0c4.4,0,8-3.6,8-8V315.9c0-4.4-3.6-8-8-8L315.9,307.9
	L315.9,307.9z"/>
</svg>
