<?xml version="1.0" encoding="utf-8"?>
<!-- Generator: Adobe Illustrator 26.3.1, SVG Export Plug-In . SVG Version: 6.00 Build 0)  -->
<svg version="1.1" id="Layer_1" xmlns="http://www.w3.org/2000/svg" xmlns:xlink="http://www.w3.org/1999/xlink" x="0px" y="0px"
	 viewBox="0 0 512 512" style="enable-background:new 0 0 512 512;" xml:space="preserve">
<path d="M490.4,253.9c-13.5-31-127.1-72.6-217.5-73.1l7-0.4c-93.4-8.9-245.4,45.1-259.2,81c-13.8,35.9,4.6,65,16.7,74.9
	c12.1,9.9,102.3-12.8,122.9-20.6c20.6-7.8,16.3-44.7,15.3-61.4c-0.4-16.7,56.8-22,83.5-22.4c0,0,75.3,4.3,75.6,21
	c0.4,16.7-2.8,54,18.1,60.7c20.9,6.7,112.2,26.3,124.3,15.6C488.6,318.9,505.6,289.1,490.4,253.9z"/>
</svg>
