<?xml version="1.0" encoding="utf-8"?>
<!-- Generator: Adobe Illustrator 25.2.3, SVG Export Plug-In . SVG Version: 6.00 Build 0)  -->
<svg version="1.1"
	 id="Layer_1" xmlns:cc="http://creativecommons.org/ns#" xmlns:dc="http://purl.org/dc/elements/1.1/" xmlns:inkscape="http://www.inkscape.org/namespaces/inkscape" xmlns:rdf="http://www.w3.org/1999/02/22-rdf-syntax-ns#" xmlns:sodipodi="http://sodipodi.sourceforge.net/DTD/sodipodi-0.dtd" xmlns:svg="http://www.w3.org/2000/svg"
	 xmlns="http://www.w3.org/2000/svg" xmlns:xlink="http://www.w3.org/1999/xlink" x="0px" y="0px" viewBox="0 0 64 64"
	 style="enable-background:new 0 0 64 64;" xml:space="preserve">
<path d="M37.5,6.1c-2.7,0-4.9,2.2-4.9,4.9s2.2,4.9,4.9,4.9s4.9-2.2,4.9-4.9S40.2,6.1,37.5,6.1 M36.4,21.5C32.5,21.9,22,30.2,22,30.2
	c-0.6,0.5-0.5,0.5,0.1,1.4c0.5,0.9,0.5,0.9,1.1,0.5c0.6-0.4,1.7-1.1,3.5-2.2c6.9-4.4,1.1,5.8-1.8,22.9c-1.2,8.5,6.5,4.1,8.5,2.8
	c1.9-1.3,7.2-4.9,7.7-5.2c0.7-0.5,0.2-0.9-0.4-1.7c-0.4-0.6-0.8-0.2-0.8-0.2c-2.1,1.4-6,4.3-6.5,2.5c-0.6-1.8,3.3-14.5,5.5-23.2
	C39.2,25.7,40.1,21.2,36.4,21.5z"/>
</svg>
