<?xml version="1.0" encoding="utf-8"?>
<!-- Generator: Adobe Illustrator 26.3.1, SVG Export Plug-In . SVG Version: 6.00 Build 0)  -->
<svg version="1.1" id="Layer_1" xmlns="http://www.w3.org/2000/svg" xmlns:xlink="http://www.w3.org/1999/xlink" x="0px" y="0px"
	 viewBox="0 0 512 512" style="enable-background:new 0 0 512 512;" xml:space="preserve">
<style type="text/css">
	.st0{fill-rule:evenodd;clip-rule:evenodd;}
</style>
<path class="st0" d="M119.3,13H168c15.8,0,28.7,15.8,28.7,28.7v428.7c0,15.8-12.8,28.7-28.7,28.7h-48.7c-15.8,0-28.7-15.8-28.7-28.7
	V41.7C90.7,25.8,103.5,13,119.3,13L119.3,13z"/>
<path class="st0" d="M344,13h48.7c15.8,0,28.7,15.8,28.7,28.7v428.7c0,15.8-12.8,28.7-28.7,28.7H344c-15.8,0-28.7-15.8-28.7-28.7
	V41.7C315.3,25.8,328.2,13,344,13L344,13z"/>
</svg>
