<?xml version="1.0" encoding="utf-8"?>
<!-- Generator: Adobe Illustrator 26.0.3, SVG Export Plug-In . SVG Version: 6.00 Build 0)  -->
<svg version="1.1" id="Layer_1" xmlns="http://www.w3.org/2000/svg" xmlns:xlink="http://www.w3.org/1999/xlink" x="0px" y="0px"
	 viewBox="0 0 512 512" style="enable-background:new 0 0 512 512;" xml:space="preserve">
<path d="M211.6,295.6v1.1h-37c-34.4,0-41.9-18.9-41.9-18.9h77.2C211,283.5,211.6,289.8,211.6,295.6L211.6,295.6z"/>
<path d="M208.1,271.5h-76c-34.4,0-41.9-15.5-41.9-15.5h111.6C204.7,260.6,206.4,266.3,208.1,271.5L208.1,271.5z"/>
<path d="M135.9,210.7c14.9,1.7,28.7,7.5,40.1,15.5H57.5c-34.4,0-41.9-15.5-41.9-15.5H135.9z"/>
<path d="M198.4,249.7h-103c-34.4,0-41.9-15.5-41.9-15.5h131.7C190.9,238.8,194.9,244,198.4,249.7z"/>
<path d="M256.3,196.4c-24.1,21.8-74,25.2-74,25.2c22.4,17.2,37.3,44.2,37.3,74.5l36.7,19.5l36.7-19.5c0-30.4,14.9-57.3,37.3-74.5
	C330.3,221.6,280.4,218.2,256.3,196.4L256.3,196.4z"/>
<path d="M302.7,277.8h77.2c0,0-7.5,18.9-41.9,18.9h-37v-1.1C301,289.8,301.6,283.5,302.7,277.8L302.7,277.8z"/>
<path d="M310.2,256.6h111.6c0,0-7.5,15.5-41.9,15.5h-76C306.2,266.3,307.9,260.6,310.2,256.6L310.2,256.6z"/>
<path d="M496.3,210.7c0,0-7.5,15.5-41.9,15.5H336c11.5-8,25.2-13.8,40.1-15.5H496.3L496.3,210.7z"/>
<path d="M327.4,234.8h131.7c0,0-7.5,15.5-41.9,15.5h-103C317.6,244,321.7,238.8,327.4,234.8L327.4,234.8z"/>
</svg>
