<?xml version="1.0" encoding="utf-8"?>
<!-- Generator: Adobe Illustrator 25.4.1, SVG Export Plug-In . SVG Version: 6.00 Build 0)  -->
<svg version="1.1" id="Layer_1" xmlns="http://www.w3.org/2000/svg" xmlns:xlink="http://www.w3.org/1999/xlink" x="0px" y="0px"
	 viewBox="0 0 1024 1024" style="enable-background:new 0 0 1024 1024;" xml:space="preserve">
<style type="text/css">
	.st0{fill:none;stroke:#2B78B8;stroke-width:60;stroke-miterlimit:10;}
	.st1{fill:#084986;}
</style>
<path class="st0" d="M978,512.4c0-257.7-208.9-466.6-466.6-466.6c-191.4,0-355.8,115.2-427.8,280l152.9,169.8
	c8.7-144.3,128.4-258.6,274.9-258.6c152.1,0,275.4,123.3,275.4,275.4S663.5,787.8,511.4,787.8c-4,0-8-0.1-12-0.3l152.9,169.8
	C841.1,897.6,978,721,978,512.4z"/>
<path class="st0" d="M511.4,787.8c152.1,0,275.4-123.3,275.4-275.4S663.5,236.9,511.4,236.9c-146.5,0-266.2,114.3-274.9,258.6
	l262.9,292C503.3,787.7,507.3,787.8,511.4,787.8z"/>
<g>
	<polygon class="st1" points="467.8,362.1 425.1,402.4 499.3,481 394.9,481 394.9,539.8 554.7,539.8 611.5,600 654.2,559.7 
		635.5,539.8 666.6,539.8 666.6,481 580,481 467.8,362.1 	"/>
</g>
</svg>
