<?xml version="1.0" encoding="utf-8"?>
<!-- Generator: Adobe Illustrator 25.0.1, SVG Export Plug-In . SVG Version: 6.00 Build 0)  -->
<svg version="1.1" id="Layer_1" xmlns="http://www.w3.org/2000/svg" xmlns:xlink="http://www.w3.org/1999/xlink" x="0px" y="0px"
	 viewBox="0 0 512 512" style="enable-background:new 0 0 512 512;" xml:space="preserve">
<path d="M457.5,205.7C429.8,97.2,319.2,31.6,210.7,59.4S36.5,197.8,64.4,306.3s138.3,174,246.9,146.3l0,0
	C419.8,424.7,485.2,314.2,457.5,205.7z M288.8,61.5c51.5,7.4,97.9,34.9,129.3,76.6l-58.6,43.9c-19.6-26.1-48.7-43.2-81-48
	L288.8,61.5z M143.1,99l43.9,58.6c-25.9,19.6-43.2,48.9-47.8,81.2l-72.5-10.4C74.1,176.8,101.6,130.2,143.1,99z M233.1,450.5
	c-51.5-7.4-97.9-34.9-129.3-76.6l58.6-43.9c19.6,26.1,48.7,43.2,81,48L233.1,450.5z M289.9,368.9c-62.3,15.9-125.8-21.7-141.7-84
	s21.7-125.8,84-141.7s125.6,21.7,141.7,83.8C389.8,289.4,352.2,352.9,289.9,368.9L289.9,368.9z M378.8,413l-43.9-58.6
	c26.1-19.6,43.2-48.7,48-81l72.5,10.4C447.8,335.2,420.3,381.8,378.8,413z"/>
<path d="M340.5,54.8c25.8-6.5,52.1,9,58.6,34.8l1.6,6c8.1,7.1,15.7,14.8,22.8,22.9L415,85.4C406,51,370.9,30.1,336.5,39l-33.2,8.6
	c10.6,2.1,21,5.1,31.1,9L340.5,54.8z"/>
<path d="M478,331.3l-8.5-33.2c-2.1,10.6-5.1,21-9,31.1l1.6,6c6.5,25.8-9,52.1-34.8,58.8l-6,1.6c-7.1,8.1-14.6,15.7-22.9,22.8
	l33.2-8.5C466,401,486.8,365.9,478,331.3z"/>
<path d="M181.6,457.2c-25.8,6.5-52.1-9-58.6-34.8l-1.6-6c-8.1-7.1-15.7-14.6-22.8-22.9l8.5,33c8.8,34.6,44.1,55.4,78.5,46.6
	l33.2-8.5c-10.6-2.1-21-5.1-31.2-9L181.6,457.2z"/>
<path d="M59.8,176.6c-6.5-25.8,9-52.1,34.8-58.8l6-1.6c7.1-8.1,14.8-15.7,22.9-22.8L90.3,102c-34.2,9-55.1,44.1-46.4,78.7l8.6,33.2
	c2.1-10.6,5.1-21,9-31.2L59.8,176.6z"/>
</svg>
