<?xml version="1.0" encoding="utf-8"?>
<!-- Generator: Adobe Illustrator 25.0.0, SVG Export Plug-In . SVG Version: 6.00 Build 0)  -->
<svg version="1.1" id="Layer_1" xmlns="http://www.w3.org/2000/svg" xmlns:xlink="http://www.w3.org/1999/xlink" x="0px" y="0px"
	 viewBox="0 0 64 64" style="enable-background:new 0 0 64 64;" xml:space="preserve">
<path d="M31.9,8.8c-0.8,0.1-1.1,1-1.1,1.5l-0.1,5c-1,2.2-9.4,20.2-13.8,30c-0.3,0.6,2.2,2.3,2.6,1.8c1.1-1.5,2-3.1,3.1-4.6
	c1.1-1.5,2.3-3,3.9-4c0.4-0.3,0.9-0.5,1.4-0.7c0.5-0.2,0.9-0.4,1.4-0.5c0.1,0,1.1-0.2,1.1-0.1c0,0,0,6.5,0,6.5c-1,1.1-2,2.1-2.9,3.2
	c-0.3,0.3-0.7,0.7-1,1C26.3,48,26,48.2,26,48.5c0,0.6,1.1,0.7,1.5,0.7h4.4h0.1h4.4c0.4,0,1.6-0.1,1.5-0.7c0-0.3-0.3-0.5-0.4-0.7
	c-0.3-0.4-0.7-0.7-1-1c-1-1.1-2-2.1-2.9-3.2c0,0,0-6.5,0-6.5c0,0,1,0.1,1.1,0.1c0.5,0.1,1,0.3,1.4,0.5c0.5,0.2,0.9,0.4,1.4,0.7
	c1.5,1,2.8,2.6,3.9,4c1.1,1.5,2.1,3.1,3.1,4.6c0.4,0.5,2.8-1.2,2.6-1.8c-4.4-9.8-12.7-27.8-13.8-30l-0.1-5c0-0.5-0.4-1.4-1.1-1.5
	C32,8.8,32,8.8,31.9,8.8z"/>
<path d="M3,59.5v-14C3,44.7,2.3,44,1.5,44h0C0.7,44,0,44.7,0,45.5L0,61v0c0,1.7,1.3,3,3,3h0h15.5c0.8,0,1.5-0.7,1.5-1.5l0,0
	c0-0.8-0.7-1.5-1.5-1.5h-14C3.7,61,3,60.3,3,59.5z"/>
<path d="M59.5,61h-14c-0.8,0-1.5,0.7-1.5,1.5l0,0c0,0.8,0.7,1.5,1.5,1.5H61h0c1.7,0,3-1.3,3-3v0V45.5c0-0.8-0.7-1.5-1.5-1.5l0,0
	c-0.8,0-1.5,0.7-1.5,1.5v14C61,60.3,60.3,61,59.5,61z"/>
<path d="M61,4.5v14c0,0.8,0.7,1.5,1.5,1.5l0,0c0.8,0,1.5-0.7,1.5-1.5V3v0c0-1.7-1.3-3-3-3h0L45.5,0C44.7,0,44,0.7,44,1.5v0
	C44,2.3,44.7,3,45.5,3h14C60.3,3,61,3.7,61,4.5z"/>
<path d="M4.5,3h14C19.3,3,20,2.3,20,1.5v0C20,0.7,19.3,0,18.5,0L3,0h0C1.3,0,0,1.3,0,3v0l0,15.5C0,19.3,0.7,20,1.5,20h0
	C2.3,20,3,19.3,3,18.5v-14C3,3.7,3.7,3,4.5,3z"/>
</svg>
