<?xml version="1.0" encoding="utf-8"?>
<!-- Generator: Adobe Illustrator 26.0.3, SVG Export Plug-In . SVG Version: 6.00 Build 0)  -->
<svg version="1.1" id="Layer_1" xmlns="http://www.w3.org/2000/svg" xmlns:xlink="http://www.w3.org/1999/xlink" x="0px" y="0px"
	 viewBox="0 0 512 512" style="enable-background:new 0 0 512 512;" xml:space="preserve">
<path d="M298.7,108.3H49.2c-12.1,0-22.2,9.8-22.2,22.2v155.9h293.7V130.2C320.7,118.1,310.8,108.3,298.7,108.3z"/>
<path d="M27,342.4c0,12.1,9.8,22.2,22.2,22.2h21.3c0-27.2,22-49.2,49.2-49.2s49.2,22,49.2,49.2h152v-65.7H27V342.4z"/>
<path d="M476.3,290.7h8.5v-19.5c0-2.5-1.1-6.2-2.3-8.2l-44.9-71.9c-2.5-4.1-8.7-7.6-13.5-7.6h-88.6v180.6h25.2
	c0-27.2,22-49.2,49.2-49.2s49.2,22,49.2,49.2h16.9c4.8,0,8.9-3.9,8.9-8.9v-36.4h-8.5c-7.8,0-14.2-6.4-14.2-14.2
	C462.1,297.1,468.5,290.7,476.3,290.7z M367.8,266.9V206h52.6l38,60.9H367.8z"/>
<path d="M119.5,325.5c-21.5,0-39.1,17.4-39.1,39.1c0,21.7,17.6,39.1,39.1,39.1s39.1-17.4,39.1-39.1
	C158.6,342.9,141.2,325.5,119.5,325.5z M119.5,380.2c-8.7,0-15.6-7.1-15.6-15.6c0-8.7,7.1-15.6,15.6-15.6c8.7,0,15.6,7.1,15.6,15.6
	C135.3,373.1,128.2,380.2,119.5,380.2z"/>
<path d="M409.7,325.5c-21.5,0-39.1,17.6-39.1,39.1c0,21.5,17.4,39.1,39.1,39.1c21.5,0,39.1-17.4,39.1-39.1
	C448.8,342.9,431.4,325.5,409.7,325.5z M409.7,380.2c-8.7,0-15.6-7.1-15.6-15.6c0-8.7,7.1-15.6,15.6-15.6c8.7,0,15.6,7.1,15.6,15.6
	C425.5,373.1,418.4,380.2,409.7,380.2z"/>
</svg>
