<?xml version="1.0" encoding="utf-8"?>
<!-- Generator: Adobe Illustrator 25.3.0, SVG Export Plug-In . SVG Version: 6.00 Build 0)  -->
<svg version="1.1" id="Layer_1" xmlns="http://www.w3.org/2000/svg" xmlns:xlink="http://www.w3.org/1999/xlink" x="0px" y="0px"
	 viewBox="0 0 22 22" style="enable-background:new 0 0 22 22;" xml:space="preserve">
<path d="M20.5,16.7l-8-13.6c-0.3-0.5-0.9-0.9-1.5-0.9c-0.6,0-1.1,0.4-1.5,0.9l-8,13.6c-0.3,0.5-0.3,1.1,0,1.6s0.9,0.9,1.4,0.9H19
	c0.5,0,1.1-0.3,1.4-0.9C20.8,17.8,20.8,17.2,20.5,16.7z M19.2,17.7c-0.1,0.1-0.1,0.1-0.3,0.1H2.9c-0.1,0-0.1,0-0.3-0.1
	c0-0.1,0-0.1,0-0.3l8-13.6c0,0,0.1-0.1,0.3-0.1c0.1,0,0.3,0.1,0.3,0.1l8.1,13.6C19.4,17.4,19.4,17.6,19.2,17.7z"/>
<path d="M11,7.4c-0.5,0-1,0.4-1,1l0.3,4.7c0,0.4,0.4,0.8,0.8,0.8s0.8-0.4,0.8-0.8L12,8.4C12,7.9,11.5,7.4,11,7.4z"/>
<path d="M11,14.4c-0.6,0-1.1,0.5-1.1,1.1c0,0.6,0.5,1.1,1.1,1.1c0.6,0,1.1-0.5,1.1-1.1C12.1,14.9,11.6,14.4,11,14.4z"/>
</svg>
