<?xml version="1.0" encoding="utf-8"?>
<!-- Generator: Adobe Illustrator 25.4.1, SVG Export Plug-In . SVG Version: 6.00 Build 0)  -->
<svg version="1.1" id="Layer_1" xmlns="http://www.w3.org/2000/svg" xmlns:xlink="http://www.w3.org/1999/xlink" x="0px" y="0px"
	 viewBox="0 0 1024 1024" style="enable-background:new 0 0 1024 1024;" xml:space="preserve">
<style type="text/css">
	.st0{fill-rule:evenodd;clip-rule:evenodd;}
</style>
<g>
	<g transform="translate(-2328.000000, -333.000000)">
		<path class="st0" d="M2484,903l-36.8,36.6c-8.5,8.4-8.5,22.1,0,30.5c4.2,4.2,9.8,6.3,15.3,6.3c5.5,0,11.1-2.1,15.3-6.3l36.8-36.6
			c8.5-8.4,8.5-22.1,0-30.5C2506.1,894.6,2492.4,894.6,2484,903z M2810.4,1212.2c-9.4-7.4-23-5.9-30.4,3.5l-54.6,68.3
			c-7.4,9.3-5.9,22.9,3.5,30.3c4,3.2,8.7,4.7,13.5,4.7c6.4,0,12.7-2.8,17-8.1l54.6-68.3C2821.4,1233.2,2819.8,1219.7,2810.4,1212.2z
			 M3174.5,1212.2c-9.4-7.4-23-5.9-30.4,3.5l-54.6,68.3c-7.4,9.3-5.9,22.9,3.5,30.3c4,3.2,8.7,4.7,13.5,4.7c6.4,0,12.7-2.8,17-8.1
			l54.6-68.3C3185.4,1233.2,3183.8,1219.7,3174.5,1212.2z M2986.5,1212.2c-9.4-7.4-23-5.9-30.4,3.5l-54.6,68.3
			c-7.4,9.3-5.9,22.9,3.5,30.3c4,3.2,8.7,4.7,13.5,4.7c6.4,0,12.7-2.8,17-8.1l54.6-68.3C2997.4,1233.2,2995.8,1219.7,2986.5,1212.2z
			 M2696.5,465.9c12,0,21.7-9.7,21.7-21.6v-51.8c0-11.9-9.7-21.6-21.7-21.6c-12,0-21.7,9.6-21.7,21.6v51.8
			C2674.8,456.2,2684.5,465.9,2696.5,465.9z M2893.7,547.2c5.5,0,11.1-2.1,15.3-6.3l36.8-36.6c8.5-8.4,8.5-22.1,0-30.5
			c-8.5-8.4-22.2-8.4-30.6,0l-36.8,36.6c-8.5,8.4-8.5,22.1,0,30.5C2882.6,545.1,2888.2,547.2,2893.7,547.2z M3180.6,1122.7h-428.9
			c-85.7,0-155.5-69.4-155.5-154.7c0-85.3,69.7-154.7,155.5-154.7c4.3,0,8.6,0.2,12.9,0.5c1.3,0.1,2.7,0.1,4,0
			c10.1-0.9,18.5-8.8,19.6-19.2c14.6-99.9,102-175.1,203.7-175.1c103.4,0,191.2,76.9,204.2,178.8c1.2,9.5,8.5,16.8,17.6,18.5
			c71,15.3,122.5,78.8,122.5,151.2C3336,1053.3,3266.3,1122.7,3180.6,1122.7z M2537.9,721.9c0-87.1,71.2-157.9,158.6-157.9
			c54.7,0,104.2,27.6,133.2,72.7c-39.9,34.1-69.1,80.4-81.1,133.5c-61.5,0.9-116.3,29.8-152.1,74.4
			C2559.5,814.7,2537.9,770.2,2537.9,721.9z M2417.6,700.4h-52c-12,0-21.7,9.7-21.7,21.6c0,11.9,9.7,21.6,21.7,21.6h52
			c12,0,21.7-9.6,21.7-21.6C2439.2,710,2429.5,700.4,2417.6,700.4z M2484,540.9c4.2,4.2,9.8,6.3,15.3,6.3c5.5,0,11.1-2.1,15.3-6.3
			c8.5-8.4,8.5-22.1,0-30.5l-36.8-36.6c-8.5-8.4-22.2-8.4-30.6,0c-8.5,8.4-8.5,22.1,0,30.5L2484,540.9z"/>
	</g>
</g>
</svg>
