<?xml version="1.0" encoding="utf-8"?>
<!-- Generator: Adobe Illustrator 25.0.0, SVG Export Plug-In . SVG Version: 6.00 Build 0)  -->
<svg version="1.1"
	 id="Layer_1" xmlns:cc="http://creativecommons.org/ns#" xmlns:dc="http://purl.org/dc/elements/1.1/" xmlns:inkscape="http://www.inkscape.org/namespaces/inkscape" xmlns:rdf="http://www.w3.org/1999/02/22-rdf-syntax-ns#" xmlns:sodipodi="http://sodipodi.sourceforge.net/DTD/sodipodi-0.dtd" xmlns:svg="http://www.w3.org/2000/svg"
	 xmlns="http://www.w3.org/2000/svg" xmlns:xlink="http://www.w3.org/1999/xlink" x="0px" y="0px" viewBox="0 0 64 64"
	 style="enable-background:new 0 0 64 64;" xml:space="preserve">
<g>
	<path d="M50.1,59.8l-6.9-1.9c-14.2,9.3-17.3,2.8-20.5,2.2c-0.9-0.2-0.2,0.9-3.9-0.2c-5-1.3-6.7-4.1-5.2-7.6
		c-4.1-1.5-4.5-4.1-3.2-7.6c-3.5-1.9-3.5-5.6-0.6-8.4c-4.1-8.2,2.6-14.9,17.9-10.6c1.1-8.2-2.6-13.2-1.1-18.1
		c1.5-5.8,5.6-6.7,11-6.5c-0.6,15.1-1.7,7.8,5.6,22.4c6,12.3,0.6,10.8,12.7,14.2C57.2,45.8,55.1,53.2,50.1,59.8z M49.2,57
		c3.7-5.4,5.2-11,4.7-17.3c-10.8-3-7.3-3.2-12.7-14.5c-7.3-15.5-6.9-7.3-6-21.6c-6.9,0.4-7.1,5.8-5.8,11.2c1.7,6,1.3,8.8,0.2,13.8
		C24,27.3,13,24.3,11.5,30.1c-1.7,6,4.7,8.8,7.6,9.1l9.5-1.5c-1.9-6.3-8-4.1-9.9-4.3l-2.2-0.4l-1.5-3c6.5,1.7,2.2,0.6,6.9,0.9
		c5.4,0.2,8.8,3.2,9.7,8.8L29.6,40c1.7,1.5,2.8,3.5,3.2,6.3l-1.9,0.2c1.1,1.3,1.9,3.2,2.6,5.6l-3.2,0.6c1.3,1.5,1.9,3.5,2.4,5.8
		l-6.5,0.9c6.5,2.4,11.2-0.2,16.6-4.3L49.2,57z M29.8,44.3c-2.6-6.7-6-2.4-10.8-2.8c-1.3,0-6-1.7-7.6-3c-5.2,4.3,8.2,7.1,8.8,7.1
		L29.8,44.3z M30.2,50.1l-2.2-3.2c-9.9,1.3-6.3,1.7-15.5-1.1c-2.4,4.3,7.6,6,7.8,6L30.2,50.1z M29.6,56.8l-1.9-3.7
		c-8,1.1-5.8,1.5-11.9-0.2c-0.9,3.7,3.7,5,5.2,5L29.6,56.8z"/>
</g>
</svg>
