<?xml version="1.0" encoding="utf-8"?>
<!-- Generator: Adobe Illustrator 25.0.0, SVG Export Plug-In . SVG Version: 6.00 Build 0)  -->
<svg version="1.1" id="Layer_1" xmlns="http://www.w3.org/2000/svg" xmlns:xlink="http://www.w3.org/1999/xlink" x="0px" y="0px"
	 viewBox="0 0 432 288" style="enable-background:new 0 0 432 288;" xml:space="preserve">
<style type="text/css">
	.st0{fill:#FFFFFF;}
	.st1{fill:#010101;}
	.st2{fill:#231F20;}
</style>
<path class="st0" d="M379.5,81.4l-61.8-42.1l-0.5-0.3c-0.8-0.5-1.6-1-2.5-1.5l-0.1-0.1c-0.2-0.1-0.4-0.2-0.6-0.3l-0.3-0.1
	c-0.5-0.3-1.1-0.5-1.6-0.8c-0.3-0.1-0.5-0.2-0.8-0.3l-0.6-0.2c-0.4-0.2-0.9-0.4-1.3-0.5c-0.4-0.1-0.8-0.3-1.1-0.4
	c-0.5-0.2-1.1-0.4-1.6-0.5c-0.3-0.1-0.6-0.2-0.9-0.2l-0.3-0.1c-0.6-0.1-1.1-0.3-1.6-0.4c-0.4-0.1-0.8-0.1-1.2-0.2l-0.1,0
	c-0.5-0.1-1-0.2-1.5-0.2c-0.5-0.1-1-0.1-1.4-0.1c-0.5,0-1-0.1-1.5-0.1c-0.4,0-0.8,0-1.2,0l-0.1,0c-0.8,0-1.5,0-2.2,0
	c-3.3,0.1-6.6,0.6-9.8,1.6l-61.4,20.2c-0.1-0.1-0.2-0.3-0.2-0.4l-0.1-0.1c-0.3-0.5-0.6-1-1-1.6c-0.2-0.3-0.4-0.5-0.5-0.7l-0.1-0.2
	c-0.3-0.5-0.7-1-1-1.4c-0.2-0.3-0.4-0.5-0.6-0.7l-0.3-0.4c-0.3-0.4-0.6-0.8-1-1.1c-0.2-0.2-0.4-0.5-0.7-0.7l-0.2-0.2
	c-0.4-0.4-0.7-0.7-1.1-1.1c-0.3-0.3-0.6-0.6-0.9-0.9c-0.4-0.3-0.8-0.7-1.1-1c-0.3-0.2-0.6-0.5-0.9-0.7l-0.1-0.1
	c-0.4-0.3-0.8-0.6-1.2-0.9c-0.3-0.2-0.7-0.5-1-0.7l-0.1-0.1c-0.4-0.3-0.9-0.6-1.3-0.8c-0.3-0.2-0.6-0.4-0.9-0.5l-0.2-0.1
	c-0.5-0.3-0.9-0.5-1.4-0.8c-0.4-0.2-0.8-0.4-1.1-0.5l-0.1-0.1c-0.4-0.2-0.9-0.4-1.3-0.6c-0.4-0.2-0.8-0.4-1.2-0.5
	c-0.5-0.2-0.9-0.4-1.4-0.5c-0.4-0.2-0.9-0.3-1.3-0.4c-0.5-0.1-0.9-0.3-1.4-0.4l-0.5-0.1c-0.3-0.1-0.6-0.2-0.9-0.2
	c-0.5-0.1-1-0.2-1.5-0.3c-0.4-0.1-0.9-0.2-1.3-0.2c-0.4-0.1-0.9-0.1-1.4-0.2l-0.4,0c-0.4,0-0.8-0.1-1.1-0.1c-0.4,0-0.9-0.1-1.4-0.1
	l-0.6,0c-0.3,0-0.5,0-0.7,0c-1,0-1.9,0-2.9,0.1l-74.8,2.8c-0.2,0-0.4,0-0.5,0c-0.7,0-1.4,0.1-2,0.2c-3.9,0.5-7.8,1.6-11.4,3.2
	c-2.4,1.1-4.7,2.4-6.8,3.9c-3.3,2.3-6.1,5.1-8.5,8.2c-0.2,0.2-0.3,0.4-0.4,0.6l-39.5,55.6c-2.9,3.8-5,8-6.4,12.6
	c-0.8,2.7-1.4,5.5-1.6,8.3c-0.7,7.6,0.7,15.3,4.1,22l36.7,66.8c0.4,0.8,0.9,1.6,1.3,2.4c0.1,0.2,0.3,0.4,0.4,0.6l0.2,0.4
	c0.3,0.4,0.6,0.9,0.9,1.3c0.2,0.2,0.3,0.5,0.5,0.7l0.3,0.5c0.3,0.4,0.5,0.7,0.8,1.1c0.2,0.3,0.5,0.6,0.7,0.8l0.2,0.2
	c0.3,0.4,0.6,0.7,0.9,1.1l0.1,0.1c0.2,0.2,0.3,0.3,0.5,0.5l0.5,0.5c0.3,0.3,0.6,0.6,0.9,0.8c0.2,0.2,0.5,0.4,0.7,0.7l0.3,0.3
	c0.3,0.3,0.7,0.6,1,0.8c0.2,0.2,0.5,0.4,0.8,0.6l0.5,0.4c0.3,0.2,0.6,0.5,0.9,0.7c0.2,0.2,0.5,0.3,0.7,0.4l0.7,0.4
	c0.3,0.2,0.6,0.4,0.9,0.6c0.3,0.2,0.6,0.3,0.9,0.5l0.2,0.1c0.4,0.2,0.8,0.5,1.3,0.7c0.3,0.2,0.6,0.3,0.9,0.5l0.4,0.2
	c0.4,0.2,0.7,0.4,1.1,0.5c0.2,0.1,0.6,0.2,0.9,0.4l0.2,0.1c0.5,0.2,0.9,0.4,1.4,0.5c0.2,0.1,0.5,0.2,0.8,0.3l0.3,0.1
	c0.5,0.2,0.9,0.3,1.4,0.4c0.4,0.1,0.8,0.2,1.1,0.3l0.6,0.1c0.3,0.1,0.7,0.2,1,0.2c0.4,0.1,0.7,0.1,1,0.2l0.9,0.2
	c0.2,0,0.5,0.1,0.7,0.1l0.1,0c0.4,0,0.7,0.1,1.1,0.1l0.2,0c0.4,0,0.9,0.1,1.3,0.1c0.4,0,0.7,0,1.1,0l0.5,0c0.3,0,0.6,0,0.8,0l0.5,0
	l76.9,1.7h0.6c0.2,0,0.5,0,0.6,0c1.2,0,2.4-0.1,3.4-0.3c5.8-0.7,11.2-2.7,16.2-5.7c2.4-1.5,4.7-3.3,6.8-5.3c2.1-2,4-4.3,5.6-6.7
	c0.1-0.2,0.2-0.3,0.3-0.5l1.1-1.9l34.9,26.9c0.2,0.2,0.4,0.3,0.7,0.5l0.1,0.1c0.8,0.5,1.6,1.1,2.5,1.6l0.1,0.1
	c0.2,0.1,0.5,0.2,0.7,0.4l0.4,0.2c0.5,0.3,1.1,0.6,1.6,0.8c0.3,0.2,0.7,0.3,1,0.5l0.4,0.2c0.5,0.2,0.9,0.4,1.4,0.6
	c0.4,0.2,0.8,0.3,1.3,0.5c0.6,0.2,1.1,0.4,1.7,0.6c0.3,0.1,0.6,0.2,1,0.3l0.4,0.1c0.5,0.1,1.1,0.3,1.6,0.4c0.4,0.1,0.8,0.2,1.2,0.2
	l0.2,0c0.5,0.1,1.1,0.2,1.6,0.3l0.2,0c0.4,0,0.8,0.1,1.2,0.1l0.1,0c0.6,0.1,1.1,0.1,1.7,0.1c0.5,0,0.9,0,1.4,0.1l0.2,0
	c0.3,0,0.6,0,0.8,0c0.5,0,0.9,0,1.4,0c4.3-0.1,8.5-1,12.6-2.4l0.2-0.1c0.1,0,0.2-0.1,0.4-0.1l60.5-24.6c1.6-0.6,3.2-1.3,4.7-2.1
	c1.6-0.8,3.1-1.7,4.5-2.7c2.8-2,5.4-4.3,7.6-6.9c0.6-0.7,1.1-1.3,1.6-2c2.6-3.5,4.7-7.3,6-11.4c0.6-1.7,1-3.4,1.4-5.1l15.2-76.9
	C399.9,106.2,393.1,90.1,379.5,81.4z M89.7,232.9L89.7,232.9L89.7,232.9L89.7,232.9z"/>
<g>
	<g>
		<g>
			<path class="st1" d="M88,223.5c0.3,0.3,0.6,0.6,0.9,0.9c0.2,0.2,0.5,0.4,0.7,0.6c0.3,0.3,0.6,0.6,0.9,0.8
				c0.2,0.2,0.5,0.4,0.8,0.6c0.3,0.2,0.6,0.5,1,0.7c0.3,0.2,0.5,0.4,0.8,0.5c0.3,0.2,0.7,0.4,1,0.6c0.3,0.2,0.6,0.3,0.9,0.5
				c0.3,0.2,0.7,0.4,1,0.6c0.3,0.2,0.6,0.3,0.9,0.4c0.3,0.2,0.7,0.3,1,0.5c0.3,0.1,0.6,0.3,0.9,0.4c0.4,0.1,0.7,0.3,1.1,0.4
				c0.3,0.1,0.6,0.2,1,0.3c0.4,0.1,0.7,0.2,1.1,0.3c0.3,0.1,0.7,0.2,1,0.3c0.4,0.1,0.7,0.2,1.1,0.3c0.3,0.1,0.7,0.1,1,0.2
				c0.4,0.1,0.7,0.1,1.1,0.2c0.4,0,0.7,0.1,1.1,0.1c0.4,0,0.8,0.1,1.1,0.1c0.4,0,0.7,0,1.1,0c0.3,0,0.6,0,0.9,0c0.2,0,0.4,0,0.6,0
				l1.7,0l75.3,1.7c0,0,0,0,0,0c0.1,0,0.1,0,0.2,0c0.1,0,0.1,0,0.2,0c0.1,0,0.1,0,0.2,0c1,0,1.9-0.1,2.9-0.2c4.7-0.6,9.1-2.2,13-4.6
				c2-1.2,3.8-2.7,5.5-4.3c1.7-1.6,3.2-3.4,4.5-5.4c0.1-0.1,0.1-0.2,0.2-0.3l2.3-3.8l-6.7-5.2l-2.8,4.6c-2.3,3.4-5.4,6.2-8.9,8
				l-38.3-76.4c-0.1-0.1-0.1-0.2-0.2-0.3c-1.5-2.9-2.2-5.8-2.4-8.5c-0.1-0.7-0.1-1.3-0.1-2c0.1-4.6,1.6-8.7,3.3-12.1
				c0.5-1,1-1.9,1.5-2.8c0.5-0.9,1-1.6,1.4-2.4l37-59.6l-46.1,53.9l0,0c-1.3,1.5-2.9,3.2-5.1,4.9c-0.4,0.3-0.9,0.7-1.3,1
				c-1.4,1-3,1.9-4.8,2.8c-0.6,0.3-1.2,0.6-1.9,0.8c-3.9,1.6-8.8,2.7-14.8,3L54,129.2c-0.5,2-0.7,4.1-0.6,6.2c0,0.6,0.1,1.2,0.2,1.8
				c0.2,1.8,0.7,3.6,1.3,5.1c0.1,0.4,0.4,1,0.6,1.3c0.1,0.1,0.1,0.2,0.1,0.3l1,1.8l1.9,3.5c2.5,4.6,4.9,9.3,7.3,13.7
				c3.5,6.7,6.8,13.1,9.7,18.9c1,1.9,1.9,3.8,2.8,5.6c7.2,14.4,11.5,24.3,11.5,24.3s-6-9-14.4-22.8c-3.2-5.2-6.6-11-10.3-17.3
				c-1.2-2.1-2.5-4.2-3.7-6.4c-2.5-4.4-5.1-8.9-7.7-13.5l-1.9-3.5l-1-1.7c-0.5-1-0.6-1.3-0.9-2c-1.2-2.9-1.8-5.8-2-8.8
				c-0.3-6,1.5-12,4.8-16.8c3.1-4.4,6.2-8.5,9.2-12.6c3-4,5.9-7.9,8.7-11.6c2.8-3.7,5.5-7.2,7.9-10.3c3.7-4.8,7-8.9,9.7-12.2
				c0.9-1.1,1.7-2.1,2.5-3c0.4-0.5,0.7-0.9,1.1-1.3c2.3-2.8,3.7-4.4,3.7-4.4c1-1.3,2.1-2.5,3.3-3.5c1.2-1,2.5-2,3.8-2.8
				c0.7-0.4,1.4-0.8,2.1-1.1c1.4-0.7,2.9-1.2,4.5-1.5c0.8-0.2,1.5-0.3,2.3-0.4c0.4,0,0.8-0.1,1.2-0.1l75-2.8
				c8.8-0.6,17.1,3.8,21.6,11.4c2.4-1.4,5-2.6,7.8-3.4c-0.1-0.1-0.1-0.2-0.2-0.4c-0.1-0.2-0.3-0.5-0.4-0.7c-0.3-0.4-0.5-0.9-0.8-1.3
				c-0.2-0.3-0.4-0.5-0.5-0.8c-0.3-0.4-0.5-0.8-0.8-1.1c-0.2-0.3-0.4-0.5-0.6-0.8c-0.3-0.3-0.6-0.7-0.9-1c-0.2-0.2-0.5-0.5-0.7-0.7
				c-0.3-0.3-0.6-0.6-0.9-0.9c-0.2-0.2-0.5-0.5-0.7-0.7c-0.3-0.3-0.6-0.6-1-0.8c-0.3-0.2-0.5-0.4-0.8-0.6c-0.3-0.3-0.7-0.5-1-0.8
				c-0.3-0.2-0.6-0.4-0.8-0.6c-0.3-0.2-0.7-0.5-1.1-0.7c-0.3-0.2-0.6-0.4-0.9-0.5c-0.4-0.2-0.7-0.4-1.1-0.6
				c-0.3-0.2-0.6-0.3-0.9-0.5c-0.4-0.2-0.8-0.3-1.1-0.5c-0.3-0.1-0.6-0.3-0.9-0.4c-0.4-0.2-0.8-0.3-1.2-0.4c-0.3-0.1-0.6-0.2-1-0.3
				c-0.4-0.1-0.8-0.2-1.2-0.3c-0.3-0.1-0.7-0.2-1-0.2c-0.4-0.1-0.8-0.2-1.3-0.3c-0.3-0.1-0.7-0.1-1-0.2c-0.4-0.1-0.9-0.1-1.3-0.2
				c-0.3,0-0.7-0.1-1-0.1c-0.5,0-0.9,0-1.4-0.1c-0.3,0-0.6,0-0.9,0c0,0-0.1,0-0.1,0c-0.7,0-1.4,0-2.2,0.1l-74.8,2.8
				c-0.1,0-0.2,0-0.3,0c-0.6,0-1.1,0.1-1.7,0.2c-3.2,0.4-6.3,1.3-9.2,2.6c-1.9,0.9-3.8,2-5.5,3.2c-2.6,1.9-5,4.1-6.9,6.7
				c-0.1,0.1-0.1,0.2-0.2,0.2L68.7,86.3l-19.8,27.9c-2.4,3.1-4.1,6.6-5.3,10.3c-0.7,2.2-1.1,4.4-1.3,6.7c-0.6,6.1,0.5,12.2,3.3,17.8
				c0,0.1,0.1,0.2,0.1,0.3l36.5,66.4c0.3,0.7,0.7,1.3,1.1,2c0.1,0.2,0.3,0.4,0.4,0.6c0.3,0.4,0.5,0.8,0.8,1.2
				c0.2,0.2,0.3,0.5,0.5,0.7c0.3,0.4,0.5,0.7,0.8,1.1c0.2,0.2,0.4,0.5,0.6,0.7c0.3,0.3,0.6,0.7,0.9,1
				C87.6,223.1,87.8,223.3,88,223.5z"/>
		</g>
		<g>
			<path class="st1" d="M122.9,114.9c-1.8-3.6,2.4-9.3,9.5-12.8c7-3.5,14.2-3.5,16,0.1c1.8,3.6-2.4,9.3-9.5,12.8
				C131.8,118.5,124.7,118.5,122.9,114.9z"/>
		</g>
		<g>
			<path class="st1" d="M178.9,68.2c-0.3,0.3-0.6,0.6-1,0.8c-1.4,1.1-2.9,2.1-4.7,3c-7,3.5-14.2,3.5-16-0.1c-1.2-2.4,0.4-5.9,3.8-9
				c0.9-0.8,2-1.7,3.2-2.4c0.8-0.5,1.6-1,2.5-1.4c7-3.5,14.2-3.5,16,0.1C183.9,61.6,182.3,65.1,178.9,68.2z"/>
		</g>
		<g>
			<path class="st1" d="M75.1,105.3c7-3.5,14.2-3.5,16,0.1c0.6,1.1,0.5,2.4,0,3.8c-0.8,2.3-2.9,4.7-5.8,6.8
				c-1.1,0.8-2.3,1.5-3.6,2.2c-7,3.5-14.2,3.5-16-0.1c-0.2-0.4-0.4-0.9-0.4-1.4c-0.1-0.8,0.1-1.6,0.4-2.4
				C66.8,111.2,70.3,107.7,75.1,105.3z"/>
		</g>
		<g>
			<path class="st1" d="M123.9,63.1c0.2,0.4,0.4,0.9,0.4,1.4s0,1-0.1,1.6c-0.3,1.4-1.1,2.8-2.4,4.3c-1.7,2-4.3,4-7.3,5.5
				c-7,3.5-14.2,3.5-16-0.1c-0.1-0.2-0.2-0.5-0.3-0.7c-0.1-0.5-0.2-1-0.1-1.5c0-0.5,0.2-1.1,0.4-1.6c0.3-0.8,0.8-1.7,1.4-2.6
				c1.7-2.3,4.5-4.6,8-6.4C115,59.5,122.1,59.6,123.9,63.1z"/>
		</g>
		<g>
			<path class="st0" d="M75.2,145c4-2.8,12.1-0.4,18.1,5.3c6,5.7,7.7,12.7,3.7,15.5c-4,2.8-12.1,0.4-18.1-5.3
				C72.9,154.8,71.3,147.8,75.2,145z"/>
		</g>
		<g>
			<path class="st0" d="M145.5,196c4-2.8,12.1-0.4,18.1,5.3c6,5.7,7.7,12.7,3.7,15.5c-4,2.8-12.1,0.4-18.1-5.3
				C143.2,205.7,141.5,198.8,145.5,196z"/>
		</g>
		<g>
			<g>
				<path class="st1" d="M281.9,248.8L281.9,248.8L281.9,248.8c3.5-0.1,6.9-0.8,10.1-2c0.1,0,0.2-0.1,0.3-0.1l30.3-12.3l30.3-12.3
					c1.3-0.5,2.6-1.1,3.9-1.7c1.2-0.7,2.5-1.4,3.6-2.2c2.3-1.6,4.4-3.5,6.2-5.6c0.5-0.5,0.9-1.1,1.3-1.6c2.1-2.8,3.8-5.9,4.9-9.2
					c0.5-1.3,0.8-2.7,1.1-4.1l15.2-76.9c2.6-12.9-2.9-25.8-13.9-32.8l-61.9-42.2c-0.1-0.1-0.2-0.1-0.2-0.2c-0.7-0.4-1.3-0.8-2-1.2
					c-0.2-0.1-0.5-0.2-0.7-0.3c-0.5-0.2-0.9-0.5-1.4-0.7c-0.3-0.1-0.6-0.2-0.9-0.3c-0.4-0.2-0.9-0.4-1.3-0.5
					c-0.3-0.1-0.6-0.2-0.9-0.3c-0.4-0.1-0.8-0.3-1.3-0.4c-0.3-0.1-0.7-0.2-1-0.2c-0.4-0.1-0.8-0.2-1.3-0.3c-0.3-0.1-0.7-0.1-1-0.2
					c-0.4-0.1-0.8-0.1-1.3-0.2c-0.4,0-0.7-0.1-1.1-0.1c-0.4,0-0.9-0.1-1.3-0.1c-0.4,0-0.7,0-1.1,0c-0.2,0-0.4,0-0.7,0
					c-0.4,0-0.8,0-1.2,0l0,0l0,0c-2.7,0.1-5.4,0.5-8,1.3c-0.1,0-0.2,0.1-0.3,0.1l-64.9,21.4c-8.3,2.4-15.2,8-19.4,15.3
					c-1.9,3.3-3.2,6.9-3.9,10.8c0,0.1,0,0.1,0,0.2c0,0.1,0,0.1,0,0.2l-4.7,35.2l-5.3,39.9c-0.5,2.9-0.5,5.8-0.2,8.7
					c0.3,2.3,0.7,4.5,1.5,6.6c1.4,4.2,3.6,8,6.6,11.3c1.5,1.6,3.2,3.1,5,4.4l60.9,47c0.1,0.1,0.2,0.2,0.3,0.2c0,0,0,0,0,0
					c0.7,0.5,1.4,0.9,2.1,1.3c0.2,0.1,0.5,0.3,0.8,0.4c0.5,0.3,1,0.5,1.5,0.8c0.3,0.2,0.6,0.3,0.9,0.4c0.5,0.2,0.9,0.4,1.4,0.6
					c0.3,0.1,0.7,0.2,1,0.4c0.4,0.2,0.9,0.3,1.4,0.5c0.4,0.1,0.7,0.2,1.1,0.3c0.5,0.1,0.9,0.2,1.4,0.3c0.4,0.1,0.7,0.1,1.1,0.2
					c0.5,0.1,0.9,0.2,1.4,0.2c0.4,0,0.8,0.1,1.1,0.1c0.5,0,0.9,0.1,1.4,0.1c0.4,0,0.8,0,1.2,0c0.3,0,0.5,0,0.8,0
					C281.1,248.8,281.5,248.8,281.9,248.8z M221.8,69.3c2.6-0.8,5.1-1.6,7.6-2.4c2.5-0.8,4.9-1.5,7.3-2.3c9.6-3,18.7-5.6,26.4-7.8
					c3.9-1.1,7.4-2.1,10.6-2.9c0.8-0.2,1.6-0.4,2.3-0.6c1.5-0.4,2.9-0.7,4.1-1.1c5.7-1.5,9-2.2,9-2.2c1-0.3,2-0.5,3-0.7
					c1-0.2,2-0.3,3-0.3c4.8-0.2,9.5,1.1,13.5,3.6l62,42.2c3,1.9,5.5,4.5,7.3,7.4c1.5,2.4,2.5,5.1,3.1,8c0.5,2.8,0.5,5.8-0.1,8.8
					l-15.2,76.9c-1.7,8.4-7.7,15.3-15.8,18.3l-60.7,24.7c-1.2,0.4-2.5,0.8-3.7,1c-1.3,0.2-2.5,0.4-3.8,0.4c-1.5,0-2.9-0.1-4.4-0.3
					l14.5-83.8c0.1-0.2,0.1-0.5,0.1-0.8c0.7-4.1,2.2-7.3,4.2-9.9c1.2-1.6,2.5-2.9,4-4.1c0.5-0.4,1-0.7,1.4-1.1c3.4-2.4,7-3.9,9.8-5
					l65.2-26l-69.1,16.1c-6.2,1.4-16.5,2.5-29.9-6.5l-60.6-40.5c-1.6,1.4-3,2.9-4.2,4.6c-1.3,1.9-2.3,4.3-2.9,6.4
					c-0.1,0.5-0.3,1.5-0.4,1.7l-0.3,2c-0.2,1.3-0.4,2.6-0.6,3.9c-0.7,5.2-1.6,10.4-2.3,15.4c-1.1,7.5-2.3,14.6-3.4,21
					c-0.4,2.1-0.7,4.2-1.1,6.2c-1.2,6.9-2.4,12.9-3.2,17.3c-0.3,1.3-0.5,2.4-0.7,3.5c-0.7,3.6-1.2,5.6-1.2,5.6s0.5-10.8,1.9-26.8
					c0.7-8,1.6-17.4,2.8-27.4c0.3-2.5,0.6-5,0.9-7.6c0.3-2.6,0.6-5.2,0.9-7.8c0.2-1.3,0.3-2.6,0.5-3.9l0.3-2
					c0.2-1.1,0.3-1.4,0.5-2.2c0.2-0.8,0.4-1.5,0.7-2.2c0.5-1.4,1.1-2.8,1.8-4.1c0.4-0.7,0.7-1.3,1.1-1.9c0.4-0.6,0.9-1.2,1.3-1.8
					c0.9-1.2,2-2.3,3.1-3.3c0.6-0.5,1.1-1,1.7-1.4c1.8-1.4,3.7-2.5,5.7-3.4C220.4,69.8,221.1,69.5,221.8,69.3z"/>
			</g>
			<g>
				<path class="st1" d="M293.7,109.9c-1.9-0.3-3.7-0.8-5.4-1.5c-2-0.8-3.7-1.8-5-2.9c-1.8-1.6-2.7-3.4-2.4-5.1
					c0.7-3.9,7.5-6.1,15.2-4.7c4.8,0.8,8.9,2.8,11.1,5.1c0.2,0.2,0.4,0.5,0.6,0.7c0.4,0.5,0.6,1,0.8,1.5c0.3,0.7,0.4,1.5,0.3,2.2
					C308.3,109.1,301.5,111.2,293.7,109.9z"/>
			</g>
			<g>
				<path class="st1" d="M310.2,73c-0.7,3.9-7.5,6.1-15.2,4.7c-4.8-0.8-8.9-2.8-11.1-5.1c-1.3-1.4-2-2.9-1.7-4.4
					c0.7-3.9,7.5-6.1,15.2-4.7c1,0.2,1.9,0.4,2.8,0.6c2.2,0.6,4.2,1.5,5.8,2.5c0.3,0.2,0.6,0.4,0.9,0.6c1.2,0.9,2.1,1.8,2.6,2.8
					c0.1,0.2,0.3,0.5,0.4,0.7C310.2,71.5,310.3,72.2,310.2,73z"/>
			</g>
			<g>
				<path class="st1" d="M356.3,148.3c-2-1.3-2.4-4.3-1.5-8c0.5-2.2,1.6-4.6,3.1-6.9c4-6.2,9.8-9.6,12.9-7.6
					c0.8,0.5,1.3,1.3,1.6,2.3c0.3,1,0.4,2.2,0.3,3.6c-0.3,2.7-1.4,5.9-3.4,9C365.2,146.9,359.4,150.3,356.3,148.3z"/>
			</g>
			<g>
				<path class="st1" d="M322.9,143.1c1.6,1,2.2,3.2,1.9,5.9c-0.3,2.7-1.4,5.9-3.4,9c-4,6.2-9.8,9.6-12.9,7.6
					c-1.2-0.8-1.8-2.2-1.9-4c-0.1-1.2,0.1-2.6,0.4-4c0.4-1.5,0.9-3,1.7-4.6c0.4-0.8,0.8-1.6,1.3-2.3
					C314,144.5,319.8,141.1,322.9,143.1z"/>
			</g>
			<g>
				<path class="st1" d="M343,196.1c0.6-1.5,1.4-3.1,2.4-4.7c4-6.2,9.8-9.6,12.9-7.6c1.2,0.8,1.8,2.2,1.9,4c0.1,1.2-0.1,2.6-0.4,4
					c-0.4,1.5-0.9,3-1.7,4.6c-0.4,0.8-0.8,1.6-1.3,2.3c-4,6.2-9.8,9.6-12.9,7.6C341.4,204.8,341.2,200.7,343,196.1z"/>
			</g>
			<g>
				<path class="st1" d="M295,225.3c-2-1.3-2.4-4.3-1.5-8c0.4-1.5,0.9-3,1.7-4.6c0.4-0.8,0.8-1.6,1.3-2.3c4-6.2,9.8-9.6,12.9-7.6
					c2.7,1.8,2.6,7.1-0.2,12.6c-0.4,0.8-0.8,1.6-1.3,2.3C303.9,223.9,298.1,227.3,295,225.3z"/>
			</g>
			<g>
				<path class="st0" d="M246.5,171.1c-4,4.2-11.2,2.7-16.2-3.5c-3.1-3.8-4.6-8.6-4.2-12.6c0.2-2.4,1-4.6,2.5-6.2
					c4-4.2,11.2-2.7,16.2,3.5c0.6,0.8,1.2,1.6,1.7,2.4c1.2,2.1,2,4.3,2.4,6.4c0.1,0.4,0.1,0.9,0.2,1.3c0.2,1.7,0,3.3-0.4,4.8
					c-0.1,0.4-0.2,0.7-0.4,1.1C247.8,169.4,247.3,170.3,246.5,171.1z"/>
			</g>
		</g>
	</g>
	<g>
		<path class="st2" d="M177.6,118c1.9-0.2,3.7,1.2,5.1,3.5c1.4,2.3,2.5,5.6,2.8,9.2c0.7,7.4-1.8,13.6-5.5,13.9
			c-1.4,0.1-2.8-0.6-4-1.9c-0.8-0.9-1.5-2.1-2.1-3.4c-0.6-1.4-1.1-3-1.4-4.7c-0.2-0.9-0.3-1.8-0.4-2.7
			C171.4,124.6,173.9,118.4,177.6,118z"/>
	</g>
</g>
</svg>
