<?xml version="1.0" encoding="utf-8"?>
<!-- Generator: Adobe Illustrator 26.5.0, SVG Export Plug-In . SVG Version: 6.00 Build 0)  -->
<svg version="1.1" id="Layer_1" xmlns="http://www.w3.org/2000/svg" xmlns:xlink="http://www.w3.org/1999/xlink" x="0px" y="0px"
	 width="64px" height="64px" viewBox="0 0 64 64" style="enable-background:new 0 0 64 64;" xml:space="preserve">
<style type="text/css">
	.st0{fill:#FFFFFF;}
</style>
<path class="st0" d="M19.1,32.1C19.1,32,19.1,32,19.1,32.1c0-7.1,5.8-12.9,12.9-12.9S44.9,24.9,44.9,32c0,0,0,0,0,0.1H58
	c0,0,0,0,0-0.1C58,17.7,46.4,6.1,32,6.1S6,17.7,6,32c0,0,0,0,0,0.1H19.1z"/>
<g>
	<path class="st0" d="M22.8,41c-0.8-0.8-1.5-1.7-2.1-2.7h-14C7,39.2,7.3,40.1,7.6,41H22.8z"/>
	<path class="st0" d="M45.6,54.1c0.6-0.3,1.1-0.7,1.7-1.1H16.8c0.5,0.4,1.1,0.8,1.7,1.1H45.6z"/>
	<path class="st0" d="M11.9,48.4c0.4,0.5,0.8,1,1.3,1.4h37.7c0.4-0.5,0.9-0.9,1.3-1.4H11.9z"/>
	<path class="st0" d="M38.4,43.1c-1.9,1.1-4.1,1.7-6.4,1.7c-2.3,0-4.5-0.6-6.4-1.7H8.5c0.4,0.8,0.9,1.7,1.3,2.5h44.3
		c0.5-0.8,0.9-1.6,1.3-2.5H38.4z"/>
	<path class="st0" d="M25.6,57.1c2,0.5,4.2,0.8,6.4,0.8s4.4-0.3,6.4-0.8H25.6z"/>
	<path class="st0" d="M44.8,33.3c-0.1,1-0.3,1.9-0.6,2.8h13.5c0.1-0.9,0.2-1.8,0.3-2.8H44.8z"/>
	<path class="st0" d="M6,33.3c0,0.9,0.1,1.9,0.3,2.8h13.5c-0.3-0.9-0.5-1.8-0.6-2.8H6z"/>
	<path class="st0" d="M43.2,38.2c-0.6,1-1.3,1.9-2.1,2.7h15.2c0.3-0.9,0.6-1.8,0.8-2.7H43.2z"/>
</g>
</svg>
