<?xml version="1.0" encoding="utf-8"?>
<!-- Generator: Adobe Illustrator 25.2.3, SVG Export Plug-In . SVG Version: 6.00 Build 0)  -->
<svg version="1.1" id="Layer_1" xmlns="http://www.w3.org/2000/svg" xmlns:xlink="http://www.w3.org/1999/xlink" x="0px" y="0px"
	 viewBox="0 0 340.7 100" style="enable-background:new 0 0 340.7 100;" xml:space="preserve">
<style type="text/css">
	.st0{fill:#FFD500;}
	.st1{fill:#104BA3;}
	.st2{fill:#1EB7F1;}
</style>
<path class="st0" d="M25.6,50L25.6,50c0-13.7,11-24.7,24.6-24.7s24.6,11,24.6,24.6V50H100v-0.1c0-27.5-22.3-49.8-49.8-49.8
	C22.7,0.1,0.4,22.4,0.4,49.9V50H25.6z"/>
<g>
	<path class="st1" d="M32.6,67.2c-1.5-1.6-2.9-3.3-3.9-5.3H1.8c0.4,1.8,1,3.5,1.6,5.3H32.6z"/>
	<path class="st1" d="M76.1,92.4c1.1-0.7,2.1-1.4,3.2-2.1H21.1c1,0.7,2.1,1.5,3.2,2.1H76.1z"/>
	<path class="st1" d="M11.6,81.5c0.8,0.9,1.6,1.8,2.4,2.7h72.3c0.8-0.9,1.6-1.8,2.4-2.7H11.6z"/>
	<path class="st1" d="M62.4,71.3c-3.6,2.1-7.8,3.2-12.2,3.2s-8.6-1.2-12.2-3.2H5.2C6,72.9,6.8,74.5,7.8,76h84.9
		c0.9-1.5,1.8-3.1,2.6-4.7H62.4z"/>
	<path class="st1" d="M37.9,98.2c3.9,1,8,1.5,12.3,1.5c4.2,0,8.3-0.5,12.3-1.5H37.9z"/>
	<path class="st2" d="M74.7,52.5c-0.2,1.8-0.6,3.6-1.2,5.3h25.9c0.3-1.7,0.5-3.5,0.6-5.3H74.7z"/>
	<path class="st2" d="M0.4,52.5c0.1,1.8,0.3,3.6,0.6,5.3h25.9c-0.6-1.7-1-3.5-1.2-5.3H0.4z"/>
	<path class="st1" d="M71.7,61.9c-1.1,1.9-2.4,3.7-3.9,5.3H97c0.6-1.7,1.2-3.5,1.6-5.3C98.6,61.9,71.7,61.9,71.7,61.9z"/>
</g>
<g>
	<g>
		<path class="st1" d="M119.7,51.8c0-7.1,5.3-11.8,11.7-11.8c6.3,0,11.7,4.7,11.7,11.8s-5.4,11.8-11.7,11.8
			C125,63.6,119.7,58.9,119.7,51.8z M138.4,51.8c0-4.3-3.2-7.4-7-7.4s-7,3-7,7.4s3.2,7.4,7,7.4S138.4,56.1,138.4,51.8z"/>
		<path class="st1" d="M146.4,51.8c0-7.1,5.6-11.8,12-11.8c3.6,0,6.7,1.5,8.7,3.8l-3.1,2.9c-1.3-1.4-3.2-2.4-5.5-2.4
			c-4.1,0-7.4,3.1-7.4,7.4s3.3,7.4,7.4,7.4c2.2,0,4.2-0.9,5.5-2.4l3.1,2.9c-2,2.4-5,3.8-8.7,3.8C152,63.6,146.4,58.9,146.4,51.8z"/>
		<path class="st1" d="M192,53.7h-17.7c0.6,3.7,3.3,5.5,6.9,5.5c2.6,0,5-1.2,6.3-3.3l3.7,1.9c-2,3.7-5.9,5.8-10.2,5.8
			c-6.4,0-11.5-4.8-11.5-11.9S174.6,40,181,40c6.3,0,11.1,4.6,11.1,11.7C192.1,52.3,192,53,192,53.7z M187.4,49.9
			c-0.5-3.5-3-5.5-6.4-5.5s-6,1.8-6.7,5.5H187.4z"/>
		<path class="st1" d="M214.1,40.6h4.7V63h-4.7v-3.8c-1.4,2.6-4.5,4.4-7.9,4.4c-5.8,0-10.8-4.9-10.8-11.8c0-6.7,4.7-11.8,11-11.8
			c3.2,0,6.3,1.4,7.7,3.9V40.6z M214.1,51.8c0-4.3-3.6-7.4-7.1-7.4c-3.8,0-6.8,3.4-6.8,7.4s3,7.4,6.9,7.4
			C210.7,59.2,214.1,56,214.1,51.8z"/>
		<path class="st1" d="M245.8,50.2V63h-4.7V50.5c0-3.7-2.2-5.9-5-5.9c-2.9,0-6.4,1.7-6.4,6.3V63H225V40.6h4.7V44
			c1.3-2.8,4.9-4,7.2-4C242.6,40,245.9,43.8,245.8,50.2z"/>
		<path class="st1" d="M250.9,32.4c0-1.7,1.5-3,3.2-3c1.8,0,3.2,1.3,3.2,3s-1.4,3-3.2,3C252.4,35.4,250.9,34.1,250.9,32.4z
			 M251.8,63V40.6h4.7V63H251.8z"/>
		<path class="st1" d="M261.3,51.8c0-7.1,5.6-11.8,12-11.8c3.6,0,6.7,1.5,8.7,3.8l-3.1,2.9c-1.3-1.4-3.2-2.4-5.5-2.4
			c-4.1,0-7.4,3.1-7.4,7.4s3.3,7.4,7.4,7.4c2.2,0,4.2-0.9,5.5-2.4l3.1,2.9c-2,2.4-5,3.8-8.7,3.8C266.8,63.6,261.3,58.9,261.3,51.8z"
			/>
	</g>
	<g>
		<path class="st2" d="M304.1,40.6h4.7V63h-4.7v-3.8c-1.4,2.6-4.5,4.4-7.9,4.4c-5.8,0-10.8-4.9-10.8-11.8c0-6.7,4.7-11.8,11-11.8
			c3.2,0,6.3,1.4,7.7,3.9L304.1,40.6L304.1,40.6z M304,51.8c0-4.3-3.6-7.4-7.1-7.4c-3.8,0-6.8,3.4-6.8,7.4s3,7.4,6.9,7.4
			C300.7,59.2,304,56,304,51.8z"/>
		<path class="st2" d="M314.1,32.4c0-1.7,1.5-3,3.2-3c1.8,0,3.2,1.3,3.2,3s-1.4,3-3.2,3C315.6,35.4,314.1,34.1,314.1,32.4z M315,63
			V40.6h4.7V63H315z"/>
		<path class="st2" d="M340.7,40.8l-0.8,4.5c-1.2-0.6-2.4-0.8-3.3-0.8c-4,0-5.9,4.4-5.9,10.4V63H326V40.6h4.7v5
			c1.1-3.9,3.4-5.6,6.2-5.6C338.4,40,340,40.4,340.7,40.8z"/>
	</g>
</g>
<g>
	<path class="st2" d="M135.4,70.4h1.3l-2.4,6.8h-1.1l-1.2-4l-1.2,4h-0.9l-2.4-6.8h1.2l1.9,4.8l1.2-3.9h0.9l1.2,3.9L135.4,70.4z"/>
	<path class="st2" d="M143.4,70.4h1.2v6.8h-1.2v-2.8h-3.1v2.8h-1.2v-6.8h1.2v2.9h3.1V70.4z"/>
	<path class="st2" d="M152.2,77.2l-0.7-1.7h-2.8l-0.7,1.7h-1.2l2.7-6.8h1.3l2.7,6.8H152.2z M149.1,74.6h2l-1.1-2.8L149.1,74.6z"/>
	<path class="st2" d="M159.6,70.4v1.1h-2v5.7h-1.2v-5.7h-2v-1.1H159.6z"/>
	<path class="st2" d="M165.4,73.9c0-2,1.6-3.5,3.6-3.5c1.1,0,1.9,0.4,2.5,1.1l-0.8,0.8c-0.4-0.4-1.1-0.7-1.6-0.7
		c-1.3,0-2.4,1.1-2.4,2.4c0,1.3,1.1,2.4,2.4,2.4c1.1,0,2-0.7,2.1-1.5h-2v-1.1h3.3c0,2.5-1.3,3.6-3.5,3.6
		C167,77.4,165.4,75.8,165.4,73.9z"/>
	<path class="st2" d="M174.6,73.9c0-2,1.6-3.5,3.6-3.5s3.6,1.6,3.6,3.5s-1.6,3.5-3.6,3.5S174.6,75.8,174.6,73.9z M180.6,73.9
		c0-1.3-1.1-2.4-2.4-2.4c-1.3,0-2.4,1.1-2.4,2.4c0,1.3,1.1,2.4,2.4,2.4C179.5,76.3,180.6,75.2,180.6,73.9z"/>
	<path class="st2" d="M185.6,76.2h3.2v1.1h-4.4v-6.8h4.3v1.1h-3.2v1.9h2.8v1.1h-2.8v1.7H185.6z"/>
	<path class="st2" d="M191.2,75.2h1.2c0,0.5,0.5,1.1,1.3,1.1c0.8,0,1.2-0.4,1.2-0.9c0-0.5-0.4-0.8-1.1-0.9l-0.9-0.3
		c-1.5-0.4-1.7-1.2-1.7-1.9c0-1.2,1.1-2,2.4-2c1.3,0,2.3,0.8,2.3,2h-1.2c0-0.5-0.4-0.9-1.2-0.9c-0.7,0-1.2,0.4-1.2,0.9
		c0,0.1,0.1,0.5,0.9,0.8l0.8,0.3c1.2,0.3,2,0.9,2,2c0,1.2-1.1,2-2.5,2C192.3,77.4,191.2,76.4,191.2,75.2z"/>
	<path class="st2" d="M203,74.8v-4.4h1.2v4.4c0,0.9,0.7,1.3,1.5,1.3c0.8,0,1.5-0.4,1.5-1.3v-4.4h1.2v4.4c0,1.6-1.2,2.5-2.7,2.5
		C204.3,77.4,203,76.4,203,74.8z"/>
	<path class="st2" d="M214.3,70.4c1.6,0,2.3,1.1,2.3,2.3c0,1.1-0.7,2.1-2.3,2.1h-1.7v2.4h-1.2v-6.8H214.3z M214.2,73.8
		c0.8,0,1.1-0.5,1.1-1.1c0-0.5-0.3-1.1-1.1-1.1h-1.6v2.3h1.6V73.8z"/>
	<path class="st1" d="M231,77.2h-1.2l-0.5-4.7l-2,3.9h-0.9l-2-3.9l-0.5,4.7h-1.2l0.9-6.8h1.1l2.4,4.7l2.4-4.7h1.1L231,77.2z"/>
	<path class="st1" d="M233.8,74.8v-4.4h1.2v4.4c0,0.9,0.7,1.3,1.5,1.3s1.5-0.4,1.5-1.3v-4.4h1.2v4.4c0,1.6-1.2,2.5-2.7,2.5
		C235,77.4,233.8,76.4,233.8,74.8z"/>
	<path class="st1" d="M241.6,75.2h1.2c0,0.5,0.5,1.1,1.3,1.1s1.2-0.4,1.2-0.9c0-0.5-0.4-0.8-1.1-0.9l-0.9-0.3
		c-1.5-0.4-1.7-1.2-1.7-1.9c0-1.2,1.1-2,2.4-2s2.3,0.8,2.3,2h-1.1c0-0.5-0.4-0.9-1.2-0.9c-0.7,0-1.2,0.4-1.2,0.9
		c0,0.1,0.1,0.5,0.9,0.8l0.8,0.3c1.2,0.3,2,0.9,2,2c0,1.2-1.1,2-2.5,2C242.7,77.4,241.6,76.4,241.6,75.2z"/>
	<path class="st1" d="M253.9,70.4v1.1h-2v5.7h-1.3v-5.7h-2v-1.1H253.9z"/>
	<path class="st1" d="M259.6,73.9c0-1.9,1.6-3.5,3.6-3.5c1.2,0,2.1,0.5,2.8,1.3l-0.9,0.7c-0.4-0.5-1.1-0.9-1.9-0.9
		c-1.3,0-2.4,1.1-2.4,2.4c0,1.3,1.1,2.4,2.4,2.4c0.8,0,1.5-0.4,1.9-0.9L266,76c-0.7,0.8-1.6,1.3-2.8,1.3
		C261.2,77.4,259.6,75.8,259.6,73.9z"/>
	<path class="st1" d="M268,73.9c0-2,1.6-3.5,3.6-3.5s3.6,1.6,3.6,3.5s-1.6,3.5-3.6,3.5C269.6,77.4,268,75.8,268,73.9z M274,73.9
		c0-1.3-1.1-2.4-2.4-2.4c-1.3,0-2.4,1.1-2.4,2.4c0,1.3,1.1,2.4,2.4,2.4S274,75.2,274,73.9z"/>
	<path class="st1" d="M286.2,77.2H285l-0.5-4.7l-2,3.9h-0.9l-2-3.9l-0.5,4.7h-1.2l0.9-6.8h1.1l2.4,4.7l2.4-4.7h1.1L286.2,77.2z"/>
	<path class="st1" d="M290,76.2h3.2v1.1h-4.4v-6.8h4.3v1.1h-3.2v1.9h2.8v1.1h-2.8v1.7H290z"/>
	<path class="st1" d="M300.2,77.2v-6.8h2.8c2,0,3.2,1.5,3.2,3.5c0,1.9-1.2,3.3-3.2,3.3H300.2z M301.4,76.2h1.6c1.3,0,2-1.1,2-2.3
		c0-1.3-0.7-2.4-2-2.4h-1.6V76.2z"/>
	<path class="st1" d="M308.4,73.9c0-2,1.6-3.5,3.6-3.5s3.6,1.6,3.6,3.5s-1.6,3.5-3.6,3.5S308.4,75.8,308.4,73.9z M314.4,73.9
		c0-1.3-1.1-2.4-2.4-2.4c-1.3,0-2.4,1.1-2.4,2.4c0,1.3,1.1,2.4,2.4,2.4C313.5,76.3,314.4,75.2,314.4,73.9z"/>
	<path class="st1" d="M325.2,70.4h1.3l-2.4,6.8h-0.9l-1.2-4l-1.2,4h-0.9l-2.4-6.8h1.2l1.6,4.8l1.2-3.9h0.9l1.2,3.9L325.2,70.4z"/>
	<path class="st1" d="M333,70.4h1.2v6.8h-1.1l-2.9-4.7v4.7H329v-6.8h1.2l2.9,4.5v-4.5H333z"/>
</g>
</svg>
