<?xml version="1.0" encoding="utf-8"?>
<!-- Generator: Adobe Illustrator 25.2.3, SVG Export Plug-In . SVG Version: 6.00 Build 0)  -->
<svg version="1.1" id="Layer_1" xmlns="http://www.w3.org/2000/svg" xmlns:xlink="http://www.w3.org/1999/xlink" x="0px" y="0px"
	 viewBox="0 0 256 256" style="enable-background:new 0 0 256 256;" xml:space="preserve">
<style type="text/css">
	.st0{fill:#FFD500;}
	.st1{fill:#104BA3;}
	.st2{fill:#1EB7F1;}
</style>
<path class="st0" d="M64.7,128.3c0-0.1,0-0.2,0-0.3c0-34.9,28.3-63.3,63.3-63.3c34.9,0,63.3,28.3,63.3,63.3c0,0.1,0,0.2,0,0.3H256
	c0-0.1,0-0.2,0-0.3C256,57.3,198.7,0,128,0S0,57.3,0,128c0,0.1,0,0.2,0,0.3H64.7z"/>
<g>
	<path class="st1" d="M82.9,172.4c-4-4-7.4-8.6-10.1-13.5h-69c1.1,4.6,2.5,9.1,4.1,13.5H82.9z"/>
	<path class="st1" d="M194.7,237.2c2.8-1.7,5.5-3.5,8.1-5.4H53.1c2.6,1.9,5.3,3.7,8.1,5.4H194.7z"/>
	<path class="st1" d="M29,209.1c2,2.4,4.1,4.7,6.2,7h185.7c2.1-2.3,4.2-4.6,6.2-7H29z"/>
	<path class="st1" d="M159.4,182.9c-9.2,5.3-19.9,8.3-31.4,8.3c-11.4,0-22.1-3-31.4-8.3H12.4c2,4.2,4.2,8.2,6.6,12.1h218
		c2.4-3.9,4.6-8,6.6-12.1H159.4z"/>
	<path class="st1" d="M96.5,252.1c10.1,2.6,20.6,3.9,31.5,3.9s21.4-1.4,31.5-3.9H96.5z"/>
	<path class="st2" d="M190.9,134.6c-0.5,4.7-1.5,9.3-3,13.6h66.4c0.7-4.5,1.2-9,1.4-13.6H190.9z"/>
	<path class="st2" d="M0.2,134.6c0.2,4.6,0.7,9.1,1.4,13.6H68c-1.5-4.3-2.5-8.9-3-13.6H0.2z"/>
	<path class="st1" d="M183.2,158.8c-2.8,5-6.2,9.5-10.1,13.5h75c1.6-4.4,3-8.9,4.1-13.5H183.2z"/>
</g>
</svg>
