<?xml version="1.0" encoding="utf-8"?>
<!-- Generator: Adobe Illustrator 25.2.2, SVG Export Plug-In . SVG Version: 6.00 Build 0)  -->
<svg version="1.1" id="Layer_1" xmlns="http://www.w3.org/2000/svg" xmlns:xlink="http://www.w3.org/1999/xlink" x="0px" y="0px"
	 viewBox="0 0 100 100" style="enable-background:new 0 0 100 100;" xml:space="preserve">
<style type="text/css">
	.st0{fill:#FFFFFF;}
	.st1{fill:#005680;}
	.st2{fill:none;}
	.st3{fill:#0B3454;}
	.st4{fill:#793121;}
	.st5{fill:#AB3E33;}
</style>
<polygon class="st0" points="100,64.9 50,94.2 0.3,64.9 0.3,35.9 50.1,22.2 100,35.9 "/>
<path class="st1" d="M26.1,50.2L26.1,50.2c0.8-0.6,0.9-1.2,0.9-1.8V46c0-2.9-1.6-3.8-5.2-3.8H10.2v6.6H8v3.5h2.2v5.3h12.9
	c3.5,0,5-1.5,5-3.7v-1.5C28.1,51.1,27.5,50.5,26.1,50.2z M15,45.7h6c1,0,1.4,0.3,1.4,1.1v1c0,0.9-0.3,1.2-1.4,1.2h-6V45.7z
	 M23.3,53.5c0,0.5-0.3,0.8-0.9,0.8H15v-1.9h7.3c0.9,0,1.1,0.2,1.1,0.6L23.3,53.5L23.3,53.5z"/>
<path class="st1" d="M42.1,42.2h-7.3c-3.4,0-5.3,1.2-5.3,3.8v7.8c0,2.3,1.6,3.8,5.3,3.8h7.3c3.5,0,5.3-1.2,5.3-3.8v-7.7
	C47.4,43.4,45.9,42.2,42.1,42.2z M42.6,53.2c0,0.8-0.3,1.1-1.4,1.1h-5.6c-1.1,0-1.4-0.2-1.4-1.1v-6.4c0-0.9,0.3-1.1,1.4-1.1h5.6
	c1.1,0,1.4,0.2,1.4,1.1V53.2z"/>
<path class="st1" d="M48.4,52.3h2.2v5.3h12.9c3.5,0,5-1.5,5-3.7v-1.5c0-1.4-0.6-2-2-2.2c0.9-0.5,1-1.1,1-1.8V46
	c0-2.9-1.6-3.8-5.2-3.8H50.6v6.6h-2.2L48.4,52.3L48.4,52.3z M55.3,45.7h6c1,0,1.4,0.3,1.4,1.1v1c0,0.9-0.3,1.2-1.4,1.2h-6V45.7z
	 M55.3,52.3h7.3c0.9,0,1.1,0.2,1.1,0.6v0.5c0,0.5-0.3,0.8-0.9,0.8h-7.4L55.3,52.3L55.3,52.3z"/>
<polygon class="st1" points="74.6,42.2 69.6,42.2 69.6,48.2 73,48.2 "/>
<path class="st1" d="M92.1,54v-1.8c0-2.7-1.8-3.6-5.1-3.6h-5.2c-0.9,0-1.3-0.3-1.3-0.8v-1.3c0-0.5,0.4-0.8,1.2-0.8h8.7v-3.4h-9.3
	c-3.3,0-5.4,1.2-5.4,3.6v2.9c0,2.6,2.1,3.3,5.2,3.3H86c1,0,1.3,0.3,1.3,0.7v0.7c0,0.4-0.3,0.7-1.3,0.7H75.8v3.4h11
	C90.3,57.7,92.1,56.3,92.1,54z"/>
<g>
	<path class="st2" d="M2.3,69.4l42.5,22.9L2.3,69.4c-1.1-0.6-1.8-1.5-2.2-2.5l0,0c0,0,0,0,0-0.1C0.5,67.8,1.3,68.8,2.3,69.4z"/>
	<polygon class="st2" points="0.1,38.1 0.1,38.1 50,24.5 	"/>
	<path class="st2" d="M100,67.5c-0.4,1.1-1.1,2.1-2.2,2.7L50,96.7l0,0L2.3,70.1c-1.1-0.6-1.9-1.6-2.2-2.7c0,0,0,0,0-0.1
		c0,1.5,0,3,0,4.4V100H100V67.5L100,67.5z"/>
	<polygon class="st2" points="100,61.6 100,61.6 83.8,66.3 	"/>
	<polygon class="st2" points="50,91 50,90.9 52.5,74.6 100,61 100,38.9 50,25.6 50,25.6 0.1,38.8 0.1,61.1 47.6,74.6 	"/>
	<path class="st2" d="M1.3,31.3c-0.1,0.1-0.2,0.2-0.3,0.3C1.1,31.6,1.2,31.4,1.3,31.3z"/>
	<polygon class="st2" points="50,92.4 50,92.5 50,92.5 50,92.4 52.5,75.5 52.5,75.5 	"/>
	<path class="st2" d="M2.3,29.6L50,3l0,0l47.8,26.5c1.1,0.6,1.9,1.6,2.2,2.7l0,0V0.1H74.3C72,0,69.6,0,66.9,0H33.2
		c-2.8,0-5.4,0-7.8,0.1H0.1V28c0,1.4,0,2.8,0,4.2l0,0C0.5,31.1,1.3,30.2,2.3,29.6z"/>
	<path class="st2" d="M0.1,33L0.1,33c0.1-0.2,0.1-0.4,0.2-0.5C0.3,32.7,0.2,32.9,0.1,33z"/>
	<path class="st3" d="M1,31.7c0.1-0.1,0.2-0.2,0.3-0.3c0.3-0.3,0.7-0.6,1.1-0.8L50,4.9l0,0l47.8,25.7c1.1,0.6,1.9,1.5,2.2,2.6v0.1
		v-0.9l0,0c-0.4-1.1-1.1-2.1-2.2-2.7L50,3l0,0L2.3,29.6c-1.1,0.6-1.9,1.6-2.2,2.7l0,0c0,0.3,0,0.5,0,0.8v0.1c0,0,0,0,0-0.1l0,0
		c0.1-0.2,0.1-0.4,0.2-0.5C0.5,32.2,0.7,31.9,1,31.7z"/>
	<polygon class="st4" points="50,25.6 100,38.9 100,38.2 50,24.5 50,24.5 0.1,38.1 0.1,38.8 	"/>
	<path class="st5" d="M50,24.5L50,24.5l50,13.7v-5v-0.1c-0.4-1.1-1.1-2-2.2-2.6L50,4.9l0,0L2.3,30.5c-0.4,0.2-0.8,0.5-1.1,0.8
		c-0.1,0.1-0.2,0.2-0.3,0.3c-0.2,0.3-0.4,0.6-0.6,0.9c-0.1,0.2-0.2,0.4-0.3,0.6v5L50,24.5L50,24.5z"/>
	<path class="st3" d="M2.3,70.1L50,96.7l0,0l47.8-26.5c1.1-0.6,1.9-1.6,2.2-2.7l0,0v-0.8v0.1c-0.4,1.1-1.1,2-2.2,2.6L50,95l0,0l0,0
		l-5.2-2.8L2.3,69.3c-1.1-0.6-1.9-1.5-2.2-2.6c0,0.2,0,0.4,0,0.6c0,0,0,0,0,0.1C0.5,68.6,1.3,69.5,2.3,70.1z"/>
	<polygon class="st4" points="50,92.5 50,92.4 52.5,75.5 52.5,75.5 52.5,75.5 83.8,66.3 100,61.6 100,61 52.5,74.6 50,90.9 50,91 
		47.6,74.6 0.1,61.1 0.1,61.6 47.6,75.5 	"/>
	<path class="st5" d="M2.3,69.4L50,95l0,0l0,0l47.8-25.7c1.1-0.6,1.9-1.5,2.2-2.6v-0.1v-5.1l-47.5,14l0,0L50,92.4v0.1l0,0l-2.5-17
		L0.1,61.6v5.3C0.5,67.9,1.3,68.8,2.3,69.4z"/>
</g>
</svg>
