<?xml version="1.0" encoding="utf-8"?>
<!-- Generator: Adobe Illustrator 26.3.1, SVG Export Plug-In . SVG Version: 6.00 Build 0)  -->
<svg version="1.1" id="Layer_1" xmlns="http://www.w3.org/2000/svg" xmlns:xlink="http://www.w3.org/1999/xlink" x="0px" y="0px"
	 viewBox="0 0 26 32" style="enable-background:new 0 0 26 32;" xml:space="preserve">
<style type="text/css">
	.st0{opacity:0.8;fill:#EAEAEA;enable-background:new    ;}
	.st1{fill:#848484;}
	.st2{fill:#EAEAEA;}
	.st3{fill:#191919;}
</style>
<rect x="1" y="0" class="st0" width="2" height="32"/>
<rect x="1" y="29" class="st1" width="2" height="1"/>
<rect x="1" y="25" class="st1" width="2" height="1"/>
<rect x="1" y="21" class="st1" width="2" height="1"/>
<rect x="1" y="17" class="st1" width="2" height="1"/>
<rect x="1" y="13" class="st1" width="2" height="1"/>
<rect x="1" y="9" class="st1" width="2" height="1"/>
<rect x="1" y="5" class="st1" width="2" height="1"/>
<rect x="1" y="1" class="st1" width="2" height="1"/>
<rect x="23" y="0" class="st0" width="2" height="32"/>
<rect x="23" y="29" class="st1" width="2" height="1"/>
<rect x="23" y="25" class="st1" width="2" height="1"/>
<rect x="23" y="21" class="st1" width="2" height="1"/>
<rect x="23" y="17" class="st1" width="2" height="1"/>
<rect x="23" y="13" class="st1" width="2" height="1"/>
<rect x="23" y="9" class="st1" width="2" height="1"/>
<rect x="23" y="5" class="st1" width="2" height="1"/>
<rect x="23" y="1" class="st1" width="2" height="1"/>
<rect x="7" y="3" class="st2" width="12" height="21"/>
<rect x="1" y="31" class="st3" width="2" height="1"/>
<rect x="23" y="31" class="st3" width="2" height="1"/>
</svg>
