<?xml version="1.0" encoding="utf-8"?>
<!-- Generator: Adobe Illustrator 25.2.2, SVG Export Plug-In . SVG Version: 6.00 Build 0)  -->
<svg version="1.1" id="Layer_1" xmlns="http://www.w3.org/2000/svg" xmlns:xlink="http://www.w3.org/1999/xlink" x="0px" y="0px"
	 viewBox="0 0 64 64" style="enable-background:new 0 0 64 64;" xml:space="preserve">
<g>
	<path d="M41.3,56c-2,0.5-4,0.7-6,0.4c-1.9-0.3-3.8-0.9-5.6-1.8c-0.9-0.4-1.7-0.9-2.5-1.5c-0.7-0.5-1.5-1.2-2.2-1.8
		c-1.4-1.3-2.7-2.7-3.8-4.3c-1.1-1.5-2-3.3-2.6-5.1C18.3,41,18,40,17.9,39.1c-0.1-0.5-0.2-0.9-0.2-1.4c-0.7,2.3-1.1,4.7-1,7.1
		c0,2.5,0.6,4.9,1.8,7.1c0.6,1,1.4,2,2.3,2.9s2,1.6,3.1,2.2c5.9,2.7,12.4,2.1,17.7-1.1C41.4,55.9,41.3,55.9,41.3,56z"/>
	<path d="M49.6,23.7l8.1,2.9l-0.2-1.8l-8-5c0-0.1,0-0.3,0-0.4c-0.1-4.1-0.9-5-1.8-5.2c-0.1,0-0.1,0-0.2,0c-0.8,0.4-1.4,1.4-0.9,5.5
		c0,0.1,0,0.3,0.1,0.4l-7,6.3l0.2,1.8l7.4-4.3c0.4,2.2,0.7,4.3,1,5.7l-2.2,1.8l0.1,1.2c1.3,13.1-11.4,22.4-21,15.5
		c-0.7-0.5-1.4-1-2-1.6c7.6,8.7,27.6,11.1,28.8-15.6l-2.4-1.4C49.6,28,49.6,25.9,49.6,23.7z"/>
	<path d="M44,33.2l-2,1.7c0.1,3.7-0.5,7.6-2.6,10.9C42.7,43.4,43.9,38,44,33.2z"/>
	<path d="M52.9,42.9c1.4-2.3,2.6-6.4,3.1-9.7l-1.4-0.8C54.6,36.8,53.7,40.8,52.9,42.9z"/>
	<path d="M52,30.9c-1.2,26.7-21.1,24.4-28.8,15.7c0.8,1.1,1.8,2.2,2.9,3.2c0.7,0.6,1.3,1.2,2.1,1.8c0.7,0.5,1.4,1,2.2,1.4
		c1.6,0.8,3.3,1.4,5,1.7c1.8,0.3,3.6,0.2,5.4-0.2s3.4-1.3,4.9-2.4c1.4-1.1,2.7-2.6,3.7-4.2c2.3-4.3,3.5-9.6,2.8-15.7L52,30.9z"/>
	<path d="M15.8,37c0.7-2.5,1.8-4.9,3.2-7.1c0.6-1.2,1.5-2.3,2.6-3.5s2.5-2.3,4.1-3.5c-0.1,0-0.2,0.1-0.3,0.1
		c0.1-0.1,0.2-0.1,0.3-0.2c2.7,4.2,0.5,11.4-3.6,14.2c0,0,2.8-0.1,5.1-2.6c0,0,0.3,0.8,0.2,1.2c0,0,3-3.2,1.7-7.7c0,0,0.7,0.4,1,0.9
		c0,0,0.1-3-2.5-5.2c3.6,2.1,5.8,6.6,4.3,12.3c1.6-1,2.5-3.3,2.5-3.3c0.7,0.7,1.2,1.5,1.2,1.5c1.7-4.5-0.8-7.6-0.7-7.6
		c0.8,0.3,2.3,1.4,2.3,1.4c-0.7-2.8-4.2-5.8-8.9-5.8c3.8-1.2,5.6-4.5,5.6-4.5c-0.8,0.6-1.6,0.5-1.6,0.5c4.6-4.5,1.3-9.2,1.3-9.2
		c-0.2,1.4-0.7,2.2-0.7,2.2c-2.3-4.1-6.3-5.7-6.3-5.7c3.3,5.5,2.3,11.6,0.1,15.1c1.5-3.9,0.7-8.5-5-12.9c0,0,1.2,1.6,1.4,3.9
		c0,0-3.7-4.4-9.1-3.2c0,0,1.2,0.5,1.7,1.3c0,0-2.6-0.9-6.3,2c4.8-1.1,11.5,1.8,14.5,6.7c-2-2.3-5.6-3.9-9.2-3.5
		c0.9,0.6,1.4,1.3,1.4,1.3c-4.5-2-8.4,2.9-8.4,2.9c0.7-0.4,1.6-0.4,1.7-0.4c-2.3,1.9-3.1,5.3-3.1,5.3c6.4-5.7,14.5-5.4,18.4-2.1
		C11.4,26.3,8.8,41.6,15.3,50c0.1,0.1,0.2,0.3,0.3,0.4c-0.1-0.2-0.1-0.4-0.2-0.5l0.1-0.2c-0.1-0.2-0.1-0.5-0.2-0.8
		c-0.4-1.3-0.5-2.6-0.6-3.9c0-0.1,0-0.1,0-0.2C14.6,42.2,15.1,39.5,15.8,37z"/>
</g>
</svg>
