<?xml version="1.0" encoding="utf-8"?>
<!-- Generator: Adobe Illustrator 25.0.0, SVG Export Plug-In . SVG Version: 6.00 Build 0)  -->
<svg version="1.1" id="Layer_1" xmlns="http://www.w3.org/2000/svg" xmlns:xlink="http://www.w3.org/1999/xlink" x="0px" y="0px"
	 viewBox="0 0 100 100" style="enable-background:new 0 0 100 100;" xml:space="preserve">
<style type="text/css">
	.st0{fill:#F9B618;}
	.st1{fill:url(#SVGID_1_);}
	.st2{fill:#F8A81A;}
	.st3{fill:#FFFFFF;}
	.st4{fill:#B21F39;}
</style>
<g id="bg_1_">
	<rect class="st0" width="100" height="100"/>
	
		<linearGradient id="SVGID_1_" gradientUnits="userSpaceOnUse" x1="-4411.3647" y1="-4041.155" x2="-4419.9888" y2="-4026.218" gradientTransform="matrix(7.92 0 0 -7.92 35022.1602 -31896.7988)">
		<stop  offset="0" style="stop-color:#FFFFFF;stop-opacity:0"/>
		<stop  offset="1" style="stop-color:#FFFFFF;stop-opacity:0.2"/>
	</linearGradient>
	<rect class="st1" width="100" height="100"/>
</g>
<g id="Layer_2">
	<g>
		<path class="st2" d="M22.2,62.6l0.4-0.5l6.9-7.2l2.2-2.3l2.4,2.1l2.5,2.2l11.4-11.3l2.3-2.3l2.3,2.2l3.2,3l16.4-16.1
			C66.9,29,60.6,27,54,27c-8.5,0-16.6,3.3-22.6,9.4c-6,6-9.4,14.1-9.4,22.6c0,1.1,0.1,2.2,0.2,3.3C22.2,62.3,22.2,62.5,22.2,62.6z"
			/>
		<g>
			<path class="st3" d="M76.3,38.8L56,59.2l-5.6-5.3L37,67.2l-4.8-4.2L20.5,75.1H24h1.8l6.7-6.9L28,75.1h7.7l13.4-13.7l-8.2,13.7h9
				l24-27.6L61.3,75.1h13.3h1.2c1.7-0.3,3.1-1.6,3.3-3.4v-1V36.1v-0.1L76.3,38.8z"/>
			<path class="st3" d="M36.7,61.6l13.7-13.4l5.5,5.3l21.1-20.7l0.3-0.3C71,27.1,62.9,23.8,54,23.8c-19.5,0-35.3,15.8-35.3,35.3
				c0,2.2,0.2,4.3,0.6,6.3l-5.8,6.4c-0.1,0.1-0.2,0.2-0.3,0.3c-0.2,0.3-0.4,0.7-0.4,1.1c0,1,0.7,1.8,1.7,1.9h0.5l1.7-1.8l3.6-3.9
				l11.6-12.1L36.7,61.6z M31.4,36.3c6-6,14.1-9.4,22.6-9.4c6.5,0,12.9,2,18.2,5.7L55.8,48.8l-3.2-3l-2.3-2.2l-2.3,2.3L36.6,57
				l-2.5-2.2l-2.4-2.1l-2.2,2.3l-6.9,7.2l-0.4,0.5c0-0.1,0-0.2,0-0.3C22.1,61.2,22,60.1,22,59C22,50.4,25.4,42.4,31.4,36.3z"/>
		</g>
		<g>
			<path class="st4" d="M76.3,26.4L76.3,26.4l3.5,3.6l-2.8,2.8c0,0,0,0,0,0L55.8,53.5l-5.5-5.3L36.7,61.6l-4.8-4.3L20.3,69.4
				l-3.6,3.9l-1.7,1.8h5.4l11.7-12.2l4.8,4.2l13.4-13.2l5.6,5.3l20.4-20.4l2.8-2.8v0.1c0,0,0-0.1,0-0.1l3.4-3.3l3.5,3.6l0,0
				l2.3-12.1l0-0.1L76.3,26.4z"/>
		</g>
	</g>
</g>
</svg>
