<?xml version="1.0" encoding="utf-8"?>
<!-- Generator: Adobe Illustrator 24.3.0, SVG Export Plug-In . SVG Version: 6.00 Build 0)  -->
<svg version="1.1" id="Layer_1" xmlns="http://www.w3.org/2000/svg" xmlns:xlink="http://www.w3.org/1999/xlink" x="0px" y="0px"
	 viewBox="0 0 512 512" style="enable-background:new 0 0 512 512;" xml:space="preserve">
<style type="text/css">
	.st0{fill:#FFFFFF;}
</style>
<path class="st0" d="M498.1,188H333.8c0,0,0-9.6,0-18.7c4.3,0,4.9,1.5,4.9,1.5s0-8.1,0-10.6s-4.9-4-4.9-4c0-1.2,0-2.1,0-2.6
	c0-0.9-0.2-2.3-0.6-3.9c3,0.2,5.8,1,7.9,1.2c2.5,0.2,17.8-1,20.5-1.4s3.9-2.6,0.9-2.8c-2.9-0.2-13.9-0.9-17.3-1.2
	c-3.2-0.3-6.4,0-12.9,1c-1.7-5.1-4.3-10.8-6-10.8s-4.3,5.6-6,10.8c-6.5-1-9.7-1.3-12.9-1c-3.4,0.3-14.4,1-17.3,1.2s-1.7,2.4,0.9,2.8
	c2.7,0.4,18,1.6,20.5,1.4c2.2-0.2,5-1,7.9-1.2c-0.4,1.6-0.6,2.9-0.6,3.9c0,0.5,0,1.4,0,2.6c0,0-4.9,1.5-4.9,4s0,10.6,0,10.6
	s0.6-1.5,4.9-1.5c0,9.1,0,18.7,0,18.7h-39.4c0-19.2,0-36.7,0-45.2c0-23.3-8.1-56.9-13.1-79.2c-1.1-4.8-3.6-10-10.3-10
	s-9.2,5.2-10.3,10c-5,22.3-13.1,55.9-13.1,79.2c0,8.5,0,26,0,45.2h-39.4c0,0,0-9.6,0-18.7c4.3,0,4.9,1.5,4.9,1.5s0-8.1,0-10.6
	s-4.9-4-4.9-4c0-1.2,0-2.1,0-2.6c0-0.9-0.2-2.3-0.6-3.9c3,0.2,5.8,1,7.9,1.2c2.5,0.2,17.8-1,20.5-1.4s3.9-2.6,0.9-2.8
	c-2.9-0.2-13.9-0.9-17.3-1.2c-3.2-0.3-6.4,0-12.9,1c-1.7-5.1-4.3-10.8-6-10.8s-4.3,5.6-6,10.8c-6.5-1-9.7-1.3-12.9-1
	c-3.4,0.3-14.4,1-17.3,1.2c-2.9,0.2-1.7,2.4,0.9,2.8s18,1.6,20.5,1.4c2.2-0.2,5-1,7.9-1.2c-0.4,1.6-0.6,2.9-0.6,3.9
	c0,0.5,0,1.4,0,2.6c0,0-4.9,1.5-4.9,4s0,10.6,0,10.6s0.6-1.5,4.9-1.5c0,9.1,0,18.7,0,18.7H13.9c0,0-8.7-0.8-8.7,17.2s8.5,36,9.8,36
	s217.7,0,217.7,0c0,12,0,20.6,0,22.2c0,5.5,1.3,13.9,4.4,35.8c1.7,12.1,6.1,51.9,10.4,89.2h-70.8c0,0-3.4-0.9-3.4,13.8
	c0,14.7,3.1,26.9,4.2,26.9c1.1,0,72.1-1.9,74.5-1.9c1.7,13.8,3.1,25.1,4.1,31.3c1-6.2,2.4-17.4,4.1-31.3c2.4,0.1,73.4,1.9,74.5,1.9
	s4.2-12.2,4.2-26.9c0-14.7-3.4-13.8-3.4-13.8h-70.8c4.3-37.4,8.7-77.1,10.4-89.2c3.1-21.9,4.4-30.3,4.4-35.8c0-1.6,0-10.2,0-22.2
	c0,0,216.4,0,217.7,0c1.3,0,9.8-18,9.8-36S498.1,188,498.1,188z"/>
</svg>
