<?xml version="1.0" encoding="utf-8"?>
<!-- Generator: Adobe Illustrator 24.3.0, SVG Export Plug-In . SVG Version: 6.00 Build 0)  -->
<svg version="1.1" id="Layer_1" xmlns="http://www.w3.org/2000/svg" xmlns:xlink="http://www.w3.org/1999/xlink" x="0px" y="0px"
	 viewBox="0 0 512 512" style="enable-background:new 0 0 512 512;" xml:space="preserve">
<style type="text/css">
	.st0{fill:#FFFFFF;}
</style>
<rect x="34" y="259.2" class="st0" width="193.4" height="7.5"/>
<path class="st0" d="M225.9,183h-16.5v-12.4c0-4.1-3.3-7.4-7.4-7.4c-4.1,0-7.4,3.3-7.4,7.4v14.2h31.2L225.9,183L225.9,183z"/>
<rect x="284.6" y="259.2" class="st0" width="193.4" height="7.5"/>
<path class="st0" d="M302.6,183h-16.5v1.9h31.2v-14.2c0-4.1-3.3-7.4-7.4-7.4s-7.4,3.3-7.4,7.4L302.6,183L302.6,183z"/>
<path class="st0" d="M283.1,188h-0.2c0,0,0,0,0-9.5s-10.5-63-12-64.2c-1.3-1-6.3-2.2-7.7-2.5c0.1-0.1,0.2-0.2,0.2-0.4
	c0-0.6-0.1-1.2-0.2-1.8c9.9,0.5,41.4,0.1,41.4-1.4c0-1.6-28.8-2.3-42.3-1.7c-1.8-5.2-5.4-10.7-6.4-10.7s-4.6,5.5-6.4,10.7
	c-13.5-0.6-42.3,0.1-42.3,1.7c0,1.5,31.5,1.9,41.4,1.4c-0.1,0.6-0.2,1.2-0.2,1.8c0,0.2,0.1,0.3,0.2,0.4c-1.4,0.3-6.4,1.4-7.7,2.5
	c-1.6,1.2-12,54.7-12,64.2s0,9.5,0,9.5h-0.2H6.5v68.3h223.6c0,0,11,47.1,18.7,93.5l-50.9,11.5c0,0-5.6,1.6-5.6,8.2
	c0,6.7,0,14.9,0,19.6s5.9,5.9,5.9,5.9l45.8,4.4c0,0,5.5-1.4,6.3-6c0.6-3.3,2-11,2.8-15.1c1.8,14.3,3,27.5,3,37.9
	c0-10.4,1.2-23.6,3-37.9c0.8,4.2,2.2,11.8,2.8,15.1c0.8,4.6,6.3,6,6.3,6L314,395c0,0,5.9-1.1,5.9-5.9s0-13,0-19.6
	c0-6.7-5.6-8.2-5.6-8.2l-50.9-11.5c7.7-46.4,18.7-93.5,18.7-93.5h223.6V188H283.1z"/>
</svg>
