<?xml version="1.0" encoding="utf-8"?>
<!-- Generator: Adobe Illustrator 26.3.1, SVG Export Plug-In . SVG Version: 6.00 Build 0)  -->
<svg version="1.1" id="Layer_1" xmlns="http://www.w3.org/2000/svg" xmlns:xlink="http://www.w3.org/1999/xlink" x="0px" y="0px"
	 viewBox="0 0 512 512" style="enable-background:new 0 0 512 512;" xml:space="preserve">
<style type="text/css">
	.st0{fill:#FFFFFF;}
</style>
<path class="st0" d="M496.8,407.2c-1.9-19.7-103-80.1-128.4-91.6c-25.4-11.4-54.7,25.4-68.7,41.3c-14.6,15.3-70.6-31.2-94.7-54.7
	c0,0-63.6-71.2-49-86.5c14.6-15.3,50.9-45.8,38.2-70.6c-12.7-24.8-76.9-124-97.3-125.3c-19.7-1.3-61.7,10.2-79.5,55.3
	C1.7,115.2,66.2,254.1,146.7,335.5l-6.6-5.9c75.7,91.6,260,179.3,304.6,159.6C489.1,469.6,498.7,427,496.8,407.2z"/>
</svg>
