<?xml version="1.0" encoding="utf-8"?>
<!-- Generator: Adobe Illustrator 27.1.1, SVG Export Plug-In . SVG Version: 6.00 Build 0)  -->
<svg version="1.1" id="Layer_1" xmlns="http://www.w3.org/2000/svg" xmlns:xlink="http://www.w3.org/1999/xlink" x="0px" y="0px"
	 width="150px" height="150px" viewBox="0 0 150 150" style="enable-background:new 0 0 150 150;" xml:space="preserve">
<style type="text/css">
	.st0{fill:#FFFFFF;}
</style>
<path class="st0" d="M124.3,94.1v-2.6l-15.8-13.2L109,75h0.3c0,0,0.3-1,0.3-2.4c0,0,0-2.6-0.4-2.7c-0.5-0.1-0.9-0.1-1.7-0.1h-0.2
	c-0.7,0-1.2,0-1.7,0.1c-0.4,0.1-0.4,2.7-0.4,2.7c0,1.3,0.3,2.4,0.3,2.4h0.3l0.2,1.1L94.6,65.6l0.5-3.4h0.3c0,0,0.3-1,0.3-2.4
	c0,0,0-2.6-0.4-2.7c-0.5-0.1-0.9-0.1-1.7-0.1h-0.2c-0.7,0-1.2,0-1.7,0.1c-0.4,0.1-0.4,2.7-0.4,2.7c0,1.3,0.3,2.4,0.3,2.4H92l0.2,1.1
	L80.5,52.6V41.5c0-6.9-2-21.4-5.1-21.4c-3.1,0-5.1,14.5-5.1,21.4v11.1L58.6,63.3l0.2-1.1h0.3c0,0,0.3-1,0.3-2.4c0,0,0-2.6-0.4-2.7
	c-0.5-0.1-0.9-0.1-1.7-0.1h-0.2c-0.7,0-1.2,0-1.7,0.1c-0.4,0.1-0.4,2.7-0.4,2.7c0,1.3,0.3,2.4,0.3,2.4h0.3l0.5,3.4L44.6,76.1
	l0.2-1.1h0.3c0,0,0.3-1,0.3-2.4c0,0,0-2.6-0.4-2.7c-0.5-0.1-0.9-0.1-1.7-0.1h-0.2c-0.7,0-1.2,0-1.7,0.1c-0.4,0.1-0.4,2.7-0.4,2.7
	c0,1.3,0.3,2.4,0.3,2.4h0.3l0.5,3.3L26.4,91.5v2.6l-1,4v2.2l1.3-2.6l5-3.7l11.6-6.7l5-2.9c0,0.7,0.2,1.3,0.4,1.7
	c0.3-0.5,0.4-1.2,0.4-2.2l4.3-2.5c0,0.6,0.2,1.1,0.4,1.5c0.2-0.5,0.4-1.1,0.4-1.9l1.5-0.8l2.7-0.9l3.3-1.1c0,0.7,0.2,1.3,0.4,1.7
	c0.2-0.5,0.4-1.1,0.4-2l3.5-1.1c0,0.8,0.2,1.4,0.4,1.8c0.2-0.5,0.4-1.2,0.4-2.1l4-1.3v19.1c0,7.4,1,14.8,1.4,16.7
	c0.2,1.1,0.1,1.5-0.3,1.9c-0.4,0.4-13.5,12.1-13.5,12.1v4l16.4-4.4L75,127l0.3,3.2l0.3-3.2l0.7-2.4l16.4,4.4v-4
	c0,0-13.1-11.7-13.5-12.1c-0.4-0.4-0.4-0.8-0.3-1.9c0.3-1.9,1.4-9.3,1.4-16.7V75.3l4,1.3c0,0.9,0.1,1.6,0.4,2.1
	c0.2-0.5,0.4-1.1,0.4-1.8l3.5,1.1c0,0.8,0.1,1.5,0.4,2c0.2-0.4,0.3-1,0.4-1.7l3.3,1.1l2.7,0.9l1.5,0.8c0,0.8,0.1,1.4,0.4,1.9
	c0.2-0.4,0.3-0.9,0.4-1.5l4.3,2.5c0,0.9,0.1,1.6,0.4,2.2c0.2-0.4,0.3-1,0.4-1.7l5,2.9l11.6,6.7l5,3.7l1.3,2.6v-2.2L124.3,94.1z"/>
</svg>
