<?xml version="1.0" encoding="utf-8"?>
<!-- Generator: Adobe Illustrator 24.3.0, SVG Export Plug-In . SVG Version: 6.00 Build 0)  -->
<svg version="1.1"
	 id="Layer_1" xmlns:cc="http://creativecommons.org/ns#" xmlns:dc="http://purl.org/dc/elements/1.1/" xmlns:inkscape="http://www.inkscape.org/namespaces/inkscape" xmlns:rdf="http://www.w3.org/1999/02/22-rdf-syntax-ns#" xmlns:sodipodi="http://sodipodi.sourceforge.net/DTD/sodipodi-0.dtd" xmlns:svg="http://www.w3.org/2000/svg"
	 xmlns="http://www.w3.org/2000/svg" xmlns:xlink="http://www.w3.org/1999/xlink" x="0px" y="0px" viewBox="0 0 64 64"
	 style="enable-background:new 0 0 64 64;" xml:space="preserve">
<style type="text/css">
	.st0{fill:#FFFFFF;}
</style>
<g>
	<path class="st0" d="M28.6,53.2c1.3,0.8,2.5,1.4,3.4,1.9c2.1-1.1,5.6-3,9.1-5.5c6.3-4.6,9.8-9.1,9.8-12.8V23.5l-23,29.3
		C28.1,52.9,28.3,53.1,28.6,53.2z"/>
	<path class="st0" d="M13.2,37.9L35.4,9.7l-3.4-1l-18.9,5.7v22.4C13.1,37.1,13.1,37.5,13.2,37.9z"/>
	<path class="st0" d="M22.1,48.9l27.5-35l-7.1-2.1L17,44.4C18.3,45.9,20.1,47.4,22.1,48.9z"/>
	<g>
		<path class="st0" d="M56.7,7.2L33,0.2C32.7,0.1,32.4,0,32,0c-0.4,0-0.7,0.1-1,0.2l-23.7,7c-1.5,0.5-2.6,1.9-2.6,3.5v26
			c0,2.1,0.5,4.2,1.4,6.3c0.7,1.7,1.8,3.4,3.1,5.1c0.6,0.7,1.2,1.5,1.9,2.2c1.7,1.8,3.7,3.6,6.1,5.4l0.2,0.2
			c0.2,0.2,0.4,0.3,0.6,0.5c1.1,0.8,2.2,1.6,3.4,2.3c4.8,3.1,8.9,4.9,9.1,5c0.9,0.4,2,0.4,3,0c0.3-0.1,6.3-2.8,12.5-7.3
			c3.7-2.7,6.7-5.4,8.9-8.2c3-3.8,4.5-7.6,4.5-11.4v-26C59.3,9.1,58.2,7.7,56.7,7.2z M55.3,36.7c0,6.6-6.3,12.6-11.6,16.4
			c-4.6,3.3-9.3,5.7-11.1,6.6L32,60l-0.6-0.3c-0.9-0.4-2.7-1.4-5-2.7c-2.2-1.3-4.2-2.6-6-3.9c-0.2-0.2-0.5-0.3-0.7-0.5
			c-2.4-1.8-4.4-3.6-6-5.4c-2.4-2.7-4-5.3-4.6-7.9c-0.2-0.9-0.3-1.8-0.3-2.6V11h0.1L32,4h0.2l23.1,7V36.7z"/>
	</g>
</g>
</svg>
