<?xml version="1.0" encoding="utf-8"?>
<!-- Generator: Adobe Illustrator 25.4.1, SVG Export Plug-In . SVG Version: 6.00 Build 0)  -->
<svg version="1.1"
	 id="Layer_1" xmlns:cc="http://creativecommons.org/ns#" xmlns:dc="http://purl.org/dc/elements/1.1/" xmlns:inkscape="http://www.inkscape.org/namespaces/inkscape" xmlns:rdf="http://www.w3.org/1999/02/22-rdf-syntax-ns#" xmlns:sodipodi="http://sodipodi.sourceforge.net/DTD/sodipodi-0.dtd" xmlns:svg="http://www.w3.org/2000/svg"
	 xmlns="http://www.w3.org/2000/svg" xmlns:xlink="http://www.w3.org/1999/xlink" x="0px" y="0px" viewBox="0 0 512 512"
	 style="enable-background:new 0 0 512 512;" xml:space="preserve">
<style type="text/css">
	.st0{fill:#FFFFFF;}
</style>
<path class="st0" d="M147,358.7c2.7-1.1,5.5-2.1,8.1-3.4c3.4-1.1,4.8-4.7,7.5-6.7c0.5-0.2,1.1-0.3,1.6-0.4c0.2,1.2,0.9,2.2,1.5,3.2
	c-1.1-0.7-1.8-2-3.3-2c-0.6,0-0.8,0.6-1,0.9c-0.7,1.2-2.4,2-2.1,3.6c0.2,1.8,1.8,3,2.4,4.7c-0.9,0.7-1.8,1.4-2.9,1.8
	c1.1,0,2.3-0.1,3.4,0.1c0.1,1.2,0.4,2.4,0.6,3.6c0.1-1.3,0.5-2.5,1-3.7c1.9,0.3,3.7,1.6,5.6,1.2c1.1-0.3,1.8-1.4,2-2.5
	c0.5-1.3-0.6-2.4-1.2-3.4c0.8,0.6,1.8,1,2.9,1.1c-0.6,1.4-0.8,3-1.9,4.2c-1,1.2-2.2,2.3-2.4,3.9c-0.9,3.2-1.5,6.5-2.1,9.8
	c0.5,0.1,0.9,0.1,1.4,0.2c-0.4-2.8,0.6-5.5,1.4-8.2c1.5-3.6,3.9-6.7,5.9-10.1c0.9-0.7,1.8-1.6,2.6-2.4c1.6-0.6,2.9-1.7,4.3-2.6
	c1-0.7,1.9-2,3.3-1.8c-0.9,1.9-2.8,3-3.8,4.7c0.4,0.1,0.8,0.1,1.3,0.2c1.5,2.9,2.7,6,4.7,8.6c0.6,0.8,1.3,1.6,1.7,2.5
	c0.4-0.4,0.9-0.7,1.3-1c-1.7-0.9-2.6-2.5-3.6-4c-1.1-2-2.2-4.1-3-6.2c0.8-1.9,2.4-3.5,2.6-5.6c0.6,0,1.3,0.1,1.9,0
	c2.7-1.2,2.8-4.8,5.4-6c1.4-0.3,2.8,0.3,4.2,0.2c2.4,0.1,5.1,0.7,6.3,2.9c0.3-0.7,0.7-1.3,1.2-1.9c-1.4,0.2-2.4-0.9-3.6-1.3
	c-2.1-0.7-4.4-0.6-6.5-1.2c3.3-2.6,6.9-5.2,9.1-8.9c1-1.9,1.2-4.2,0.7-6.2c-0.3-1.4-1.8-2-3-2c-3.7-0.1-7.2,1.7-10.6,3
	c-1.1,0.4-2-0.5-2.9-1.1c0-1,0-2,0.2-3c0.6-3.1,1.2-6.3,0.6-9.4c-0.2-1.5-1.6-2.7-3.2-2.6c-2,0.2-4.2,0.7-5.7,2.3
	c-3,2.9-4.9,6.7-6.7,10.4c-0.8-2-1.4-4-2.2-6c-0.9-1.1-1.7-2.3-2.3-3.5c-0.5,0.6-1,1-1.6,1.4c3,1.2,3.7,4.7,4.5,7.5
	c0.2,0.9,0.8,1.8,0.4,2.7c-0.5,1.2-1.5,2.1-2.5,2.9c-1.1,0.8-1.9,1.9-2.3,3.2c0,0.6,0.2,1.1,0.5,1.7c-2.1,0.7-3.3,2.8-5.3,3.8
	c-3.1-0.6-6.2-1.5-9.1-2.9c-0.8-0.4-1.5-1-2.1-1.7c-0.2,0.6-0.4,1.1-0.7,1.6c2.1,0.8,4.1,2.1,6.3,2.6c1.8,0.6,3.8,0.9,5.5,1.6
	c0.3,0.3,0.5,0.7,0.7,1c1.2-1.4,2.2-2.9,3.4-4.4l0.5,0.1c0.1,0.2,0.2,0.3,0.3,0.5c-1,2-2,4-2.9,6.1c-0.2,1.7-1.3,3.2-2.3,4.6
	c-2,1.9-3.9,3.9-6.1,5.6c-1.6,1.8-3.9,2.7-6.1,3.7c-1.4,0.6-2.7,1.2-4.2,1.3C146.7,357.9,146.8,358.3,147,358.7z"/>
<path class="st0" d="M353.4,210.8c0.5-0.6,1-1.2,1.3-1.7L496.7,76.7c1.5-1.4,1.6-3.7,0.2-5.2c-1.4-1.5-3.7-1.6-5.2-0.2L349.2,204.2
	c-0.6,0.5-1,1.2-1.1,2l0,0c-0.1,0.4-0.1,0.7,0,1.1c0.1,1.3-0.1-1.1-0.2-1.3c-1,1.2-2.4,2.8-3.4,4.8c-2.5,4.9-3,11,6.6,16
	c4.7,2.4,9.4,4.9,14.5,7.3l0.6,0.3c-26.6,28.7-58,34.3-81.4,28.2c-8.7-2.3-16.2-6.2-21.9-11.1c-5.5-4.8-9.2-10.4-10.5-16.5
	c-2-9.4,2.1-19.9,14.9-29.4c0.6-0.4,1-1,1.3-1.7l24.4,4.8c10.2,3.3,18.4,2.8,25.4,0.2c6.9-2.5,12.5-7.1,17.5-12
	c1.8-1.8,40.3-43.4,75.6-81.4c29.6-31.9,56.9-61.4,58.2-62.7c1.4-1.5,1.4-3.8,0-5.2c-1.5-1.4-3.8-1.4-5.2,0l0,0
	c-1.5,1.5-28.8,30.9-58.4,62.9c-35.2,38-73.7,79.6-75.4,81.2c-4.4,4.4-9.2,8.3-14.9,10.4c-5.6,2-12.3,2.3-20.8-0.4
	c-0.1,0-0.3-0.1-0.4-0.1l-46.8-9.2c-7.4-3.6-23.3,0.7-43.7,9.6c-1,0-2.1,0.4-2.8,1.2c-12.6,5.7-26.8,13-41.8,21.2
	c-0.6,0.2-1.2,0.5-1.6,0.9c-33.9,18.7-71.6,42.1-103,61.6c-9.4,5.8-18.2,11.3-25.8,15.9c-4.7,1.9-8.2,4.4-10.6,7.4
	c-5.6,6.9-5.2,15.7-0.2,25.7c4.5,9.1,12.8,19.2,23.7,29.8c31,29.9,83.4,63.5,127.4,83.3c5.6,2.5,18.9,8.2,30.6,12.3
	c7.5,2.6,14.5,4.6,18.6,4.6c22,0.3,51.7-21.1,81.6-50c27.1-26.2,54.5-58.6,76.6-86.5c1.6-1.8,3.2-3.8,4.7-6l0,0
	c17.2-22,30.6-40.4,37.1-49.6c0,0,0.1-0.1,0.1-0.1l0,0c8.2-12.6,3.8-21-6.2-27.5c-6.6-4.3-15.8-7.7-25-11c-1.3-0.5-2.7-1-4-1.5
	c-5-1.8-9.8-3.9-14.5-6.2c-4.7-2.2-9.4-4.7-14.2-7.2c-4.2-2.2-4.3-4.4-3.4-6C351.6,212.9,352.7,211.7,353.4,210.8z M346.1,259.9
	l19.3,10.7c-12.9,10.4-27.5,16.3-42.3,18.7l-3.3-19.1C328.5,268.3,337.4,265,346.1,259.9z M127,392c-19.9-12.2-38-26.3-53.2-41.9
	l18.9-9.1c12.1,12.8,26.6,24,42.7,33.8c13,7.9,26.9,14.9,41.3,20.9l-12.1,16v0C151.5,405.9,138.9,399.3,127,392z M139.2,368.5
	c-14.8-9-28.2-19.3-39.5-30.8l24.2-11.7c11.3,12.2,24.6,22.7,39.1,31.6c9.7,6,19.9,11.2,30.5,15.9l-12.2,16.1
	C166.6,383.5,152.4,376.5,139.2,368.5z M167,351.3c-13.3-8.2-25.5-17.7-36-28.7l24.4-11.8c6.1,6,12.9,11.7,20.2,17c0,0,0,0,0,0.1
	c5.7,4.2,11.8,8.1,18,11.7c0,0,0,0,0,0c5.9,3.5,12,6.7,18.3,9.8l-13.7,18.1C187.3,362.7,176.8,357.3,167,351.3z M167.3,311.7
	c-0.4-0.4-0.9-0.8-1.3-1.2c-1.2-1.1-2.4-2.2-3.5-3.2l20.3-9.8c2.3,2.3,4.8,4.5,7.3,6.7c8.4,6.9,12.9,10.1,21.8,15.7
	c5,3.1,10.3,5.9,15.7,8.6l-11.1,14.7C197.9,334.8,181,323.7,167.3,311.7z M245,236.4c0.1,0.6,0.3,1.1,0.4,1.7l-19.9,2.9
	c-1-6.4-0.2-13.1,3-19.7l16.1,4.9C244.1,229.7,244.3,233.1,245,236.4z M230.2,266.4l-19,9.2c-2.4-2.5-4.5-5.2-6.4-7.9
	c-3.3-4.8-5.9-9.8-7.5-15l22.7-3.4c0.7,2,1.6,4,2.6,6C224.6,259.2,227.1,262.9,230.2,266.4z M235.6,272.1c3.4,3.1,7.2,6.1,11.3,8.8
	c3.7,2.4,7.7,4.6,11.9,6.6L248.5,301c-5.4-2.4-10.5-5-15.3-7.9c-6-3.6-11.6-7.6-16.4-12L235.6,272.1z M198.7,272
	c1.7,2.4,3.5,4.7,5.5,7l-20,9.6l0,0c-7.8-8.3-14.8-17.5-19-27.2c-0.5-1.2-1-2.5-1.4-3.7l26.1-3.8C191.7,260.2,194.7,266.2,198.7,272
	z M189.8,294.2l19.9-9.6c5.7,5.5,12.4,10.4,19.8,14.9c4.6,2.7,9.4,5.3,14.5,7.6l-11.8,15.6l0,0C215.9,314.8,201.3,305.2,189.8,294.2
	z M250.9,310c6.8,2.7,14,5,21.4,6.8c15.8,3.9,32.5,5.6,48.8,4.7l3.8,22c-24,0.6-50-4.1-74.1-13c-4-1.5-7.9-3-11.8-4.7L250.9,310z
	 M324.4,296.6c16.9-2.8,33.5-9.8,48.1-22.2l17.5,9.7c-5.9,5.8-10.8,10.5-12.5,11.6c-14.6,10.2-32,15.9-50.2,17.8L324.4,296.6z
	 M319.9,314.2L319.9,314.2c-15.3,0.8-31-0.8-45.8-4.5c-6.3-1.6-12.5-3.5-18.5-5.8l10.2-13.5c5.9,2.3,12.1,4.1,18.5,5.4
	c10.5,2.1,21.6,2.8,32.7,1.8L319.9,314.2z M282.8,269.6c9,2.4,19.2,3.2,29.8,1.8l3.2,18.8l0,0c-10.2,0.9-20.3,0.2-30-1.7
	c-5.3-1.1-10.4-2.5-15.3-4.3l11.3-14.9C282.1,269.4,282.4,269.5,282.8,269.6z M261.3,259.7c3.8,2.8,8.2,5.2,13.1,7.2l-11,14.5l0,0
	c-4.4-2-8.6-4.3-12.4-6.8c-2.9-1.9-5.6-3.9-8.1-6L261.3,259.7z M255.2,254.4l-18.1,8.7l0,0c-3.3-3.5-5.9-7.3-7.9-11.2
	c-0.6-1.2-1.2-2.4-1.7-3.7l20.8-3.1C250,248.5,252.4,251.6,255.2,254.4z M244.6,201c0.7-0.4,1.3-0.9,1.7-1.6l13.3,2.6
	c-6.5,5.5-10.7,11.3-13,17.1l-14.1-4.3h0c1.7-2.5,3.9-5.6,6.3-8.4C240.9,203.9,243.1,201.7,244.6,201z M207.8,207.3
	c12.1-5.4,22-8.9,28.9-9.6c-1.2,1.2-2.5,2.5-3.6,3.9c-3.1,3.7-6.2,8.1-8,10.9L207.8,207.3L207.8,207.3z M196.5,228.7
	c0.3-1.2,2.6-7.1,5.3-12.7c0.4-0.8,0.8-1.6,1.2-2.4l18.3,5.5c-3.5,7.7-4.4,15.5-3.2,23l-22.5,3.3C194.9,240,195.1,234.4,196.5,228.7
	z M163.3,230.1c11.2-6.2,21.8-11.9,31.6-16.7c-2.8,5.8-5.2,12-5.6,13.5c-1.7,6.7-2,13.3-1.1,19.7l-26.4,3.9v0
	C160.7,243.9,160.9,237.1,163.3,230.1z M158.5,264.3c4.3,10,11.2,19.2,18.9,27.6l-20.4,9.9c-11.5-12-20-25.3-24.5-39.5l24-3.5
	C157,260.7,157.7,262.5,158.5,264.3z M154.4,235.1c-1,5.6-0.9,11.1,0.1,16.4l-24,3.5c-0.4-1.8-0.7-3.7-0.9-5.5
	C138,244.6,146.3,239.8,154.4,235.1z M122.7,253.7c0.1,0.8,0.3,1.7,0.5,2.5l-6.2,0.9C118.9,256,120.8,254.8,122.7,253.7z M100.6,267
	l24.4-3.6c4.5,15,13.2,29.1,24.9,41.8l-24.1,11.6l0,0c-12-13.9-21.4-29.9-27.3-48.5C99.2,267.9,99.9,267.5,100.6,267z M92,272.3
	c6,18.2,15.3,34.1,26.9,47.9l-24.4,11.8l0,0c-11.8-13.4-20.8-28.4-25.8-45.3C76.2,282,84,277.2,92,272.3z M58.5,293l3.7-2.3
	c5.2,16.5,14,31.3,25.4,44.6l-19,9.2c-11.4-12.6-20.8-26.1-27.9-40.4C46.4,300.5,52.3,296.8,58.5,293z M24.6,332.4
	c-3.6-7.3-4.2-13.5-0.7-17.8c1.6-2,4.2-3.8,7.8-5.2c0.2-0.1,0.5-0.2,0.7-0.3c0.6-0.4,1.2-0.7,1.8-1.1c7,14.1,16.3,27.4,27.3,39.8
	l-18.3,8.8C34.7,347.9,28.2,339.7,24.6,332.4z M48.9,362.1l17.9-8.6c16,16.8,35.1,31.9,56.3,44.8c11.7,7.2,24.1,13.6,36.8,19.4
	l-10.2,13.4C113.1,412.1,74.3,386,48.9,362.1z M218.4,458.3c-3.3-0.1-9.4-1.8-16.3-4.2c-11.4-4-24.5-9.6-30-12.1
	c-5.1-2.3-10.4-4.8-15.7-7.5l10.5-13.8v0c27.6,11.7,56.9,20.1,85.9,24.3C240,453.5,228.2,458.4,218.4,458.3z M261.8,438.8
	c-30.4-3.6-61.3-11.9-90.3-24.1l12.2-16.1h0c31.9,12.7,65.6,21.1,95.7,25.9C273.5,429.7,267.6,434.5,261.8,438.8z M294.7,410.3
	c-2.7,2.7-5.5,5.2-8.2,7.7c-0.1,0-0.1,0-0.2,0c-30.4-4.4-65.2-12.7-98-25.6l12.1-16v0c32.8,13.5,68.7,21.5,102.2,25.9
	C300.1,405.1,297.4,407.8,294.7,410.3z M309.2,395.8c-0.2-0.1-0.4-0.1-0.6-0.1c-33.7-4.1-70.2-11.9-103.4-25.3l13.5-17.9
	c34.4,15.6,73.1,24.7,107.2,25.3C320.4,384,314.8,390,309.2,395.8z M223.3,346.5l11.1-14.7c4.5,2,9.1,3.9,13.8,5.6
	c25.3,9.3,52.7,14.3,77.9,13.4l3.4,19.6C296.1,370.5,257.6,361.7,223.3,346.5z M336.3,366.1l-2.7-15.7c5-0.5,11.9-1.5,19.3-4.5
	c0.3-0.1,0.5-0.2,0.8-0.3C348,352.4,342.2,359.3,336.3,366.1z M398.2,288.6c-6.3,8.6-14.1,18.8-22.8,30c-0.1,0.1-0.2,0.2-0.2,0.3
	l0,0c-1.4,1.7-2.8,3.5-4.2,5.3c-6.7,7.6-14,12.1-20.8,14.8c-6.8,2.7-13.2,3.7-17.8,4.1l-3.8-22.2c19.2-2.1,37.7-8.2,53.2-19.1
	c2-1.4,8.1-7.1,15-14L398.2,288.6L398.2,288.6z M402.6,282.6l-0.5-0.3c0.9-1,1.9-1.9,2.8-2.9l0,0
	C404.2,280.4,403.4,281.5,402.6,282.6z M408.1,252.1c2.7,1.8,4.8,3.7,5.8,6c-2.8,3.8-8.4,9.9-14.4,16.2c-1.4,1.5-2.8,2.9-4.2,4.3
	l-17-9.4h0c4.7-4,15.6-13.5,21.3-21.5C402.8,249.1,405.7,250.5,408.1,252.1z M372.4,238.2c0.2-0.3,0.4-0.5,0.6-0.8
	c2.5,1.1,5,2.1,7.6,3c1.3,0.5,2.7,1,4,1.5c2.7,1,5.4,1.9,8,2.9c-6.1,7.9-17.3,17.3-20.4,19.9c-0.4,0.3-0.6,0.5-0.8,0.7l-18.2-10h0
	C359.8,250.7,366.3,245.1,372.4,238.2z"/>
</svg>
