<?xml version="1.0" encoding="utf-8"?>
<!-- Generator: Adobe Illustrator 26.0.1, SVG Export Plug-In . SVG Version: 6.00 Build 0)  -->
<svg version="1.1" id="Layer_1" xmlns="http://www.w3.org/2000/svg" xmlns:xlink="http://www.w3.org/1999/xlink" x="0px" y="0px"
	 viewBox="0 0 512 512" style="enable-background:new 0 0 512 512;" xml:space="preserve">
<style type="text/css">
	.st0{fill:#FFFFFF;}
</style>
<path class="st0" d="M376,131c-69,0-125,56-125,125s56,125,125,125c69,0,125-56,125-125S445,131,376,131z M376,334
	c-43,0-78-35-78-78c0-43,35-78,78-78c43.2,0,78,35,78,78C454,299,419,334,376,334z"/>
<rect x="11" y="233.3" class="st0" width="178" height="45.4"/>
<polygon class="st0" points="165,256 73.5,349 105,383.5 232.5,256 105,128.5 73.5,163 "/>
</svg>
