<?xml version="1.0" encoding="utf-8"?>
<!-- Generator: Adobe Illustrator 26.2.1, SVG Export Plug-In . SVG Version: 6.00 Build 0)  -->
<svg version="1.1" id="Layer_1" xmlns="http://www.w3.org/2000/svg" xmlns:xlink="http://www.w3.org/1999/xlink" x="0px" y="0px"
	 viewBox="0 0 512 512" style="enable-background:new 0 0 512 512;" xml:space="preserve">
<style type="text/css">
	.st0{fill:#FFFFFF;}
</style>
<path class="st0" d="M176.2,325.3c16-23.1,9.9-54.7-13.2-70.8c-23.1-16-54.7-9.9-70.8,13.2c-17,25,0,58.5-29.7,91.1
	c-5.2,5.7-1.4,15.1,6.6,15.1C124.8,375.3,159.7,349.3,176.2,325.3L176.2,325.3z"/>
<path class="st0" d="M205,251.7L320.1,104c16-19.8,11.3-49.5-9.4-63.7c-21.2-14.6-50.5-8-63.2,14.2l-97.2,160.4
	c11.3,2.4,22.2,6.6,31.6,13.2C191.3,233.7,199.3,242.2,205,251.7L205,251.7z"/>
<path class="st0" d="M447.9,327.6c-12.3-14.6-28.8-26.9-49.1-34.9c-19.8-7.5-44.3-9.9-66.5-3.8c-45.8,11.8-76,47.6-94.4,82.1
	c-2.8,5.2-3.8,7.1-5.2,9.9c-1.4,2.4-2.8,5.2-4.7,7.5c-3.3,4.7-7.1,9-10.8,12.3c-7.5,7.5-17,12.3-28.8,15.6
	c-22.6,6.1-55.7,2.8-79.7-7.5l-3.3-1.4c-5.2-2.4-11.3-1.9-16,1.9c-7.1,5.2-9,15.6-3.3,23.1c13.7,18.4,30.7,28.3,49.5,36.8
	c18.9,7.5,39.6,11.8,62.3,9.9c22.2-1.4,45.3-10.4,64.2-24.5c9.4-7.1,17-16,24.1-25c3.3-4.2,6.1-9,9.4-13.7l6.6-12.3
	c12.7-25.5,30.2-46.2,50.5-55.7c19.8-9.9,46.2-7.5,76.4,5.2l0.5,0.5c5.7,2.4,12.3,1.4,17.5-2.8C453.1,345.1,453.6,334.2,447.9,327.6
	L447.9,327.6z"/>
</svg>
