<?xml version="1.0" encoding="utf-8"?>
<!-- Generator: Adobe Illustrator 26.0.1, SVG Export Plug-In . SVG Version: 6.00 Build 0)  -->
<svg version="1.1" id="Layer_1" xmlns="http://www.w3.org/2000/svg" xmlns:xlink="http://www.w3.org/1999/xlink" x="0px" y="0px"
	 viewBox="0 0 512 512" style="enable-background:new 0 0 512 512;" xml:space="preserve">
<style type="text/css">
	.st0{fill:#FFFFFF;}
</style>
<path class="st0" d="M447.7,309.8V149.1c-0.2-46.8-38.2-84.6-84.9-84.3c-34.4,0.1-65.3,21-78.2,53l-32.5,81.2
	c-29.7,2-53.2,26.8-53.2,57.1c0,14.8,5.7,28.4,14.9,38.5L181.1,376c-7.4,17.6-27.6,26-45.4,18.7c-12.8-5.3-21.1-17.7-21.4-31.5
	V202.2c43.9-13.8,68.3-60.6,54.5-104.5c-13.8-43.9-60.6-68.3-104.5-54.5C20.5,56.9-3.9,103.7,9.9,147.7c8.1,26,28.5,46.4,54.5,54.5
	v160.8c0.2,46.8,38.2,84.6,84.9,84.3c34.4-0.1,65.3-21,78.2-53l32.5-81.2c29.8-2,53.3-26.8,53.3-57.1c0-14.9-5.7-28.4-15-38.6
	l32.6-81.3c7.4-17.6,27.6-26,45.4-18.7c12.8,5.3,21.1,17.7,21.4,31.5v160.9c-34.8,11.1-58.2,43.3-58.2,79.6
	c0,46,37.3,83.4,83.4,83.4s83.4-37.3,83.4-83.4C506.1,353,482.5,320.7,447.7,309.8z M89.4,156.1c-18.4,0-33.4-15-33.4-33.4
	c0-18.5,15-33.4,33.4-33.4s33.4,15,33.4,33.4C122.8,141.2,107.8,156.1,89.4,156.1z M284,256c0,8.4-3.7,15.9-9.6,21.1
	c-4.9,4.3-11.3,6.9-18.4,6.9c-14.6,0-26.6-11.2-27.8-25.5c-0.1-0.8-0.1-1.6-0.1-2.5c0-8.4,3.7-15.9,9.5-21
	c4.9-4.3,11.4-6.9,18.4-6.9c14.6,0,26.5,11.2,27.8,25.4C284,254.3,284,255.1,284,256z M422.6,422.6c-18.4,0-33.4-15-33.4-33.4
	s15-33.4,33.4-33.4c18.4,0,33.4,15,33.4,33.4C456,407.7,441.1,422.6,422.6,422.6z"/>
</svg>
