<?xml version="1.0" encoding="utf-8"?>
<!-- Generator: Adobe Illustrator 26.3.1, SVG Export Plug-In . SVG Version: 6.00 Build 0)  -->
<svg version="1.1"
	 id="Layer_1" xmlns:sodipodi="http://sodipodi.sourceforge.net/DTD/sodipodi-0.dtd" xmlns:inkscape="http://www.inkscape.org/namespaces/inkscape" xmlns:svg="http://www.w3.org/2000/svg" xmlns:dc="http://purl.org/dc/elements/1.1/" xmlns:rdf="http://www.w3.org/1999/02/22-rdf-syntax-ns#" xmlns:cc="http://creativecommons.org/ns#"
	 xmlns="http://www.w3.org/2000/svg" xmlns:xlink="http://www.w3.org/1999/xlink" x="0px" y="0px" viewBox="0 0 64 64"
	 style="enable-background:new 0 0 64 64;" xml:space="preserve">
<style type="text/css">
	.st0{fill:#FFFFFF;}
</style>
<path class="st0" d="M49.2,50.8V64h3.5c-0.6-4.5-1.5-7.9-2.4-10.5C50,52.4,49.6,51.6,49.2,50.8z"/>
<path class="st0" d="M11.3,64h3.5V50.8C13.5,53.5,12.1,57.7,11.3,64z"/>
<path class="st0" d="M14.8,50.8V64h34.4V50.8c0.4,0.8,0.8,1.7,1.1,2.7c0.9,2.6,1.8,6,2.4,10.5H63c-1.2-10-3.5-16.4-6.4-20.9
	c-2.1-3.2-4.5-5.2-6.8-6.3c-2.2-1.1-4.1-1.3-5.2-1.4c-0.1,0-0.1,0-0.2,0H19.8c-0.1,0-0.2,0-0.2,0c-1.1,0-3.1,0.3-5.2,1.4
	c-3.4,1.7-7.1,5.4-9.7,12C3,52.7,1.8,57.6,1,64h10.3C12.1,57.7,13.5,53.5,14.8,50.8z"/>
<path class="st0" d="M32,31.8c7.9,0,14.3-6.4,14.3-14.3S39.9,3.2,32,3.2S17.7,9.6,17.7,17.5S24.1,31.8,32,31.8z"/>
</svg>
