<?xml version="1.0" encoding="utf-8"?>
<!-- Generator: Adobe Illustrator 26.0.2, SVG Export Plug-In . SVG Version: 6.00 Build 0)  -->
<svg version="1.1" id="Layer_1" xmlns="http://www.w3.org/2000/svg" xmlns:xlink="http://www.w3.org/1999/xlink" x="0px" y="0px"
	 viewBox="0 0 64 64" style="enable-background:new 0 0 64 64;" xml:space="preserve">
<style type="text/css">
	.st0{fill:#FFFFFF;}
</style>
<path class="st0" d="M45.8,39c3.1-4.6,4.6-10.3,3.8-16.5c-1.5-10.7-10-19.3-20.7-20.7C13-0.1-0.2,13.1,1.7,28.9
	c1.3,10.7,10,19.4,20.7,20.7c6.2,0.9,11.9-0.7,16.5-3.8c0.6-0.4,1.3-0.3,1.9,0.1l16,16c0.6,0.6,1.5,0.6,2.1,0l3.1-3.1
	c0.6-0.6,0.6-1.5,0-2.1L46,40.9C45.5,40.3,45.4,39.6,45.8,39z M29.2,46.1c-14.1,2.4-26-9.7-23.8-23.8c1.5-8.5,8.2-15.4,16.8-16.8
	c14.1-2.4,26,9.7,23.8,23.8C44.7,37.8,37.8,44.7,29.2,46.1z"/>
</svg>
