<?xml version="1.0" encoding="utf-8"?>
<!-- Generator: Adobe Illustrator 25.4.1, SVG Export Plug-In . SVG Version: 6.00 Build 0)  -->
<svg version="1.1" id="Layer_1" xmlns="http://www.w3.org/2000/svg" xmlns:xlink="http://www.w3.org/1999/xlink" x="0px" y="0px"
	 viewBox="0 0 512 512" style="enable-background:new 0 0 512 512;" xml:space="preserve">
<style type="text/css">
	.st0{fill:#FFFFFF;}
</style>
<path class="st0" d="M483.4,164.2h-27.5v-25.5c0-13.5-10.1-24.5-22.6-24.5h-88.1c-5.4,0-10.6,2.1-14.5,5.7
	c-4.3-3.7-9.7-5.7-15.4-5.7H29.9c-13.2,0-23.9,11-23.9,24.5v184.5c0,13.5,10.7,24.5,23.9,24.5h26.1L56,373.3
	c0,13.5,10.7,24.5,23.9,24.5h285.4c5.7,0,11.1-2.1,15.4-5.8c4,3.7,9.1,5.7,14.6,5.8h88.1c12.5,0,22.6-11,22.6-24.5V188.7
	C506,175.2,495.9,164.2,483.4,164.2z M339.3,138.7c0-4.2,2.7-7.8,5.9-7.8h88.1c3.2,0,5.9,3.6,5.9,7.8v25.8h-100V138.7z M22.7,138.7
	c-0.1-4.2,3.1-7.7,7.3-7.8h285.4c4.2,0.2,7.4,3.7,7.3,7.8v25.8h-300L22.7,138.7z M29.9,331.1c-4.2-0.2-7.4-3.7-7.3-7.8V181.2h300
	v142.1c0.1,4.2-3.1,7.7-7.3,7.8L29.9,331.1z M372.7,373.3h-0.1c0.1,4.2-3.1,7.7-7.3,7.8H79.9c-4.2-0.2-7.4-3.6-7.3-7.8l0.1-25.5
	h242.7c5.6,0,11.1-2,15.4-5.7c3.9,3.7,9.1,5.7,14.5,5.7h27.5L372.7,373.3z M345.2,331.1c-3.2,0-5.9-3.6-5.9-7.8V181.2h100v142.1
	c0,4.2-2.7,7.8-5.9,7.8H345.2z M489.3,373.3c0,4.2-2.7,7.8-5.9,7.8h-88.1c-3.2,0-5.9-3.6-5.9-7.8v-25.5h43.9
	c12.5,0,22.6-11,22.6-24.5V223.1h33.4V373.3z M489.3,206.4h-33.4v-25.5h27.5c3.2,0,5.9,3.6,5.9,7.8V206.4z"/>
<path class="st0" d="M247.7,214.5h-50c-4.6,0-8.3,3.7-8.3,8.3s3.7,8.3,8.3,8.3h50c4.6,0,8.3-3.7,8.3-8.3S252.3,214.5,247.7,214.5z"
	/>
<path class="st0" d="M414.3,214.5h-50c-4.6,0-8.3,3.7-8.3,8.3s3.7,8.3,8.3,8.3h50c4.6,0,8.3-3.7,8.3-8.3S418.9,214.5,414.3,214.5z"
	/>
<path class="st0" d="M414.3,247.8h-50c-4.6,0-8.3,3.7-8.3,8.3c0,4.6,3.7,8.3,8.3,8.3h50c4.6,0,8.3-3.7,8.3-8.3
	C422.6,251.5,418.9,247.8,414.3,247.8z"/>
<circle class="st0" cx="281" cy="222.8" r="8.3"/>
<path class="st0" d="M247.7,247.8h-50c-4.6,0-8.3,3.7-8.3,8.3c0,4.6,3.7,8.3,8.3,8.3h50c4.6,0,8.3-3.7,8.3-8.3
	C256,251.5,252.3,247.8,247.7,247.8z"/>
<circle class="st0" cx="281" cy="256.1" r="8.3"/>
<path class="st0" d="M247.7,281.1h-50c-4.6,0-8.3,3.7-8.3,8.3c0,4.6,3.7,8.3,8.3,8.3h50c4.6,0,8.3-3.7,8.3-8.3
	C256,284.9,252.3,281.1,247.7,281.1z"/>
<circle class="st0" cx="281" cy="289.5" r="8.3"/>
<path class="st0" d="M147.8,247.8H128l-14.4-28.7c-2.1-4.1-7.1-5.8-11.2-3.7c-4.1,2.1-5.8,7.1-3.7,11.2l10.6,21.3H72.8v-16.7
	c0-4.6-3.7-8.3-8.3-8.3s-8.3,3.7-8.3,8.3v25c0,4.6,3.7,8.3,8.3,8.3h44.8l-10.6,21.3c-2.1,4.1-0.4,9.1,3.7,11.2
	c4.1,2.1,9.1,0.4,11.2-3.7l14.4-28.7h19.8c4.6,0,8.3-3.7,8.3-8.3C156.1,251.5,152.4,247.8,147.8,247.8z"/>
</svg>
