<?xml version="1.0" encoding="utf-8"?>
<!-- Generator: Adobe Illustrator 25.0.0, SVG Export Plug-In . SVG Version: 6.00 Build 0)  -->
<svg version="1.1" id="Layer_1" xmlns="http://www.w3.org/2000/svg" xmlns:xlink="http://www.w3.org/1999/xlink" x="0px" y="0px"
	 viewBox="0 0 64 64" style="enable-background:new 0 0 64 64;" xml:space="preserve">
<style type="text/css">
	.st0{fill:#FFFFFF;}
</style>
<path class="st0" d="M31.9,8.8c-0.8,0.1-1.1,1-1.1,1.5l-0.1,5c-1,2.2-9.4,20.2-13.8,30c-0.3,0.6,2.2,2.3,2.6,1.8
	c1.1-1.5,2-3.1,3.1-4.6c1.1-1.5,2.3-3,3.9-4c0.4-0.3,0.9-0.5,1.4-0.7c0.5-0.2,0.9-0.4,1.4-0.5c0.1,0,1.1-0.2,1.1-0.1
	c0,0,0,6.5,0,6.5c-1,1.1-2,2.1-2.9,3.2c-0.3,0.3-0.7,0.7-1,1C26.3,48,26,48.2,26,48.5c0,0.6,1.1,0.7,1.5,0.7h4.4h0.1h4.4
	c0.4,0,1.6-0.1,1.5-0.7c0-0.3-0.3-0.5-0.4-0.7c-0.3-0.4-0.7-0.7-1-1c-1-1.1-2-2.1-2.9-3.2c0,0,0-6.5,0-6.5c0,0,1,0.1,1.1,0.1
	c0.5,0.1,1,0.3,1.4,0.5c0.5,0.2,0.9,0.4,1.4,0.7c1.5,1,2.8,2.6,3.9,4c1.1,1.5,2.1,3.1,3.1,4.6c0.4,0.5,2.8-1.2,2.6-1.8
	c-4.4-9.8-12.7-27.8-13.8-30l-0.1-5c0-0.5-0.4-1.4-1.1-1.5C32,8.8,32,8.8,31.9,8.8z"/>
<path class="st0" d="M13.5,0h-11C1.1,0,0,1.1,0,2.5v11C0,14.9,1.1,16,2.5,16h0C3.9,16,5,14.9,5,13.5v-6C5,6.1,6.1,5,7.5,5h6
	C14.9,5,16,3.9,16,2.5v0C16,1.1,14.9,0,13.5,0z"/>
<path class="st0" d="M64,13.5v-11C64,1.1,62.9,0,61.5,0h-11C49.1,0,48,1.1,48,2.5v0C48,3.9,49.1,5,50.5,5h6C57.9,5,59,6.1,59,7.5v6
	c0,1.4,1.1,2.5,2.5,2.5h0C62.9,16,64,14.9,64,13.5z"/>
<path class="st0" d="M50.5,64h11c1.4,0,2.5-1.1,2.5-2.5v-11c0-1.4-1.1-2.5-2.5-2.5h0c-1.4,0-2.5,1.1-2.5,2.5v6
	c0,1.4-1.1,2.5-2.5,2.5h-6c-1.4,0-2.5,1.1-2.5,2.5v0C48,62.9,49.1,64,50.5,64z"/>
<path class="st0" d="M0,50.5v11C0,62.9,1.1,64,2.5,64h11c1.4,0,2.5-1.1,2.5-2.5v0c0-1.4-1.1-2.5-2.5-2.5h-6C6.1,59,5,57.9,5,56.5v-6
	C5,49.1,3.9,48,2.5,48h0C1.1,48,0,49.1,0,50.5z"/>
</svg>
