<?xml version="1.0" encoding="utf-8"?>
<!-- Generator: Adobe Illustrator 25.0.1, SVG Export Plug-In . SVG Version: 6.00 Build 0)  -->
<svg version="1.1" id="Layer_1" xmlns="http://www.w3.org/2000/svg" xmlns:xlink="http://www.w3.org/1999/xlink" x="0px" y="0px"
	 viewBox="0 0 792 792" style="enable-background:new 0 0 792 792;" xml:space="preserve">
<style type="text/css">
	.st0{fill:#FFFFFF;}
</style>
<g>
	<g>
		<g>
			<g>
				<path class="st0" d="M305.4,315.6c0,0-0.3-0.1-0.8-0.1c-1,0-2.7,0.2-4.1,1.6c-1,1-1.8,1.8-1.8,1.8l4.6,1.3l48,14
					c0,0-4.3,9.3-1.8,12.1c0,0,0.1,0,0.1,0.1c0.5,0.1,1,0.3,1.4,0.5c1.5,0.7,3.5,1.2,5.9,1.4c0.1,0,0.2,0,0.3,0
					c0.8,0,1.6,0.2,2.4,0.5c3.7-0.2,7.9-1,12.1-1.9l26.3,14.6c0,0,3.8-2,3-4.2l-11.3-15.8c5.6-1.9,22.1-7.9,42.4-15.3l60.7,39.5
					c0,0,5.9-1.3,4.7-7.1c-1-4.9-13.1-39.7-16.7-50.3c31.3-11.5,59.8-22.1,65.3-24.6c12.1-5.4,22.5-10.3,28.6-19.1
					c0.2-0.3,0.5-0.6,0.7-1c7.1-11.3,4.4-14.2,1.2-17.4c-2.6-2.5-8.3-4.7-11.5-5.6c-0.8-0.2-1.4-0.4-1.8-0.5c0,0-5.2-4-14.4-5.7
					c-2.6-0.5-5.5-0.8-8.6-0.8c-1,0-1.9,0-2.9,0.1c-16.3,1-40.4,11.6-65.3,24.1c-10.2,5-37.5,20.3-37.5,20.3s-176.8-28.6-183-29.6
					c-1-0.2-2-0.2-2.9-0.2c-5,0-9.5,2.2-13.3,7.3l7.1,2.9l142.4,48.8l-23.4,16.5L305.4,315.6z"/>
				<path class="st0" d="M395.8,135c50.2,0,97.4,19.5,132.9,55c11.4,11.4,21.1,24,29.1,37.5c4.3,1.5,7.4,3.2,9.2,4.3
					c4,1.1,11.6,3.8,16,8c1.8,1.8,5.6,5.5,6.1,11.7c0.3,5-1.5,10.3-5.9,17.3c-1.6,2.5-3.4,4.7-5.4,6.8c3.9,15.3,6,31.1,6,47.3
					c0,50.2-19.5,97.4-55,132.8c-35.5,35.5-82.7,55-132.9,55c-25.1,0-49.3-4.9-71.8-14.2c0.1,2.3,0.2,4.5,0.4,6.5
					c0.5,6.6,1.4,13.3,2.6,19.9c22.1,7.6,45.2,11.5,68.8,11.5c28.6,0,56.3-5.6,82.3-16.6c25.2-10.7,47.8-25.9,67.2-45.3
					c19.4-19.4,34.7-42,45.3-67.2c11-26.1,16.6-53.8,16.6-82.3c0-28.6-5.6-56.3-16.6-82.3c-10.6-25.2-25.9-47.8-45.3-67.2
					c-19.4-19.4-42-34.7-67.2-45.3c-26.1-11-53.8-16.6-82.3-16.6c-28.6,0-56.2,5.6-82.3,16.6c-25.2,10.7-47.8,25.9-67.2,45.3
					c-19.4,19.4-34.7,42-45.3,67.2c-11,26.1-16.6,53.8-16.6,82.3c0,41.5,11.9,81.3,34.4,115.7c4.2-6.3,8.6-12.4,13.1-18.3
					c0.6-0.8,1.2-1.5,1.8-2.3c-16.8-28.5-25.8-61.1-25.8-95c0-50.2,19.5-97.4,55-132.9C298.4,154.6,345.6,135,395.8,135z"/>
				<path class="st0" d="M212.3,448.5L212.3,448.5l0.1-0.2c0.5-0.9,1.1-1.7,1.6-2.6c-23.7-35-37.6-77.3-37.6-122.8
					c0-121.1,98.2-219.3,219.3-219.3c121.1,0,219.3,98.2,219.3,219.3c0,121.1-98.2,219.3-219.3,219.3c-23.4,0-45.9-3.7-67.1-10.5
					c0.6,2.8,1.3,5.5,2,8.1c1.6,6.2,3.6,12.4,5.8,18.4c19.3,4.8,39.2,7.3,59.3,7.3c32.8,0,64.5-6.4,94.4-19.1
					c28.9-12.2,54.8-29.7,77.1-52c22.3-22.3,39.8-48.2,52-77.1c12.6-29.9,19.1-61.7,19.1-94.4c0-32.8-6.4-64.5-19.1-94.4
					c-12.2-28.9-29.7-54.8-52-77.1c-22.3-22.3-48.2-39.8-77.1-52c-29.9-12.6-61.7-19.1-94.4-19.1c-32.8,0-64.5,6.4-94.4,19.1
					c-28.9,12.2-54.8,29.7-77.1,52c-22.3,22.3-39.8,48.2-52,77.1c-12.6,29.9-19.1,61.7-19.1,94.4c0,28.7,5,56.8,14.8,83.5
					c8.1,22,19.3,42.7,33.4,61.5C204.8,461.3,208.5,454.8,212.3,448.5z"/>
				<path class="st0" d="M395.8,72.6c26.1,0,52.2,4.1,77.1,12.1c24,7.8,46.8,19.2,67.4,33.8c20.4,14.4,38.6,31.9,53.8,51.6
					c15.4,19.9,27.7,42.1,36.5,65.7c9,24.3,14.2,50,15.4,76c1.2,26.3-1.8,52.7-8.8,78c-6.7,24.4-17.2,47.7-31,68.9
					c-13.5,21-30.2,39.9-49.3,55.9c-19.2,16.1-40.8,29.4-63.9,39.1c-23.8,10-49.1,16.3-74.7,18.5c-26.1,2.3-52.6,0.6-78.1-5.3
					c1.7,4.1,3.6,8.2,5.6,12.2c1,2,2,3.9,3,5.8c1,1.9,1.8,3.5,3.5,4.8c5.3,4,12.8,4.2,19.2,4.7c15.8,1.4,31.8,1.5,47.6,0.1
					c29.5-2.5,58.6-9.8,85.7-21.6c26-11.2,50.3-26.8,71.5-45.6c22.9-20.2,42.3-44.1,57.3-70.7c17.3-30.7,28.6-64.7,33-99.7
					c3.8-30.1,2.6-60.8-3.6-90.4c-6.9-33-20-64.6-38.5-92.9c-17.5-26.7-39.8-51-65.7-69.8c-11.7-8.5-23.8-16.3-36.6-23
					c-14-7.4-28.7-13.4-43.7-18.2c-30.8-9.9-63.7-14-96-12.4c-32.8,1.6-65.2,9.1-95.3,22.2c-29.1,12.6-55.9,30.4-79,52.2
					c-22.1,20.9-40.6,45.5-54.6,72.5c-15.8,30.5-25.8,64-29.2,98.3c-3.2,32-0.6,64.3,7.2,95.4c6.8,26.8,18,52.5,32.6,76
					c6.9,11.1,14.6,21.7,23,31.7c3-7.3,6.1-14.6,9.6-21.7c0.2-0.5,0.5-0.9,0.7-1.4c-0.3-0.4-0.6-0.7-0.8-1.1
					c-0.6-0.7-1.1-1.5-1.7-2.2c-1.2-1.6-2.4-3.2-3.5-4.8c-2.2-3.1-4.4-6.3-6.4-9.6c-8.4-13-15.5-26.8-21.3-41.1
					c-12-29.6-18.2-61.5-18.2-93.4c-0.1-26.2,4-52.3,12-77.2c7.7-24,19.1-46.8,33.7-67.4c14.4-20.4,31.8-38.6,51.5-53.9
					c19.9-15.4,42.1-27.8,65.6-36.6c24.3-9.1,50-14.3,75.9-15.5C388,72.7,391.9,72.6,395.8,72.6z"/>
				<path class="st0" d="M621.5,108.2c-21.1-22.5-45.9-41.5-72.8-56.7c-26.3-14.8-54.8-25.7-84.2-32.2c-29.9-6.6-60.9-8.8-91.5-6.5
					c-30.2,2.3-60.2,8.9-88.5,19.8c-28.2,10.9-54.8,26-78.6,44.6c-24.2,18.9-45.7,41.3-63.4,66.4c-17.4,24.7-31.2,51.9-40.8,80.5
					c-9.6,28.9-14.9,59.2-15.7,89.6c-0.9,32,3.1,64.1,11.9,94.8c8.7,30.5,22.2,59.6,39.8,86c3.8,5.7,7.8,11.3,12,16.8
					c-0.1,0-0.1,0-0.2,0c5.6,7.1,11.4,14,17.5,20.7c3.1,3.4,6.2,6.7,9.5,9.9c1.2,1.2,2.6,2.4,3.8,3.6c0.8,0.7,1.5,1.4,2.3,2.2
					c0.8,0.7,1.2,0.9,2,1.5c6.6,4.6,15.6,4.6,22.1-0.1c7.1-5.1,7.9-13.5,9.9-21.3c8.6-32.7,23.3-64.6,42-93
					c17-25.9,38.1-49.2,61.8-69.2c4.6-3.9,9.2-7.6,14-11.2c2.2-1.7,4.4-3.3,6.6-4.9c0.3-0.2,0.5-0.4,0.8-0.6
					c-0.2-0.4-0.5-0.8-0.6-1.3c-0.4-0.9-0.6-1.8-0.8-2.7c-0.3-1.7-0.1-3.5,0.2-5.2c-24.8,12.9-48,29-68.5,48
					c-25.3,23.4-46.5,51.1-62.7,81.6c-3.7,7-7.3,14.2-10.5,21.5c-1.7,3.8-3.3,7.5-4.8,11.4c-1.5,3.7-3.2,7.4-4.3,11.3
					c-23.5-25.4-42.6-55.3-55.2-87.6c-12.7-32.8-19.5-67.7-19.5-102.9c0-35.5,6.7-70.8,19.8-103.8c12.7-32.1,31.6-61.7,55-87
					c23.6-25.5,51.9-46.5,83.2-61.7c31.6-15.4,66-24.6,101-27.3c35.3-2.7,70.6,1.5,104.5,11.6c33.1,9.9,64.4,26.7,91.3,48.2
					c27.6,22,51.3,49.1,68.9,79.7c17.7,30.8,29.5,64.7,34.6,99.8c5.1,34.7,3.5,70.5-4.5,104.7c-4,17.2-9.7,34-16.9,50.1
					c-7,15.5-15.2,30.8-25.1,44.7c-19.4,28.1-43.9,52.7-72.1,72.1c-28.7,19.8-60.9,33.9-94.8,42c-16.9,4.1-34.4,6.4-51.8,7.1
					c-8.8,0.4-17.5,0.4-26.3-0.1c-8.3-0.4-17-0.6-25-2.6c-3.7-1-7.3-2.5-10.3-5c-1.7-1.4-2.8-2.9-3.9-4.8c-1.1-2.1-2.2-4.1-3.3-6.2
					c-4-7.9-7.6-16.1-10.6-24.5c-6.3-17.2-10.3-35.3-12.1-53.6c-3.2-33.1,1.2-66.9,12.6-98.1c3.4-9.2,7.4-18.2,11.9-26.9
					c4.6-8.8,9.9-17.1,15.3-25.3c-1.9-0.1-3.7-0.4-5.6-0.9c-0.8-0.2-1.6-0.5-2.4-0.8c-0.4-0.2-0.7-0.3-1.1-0.5c-0.5,0.5-1,1-1.5,1.5
					c-2.6,2.8-5.2,5.6-7.6,8.4c-4.9,5.8-9.5,11.8-13.8,18.1c-8.6,12.6-15.9,26.2-21.6,40.4C290.8,453,286,486.3,288.8,519
					c1.4,16.2,4.7,32.2,9.7,47.6c4.9,15,11.4,29.9,19.9,43.2c-0.2-0.3-0.3-0.5-0.5-0.8c2,3.3,4,6.6,6.7,9.5c2.6,2.7,5.6,5,8.8,6.8
					c7,3.8,15.3,5.2,23.1,6.3c8.4,1.1,17,1.5,25.5,1.6c8.1,0.1,16.2,0.2,24.2-0.1c30.4-0.9,60.7-6.3,89.5-16
					c28.6-9.6,55.8-23.5,80.4-41c25.1-17.9,47.6-39.6,66.5-64c18.7-24.2,33.8-51.2,44.6-79.8c11.1-29.4,17.6-60.5,19.3-91.8
					c1.8-32.2-1.3-64.6-9.4-95.8c-7.5-29.2-19.4-57.3-35.1-83.1C650.7,142.4,636.9,124.5,621.5,108.2
					C619.8,106.4,624.7,111.6,621.5,108.2z"/>
			</g>
		</g>
	</g>
	<g>
		<g>
			<path class="st0" d="M164.4,661.1c-0.4-0.3-0.9-0.5-1.5-0.5h-49.4c-0.5,0-1,0.2-1.4,0.5c-0.4,0.3-0.7,0.9-0.7,1.6v7
				c0,0.7,0.2,1.3,0.7,1.6c0.4,0.3,0.9,0.5,1.4,0.5H131V748c0,0.7,0.2,1.2,0.7,1.6c0.4,0.3,0.9,0.5,1.5,0.5h10.4
				c0.5,0,1-0.2,1.4-0.5c0.4-0.3,0.6-0.9,0.6-1.6v-76.1H163c0.6,0,1.1-0.2,1.5-0.5c0.4-0.3,0.6-0.9,0.6-1.6v-7.1
				C165.1,662,164.9,661.5,164.4,661.1z"/>
			<path class="st0" d="M214,688c-1.8-1.6-3.9-2.9-6.4-3.8c-2.5-0.9-5.2-1.4-8.1-1.4c-2.5,0-4.8,0.4-7,1.1c-2.2,0.7-4.3,1.7-6.2,2.9
				v-24c0-1.3-0.7-2-2.2-2h-9.4c-1.5,0-2.2,0.7-2.2,2v85.4c0,1.3,0.7,1.9,2.2,1.9h8.8c1,0,1.8-0.2,2.2-0.6c0.4-0.4,0.7-0.9,0.7-1.5
				v-45.6c0-1.2,0.2-2.3,0.7-3.4c0.5-1.1,1.2-2.1,2-3c0.9-0.9,1.9-1.5,3.1-2.1c1.2-0.5,2.6-0.8,4-0.8c1.4,0,2.7,0.2,3.8,0.6
				c1.2,0.4,2.2,1,3,1.8c0.8,0.8,1.5,1.6,2,2.6c0.5,1,0.8,2,0.8,3v47c0,0.6,0.2,1.1,0.7,1.5c0.4,0.3,0.9,0.5,1.4,0.5h9.8
				c0.5,0,1-0.2,1.4-0.5c0.4-0.3,0.6-0.8,0.6-1.5v-46.7c0-2.7-0.5-5.2-1.5-7.5C217.2,691.6,215.8,689.6,214,688z"/>
			<path class="st0" d="M269.1,688.1c-2-1.7-4.4-3-7.2-3.9c-2.8-0.9-5.8-1.4-9.1-1.4c-3.2,0-6.3,0.5-9.1,1.4
				c-2.9,0.9-5.4,2.2-7.5,3.9c-2.1,1.7-3.8,3.6-5,5.8c-1.2,2.2-1.8,4.6-1.8,7.1v32c0,2.5,0.6,4.9,1.8,7.1c1.2,2.2,2.9,4.1,5,5.8
				c2.1,1.7,4.6,3,7.5,3.9c2.9,0.9,5.9,1.4,9.1,1.4c3.3,0,6.3-0.5,9.1-1.4c2.8-0.9,5.1-2.2,7.1-3.9c1.9-1.7,3.5-3.6,4.6-5.8
				c1.1-2.2,1.7-4.6,1.7-7.1v-2.3c0-0.7-0.2-1.2-0.5-1.4c-0.4-0.2-0.8-0.3-1.2-0.3h-8.8c-0.6,0-1,0.1-1.4,0.4
				c-0.4,0.3-0.6,0.6-0.6,1.2v2.3c0,1.1-0.2,2.1-0.7,3.1c-0.5,1-1.1,1.9-1.9,2.6c-0.8,0.8-1.8,1.4-3,1.8c-1.2,0.4-2.5,0.7-3.9,0.7
				c-1.4,0-2.8-0.2-4-0.7c-1.2-0.5-2.3-1-3.2-1.8c-0.9-0.7-1.6-1.6-2.1-2.6c-0.5-1-0.8-2-0.8-3.1v-13.8H273c0.7,0,1.3-0.2,1.7-0.5
				c0.4-0.4,0.7-0.8,0.7-1.5v-16.3c0-2.5-0.6-4.9-1.6-7.1C272.6,691.7,271.1,689.7,269.1,688.1z M262.7,711h-19.5v-10
				c0-1.1,0.3-2.1,0.8-3.1c0.5-1,1.2-1.9,2.1-2.6c0.9-0.7,1.9-1.3,3.2-1.8c1.2-0.4,2.5-0.7,4-0.7c1.4,0,2.7,0.2,3.8,0.7
				c1.2,0.5,2.2,1,3,1.8c0.8,0.7,1.5,1.6,2,2.6c0.5,1,0.7,2.1,0.7,3.1V711z"/>
			<path class="st0" d="M343.8,712.1c-2.2-2.3-4.9-4.6-8-6.7c-3.1-2.1-6.5-4.5-10.1-7c-1.6-1.1-3.3-2.2-4.9-3.3
				c-1.6-1.1-3.1-2.3-4.4-3.5c-1.3-1.3-2.4-2.7-3.2-4.2c-0.8-1.5-1.2-3.3-1.2-5.3c0-2.2,0.4-4.1,1.2-5.6c0.8-1.5,1.8-2.7,3-3.6
				c1.2-0.9,2.5-1.5,3.9-1.9c1.4-0.4,2.7-0.5,4-0.5c1.9,0,3.6,0.3,5,0.9c1.5,0.6,2.7,1.4,3.7,2.5c1,1,1.7,2.2,2.2,3.5
				c0.5,1.3,0.8,2.7,0.8,4.1v3.7c0,0.8,0.1,1.4,0.4,1.7c0.3,0.4,0.8,0.6,1.7,0.6h8.8c1,0,1.7-0.2,2.1-0.6c0.4-0.4,0.5-1,0.5-1.8
				v-3.8c0-3.1-0.6-6.1-1.8-8.8c-1.2-2.7-2.9-5-5.2-7c-2.2-2-4.9-3.5-8-4.6c-3.1-1.1-6.6-1.6-10.3-1.6c-1.4,0-3,0.2-4.8,0.5
				c-1.8,0.3-3.6,0.8-5.5,1.5c-1.9,0.7-3.7,1.6-5.5,2.7c-1.8,1.1-3.4,2.5-4.8,4.2c-1.4,1.7-2.6,3.6-3.5,5.8
				c-0.9,2.2-1.3,4.8-1.3,7.8c0,3.4,0.5,6.4,1.5,8.9c1,2.5,2.5,4.7,4.4,6.8c1.9,2.1,4.2,4.1,6.9,6c2.7,1.9,5.8,4.1,9.2,6.4
				c3,2.1,5.5,3.9,7.6,5.4c2.1,1.5,3.8,3.1,5.1,4.5c1.3,1.5,2.3,3,2.9,4.5c0.6,1.5,0.9,3.4,0.9,5.4c0,1.6-0.3,3-1,4.3
				c-0.7,1.3-1.6,2.4-2.7,3.4c-1.2,0.9-2.5,1.7-4,2.2c-1.5,0.5-3.2,0.8-4.8,0.8c-1.3,0-2.6-0.2-4.1-0.6c-1.4-0.4-2.8-1-4-1.9
				c-1.2-0.9-2.2-2.1-3-3.6c-0.8-1.5-1.2-3.3-1.2-5.4v-3c0-0.8-0.2-1.4-0.5-1.8c-0.3-0.4-0.9-0.5-1.8-0.5h-9.1c-1,0-1.6,0.2-1.9,0.6
				c-0.3,0.4-0.4,1.1-0.4,1.9v3.4c0,3.2,0.6,6.2,1.9,8.9c1.3,2.7,3,5,5.3,6.9c2.3,1.9,5,3.5,8.2,4.6c3.2,1.1,6.7,1.6,10.5,1.6
				c3.9,0,7.5-0.6,10.7-1.7c3.3-1.2,6-2.7,8.4-4.7c2.3-1.9,4.2-4.2,5.5-6.7c1.3-2.5,2-5.2,2-8c0-4-0.6-7.5-1.9-10.3
				C347.8,717,346,714.4,343.8,712.1z"/>
			<path class="st0" d="M388.7,713l18.2-25.5c0.6-0.8,0.7-1.6,0.5-2.4c-0.2-0.8-0.9-1.2-2-1.2h-9.8c-0.7,0-1.3,0.1-1.8,0.3
				c-0.5,0.2-0.9,0.6-1.3,1.2L376,709l-0.8,1.5v-47.8c0-1.3-0.8-2-2.5-2h-9.2c-1.5,0-2.2,0.7-2.2,2V748c0,0.6,0.2,1.1,0.5,1.5
				c0.3,0.4,0.9,0.6,1.7,0.6h9.2c0.8,0,1.4-0.2,1.8-0.6c0.4-0.4,0.7-0.9,0.7-1.5v-22.5l3.9-3.2l15.8,26.2c0.3,0.6,0.7,1,1,1.3
				c0.4,0.2,0.9,0.4,1.4,0.4h10.2c0.8,0,1.4-0.3,1.8-0.9c0.4-0.6,0.4-1.3,0-2.1L388.7,713z"/>
			<path class="st0" d="M461.9,683.9h-9.2c-0.4,0-0.9,0.2-1.6,0.6c-0.6,0.4-1,1-1,1.9v41.5c0,1.2-0.3,2.3-0.8,3.4
				c-0.5,1.1-1.2,2.1-2.1,2.9c-0.9,0.8-1.9,1.5-3.1,2c-1.2,0.5-2.4,0.7-3.8,0.7c-1.5,0-2.8-0.2-4-0.6c-1.2-0.4-2.2-1-3.1-1.8
				c-0.8-0.8-1.5-1.6-2-2.6c-0.5-1-0.7-2-0.8-3.1v-42.8c0-0.6-0.2-1.1-0.6-1.5c-0.4-0.3-0.9-0.5-1.4-0.5h-9.8
				c-0.6,0-1.1,0.2-1.5,0.5c-0.4,0.3-0.6,0.8-0.6,1.5v42.6c0,2.8,0.5,5.3,1.5,7.6c1,2.3,2.4,4.3,4.2,5.9c1.8,1.7,4,2.9,6.5,3.8
				c2.5,0.9,5.3,1.4,8.4,1.4c2.3,0,4.5-0.3,6.6-1c2.2-0.7,4.2-1.6,6.2-2.8v8.8c0,1.9-0.3,3.6-1,5c-0.7,1.4-1.6,2.5-2.7,3.4
				c-1.1,0.9-2.4,1.5-3.9,1.9c-1.5,0.4-3,0.6-4.6,0.6c-1.2,0-2.4-0.1-3.6-0.3c-1.2-0.2-2.4-0.5-3.5-0.8c-1.1-0.3-2.2-0.7-3.2-1.2
				c-1-0.5-1.8-0.9-2.5-1.5c-0.6-0.4-1.1-0.6-1.7-0.6c-0.6,0-1.1,0.2-1.5,0.7l-2.8,5.1c-0.4,0.5-0.5,1-0.4,1.5
				c0.2,0.5,0.5,1,1.1,1.4c2.2,1.5,5,2.8,8.4,3.8c3.5,1,7.3,1.5,11.7,1.5c3.6,0,6.9-0.5,9.9-1.6c3-1,5.5-2.5,7.6-4.4
				c2.1-1.9,3.7-4.3,4.8-7c1.1-2.8,1.7-7.8,1.7-11.3V686c0-0.6-0.2-1.2-0.6-1.5C463,684.1,462.5,683.9,461.9,683.9z"/>
			<path class="st0" d="M517.7,688.1c-1.8-1.7-4-3-6.5-3.9c-2.5-1-5.3-1.5-8.2-1.5c-3.2,0-6.1,0.5-8.7,1.6c-2.6,1.1-4.9,2.5-6.8,4.3
				l-0.3-2.5c-0.2-0.9-0.5-1.5-0.9-1.8c-0.4-0.3-1-0.5-1.7-0.5h-6.2c-0.8,0-1.3,0.2-1.7,0.6c-0.4,0.4-0.5,0.9-0.5,1.5v85
				c0,1.3,0.7,2,2.2,2h9.4c1.5,0,2.2-0.7,2.2-2v-23.8c1.9,1.2,3.9,2.2,6.1,2.9c2.2,0.7,4.5,1.1,7,1.1c3.1,0,5.9-0.5,8.5-1.5
				c2.5-1,4.7-2.4,6.4-4c1.8-1.7,3.1-3.6,4-5.8c0.9-2.2,1.4-4.6,1.4-7v-31.7c0-2.5-0.5-4.9-1.5-7.1
				C520.9,691.7,519.5,689.8,517.7,688.1z M509.6,732.7c0,1.1-0.2,2.2-0.7,3.2c-0.5,1-1.2,1.9-2,2.6c-0.9,0.8-1.9,1.4-3.1,1.8
				c-1.2,0.5-2.5,0.7-3.9,0.7c-1.4,0-2.7-0.2-3.8-0.6c-1.2-0.4-2.2-1-3.1-1.7c-0.9-0.7-1.5-1.6-2-2.5c-0.5-1-0.8-2-0.8-3v-31.8
				c0-1.1,0.2-2.1,0.7-3.1c0.5-1,1.2-1.9,2-2.6c0.9-0.8,1.9-1.4,3.1-1.8c1.2-0.5,2.5-0.7,3.9-0.7c1.4,0,2.7,0.2,3.9,0.7
				c1.2,0.5,2.2,1.1,3.1,1.8c0.9,0.8,1.5,1.6,2,2.6c0.5,1,0.7,2,0.7,3.1V732.7z"/>
			<path class="st0" d="M574.2,687.7c-2-1.7-4.4-2.9-7.1-3.7c-2.8-0.8-5.9-1.2-9.3-1.2c-2.7,0-5,0.2-7.1,0.5c-2.1,0.3-4,0.8-5.6,1.3
				c-1.7,0.6-3.2,1.2-4.5,1.9c-1.3,0.7-2.6,1.5-3.8,2.2c-1,0.6-1.5,1.3-1.5,2c-0.1,0.7,0.1,1.3,0.5,1.8l3.8,4.4
				c0.5,0.6,1,0.8,1.7,0.8c0.7,0,1.3-0.2,1.8-0.6c0.8-0.5,1.6-1,2.4-1.5c0.8-0.5,1.7-0.9,2.8-1.3c1-0.4,2.2-0.7,3.4-0.9
				c1.2-0.2,2.6-0.4,4.2-0.4c2.1,0,3.8,0.3,5.2,0.8c1.4,0.5,2.5,1.3,3.4,2.2c0.8,0.9,1.4,2,1.8,3.2c0.4,1.2,0.5,2.5,0.5,3.8v6.7
				h-9.6c-3.1,0-6.1,0.4-9.1,1.2c-3,0.8-5.7,2-8,3.6c-2.3,1.6-4.2,3.6-5.7,6c-1.5,2.4-2.2,5.2-2.2,8.5v2.5c0,3.6,0.6,6.7,1.8,9.2
				c1.2,2.5,2.8,4.6,4.8,6.2c2,1.6,4.3,2.8,6.8,3.5c2.5,0.7,5,1.1,7.5,1.1c2.1,0,4.1-0.3,6-0.8c1.9-0.6,3.5-1.3,5-2.3
				c1.4-0.9,2.6-2,3.5-3.3c0.9-1.2,1.5-2.5,1.8-3.8l0.4,6.2c0.3,1,0.7,1.7,1.2,2.1c0.5,0.4,1.2,0.5,2.1,0.5h5.2
				c0.5,0,0.9-0.2,1.4-0.5c0.5-0.4,0.7-0.9,0.7-1.6v-44.7c0-3.5-0.5-6.5-1.6-9.1C577.7,691.5,576.2,689.4,574.2,687.7z M566.7,726.9
				c0,2.6-0.3,4.8-1,6.6c-0.6,1.8-1.5,3.3-2.5,4.4c-1.1,1.1-2.2,2-3.5,2.5c-1.3,0.5-2.5,0.8-3.8,0.8c-1.4,0-2.8-0.2-4-0.7
				c-1.3-0.5-2.3-1.1-3.3-2c-0.9-0.9-1.6-1.9-2.2-3.1c-0.5-1.2-0.8-2.5-0.8-4V729c0-1.7,0.4-3.1,1.1-4.4c0.7-1.2,1.7-2.3,2.9-3.1
				c1.2-0.8,2.6-1.4,4.1-1.8c1.5-0.4,3.1-0.6,4.8-0.6h8.1V726.9z"/>
			<path class="st0" d="M623.7,683.1c-1-0.2-2.2-0.3-3.7-0.4c-1.4,0-2.9,0-4.6,0c-2.6,0-5.3,0.4-8.2,1.2c-2.8,0.8-5.4,2-7.8,3.7
				c-2.3,1.7-4.3,3.8-5.8,6.4c-1.5,2.6-2.3,5.7-2.3,9.3V748c0,0.6,0.2,1.2,0.6,1.5c0.4,0.4,0.9,0.5,1.4,0.5h9.1
				c0.6,0,1.2-0.2,1.8-0.6c0.6-0.4,1-1.1,1-2v-42.8c0-1.6,0.3-3.1,0.8-4.5c0.6-1.4,1.4-2.6,2.5-3.6c1.1-1,2.4-1.8,3.9-2.4
				c1.5-0.6,3.3-0.9,5.2-0.9c0.9,0,1.7,0,2.5,0s1.6,0,2.5,0.1c0.8,0,1.6-0.1,2.3-0.5c0.7-0.3,1-0.9,1-1.7v-5.9
				C625.9,684.1,625.2,683.4,623.7,683.1z"/>
			<path class="st0" d="M660.8,713l18.2-25.5c0.6-0.8,0.7-1.6,0.5-2.4c-0.2-0.8-0.9-1.2-2-1.2h-9.8c-0.7,0-1.3,0.1-1.8,0.3
				c-0.5,0.2-0.9,0.6-1.3,1.2L648.1,709l-0.8,1.5v-47.8c0-1.3-0.8-2-2.5-2h-9.2c-1.5,0-2.2,0.7-2.2,2V748c0,0.6,0.2,1.1,0.5,1.5
				c0.3,0.4,0.9,0.6,1.7,0.6h9.2c0.8,0,1.4-0.2,1.8-0.6c0.4-0.4,0.7-0.9,0.7-1.5v-22.5l3.9-3.2l15.8,26.2c0.3,0.6,0.7,1,1,1.3
				c0.4,0.2,0.9,0.4,1.4,0.4h10.2c0.8,0,1.4-0.3,1.8-0.9c0.4-0.6,0.4-1.3,0-2.1L660.8,713z"/>
		</g>
	</g>
</g>
</svg>
